<svg xmlns="http://www.w3.org/2000/svg" xmlns:xlink="http://www.w3.org/1999/xlink" viewBox="0 0 68.479 79.0083">
  <defs>
    <style>
      .cls-1 {
        fill: #323232;
      }

      .cls-2 {
        fill: #454545;
      }

      .cls-3 {
        fill: #575757;
      }

      .cls-4 {
        isolation: isolate;
      }

      .cls-5 {
        clip-path: url(#clip-path);
      }

      .cls-6 {
        fill: #4e750f;
      }

      .cls-29, .cls-7 {
        fill: #77b119;
      }

      .cls-8 {
        fill: #782000;
      }

      .cls-9 {
        fill: #ab4400;
      }

      .cls-10 {
        fill: #a1967d;
      }

      .cls-11 {
        fill: #853700;
      }

      .cls-12 {
        fill: #649512;
      }

      .cls-13 {
        fill: #45670c;
      }

      .cls-14 {
        fill: #baae92;
      }

      .cls-15 {
        fill: #5c1800;
      }

      .cls-16 {
        fill: #7d4e30;
      }

      .cls-17 {
        fill: #908263;
      }

      .cls-18 {
        fill: #a89d82;
      }

      .cls-19 {
        fill: #938a73;
      }

      .cls-20 {
        fill: #3c560a;
      }

      .cls-21 {
        fill: #908770;
      }

      .cls-22 {
        fill: #b5a98e;
      }

      .cls-23 {
        clip-path: url(#clip-path-2);
      }

      .cls-24 {
        clip-path: url(#clip-path-3);
      }

      .cls-25 {
        opacity: 0.7;
        fill: url(#linear-gradient);
      }

      .cls-25, .cls-29 {
        mix-blend-mode: multiply;
      }

      .cls-26 {
        fill: #616161;
        opacity: 0.2;
      }

      .cls-26, .cls-27 {
        mix-blend-mode: color-dodge;
      }

      .cls-27 {
        opacity: 0.4;
        fill: url(#linear-gradient-2);
      }

      .cls-28 {
        fill: #7fbb39;
        mix-blend-mode: color;
      }

      .cls-29 {
        opacity: 0.6;
      }
    </style>
    <clipPath id="clip-path" transform="translate(0.0019 0.001)">
      <polygon class="cls-1" points="68.365 19.8 68.477 59.208 34.184 79.007 34.072 39.6 68.365 19.8"/>
    </clipPath>
    <clipPath id="clip-path-2" transform="translate(0.0019 0.001)">
      <polygon class="cls-2" points="34.184 79.007 0.112 59.208 0 19.799 34.072 39.6 34.184 79.007"/>
    </clipPath>
    <clipPath id="clip-path-3" transform="translate(0.0019 0.001)">
      <polygon class="cls-3" points="34.072 39.6 0 19.799 34.294 0 68.365 19.8 34.072 39.6"/>
    </clipPath>
    <linearGradient id="linear-gradient" x1="13.75959" y1="29.58059" x2="67.69304" y2="58.07953" gradientUnits="userSpaceOnUse">
      <stop offset="0" stop-color="#fff"/>
      <stop offset="0.10549" stop-color="#eae8dc"/>
      <stop offset="0.35664" stop-color="#bcb48f"/>
      <stop offset="0.58058" stop-color="#978b52"/>
      <stop offset="0.76909" stop-color="#7c6e25"/>
      <stop offset="0.91475" stop-color="#6c5c0a"/>
      <stop offset="1" stop-color="#650"/>
    </linearGradient>
    <linearGradient id="linear-gradient-2" x1="-20.42884" y1="-34.81259" x2="133.49822" y2="119.11447" gradientUnits="userSpaceOnUse">
      <stop offset="0" stop-color="#86c97a"/>
      <stop offset="1"/>
    </linearGradient>
  </defs>
  <g class="cls-4">
    <g id="Layer_2" data-name="Layer 2">
      <g id="Layer_1-2" data-name="Layer 1">
        <g id="_1" data-name="1">
          <g id="_2" data-name="2">
            <g class="cls-4">
              <g class="cls-4">
                <polygon class="cls-1" points="68.367 19.801 68.479 59.209 34.185 79.008 34.074 39.601 68.367 19.801"/>
                <g class="cls-5">
                  <g>
                    <polygon class="cls-6" points="68.378 22.831 68.376 22.833 68.384 25.864 68.387 25.861 68.378 22.831 68.378 22.831"/>
                    <polygon class="cls-7" points="68.369 19.801 68.366 19.803 68.376 22.833 68.378 22.831 68.369 19.801 68.369 19.801"/>
                    <polygon class="cls-8" points="68.471 56.177 65.832 57.699 65.841 60.731 68.478 59.209 68.471 56.177 68.471 56.177"/>
                    <polygon class="cls-8" points="68.461 53.145 65.824 54.668 65.832 57.699 68.471 56.177 68.461 53.145 68.461 53.145"/>
                    <polygon class="cls-9" points="68.453 50.113 65.815 51.635 65.824 54.668 68.461 53.145 68.453 50.113 68.453 50.113"/>
                    <polygon class="cls-10" points="68.444 47.083 65.808 48.607 65.815 51.635 68.453 50.113 68.444 47.083 68.444 47.083"/>
                    <polygon class="cls-8" points="68.436 44.054 65.798 45.577 65.808 48.607 68.444 47.083 68.436 44.054 68.436 44.054"/>
                    <polygon class="cls-11" points="68.428 41.022 65.79 42.544 65.798 45.577 68.436 44.054 68.428 41.022 68.428 41.022"/>
                    <polygon class="cls-11" points="68.418 37.991 65.781 39.514 65.79 42.544 68.428 41.022 68.418 37.991 68.418 37.991"/>
                    <polygon class="cls-10" points="68.41 34.959 65.772 36.481 65.781 39.514 68.418 37.991 68.41 34.959 68.41 34.959"/>
                    <polygon class="cls-11" points="68.401 31.927 65.764 33.45 65.772 36.481 68.41 34.959 68.401 31.927 68.401 31.927"/>
                    <polygon class="cls-11" points="68.393 28.896 65.756 30.418 65.764 33.45 68.401 31.927 68.393 28.896 68.393 28.896"/>
                    <polygon class="cls-8" points="68.384 25.864 65.748 27.385 65.747 27.386 65.756 30.418 68.393 28.896 68.384 25.864 68.384 25.864"/>
                    <polygon class="cls-6" points="68.376 22.833 65.74 24.355 65.748 27.385 68.384 25.864 68.376 22.833 68.376 22.833"/>
                    <polygon class="cls-7" points="68.366 19.803 65.731 21.324 65.74 24.355 68.376 22.833 68.366 19.803 68.366 19.803"/>
                    <polygon class="cls-12" points="65.74 24.355 65.738 24.356 65.747 27.386 65.748 27.385 65.74 24.355 65.74 24.355"/>
                    <polygon class="cls-13" points="65.731 21.324 65.729 21.325 65.738 24.356 65.74 24.355 65.731 21.324 65.731 21.324"/>
                    <polygon class="cls-10" points="65.832 57.699 63.195 59.222 63.205 62.254 65.841 60.731 65.832 57.699 65.832 57.699"/>
                    <polygon class="cls-10" points="65.824 54.668 63.187 56.189 63.195 59.222 65.832 57.699 65.824 54.668 65.824 54.668"/>
                    <polygon class="cls-10" points="65.815 51.635 63.179 53.159 63.187 56.189 65.824 54.668 65.815 51.635 65.815 51.635"/>
                    <polygon class="cls-14" points="65.808 48.607 63.17 50.129 63.179 53.159 65.815 51.635 65.808 48.607 65.808 48.607"/>
                    <polygon class="cls-8" points="65.798 45.577 63.161 47.099 63.17 50.129 65.808 48.607 65.798 45.577 65.798 45.577"/>
                    <polygon class="cls-11" points="65.79 42.544 63.153 44.067 63.161 47.099 65.798 45.577 65.79 42.544 65.79 42.544"/>
                    <polygon class="cls-9" points="65.781 39.514 63.143 41.036 63.153 44.067 65.79 42.544 65.781 39.514 65.781 39.514"/>
                    <polygon class="cls-10" points="65.772 36.481 63.135 38.005 63.143 41.036 65.781 39.514 65.772 36.481 65.772 36.481"/>
                    <polygon class="cls-11" points="65.764 33.45 63.127 34.972 63.135 38.005 65.772 36.481 65.764 33.45 65.764 33.45"/>
                    <polygon class="cls-8" points="65.756 30.418 63.118 31.94 63.127 34.972 65.764 33.45 65.756 30.418 65.756 30.418"/>
                    <polygon class="cls-15" points="65.747 27.386 63.11 28.909 63.118 31.94 65.756 30.418 65.747 27.386 65.747 27.386"/>
                    <polygon class="cls-12" points="65.738 24.356 63.101 25.878 63.11 28.909 65.747 27.386 65.738 24.356 65.738 24.356"/>
                    <polygon class="cls-13" points="65.729 21.325 63.093 22.848 63.101 25.878 65.738 24.356 65.729 21.325 65.729 21.325"/>
                    <polygon class="cls-16" points="63.195 59.222 60.557 60.745 60.566 63.777 63.205 62.254 63.195 59.222 63.195 59.222"/>
                    <polygon class="cls-11" points="63.187 56.189 60.549 57.713 60.557 60.745 63.195 59.222 63.187 56.189 63.187 56.189"/>
                    <polygon class="cls-9" points="63.179 53.159 60.54 54.681 60.549 57.713 63.187 56.189 63.179 53.159 63.179 53.159"/>
                    <polygon class="cls-14" points="63.17 50.129 60.531 51.653 60.54 54.681 63.179 53.159 63.17 50.129 63.17 50.129"/>
                    <polygon class="cls-11" points="63.161 47.099 60.522 48.623 60.531 51.653 63.17 50.129 63.161 47.099 63.161 47.099"/>
                    <polygon class="cls-11" points="63.153 44.067 60.514 45.59 60.522 48.623 63.161 47.099 63.153 44.067 63.153 44.067"/>
                    <polygon class="cls-11" points="63.143 41.036 60.506 42.56 60.514 45.59 63.153 44.067 63.143 41.036 63.143 41.036"/>
                    <polygon class="cls-17" points="63.135 38.005 60.497 39.528 60.506 42.56 63.143 41.036 63.135 38.005 63.135 38.005"/>
                    <polygon class="cls-18" points="63.127 34.972 60.488 36.496 60.497 39.528 63.135 38.005 63.127 34.972 63.127 34.972"/>
                    <polygon class="cls-19" points="63.118 31.94 60.479 33.464 60.488 36.496 63.127 34.972 63.118 31.94 63.118 31.94"/>
                    <polygon class="cls-20" points="63.11 28.909 60.471 30.432 60.479 33.464 63.118 31.94 63.11 28.909 63.11 28.909"/>
                    <polygon class="cls-6" points="63.101 25.878 60.462 27.402 60.471 30.432 63.11 28.909 63.101 25.878 63.101 25.878"/>
                    <polygon class="cls-12" points="63.093 22.848 60.454 24.372 60.462 27.402 63.101 25.878 63.093 22.848 63.093 22.848"/>
                    <polygon class="cls-8" points="60.557 60.745 57.917 62.269 57.927 65.3 60.566 63.777 60.557 60.745 60.557 60.745"/>
                    <polygon class="cls-11" points="60.549 57.713 57.91 59.237 57.917 62.269 60.557 60.745 60.549 57.713 60.549 57.713"/>
                    <polygon class="cls-11" points="60.54 54.681 57.901 56.204 57.91 59.237 60.549 57.713 60.54 54.681 60.54 54.681"/>
                    <polygon class="cls-10" points="60.531 51.653 57.893 53.176 57.901 56.204 60.54 54.681 60.531 51.653 60.531 51.653"/>
                    <polygon class="cls-8" points="60.522 48.623 57.885 50.146 57.893 53.176 60.531 51.653 60.522 48.623 60.522 48.623"/>
                    <polygon class="cls-11" points="60.514 45.59 57.875 47.114 57.885 50.146 60.522 48.623 60.514 45.59 60.514 45.59"/>
                    <polygon class="cls-9" points="60.506 42.56 57.867 44.083 57.875 47.114 60.514 45.59 60.506 42.56 60.506 42.56"/>
                    <polygon class="cls-17" points="60.497 39.528 57.858 41.052 57.867 44.083 60.506 42.56 60.497 39.528 60.497 39.528"/>
                    <polygon class="cls-15" points="60.488 36.496 57.85 38.019 57.858 41.052 60.497 39.528 60.488 36.496 60.488 36.496"/>
                    <polygon class="cls-8" points="60.479 33.464 57.841 34.988 57.85 38.019 60.488 36.496 60.479 33.464 60.479 33.464"/>
                    <polygon class="cls-6" points="60.471 30.432 57.833 31.956 57.841 34.988 60.479 33.464 60.471 30.432 60.471 30.432"/>
                    <polygon class="cls-7" points="60.462 27.402 57.823 28.925 57.833 31.956 60.471 30.432 60.462 27.402 60.462 27.402"/>
                    <polygon class="cls-7" points="60.454 24.372 57.815 25.895 57.823 28.925 60.462 27.402 60.454 24.372 60.454 24.372"/>
                    <polygon class="cls-8" points="57.917 62.269 55.281 63.791 55.289 66.824 57.927 65.3 57.917 62.269 57.917 62.269"/>
                    <polygon class="cls-11" points="57.91 59.237 55.272 60.759 55.281 63.791 57.917 62.269 57.91 59.237 57.91 59.237"/>
                    <polygon class="cls-11" points="57.901 56.204 55.264 57.728 55.272 60.759 57.91 59.237 57.901 56.204 57.901 56.204"/>
                    <polygon class="cls-17" points="57.893 53.176 55.255 54.699 55.264 57.728 57.901 56.204 57.893 53.176 57.893 53.176"/>
                    <polygon class="cls-10" points="57.885 50.146 55.247 51.668 55.255 54.699 57.893 53.176 57.885 50.146 57.885 50.146"/>
                    <polygon class="cls-10" points="57.875 47.114 55.237 48.636 55.247 51.668 57.885 50.146 57.875 47.114 57.875 47.114"/>
                    <polygon class="cls-19" points="57.867 44.083 55.229 45.606 55.237 48.636 57.875 47.114 57.867 44.083 57.867 44.083"/>
                    <polygon class="cls-19" points="57.858 41.052 55.221 42.574 55.229 45.606 57.867 44.083 57.858 41.052 57.858 41.052"/>
                    <polygon class="cls-8" points="57.85 38.019 55.212 39.541 55.221 42.574 57.858 41.052 57.85 38.019 57.85 38.019"/>
                    <polygon class="cls-11" points="57.841 34.988 55.204 36.51 55.212 39.541 57.85 38.019 57.841 34.988 57.841 34.988"/>
                    <polygon class="cls-11" points="57.833 31.956 55.197 33.477 55.195 33.478 55.204 36.51 57.841 34.988 57.833 31.956 57.833 31.956"/>
                    <polygon class="cls-21" points="57.823 28.925 55.188 30.447 55.197 33.477 57.833 31.956 57.823 28.925 57.823 28.925"/>
                    <polygon class="cls-20" points="57.815 25.895 55.18 27.416 55.188 30.447 57.823 28.925 57.815 25.895 57.815 25.895"/>
                    <polygon class="cls-13" points="55.188 30.447 55.186 30.447 55.195 33.478 55.197 33.477 55.188 30.447 55.188 30.447"/>
                    <polygon class="cls-6" points="55.18 27.416 55.178 27.417 55.186 30.447 55.188 30.447 55.18 27.416 55.18 27.416"/>
                    <polygon class="cls-16" points="55.281 63.791 52.643 65.314 52.651 68.346 55.289 66.824 55.281 63.791 55.281 63.791"/>
                    <polygon class="cls-8" points="55.272 60.759 52.634 62.283 52.643 65.314 55.281 63.791 55.272 60.759 55.272 60.759"/>
                    <polygon class="cls-9" points="55.264 57.728 52.625 59.25 52.634 62.283 55.272 60.759 55.264 57.728 55.264 57.728"/>
                    <polygon class="cls-17" points="55.255 54.699 52.616 56.222 52.625 59.25 55.264 57.728 55.255 54.699 55.255 54.699"/>
                    <polygon class="cls-8" points="55.247 51.668 52.608 53.192 52.616 56.222 55.255 54.699 55.247 51.668 55.247 51.668"/>
                    <polygon class="cls-11" points="55.237 48.636 52.6 50.159 52.608 53.192 55.247 51.668 55.237 48.636 55.237 48.636"/>
                    <polygon class="cls-11" points="55.229 45.606 52.591 47.13 52.6 50.159 55.237 48.636 55.229 45.606 55.229 45.606"/>
                    <polygon class="cls-10" points="55.221 42.574 52.583 44.097 52.591 47.13 55.229 45.606 55.221 42.574 55.221 42.574"/>
                    <polygon class="cls-11" points="55.212 39.541 52.574 41.065 52.583 44.097 55.221 42.574 55.212 39.541 55.212 39.541"/>
                    <polygon class="cls-8" points="55.204 36.51 52.567 38.032 52.565 38.033 52.574 41.065 55.212 39.541 55.204 36.51 55.204 36.51"/>
                    <polygon class="cls-15" points="55.195 33.478 52.558 35 52.567 38.032 55.204 36.51 55.195 33.478 55.195 33.478"/>
                    <polygon class="cls-13" points="55.186 30.447 52.549 31.971 52.558 35 55.195 33.478 55.186 30.447 55.186 30.447"/>
                    <polygon class="cls-6" points="55.178 27.417 52.54 28.939 52.549 31.971 55.186 30.447 55.178 27.417 55.178 27.417"/>
                    <polygon class="cls-20" points="52.558 35 52.556 35.001 52.565 38.033 52.567 38.032 52.558 35 52.558 35"/>
                    <polygon class="cls-6" points="52.549 31.971 52.548 31.971 52.556 35.001 52.558 35 52.549 31.971 52.549 31.971"/>
                    <polygon class="cls-12" points="52.54 28.939 52.539 28.941 52.548 31.971 52.549 31.971 52.54 28.939 52.54 28.939"/>
                    <polygon class="cls-8" points="52.643 65.314 50.004 66.838 50.013 69.869 52.651 68.346 52.643 65.314 52.643 65.314"/>
                    <polygon class="cls-9" points="52.634 62.283 49.995 63.806 50.004 66.838 52.643 65.314 52.634 62.283 52.634 62.283"/>
                    <polygon class="cls-11" points="52.625 59.25 49.987 60.773 49.995 63.806 52.634 62.283 52.625 59.25 52.625 59.25"/>
                    <polygon class="cls-10" points="52.616 56.222 49.978 57.745 49.987 60.773 52.625 59.25 52.616 56.222 52.616 56.222"/>
                    <polygon class="cls-16" points="52.608 53.192 49.97 54.716 49.978 57.745 52.616 56.222 52.608 53.192 52.608 53.192"/>
                    <polygon class="cls-11" points="52.6 50.159 49.961 51.684 49.97 54.716 52.608 53.192 52.6 50.159 52.6 50.159"/>
                    <polygon class="cls-9" points="52.591 47.13 49.952 48.653 49.961 51.684 52.6 50.159 52.591 47.13 52.591 47.13"/>
                    <polygon class="cls-14" points="52.583 44.097 49.943 45.621 49.952 48.653 52.591 47.13 52.583 44.097 52.583 44.097"/>
                    <polygon class="cls-11" points="52.574 41.065 49.935 42.588 49.943 45.621 52.583 44.097 52.574 41.065 52.574 41.065"/>
                    <polygon class="cls-15" points="52.565 38.033 49.928 39.556 49.927 39.557 49.935 42.588 52.574 41.065 52.565 38.033 52.565 38.033"/>
                    <polygon class="cls-20" points="52.556 35.001 49.919 36.524 49.928 39.556 52.565 38.033 52.556 35.001 52.556 35.001"/>
                    <polygon class="cls-6" points="52.548 31.971 49.911 33.494 49.919 36.524 52.556 35.001 52.548 31.971 52.548 31.971"/>
                    <polygon class="cls-12" points="52.539 28.941 49.902 30.463 49.911 33.494 52.548 31.971 52.539 28.941 52.539 28.941"/>
                    <polygon class="cls-6" points="49.919 36.524 49.918 36.525 49.927 39.557 49.928 39.556 49.919 36.524 49.919 36.524"/>
                    <polygon class="cls-7" points="49.911 33.494 49.91 33.494 49.918 36.525 49.919 36.524 49.911 33.494 49.911 33.494"/>
                    <polygon class="cls-7" points="49.902 30.463 49.9 30.464 49.91 33.494 49.911 33.494 49.902 30.463 49.902 30.463"/>
                    <polygon class="cls-10" points="50.004 66.838 47.365 68.362 47.373 71.394 50.013 69.869 50.004 66.838 50.004 66.838"/>
                    <polygon class="cls-14" points="49.995 63.806 47.357 65.33 47.365 68.362 50.004 66.838 49.995 63.806 49.995 63.806"/>
                    <polygon class="cls-10" points="49.987 60.773 47.348 62.297 47.357 65.33 49.995 63.806 49.987 60.773 49.987 60.773"/>
                    <polygon class="cls-19" points="49.978 57.745 47.339 59.269 47.348 62.297 49.987 60.773 49.978 57.745 49.978 57.745"/>
                    <polygon class="cls-11" points="49.97 54.716 47.33 56.239 47.339 59.269 49.978 57.745 49.97 54.716 49.97 54.716"/>
                    <polygon class="cls-8" points="49.961 51.684 47.322 53.206 47.33 56.239 49.97 54.716 49.961 51.684 49.961 51.684"/>
                    <polygon class="cls-11" points="49.952 48.653 47.313 50.176 47.322 53.206 49.961 51.684 49.952 48.653 49.952 48.653"/>
                    <polygon class="cls-10" points="49.943 45.621 47.306 47.144 47.313 50.176 49.952 48.653 49.943 45.621 49.943 45.621"/>
                    <polygon class="cls-11" points="49.935 42.588 47.297 44.112 47.306 47.144 49.943 45.621 49.935 42.588 49.935 42.588"/>
                    <polygon class="cls-8" points="49.927 39.557 47.289 41.08 47.288 41.081 47.297 44.112 49.935 42.588 49.927 39.557 49.927 39.557"/>
                    <polygon class="cls-6" points="49.918 36.525 47.281 38.047 47.289 41.08 49.927 39.557 49.918 36.525 49.918 36.525"/>
                    <polygon class="cls-7" points="49.91 33.494 47.272 35.018 47.281 38.047 49.918 36.525 49.91 33.494 49.91 33.494"/>
                    <polygon class="cls-7" points="49.9 30.464 47.264 31.986 47.272 35.018 49.91 33.494 49.9 30.464 49.9 30.464"/>
                    <polygon class="cls-11" points="47.281 38.047 47.279 38.048 47.288 41.081 47.289 41.08 47.281 38.047 47.281 38.047"/>
                    <polygon class="cls-20" points="47.272 35.018 47.271 35.018 47.279 38.048 47.281 38.047 47.272 35.018 47.272 35.018"/>
                    <polygon class="cls-6" points="47.264 31.986 47.262 31.988 47.271 35.018 47.272 35.018 47.264 31.986 47.264 31.986"/>
                    <polygon class="cls-8" points="47.365 68.362 44.728 69.884 44.737 72.916 47.373 71.394 47.365 68.362 47.365 68.362"/>
                    <polygon class="cls-8" points="47.357 65.33 44.72 66.853 44.728 69.884 47.365 68.362 47.357 65.33 47.357 65.33"/>
                    <polygon class="cls-11" points="47.348 62.297 44.71 63.82 44.72 66.853 47.357 65.33 47.348 62.297 47.348 62.297"/>
                    <polygon class="cls-10" points="47.339 59.269 44.702 60.792 44.71 63.82 47.348 62.297 47.339 59.269 47.339 59.269"/>
                    <polygon class="cls-8" points="47.33 56.239 44.693 57.761 44.702 60.792 47.339 59.269 47.33 56.239 47.33 56.239"/>
                    <polygon class="cls-11" points="47.322 53.206 44.685 54.729 44.693 57.761 47.33 56.239 47.322 53.206 47.322 53.206"/>
                    <polygon class="cls-11" points="47.313 50.176 44.677 51.699 44.685 54.729 47.322 53.206 47.313 50.176 47.313 50.176"/>
                    <polygon class="cls-18" points="47.306 47.144 44.668 48.667 44.677 51.699 47.313 50.176 47.306 47.144 47.306 47.144"/>
                    <polygon class="cls-9" points="47.297 44.112 44.659 45.635 44.668 48.667 47.306 47.144 47.297 44.112 47.297 44.112"/>
                    <polygon class="cls-11" points="47.288 41.081 44.653 42.602 44.651 42.603 44.659 45.635 47.297 44.112 47.288 41.081 47.288 41.081"/>
                    <polygon class="cls-15" points="47.279 38.048 44.643 39.57 44.653 42.602 47.288 41.081 47.279 38.048 47.279 38.048"/>
                    <polygon class="cls-20" points="47.271 35.018 44.635 36.54 44.643 39.57 47.279 38.048 47.271 35.018 47.271 35.018"/>
                    <polygon class="cls-6" points="47.262 31.988 44.626 33.509 44.635 36.54 47.271 35.018 47.262 31.988 47.262 31.988"/>
                    <polygon class="cls-20" points="44.643 39.57 44.642 39.571 44.651 42.603 44.653 42.602 44.643 39.57 44.643 39.57"/>
                    <polygon class="cls-6" points="44.635 36.54 44.633 36.541 44.642 39.571 44.643 39.57 44.635 36.54 44.635 36.54"/>
                    <polygon class="cls-12" points="44.626 33.509 44.625 33.51 44.633 36.541 44.635 36.54 44.626 33.509 44.626 33.509"/>
                    <polygon class="cls-8" points="44.728 69.884 42.091 71.407 42.1 74.439 44.737 72.916 44.728 69.884 44.728 69.884"/>
                    <polygon class="cls-11" points="44.72 66.853 42.082 68.375 42.091 71.407 44.728 69.884 44.72 66.853 44.72 66.853"/>
                    <polygon class="cls-11" points="44.71 63.82 42.073 65.343 42.082 68.375 44.72 66.853 44.71 63.82 44.71 63.82"/>
                    <polygon class="cls-14" points="44.702 60.792 42.065 62.314 42.073 65.343 44.71 63.82 44.702 60.792 44.702 60.792"/>
                    <polygon class="cls-11" points="44.693 57.761 42.057 59.283 42.065 62.314 44.702 60.792 44.693 57.761 44.693 57.761"/>
                    <polygon class="cls-11" points="44.685 54.729 42.048 56.252 42.057 59.283 44.693 57.761 44.685 54.729 44.685 54.729"/>
                    <polygon class="cls-9" points="44.677 51.699 42.04 53.221 42.048 56.252 44.685 54.729 44.677 51.699 44.677 51.699"/>
                    <polygon class="cls-19" points="44.668 48.667 42.03 50.19 42.04 53.221 44.677 51.699 44.668 48.667 44.668 48.667"/>
                    <polygon class="cls-14" points="44.659 45.635 42.022 47.158 42.03 50.19 44.668 48.667 44.659 45.635 44.659 45.635"/>
                    <polygon class="cls-18" points="44.651 42.603 42.013 44.125 42.022 47.158 44.659 45.635 44.651 42.603 44.651 42.603"/>
                    <polygon class="cls-20" points="44.642 39.571 42.005 41.093 42.013 44.125 44.651 42.603 44.642 39.571 44.642 39.571"/>
                    <polygon class="cls-6" points="44.633 36.541 41.996 38.063 42.005 41.093 44.642 39.571 44.633 36.541 44.633 36.541"/>
                    <polygon class="cls-12" points="44.625 33.51 41.988 35.033 41.996 38.063 44.633 36.541 44.625 33.51 44.625 33.51"/>
                    <polygon class="cls-8" points="42.091 71.407 39.454 72.93 39.462 75.961 42.1 74.439 42.091 71.407 42.091 71.407"/>
                    <polygon class="cls-11" points="42.082 68.375 39.444 69.897 39.454 72.93 42.091 71.407 42.082 68.375 42.082 68.375"/>
                    <polygon class="cls-9" points="42.073 65.343 39.436 66.865 39.444 69.897 42.082 68.375 42.073 65.343 42.073 65.343"/>
                    <polygon class="cls-10" points="42.065 62.314 39.428 63.836 39.436 66.865 42.073 65.343 42.065 62.314 42.065 62.314"/>
                    <polygon class="cls-8" points="42.057 59.283 39.42 60.807 39.428 63.836 42.065 62.314 42.057 59.283 42.057 59.283"/>
                    <polygon class="cls-9" points="42.048 56.252 39.411 57.774 39.42 60.807 42.057 59.283 42.048 56.252 42.048 56.252"/>
                    <polygon class="cls-11" points="42.04 53.221 39.402 54.745 39.411 57.774 42.048 56.252 42.04 53.221 42.04 53.221"/>
                    <polygon class="cls-17" points="42.03 50.19 39.393 51.712 39.402 54.745 42.04 53.221 42.03 50.19 42.03 50.19"/>
                    <polygon class="cls-8" points="42.022 47.158 39.385 48.68 39.393 51.712 42.03 50.19 42.022 47.158 42.022 47.158"/>
                    <polygon class="cls-8" points="42.013 44.125 39.376 45.648 39.385 48.68 42.022 47.158 42.013 44.125 42.013 44.125"/>
                    <polygon class="cls-15" points="42.005 41.093 39.368 42.616 39.376 45.648 42.013 44.125 42.005 41.093 42.005 41.093"/>
                    <polygon class="cls-20" points="41.996 38.063 39.36 39.585 39.368 42.616 42.005 41.093 41.996 38.063 41.996 38.063"/>
                    <polygon class="cls-7" points="41.988 35.033 39.35 36.556 39.36 39.585 41.996 38.063 41.988 35.033 41.988 35.033"/>
                    <polygon class="cls-8" points="39.454 72.93 36.815 74.454 36.823 77.485 39.462 75.961 39.454 72.93 39.454 72.93"/>
                    <polygon class="cls-8" points="39.444 69.897 36.807 71.421 36.815 74.454 39.454 72.93 39.444 69.897 39.444 69.897"/>
                    <polygon class="cls-9" points="39.436 66.865 36.798 68.389 36.807 71.421 39.444 69.897 39.436 66.865 39.436 66.865"/>
                    <polygon class="cls-19" points="39.428 63.836 36.788 65.36 36.798 68.389 39.436 66.865 39.428 63.836 39.428 63.836"/>
                    <polygon class="cls-10" points="39.42 60.807 36.781 62.33 36.788 65.36 39.428 63.836 39.42 60.807 39.42 60.807"/>
                    <polygon class="cls-22" points="39.411 57.774 36.772 59.297 36.781 62.33 39.42 60.807 39.411 57.774 39.411 57.774"/>
                    <polygon class="cls-10" points="39.402 54.745 36.763 56.268 36.772 59.297 39.411 57.774 39.402 54.745 39.402 54.745"/>
                    <polygon class="cls-17" points="39.393 51.712 36.755 53.235 36.763 56.268 39.402 54.745 39.393 51.712 39.393 51.712"/>
                    <polygon class="cls-8" points="39.385 48.68 36.747 50.204 36.755 53.235 39.393 51.712 39.385 48.68 39.385 48.68"/>
                    <polygon class="cls-11" points="39.376 45.648 36.737 47.171 36.747 50.204 39.385 48.68 39.376 45.648 39.376 45.648"/>
                    <polygon class="cls-8" points="39.368 42.616 39.366 42.617 36.729 44.14 36.737 47.171 39.376 45.648 39.368 42.616 39.368 42.616"/>
                    <polygon class="cls-20" points="39.36 39.585 39.357 39.586 39.366 42.617 39.368 42.616 39.36 39.585 39.36 39.585"/>
                    <polygon class="cls-7" points="39.35 36.556 39.349 36.556 39.357 39.586 39.36 39.585 39.35 36.556 39.35 36.556"/>
                    <polygon class="cls-21" points="39.357 39.586 36.721 41.109 36.729 44.14 39.366 42.617 39.357 39.586 39.357 39.586"/>
                    <polygon class="cls-6" points="39.349 36.556 36.711 38.08 36.721 41.109 39.357 39.586 39.349 36.556 39.349 36.556"/>
                    <polygon class="cls-8" points="36.815 74.454 34.178 75.975 34.186 79.007 36.823 77.485 36.815 74.454 36.815 74.454"/>
                    <polygon class="cls-11" points="36.807 71.421 34.169 72.944 34.178 75.975 36.815 74.454 36.807 71.421 36.807 71.421"/>
                    <polygon class="cls-9" points="36.798 68.389 34.161 69.912 34.169 72.944 36.807 71.421 36.798 68.389 36.798 68.389"/>
                    <polygon class="cls-10" points="36.788 65.36 34.152 66.883 34.161 69.912 36.798 68.389 36.788 65.36 36.788 65.36"/>
                    <polygon class="cls-11" points="36.781 62.33 34.143 63.853 34.152 66.883 36.788 65.36 36.781 62.33 36.781 62.33"/>
                    <polygon class="cls-11" points="36.772 59.297 34.135 60.82 34.143 63.853 36.781 62.33 36.772 59.297 36.772 59.297"/>
                    <polygon class="cls-11" points="36.763 56.268 34.126 57.791 34.135 60.82 36.772 59.297 36.763 56.268 36.763 56.268"/>
                    <polygon class="cls-10" points="36.755 53.235 34.118 54.758 34.126 57.791 36.763 56.268 36.755 53.235 36.755 53.235"/>
                    <polygon class="cls-8" points="36.747 50.204 34.109 51.726 34.118 54.758 36.755 53.235 36.747 50.204 36.747 50.204"/>
                    <polygon class="cls-11" points="36.737 47.171 34.101 48.695 34.109 51.726 36.747 50.204 36.737 47.171 36.737 47.171"/>
                    <polygon class="cls-9" points="36.729 44.14 36.728 44.14 34.092 45.662 34.101 48.695 36.737 47.171 36.729 44.14 36.729 44.14"/>
                    <polygon class="cls-10" points="36.721 41.109 36.719 41.109 36.728 44.14 36.729 44.14 36.721 41.109 36.721 41.109"/>
                    <polygon class="cls-6" points="36.711 38.08 36.71 38.08 36.719 41.109 36.721 41.109 36.711 38.08 36.711 38.08"/>
                    <polygon class="cls-6" points="36.719 41.109 34.083 42.632 34.092 45.662 36.728 44.14 36.719 41.109 36.719 41.109"/>
                    <polygon class="cls-7" points="36.71 38.08 34.074 39.601 34.083 42.632 36.719 41.109 36.71 38.08 36.71 38.08"/>
                    <polygon class="cls-6" points="34.083 42.632 34.082 42.632 34.09 45.663 34.092 45.662 34.083 42.632 34.083 42.632"/>
                    <polygon class="cls-7" points="34.074 39.601 34.073 39.602 34.082 42.632 34.083 42.632 34.074 39.601 34.074 39.601"/>
                  </g>
                </g>
              </g>
              <g class="cls-4">
                <polygon class="cls-2" points="34.185 79.008 0.114 59.209 0.002 19.8 34.074 39.601 34.185 79.008"/>
                <g class="cls-23">
                  <g>
                    <polygon class="cls-6" points="34.084 42.633 34.081 42.631 34.09 45.662 34.092 45.663 34.084 42.633 34.084 42.633"/>
                    <polygon class="cls-7" points="34.076 39.603 34.072 39.601 34.081 42.631 34.084 42.633 34.076 39.603 34.076 39.603"/>
                    <polygon class="cls-8" points="34.175 75.975 31.556 74.453 31.564 77.485 34.184 79.006 34.175 75.975 34.175 75.975"/>
                    <polygon class="cls-8" points="34.167 72.943 31.547 71.42 31.556 74.453 34.175 75.975 34.167 72.943 34.167 72.943"/>
                    <polygon class="cls-9" points="34.159 69.91 31.538 68.389 31.547 71.42 34.167 72.943 34.159 69.91 34.159 69.91"/>
                    <polygon class="cls-10" points="34.149 66.882 31.53 65.36 31.538 68.389 34.159 69.91 34.149 66.882 34.149 66.882"/>
                    <polygon class="cls-8" points="34.142 63.853 31.521 62.329 31.53 65.36 34.149 66.882 34.142 63.853 34.142 63.853"/>
                    <polygon class="cls-11" points="34.133 60.819 31.513 59.297 31.521 62.329 34.142 63.853 34.133 60.819 34.133 60.819"/>
                    <polygon class="cls-11" points="34.123 57.791 31.503 56.266 31.513 59.297 34.133 60.819 34.123 57.791 34.123 57.791"/>
                    <polygon class="cls-10" points="34.116 54.757 31.495 53.235 31.503 56.266 34.123 57.791 34.116 54.757 34.116 54.757"/>
                    <polygon class="cls-11" points="34.107 51.726 31.487 50.203 31.495 53.235 34.116 54.757 34.107 51.726 34.107 51.726"/>
                    <polygon class="cls-11" points="34.099 48.695 31.478 47.17 31.487 50.203 34.107 51.726 34.099 48.695 34.099 48.695"/>
                    <polygon class="cls-8" points="34.09 45.662 31.471 44.14 31.47 44.139 31.478 47.17 34.099 48.695 34.09 45.662 34.09 45.662"/>
                    <polygon class="cls-6" points="34.081 42.631 31.463 41.109 31.471 44.14 34.09 45.662 34.081 42.631 34.081 42.631"/>
                    <polygon class="cls-7" points="34.072 39.601 31.454 38.08 31.463 41.109 34.081 42.631 34.072 39.601 34.072 39.601"/>
                    <polygon class="cls-12" points="31.463 41.109 31.461 41.108 31.47 44.139 31.471 44.14 31.463 41.109 31.463 41.109"/>
                    <polygon class="cls-13" points="31.454 38.08 31.453 38.079 31.461 41.108 31.463 41.109 31.454 38.08 31.454 38.08"/>
                    <polygon class="cls-10" points="31.556 74.453 28.935 72.93 28.944 75.961 31.564 77.485 31.556 74.453 31.556 74.453"/>
                    <polygon class="cls-10" points="31.547 71.42 28.927 69.899 28.935 72.93 31.556 74.453 31.547 71.42 31.547 71.42"/>
                    <polygon class="cls-10" points="31.538 68.389 28.918 66.866 28.927 69.899 31.547 71.42 31.538 68.389 31.538 68.389"/>
                    <polygon class="cls-14" points="31.53 65.36 28.91 63.837 28.918 66.866 31.538 68.389 31.53 65.36 31.53 65.36"/>
                    <polygon class="cls-8" points="31.521 62.329 28.901 60.807 28.91 63.837 31.53 65.36 31.521 62.329 31.521 62.329"/>
                    <polygon class="cls-11" points="31.513 59.297 28.893 57.774 28.901 60.807 31.521 62.329 31.513 59.297 31.513 59.297"/>
                    <polygon class="cls-9" points="31.503 56.266 28.884 54.745 28.893 57.774 31.513 59.297 31.503 56.266 31.503 56.266"/>
                    <polygon class="cls-10" points="31.495 53.235 28.875 51.712 28.884 54.745 31.503 56.266 31.495 53.235 31.495 53.235"/>
                    <polygon class="cls-11" points="31.487 50.203 28.866 48.68 28.875 51.712 31.495 53.235 31.487 50.203 31.487 50.203"/>
                    <polygon class="cls-8" points="31.478 47.17 28.858 45.648 28.866 48.68 31.487 50.203 31.478 47.17 31.478 47.17"/>
                    <polygon class="cls-15" points="31.47 44.139 28.85 42.616 28.858 45.648 31.478 47.17 31.47 44.139 31.47 44.139"/>
                    <polygon class="cls-12" points="31.461 41.108 28.841 39.586 28.85 42.616 31.47 44.139 31.461 41.108 31.461 41.108"/>
                    <polygon class="cls-13" points="31.453 38.079 28.833 36.556 28.841 39.586 31.461 41.108 31.453 38.079 31.453 38.079"/>
                    <polygon class="cls-16" points="28.935 72.93 26.314 71.406 26.323 74.438 28.944 75.961 28.935 72.93 28.935 72.93"/>
                    <polygon class="cls-11" points="28.927 69.899 26.306 68.375 26.314 71.406 28.935 72.93 28.927 69.899 28.927 69.899"/>
                    <polygon class="cls-9" points="28.918 66.866 26.297 65.343 26.306 68.375 28.927 69.899 28.918 66.866 28.918 66.866"/>
                    <polygon class="cls-14" points="28.91 63.837 26.288 62.314 26.297 65.343 28.918 66.866 28.91 63.837 28.91 63.837"/>
                    <polygon class="cls-11" points="28.901 60.807 26.28 59.283 26.288 62.314 28.91 63.837 28.901 60.807 28.901 60.807"/>
                    <polygon class="cls-11" points="28.893 57.774 26.271 56.252 26.28 59.283 28.901 60.807 28.893 57.774 28.893 57.774"/>
                    <polygon class="cls-11" points="28.884 54.745 26.262 53.221 26.271 56.252 28.893 57.774 28.884 54.745 28.884 54.745"/>
                    <polygon class="cls-17" points="28.875 51.712 26.254 50.19 26.262 53.221 28.884 54.745 28.875 51.712 28.875 51.712"/>
                    <polygon class="cls-18" points="28.866 48.68 26.245 47.157 26.254 50.19 28.875 51.712 28.866 48.68 28.866 48.68"/>
                    <polygon class="cls-19" points="28.858 45.648 26.237 44.125 26.245 47.157 28.866 48.68 28.858 45.648 28.858 45.648"/>
                    <polygon class="cls-20" points="28.85 42.616 26.228 41.093 26.237 44.125 28.858 45.648 28.85 42.616 28.85 42.616"/>
                    <polygon class="cls-6" points="28.841 39.586 26.22 38.062 26.228 41.093 28.85 42.616 28.841 39.586 28.841 39.586"/>
                    <polygon class="cls-12" points="28.833 36.556 26.211 35.033 26.22 38.062 28.841 39.586 28.833 36.556 28.833 36.556"/>
                    <polygon class="cls-8" points="26.314 71.406 23.693 69.883 23.701 72.915 26.323 74.438 26.314 71.406 26.314 71.406"/>
                    <polygon class="cls-11" points="26.306 68.375 23.684 66.851 23.693 69.883 26.314 71.406 26.306 68.375 26.306 68.375"/>
                    <polygon class="cls-11" points="26.297 65.343 23.675 63.819 23.684 66.851 26.306 68.375 26.297 65.343 26.297 65.343"/>
                    <polygon class="cls-10" points="26.288 62.314 23.667 60.791 23.675 63.819 26.297 65.343 26.288 62.314 26.288 62.314"/>
                    <polygon class="cls-8" points="26.28 59.283 23.658 57.759 23.667 60.791 26.288 62.314 26.28 59.283 26.28 59.283"/>
                    <polygon class="cls-11" points="26.271 56.252 23.65 54.728 23.658 57.759 26.28 59.283 26.271 56.252 26.271 56.252"/>
                    <polygon class="cls-9" points="26.262 53.221 23.641 51.697 23.65 54.728 26.271 56.252 26.262 53.221 26.262 53.221"/>
                    <polygon class="cls-17" points="26.254 50.19 23.632 48.666 23.641 51.697 26.262 53.221 26.254 50.19 26.254 50.19"/>
                    <polygon class="cls-15" points="26.245 47.157 23.623 45.634 23.632 48.666 26.254 50.19 26.245 47.157 26.245 47.157"/>
                    <polygon class="cls-8" points="26.237 44.125 23.616 42.601 23.623 45.634 26.245 47.157 26.237 44.125 26.237 44.125"/>
                    <polygon class="cls-6" points="26.228 41.093 23.606 39.569 23.616 42.601 26.237 44.125 26.228 41.093 26.228 41.093"/>
                    <polygon class="cls-7" points="26.22 38.062 23.598 36.539 23.606 39.569 26.228 41.093 26.22 38.062 26.22 38.062"/>
                    <polygon class="cls-7" points="26.211 35.033 23.59 33.509 23.598 36.539 26.22 38.062 26.211 35.033 26.211 35.033"/>
                    <polygon class="cls-8" points="23.693 69.883 21.072 68.36 21.081 71.392 23.701 72.915 23.693 69.883 23.693 69.883"/>
                    <polygon class="cls-11" points="23.684 66.851 21.064 65.329 21.072 68.36 23.693 69.883 23.684 66.851 23.684 66.851"/>
                    <polygon class="cls-11" points="23.675 63.819 21.056 62.296 21.064 65.329 23.684 66.851 23.675 63.819 23.675 63.819"/>
                    <polygon class="cls-17" points="23.667 60.791 21.046 59.268 21.056 62.296 23.675 63.819 23.667 60.791 23.667 60.791"/>
                    <polygon class="cls-10" points="23.658 57.759 21.038 56.238 21.046 59.268 23.667 60.791 23.658 57.759 23.658 57.759"/>
                    <polygon class="cls-10" points="23.65 54.728 21.03 53.205 21.038 56.238 23.658 57.759 23.65 54.728 23.65 54.728"/>
                    <polygon class="cls-19" points="23.641 51.697 21.02 50.175 21.03 53.205 23.65 54.728 23.641 51.697 23.641 51.697"/>
                    <polygon class="cls-19" points="23.632 48.666 21.013 47.143 21.02 50.175 23.641 51.697 23.632 48.666 23.632 48.666"/>
                    <polygon class="cls-8" points="23.623 45.634 21.003 44.111 21.013 47.143 23.632 48.666 23.623 45.634 23.623 45.634"/>
                    <polygon class="cls-11" points="23.616 42.601 20.995 41.08 21.003 44.111 23.623 45.634 23.616 42.601 23.616 42.601"/>
                    <polygon class="cls-11" points="23.606 39.569 20.988 38.048 20.987 38.046 20.995 41.08 23.616 42.601 23.606 39.569 23.606 39.569"/>
                    <polygon class="cls-21" points="23.598 36.539 20.979 35.018 20.988 38.048 23.606 39.569 23.598 36.539 23.598 36.539"/>
                    <polygon class="cls-20" points="23.59 33.509 20.971 31.987 20.979 35.018 23.598 36.539 23.59 33.509 23.59 33.509"/>
                    <polygon class="cls-13" points="20.979 35.018 20.978 35.017 20.987 38.046 20.988 38.048 20.979 35.018 20.979 35.018"/>
                    <polygon class="cls-6" points="20.971 31.987 20.97 31.986 20.978 35.017 20.979 35.018 20.971 31.987 20.971 31.987"/>
                    <polygon class="cls-16" points="21.072 68.36 18.451 66.837 18.46 69.869 21.081 71.392 21.072 68.36 21.072 68.36"/>
                    <polygon class="cls-8" points="21.064 65.329 18.443 63.805 18.451 66.837 21.072 68.36 21.064 65.329 21.064 65.329"/>
                    <polygon class="cls-9" points="21.056 62.296 18.434 60.773 18.443 63.805 21.064 65.329 21.056 62.296 21.056 62.296"/>
                    <polygon class="cls-17" points="21.046 59.268 18.425 57.745 18.434 60.773 21.056 62.296 21.046 59.268 21.046 59.268"/>
                    <polygon class="cls-8" points="21.038 56.238 18.416 54.713 18.425 57.745 21.046 59.268 21.038 56.238 21.038 56.238"/>
                    <polygon class="cls-11" points="21.03 53.205 18.409 51.683 18.416 54.713 21.038 56.238 21.03 53.205 21.03 53.205"/>
                    <polygon class="cls-11" points="21.02 50.175 18.399 48.651 18.409 51.683 21.03 53.205 21.02 50.175 21.02 50.175"/>
                    <polygon class="cls-10" points="21.013 47.143 18.391 45.62 18.399 48.651 21.02 50.175 21.013 47.143 21.013 47.143"/>
                    <polygon class="cls-11" points="21.003 44.111 18.382 42.587 18.391 45.62 21.013 47.143 21.003 44.111 21.003 44.111"/>
                    <polygon class="cls-8" points="20.995 41.08 18.375 39.556 18.374 39.556 18.382 42.587 21.003 44.111 20.995 41.08 20.995 41.08"/>
                    <polygon class="cls-15" points="20.987 38.046 18.367 36.525 18.375 39.556 20.995 41.08 20.987 38.046 20.987 38.046"/>
                    <polygon class="cls-13" points="20.978 35.017 18.358 33.494 18.367 36.525 20.987 38.046 20.978 35.017 20.978 35.017"/>
                    <polygon class="cls-6" points="20.97 31.986 18.35 30.464 18.358 33.494 20.978 35.017 20.97 31.986 20.97 31.986"/>
                    <polygon class="cls-20" points="18.367 36.525 18.365 36.523 18.374 39.556 18.375 39.556 18.367 36.525 18.367 36.525"/>
                    <polygon class="cls-6" points="18.358 33.494 18.357 33.493 18.365 36.523 18.367 36.525 18.358 33.494 18.358 33.494"/>
                    <polygon class="cls-12" points="18.35 30.464 18.348 30.463 18.357 33.493 18.358 33.494 18.35 30.464 18.35 30.464"/>
                    <polygon class="cls-8" points="18.451 66.837 15.83 65.313 15.838 68.345 18.46 69.869 18.451 66.837 18.451 66.837"/>
                    <polygon class="cls-9" points="18.443 63.805 15.822 62.281 15.83 65.313 18.451 66.837 18.443 63.805 18.443 63.805"/>
                    <polygon class="cls-11" points="18.434 60.773 15.812 59.25 15.822 62.281 18.443 63.805 18.434 60.773 18.434 60.773"/>
                    <polygon class="cls-10" points="18.425 57.745 15.804 56.221 15.812 59.25 18.434 60.773 18.425 57.745 18.425 57.745"/>
                    <polygon class="cls-16" points="18.416 54.713 15.795 53.19 15.804 56.221 18.425 57.745 18.416 54.713 18.416 54.713"/>
                    <polygon class="cls-11" points="18.409 51.683 15.787 50.158 15.795 53.19 18.416 54.713 18.409 51.683 18.409 51.683"/>
                    <polygon class="cls-9" points="18.399 48.651 15.778 47.128 15.787 50.158 18.409 51.683 18.399 48.651 18.399 48.651"/>
                    <polygon class="cls-14" points="18.391 45.62 15.769 44.096 15.778 47.128 18.399 48.651 18.391 45.62 18.391 45.62"/>
                    <polygon class="cls-11" points="18.382 42.587 15.761 41.064 15.769 44.096 18.391 45.62 18.382 42.587 18.382 42.587"/>
                    <polygon class="cls-15" points="18.374 39.556 15.753 38.033 15.752 38.032 15.761 41.064 18.382 42.587 18.374 39.556 18.374 39.556"/>
                    <polygon class="cls-20" points="18.365 36.523 15.746 35.001 15.753 38.033 18.374 39.556 18.365 36.523 18.365 36.523"/>
                    <polygon class="cls-6" points="18.357 33.493 15.736 31.971 15.746 35.001 18.365 36.523 18.357 33.493 18.357 33.493"/>
                    <polygon class="cls-12" points="18.348 30.463 15.728 28.94 15.736 31.971 18.357 33.493 18.348 30.463 18.348 30.463"/>
                    <polygon class="cls-6" points="15.746 35.001 15.744 35 15.752 38.032 15.753 38.033 15.746 35.001 15.746 35.001"/>
                    <polygon class="cls-7" points="15.736 31.971 15.735 31.97 15.744 35 15.746 35.001 15.736 31.971 15.736 31.971"/>
                    <polygon class="cls-7" points="15.728 28.94 15.726 28.939 15.735 31.97 15.736 31.971 15.728 28.94 15.728 28.94"/>
                    <polygon class="cls-10" points="15.83 65.313 13.208 63.79 13.217 66.821 15.838 68.345 15.83 65.313 15.83 65.313"/>
                    <polygon class="cls-14" points="15.822 62.281 13.199 60.758 13.208 63.79 15.83 65.313 15.822 62.281 15.822 62.281"/>
                    <polygon class="cls-10" points="15.812 59.25 13.191 57.725 13.199 60.758 15.822 62.281 15.812 59.25 15.812 59.25"/>
                    <polygon class="cls-19" points="15.804 56.221 13.183 54.697 13.191 57.725 15.812 59.25 15.804 56.221 15.804 56.221"/>
                    <polygon class="cls-11" points="15.795 53.19 13.173 51.667 13.183 54.697 15.804 56.221 15.795 53.19 15.795 53.19"/>
                    <polygon class="cls-8" points="15.787 50.158 13.165 48.634 13.173 51.667 15.795 53.19 15.787 50.158 15.787 50.158"/>
                    <polygon class="cls-11" points="15.778 47.128 13.156 45.604 13.165 48.634 15.787 50.158 15.778 47.128 15.778 47.128"/>
                    <polygon class="cls-10" points="15.769 44.096 13.148 42.573 13.156 45.604 15.778 47.128 15.769 44.096 15.769 44.096"/>
                    <polygon class="cls-11" points="15.761 41.064 13.14 39.541 13.148 42.573 15.769 44.096 15.761 41.064 15.761 41.064"/>
                    <polygon class="cls-8" points="15.752 38.032 13.132 36.509 13.131 36.509 13.14 39.541 15.761 41.064 15.752 38.032 15.752 38.032"/>
                    <polygon class="cls-6" points="15.744 35 13.123 33.478 13.132 36.509 15.752 38.032 15.744 35 15.744 35"/>
                    <polygon class="cls-7" points="15.735 31.97 13.115 30.447 13.123 33.478 15.744 35 15.735 31.97 15.735 31.97"/>
                    <polygon class="cls-7" points="15.726 28.939 13.106 27.416 13.115 30.447 15.735 31.97 15.726 28.939 15.726 28.939"/>
                    <polygon class="cls-11" points="13.123 33.478 13.122 33.477 13.131 36.509 13.132 36.509 13.123 33.478 13.123 33.478"/>
                    <polygon class="cls-20" points="13.115 30.447 13.114 30.446 13.122 33.477 13.123 33.478 13.115 30.447 13.115 30.447"/>
                    <polygon class="cls-6" points="13.106 27.416 13.105 27.416 13.114 30.446 13.115 30.447 13.106 27.416 13.106 27.416"/>
                    <polygon class="cls-8" points="13.208 63.79 10.588 62.268 10.597 65.3 13.217 66.821 13.208 63.79 13.208 63.79"/>
                    <polygon class="cls-8" points="13.199 60.758 10.58 59.235 10.588 62.268 13.208 63.79 13.199 60.758 13.199 60.758"/>
                    <polygon class="cls-11" points="13.191 57.725 10.571 56.204 10.58 59.235 13.199 60.758 13.191 57.725 13.191 57.725"/>
                    <polygon class="cls-10" points="13.183 54.697 10.562 53.175 10.571 56.204 13.191 57.725 13.183 54.697 13.183 54.697"/>
                    <polygon class="cls-8" points="13.173 51.667 10.554 50.144 10.562 53.175 13.183 54.697 13.173 51.667 13.173 51.667"/>
                    <polygon class="cls-11" points="13.165 48.634 10.545 47.113 10.554 50.144 13.173 51.667 13.165 48.634 13.165 48.634"/>
                    <polygon class="cls-11" points="13.156 45.604 10.537 44.082 10.545 47.113 13.165 48.634 13.156 45.604 13.156 45.604"/>
                    <polygon class="cls-18" points="13.148 42.573 10.528 41.05 10.537 44.082 13.156 45.604 13.148 42.573 13.148 42.573"/>
                    <polygon class="cls-9" points="13.14 39.541 10.519 38.018 10.528 41.05 13.148 42.573 13.14 39.541 13.14 39.541"/>
                    <polygon class="cls-11" points="13.131 36.509 10.513 34.986 10.511 34.986 10.519 38.018 13.14 39.541 13.131 36.509 13.131 36.509"/>
                    <polygon class="cls-15" points="13.122 33.477 10.503 31.955 10.513 34.986 13.131 36.509 13.122 33.477 13.122 33.477"/>
                    <polygon class="cls-20" points="13.114 30.446 10.495 28.924 10.503 31.955 13.122 33.477 13.114 30.446 13.114 30.446"/>
                    <polygon class="cls-6" points="13.105 27.416 10.487 25.895 10.495 28.924 13.114 30.446 13.105 27.416 13.105 27.416"/>
                    <polygon class="cls-20" points="10.503 31.955 10.502 31.955 10.511 34.986 10.513 34.986 10.503 31.955 10.503 31.955"/>
                    <polygon class="cls-6" points="10.495 28.924 10.493 28.923 10.502 31.955 10.503 31.955 10.495 28.924 10.495 28.924"/>
                    <polygon class="cls-12" points="10.487 25.895 10.485 25.893 10.493 28.923 10.495 28.924 10.487 25.895 10.487 25.895"/>
                    <polygon class="cls-8" points="10.588 62.268 7.968 60.745 7.976 63.776 10.597 65.3 10.588 62.268 10.588 62.268"/>
                    <polygon class="cls-11" points="10.58 59.235 7.96 57.713 7.968 60.745 10.588 62.268 10.58 59.235 10.58 59.235"/>
                    <polygon class="cls-11" points="10.571 56.204 7.951 54.681 7.96 57.713 10.58 59.235 10.571 56.204 10.571 56.204"/>
                    <polygon class="cls-14" points="10.562 53.175 7.942 51.652 7.951 54.681 10.571 56.204 10.562 53.175 10.562 53.175"/>
                    <polygon class="cls-11" points="10.554 50.144 7.934 48.623 7.942 51.652 10.562 53.175 10.554 50.144 10.554 50.144"/>
                    <polygon class="cls-11" points="10.545 47.113 7.925 45.589 7.934 48.623 10.554 50.144 10.545 47.113 10.545 47.113"/>
                    <polygon class="cls-9" points="10.537 44.082 7.916 42.56 7.925 45.589 10.545 47.113 10.537 44.082 10.537 44.082"/>
                    <polygon class="cls-19" points="10.528 41.05 7.908 39.528 7.916 42.56 10.537 44.082 10.528 41.05 10.528 41.05"/>
                    <polygon class="cls-14" points="10.519 38.018 7.9 36.495 7.908 39.528 10.528 41.05 10.519 38.018 10.519 38.018"/>
                    <polygon class="cls-18" points="10.511 34.986 7.89 33.463 7.9 36.495 10.519 38.018 10.511 34.986 10.511 34.986"/>
                    <polygon class="cls-20" points="10.502 31.955 7.882 30.431 7.89 33.463 10.511 34.986 10.502 31.955 10.502 31.955"/>
                    <polygon class="cls-6" points="10.493 28.923 7.873 27.401 7.882 30.431 10.502 31.955 10.493 28.923 10.493 28.923"/>
                    <polygon class="cls-12" points="10.485 25.893 7.865 24.371 7.873 27.401 10.493 28.923 10.485 25.893 10.485 25.893"/>
                    <polygon class="cls-8" points="7.968 60.745 5.348 59.222 5.356 62.254 7.976 63.776 7.968 60.745 7.968 60.745"/>
                    <polygon class="cls-11" points="7.96 57.713 5.339 56.189 5.348 59.222 7.968 60.745 7.96 57.713 7.96 57.713"/>
                    <polygon class="cls-9" points="7.951 54.681 5.331 53.159 5.339 56.189 7.96 57.713 7.951 54.681 7.951 54.681"/>
                    <polygon class="cls-10" points="7.942 51.652 5.322 50.129 5.331 53.159 7.951 54.681 7.942 51.652 7.942 51.652"/>
                    <polygon class="cls-8" points="7.934 48.623 5.313 47.1 5.322 50.129 7.942 51.652 7.934 48.623 7.934 48.623"/>
                    <polygon class="cls-9" points="7.925 45.589 5.304 44.067 5.313 47.1 7.934 48.623 7.925 45.589 7.925 45.589"/>
                    <polygon class="cls-11" points="7.916 42.56 5.296 41.037 5.304 44.067 7.925 45.589 7.916 42.56 7.916 42.56"/>
                    <polygon class="cls-17" points="7.908 39.528 5.288 38.005 5.296 41.037 7.916 42.56 7.908 39.528 7.908 39.528"/>
                    <polygon class="cls-8" points="7.9 36.495 5.279 34.973 5.288 38.005 7.908 39.528 7.9 36.495 7.9 36.495"/>
                    <polygon class="cls-8" points="7.89 33.463 5.271 31.941 5.279 34.973 7.9 36.495 7.89 33.463 7.89 33.463"/>
                    <polygon class="cls-15" points="7.882 30.431 5.262 28.909 5.271 31.941 7.89 33.463 7.882 30.431 7.882 30.431"/>
                    <polygon class="cls-20" points="7.873 27.401 5.253 25.878 5.262 28.909 7.882 30.431 7.873 27.401 7.873 27.401"/>
                    <polygon class="cls-7" points="7.865 24.371 5.245 22.848 5.253 25.878 7.873 27.401 7.865 24.371 7.865 24.371"/>
                    <polygon class="cls-8" points="5.348 59.222 2.726 57.699 2.735 60.73 5.356 62.254 5.348 59.222 5.348 59.222"/>
                    <polygon class="cls-8" points="5.339 56.189 2.718 54.666 2.726 57.699 5.348 59.222 5.339 56.189 5.339 56.189"/>
                    <polygon class="cls-9" points="5.331 53.159 2.709 51.634 2.718 54.666 5.339 56.189 5.331 53.159 5.331 53.159"/>
                    <polygon class="cls-19" points="5.322 50.129 2.7 48.605 2.709 51.634 5.331 53.159 5.322 50.129 5.322 50.129"/>
                    <polygon class="cls-10" points="5.313 47.1 2.692 45.576 2.7 48.605 5.322 50.129 5.313 47.1 5.313 47.1"/>
                    <polygon class="cls-22" points="5.304 44.067 2.683 42.544 2.692 45.576 5.313 47.1 5.304 44.067 5.304 44.067"/>
                    <polygon class="cls-10" points="5.296 41.037 2.675 39.513 2.683 42.544 5.304 44.067 5.296 41.037 5.296 41.037"/>
                    <polygon class="cls-17" points="5.288 38.005 2.666 36.481 2.675 39.513 5.296 41.037 5.288 38.005 5.288 38.005"/>
                    <polygon class="cls-8" points="5.279 34.973 2.658 33.45 2.666 36.481 5.288 38.005 5.279 34.973 5.279 34.973"/>
                    <polygon class="cls-11" points="5.271 31.941 2.649 30.417 2.658 33.45 5.279 34.973 5.271 31.941 5.271 31.941"/>
                    <polygon class="cls-8" points="5.262 28.909 5.261 28.908 2.641 27.385 2.649 30.417 5.271 31.941 5.262 28.909 5.262 28.909"/>
                    <polygon class="cls-20" points="5.253 25.878 5.251 25.877 5.261 28.908 5.262 28.909 5.253 25.878 5.253 25.878"/>
                    <polygon class="cls-7" points="5.245 22.848 5.244 22.848 5.251 25.877 5.253 25.878 5.245 22.848 5.245 22.848"/>
                    <polygon class="cls-21" points="5.251 25.877 2.632 24.355 2.641 27.385 5.261 28.908 5.251 25.877 5.251 25.877"/>
                    <polygon class="cls-6" points="5.244 22.848 2.623 21.324 2.632 24.355 5.251 25.877 5.244 22.848 5.244 22.848"/>
                    <polygon class="cls-8" points="2.726 57.699 0.106 56.176 0.115 59.209 2.735 60.73 2.726 57.699 2.726 57.699"/>
                    <polygon class="cls-11" points="2.718 54.666 0.098 53.144 0.106 56.176 2.726 57.699 2.718 54.666 2.718 54.666"/>
                    <polygon class="cls-9" points="2.709 51.634 0.09 50.113 0.098 53.144 2.718 54.666 2.709 51.634 2.709 51.634"/>
                    <polygon class="cls-10" points="2.7 48.605 0.08 47.083 0.09 50.113 2.709 51.634 2.7 48.605 2.7 48.605"/>
                    <polygon class="cls-11" points="2.692 45.576 0.072 44.053 0.08 47.083 2.7 48.605 2.692 45.576 2.692 45.576"/>
                    <polygon class="cls-11" points="2.683 42.544 0.063 41.021 0.072 44.053 2.692 45.576 2.683 42.544 2.683 42.544"/>
                    <polygon class="cls-11" points="2.675 39.513 0.055 37.991 0.063 41.021 2.683 42.544 2.675 39.513 2.675 39.513"/>
                    <polygon class="cls-10" points="2.666 36.481 0.046 34.958 0.055 37.991 2.675 39.513 2.666 36.481 2.666 36.481"/>
                    <polygon class="cls-8" points="2.658 33.45 0.038 31.926 0.046 34.958 2.666 36.481 2.658 33.45 2.658 33.45"/>
                    <polygon class="cls-11" points="2.649 30.417 0.029 28.895 0.038 31.926 2.658 33.45 2.649 30.417 2.649 30.417"/>
                    <polygon class="cls-9" points="2.641 27.385 2.64 27.384 0.02 25.863 0.029 28.895 2.649 30.417 2.641 27.385 2.641 27.385"/>
                    <polygon class="cls-10" points="2.632 24.355 2.63 24.354 2.64 27.384 2.641 27.385 2.632 24.355 2.632 24.355"/>
                    <polygon class="cls-6" points="2.623 21.324 2.622 21.324 2.63 24.354 2.632 24.355 2.623 21.324 2.623 21.324"/>
                    <polygon class="cls-6" points="2.63 24.354 0.012 22.832 0.02 25.863 2.64 27.384 2.63 24.354 2.63 24.354"/>
                    <polygon class="cls-7" points="2.622 21.324 0.003 19.802 0.012 22.832 2.63 24.354 2.622 21.324 2.622 21.324"/>
                    <polygon class="cls-6" points="0.012 22.832 0.01 22.831 0.019 25.861 0.02 25.863 0.012 22.832 0.012 22.832"/>
                    <polygon class="cls-7" points="0.003 19.802 0.002 19.801 0.01 22.831 0.012 22.832 0.003 19.802 0.003 19.802"/>
                  </g>
                </g>
              </g>
              <g class="cls-4">
                <polygon class="cls-3" points="34.074 39.601 0.002 19.8 34.296 0.001 68.367 19.801 34.074 39.601"/>
                <g class="cls-24">
                  <g>
                    <polygon class="cls-7" points="36.711 38.078 34.09 36.554 31.451 38.078 34.072 39.602 36.711 38.078 36.711 38.078"/>
                    <polygon class="cls-12" points="39.35 36.554 36.728 35.031 34.09 36.554 36.711 38.078 39.35 36.554 39.35 36.554"/>
                    <polygon class="cls-6" points="41.988 35.031 39.366 33.508 36.728 35.031 39.35 36.554 41.988 35.031 41.988 35.031"/>
                    <polygon class="cls-6" points="44.626 33.509 42.004 31.985 39.366 33.508 41.988 35.031 44.626 33.509 44.626 33.509"/>
                    <polygon class="cls-12" points="47.264 31.985 44.643 30.462 42.004 31.985 44.626 33.509 47.264 31.985 47.264 31.985"/>
                    <polygon class="cls-7" points="49.901 30.463 47.279 28.939 44.643 30.462 47.264 31.985 49.901 30.463 49.901 30.463"/>
                    <polygon class="cls-12" points="52.538 28.94 49.916 27.416 47.279 28.939 49.901 30.463 52.538 28.94 52.538 28.94"/>
                    <polygon class="cls-12" points="55.177 27.417 52.556 25.894 49.916 27.416 52.538 28.94 55.177 27.417 55.177 27.417"/>
                    <polygon class="cls-12" points="57.815 25.894 55.194 24.371 52.556 25.894 55.177 27.417 57.815 25.894 57.815 25.894"/>
                    <polygon class="cls-12" points="60.455 24.371 57.833 22.847 55.194 24.371 57.815 25.894 60.455 24.371 60.455 24.371"/>
                    <polygon class="cls-6" points="63.092 22.848 60.47 21.324 57.833 22.847 60.455 24.371 63.092 22.848 63.092 22.848"/>
                    <polygon class="cls-12" points="65.731 21.324 63.109 19.801 60.47 21.324 63.092 22.848 65.731 21.324 65.731 21.324"/>
                    <polygon class="cls-7" points="68.368 19.801 65.747 18.277 63.109 19.801 65.731 21.324 68.368 19.801 68.368 19.801"/>
                    <polygon class="cls-12" points="34.09 36.554 31.467 35.031 28.829 36.554 31.451 38.078 34.09 36.554 34.09 36.554"/>
                    <polygon class="cls-12" points="36.728 35.031 34.106 33.508 31.467 35.031 34.09 36.554 36.728 35.031 36.728 35.031"/>
                    <polygon class="cls-7" points="39.366 33.508 36.745 31.984 34.106 33.508 36.728 35.031 39.366 33.508 39.366 33.508"/>
                    <polygon class="cls-12" points="42.004 31.985 39.382 30.462 36.745 31.984 39.366 33.508 42.004 31.985 42.004 31.985"/>
                    <polygon class="cls-7" points="44.643 30.462 42.021 28.938 39.382 30.462 42.004 31.985 44.643 30.462 44.643 30.462"/>
                    <polygon class="cls-12" points="47.279 28.939 44.658 27.416 42.021 28.938 44.643 30.462 47.279 28.939 47.279 28.939"/>
                    <polygon class="cls-6" points="49.916 27.416 47.295 25.893 44.658 27.416 47.279 28.939 49.916 27.416 49.916 27.416"/>
                    <polygon class="cls-12" points="52.556 25.894 49.934 24.369 47.295 25.893 49.916 27.416 52.556 25.894 52.556 25.894"/>
                    <polygon class="cls-7" points="55.194 24.371 52.573 22.847 49.934 24.369 52.556 25.894 55.194 24.371 55.194 24.371"/>
                    <polygon class="cls-6" points="57.833 22.847 55.211 21.323 52.573 22.847 55.194 24.371 57.833 22.847 57.833 22.847"/>
                    <polygon class="cls-12" points="60.47 21.324 57.849 19.801 55.211 21.323 57.833 22.847 60.47 21.324 60.47 21.324"/>
                    <polygon class="cls-7" points="63.109 19.801 60.487 18.277 57.849 19.801 60.47 21.324 63.109 19.801 63.109 19.801"/>
                    <polygon class="cls-12" points="65.747 18.277 63.126 16.753 60.487 18.277 63.109 19.801 65.747 18.277 65.747 18.277"/>
                    <polygon class="cls-12" points="31.467 35.031 28.846 33.508 26.208 35.031 28.829 36.554 31.467 35.031 31.467 35.031"/>
                    <polygon class="cls-7" points="34.106 33.508 31.485 31.984 28.846 33.508 31.467 35.031 34.106 33.508 34.106 33.508"/>
                    <polygon class="cls-12" points="36.745 31.984 34.123 30.461 31.485 31.984 34.106 33.508 36.745 31.984 36.745 31.984"/>
                    <polygon class="cls-6" points="39.382 30.462 36.761 28.938 34.123 30.461 36.745 31.984 39.382 30.462 39.382 30.462"/>
                    <polygon class="cls-12" points="42.021 28.938 39.4 27.416 36.761 28.938 39.382 30.462 42.021 28.938 42.021 28.938"/>
                    <polygon class="cls-6" points="44.658 27.416 42.037 25.892 39.4 27.416 42.021 28.938 44.658 27.416 44.658 27.416"/>
                    <polygon class="cls-12" points="47.295 25.893 44.674 24.369 42.037 25.892 44.658 27.416 47.295 25.893 47.295 25.893"/>
                    <polygon class="cls-7" points="49.934 24.369 47.312 22.847 44.674 24.369 47.295 25.893 49.934 24.369 49.934 24.369"/>
                    <polygon class="cls-12" points="52.573 22.847 49.951 21.323 47.312 22.847 49.934 24.369 52.573 22.847 52.573 22.847"/>
                    <polygon class="cls-6" points="55.211 21.323 52.59 19.8 49.951 21.323 52.573 22.847 55.211 21.323 55.211 21.323"/>
                    <polygon class="cls-12" points="57.849 19.801 55.227 18.277 52.59 19.8 55.211 21.323 57.849 19.801 57.849 19.801"/>
                    <polygon class="cls-12" points="60.487 18.277 57.866 16.753 55.227 18.277 57.849 19.801 60.487 18.277 60.487 18.277"/>
                    <polygon class="cls-20" points="63.126 16.753 60.505 15.23 57.866 16.753 60.487 18.277 63.126 16.753 63.126 16.753"/>
                    <polygon class="cls-6" points="28.846 33.508 26.226 31.985 23.588 33.509 26.208 35.031 28.846 33.508 28.846 33.508"/>
                    <polygon class="cls-12" points="31.485 31.984 28.865 30.462 26.226 31.985 28.846 33.508 31.485 31.984 31.485 31.984"/>
                    <polygon class="cls-12" points="34.123 30.461 31.503 28.938 28.865 30.462 31.485 31.984 34.123 30.461 34.123 30.461"/>
                    <polygon class="cls-6" points="36.761 28.938 34.142 27.416 31.503 28.938 34.123 30.461 36.761 28.938 36.761 28.938"/>
                    <polygon class="cls-20" points="39.4 27.416 36.779 25.892 34.142 27.416 36.761 28.938 39.4 27.416 39.4 27.416"/>
                    <polygon class="cls-12" points="42.037 25.892 39.417 24.369 36.779 25.892 39.4 27.416 42.037 25.892 42.037 25.892"/>
                    <polygon class="cls-6" points="44.674 24.369 42.054 22.848 39.417 24.369 42.037 25.892 44.674 24.369 44.674 24.369"/>
                    <polygon class="cls-12" points="47.312 22.847 44.693 21.324 42.054 22.848 44.674 24.369 47.312 22.847 47.312 22.847"/>
                    <polygon class="cls-20" points="49.951 21.323 47.331 19.801 44.693 21.324 47.312 22.847 49.951 21.323 49.951 21.323"/>
                    <polygon class="cls-7" points="52.59 19.8 49.97 18.277 47.331 19.801 49.951 21.323 52.59 19.8 52.59 19.8"/>
                    <polygon class="cls-12" points="55.227 18.277 52.607 16.754 49.97 18.277 52.59 19.8 55.227 18.277 55.227 18.277"/>
                    <polygon class="cls-6" points="57.866 16.753 55.246 15.231 52.607 16.754 55.227 18.277 57.866 16.753 57.866 16.753"/>
                    <polygon class="cls-6" points="60.505 15.23 57.885 13.707 55.246 15.231 57.866 16.753 60.505 15.23 60.505 15.23"/>
                    <polygon class="cls-20" points="26.226 31.985 23.606 30.463 20.968 31.986 23.588 33.509 26.226 31.985 26.226 31.985"/>
                    <polygon class="cls-6" points="28.865 30.462 26.245 28.939 23.606 30.463 26.226 31.985 28.865 30.462 28.865 30.462"/>
                    <polygon class="cls-12" points="31.503 28.938 28.884 27.416 26.245 28.939 28.865 30.462 31.503 28.938 31.503 28.938"/>
                    <polygon class="cls-12" points="34.142 27.416 31.521 25.893 28.884 27.416 31.503 28.938 34.142 27.416 34.142 27.416"/>
                    <polygon class="cls-20" points="36.779 25.892 34.159 24.369 31.521 25.893 34.142 27.416 36.779 25.892 36.779 25.892"/>
                    <polygon class="cls-6" points="39.417 24.369 36.797 22.848 34.159 24.369 36.779 25.892 39.417 24.369 39.417 24.369"/>
                    <polygon class="cls-12" points="42.054 22.848 39.434 21.324 36.797 22.848 39.417 24.369 42.054 22.848 42.054 22.848"/>
                    <polygon class="cls-6" points="44.693 21.324 42.072 19.801 39.434 21.324 42.054 22.848 44.693 21.324 44.693 21.324"/>
                    <polygon class="cls-12" points="47.331 19.801 44.711 18.277 42.072 19.801 44.693 21.324 47.331 19.801 47.331 19.801"/>
                    <polygon class="cls-12" points="49.97 18.277 47.35 16.754 44.711 18.277 47.331 19.801 49.97 18.277 49.97 18.277"/>
                    <polygon class="cls-6" points="52.607 16.754 49.987 15.231 47.35 16.754 49.97 18.277 52.607 16.754 52.607 16.754"/>
                    <polygon class="cls-12" points="55.246 15.231 52.626 13.708 49.987 15.231 52.607 16.754 55.246 15.231 55.246 15.231"/>
                    <polygon class="cls-12" points="57.885 13.707 55.264 12.185 52.626 13.708 55.246 15.231 57.885 13.707 57.885 13.707"/>
                    <polygon class="cls-7" points="23.606 30.463 20.984 28.939 18.347 30.463 20.968 31.986 23.606 30.463 23.606 30.463"/>
                    <polygon class="cls-12" points="26.245 28.939 23.623 27.416 20.984 28.939 23.606 30.463 26.245 28.939 26.245 28.939"/>
                    <polygon class="cls-7" points="28.884 27.416 26.262 25.892 23.623 27.416 26.245 28.939 28.884 27.416 28.884 27.416"/>
                    <polygon class="cls-6" points="31.521 25.893 28.899 24.369 26.262 25.892 28.884 27.416 31.521 25.893 31.521 25.893"/>
                    <polygon class="cls-12" points="34.159 24.369 31.538 22.847 28.899 24.369 31.521 25.893 34.159 24.369 34.159 24.369"/>
                    <polygon class="cls-12" points="36.797 22.848 34.175 21.324 31.538 22.847 34.159 24.369 36.797 22.848 36.797 22.848"/>
                    <polygon class="cls-7" points="39.434 21.324 36.812 19.801 34.175 21.324 36.797 22.848 39.434 21.324 39.434 21.324"/>
                    <polygon class="cls-12" points="42.072 19.801 39.451 18.277 36.812 19.801 39.434 21.324 42.072 19.801 42.072 19.801"/>
                    <polygon class="cls-20" points="44.711 18.277 42.09 16.754 39.451 18.277 42.072 19.801 44.711 18.277 44.711 18.277"/>
                    <polygon class="cls-6" points="47.35 16.754 44.728 15.231 42.09 16.754 44.711 18.277 47.35 16.754 47.35 16.754"/>
                    <polygon class="cls-12" points="49.987 15.231 47.365 13.708 44.728 15.231 47.35 16.754 49.987 15.231 49.987 15.231"/>
                    <polygon class="cls-7" points="52.626 13.708 50.004 12.185 47.365 13.708 49.987 15.231 52.626 13.708 52.626 13.708"/>
                    <polygon class="cls-12" points="55.264 12.185 52.643 10.662 50.004 12.185 52.626 13.708 55.264 12.185 55.264 12.185"/>
                    <polygon class="cls-12" points="20.984 28.939 18.365 27.416 15.726 28.939 18.347 30.463 20.984 28.939 20.984 28.939"/>
                    <polygon class="cls-7" points="23.623 27.416 21.003 25.893 18.365 27.416 20.984 28.939 23.623 27.416 23.623 27.416"/>
                    <polygon class="cls-12" points="26.262 25.892 23.642 24.369 21.003 25.893 23.623 27.416 26.262 25.892 26.262 25.892"/>
                    <polygon class="cls-12" points="28.899 24.369 26.279 22.848 23.642 24.369 26.262 25.892 28.899 24.369 28.899 24.369"/>
                    <polygon class="cls-6" points="31.538 22.847 28.917 21.324 26.279 22.848 28.899 24.369 31.538 22.847 31.538 22.847"/>
                    <polygon class="cls-12" points="34.175 21.324 31.556 19.801 28.917 21.324 31.538 22.847 34.175 21.324 34.175 21.324"/>
                    <polygon class="cls-6" points="36.812 19.801 34.193 18.279 31.556 19.801 34.175 21.324 36.812 19.801 36.812 19.801"/>
                    <polygon class="cls-12" points="39.451 18.277 36.831 16.754 34.193 18.279 36.812 19.801 39.451 18.277 39.451 18.277"/>
                    <polygon class="cls-12" points="42.09 16.754 39.47 15.231 36.831 16.754 39.451 18.277 42.09 16.754 42.09 16.754"/>
                    <polygon class="cls-6" points="44.728 15.231 42.108 13.708 39.47 15.231 42.09 16.754 44.728 15.231 44.728 15.231"/>
                    <polygon class="cls-6" points="47.365 13.708 44.746 12.186 42.108 13.708 44.728 15.231 47.365 13.708 47.365 13.708"/>
                    <polygon class="cls-12" points="50.004 12.185 47.385 10.663 44.746 12.186 47.365 13.708 50.004 12.185 50.004 12.185"/>
                    <polygon class="cls-12" points="52.643 10.662 50.022 9.139 47.385 10.663 50.004 12.185 52.643 10.662 52.643 10.662"/>
                    <polygon class="cls-12" points="18.365 27.416 15.744 25.893 13.105 27.416 15.726 28.939 18.365 27.416 18.365 27.416"/>
                    <polygon class="cls-12" points="21.003 25.893 18.382 24.369 15.744 25.893 18.365 27.416 21.003 25.893 21.003 25.893"/>
                    <polygon class="cls-6" points="23.642 24.369 21.02 22.847 18.382 24.369 21.003 25.893 23.642 24.369 23.642 24.369"/>
                    <polygon class="cls-7" points="26.279 22.848 23.658 21.324 21.02 22.847 23.642 24.369 26.279 22.848 26.279 22.848"/>
                    <polygon class="cls-20" points="28.917 21.324 26.296 19.801 23.658 21.324 26.279 22.848 28.917 21.324 28.917 21.324"/>
                    <polygon class="cls-7" points="31.556 19.801 28.934 18.277 26.296 19.801 28.917 21.324 31.556 19.801 31.556 19.801"/>
                    <polygon class="cls-6" points="34.193 18.279 31.571 16.754 28.934 18.277 31.556 19.801 34.193 18.279 34.193 18.279"/>
                    <polygon class="cls-12" points="36.831 16.754 34.21 15.231 31.571 16.754 34.193 18.279 36.831 16.754 36.831 16.754"/>
                    <polygon class="cls-7" points="39.47 15.231 36.849 13.708 34.21 15.231 36.831 16.754 39.47 15.231 39.47 15.231"/>
                    <polygon class="cls-12" points="42.108 13.708 39.487 12.185 36.849 13.708 39.47 15.231 42.108 13.708 42.108 13.708"/>
                    <polygon class="cls-7" points="44.746 12.186 42.123 10.663 39.487 12.185 42.108 13.708 44.746 12.186 44.746 12.186"/>
                    <polygon class="cls-12" points="47.385 10.663 44.763 9.139 42.123 10.663 44.746 12.186 47.385 10.663 47.385 10.663"/>
                    <polygon class="cls-6" points="50.022 9.139 47.401 7.616 44.763 9.139 47.385 10.663 50.022 9.139 50.022 9.139"/>
                    <polygon class="cls-12" points="15.744 25.893 13.122 24.369 10.483 25.893 13.105 27.416 15.744 25.893 15.744 25.893"/>
                    <polygon class="cls-6" points="18.382 24.369 15.761 22.847 13.122 24.369 15.744 25.893 18.382 24.369 18.382 24.369"/>
                    <polygon class="cls-20" points="21.02 22.847 18.399 21.323 15.761 22.847 18.382 24.369 21.02 22.847 21.02 22.847"/>
                    <polygon class="cls-20" points="23.658 21.324 21.037 19.801 18.399 21.323 21.02 22.847 23.658 21.324 23.658 21.324"/>
                    <polygon class="cls-12" points="26.296 19.801 23.675 18.277 21.037 19.801 23.658 21.324 26.296 19.801 26.296 19.801"/>
                    <polygon class="cls-6" points="28.934 18.277 26.312 16.754 23.675 18.277 26.296 19.801 28.934 18.277 28.934 18.277"/>
                    <polygon class="cls-12" points="31.571 16.754 28.95 15.231 26.312 16.754 28.934 18.277 31.571 16.754 31.571 16.754"/>
                    <polygon class="cls-6" points="34.21 15.231 31.588 13.708 28.95 15.231 31.571 16.754 34.21 15.231 34.21 15.231"/>
                    <polygon class="cls-12" points="36.849 13.708 34.226 12.185 31.588 13.708 34.21 15.231 36.849 13.708 36.849 13.708"/>
                    <polygon class="cls-12" points="39.487 12.185 36.865 10.662 34.226 12.185 36.849 13.708 39.487 12.185 39.487 12.185"/>
                    <polygon class="cls-6" points="42.123 10.663 39.502 9.139 36.865 10.662 39.487 12.185 42.123 10.663 42.123 10.663"/>
                    <polygon class="cls-12" points="44.763 9.139 42.141 7.616 39.502 9.139 42.123 10.663 44.763 9.139 44.763 9.139"/>
                    <polygon class="cls-7" points="47.401 7.616 44.78 6.092 42.141 7.616 44.763 9.139 47.401 7.616 47.401 7.616"/>
                    <polygon class="cls-7" points="13.122 24.369 10.502 22.848 7.863 24.371 10.483 25.893 13.122 24.369 13.122 24.369"/>
                    <polygon class="cls-12" points="15.761 22.847 13.141 21.324 10.502 22.848 13.122 24.369 15.761 22.847 15.761 22.847"/>
                    <polygon class="cls-6" points="18.399 21.323 15.779 19.801 13.141 21.324 15.761 22.847 18.399 21.323 18.399 21.323"/>
                    <polygon class="cls-12" points="21.037 19.801 18.416 18.277 15.779 19.801 18.399 21.323 21.037 19.801 21.037 19.801"/>
                    <polygon class="cls-7" points="23.675 18.277 21.055 16.754 18.416 18.277 21.037 19.801 23.675 18.277 23.675 18.277"/>
                    <polygon class="cls-12" points="26.312 16.754 23.692 15.231 21.055 16.754 23.675 18.277 26.312 16.754 26.312 16.754"/>
                    <polygon class="cls-7" points="28.95 15.231 26.33 13.709 23.692 15.231 26.312 16.754 28.95 15.231 28.95 15.231"/>
                    <polygon class="cls-12" points="31.588 13.708 28.968 12.186 26.33 13.709 28.95 15.231 31.588 13.708 31.588 13.708"/>
                    <polygon class="cls-12" points="34.226 12.185 31.607 10.663 28.968 12.186 31.588 13.708 34.226 12.185 34.226 12.185"/>
                    <polygon class="cls-7" points="36.865 10.662 34.245 9.139 31.607 10.663 34.226 12.185 36.865 10.662 36.865 10.662"/>
                    <polygon class="cls-20" points="39.502 9.139 36.882 7.616 34.245 9.139 36.865 10.662 39.502 9.139 39.502 9.139"/>
                    <polygon class="cls-7" points="42.141 7.616 39.522 6.092 36.882 7.616 39.502 9.139 42.141 7.616 42.141 7.616"/>
                    <polygon class="cls-12" points="44.78 6.092 42.16 4.569 39.522 6.092 42.141 7.616 44.78 6.092 44.78 6.092"/>
                    <polygon class="cls-12" points="10.502 22.848 7.88 21.324 5.242 22.848 7.863 24.371 10.502 22.848 10.502 22.848"/>
                    <polygon class="cls-12" points="13.141 21.324 10.519 19.801 7.88 21.324 10.502 22.848 13.141 21.324 13.141 21.324"/>
                    <polygon class="cls-12" points="15.779 19.801 13.158 18.277 10.519 19.801 13.141 21.324 15.779 19.801 15.779 19.801"/>
                    <polygon class="cls-20" points="18.416 18.277 15.795 16.754 13.158 18.277 15.779 19.801 18.416 18.277 18.416 18.277"/>
                    <polygon class="cls-12" points="21.055 16.754 18.433 15.231 15.795 16.754 18.416 18.277 21.055 16.754 21.055 16.754"/>
                    <polygon class="cls-6" points="23.692 15.231 21.07 13.708 18.433 15.231 21.055 16.754 23.692 15.231 23.692 15.231"/>
                    <polygon class="cls-12" points="26.33 13.709 23.708 12.186 21.07 13.708 23.692 15.231 26.33 13.709 26.33 13.709"/>
                    <polygon class="cls-6" points="28.968 12.186 26.347 10.663 23.708 12.186 26.33 13.709 28.968 12.186 28.968 12.186"/>
                    <polygon class="cls-7" points="31.607 10.663 28.985 9.139 26.347 10.663 28.968 12.186 31.607 10.663 31.607 10.663"/>
                    <polygon class="cls-12" points="34.245 9.139 31.623 7.616 28.985 9.139 31.607 10.663 34.245 9.139 34.245 9.139"/>
                    <polygon class="cls-12" points="36.882 7.616 34.261 6.092 31.623 7.616 34.245 9.139 36.882 7.616 36.882 7.616"/>
                    <polygon class="cls-6" points="39.522 6.092 36.9 4.569 34.261 6.092 36.882 7.616 39.522 6.092 39.522 6.092"/>
                    <polygon class="cls-12" points="42.16 4.569 39.538 3.046 36.9 4.569 39.522 6.092 42.16 4.569 42.16 4.569"/>
                    <polygon class="cls-12" points="7.88 21.324 5.259 19.801 2.62 21.323 5.242 22.848 7.88 21.324 7.88 21.324"/>
                    <polygon class="cls-6" points="10.519 19.801 7.898 18.277 5.259 19.801 7.88 21.324 10.519 19.801 10.519 19.801"/>
                    <polygon class="cls-12" points="13.158 18.277 10.537 16.753 7.898 18.277 10.519 19.801 13.158 18.277 13.158 18.277"/>
                    <polygon class="cls-7" points="15.795 16.754 13.173 15.231 10.537 16.753 13.158 18.277 15.795 16.754 15.795 16.754"/>
                    <polygon class="cls-12" points="18.433 15.231 15.811 13.707 13.173 15.231 15.795 16.754 18.433 15.231 18.433 15.231"/>
                    <polygon class="cls-6" points="21.07 13.708 18.449 12.185 15.811 13.707 18.433 15.231 21.07 13.708 21.07 13.708"/>
                    <polygon class="cls-20" points="23.708 12.186 21.086 10.663 18.449 12.185 21.07 13.708 23.708 12.186 23.708 12.186"/>
                    <polygon class="cls-12" points="26.347 10.663 23.725 9.139 21.086 10.663 23.708 12.186 26.347 10.663 26.347 10.663"/>
                    <polygon class="cls-12" points="28.985 9.139 26.363 7.616 23.725 9.139 26.347 10.663 28.985 9.139 28.985 9.139"/>
                    <polygon class="cls-6" points="31.623 7.616 29.002 6.091 26.363 7.616 28.985 9.139 31.623 7.616 31.623 7.616"/>
                    <polygon class="cls-12" points="34.261 6.092 31.64 4.569 29.002 6.091 31.623 7.616 34.261 6.092 34.261 6.092"/>
                    <polygon class="cls-12" points="36.9 4.569 34.278 3.046 31.64 4.569 34.261 6.092 36.9 4.569 36.9 4.569"/>
                    <polygon class="cls-20" points="39.538 3.046 36.917 1.522 34.278 3.046 36.9 4.569 39.538 3.046 39.538 3.046"/>
                    <polygon class="cls-12" points="5.259 19.801 2.639 18.277 0 19.801 2.62 21.323 5.259 19.801 5.259 19.801"/>
                    <polygon class="cls-6" points="7.898 18.277 5.277 16.754 2.639 18.277 5.259 19.801 7.898 18.277 7.898 18.277"/>
                    <polygon class="cls-12" points="10.537 16.753 7.916 15.231 5.277 16.754 7.898 18.277 10.537 16.753 10.537 16.753"/>
                    <polygon class="cls-12" points="13.173 15.231 10.553 13.708 7.916 15.231 10.537 16.753 13.173 15.231 13.173 15.231"/>
                    <polygon class="cls-7" points="15.811 13.707 13.192 12.185 10.553 13.708 13.173 15.231 15.811 13.707 15.811 13.707"/>
                    <polygon class="cls-12" points="18.449 12.185 15.829 10.663 13.192 12.185 15.811 13.707 18.449 12.185 18.449 12.185"/>
                    <polygon class="cls-12" points="21.086 10.663 18.467 9.14 15.829 10.663 18.449 12.185 21.086 10.663 21.086 10.663"/>
                    <polygon class="cls-7" points="23.725 9.139 21.105 7.616 18.467 9.14 21.086 10.663 23.725 9.139 23.725 9.139"/>
                    <polygon class="cls-12" points="26.363 7.616 23.744 6.092 21.105 7.616 23.725 9.139 26.363 7.616 26.363 7.616"/>
                    <polygon class="cls-12" points="29.002 6.091 26.383 4.569 23.744 6.092 26.363 7.616 29.002 6.091 29.002 6.091"/>
                    <polygon class="cls-7" points="31.64 4.569 29.019 3.046 26.383 4.569 29.002 6.091 31.64 4.569 31.64 4.569"/>
                    <polygon class="cls-12" points="34.278 3.046 31.658 1.523 29.019 3.046 31.64 4.569 34.278 3.046 34.278 3.046"/>
                    <polygon class="cls-12" points="36.917 1.522 34.297 0 31.658 1.523 34.278 3.046 36.917 1.522 36.917 1.522"/>
                  </g>
                </g>
              </g>
            </g>
            <g>
              <polygon class="cls-25" points="68.367 19.801 68.479 59.209 34.185 79.008 34.074 39.601 68.367 19.801"/>
              <polygon class="cls-26" points="34.185 79.008 0.114 59.209 0.002 19.8 34.074 39.601 34.185 79.008"/>
              <polygon class="cls-27" points="34.074 39.601 0.002 19.8 34.296 0.001 68.367 19.801 34.074 39.601"/>
            </g>
          </g>
          <polygon class="cls-28" points="34.074 39.601 0.002 19.8 34.296 0.001 68.367 19.801 34.074 39.601"/>
          <polygon class="cls-29" points="68.433 25.862 68.424 22.831 68.415 19.802 65.777 21.325 63.14 22.848 60.502 24.371 57.864 25.894 55.226 27.417 52.587 28.94 49.95 30.463 47.311 31.986 44.672 33.509 42.037 35.032 39.398 36.555 36.759 38.079 34.121 39.602 34.138 45.663 34.138 45.663 34.138 45.663 36.776 44.139 36.768 41.107 39.406 39.583 39.415 42.616 42.054 41.092 42.063 44.124 44.698 42.603 44.69 39.571 47.328 38.047 47.337 41.08 49.975 39.556 52.613 38.033 52.604 35.001 55.243 33.478 55.234 30.446 57.872 28.922 57.881 31.955 57.89 34.986 60.529 33.462 63.166 31.94 63.157 28.908 65.794 27.386 68.433 25.862"/>
        </g>
      </g>
    </g>
  </g>
</svg>
