<svg xmlns="http://www.w3.org/2000/svg" xmlns:xlink="http://www.w3.org/1999/xlink" viewBox="0 0 68.4776 79.00882">
  <defs>
    <style>
      .cls-1 {
        mask: url(#mask);
        filter: url(#luminosity-noclip-2);
      }

      .cls-2, .cls-21 {
        mix-blend-mode: multiply;
      }

      .cls-2 {
        fill: url(#åçûìßííûé_ãðàäèåíò_2);
      }

      .cls-3 {
        fill: #fff;
      }

      .cls-4 {
        isolation: isolate;
      }

      .cls-5 {
        clip-path: url(#clip-path);
      }

      .cls-6 {
        fill: #827875;
      }

      .cls-7 {
        fill: #909090;
      }

      .cls-8 {
        fill: #8c8c8c;
      }

      .cls-9 {
        fill: #9f9f9f;
      }

      .cls-10 {
        fill: #9b9b9b;
      }

      .cls-11 {
        fill: #655e5c;
      }

      .cls-12 {
        fill: #848484;
      }

      .cls-13 {
        fill: #363636;
      }

      .cls-14 {
        fill: #3d3d3d;
      }

      .cls-15 {
        fill: #979797;
      }

      .cls-16 {
        fill: #2e2e2e;
      }

      .cls-17 {
        fill: #4d4d4d;
      }

      .cls-18 {
        clip-path: url(#clip-path-2);
      }

      .cls-19 {
        clip-path: url(#clip-path-3);
      }

      .cls-20 {
        mask: url(#mask-2);
      }

      .cls-21 {
        opacity: 0.7;
        fill: url(#linear-gradient);
      }

      .cls-22 {
        fill: #616161;
        opacity: 0.1;
      }

      .cls-22, .cls-23 {
        mix-blend-mode: color-dodge;
      }

      .cls-23 {
        opacity: 0.5;
        fill: url(#linear-gradient-2);
      }

      .cls-24 {
        filter: url(#luminosity-noclip);
      }
    </style>
    <filter id="luminosity-noclip" x="34.0723" y="-8284.49022" width="34.4053" height="32766" filterUnits="userSpaceOnUse" color-interpolation-filters="sRGB">
      <feFlood flood-color="#fff" result="bg"/>
      <feBlend in="SourceGraphic" in2="bg"/>
    </filter>
    <mask id="mask" x="34.0723" y="-8284.49022" width="34.4053" height="32766" maskUnits="userSpaceOnUse">
      <g class="cls-24"/>
    </mask>
    <linearGradient id="åçûìßííûé_ãðàäèåíò_2" data-name="åçûìßííûé ãðàäèåíò 2" x1="13.75792" y1="29.57965" x2="67.69196" y2="58.07891" gradientUnits="userSpaceOnUse">
      <stop offset="0" stop-color="#fff"/>
      <stop offset="0.50007" stop-color="#f0f0f0"/>
      <stop offset="1" stop-color="#e6e6e6"/>
    </linearGradient>
    <clipPath id="clip-path">
      <polygon class="cls-3" points="68.367 19.801 68.478 59.209 34.185 79.009 34.072 39.602 68.367 19.801"/>
    </clipPath>
    <clipPath id="clip-path-2">
      <polygon class="cls-3" points="34.185 79.009 0.11 59.209 0 19.8 34.072 39.602 34.185 79.009"/>
    </clipPath>
    <clipPath id="clip-path-3">
      <polygon class="cls-3" points="34.072 39.602 0 19.8 34.295 0 68.367 19.801 34.072 39.602"/>
    </clipPath>
    <filter id="luminosity-noclip-2" x="34.0723" y="19.80072" width="34.4053" height="59.2071" filterUnits="userSpaceOnUse" color-interpolation-filters="sRGB">
      <feFlood flood-color="#fff" result="bg"/>
      <feBlend in="SourceGraphic" in2="bg"/>
    </filter>
    <mask id="mask-2" x="34.0723" y="19.80072" width="34.4053" height="59.2071" maskUnits="userSpaceOnUse">
      <g class="cls-1">
        <polygon class="cls-2" points="68.366 19.801 68.478 59.209 34.185 79.008 34.072 39.601 68.366 19.801"/>
      </g>
    </mask>
    <linearGradient id="linear-gradient" x1="13.75792" y1="29.57965" x2="67.69196" y2="58.07891" gradientUnits="userSpaceOnUse">
      <stop offset="0" stop-color="#fff"/>
      <stop offset="0.11206" stop-color="#e9e9e7"/>
      <stop offset="0.41894" stop-color="#b2b1aa"/>
      <stop offset="0.67994" stop-color="#8a887e"/>
      <stop offset="0.8818" stop-color="#716e63"/>
      <stop offset="1" stop-color="#686559"/>
    </linearGradient>
    <linearGradient id="linear-gradient-2" x1="-20.43176" y1="-34.81514" x2="133.49958" y2="119.1162" gradientUnits="userSpaceOnUse">
      <stop offset="0" stop-color="#d9eed5"/>
      <stop offset="1"/>
    </linearGradient>
  </defs>
  <g class="cls-4">
    <g id="Layer_2" data-name="Layer 2">
      <g id="Layer_1-2" data-name="Layer 1">
        <g id="_10" data-name="10">
          <g class="cls-4">
            <g class="cls-4">
              <polygon class="cls-3" points="68.367 19.801 68.478 59.209 34.185 79.009 34.072 39.602 68.367 19.801"/>
              <g class="cls-5">
                <g>
                  <polygon class="cls-6" points="68.47 56.178 65.831 57.701 65.839 60.731 68.478 59.208 68.47 56.178 68.47 56.178"/>
                  <polygon class="cls-6" points="68.46 53.145 65.821 54.669 65.831 57.701 68.47 56.178 68.46 53.145 68.46 53.145"/>
                  <polygon class="cls-7" points="68.451 50.113 65.814 51.637 65.821 54.669 68.46 53.145 68.451 50.113 68.451 50.113"/>
                  <polygon class="cls-8" points="68.443 47.083 65.806 48.606 65.814 51.637 68.451 50.113 68.443 47.083 68.443 47.083"/>
                  <polygon class="cls-6" points="68.436 44.054 65.797 45.578 65.806 48.606 68.443 47.083 68.436 44.054 68.436 44.054"/>
                  <polygon class="cls-9" points="68.427 41.022 65.788 42.545 65.797 45.578 68.436 44.054 68.427 41.022 68.427 41.022"/>
                  <polygon class="cls-9" points="68.418 37.99 65.778 39.513 65.788 42.545 68.427 41.022 68.418 37.99 68.418 37.99"/>
                  <polygon class="cls-8" points="68.409 34.957 65.77 36.481 65.778 39.513 68.418 37.99 68.409 34.957 68.409 34.957"/>
                  <polygon class="cls-9" points="68.401 31.928 65.762 33.45 65.77 36.481 68.409 34.957 68.401 31.928 68.401 31.928"/>
                  <polygon class="cls-9" points="68.392 28.896 65.753 30.42 65.762 33.45 68.401 31.928 68.392 28.896 68.392 28.896"/>
                  <polygon class="cls-9" points="68.383 25.864 65.744 27.387 65.753 30.42 68.392 28.896 68.383 25.864 68.383 25.864"/>
                  <polygon class="cls-8" points="68.375 22.831 65.735 24.355 65.744 27.387 68.383 25.864 68.375 22.831 68.375 22.831"/>
                  <polygon class="cls-10" points="68.366 19.802 65.728 21.326 65.735 24.355 68.375 22.831 68.366 19.802 68.366 19.802"/>
                  <polygon class="cls-8" points="65.831 57.701 63.194 59.222 63.203 62.252 65.839 60.731 65.831 57.701 65.831 57.701"/>
                  <polygon class="cls-8" points="65.821 54.669 63.187 56.19 63.194 59.222 65.831 57.701 65.821 54.669 65.821 54.669"/>
                  <polygon class="cls-8" points="65.814 51.637 63.178 53.158 63.187 56.19 65.821 54.669 65.814 51.637 65.814 51.637"/>
                  <polygon class="cls-9" points="65.806 48.606 63.17 50.129 63.178 53.158 65.814 51.637 65.806 48.606 65.806 48.606"/>
                  <polygon class="cls-6" points="65.797 45.578 63.161 47.1 63.17 50.129 65.806 48.606 65.797 45.578 65.797 45.578"/>
                  <polygon class="cls-11" points="65.788 42.545 63.152 44.067 63.161 47.1 65.797 45.578 65.788 42.545 65.788 42.545"/>
                  <polygon class="cls-7" points="65.778 39.513 63.144 41.034 63.152 44.067 65.788 42.545 65.778 39.513 65.778 39.513"/>
                  <polygon class="cls-8" points="65.77 36.481 63.135 38.004 63.144 41.034 65.778 39.513 65.77 36.481 65.77 36.481"/>
                  <polygon class="cls-9" points="65.762 33.45 63.127 34.974 63.135 38.004 65.77 36.481 65.762 33.45 65.762 33.45"/>
                  <polygon class="cls-6" points="65.753 30.42 63.117 31.94 63.127 34.974 65.762 33.45 65.753 30.42 65.753 30.42"/>
                  <polygon class="cls-7" points="65.744 27.387 63.108 28.909 63.117 31.94 65.753 30.42 65.744 27.387 65.744 27.387"/>
                  <polygon class="cls-12" points="65.735 24.355 63.101 25.878 63.108 28.909 65.744 27.387 65.735 24.355 65.735 24.355"/>
                  <polygon class="cls-8" points="65.728 21.326 63.091 22.849 63.101 25.878 65.735 24.355 65.728 21.326 65.728 21.326"/>
                  <polygon class="cls-6" points="63.194 59.222 60.557 60.746 60.565 63.775 63.203 62.252 63.194 59.222 63.194 59.222"/>
                  <polygon class="cls-9" points="63.187 56.19 60.549 57.715 60.557 60.746 63.194 59.222 63.187 56.19 63.187 56.19"/>
                  <polygon class="cls-7" points="63.178 53.158 60.538 54.682 60.549 57.715 63.187 56.19 63.178 53.158 63.178 53.158"/>
                  <polygon class="cls-9" points="63.17 50.129 60.53 51.652 60.538 54.682 63.178 53.158 63.17 50.129 63.17 50.129"/>
                  <polygon class="cls-9" points="63.161 47.1 60.523 48.623 60.53 51.652 63.17 50.129 63.161 47.1 63.161 47.1"/>
                  <polygon class="cls-9" points="63.152 44.067 60.513 45.591 60.523 48.623 63.161 47.1 63.152 44.067 63.152 44.067"/>
                  <polygon class="cls-9" points="63.144 41.034 60.504 42.559 60.513 45.591 63.152 44.067 63.144 41.034 63.144 41.034"/>
                  <polygon class="cls-13" points="63.135 38.004 60.496 39.527 60.504 42.559 63.144 41.034 63.135 38.004 63.135 38.004"/>
                  <polygon class="cls-13" points="63.127 34.974 60.487 36.496 60.496 39.527 63.135 38.004 63.127 34.974 63.127 34.974"/>
                  <polygon class="cls-14" points="63.117 31.94 60.479 33.465 60.487 36.496 63.127 34.974 63.117 31.94 63.117 31.94"/>
                  <polygon class="cls-8" points="63.108 28.909 60.47 30.433 60.479 33.465 63.117 31.94 63.108 28.909 63.108 28.909"/>
                  <polygon class="cls-15" points="63.101 25.878 60.461 27.4 60.47 30.433 63.108 28.909 63.101 25.878 63.101 25.878"/>
                  <polygon class="cls-6" points="63.091 22.849 60.453 24.371 60.461 27.4 63.101 25.878 63.091 22.849 63.091 22.849"/>
                  <polygon class="cls-7" points="60.557 60.746 57.918 62.271 57.926 65.299 60.565 63.775 60.557 60.746 60.557 60.746"/>
                  <polygon class="cls-9" points="60.549 57.715 57.909 59.237 57.918 62.271 60.557 60.746 60.549 57.715 60.549 57.715"/>
                  <polygon class="cls-9" points="60.538 54.682 57.9 56.204 57.909 59.237 60.549 57.715 60.538 54.682 60.538 54.682"/>
                  <polygon class="cls-8" points="60.53 51.652 57.892 53.175 57.9 56.204 60.538 54.682 60.53 51.652 60.53 51.652"/>
                  <polygon class="cls-6" points="60.523 48.623 57.883 50.147 57.892 53.175 60.53 51.652 60.523 48.623 60.523 48.623"/>
                  <polygon class="cls-9" points="60.513 45.591 57.875 47.114 57.883 50.147 60.523 48.623 60.513 45.591 60.513 45.591"/>
                  <polygon class="cls-13" points="60.504 42.559 57.866 44.083 57.875 47.114 60.513 45.591 60.504 42.559 60.504 42.559"/>
                  <polygon class="cls-14" points="60.496 39.527 57.857 41.05 57.866 44.083 60.504 42.559 60.496 39.527 60.496 39.527"/>
                  <polygon class="cls-16" points="60.487 36.496 57.849 38.02 57.857 41.05 60.496 39.527 60.487 36.496 60.487 36.496"/>
                  <polygon class="cls-13" points="60.479 33.465 57.841 34.988 57.849 38.02 60.487 36.496 60.479 33.465 60.479 33.465"/>
                  <polygon class="cls-13" points="60.47 30.433 57.832 31.956 57.841 34.988 60.479 33.465 60.47 30.433 60.47 30.433"/>
                  <polygon class="cls-8" points="60.461 27.4 57.823 28.925 57.832 31.956 60.47 30.433 60.461 27.4 60.461 27.4"/>
                  <polygon class="cls-8" points="60.453 24.371 57.816 25.895 57.823 28.925 60.461 27.4 60.453 24.371 60.453 24.371"/>
                  <polygon class="cls-9" points="57.918 62.271 55.278 63.792 55.288 66.822 57.926 65.299 57.918 62.271 57.918 62.271"/>
                  <polygon class="cls-9" points="57.909 59.237 55.271 60.76 55.278 63.792 57.918 62.271 57.909 59.237 57.909 59.237"/>
                  <polygon class="cls-9" points="57.9 56.204 55.261 57.729 55.271 60.76 57.909 59.237 57.9 56.204 57.9 56.204"/>
                  <polygon class="cls-6" points="57.892 53.175 55.253 54.697 55.261 57.729 57.9 56.204 57.892 53.175 57.892 53.175"/>
                  <polygon class="cls-9" points="57.883 50.147 55.244 51.669 55.253 54.697 57.892 53.175 57.883 50.147 57.883 50.147"/>
                  <polygon class="cls-13" points="57.875 47.114 55.235 48.639 55.244 51.669 57.883 50.147 57.875 47.114 57.875 47.114"/>
                  <polygon class="cls-16" points="57.866 44.083 55.228 45.605 55.235 48.639 57.875 47.114 57.866 44.083 57.866 44.083"/>
                  <polygon class="cls-13" points="57.857 41.05 55.219 42.573 55.228 45.605 57.866 44.083 57.857 41.05 57.857 41.05"/>
                  <polygon class="cls-13" points="57.849 38.02 55.211 39.543 55.219 42.573 57.857 41.05 57.849 38.02 57.849 38.02"/>
                  <polygon class="cls-16" points="57.841 34.988 55.202 36.511 55.211 39.543 57.849 38.02 57.841 34.988 57.841 34.988"/>
                  <polygon class="cls-14" points="57.832 31.956 55.193 33.48 55.202 36.511 57.841 34.988 57.832 31.956 57.832 31.956"/>
                  <polygon class="cls-11" points="57.823 28.925 55.183 30.447 55.193 33.48 57.832 31.956 57.823 28.925 57.823 28.925"/>
                  <polygon class="cls-9" points="57.816 25.895 55.175 27.418 55.183 30.447 57.823 28.925 57.816 25.895 57.816 25.895"/>
                  <polygon class="cls-9" points="55.278 63.792 52.642 65.314 52.65 68.346 55.288 66.822 55.278 63.792 55.278 63.792"/>
                  <polygon class="cls-13" points="55.271 60.76 52.634 62.282 52.642 65.314 55.278 63.792 55.271 60.76 55.271 60.76"/>
                  <polygon class="cls-14" points="55.261 57.729 52.624 59.25 52.634 62.282 55.271 60.76 55.261 57.729 55.261 57.729"/>
                  <polygon class="cls-9" points="55.253 54.697 52.615 56.221 52.624 59.25 55.261 57.729 55.253 54.697 55.253 54.697"/>
                  <polygon class="cls-13" points="55.244 51.669 52.608 53.192 52.615 56.221 55.253 54.697 55.244 51.669 55.244 51.669"/>
                  <polygon class="cls-13" points="55.235 48.639 52.599 50.159 52.608 53.192 55.244 51.669 55.235 48.639 55.235 48.639"/>
                  <polygon class="cls-13" points="55.228 45.605 52.591 47.128 52.599 50.159 55.235 48.639 55.228 45.605 55.228 45.605"/>
                  <polygon class="cls-6" points="55.219 42.573 52.581 44.095 52.591 47.128 55.228 45.605 55.219 42.573 55.219 42.573"/>
                  <polygon class="cls-9" points="55.211 39.543 52.573 41.066 52.581 44.095 55.219 42.573 55.211 39.543 55.211 39.543"/>
                  <polygon class="cls-17" points="55.202 36.511 52.566 38.035 52.573 41.066 55.211 39.543 55.202 36.511 55.202 36.511"/>
                  <polygon class="cls-13" points="55.193 33.48 52.556 35.002 52.566 38.035 55.202 36.511 55.193 33.48 55.193 33.48"/>
                  <polygon class="cls-14" points="55.183 30.447 52.546 31.969 52.556 35.002 55.193 33.48 55.183 30.447 55.183 30.447"/>
                  <polygon class="cls-15" points="55.175 27.418 52.538 28.941 52.546 31.969 55.183 30.447 55.175 27.418 55.175 27.418"/>
                  <polygon class="cls-8" points="52.642 65.314 50.002 66.838 50.012 69.867 52.65 68.346 52.642 65.314 52.642 65.314"/>
                  <polygon class="cls-13" points="52.634 62.282 49.994 63.806 50.002 66.838 52.642 65.314 52.634 62.282 52.634 62.282"/>
                  <polygon class="cls-16" points="52.624 59.25 49.986 60.774 49.994 63.806 52.634 62.282 52.624 59.25 52.624 59.25"/>
                  <polygon class="cls-8" points="52.615 56.221 49.978 57.744 49.986 60.774 52.624 59.25 52.615 56.221 52.615 56.221"/>
                  <polygon class="cls-16" points="52.608 53.192 49.969 54.717 49.978 57.744 52.615 56.221 52.608 53.192 52.608 53.192"/>
                  <polygon class="cls-13" points="52.599 50.159 49.961 51.684 49.969 54.717 52.608 53.192 52.599 50.159 52.599 50.159"/>
                  <polygon class="cls-17" points="52.591 47.128 49.952 48.652 49.961 51.684 52.599 50.159 52.591 47.128 52.591 47.128"/>
                  <polygon class="cls-9" points="52.581 44.095 49.942 45.62 49.952 48.652 52.591 47.128 52.581 44.095 52.581 44.095"/>
                  <polygon class="cls-8" points="52.573 41.066 49.934 42.59 49.942 45.62 52.581 44.095 52.573 41.066 52.573 41.066"/>
                  <polygon class="cls-6" points="52.566 38.035 49.925 39.558 49.934 42.59 52.573 41.066 52.566 38.035 52.566 38.035"/>
                  <polygon class="cls-16" points="52.556 35.002 49.917 36.524 49.925 39.558 52.566 38.035 52.556 35.002 52.556 35.002"/>
                  <polygon class="cls-13" points="52.546 31.969 49.909 33.493 49.917 36.524 52.556 35.002 52.546 31.969 52.546 31.969"/>
                  <polygon class="cls-10" points="52.538 28.941 49.9 30.465 49.909 33.493 52.546 31.969 52.538 28.941 52.538 28.941"/>
                  <polygon class="cls-9" points="50.002 66.838 47.364 68.361 47.372 71.392 50.012 69.867 50.002 66.838 50.002 66.838"/>
                  <polygon class="cls-13" points="49.994 63.806 47.357 65.33 47.364 68.361 50.002 66.838 49.994 63.806 49.994 63.806"/>
                  <polygon class="cls-13" points="49.986 60.774 47.348 62.299 47.357 65.33 49.994 63.806 49.986 60.774 49.986 60.774"/>
                  <polygon class="cls-9" points="49.978 57.744 47.339 59.267 47.348 62.299 49.986 60.774 49.978 57.744 49.978 57.744"/>
                  <polygon class="cls-13" points="49.969 54.717 47.33 56.238 47.339 59.267 49.978 57.744 49.969 54.717 49.969 54.717"/>
                  <polygon class="cls-17" points="49.961 51.684 47.32 53.208 47.33 56.238 49.969 54.717 49.961 51.684 49.961 51.684"/>
                  <polygon class="cls-9" points="49.952 48.652 47.313 50.176 47.32 53.208 49.961 51.684 49.952 48.652 49.952 48.652"/>
                  <polygon class="cls-8" points="49.942 45.62 47.304 47.143 47.313 50.176 49.952 48.652 49.942 45.62 49.942 45.62"/>
                  <polygon class="cls-9" points="49.934 42.59 47.295 44.112 47.304 47.143 49.942 45.62 49.934 42.59 49.934 42.59"/>
                  <polygon class="cls-17" points="49.925 39.558 47.287 41.08 47.295 44.112 49.934 42.59 49.925 39.558 49.925 39.558"/>
                  <polygon class="cls-13" points="49.917 36.524 47.279 38.05 47.287 41.08 49.925 39.558 49.917 36.524 49.917 36.524"/>
                  <polygon class="cls-14" points="49.909 33.493 47.27 35.017 47.279 38.05 49.917 36.524 49.909 33.493 49.909 33.493"/>
                  <polygon class="cls-9" points="49.9 30.465 47.261 31.988 47.27 35.017 49.909 33.493 49.9 30.465 49.9 30.465"/>
                  <polygon class="cls-7" points="47.364 68.361 44.727 69.885 44.734 72.916 47.372 71.392 47.364 68.361 47.364 68.361"/>
                  <polygon class="cls-6" points="47.357 65.33 44.717 66.854 44.727 69.885 47.364 68.361 47.357 65.33 47.357 65.33"/>
                  <polygon class="cls-9" points="47.348 62.299 44.708 63.82 44.717 66.854 47.357 65.33 47.348 62.299 47.348 62.299"/>
                  <polygon class="cls-8" points="47.339 59.267 44.7 60.791 44.708 63.82 47.348 62.299 47.339 59.267 47.339 59.267"/>
                  <polygon class="cls-6" points="47.33 56.238 44.691 57.763 44.7 60.791 47.339 59.267 47.33 56.238 47.33 56.238"/>
                  <polygon class="cls-9" points="47.32 53.208 44.683 54.73 44.691 57.763 47.33 56.238 47.32 53.208 47.32 53.208"/>
                  <polygon class="cls-9" points="47.313 50.176 44.675 51.697 44.683 54.73 47.32 53.208 47.313 50.176 47.313 50.176"/>
                  <polygon class="cls-6" points="47.304 47.143 44.666 48.666 44.675 51.697 47.313 50.176 47.304 47.143 47.304 47.143"/>
                  <polygon class="cls-13" points="47.295 44.112 44.656 45.635 44.666 48.666 47.304 47.143 47.295 44.112 47.295 44.112"/>
                  <polygon class="cls-16" points="47.287 41.08 44.649 42.605 44.656 45.635 47.295 44.112 47.287 41.08 47.287 41.08"/>
                  <polygon class="cls-13" points="47.279 38.05 44.64 39.571 44.649 42.605 47.287 41.08 47.279 38.05 47.279 38.05"/>
                  <polygon class="cls-11" points="47.27 35.017 44.632 36.539 44.64 39.571 47.279 38.05 47.27 35.017 47.27 35.017"/>
                  <polygon class="cls-8" points="47.261 31.988 44.624 33.512 44.632 36.539 47.27 35.017 47.261 31.988 47.261 31.988"/>
                  <polygon class="cls-11" points="44.727 69.885 42.09 71.407 42.099 74.438 44.734 72.916 44.727 69.885 44.727 69.885"/>
                  <polygon class="cls-8" points="44.717 66.854 42.082 68.375 42.09 71.407 44.727 69.885 44.717 66.854 44.717 66.854"/>
                  <polygon class="cls-7" points="44.708 63.82 42.073 65.343 42.082 68.375 44.717 66.854 44.708 63.82 44.708 63.82"/>
                  <polygon class="cls-9" points="44.7 60.791 42.065 62.313 42.073 65.343 44.708 63.82 44.7 60.791 44.7 60.791"/>
                  <polygon class="cls-9" points="44.691 57.763 42.055 59.284 42.065 62.313 44.7 60.791 44.691 57.763 44.691 57.763"/>
                  <polygon class="cls-9" points="44.683 54.73 42.047 56.252 42.055 59.284 44.691 57.763 44.683 54.73 44.683 54.73"/>
                  <polygon class="cls-7" points="44.675 51.697 42.038 53.219 42.047 56.252 44.683 54.73 44.675 51.697 44.675 51.697"/>
                  <polygon class="cls-9" points="44.666 48.666 42.03 50.188 42.038 53.219 44.675 51.697 44.666 48.666 44.666 48.666"/>
                  <polygon class="cls-16" points="44.656 45.635 42.023 47.156 42.03 50.188 44.666 48.666 44.656 45.635 44.656 45.635"/>
                  <polygon class="cls-13" points="44.649 42.605 42.012 44.126 42.023 47.156 44.656 45.635 44.649 42.605 44.649 42.605"/>
                  <polygon class="cls-14" points="44.64 39.571 42.004 41.095 42.012 44.126 44.649 42.605 44.64 39.571 44.64 39.571"/>
                  <polygon class="cls-15" points="44.632 36.539 41.996 38.061 42.004 41.095 44.64 39.571 44.632 36.539 44.632 36.539"/>
                  <polygon class="cls-6" points="44.624 33.512 41.987 35.033 41.996 38.061 44.632 36.539 44.624 33.512 44.624 33.512"/>
                  <polygon class="cls-7" points="42.09 71.407 39.452 72.93 39.462 75.959 42.099 74.438 42.09 71.407 42.09 71.407"/>
                  <polygon class="cls-9" points="42.082 68.375 39.444 69.897 39.452 72.93 42.09 71.407 42.082 68.375 42.082 68.375"/>
                  <polygon class="cls-7" points="42.073 65.343 39.436 66.866 39.444 69.897 42.082 68.375 42.073 65.343 42.073 65.343"/>
                  <polygon class="cls-8" points="42.065 62.313 39.428 63.835 39.436 66.866 42.073 65.343 42.065 62.313 42.065 62.313"/>
                  <polygon class="cls-6" points="42.055 59.284 39.419 60.807 39.428 63.835 42.065 62.313 42.055 59.284 42.055 59.284"/>
                  <polygon class="cls-7" points="42.047 56.252 39.409 57.774 39.419 60.807 42.055 59.284 42.047 56.252 42.047 56.252"/>
                  <polygon class="cls-9" points="42.038 53.219 39.401 54.743 39.409 57.774 42.047 56.252 42.038 53.219 42.038 53.219"/>
                  <polygon class="cls-7" points="42.03 50.188 39.394 51.711 39.401 54.743 42.038 53.219 42.03 50.188 42.03 50.188"/>
                  <polygon class="cls-13" points="42.023 47.156 39.384 48.681 39.394 51.711 42.03 50.188 42.023 47.156 42.023 47.156"/>
                  <polygon class="cls-14" points="42.012 44.126 39.375 45.648 39.384 48.681 42.023 47.156 42.012 44.126 42.012 44.126"/>
                  <polygon class="cls-9" points="42.004 41.095 39.367 42.615 39.375 45.648 42.012 44.126 42.004 41.095 42.004 41.095"/>
                  <polygon class="cls-8" points="41.996 38.061 39.358 39.585 39.367 42.615 42.004 41.095 41.996 38.061 41.996 38.061"/>
                  <polygon class="cls-9" points="41.987 35.033 39.351 36.556 39.358 39.585 41.996 38.061 41.987 35.033 41.987 35.033"/>
                  <polygon class="cls-6" points="39.452 72.93 36.814 74.453 36.823 77.483 39.462 75.959 39.452 72.93 39.452 72.93"/>
                  <polygon class="cls-7" points="39.444 69.897 36.805 71.421 36.814 74.453 39.452 72.93 39.444 69.897 39.444 69.897"/>
                  <polygon class="cls-12" points="39.436 66.866 36.797 68.391 36.805 71.421 39.444 69.897 39.436 66.866 39.436 66.866"/>
                  <polygon class="cls-12" points="39.428 63.835 36.789 65.359 36.797 68.391 39.436 66.866 39.428 63.835 39.428 63.835"/>
                  <polygon class="cls-8" points="39.419 60.807 36.78 62.329 36.789 65.359 39.428 63.835 39.419 60.807 39.419 60.807"/>
                  <polygon class="cls-10" points="39.409 57.774 36.772 59.298 36.78 62.329 39.419 60.807 39.409 57.774 39.409 57.774"/>
                  <polygon class="cls-8" points="39.401 54.743 36.763 56.266 36.772 59.298 39.409 57.774 39.401 54.743 39.401 54.743"/>
                  <polygon class="cls-6" points="39.394 51.711 36.754 53.234 36.763 56.266 39.401 54.743 39.394 51.711 39.394 51.711"/>
                  <polygon class="cls-6" points="39.384 48.681 36.746 50.204 36.754 53.234 39.394 51.711 39.384 48.681 39.384 48.681"/>
                  <polygon class="cls-9" points="39.375 45.648 36.737 47.171 36.746 50.204 39.384 48.681 39.375 45.648 39.375 45.648"/>
                  <polygon class="cls-9" points="39.367 42.615 36.729 44.14 36.737 47.171 39.375 45.648 39.367 42.615 39.367 42.615"/>
                  <polygon class="cls-12" points="39.358 39.585 36.72 41.107 36.729 44.14 39.367 42.615 39.358 39.585 39.358 39.585"/>
                  <polygon class="cls-8" points="39.351 36.556 36.71 38.079 36.72 41.107 39.358 39.585 39.351 36.556 39.351 36.556"/>
                  <polygon class="cls-7" points="36.814 74.453 34.175 75.977 34.185 79.008 36.823 77.483 36.814 74.453 36.814 74.453"/>
                  <polygon class="cls-9" points="36.805 71.421 34.167 72.945 34.175 75.977 36.814 74.453 36.805 71.421 36.805 71.421"/>
                  <polygon class="cls-7" points="36.797 68.391 34.158 69.912 34.167 72.945 36.805 71.421 36.797 68.391 36.797 68.391"/>
                  <polygon class="cls-8" points="36.789 65.359 34.15 66.883 34.158 69.912 36.797 68.391 36.789 65.359 36.789 65.359"/>
                  <polygon class="cls-9" points="36.78 62.329 34.142 63.854 34.15 66.883 36.789 65.359 36.78 62.329 36.78 62.329"/>
                  <polygon class="cls-9" points="36.772 59.298 34.132 60.821 34.142 63.854 36.78 62.329 36.772 59.298 36.772 59.298"/>
                  <polygon class="cls-9" points="36.763 56.266 34.124 57.789 34.132 60.821 36.772 59.298 36.763 56.266 36.763 56.266"/>
                  <polygon class="cls-8" points="36.754 53.234 34.116 54.758 34.124 57.789 36.763 56.266 36.754 53.234 36.754 53.234"/>
                  <polygon class="cls-6" points="36.746 50.204 34.107 51.727 34.116 54.758 36.754 53.234 36.746 50.204 36.746 50.204"/>
                  <polygon class="cls-9" points="36.737 47.171 34.097 48.695 34.107 51.727 36.746 50.204 36.737 47.171 36.737 47.171"/>
                  <polygon class="cls-7" points="36.729 44.14 34.089 45.663 34.097 48.695 36.737 47.171 36.729 44.14 36.729 44.14"/>
                  <polygon class="cls-8" points="36.72 41.107 34.08 42.631 34.089 45.663 36.729 44.14 36.72 41.107 36.72 41.107"/>
                  <polygon class="cls-9" points="36.71 38.079 34.072 39.602 34.08 42.631 36.72 41.107 36.71 38.079 36.71 38.079"/>
                </g>
              </g>
            </g>
            <g class="cls-4">
              <polygon class="cls-3" points="34.185 79.009 0.11 59.209 0 19.8 34.072 39.602 34.185 79.009"/>
              <g class="cls-18">
                <g>
                  <polygon class="cls-6" points="34.175 75.977 31.553 74.452 31.562 77.483 34.183 79.007 34.175 75.977 34.175 75.977"/>
                  <polygon class="cls-6" points="34.166 72.945 31.544 71.421 31.553 74.452 34.175 75.977 34.166 72.945 34.166 72.945"/>
                  <polygon class="cls-7" points="34.156 69.912 31.536 68.389 31.544 71.421 34.166 72.945 34.156 69.912 34.156 69.912"/>
                  <polygon class="cls-8" points="34.149 66.883 31.526 65.359 31.536 68.389 34.156 69.912 34.149 66.883 34.149 66.883"/>
                  <polygon class="cls-6" points="34.141 63.854 31.519 62.329 31.526 65.359 34.149 66.883 34.141 63.854 34.141 63.854"/>
                  <polygon class="cls-9" points="34.132 60.821 31.511 59.298 31.519 62.329 34.141 63.854 34.132 60.821 34.132 60.821"/>
                  <polygon class="cls-9" points="34.123 57.789 31.502 56.265 31.511 59.298 34.132 60.821 34.123 57.789 34.123 57.789"/>
                  <polygon class="cls-8" points="34.115 54.758 31.493 53.234 31.502 56.265 34.123 57.789 34.115 54.758 34.115 54.758"/>
                  <polygon class="cls-9" points="34.107 51.727 31.483 50.204 31.493 53.234 34.115 54.758 34.107 51.727 34.107 51.727"/>
                  <polygon class="cls-9" points="34.097 48.695 31.475 47.171 31.483 50.204 34.107 51.727 34.097 48.695 34.097 48.695"/>
                  <polygon class="cls-9" points="34.088 45.663 31.467 44.14 31.475 47.171 34.097 48.695 34.088 45.663 34.088 45.663"/>
                  <polygon class="cls-8" points="34.079 42.631 31.458 41.107 31.467 44.14 34.088 45.663 34.079 42.631 34.079 42.631"/>
                  <polygon class="cls-10" points="34.071 39.602 31.449 38.079 31.458 41.107 34.079 42.631 34.071 39.602 34.071 39.602"/>
                  <polygon class="cls-8" points="31.553 74.452 28.935 72.93 28.942 75.962 31.562 77.483 31.553 74.452 31.553 74.452"/>
                  <polygon class="cls-8" points="31.544 71.421 28.925 69.899 28.935 72.93 31.553 74.452 31.544 71.421 31.544 71.421"/>
                  <polygon class="cls-8" points="31.536 68.389 28.916 66.867 28.925 69.899 31.544 71.421 31.536 68.389 31.536 68.389"/>
                  <polygon class="cls-9" points="31.526 65.359 28.908 63.837 28.916 66.867 31.536 68.389 31.526 65.359 31.526 65.359"/>
                  <polygon class="cls-6" points="31.519 62.329 28.9 60.808 28.908 63.837 31.526 65.359 31.519 62.329 31.519 62.329"/>
                  <polygon class="cls-11" points="31.511 59.298 28.892 57.775 28.9 60.808 31.519 62.329 31.511 59.298 31.511 59.298"/>
                  <polygon class="cls-7" points="31.502 56.265 28.883 54.743 28.892 57.775 31.511 59.298 31.502 56.265 31.502 56.265"/>
                  <polygon class="cls-8" points="31.493 53.234 28.875 51.712 28.883 54.743 31.502 56.265 31.493 53.234 31.493 53.234"/>
                  <polygon class="cls-9" points="31.483 50.204 28.866 48.681 28.875 51.712 31.493 53.234 31.483 50.204 31.483 50.204"/>
                  <polygon class="cls-6" points="31.475 47.171 28.858 45.649 28.866 48.681 31.483 50.204 31.475 47.171 31.475 47.171"/>
                  <polygon class="cls-7" points="31.467 44.14 28.847 42.617 28.858 45.649 31.475 47.171 31.467 44.14 31.467 44.14"/>
                  <polygon class="cls-12" points="31.458 41.107 28.839 39.585 28.847 42.617 31.467 44.14 31.458 41.107 31.458 41.107"/>
                  <polygon class="cls-8" points="31.449 38.079 28.831 36.558 28.839 39.585 31.458 41.107 31.449 38.079 31.449 38.079"/>
                  <polygon class="cls-6" points="28.935 72.93 26.313 71.408 26.32 74.438 28.942 75.962 28.935 72.93 28.935 72.93"/>
                  <polygon class="cls-9" points="28.925 69.899 26.304 68.375 26.313 71.408 28.935 72.93 28.925 69.899 28.925 69.899"/>
                  <polygon class="cls-7" points="28.916 66.867 26.295 65.344 26.304 68.375 28.925 69.899 28.916 66.867 28.916 66.867"/>
                  <polygon class="cls-9" points="28.908 63.837 26.286 62.313 26.295 65.344 28.916 66.867 28.908 63.837 28.908 63.837"/>
                  <polygon class="cls-9" points="28.9 60.808 26.278 59.284 26.286 62.313 28.908 63.837 28.9 60.808 28.9 60.808"/>
                  <polygon class="cls-9" points="28.892 57.775 26.27 56.253 26.278 59.284 28.9 60.808 28.892 57.775 28.892 57.775"/>
                  <polygon class="cls-9" points="28.883 54.743 26.262 53.22 26.27 56.253 28.892 57.775 28.883 54.743 28.883 54.743"/>
                  <polygon class="cls-13" points="28.875 51.712 26.253 50.188 26.262 53.22 28.883 54.743 28.875 51.712 28.875 51.712"/>
                  <polygon class="cls-13" points="28.866 48.681 26.242 47.157 26.253 50.188 28.875 51.712 28.866 48.681 28.866 48.681"/>
                  <polygon class="cls-14" points="28.858 45.649 26.234 44.126 26.242 47.157 28.866 48.681 28.858 45.649 28.858 45.649"/>
                  <polygon class="cls-8" points="28.847 42.617 26.227 41.095 26.234 44.126 28.858 45.649 28.847 42.617 28.847 42.617"/>
                  <polygon class="cls-15" points="28.839 39.585 26.218 38.062 26.227 41.095 28.847 42.617 28.839 39.585 28.839 39.585"/>
                  <polygon class="cls-6" points="28.831 36.558 26.209 35.033 26.218 38.062 28.839 39.585 28.831 36.558 28.831 36.558"/>
                  <polygon class="cls-7" points="26.313 71.408 23.691 69.884 23.7 72.914 26.32 74.438 26.313 71.408 26.313 71.408"/>
                  <polygon class="cls-9" points="26.304 68.375 23.683 66.852 23.691 69.884 26.313 71.408 26.304 68.375 26.304 68.375"/>
                  <polygon class="cls-9" points="26.295 65.344 23.674 63.82 23.683 66.852 26.304 68.375 26.295 65.344 26.295 65.344"/>
                  <polygon class="cls-8" points="26.286 62.313 23.665 60.789 23.674 63.82 26.295 65.344 26.286 62.313 26.286 62.313"/>
                  <polygon class="cls-6" points="26.278 59.284 23.657 57.762 23.665 60.789 26.286 62.313 26.278 59.284 26.278 59.284"/>
                  <polygon class="cls-9" points="26.27 56.253 23.65 54.729 23.657 57.762 26.278 59.284 26.27 56.253 26.27 56.253"/>
                  <polygon class="cls-13" points="26.262 53.22 23.64 51.697 23.65 54.729 26.27 56.253 26.262 53.22 26.262 53.22"/>
                  <polygon class="cls-14" points="26.253 50.188 23.631 48.665 23.64 51.697 26.262 53.22 26.253 50.188 26.253 50.188"/>
                  <polygon class="cls-16" points="26.242 47.157 23.622 45.635 23.631 48.665 26.253 50.188 26.242 47.157 26.242 47.157"/>
                  <polygon class="cls-13" points="26.234 44.126 23.612 42.603 23.622 45.635 26.242 47.157 26.234 44.126 26.234 44.126"/>
                  <polygon class="cls-13" points="26.227 41.095 23.605 39.57 23.612 42.603 26.234 44.126 26.227 41.095 26.227 41.095"/>
                  <polygon class="cls-8" points="26.218 38.062 23.597 36.539 23.605 39.57 26.227 41.095 26.218 38.062 26.218 38.062"/>
                  <polygon class="cls-8" points="26.209 35.033 23.588 33.512 23.597 36.539 26.218 38.062 26.209 35.033 26.209 35.033"/>
                  <polygon class="cls-9" points="23.691 69.884 21.07 68.36 21.078 71.391 23.7 72.914 23.691 69.884 23.691 69.884"/>
                  <polygon class="cls-9" points="23.683 66.852 21.061 65.329 21.07 68.36 23.691 69.884 23.683 66.852 23.683 66.852"/>
                  <polygon class="cls-9" points="23.674 63.82 21.053 62.297 21.061 65.329 23.683 66.852 23.674 63.82 23.674 63.82"/>
                  <polygon class="cls-6" points="23.665 60.789 21.044 59.266 21.053 62.297 23.674 63.82 23.665 60.789 23.665 60.789"/>
                  <polygon class="cls-9" points="23.657 57.762 21.035 56.236 21.044 59.266 23.665 60.789 23.657 57.762 23.657 57.762"/>
                  <polygon class="cls-13" points="23.65 54.729 21.027 53.206 21.035 56.236 23.657 57.762 23.65 54.729 23.65 54.729"/>
                  <polygon class="cls-16" points="23.64 51.697 21.02 50.174 21.027 53.206 23.65 54.729 23.64 51.697 23.64 51.697"/>
                  <polygon class="cls-13" points="23.631 48.665 21.009 47.142 21.02 50.174 23.64 51.697 23.631 48.665 23.631 48.665"/>
                  <polygon class="cls-13" points="23.622 45.635 21 44.11 21.009 47.142 23.631 48.665 23.622 45.635 23.622 45.635"/>
                  <polygon class="cls-16" points="23.612 42.603 20.992 41.078 21 44.11 23.622 45.635 23.612 42.603 23.612 42.603"/>
                  <polygon class="cls-14" points="23.605 39.57 20.983 38.046 20.992 41.078 23.612 42.603 23.605 39.57 23.605 39.57"/>
                  <polygon class="cls-11" points="23.597 36.539 20.976 35.016 20.983 38.046 23.605 39.57 23.597 36.539 23.597 36.539"/>
                  <polygon class="cls-9" points="23.588 33.512 20.966 31.987 20.976 35.016 23.597 36.539 23.588 33.512 23.588 33.512"/>
                  <polygon class="cls-9" points="21.07 68.36 18.45 66.838 18.458 69.867 21.078 71.391 21.07 68.36 21.07 68.36"/>
                  <polygon class="cls-13" points="21.061 65.329 18.441 63.806 18.45 66.838 21.07 68.36 21.061 65.329 21.061 65.329"/>
                  <polygon class="cls-14" points="21.053 62.297 18.432 60.774 18.441 63.806 21.061 65.329 21.053 62.297 21.053 62.297"/>
                  <polygon class="cls-9" points="21.044 59.266 18.424 57.743 18.432 60.774 21.053 62.297 21.044 59.266 21.044 59.266"/>
                  <polygon class="cls-13" points="21.035 56.236 18.415 54.715 18.424 57.743 21.044 59.266 21.035 56.236 21.035 56.236"/>
                  <polygon class="cls-13" points="21.027 53.206 18.407 51.684 18.415 54.715 21.035 56.236 21.027 53.206 21.027 53.206"/>
                  <polygon class="cls-13" points="21.02 50.174 18.399 48.65 18.407 51.684 21.027 53.206 21.02 50.174 21.02 50.174"/>
                  <polygon class="cls-6" points="21.009 47.142 18.391 45.618 18.399 48.65 21.02 50.174 21.009 47.142 21.009 47.142"/>
                  <polygon class="cls-9" points="21 44.11 18.38 42.589 18.391 45.618 21.009 47.142 21 44.11 21 44.11"/>
                  <polygon class="cls-17" points="20.992 41.078 18.372 39.556 18.38 42.589 21 44.11 20.992 41.078 20.992 41.078"/>
                  <polygon class="cls-13" points="20.983 38.046 18.362 36.524 18.372 39.556 20.992 41.078 20.983 38.046 20.983 38.046"/>
                  <polygon class="cls-14" points="20.976 35.016 18.355 33.492 18.362 36.524 20.983 38.046 20.976 35.016 20.976 35.016"/>
                  <polygon class="cls-15" points="20.966 31.987 18.347 30.464 18.355 33.492 20.976 35.016 20.966 31.987 20.966 31.987"/>
                  <polygon class="cls-8" points="18.45 66.838 15.827 65.314 15.837 68.345 18.458 69.867 18.45 66.838 18.45 66.838"/>
                  <polygon class="cls-13" points="18.441 63.806 15.819 62.282 15.827 65.314 18.45 66.838 18.441 63.806 18.441 63.806"/>
                  <polygon class="cls-16" points="18.432 60.774 15.812 59.25 15.819 62.282 18.441 63.806 18.432 60.774 18.432 60.774"/>
                  <polygon class="cls-8" points="18.424 57.743 15.802 56.221 15.812 59.25 18.432 60.774 18.424 57.743 18.424 57.743"/>
                  <polygon class="cls-16" points="18.415 54.715 15.794 53.192 15.802 56.221 18.424 57.743 18.415 54.715 18.415 54.715"/>
                  <polygon class="cls-13" points="18.407 51.684 15.785 50.159 15.794 53.192 18.415 54.715 18.407 51.684 18.407 51.684"/>
                  <polygon class="cls-17" points="18.399 48.65 15.777 47.128 15.785 50.159 18.407 51.684 18.399 48.65 18.399 48.65"/>
                  <polygon class="cls-9" points="18.391 45.618 15.769 44.095 15.777 47.128 18.399 48.65 18.391 45.618 18.391 45.618"/>
                  <polygon class="cls-8" points="18.38 42.589 15.758 41.066 15.769 44.095 18.391 45.618 18.38 42.589 18.38 42.589"/>
                  <polygon class="cls-6" points="18.372 39.556 15.75 38.034 15.758 41.066 18.38 42.589 18.372 39.556 18.372 39.556"/>
                  <polygon class="cls-16" points="18.362 36.524 15.742 35 15.75 38.034 18.372 39.556 18.362 36.524 18.362 36.524"/>
                  <polygon class="cls-13" points="18.355 33.492 15.733 31.969 15.742 35 18.362 36.524 18.355 33.492 18.355 33.492"/>
                  <polygon class="cls-10" points="18.347 30.464 15.726 28.941 15.733 31.969 18.355 33.492 18.347 30.464 18.347 30.464"/>
                  <polygon class="cls-9" points="15.827 65.314 13.206 63.791 13.215 66.821 15.837 68.345 15.827 65.314 15.827 65.314"/>
                  <polygon class="cls-13" points="15.819 62.282 13.198 60.758 13.206 63.791 15.827 65.314 15.819 62.282 15.819 62.282"/>
                  <polygon class="cls-13" points="15.812 59.25 13.19 57.727 13.198 60.758 15.819 62.282 15.812 59.25 15.812 59.25"/>
                  <polygon class="cls-9" points="15.802 56.221 13.181 54.696 13.19 57.727 15.812 59.25 15.802 56.221 15.802 56.221"/>
                  <polygon class="cls-13" points="15.794 53.192 13.173 51.669 13.181 54.696 15.802 56.221 15.794 53.192 15.794 53.192"/>
                  <polygon class="cls-17" points="15.785 50.159 13.165 48.637 13.173 51.669 15.794 53.192 15.785 50.159 15.785 50.159"/>
                  <polygon class="cls-9" points="15.777 47.128 13.154 45.605 13.165 48.637 15.785 50.159 15.777 47.128 15.777 47.128"/>
                  <polygon class="cls-8" points="15.769 44.095 13.146 42.573 13.154 45.605 15.777 47.128 15.769 44.095 15.769 44.095"/>
                  <polygon class="cls-9" points="15.758 41.066 13.138 39.542 13.146 42.573 15.769 44.095 15.758 41.066 15.758 41.066"/>
                  <polygon class="cls-17" points="15.75 38.034 13.129 36.511 13.138 39.542 15.758 41.066 15.75 38.034 15.75 38.034"/>
                  <polygon class="cls-13" points="15.742 35 13.12 33.479 13.129 36.511 15.75 38.034 15.742 35 15.742 35"/>
                  <polygon class="cls-14" points="15.733 31.969 13.112 30.445 13.12 33.479 15.742 35 15.733 31.969 15.733 31.969"/>
                  <polygon class="cls-9" points="15.726 28.941 13.104 27.417 13.112 30.445 15.733 31.969 15.726 28.941 15.726 28.941"/>
                  <polygon class="cls-7" points="13.206 63.791 10.585 62.268 10.593 65.298 13.215 66.821 13.206 63.791 13.206 63.791"/>
                  <polygon class="cls-6" points="13.198 60.758 10.576 59.236 10.585 62.268 13.206 63.791 13.198 60.758 13.198 60.758"/>
                  <polygon class="cls-9" points="13.19 57.727 10.568 56.203 10.576 59.236 13.198 60.758 13.19 57.727 13.19 57.727"/>
                  <polygon class="cls-8" points="13.181 54.696 10.56 53.173 10.568 56.203 13.19 57.727 13.181 54.696 13.181 54.696"/>
                  <polygon class="cls-6" points="13.173 51.669 10.551 50.146 10.56 53.173 13.181 54.696 13.173 51.669 13.173 51.669"/>
                  <polygon class="cls-9" points="13.165 48.637 10.542 47.113 10.551 50.146 13.173 51.669 13.165 48.637 13.165 48.637"/>
                  <polygon class="cls-9" points="13.154 45.605 10.534 44.081 10.542 47.113 13.165 48.637 13.154 45.605 13.154 45.605"/>
                  <polygon class="cls-6" points="13.146 42.573 10.525 41.049 10.534 44.081 13.154 45.605 13.146 42.573 13.146 42.573"/>
                  <polygon class="cls-13" points="13.138 39.542 10.516 38.018 10.525 41.049 13.146 42.573 13.138 39.542 13.138 39.542"/>
                  <polygon class="cls-16" points="13.129 36.511 10.508 34.987 10.516 38.018 13.138 39.542 13.129 36.511 13.129 36.511"/>
                  <polygon class="cls-13" points="13.12 33.479 10.499 31.954 10.508 34.987 13.129 36.511 13.12 33.479 13.12 33.479"/>
                  <polygon class="cls-11" points="13.112 30.445 10.491 28.922 10.499 31.954 13.12 33.479 13.112 30.445 13.112 30.445"/>
                  <polygon class="cls-8" points="13.104 27.417 10.482 25.893 10.491 28.922 13.112 30.445 13.104 27.417 13.104 27.417"/>
                  <polygon class="cls-11" points="10.585 62.268 7.967 60.746 7.976 63.776 10.593 65.298 10.585 62.268 10.585 62.268"/>
                  <polygon class="cls-8" points="10.576 59.236 7.958 57.715 7.967 60.746 10.585 62.268 10.576 59.236 10.576 59.236"/>
                  <polygon class="cls-7" points="10.568 56.203 7.948 54.682 7.958 57.715 10.576 59.236 10.568 56.203 10.568 56.203"/>
                  <polygon class="cls-9" points="10.56 53.173 7.941 51.652 7.948 54.682 10.568 56.203 10.56 53.173 10.56 53.173"/>
                  <polygon class="cls-9" points="10.551 50.146 7.933 48.623 7.941 51.652 10.56 53.173 10.551 50.146 10.551 50.146"/>
                  <polygon class="cls-9" points="10.542 47.113 7.924 45.591 7.933 48.623 10.551 50.146 10.542 47.113 10.542 47.113"/>
                  <polygon class="cls-7" points="10.534 44.081 7.915 42.559 7.924 45.591 10.542 47.113 10.534 44.081 10.534 44.081"/>
                  <polygon class="cls-9" points="10.525 41.049 7.906 39.527 7.915 42.559 10.534 44.081 10.525 41.049 10.525 41.049"/>
                  <polygon class="cls-16" points="10.516 38.018 7.898 36.496 7.906 39.527 10.525 41.049 10.516 38.018 10.516 38.018"/>
                  <polygon class="cls-13" points="10.508 34.987 7.89 33.465 7.898 36.496 10.516 38.018 10.508 34.987 10.508 34.987"/>
                  <polygon class="cls-14" points="10.499 31.954 7.88 30.433 7.89 33.465 10.508 34.987 10.499 31.954 10.499 31.954"/>
                  <polygon class="cls-15" points="10.491 28.922 7.871 27.4 7.88 30.433 10.499 31.954 10.491 28.922 10.491 28.922"/>
                  <polygon class="cls-6" points="10.482 25.893 7.863 24.371 7.871 27.4 10.491 28.922 10.482 25.893 10.482 25.893"/>
                  <polygon class="cls-7" points="7.967 60.746 5.347 59.224 5.357 62.252 7.976 63.776 7.967 60.746 7.967 60.746"/>
                  <polygon class="cls-9" points="7.958 57.715 5.337 56.192 5.347 59.224 7.967 60.746 7.958 57.715 7.958 57.715"/>
                  <polygon class="cls-7" points="7.948 54.682 5.329 53.16 5.337 56.192 7.958 57.715 7.948 54.682 7.948 54.682"/>
                  <polygon class="cls-8" points="7.941 51.652 5.32 50.13 5.329 53.16 7.948 54.682 7.941 51.652 7.941 51.652"/>
                  <polygon class="cls-6" points="7.933 48.623 5.312 47.1 5.32 50.13 7.941 51.652 7.933 48.623 7.933 48.623"/>
                  <polygon class="cls-7" points="7.924 45.591 5.304 44.067 5.312 47.1 7.933 48.623 7.924 45.591 7.924 45.591"/>
                  <polygon class="cls-9" points="7.915 42.559 5.295 41.037 5.304 44.067 7.924 45.591 7.915 42.559 7.915 42.559"/>
                  <polygon class="cls-7" points="7.906 39.527 5.287 38.005 5.295 41.037 7.915 42.559 7.906 39.527 7.906 39.527"/>
                  <polygon class="cls-13" points="7.898 36.496 5.278 34.975 5.287 38.005 7.906 39.527 7.898 36.496 7.898 36.496"/>
                  <polygon class="cls-14" points="7.89 33.465 5.269 31.941 5.278 34.975 7.898 36.496 7.89 33.465 7.89 33.465"/>
                  <polygon class="cls-9" points="7.88 30.433 5.261 28.909 5.269 31.941 7.89 33.465 7.88 30.433 7.88 30.433"/>
                  <polygon class="cls-8" points="7.871 27.4 5.252 25.879 5.261 28.909 7.88 30.433 7.871 27.4 7.871 27.4"/>
                  <polygon class="cls-9" points="7.863 24.371 5.243 22.85 5.252 25.879 7.871 27.4 7.863 24.371 7.863 24.371"/>
                  <polygon class="cls-6" points="5.347 59.224 2.726 57.701 2.734 60.73 5.357 62.252 5.347 59.224 5.347 59.224"/>
                  <polygon class="cls-7" points="5.337 56.192 2.716 54.668 2.726 57.701 5.347 59.224 5.337 56.192 5.337 56.192"/>
                  <polygon class="cls-12" points="5.329 53.16 2.707 51.635 2.716 54.668 5.337 56.192 5.329 53.16 5.329 53.16"/>
                  <polygon class="cls-12" points="5.32 50.13 2.699 48.605 2.707 51.635 5.329 53.16 5.32 50.13 5.32 50.13"/>
                  <polygon class="cls-8" points="5.312 47.1 2.691 45.578 2.699 48.605 5.32 50.13 5.312 47.1 5.312 47.1"/>
                  <polygon class="cls-10" points="5.304 44.067 2.683 42.545 2.691 45.578 5.312 47.1 5.304 44.067 5.304 44.067"/>
                  <polygon class="cls-8" points="5.295 41.037 2.675 39.513 2.683 42.545 5.304 44.067 5.295 41.037 5.295 41.037"/>
                  <polygon class="cls-6" points="5.287 38.005 2.664 36.481 2.675 39.513 5.295 41.037 5.287 38.005 5.287 38.005"/>
                  <polygon class="cls-6" points="5.278 34.975 2.656 33.45 2.664 36.481 5.287 38.005 5.278 34.975 5.278 34.975"/>
                  <polygon class="cls-9" points="5.269 31.941 2.649 30.42 2.656 33.45 5.278 34.975 5.269 31.941 5.269 31.941"/>
                  <polygon class="cls-9" points="5.261 28.909 2.64 27.387 2.649 30.42 5.269 31.941 5.261 28.909 5.261 28.909"/>
                  <polygon class="cls-12" points="5.252 25.879 2.631 24.355 2.64 27.387 5.261 28.909 5.252 25.879 5.252 25.879"/>
                  <polygon class="cls-8" points="5.243 22.85 2.622 21.325 2.631 24.355 5.252 25.879 5.243 22.85 5.243 22.85"/>
                  <polygon class="cls-7" points="2.726 57.701 0.104 56.177 0.113 59.208 2.734 60.73 2.726 57.701 2.726 57.701"/>
                  <polygon class="cls-9" points="2.716 54.668 0.094 53.145 0.104 56.177 2.726 57.701 2.716 54.668 2.716 54.668"/>
                  <polygon class="cls-7" points="2.707 51.635 0.086 50.112 0.094 53.145 2.716 54.668 2.707 51.635 2.707 51.635"/>
                  <polygon class="cls-8" points="2.699 48.605 0.078 47.083 0.086 50.112 2.707 51.635 2.699 48.605 2.699 48.605"/>
                  <polygon class="cls-9" points="2.691 45.578 0.069 44.054 0.078 47.083 2.699 48.605 2.691 45.578 2.691 45.578"/>
                  <polygon class="cls-9" points="2.683 42.545 0.061 41.022 0.069 44.054 2.691 45.578 2.683 42.545 2.683 42.545"/>
                  <polygon class="cls-9" points="2.675 39.513 0.052 37.988 0.061 41.022 2.683 42.545 2.675 39.513 2.675 39.513"/>
                  <polygon class="cls-8" points="2.664 36.481 0.044 34.957 0.052 37.988 2.675 39.513 2.664 36.481 2.664 36.481"/>
                  <polygon class="cls-6" points="2.656 33.45 0.034 31.927 0.044 34.957 2.664 36.481 2.656 33.45 2.656 33.45"/>
                  <polygon class="cls-9" points="2.649 30.42 0.026 28.896 0.034 31.927 2.656 33.45 2.649 30.42 2.649 30.42"/>
                  <polygon class="cls-7" points="2.64 27.387 0.018 25.863 0.026 28.896 2.649 30.42 2.64 27.387 2.64 27.387"/>
                  <polygon class="cls-8" points="2.631 24.355 0.009 22.83 0.018 25.863 2.64 27.387 2.631 24.355 2.631 24.355"/>
                  <polygon class="cls-9" points="2.622 21.325 0.001 19.801 0.009 22.83 2.631 24.355 2.622 21.325 2.622 21.325"/>
                </g>
              </g>
            </g>
            <g class="cls-4">
              <polygon class="cls-3" points="34.072 39.602 0 19.8 34.295 0 68.367 19.801 34.072 39.602"/>
              <g class="cls-19">
                <g>
                  <polygon class="cls-6" points="65.744 18.277 63.106 19.801 65.727 21.324 68.365 19.8 65.744 18.277 65.744 18.277"/>
                  <polygon class="cls-6" points="63.123 16.755 60.484 18.277 63.106 19.801 65.744 18.277 63.123 16.755 63.123 16.755"/>
                  <polygon class="cls-7" points="60.501 15.231 57.862 16.755 60.484 18.277 63.123 16.755 60.501 15.231 60.501 15.231"/>
                  <polygon class="cls-8" points="57.881 13.708 55.243 15.231 57.862 16.755 60.501 15.231 57.881 13.708 57.881 13.708"/>
                  <polygon class="cls-6" points="55.265 12.187 52.624 13.711 55.243 15.231 57.881 13.708 55.265 12.187 55.265 12.187"/>
                  <polygon class="cls-9" points="52.642 10.664 50.002 12.187 52.624 13.711 55.265 12.187 52.642 10.664 52.642 10.664"/>
                  <polygon class="cls-9" points="50.019 9.142 47.382 10.664 50.002 12.187 52.642 10.664 50.019 9.142 50.019 9.142"/>
                  <polygon class="cls-8" points="47.398 7.617 44.76 9.142 47.382 10.664 50.019 9.142 47.398 7.617 47.398 7.617"/>
                  <polygon class="cls-9" points="44.778 6.094 42.14 7.617 44.76 9.142 47.398 7.617 44.778 6.094 44.778 6.094"/>
                  <polygon class="cls-9" points="42.156 4.57 39.519 6.094 42.14 7.617 44.778 6.094 42.156 4.57 42.156 4.57"/>
                  <polygon class="cls-9" points="39.534 3.048 36.898 4.57 39.519 6.094 42.156 4.57 39.534 3.048 39.534 3.048"/>
                  <polygon class="cls-8" points="36.914 1.523 34.275 3.048 36.898 4.57 39.534 3.048 36.914 1.523 36.914 1.523"/>
                  <polygon class="cls-10" points="34.295 0.001 31.657 1.525 34.275 3.048 36.914 1.523 34.295 0.001 34.295 0.001"/>
                  <polygon class="cls-8" points="63.106 19.801 60.47 21.323 63.09 22.847 65.727 21.324 63.106 19.801 63.106 19.801"/>
                  <polygon class="cls-8" points="60.484 18.277 57.849 19.799 60.47 21.323 63.106 19.801 60.484 18.277 60.484 18.277"/>
                  <polygon class="cls-8" points="57.862 16.755 55.228 18.276 57.849 19.799 60.484 18.277 57.862 16.755 57.862 16.755"/>
                  <polygon class="cls-9" points="55.243 15.231 52.608 16.754 55.228 18.276 57.862 16.755 55.243 15.231 55.243 15.231"/>
                  <polygon class="cls-6" points="52.624 13.711 49.988 15.231 52.608 16.754 55.243 15.231 52.624 13.711 52.624 13.711"/>
                  <polygon class="cls-11" points="50.002 12.187 47.366 13.708 49.988 15.231 52.624 13.711 50.002 12.187 50.002 12.187"/>
                  <polygon class="cls-7" points="47.382 10.664 44.745 12.185 47.366 13.708 50.002 12.187 47.382 10.664 47.382 10.664"/>
                  <polygon class="cls-8" points="44.76 9.142 42.124 10.662 44.745 12.185 47.382 10.664 44.76 9.142 44.76 9.142"/>
                  <polygon class="cls-9" points="42.14 7.617 39.504 9.139 42.124 10.662 44.76 9.142 42.14 7.617 42.14 7.617"/>
                  <polygon class="cls-6" points="39.519 6.094 36.882 7.616 39.504 9.139 42.14 7.617 39.519 6.094 39.519 6.094"/>
                  <polygon class="cls-7" points="36.898 4.57 34.261 6.093 36.882 7.616 39.519 6.094 36.898 4.57 36.898 4.57"/>
                  <polygon class="cls-12" points="34.275 3.048 31.64 4.568 34.261 6.093 36.898 4.57 34.275 3.048 34.275 3.048"/>
                  <polygon class="cls-8" points="31.657 1.525 29.021 3.048 31.64 4.568 34.275 3.048 31.657 1.525 31.657 1.525"/>
                  <polygon class="cls-6" points="60.47 21.323 57.832 22.848 60.452 24.369 63.09 22.847 60.47 21.323 60.47 21.323"/>
                  <polygon class="cls-9" points="57.849 19.799 55.211 21.323 57.832 22.848 60.47 21.323 57.849 19.799 57.849 19.799"/>
                  <polygon class="cls-7" points="55.228 18.276 52.59 19.799 55.211 21.323 57.849 19.799 55.228 18.276 55.228 18.276"/>
                  <polygon class="cls-9" points="52.608 16.754 49.969 18.277 52.59 19.799 55.228 18.276 52.608 16.754 52.608 16.754"/>
                  <polygon class="cls-9" points="49.988 15.231 47.351 16.756 49.969 18.277 52.608 16.754 49.988 15.231 49.988 15.231"/>
                  <polygon class="cls-9" points="47.366 13.708 44.729 15.231 47.351 16.756 49.988 15.231 47.366 13.708 47.366 13.708"/>
                  <polygon class="cls-9" points="44.745 12.185 42.108 13.708 44.729 15.231 47.366 13.708 44.745 12.185 44.745 12.185"/>
                  <polygon class="cls-13" points="42.124 10.662 39.485 12.185 42.108 13.708 44.745 12.185 42.124 10.662 42.124 10.662"/>
                  <polygon class="cls-13" points="39.504 9.139 36.866 10.662 39.485 12.185 42.124 10.662 39.504 9.139 39.504 9.139"/>
                  <polygon class="cls-14" points="36.882 7.616 34.244 9.139 36.866 10.662 39.504 9.139 36.882 7.616 36.882 7.616"/>
                  <polygon class="cls-8" points="34.261 6.093 31.623 7.616 34.244 9.139 36.882 7.616 34.261 6.093 34.261 6.093"/>
                  <polygon class="cls-15" points="31.64 4.568 29 6.093 31.623 7.616 34.261 6.093 31.64 4.568 31.64 4.568"/>
                  <polygon class="cls-6" points="29.021 3.048 26.383 4.57 29 6.093 31.64 4.568 29.021 3.048 29.021 3.048"/>
                  <polygon class="cls-7" points="57.832 22.848 55.193 24.37 57.813 25.893 60.452 24.369 57.832 22.848 57.832 22.848"/>
                  <polygon class="cls-9" points="55.211 21.323 52.57 22.848 55.193 24.37 57.832 22.848 55.211 21.323 55.211 21.323"/>
                  <polygon class="cls-9" points="52.59 19.799 49.949 21.323 52.57 22.848 55.211 21.323 52.59 19.799 52.59 19.799"/>
                  <polygon class="cls-8" points="49.969 18.277 47.33 19.8 49.949 21.323 52.59 19.799 49.969 18.277 49.969 18.277"/>
                  <polygon class="cls-6" points="47.351 16.756 44.712 18.279 47.33 19.8 49.969 18.277 47.351 16.756 47.351 16.756"/>
                  <polygon class="cls-9" points="44.729 15.231 42.089 16.756 44.712 18.279 47.351 16.756 44.729 15.231 44.729 15.231"/>
                  <polygon class="cls-13" points="42.108 13.708 39.47 15.231 42.089 16.756 44.729 15.231 42.108 13.708 42.108 13.708"/>
                  <polygon class="cls-14" points="39.485 12.185 36.847 13.708 39.47 15.231 42.108 13.708 39.485 12.185 39.485 12.185"/>
                  <polygon class="cls-16" points="36.866 10.662 34.227 12.187 36.847 13.708 39.485 12.185 36.866 10.662 36.866 10.662"/>
                  <polygon class="cls-13" points="34.244 9.139 31.605 10.662 34.227 12.187 36.866 10.662 34.244 9.139 34.244 9.139"/>
                  <polygon class="cls-13" points="31.623 7.616 28.984 9.139 31.605 10.662 34.244 9.139 31.623 7.616 31.623 7.616"/>
                  <polygon class="cls-8" points="29 6.093 26.362 7.616 28.984 9.139 31.623 7.616 29 6.093 29 6.093"/>
                  <polygon class="cls-8" points="26.383 4.57 23.743 6.094 26.362 7.616 29 6.093 26.383 4.57 26.383 4.57"/>
                  <polygon class="cls-9" points="55.193 24.37 52.554 25.893 55.174 27.417 57.813 25.893 55.193 24.37 55.193 24.37"/>
                  <polygon class="cls-9" points="52.57 22.848 49.933 24.37 52.554 25.893 55.193 24.37 52.57 22.848 52.57 22.848"/>
                  <polygon class="cls-9" points="49.949 21.323 47.312 22.848 49.933 24.37 52.57 22.848 49.949 21.323 49.949 21.323"/>
                  <polygon class="cls-6" points="47.33 19.8 44.691 21.323 47.312 22.848 49.949 21.323 47.33 19.8 47.33 19.8"/>
                  <polygon class="cls-9" points="44.712 18.279 42.073 19.801 44.691 21.323 47.33 19.8 44.712 18.279 44.712 18.279"/>
                  <polygon class="cls-13" points="42.089 16.756 39.451 18.279 42.073 19.801 44.712 18.279 42.089 16.756 42.089 16.756"/>
                  <polygon class="cls-16" points="39.47 15.231 36.83 16.756 39.451 18.279 42.089 16.756 39.47 15.231 39.47 15.231"/>
                  <polygon class="cls-13" points="36.847 13.708 34.208 15.231 36.83 16.756 39.47 15.231 36.847 13.708 36.847 13.708"/>
                  <polygon class="cls-13" points="34.227 12.187 31.589 13.709 34.208 15.231 36.847 13.708 34.227 12.187 34.227 12.187"/>
                  <polygon class="cls-16" points="31.605 10.662 28.968 12.187 31.589 13.709 34.227 12.187 31.605 10.662 31.605 10.662"/>
                  <polygon class="cls-14" points="28.984 9.139 26.345 10.662 28.968 12.187 31.605 10.662 28.984 9.139 28.984 9.139"/>
                  <polygon class="cls-11" points="26.362 7.616 23.724 9.139 26.345 10.662 28.984 9.139 26.362 7.616 26.362 7.616"/>
                  <polygon class="cls-9" points="23.743 6.094 21.106 7.617 23.724 9.139 26.362 7.616 23.743 6.094 23.743 6.094"/>
                  <polygon class="cls-9" points="52.554 25.893 49.917 27.417 52.537 28.938 55.174 27.417 52.554 25.893 52.554 25.893"/>
                  <polygon class="cls-13" points="49.933 24.37 47.295 25.893 49.917 27.417 52.554 25.893 49.933 24.37 49.933 24.37"/>
                  <polygon class="cls-14" points="47.312 22.848 44.675 24.369 47.295 25.893 49.933 24.37 47.312 22.848 47.312 22.848"/>
                  <polygon class="cls-9" points="44.691 21.323 42.054 22.848 44.675 24.369 47.312 22.848 44.691 21.323 44.691 21.323"/>
                  <polygon class="cls-13" points="42.073 19.801 39.436 21.325 42.054 22.848 44.691 21.323 42.073 19.801 42.073 19.801"/>
                  <polygon class="cls-13" points="39.451 18.279 36.814 19.801 39.436 21.325 42.073 19.801 39.451 18.279 39.451 18.279"/>
                  <polygon class="cls-13" points="36.83 16.756 34.192 18.277 36.814 19.801 39.451 18.279 36.83 16.756 36.83 16.756"/>
                  <polygon class="cls-6" points="34.208 15.231 31.571 16.755 34.192 18.277 36.83 16.756 34.208 15.231 34.208 15.231"/>
                  <polygon class="cls-9" points="31.589 13.709 28.95 15.231 31.571 16.755 34.208 15.231 31.589 13.709 31.589 13.709"/>
                  <polygon class="cls-17" points="28.968 12.187 26.331 13.708 28.95 15.231 31.589 13.709 28.968 12.187 28.968 12.187"/>
                  <polygon class="cls-13" points="26.345 10.662 23.707 12.185 26.331 13.708 28.968 12.187 26.345 10.662 26.345 10.662"/>
                  <polygon class="cls-14" points="23.724 9.139 21.085 10.662 23.707 12.185 26.345 10.662 23.724 9.139 23.724 9.139"/>
                  <polygon class="cls-15" points="21.106 7.617 18.469 9.141 21.085 10.662 23.724 9.139 21.106 7.617 21.106 7.617"/>
                  <polygon class="cls-8" points="49.917 27.417 47.279 28.94 49.899 30.463 52.537 28.938 49.917 27.417 49.917 27.417"/>
                  <polygon class="cls-13" points="47.295 25.893 44.656 27.417 47.279 28.94 49.917 27.417 47.295 25.893 47.295 25.893"/>
                  <polygon class="cls-16" points="44.675 24.369 42.035 25.893 44.656 27.417 47.295 25.893 44.675 24.369 44.675 24.369"/>
                  <polygon class="cls-8" points="42.054 22.848 39.415 24.37 42.035 25.893 44.675 24.369 42.054 22.848 42.054 22.848"/>
                  <polygon class="cls-16" points="39.436 21.325 36.797 22.849 39.415 24.37 42.054 22.848 39.436 21.325 39.436 21.325"/>
                  <polygon class="cls-13" points="36.814 19.801 34.175 21.324 36.797 22.849 39.436 21.325 36.814 19.801 36.814 19.801"/>
                  <polygon class="cls-17" points="34.192 18.277 31.553 19.801 34.175 21.324 36.814 19.801 34.192 18.277 34.192 18.277"/>
                  <polygon class="cls-9" points="31.571 16.755 28.933 18.277 31.553 19.801 34.192 18.277 31.571 16.755 31.571 16.755"/>
                  <polygon class="cls-8" points="28.95 15.231 26.313 16.756 28.933 18.277 31.571 16.755 28.95 15.231 28.95 15.231"/>
                  <polygon class="cls-6" points="26.331 13.708 23.691 15.231 26.313 16.756 28.95 15.231 26.331 13.708 26.331 13.708"/>
                  <polygon class="cls-16" points="23.707 12.185 21.068 13.708 23.691 15.231 26.331 13.708 23.707 12.185 23.707 12.185"/>
                  <polygon class="cls-13" points="21.085 10.662 18.448 12.185 21.068 13.708 23.707 12.185 21.085 10.662 21.085 10.662"/>
                  <polygon class="cls-10" points="18.469 9.141 15.828 10.664 18.448 12.185 21.085 10.662 18.469 9.141 18.469 9.141"/>
                  <polygon class="cls-9" points="47.279 28.94 44.64 30.463 47.26 31.985 49.899 30.463 47.279 28.94 47.279 28.94"/>
                  <polygon class="cls-13" points="44.656 27.417 42.019 28.94 44.64 30.463 47.279 28.94 44.656 27.417 44.656 27.417"/>
                  <polygon class="cls-13" points="42.035 25.893 39.398 27.417 42.019 28.94 44.656 27.417 42.035 25.893 42.035 25.893"/>
                  <polygon class="cls-9" points="39.415 24.37 36.776 25.893 39.398 27.417 42.035 25.893 39.415 24.37 39.415 24.37"/>
                  <polygon class="cls-13" points="36.797 22.849 34.158 24.371 36.776 25.893 39.415 24.37 36.797 22.849 36.797 22.849"/>
                  <polygon class="cls-17" points="34.175 21.324 31.537 22.849 34.158 24.371 36.797 22.849 34.175 21.324 34.175 21.324"/>
                  <polygon class="cls-9" points="31.553 19.801 28.915 21.324 31.537 22.849 34.175 21.324 31.553 19.801 31.553 19.801"/>
                  <polygon class="cls-8" points="28.933 18.277 26.294 19.801 28.915 21.324 31.553 19.801 28.933 18.277 28.933 18.277"/>
                  <polygon class="cls-9" points="26.313 16.756 23.674 18.279 26.294 19.801 28.933 18.277 26.313 16.756 26.313 16.756"/>
                  <polygon class="cls-17" points="23.691 15.231 21.053 16.756 23.674 18.279 26.313 16.756 23.691 15.231 23.691 15.231"/>
                  <polygon class="cls-13" points="21.068 13.708 18.431 15.231 21.053 16.756 23.691 15.231 21.068 13.708 21.068 13.708"/>
                  <polygon class="cls-14" points="18.448 12.185 15.81 13.708 18.431 15.231 21.068 13.708 18.448 12.185 18.448 12.185"/>
                  <polygon class="cls-9" points="15.828 10.664 13.191 12.187 15.81 13.708 18.448 12.185 15.828 10.664 15.828 10.664"/>
                  <polygon class="cls-7" points="44.64 30.463 42.002 31.987 44.622 33.508 47.26 31.985 44.64 30.463 44.64 30.463"/>
                  <polygon class="cls-6" points="42.019 28.94 39.38 30.463 42.002 31.987 44.64 30.463 42.019 28.94 42.019 28.94"/>
                  <polygon class="cls-9" points="39.398 27.417 36.76 28.94 39.38 30.463 42.019 28.94 39.398 27.417 39.398 27.417"/>
                  <polygon class="cls-8" points="36.776 25.893 34.14 27.417 36.76 28.94 39.398 27.417 36.776 25.893 36.776 25.893"/>
                  <polygon class="cls-6" points="34.158 24.371 31.52 25.895 34.14 27.417 36.776 25.893 34.158 24.371 34.158 24.371"/>
                  <polygon class="cls-9" points="31.537 22.849 28.899 24.371 31.52 25.895 34.158 24.371 31.537 22.849 31.537 22.849"/>
                  <polygon class="cls-9" points="28.915 21.324 26.277 22.849 28.899 24.371 31.537 22.849 28.915 21.324 28.915 21.324"/>
                  <polygon class="cls-6" points="26.294 19.801 23.656 21.324 26.277 22.849 28.915 21.324 26.294 19.801 26.294 19.801"/>
                  <polygon class="cls-13" points="23.674 18.279 21.035 19.801 23.656 21.324 26.294 19.801 23.674 18.279 23.674 18.279"/>
                  <polygon class="cls-16" points="21.053 16.756 18.415 18.279 21.035 19.801 23.674 18.279 21.053 16.756 21.053 16.756"/>
                  <polygon class="cls-13" points="18.431 15.231 15.792 16.756 18.415 18.279 21.053 16.756 18.431 15.231 18.431 15.231"/>
                  <polygon class="cls-11" points="15.81 13.708 13.171 15.231 15.792 16.756 18.431 15.231 15.81 13.708 15.81 13.708"/>
                  <polygon class="cls-8" points="13.191 12.187 10.552 13.711 13.171 15.231 15.81 13.708 13.191 12.187 13.191 12.187"/>
                  <polygon class="cls-11" points="42.002 31.987 39.366 33.508 41.986 35.03 44.622 33.508 42.002 31.987 42.002 31.987"/>
                  <polygon class="cls-8" points="39.38 30.463 36.745 31.984 39.366 33.508 42.002 31.987 39.38 30.463 39.38 30.463"/>
                  <polygon class="cls-7" points="36.76 28.94 34.123 30.461 36.745 31.984 39.38 30.463 36.76 28.94 36.76 28.94"/>
                  <polygon class="cls-9" points="34.14 27.417 31.503 28.938 34.123 30.461 36.76 28.94 34.14 27.417 34.14 27.417"/>
                  <polygon class="cls-9" points="31.52 25.895 28.884 27.417 31.503 28.938 34.14 27.417 31.52 25.895 31.52 25.895"/>
                  <polygon class="cls-9" points="28.899 24.371 26.263 25.893 28.884 27.417 31.52 25.895 28.899 24.371 28.899 24.371"/>
                  <polygon class="cls-7" points="26.277 22.849 23.641 24.37 26.263 25.893 28.899 24.371 26.277 22.849 26.277 22.849"/>
                  <polygon class="cls-9" points="23.656 21.324 21.021 22.848 23.641 24.37 26.277 22.849 23.656 21.324 23.656 21.324"/>
                  <polygon class="cls-16" points="21.035 19.801 18.4 21.323 21.021 22.848 23.656 21.324 21.035 19.801 21.035 19.801"/>
                  <polygon class="cls-13" points="18.415 18.279 15.778 19.8 18.4 21.323 21.035 19.801 18.415 18.279 18.415 18.279"/>
                  <polygon class="cls-14" points="15.792 16.756 13.157 18.277 15.778 19.8 18.415 18.279 15.792 16.756 15.792 16.756"/>
                  <polygon class="cls-15" points="13.171 15.231 10.535 16.754 13.157 18.277 15.792 16.756 13.171 15.231 13.171 15.231"/>
                  <polygon class="cls-6" points="10.552 13.711 7.917 15.231 10.535 16.754 13.171 15.231 10.552 13.711 10.552 13.711"/>
                  <polygon class="cls-7" points="39.366 33.508 36.729 35.03 39.35 36.554 41.986 35.03 39.366 33.508 39.366 33.508"/>
                  <polygon class="cls-9" points="36.745 31.984 34.107 33.508 36.729 35.03 39.366 33.508 36.745 31.984 36.745 31.984"/>
                  <polygon class="cls-7" points="34.123 30.461 31.484 31.984 34.107 33.508 36.745 31.984 34.123 30.461 34.123 30.461"/>
                  <polygon class="cls-8" points="31.503 28.938 28.866 30.461 31.484 31.984 34.123 30.461 31.503 28.938 31.503 28.938"/>
                  <polygon class="cls-6" points="28.884 27.417 26.247 28.94 28.866 30.461 31.503 28.938 28.884 27.417 28.884 27.417"/>
                  <polygon class="cls-7" points="26.263 25.893 23.626 27.416 26.247 28.94 28.884 27.417 26.263 25.893 26.263 25.893"/>
                  <polygon class="cls-9" points="23.641 24.37 21.003 25.893 23.626 27.416 26.263 25.893 23.641 24.37 23.641 24.37"/>
                  <polygon class="cls-7" points="21.021 22.848 18.382 24.369 21.003 25.893 23.641 24.37 21.021 22.848 21.021 22.848"/>
                  <polygon class="cls-13" points="18.4 21.323 15.763 22.848 18.382 24.369 21.021 22.848 18.4 21.323 18.4 21.323"/>
                  <polygon class="cls-14" points="15.778 19.8 13.141 21.323 15.763 22.848 18.4 21.323 15.778 19.8 15.778 19.8"/>
                  <polygon class="cls-9" points="13.157 18.277 10.519 19.799 13.141 21.323 15.778 19.8 13.157 18.277 13.157 18.277"/>
                  <polygon class="cls-8" points="10.535 16.754 7.898 18.276 10.519 19.799 13.157 18.277 10.535 16.754 10.535 16.754"/>
                  <polygon class="cls-9" points="7.917 15.231 5.278 16.754 7.898 18.276 10.535 16.754 7.917 15.231 7.917 15.231"/>
                  <polygon class="cls-6" points="36.729 35.03 34.089 36.554 36.71 38.077 39.35 36.554 36.729 35.03 36.729 35.03"/>
                  <polygon class="cls-7" points="34.107 33.508 31.468 35.03 34.089 36.554 36.729 35.03 34.107 33.508 34.107 33.508"/>
                  <polygon class="cls-12" points="31.484 31.984 28.846 33.506 31.468 35.03 34.107 33.508 31.484 31.984 31.484 31.984"/>
                  <polygon class="cls-12" points="28.866 30.461 26.227 31.984 28.846 33.506 31.484 31.984 28.866 30.461 28.866 30.461"/>
                  <polygon class="cls-8" points="26.247 28.94 23.608 30.463 26.227 31.984 28.866 30.461 26.247 28.94 26.247 28.94"/>
                  <polygon class="cls-10" points="23.626 27.416 20.986 28.94 23.608 30.463 26.247 28.94 23.626 27.416 23.626 27.416"/>
                  <polygon class="cls-8" points="21.003 25.893 18.366 27.416 20.986 28.94 23.626 27.416 21.003 25.893 21.003 25.893"/>
                  <polygon class="cls-6" points="18.382 24.369 15.743 25.893 18.366 27.416 21.003 25.893 18.382 24.369 18.382 24.369"/>
                  <polygon class="cls-6" points="15.763 22.848 13.124 24.37 15.743 25.893 18.382 24.369 15.763 22.848 15.763 22.848"/>
                  <polygon class="cls-9" points="13.141 21.323 10.502 22.848 13.124 24.37 15.763 22.848 13.141 21.323 13.141 21.323"/>
                  <polygon class="cls-9" points="10.519 19.799 7.88 21.323 10.502 22.848 13.141 21.323 10.519 19.799 10.519 19.799"/>
                  <polygon class="cls-12" points="7.898 18.276 5.259 19.799 7.88 21.323 10.519 19.799 7.898 18.276 7.898 18.276"/>
                  <polygon class="cls-8" points="5.278 16.754 2.641 18.277 5.259 19.799 7.898 18.276 5.278 16.754 5.278 16.754"/>
                  <polygon class="cls-7" points="34.089 36.554 31.45 38.078 34.071 39.6 36.71 38.077 34.089 36.554 34.089 36.554"/>
                  <polygon class="cls-9" points="31.468 35.03 28.83 36.554 31.45 38.078 34.089 36.554 31.468 35.03 31.468 35.03"/>
                  <polygon class="cls-7" points="28.846 33.506 26.208 35.03 28.83 36.554 31.468 35.03 28.846 33.506 28.846 33.506"/>
                  <polygon class="cls-8" points="26.227 31.984 23.588 33.508 26.208 35.03 28.846 33.506 26.227 31.984 26.227 31.984"/>
                  <polygon class="cls-9" points="23.608 30.463 20.97 31.987 23.588 33.508 26.227 31.984 23.608 30.463 23.608 30.463"/>
                  <polygon class="cls-9" points="20.986 28.94 18.348 30.463 20.97 31.987 23.608 30.463 20.986 28.94 20.986 28.94"/>
                  <polygon class="cls-9" points="18.366 27.416 15.726 28.94 18.348 30.463 20.986 28.94 18.366 27.416 18.366 27.416"/>
                  <polygon class="cls-8" points="15.743 25.893 13.105 27.416 15.726 28.94 18.366 27.416 15.743 25.893 15.743 25.893"/>
                  <polygon class="cls-6" points="13.124 24.37 10.485 25.893 13.105 27.416 15.743 25.893 13.124 24.37 13.124 24.37"/>
                  <polygon class="cls-9" points="10.502 22.848 7.863 24.37 10.485 25.893 13.124 24.37 10.502 22.848 10.502 22.848"/>
                  <polygon class="cls-7" points="7.88 21.323 5.242 22.848 7.863 24.37 10.502 22.848 7.88 21.323 7.88 21.323"/>
                  <polygon class="cls-8" points="5.259 19.799 2.621 21.323 5.242 22.848 7.88 21.323 5.259 19.799 5.259 19.799"/>
                  <polygon class="cls-9" points="2.641 18.277 0.003 19.801 2.621 21.323 5.259 19.799 2.641 18.277 2.641 18.277"/>
                </g>
              </g>
            </g>
          </g>
          <g>
            <g class="cls-20">
              <polygon class="cls-21" points="68.366 19.801 68.478 59.209 34.185 79.008 34.072 39.601 68.366 19.801"/>
            </g>
            <polygon class="cls-22" points="34.185 79.008 0.11 59.208 0 19.799 34.072 39.601 34.185 79.008"/>
            <polygon class="cls-23" points="34.072 39.601 0 19.799 34.294 0 68.366 19.801 34.072 39.601"/>
          </g>
        </g>
      </g>
    </g>
  </g>
</svg>
