<svg xmlns="http://www.w3.org/2000/svg" xmlns:xlink="http://www.w3.org/1999/xlink" viewBox="0 0 68.4771 79.0098">
  <defs>
    <style>
      .cls-1 {
        mask: url(#mask);
        filter: url(#luminosity-noclip-2);
      }

      .cls-2, .cls-20 {
        mix-blend-mode: multiply;
      }

      .cls-2 {
        fill: url(#åçûìßííûé_ãðàäèåíò_2);
      }

      .cls-3 {
        fill: #fff;
      }

      .cls-4 {
        isolation: isolate;
      }

      .cls-5 {
        clip-path: url(#clip-path);
      }

      .cls-6 {
        fill: #827f75;
      }

      .cls-7 {
        fill: #93918d;
      }

      .cls-8 {
        fill: #8e8c88;
      }

      .cls-9 {
        fill: #a09e9a;
      }

      .cls-10 {
        fill: #9c9a96;
      }

      .cls-11 {
        fill: #54a50d;
      }

      .cls-12 {
        fill: #85837f;
      }

      .cls-13 {
        fill: #65645c;
      }

      .cls-14 {
        fill: #6ce700;
      }

      .cls-15 {
        fill: #a9ff61;
      }

      .cls-16 {
        fill: #999793;
      }

      .cls-17 {
        clip-path: url(#clip-path-2);
      }

      .cls-18 {
        clip-path: url(#clip-path-3);
      }

      .cls-19 {
        mask: url(#mask-2);
      }

      .cls-20 {
        opacity: 0.5;
        fill: url(#linear-gradient);
      }

      .cls-21 {
        fill: #616161;
        opacity: 0.1;
      }

      .cls-21, .cls-22 {
        mix-blend-mode: color-dodge;
      }

      .cls-22 {
        opacity: 0.3;
        fill: url(#linear-gradient-2);
      }

      .cls-23 {
        filter: url(#luminosity-noclip);
      }
    </style>
    <filter id="luminosity-noclip" x="34.0723" y="-8183.0879" width="34.4048" height="32766" filterUnits="userSpaceOnUse" color-interpolation-filters="sRGB">
      <feFlood flood-color="#fff" result="bg"/>
      <feBlend in="SourceGraphic" in2="bg"/>
    </filter>
    <mask id="mask" x="34.0723" y="-8183.0879" width="34.4048" height="32766" maskUnits="userSpaceOnUse">
      <g class="cls-23"/>
    </mask>
    <linearGradient id="åçûìßííûé_ãðàäèåíò_2" data-name="åçûìßííûé ãðàäèåíò 2" x1="-0.23283" y1="13.94173" x2="67.49797" y2="60.5761" gradientUnits="userSpaceOnUse">
      <stop offset="0" stop-color="#fff"/>
      <stop offset="0.50007" stop-color="#f0f0f0"/>
      <stop offset="1" stop-color="#e6e6e6"/>
    </linearGradient>
    <clipPath id="clip-path">
      <polygon class="cls-3" points="68.365 19.801 68.477 59.209 34.184 79.007 34.072 39.601 68.365 19.801"/>
    </clipPath>
    <clipPath id="clip-path-2">
      <polygon class="cls-3" points="34.184 79.007 0.112 59.207 0 19.8 34.072 39.601 34.184 79.007"/>
    </clipPath>
    <clipPath id="clip-path-3">
      <polygon class="cls-3" points="34.072 39.601 0 19.8 34.294 0 68.365 19.801 34.072 39.601"/>
    </clipPath>
    <filter id="luminosity-noclip-2" x="34.0723" y="19.8018" width="34.4048" height="59.208" filterUnits="userSpaceOnUse" color-interpolation-filters="sRGB">
      <feFlood flood-color="#fff" result="bg"/>
      <feBlend in="SourceGraphic" in2="bg"/>
    </filter>
    <mask id="mask-2" x="34.0723" y="19.8018" width="34.4048" height="59.208" maskUnits="userSpaceOnUse">
      <g class="cls-1">
        <polygon class="cls-2" points="68.365 19.802 68.477 59.209 34.184 79.01 34.072 39.601 68.365 19.802"/>
      </g>
    </mask>
    <linearGradient id="linear-gradient" x1="-0.23283" y1="13.94173" x2="67.49797" y2="60.5761" gradientUnits="userSpaceOnUse">
      <stop offset="0" stop-color="#fff"/>
      <stop offset="0.22658" stop-color="#d5cdc6"/>
      <stop offset="0.4937" stop-color="#a9978a"/>
      <stop offset="0.72113" stop-color="#88705d"/>
      <stop offset="0.89701" stop-color="#745842"/>
      <stop offset="1" stop-color="#6d4f38"/>
    </linearGradient>
    <linearGradient id="linear-gradient-2" x1="-20.43074" y1="-34.81209" x2="133.49632" y2="119.11497" gradientUnits="userSpaceOnUse">
      <stop offset="0" stop-color="#d9eed5"/>
      <stop offset="1"/>
    </linearGradient>
  </defs>
  <g class="cls-4">
    <g id="Layer_2" data-name="Layer 2">
      <g id="Layer_1-2" data-name="Layer 1">
        <g id="_11" data-name="11">
          <g class="cls-4">
            <g class="cls-4">
              <polygon class="cls-3" points="68.365 19.801 68.477 59.209 34.184 79.007 34.072 39.601 68.365 19.801"/>
              <g class="cls-5">
                <g>
                  <polygon class="cls-6" points="68.469 56.176 65.831 57.699 65.839 60.73 68.477 59.209 68.469 56.176 68.469 56.176"/>
                  <polygon class="cls-6" points="68.459 53.144 65.822 54.666 65.831 57.699 68.469 56.176 68.459 53.144 68.459 53.144"/>
                  <polygon class="cls-7" points="68.451 50.111 65.813 51.635 65.822 54.666 68.459 53.144 68.451 50.111 68.451 50.111"/>
                  <polygon class="cls-8" points="68.442 47.084 65.806 48.606 65.813 51.635 68.451 50.111 68.442 47.084 68.442 47.084"/>
                  <polygon class="cls-6" points="68.434 44.054 65.796 45.575 65.806 48.606 68.442 47.084 68.434 44.054 68.434 44.054"/>
                  <polygon class="cls-9" points="68.426 41.021 65.788 42.545 65.796 45.575 68.434 44.054 68.426 41.021 68.426 41.021"/>
                  <polygon class="cls-9" points="68.416 37.991 65.779 39.515 65.788 42.545 68.426 41.021 68.416 37.991 68.416 37.991"/>
                  <polygon class="cls-8" points="68.408 34.959 65.77 36.481 65.779 39.515 68.416 37.991 68.408 34.959 68.408 34.959"/>
                  <polygon class="cls-9" points="68.399 31.926 65.762 33.449 65.77 36.481 68.408 34.959 68.399 31.926 68.399 31.926"/>
                  <polygon class="cls-9" points="68.391 28.895 65.754 30.418 65.762 33.449 68.399 31.926 68.391 28.895 68.391 28.895"/>
                  <polygon class="cls-9" points="68.382 25.863 65.745 27.387 65.754 30.418 68.391 28.895 68.382 25.863 68.382 25.863"/>
                  <polygon class="cls-8" points="68.374 22.833 65.736 24.356 65.745 27.387 68.382 25.863 68.374 22.833 68.374 22.833"/>
                  <polygon class="cls-10" points="68.364 19.802 65.728 21.325 65.736 24.356 68.374 22.833 68.364 19.802 68.364 19.802"/>
                  <polygon class="cls-8" points="65.831 57.699 63.193 59.221 63.203 62.253 65.839 60.73 65.831 57.699 65.831 57.699"/>
                  <polygon class="cls-8" points="65.822 54.666 63.185 56.188 63.193 59.221 65.831 57.699 65.822 54.666 65.822 54.666"/>
                  <polygon class="cls-8" points="65.813 51.635 63.177 53.157 63.185 56.188 65.822 54.666 65.813 51.635 65.813 51.635"/>
                  <polygon class="cls-9" points="65.806 48.606 63.168 50.129 63.177 53.157 65.813 51.635 65.806 48.606 65.806 48.606"/>
                  <polygon class="cls-6" points="65.796 45.575 63.159 47.099 63.168 50.129 65.806 48.606 65.796 45.575 65.796 45.575"/>
                  <polygon class="cls-9" points="65.788 42.545 63.151 44.067 63.159 47.099 65.796 45.575 65.788 42.545 65.788 42.545"/>
                  <polygon class="cls-7" points="65.779 39.515 63.142 41.035 63.151 44.067 65.788 42.545 65.779 39.515 65.779 39.515"/>
                  <polygon class="cls-8" points="65.77 36.481 63.133 38.005 63.142 41.035 65.779 39.515 65.77 36.481 65.77 36.481"/>
                  <polygon class="cls-9" points="65.762 33.449 63.125 34.972 63.133 38.005 65.77 36.481 65.762 33.449 65.762 33.449"/>
                  <polygon class="cls-6" points="65.754 30.418 63.116 31.94 63.125 34.972 65.762 33.449 65.754 30.418 65.754 30.418"/>
                  <polygon class="cls-11" points="65.745 27.387 63.108 28.908 63.116 31.94 65.754 30.418 65.745 27.387 65.745 27.387"/>
                  <polygon class="cls-12" points="65.736 24.356 63.099 25.876 63.108 28.908 65.745 27.387 65.736 24.356 65.736 24.356"/>
                  <polygon class="cls-8" points="65.728 21.325 63.091 22.848 63.099 25.876 65.736 24.356 65.728 21.325 65.728 21.325"/>
                  <polygon class="cls-6" points="63.193 59.221 60.555 60.744 60.564 63.777 63.203 62.253 63.193 59.221 63.193 59.221"/>
                  <polygon class="cls-9" points="63.185 56.188 60.547 57.713 60.555 60.744 63.193 59.221 63.185 56.188 63.185 56.188"/>
                  <polygon class="cls-7" points="63.177 53.157 60.538 54.681 60.547 57.713 63.185 56.188 63.177 53.157 63.177 53.157"/>
                  <polygon class="cls-13" points="63.168 50.129 60.529 51.652 60.538 54.681 63.177 53.157 63.168 50.129 63.168 50.129"/>
                  <polygon class="cls-11" points="63.159 47.099 60.52 48.623 60.529 51.652 63.168 50.129 63.159 47.099 63.159 47.099"/>
                  <polygon class="cls-9" points="63.151 44.067 60.512 45.589 60.52 48.623 63.159 47.099 63.151 44.067 63.151 44.067"/>
                  <polygon class="cls-9" points="63.142 41.035 60.504 42.56 60.512 45.589 63.151 44.067 63.142 41.035 63.142 41.035"/>
                  <polygon class="cls-6" points="63.133 38.005 60.496 39.527 60.504 42.56 63.142 41.035 63.133 38.005 63.133 38.005"/>
                  <polygon class="cls-7" points="63.125 34.972 60.486 36.497 60.496 39.527 63.133 38.005 63.125 34.972 63.125 34.972"/>
                  <polygon class="cls-13" points="63.116 31.94 60.478 33.464 60.486 36.497 63.125 34.972 63.116 31.94 63.116 31.94"/>
                  <polygon class="cls-14" points="63.108 28.908 60.469 30.431 60.478 33.464 63.116 31.94 63.108 28.908 63.108 28.908"/>
                  <polygon class="cls-15" points="63.099 25.876 60.46 27.4 60.469 30.431 63.108 28.908 63.099 25.876 63.099 25.876"/>
                  <polygon class="cls-9" points="63.091 22.848 60.452 24.371 60.46 27.4 63.099 25.876 63.091 22.848 63.091 22.848"/>
                  <polygon class="cls-7" points="60.555 60.744 57.916 62.269 57.925 65.3 60.564 63.777 60.555 60.744 60.555 60.744"/>
                  <polygon class="cls-13" points="60.547 57.713 57.908 59.236 57.916 62.269 60.555 60.744 60.547 57.713 60.547 57.713"/>
                  <polygon class="cls-15" points="60.538 54.681 57.899 56.205 57.908 59.236 60.547 57.713 60.538 54.681 60.538 54.681"/>
                  <polygon class="cls-8" points="60.529 51.652 57.891 53.176 57.899 56.205 60.538 54.681 60.529 51.652 60.529 51.652"/>
                  <polygon class="cls-14" points="60.52 48.623 57.883 50.144 57.891 53.176 60.529 51.652 60.52 48.623 60.52 48.623"/>
                  <polygon class="cls-14" points="60.512 45.589 57.874 47.113 57.883 50.144 60.52 48.623 60.512 45.589 60.512 45.589"/>
                  <polygon class="cls-7" points="60.504 42.56 57.865 44.082 57.874 47.113 60.512 45.589 60.504 42.56 60.504 42.56"/>
                  <polygon class="cls-6" points="60.496 39.527 57.856 41.052 57.865 44.082 60.504 42.56 60.496 39.527 60.496 39.527"/>
                  <polygon class="cls-9" points="60.486 36.497 57.848 38.019 57.856 41.052 60.496 39.527 60.486 36.497 60.486 36.497"/>
                  <polygon class="cls-6" points="60.478 33.464 57.839 34.985 57.848 38.019 60.486 36.497 60.478 33.464 60.478 33.464"/>
                  <polygon class="cls-9" points="60.469 30.431 57.831 31.955 57.839 34.985 60.478 33.464 60.469 30.431 60.469 30.431"/>
                  <polygon class="cls-8" points="60.46 27.4 57.821 28.924 57.831 31.955 60.469 30.431 60.46 27.4 60.46 27.4"/>
                  <polygon class="cls-8" points="60.452 24.371 57.813 25.894 57.821 28.924 60.46 27.4 60.452 24.371 60.452 24.371"/>
                  <polygon class="cls-13" points="57.916 62.269 55.279 63.791 55.287 66.822 57.925 65.3 57.916 62.269 57.916 62.269"/>
                  <polygon class="cls-11" points="57.908 59.236 55.27 60.759 55.279 63.791 57.916 62.269 57.908 59.236 57.908 59.236"/>
                  <polygon class="cls-14" points="57.899 56.205 55.262 57.727 55.27 60.759 57.908 59.236 57.899 56.205 57.899 56.205"/>
                  <polygon class="cls-9" points="57.891 53.176 55.253 54.697 55.262 57.727 57.899 56.205 57.891 53.176 57.891 53.176"/>
                  <polygon class="cls-13" points="57.883 50.144 55.245 51.667 55.253 54.697 57.891 53.176 57.883 50.144 57.883 50.144"/>
                  <polygon class="cls-15" points="57.874 47.113 55.235 48.635 55.245 51.667 57.883 50.144 57.874 47.113 57.874 47.113"/>
                  <polygon class="cls-12" points="57.865 44.082 55.228 45.605 55.235 48.635 57.874 47.113 57.865 44.082 57.865 44.082"/>
                  <polygon class="cls-12" points="57.856 41.052 55.219 42.574 55.228 45.605 57.865 44.082 57.856 41.052 57.856 41.052"/>
                  <polygon class="cls-6" points="57.848 38.019 55.21 39.541 55.219 42.574 57.856 41.052 57.848 38.019 57.848 38.019"/>
                  <polygon class="cls-9" points="57.839 34.985 55.202 36.509 55.21 39.541 57.848 38.019 57.839 34.985 57.839 34.985"/>
                  <polygon class="cls-9" points="57.831 31.955 55.193 33.478 55.202 36.509 57.839 34.985 57.831 31.955 57.831 31.955"/>
                  <polygon class="cls-7" points="57.821 28.924 55.185 30.447 55.193 33.478 57.831 31.955 57.821 28.924 57.821 28.924"/>
                  <polygon class="cls-9" points="57.813 25.894 55.176 27.417 55.185 30.447 57.821 28.924 57.813 25.894 57.813 25.894"/>
                  <polygon class="cls-13" points="55.279 63.791 52.641 65.314 52.649 68.347 55.287 66.822 55.279 63.791 55.279 63.791"/>
                  <polygon class="cls-6" points="55.27 60.759 52.632 62.281 52.641 65.314 55.279 63.791 55.27 60.759 55.27 60.759"/>
                  <polygon class="cls-7" points="55.262 57.727 52.623 59.25 52.632 62.281 55.27 60.759 55.262 57.727 55.262 57.727"/>
                  <polygon class="cls-6" points="55.253 54.697 52.614 56.222 52.623 59.25 55.262 57.727 55.253 54.697 55.253 54.697"/>
                  <polygon class="cls-6" points="55.245 51.667 52.606 53.191 52.614 56.222 55.253 54.697 55.245 51.667 55.245 51.667"/>
                  <polygon class="cls-9" points="55.235 48.635 52.598 50.159 52.606 53.191 55.245 51.667 55.235 48.635 55.235 48.635"/>
                  <polygon class="cls-9" points="55.228 45.605 52.589 47.129 52.598 50.159 55.235 48.635 55.228 45.605 55.228 45.605"/>
                  <polygon class="cls-13" points="55.219 42.574 52.581 44.096 52.589 47.129 55.228 45.605 55.219 42.574 55.219 42.574"/>
                  <polygon class="cls-14" points="55.21 39.541 52.572 41.064 52.581 44.096 55.219 42.574 55.21 39.541 55.21 39.541"/>
                  <polygon class="cls-7" points="55.202 36.509 52.563 38.033 52.572 41.064 55.21 39.541 55.202 36.509 55.202 36.509"/>
                  <polygon class="cls-14" points="55.193 33.478 52.554 35.001 52.563 38.033 55.202 36.509 55.193 33.478 55.193 33.478"/>
                  <polygon class="cls-8" points="55.185 30.447 52.546 31.971 52.554 35.001 55.193 33.478 55.185 30.447 55.185 30.447"/>
                  <polygon class="cls-16" points="55.176 27.417 52.538 28.939 52.546 31.971 55.185 30.447 55.176 27.417 55.176 27.417"/>
                  <polygon class="cls-6" points="52.641 65.314 50.002 66.838 50.011 69.869 52.649 68.347 52.641 65.314 52.641 65.314"/>
                  <polygon class="cls-13" points="52.632 62.281 49.993 63.806 50.002 66.838 52.641 65.314 52.632 62.281 52.632 62.281"/>
                  <polygon class="cls-14" points="52.623 59.25 49.985 60.773 49.993 63.806 52.632 62.281 52.623 59.25 52.623 59.25"/>
                  <polygon class="cls-9" points="52.614 56.222 49.977 57.745 49.985 60.773 52.623 59.25 52.614 56.222 52.614 56.222"/>
                  <polygon class="cls-13" points="52.606 53.191 49.968 54.715 49.977 57.745 52.614 56.222 52.606 53.191 52.606 53.191"/>
                  <polygon class="cls-9" points="52.598 50.159 49.959 51.684 49.968 54.715 52.606 53.191 52.598 50.159 52.598 50.159"/>
                  <polygon class="cls-7" points="52.589 47.129 49.95 48.651 49.959 51.684 52.598 50.159 52.589 47.129 52.589 47.129"/>
                  <polygon class="cls-9" points="52.581 44.096 49.941 45.62 49.95 48.651 52.589 47.129 52.581 44.096 52.581 44.096"/>
                  <polygon class="cls-9" points="52.572 41.064 49.933 42.588 49.941 45.62 52.581 44.096 52.572 41.064 52.572 41.064"/>
                  <polygon class="cls-9" points="52.563 38.033 49.925 39.557 49.933 42.588 52.572 41.064 52.563 38.033 52.563 38.033"/>
                  <polygon class="cls-13" points="52.554 35.001 49.916 36.525 49.925 39.557 52.563 38.033 52.554 35.001 52.554 35.001"/>
                  <polygon class="cls-11" points="52.546 31.971 49.908 33.493 49.916 36.525 52.554 35.001 52.546 31.971 52.546 31.971"/>
                  <polygon class="cls-10" points="52.538 28.939 49.898 30.463 49.908 33.493 52.546 31.971 52.538 28.939 52.538 28.939"/>
                  <polygon class="cls-8" points="50.002 66.838 47.363 68.36 47.372 71.393 50.011 69.869 50.002 66.838 50.002 66.838"/>
                  <polygon class="cls-9" points="49.993 63.806 47.355 65.33 47.363 68.36 50.002 66.838 49.993 63.806 49.993 63.806"/>
                  <polygon class="cls-8" points="49.985 60.773 47.346 62.298 47.355 65.33 49.993 63.806 49.985 60.773 49.985 60.773"/>
                  <polygon class="cls-12" points="49.977 57.745 47.337 59.269 47.346 62.298 49.985 60.773 49.977 57.745 49.977 57.745"/>
                  <polygon class="cls-9" points="49.968 54.715 47.329 56.238 47.337 59.269 49.977 57.745 49.968 54.715 49.968 54.715"/>
                  <polygon class="cls-6" points="49.959 51.684 47.32 53.205 47.329 56.238 49.968 54.715 49.959 51.684 49.959 51.684"/>
                  <polygon class="cls-9" points="49.95 48.651 47.311 50.176 47.32 53.205 49.959 51.684 49.95 48.651 49.95 48.651"/>
                  <polygon class="cls-8" points="49.941 45.62 47.304 47.144 47.311 50.176 49.95 48.651 49.941 45.62 49.941 45.62"/>
                  <polygon class="cls-13" points="49.933 42.588 47.295 44.111 47.304 47.144 49.941 45.62 49.933 42.588 49.933 42.588"/>
                  <polygon class="cls-9" points="49.925 39.557 47.286 41.08 47.295 44.111 49.933 42.588 49.925 39.557 49.925 39.557"/>
                  <polygon class="cls-9" points="49.916 36.525 47.277 38.047 47.286 41.08 49.925 39.557 49.916 36.525 49.916 36.525"/>
                  <polygon class="cls-12" points="49.908 33.493 47.269 35.018 47.277 38.047 49.916 36.525 49.908 33.493 49.908 33.493"/>
                  <polygon class="cls-9" points="49.898 30.463 47.26 31.986 47.269 35.018 49.908 33.493 49.898 30.463 49.898 30.463"/>
                  <polygon class="cls-7" points="47.363 68.36 44.726 69.884 44.735 72.916 47.372 71.393 47.363 68.36 47.363 68.36"/>
                  <polygon class="cls-6" points="47.355 65.33 44.718 66.852 44.726 69.884 47.363 68.36 47.355 65.33 47.355 65.33"/>
                  <polygon class="cls-9" points="47.346 62.298 44.708 63.82 44.718 66.852 47.355 65.33 47.346 62.298 47.346 62.298"/>
                  <polygon class="cls-8" points="47.337 59.269 44.7 60.792 44.708 63.82 47.346 62.298 47.337 59.269 47.337 59.269"/>
                  <polygon class="cls-6" points="47.329 56.238 44.691 57.76 44.7 60.792 47.337 59.269 47.329 56.238 47.329 56.238"/>
                  <polygon class="cls-14" points="47.32 53.205 44.683 54.728 44.691 57.76 47.329 56.238 47.32 53.205 47.32 53.205"/>
                  <polygon class="cls-15" points="47.311 50.176 44.675 51.697 44.683 54.728 47.32 53.205 47.311 50.176 47.311 50.176"/>
                  <polygon class="cls-7" points="47.304 47.144 44.666 48.667 44.675 51.697 47.311 50.176 47.304 47.144 47.304 47.144"/>
                  <polygon class="cls-9" points="47.295 44.111 44.657 45.635 44.666 48.667 47.304 47.144 47.295 44.111 47.295 44.111"/>
                  <polygon class="cls-9" points="47.286 41.08 44.649 42.602 44.657 45.635 47.295 44.111 47.286 41.08 47.286 41.08"/>
                  <polygon class="cls-6" points="47.277 38.047 44.64 39.57 44.649 42.602 47.286 41.08 47.277 38.047 47.277 38.047"/>
                  <polygon class="cls-8" points="47.269 35.018 44.631 36.539 44.64 39.57 47.277 38.047 47.269 35.018 47.269 35.018"/>
                  <polygon class="cls-8" points="47.26 31.986 44.623 33.51 44.631 36.539 47.269 35.018 47.26 31.986 47.26 31.986"/>
                  <polygon class="cls-13" points="44.726 69.884 42.089 71.407 42.098 74.438 44.735 72.916 44.726 69.884 44.726 69.884"/>
                  <polygon class="cls-11" points="44.718 66.852 42.081 68.375 42.089 71.407 44.726 69.884 44.718 66.852 44.718 66.852"/>
                  <polygon class="cls-9" points="44.708 63.82 42.071 65.341 42.081 68.375 44.718 66.852 44.708 63.82 44.708 63.82"/>
                  <polygon class="cls-13" points="44.7 60.792 42.063 62.312 42.071 65.341 44.708 63.82 44.7 60.792 44.7 60.792"/>
                  <polygon class="cls-11" points="44.691 57.76 42.055 59.283 42.063 62.312 44.7 60.792 44.691 57.76 44.691 57.76"/>
                  <polygon class="cls-14" points="44.683 54.728 42.046 56.252 42.055 59.283 44.691 57.76 44.683 54.728 44.683 54.728"/>
                  <polygon class="cls-8" points="44.675 51.697 42.038 53.221 42.046 56.252 44.683 54.728 44.675 51.697 44.675 51.697"/>
                  <polygon class="cls-12" points="44.666 48.667 42.028 50.189 42.038 53.221 44.675 51.697 44.666 48.667 44.666 48.667"/>
                  <polygon class="cls-13" points="44.657 45.635 42.02 47.156 42.028 50.189 44.666 48.667 44.657 45.635 44.657 45.635"/>
                  <polygon class="cls-14" points="44.649 42.602 42.011 44.125 42.02 47.156 44.657 45.635 44.649 42.602 44.649 42.602"/>
                  <polygon class="cls-8" points="44.64 39.57 42.003 41.094 42.011 44.125 44.649 42.602 44.64 39.57 44.64 39.57"/>
                  <polygon class="cls-16" points="44.631 36.539 41.994 38.062 42.003 41.094 44.64 39.57 44.631 36.539 44.631 36.539"/>
                  <polygon class="cls-6" points="44.623 33.51 41.986 35.031 41.994 38.062 44.631 36.539 44.623 33.51 44.623 33.51"/>
                  <polygon class="cls-7" points="42.089 71.407 39.452 72.928 39.46 75.961 42.098 74.438 42.089 71.407 42.089 71.407"/>
                  <polygon class="cls-14" points="42.081 68.375 39.442 69.896 39.452 72.928 42.089 71.407 42.081 68.375 42.081 68.375"/>
                  <polygon class="cls-7" points="42.071 65.341 39.435 66.864 39.442 69.896 42.081 68.375 42.071 65.341 42.071 65.341"/>
                  <polygon class="cls-11" points="42.063 62.312 39.426 63.836 39.435 66.864 42.071 65.341 42.063 62.312 42.063 62.312"/>
                  <polygon class="cls-14" points="42.055 59.283 39.418 60.806 39.426 63.836 42.063 62.312 42.055 59.283 42.055 59.283"/>
                  <polygon class="cls-7" points="42.046 56.252 39.409 57.775 39.418 60.806 42.055 59.283 42.046 56.252 42.046 56.252"/>
                  <polygon class="cls-9" points="42.038 53.221 39.4 54.744 39.409 57.775 42.046 56.252 42.038 53.221 42.038 53.221"/>
                  <polygon class="cls-6" points="42.028 50.189 39.391 51.712 39.4 54.744 42.038 53.221 42.028 50.189 42.028 50.189"/>
                  <polygon class="cls-13" points="42.02 47.156 39.383 48.68 39.391 51.712 42.028 50.189 42.02 47.156 42.02 47.156"/>
                  <polygon class="cls-14" points="42.011 44.125 39.374 45.647 39.383 48.68 42.02 47.156 42.011 44.125 42.011 44.125"/>
                  <polygon class="cls-15" points="42.003 41.094 39.366 42.616 39.374 45.647 42.011 44.125 42.003 41.094 42.003 41.094"/>
                  <polygon class="cls-8" points="41.994 38.062 39.358 39.586 39.366 42.616 42.003 41.094 41.994 38.062 41.994 38.062"/>
                  <polygon class="cls-9" points="41.986 35.031 39.348 36.555 39.358 39.586 41.994 38.062 41.986 35.031 41.986 35.031"/>
                  <polygon class="cls-6" points="39.452 72.928 36.813 74.451 36.821 77.485 39.46 75.961 39.452 72.928 39.452 72.928"/>
                  <polygon class="cls-7" points="39.442 69.896 36.805 71.419 36.813 74.451 39.452 72.928 39.442 69.896 39.442 69.896"/>
                  <polygon class="cls-12" points="39.435 66.864 36.796 68.388 36.805 71.419 39.442 69.896 39.435 66.864 39.435 66.864"/>
                  <polygon class="cls-12" points="39.426 63.836 36.787 65.36 36.796 68.388 39.435 66.864 39.426 63.836 39.426 63.836"/>
                  <polygon class="cls-8" points="39.418 60.806 36.779 62.33 36.787 65.36 39.426 63.836 39.418 60.806 39.418 60.806"/>
                  <polygon class="cls-10" points="39.409 57.775 36.77 59.297 36.779 62.33 39.418 60.806 39.409 57.775 39.409 57.775"/>
                  <polygon class="cls-8" points="39.4 54.744 36.761 56.267 36.77 59.297 39.409 57.775 39.4 54.744 39.4 54.744"/>
                  <polygon class="cls-6" points="39.391 51.712 36.753 53.235 36.761 56.267 39.4 54.744 39.391 51.712 39.391 51.712"/>
                  <polygon class="cls-6" points="39.383 48.68 36.745 50.203 36.753 53.235 39.391 51.712 39.383 48.68 39.383 48.68"/>
                  <polygon class="cls-11" points="39.374 45.647 36.735 47.172 36.745 50.203 39.383 48.68 39.374 45.647 39.374 45.647"/>
                  <polygon class="cls-14" points="39.366 42.616 36.727 44.139 36.735 47.172 39.374 45.647 39.366 42.616 39.366 42.616"/>
                  <polygon class="cls-13" points="39.358 39.586 36.719 41.108 36.727 44.139 39.366 42.616 39.358 39.586 39.358 39.586"/>
                  <polygon class="cls-8" points="39.348 36.555 36.709 38.078 36.719 41.108 39.358 39.586 39.348 36.555 39.348 36.555"/>
                  <polygon class="cls-7" points="36.813 74.451 34.176 75.975 34.184 79.007 36.821 77.485 36.813 74.451 36.813 74.451"/>
                  <polygon class="cls-9" points="36.805 71.419 34.167 72.942 34.176 75.975 36.813 74.451 36.805 71.419 36.805 71.419"/>
                  <polygon class="cls-7" points="36.796 68.388 34.159 69.911 34.167 72.942 36.805 71.419 36.796 68.388 36.796 68.388"/>
                  <polygon class="cls-8" points="36.787 65.36 34.15 66.883 34.159 69.911 36.796 68.388 36.787 65.36 36.787 65.36"/>
                  <polygon class="cls-9" points="36.779 62.33 34.141 63.852 34.15 66.883 36.787 65.36 36.779 62.33 36.779 62.33"/>
                  <polygon class="cls-9" points="36.77 59.297 34.133 60.82 34.141 63.852 36.779 62.33 36.77 59.297 36.77 59.297"/>
                  <polygon class="cls-9" points="36.761 56.267 34.124 57.789 34.133 60.82 36.77 59.297 36.761 56.267 36.761 56.267"/>
                  <polygon class="cls-8" points="36.753 53.235 34.116 54.758 34.124 57.789 36.761 56.267 36.753 53.235 36.753 53.235"/>
                  <polygon class="cls-6" points="36.745 50.203 34.107 51.726 34.116 54.758 36.753 53.235 36.745 50.203 36.745 50.203"/>
                  <polygon class="cls-9" points="36.735 47.172 34.099 48.693 34.107 51.726 36.745 50.203 36.735 47.172 36.735 47.172"/>
                  <polygon class="cls-7" points="36.727 44.139 34.09 45.662 34.099 48.693 36.735 47.172 36.727 44.139 36.727 44.139"/>
                  <polygon class="cls-8" points="36.719 41.108 34.081 42.631 34.09 45.662 36.727 44.139 36.719 41.108 36.719 41.108"/>
                  <polygon class="cls-9" points="36.709 38.078 34.072 39.601 34.081 42.631 36.719 41.108 36.709 38.078 36.709 38.078"/>
                </g>
              </g>
            </g>
            <g class="cls-4">
              <polygon class="cls-3" points="34.184 79.007 0.112 59.207 0 19.8 34.072 39.601 34.184 79.007"/>
              <g class="cls-17">
                <g>
                  <polygon class="cls-6" points="2.733 60.728 2.725 57.699 0.103 56.176 0.112 59.206 2.733 60.728 2.733 60.728"/>
                  <polygon class="cls-6" points="5.356 62.253 5.346 59.223 2.725 57.699 2.733 60.728 5.356 62.253 5.356 62.253"/>
                  <polygon class="cls-7" points="7.977 63.777 7.967 60.745 5.346 59.223 5.356 62.253 7.977 63.777 7.977 63.777"/>
                  <polygon class="cls-8" points="10.595 65.298 10.587 62.268 7.967 60.745 7.977 63.777 10.595 65.298 10.595 65.298"/>
                  <polygon class="cls-6" points="13.216 66.82 13.207 63.79 10.587 62.268 10.595 65.298 13.216 66.82 13.216 66.82"/>
                  <polygon class="cls-9" points="15.837 68.345 15.829 65.314 13.207 63.79 13.216 66.82 15.837 68.345 15.837 68.345"/>
                  <polygon class="cls-9" points="18.457 69.867 18.449 66.838 15.829 65.314 15.837 68.345 18.457 69.867 18.457 69.867"/>
                  <polygon class="cls-8" points="21.078 71.39 21.07 68.359 18.449 66.838 18.457 69.867 21.078 71.39 21.078 71.39"/>
                  <polygon class="cls-9" points="23.7 72.914 23.691 69.883 21.07 68.359 21.078 71.39 23.7 72.914 23.7 72.914"/>
                  <polygon class="cls-9" points="26.321 74.436 26.313 71.407 23.691 69.883 23.7 72.914 26.321 74.436 26.321 74.436"/>
                  <polygon class="cls-9" points="28.942 75.961 28.935 72.932 26.313 71.407 26.321 74.436 28.942 75.961 28.942 75.961"/>
                  <polygon class="cls-8" points="31.563 77.483 31.555 74.451 28.935 72.932 28.942 75.961 31.563 77.483 31.563 77.483"/>
                  <polygon class="cls-10" points="34.183 79.004 34.175 75.975 31.555 74.451 31.563 77.483 34.183 79.004 34.183 79.004"/>
                  <polygon class="cls-8" points="2.725 57.699 2.717 54.67 0.095 53.144 0.103 56.176 2.725 57.699 2.725 57.699"/>
                  <polygon class="cls-8" points="5.346 59.223 5.338 56.19 2.717 54.67 2.725 57.699 5.346 59.223 5.346 59.223"/>
                  <polygon class="cls-8" points="7.967 60.745 7.959 57.715 5.338 56.19 5.346 59.223 7.967 60.745 7.967 60.745"/>
                  <polygon class="cls-9" points="10.587 62.268 10.579 59.237 7.959 57.715 7.967 60.745 10.587 62.268 10.587 62.268"/>
                  <polygon class="cls-6" points="13.207 63.79 13.198 60.76 10.579 59.237 10.587 62.268 13.207 63.79 13.207 63.79"/>
                  <polygon class="cls-9" points="15.829 65.314 15.82 62.283 13.198 60.76 13.207 63.79 15.829 65.314 15.829 65.314"/>
                  <polygon class="cls-7" points="18.449 66.838 18.439 63.806 15.82 62.283 15.829 65.314 18.449 66.838 18.449 66.838"/>
                  <polygon class="cls-8" points="21.07 68.359 21.061 65.33 18.439 63.806 18.449 66.838 21.07 68.359 21.07 68.359"/>
                  <polygon class="cls-9" points="23.691 69.883 23.683 66.853 21.061 65.33 21.07 68.359 23.691 69.883 23.691 69.883"/>
                  <polygon class="cls-6" points="26.313 71.407 26.305 68.377 23.683 66.853 23.691 69.883 26.313 71.407 26.313 71.407"/>
                  <polygon class="cls-11" points="28.935 72.932 28.926 69.9 26.305 68.377 26.313 71.407 28.935 72.932 28.935 72.932"/>
                  <polygon class="cls-12" points="31.555 74.451 31.546 71.422 28.926 69.9 28.935 72.932 31.555 74.451 31.555 74.451"/>
                  <polygon class="cls-8" points="34.175 75.975 34.166 72.945 31.546 71.422 31.555 74.451 34.175 75.975 34.175 75.975"/>
                  <polygon class="cls-6" points="2.717 54.67 2.708 51.636 0.087 50.113 0.095 53.144 2.717 54.67 2.717 54.67"/>
                  <polygon class="cls-9" points="5.338 56.19 5.33 53.16 2.708 51.636 2.717 54.67 5.338 56.19 5.338 56.19"/>
                  <polygon class="cls-7" points="7.959 57.715 7.951 54.683 5.33 53.16 5.338 56.19 7.959 57.715 7.959 57.715"/>
                  <polygon class="cls-13" points="10.579 59.237 10.569 56.205 7.951 54.683 7.959 57.715 10.579 59.237 10.579 59.237"/>
                  <polygon class="cls-11" points="13.198 60.76 13.189 57.728 10.569 56.205 10.579 59.237 13.198 60.76 13.198 60.76"/>
                  <polygon class="cls-9" points="15.82 62.283 15.811 59.251 13.189 57.728 13.198 60.76 15.82 62.283 15.82 62.283"/>
                  <polygon class="cls-9" points="18.439 63.806 18.431 60.774 15.811 59.251 15.82 62.283 18.439 63.806 18.439 63.806"/>
                  <polygon class="cls-6" points="21.061 65.33 21.052 62.298 18.431 60.774 18.439 63.806 21.061 65.33 21.061 65.33"/>
                  <polygon class="cls-7" points="23.683 66.853 23.673 63.822 21.052 62.298 21.061 65.33 23.683 66.853 23.683 66.853"/>
                  <polygon class="cls-13" points="26.305 68.377 26.296 65.344 23.673 63.822 23.683 66.853 26.305 68.377 26.305 68.377"/>
                  <polygon class="cls-14" points="28.926 69.9 28.917 66.868 26.296 65.344 26.305 68.377 28.926 69.9 28.926 69.9"/>
                  <polygon class="cls-15" points="31.546 71.422 31.537 68.391 28.917 66.868 28.926 69.9 31.546 71.422 31.546 71.422"/>
                  <polygon class="cls-9" points="34.166 72.945 34.157 69.912 31.537 68.391 31.546 71.422 34.166 72.945 34.166 72.945"/>
                  <polygon class="cls-7" points="2.708 51.636 2.7 48.604 0.078 47.08 0.087 50.113 2.708 51.636 2.708 51.636"/>
                  <polygon class="cls-13" points="5.33 53.16 5.321 50.128 2.7 48.604 2.708 51.636 5.33 53.16 5.33 53.16"/>
                  <polygon class="cls-15" points="7.951 54.683 7.942 51.652 5.321 50.128 5.33 53.16 7.951 54.683 7.951 54.683"/>
                  <polygon class="cls-8" points="10.569 56.205 10.561 53.174 7.942 51.652 7.951 54.683 10.569 56.205 10.569 56.205"/>
                  <polygon class="cls-14" points="13.189 57.728 13.181 54.696 10.561 53.174 10.569 56.205 13.189 57.728 13.189 57.728"/>
                  <polygon class="cls-14" points="15.811 59.251 15.803 56.22 13.181 54.696 13.189 57.728 15.811 59.251 15.811 59.251"/>
                  <polygon class="cls-7" points="18.431 60.774 18.423 57.742 15.803 56.22 15.811 59.251 18.431 60.774 18.431 60.774"/>
                  <polygon class="cls-6" points="21.052 62.298 21.044 59.266 18.423 57.742 18.431 60.774 21.052 62.298 21.052 62.298"/>
                  <polygon class="cls-9" points="23.673 63.822 23.666 60.789 21.044 59.266 21.052 62.298 23.673 63.822 23.673 63.822"/>
                  <polygon class="cls-6" points="26.296 65.344 26.287 62.312 23.666 60.789 23.673 63.822 26.296 65.344 26.296 65.344"/>
                  <polygon class="cls-9" points="28.917 66.868 28.909 63.836 26.287 62.312 26.296 65.344 28.917 66.868 28.917 66.868"/>
                  <polygon class="cls-8" points="31.537 68.391 31.528 65.359 28.909 63.836 28.917 66.868 31.537 68.391 31.537 68.391"/>
                  <polygon class="cls-8" points="34.157 69.912 34.148 66.881 31.528 65.359 31.537 68.391 34.157 69.912 34.157 69.912"/>
                  <polygon class="cls-13" points="2.7 48.604 2.691 45.573 0.069 44.052 0.078 47.08 2.7 48.604 2.7 48.604"/>
                  <polygon class="cls-11" points="5.321 50.128 5.312 47.099 2.691 45.573 2.7 48.604 5.321 50.128 5.321 50.128"/>
                  <polygon class="cls-14" points="7.942 51.652 7.934 48.621 5.312 47.099 5.321 50.128 7.942 51.652 7.942 51.652"/>
                  <polygon class="cls-9" points="10.561 53.174 10.552 50.142 7.934 48.621 7.942 51.652 10.561 53.174 10.561 53.174"/>
                  <polygon class="cls-13" points="13.181 54.696 13.172 51.665 10.552 50.142 10.561 53.174 13.181 54.696 13.181 54.696"/>
                  <polygon class="cls-15" points="15.803 56.22 15.794 53.189 13.172 51.665 13.181 54.696 15.803 56.22 15.803 56.22"/>
                  <polygon class="cls-12" points="18.423 57.742 18.414 54.713 15.794 53.189 15.803 56.22 18.423 57.742 18.423 57.742"/>
                  <polygon class="cls-12" points="21.044 59.266 21.036 56.234 18.414 54.713 18.423 57.742 21.044 59.266 21.044 59.266"/>
                  <polygon class="cls-6" points="23.666 60.789 23.657 57.759 21.036 56.234 21.044 59.266 23.666 60.789 23.666 60.789"/>
                  <polygon class="cls-9" points="26.287 62.312 26.278 59.282 23.657 57.759 23.666 60.789 26.287 62.312 26.287 62.312"/>
                  <polygon class="cls-9" points="28.909 63.836 28.899 60.806 26.278 59.282 26.287 62.312 28.909 63.836 28.909 63.836"/>
                  <polygon class="cls-7" points="31.528 65.359 31.52 62.328 28.899 60.806 28.909 63.836 31.528 65.359 31.528 65.359"/>
                  <polygon class="cls-9" points="34.148 66.881 34.14 63.852 31.52 62.328 31.528 65.359 34.148 66.881 34.148 66.881"/>
                  <polygon class="cls-13" points="2.691 45.573 2.682 42.543 0.061 41.019 0.069 44.052 2.691 45.573 2.691 45.573"/>
                  <polygon class="cls-6" points="5.312 47.099 5.304 44.064 2.682 42.543 2.691 45.573 5.312 47.099 5.312 47.099"/>
                  <polygon class="cls-7" points="7.934 48.621 7.925 45.589 5.304 44.064 5.312 47.099 7.934 48.621 7.934 48.621"/>
                  <polygon class="cls-6" points="10.552 50.142 10.544 47.111 7.925 45.589 7.934 48.621 10.552 50.142 10.552 50.142"/>
                  <polygon class="cls-6" points="13.172 51.665 13.164 48.634 10.544 47.111 10.552 50.142 13.172 51.665 13.172 51.665"/>
                  <polygon class="cls-9" points="15.794 53.189 15.785 50.157 13.164 48.634 13.172 51.665 15.794 53.189 15.794 53.189"/>
                  <polygon class="cls-9" points="18.414 54.713 18.405 51.68 15.785 50.157 15.794 53.189 18.414 54.713 18.414 54.713"/>
                  <polygon class="cls-13" points="21.036 56.234 21.027 53.202 18.405 51.68 18.414 54.713 21.036 56.234 21.036 56.234"/>
                  <polygon class="cls-14" points="23.657 57.759 23.648 54.727 21.027 53.202 21.036 56.234 23.657 57.759 23.657 57.759"/>
                  <polygon class="cls-7" points="26.278 59.282 26.27 56.251 23.648 54.727 23.657 57.759 26.278 59.282 26.278 59.282"/>
                  <polygon class="cls-14" points="28.899 60.806 28.891 57.773 26.27 56.251 26.278 59.282 28.899 60.806 28.899 60.806"/>
                  <polygon class="cls-8" points="31.52 62.328 31.512 59.297 28.891 57.773 28.899 60.806 31.52 62.328 31.52 62.328"/>
                  <polygon class="cls-16" points="34.14 63.852 34.132 60.819 31.512 59.297 31.52 62.328 34.14 63.852 34.14 63.852"/>
                  <polygon class="cls-6" points="2.682 42.543 2.674 39.51 0.052 37.986 0.061 41.019 2.682 42.543 2.682 42.543"/>
                  <polygon class="cls-13" points="5.304 44.064 5.295 41.033 2.674 39.51 2.682 42.543 5.304 44.064 5.304 44.064"/>
                  <polygon class="cls-14" points="7.925 45.589 7.916 42.557 5.295 41.033 5.304 44.064 7.925 45.589 7.925 45.589"/>
                  <polygon class="cls-9" points="10.544 47.111 10.535 44.079 7.916 42.557 7.925 45.589 10.544 47.111 10.544 47.111"/>
                  <polygon class="cls-13" points="13.164 48.634 13.155 45.602 10.535 44.079 10.544 47.111 13.164 48.634 13.164 48.634"/>
                  <polygon class="cls-9" points="15.785 50.157 15.776 47.125 13.155 45.602 13.164 48.634 15.785 50.157 15.785 50.157"/>
                  <polygon class="cls-7" points="18.405 51.68 18.397 48.647 15.776 47.125 15.785 50.157 18.405 51.68 18.405 51.68"/>
                  <polygon class="cls-9" points="21.027 53.202 21.018 50.172 18.397 48.647 18.405 51.68 21.027 53.202 21.027 53.202"/>
                  <polygon class="cls-9" points="23.648 54.727 23.64 51.694 21.018 50.172 21.027 53.202 23.648 54.727 23.648 54.727"/>
                  <polygon class="cls-9" points="26.27 56.251 26.261 53.219 23.64 51.694 23.648 54.727 26.27 56.251 26.27 56.251"/>
                  <polygon class="cls-13" points="28.891 57.773 28.883 54.742 26.261 53.219 26.27 56.251 28.891 57.773 28.891 57.773"/>
                  <polygon class="cls-11" points="31.512 59.297 31.503 56.264 28.883 54.742 28.891 57.773 31.512 59.297 31.512 59.297"/>
                  <polygon class="cls-10" points="34.132 60.819 34.124 57.786 31.503 56.264 31.512 59.297 34.132 60.819 34.132 60.819"/>
                  <polygon class="cls-8" points="2.674 39.51 2.665 36.478 0.043 34.955 0.052 37.986 2.674 39.51 2.674 39.51"/>
                  <polygon class="cls-9" points="5.295 41.033 5.286 38.002 2.665 36.478 2.674 39.51 5.295 41.033 5.295 41.033"/>
                  <polygon class="cls-8" points="7.916 42.557 7.908 39.524 5.286 38.002 5.295 41.033 7.916 42.557 7.916 42.557"/>
                  <polygon class="cls-12" points="10.535 44.079 10.527 41.047 7.908 39.524 7.916 42.557 10.535 44.079 10.535 44.079"/>
                  <polygon class="cls-9" points="13.155 45.602 13.146 42.569 10.527 41.047 10.535 44.079 13.155 45.602 13.155 45.602"/>
                  <polygon class="cls-6" points="15.776 47.125 15.769 44.093 13.146 42.569 13.155 45.602 15.776 47.125 15.776 47.125"/>
                  <polygon class="cls-9" points="18.397 48.647 18.388 45.616 15.769 44.093 15.776 47.125 18.397 48.647 18.397 48.647"/>
                  <polygon class="cls-8" points="21.018 50.172 21.01 47.14 18.388 45.616 18.397 48.647 21.018 50.172 21.018 50.172"/>
                  <polygon class="cls-13" points="23.64 51.694 23.631 48.663 21.01 47.14 21.018 50.172 23.64 51.694 23.64 51.694"/>
                  <polygon class="cls-9" points="26.261 53.219 26.253 50.186 23.631 48.663 23.64 51.694 26.261 53.219 26.261 53.219"/>
                  <polygon class="cls-9" points="28.883 54.742 28.874 51.71 26.253 50.186 26.261 53.219 28.883 54.742 28.883 54.742"/>
                  <polygon class="cls-12" points="31.503 56.264 31.494 53.233 28.874 51.71 28.883 54.742 31.503 56.264 31.503 56.264"/>
                  <polygon class="cls-9" points="34.124 57.786 34.114 54.754 31.494 53.233 31.503 56.264 34.124 57.786 34.124 57.786"/>
                  <polygon class="cls-7" points="2.665 36.478 2.656 33.447 0.035 31.923 0.043 34.955 2.665 36.478 2.665 36.478"/>
                  <polygon class="cls-6" points="5.286 38.002 5.278 34.972 2.656 33.447 2.665 36.478 5.286 38.002 5.286 38.002"/>
                  <polygon class="cls-9" points="7.908 39.524 7.899 36.495 5.278 34.972 5.286 38.002 7.908 39.524 7.908 39.524"/>
                  <polygon class="cls-8" points="10.527 41.047 10.518 38.016 7.899 36.495 7.908 39.524 10.527 41.047 10.527 41.047"/>
                  <polygon class="cls-6" points="13.146 42.569 13.138 39.539 10.518 38.016 10.527 41.047 13.146 42.569 13.146 42.569"/>
                  <polygon class="cls-14" points="15.769 44.093 15.759 41.063 13.138 39.539 13.146 42.569 15.769 44.093 15.769 44.093"/>
                  <polygon class="cls-15" points="18.388 45.616 18.379 42.585 15.759 41.063 15.769 44.093 18.388 45.616 18.388 45.616"/>
                  <polygon class="cls-7" points="21.01 47.14 21 44.109 18.379 42.585 18.388 45.616 21.01 47.14 21.01 47.14"/>
                  <polygon class="cls-9" points="23.631 48.663 23.622 45.633 21 44.109 21.01 47.14 23.631 48.663 23.631 48.663"/>
                  <polygon class="cls-9" points="26.253 50.186 26.244 47.155 23.622 45.633 23.631 48.663 26.253 50.186 26.253 50.186"/>
                  <polygon class="cls-6" points="28.874 51.71 28.865 48.679 26.244 47.155 26.253 50.186 28.874 51.71 28.874 51.71"/>
                  <polygon class="cls-8" points="31.494 53.233 31.485 50.202 28.865 48.679 28.874 51.71 31.494 53.233 31.494 53.233"/>
                  <polygon class="cls-8" points="34.114 54.754 34.105 51.724 31.485 50.202 31.494 53.233 34.114 54.754 34.114 54.754"/>
                  <polygon class="cls-13" points="2.656 33.447 2.647 30.418 0.026 28.894 0.035 31.923 2.656 33.447 2.656 33.447"/>
                  <polygon class="cls-11" points="5.278 34.972 5.269 31.94 2.647 30.418 2.656 33.447 5.278 34.972 5.278 34.972"/>
                  <polygon class="cls-9" points="7.899 36.495 7.891 33.466 5.269 31.94 5.278 34.972 7.899 36.495 7.899 36.495"/>
                  <polygon class="cls-13" points="10.518 38.016 10.509 34.985 7.891 33.466 7.899 36.495 10.518 38.016 10.518 38.016"/>
                  <polygon class="cls-11" points="13.138 39.539 13.129 36.509 10.509 34.985 10.518 38.016 13.138 39.539 13.138 39.539"/>
                  <polygon class="cls-14" points="15.759 41.063 15.75 38.032 13.129 36.509 13.138 39.539 15.759 41.063 15.759 41.063"/>
                  <polygon class="cls-8" points="18.379 42.585 18.371 39.555 15.75 38.032 15.759 41.063 18.379 42.585 18.379 42.585"/>
                  <polygon class="cls-12" points="21 44.109 20.992 41.078 18.371 39.555 18.379 42.585 21 44.109 21 44.109"/>
                  <polygon class="cls-13" points="23.622 45.633 23.614 42.602 20.992 41.078 21 44.109 23.622 45.633 23.622 45.633"/>
                  <polygon class="cls-14" points="26.244 47.155 26.235 44.126 23.614 42.602 23.622 45.633 26.244 47.155 26.244 47.155"/>
                  <polygon class="cls-8" points="28.865 48.679 28.857 45.648 26.235 44.126 26.244 47.155 28.865 48.679 28.865 48.679"/>
                  <polygon class="cls-16" points="31.485 50.202 31.477 47.172 28.857 45.648 28.865 48.679 31.485 50.202 31.485 50.202"/>
                  <polygon class="cls-6" points="34.105 51.724 34.097 48.695 31.477 47.172 31.485 50.202 34.105 51.724 34.105 51.724"/>
                  <polygon class="cls-7" points="2.647 30.418 2.639 27.389 0.018 25.864 0.026 28.894 2.647 30.418 2.647 30.418"/>
                  <polygon class="cls-14" points="5.269 31.94 5.261 28.911 2.639 27.389 2.647 30.418 5.269 31.94 5.269 31.94"/>
                  <polygon class="cls-7" points="7.891 33.466 7.882 30.434 5.261 28.911 5.269 31.94 7.891 33.466 7.891 33.466"/>
                  <polygon class="cls-11" points="10.509 34.985 10.501 31.957 7.882 30.434 7.891 33.466 10.509 34.985 10.509 34.985"/>
                  <polygon class="cls-14" points="13.129 36.509 13.121 33.478 10.501 31.957 10.509 34.985 13.129 36.509 13.129 36.509"/>
                  <polygon class="cls-7" points="15.75 38.032 15.743 35.002 13.121 33.478 13.129 36.509 15.75 38.032 15.75 38.032"/>
                  <polygon class="cls-9" points="18.371 39.555 18.362 36.525 15.743 35.002 15.75 38.032 18.371 39.555 18.371 39.555"/>
                  <polygon class="cls-6" points="20.992 41.078 20.984 38.047 18.362 36.525 18.371 39.555 20.992 41.078 20.992 41.078"/>
                  <polygon class="cls-13" points="23.614 42.602 23.605 39.571 20.984 38.047 20.992 41.078 23.614 42.602 23.614 42.602"/>
                  <polygon class="cls-14" points="26.235 44.126 26.227 41.095 23.605 39.571 23.614 42.602 26.235 44.126 26.235 44.126"/>
                  <polygon class="cls-15" points="28.857 45.648 28.848 42.619 26.227 41.095 26.235 44.126 28.857 45.648 28.857 45.648"/>
                  <polygon class="cls-8" points="31.477 47.172 31.468 44.141 28.848 42.619 28.857 45.648 31.477 47.172 31.477 47.172"/>
                  <polygon class="cls-9" points="34.097 48.695 34.088 45.664 31.468 44.141 31.477 47.172 34.097 48.695 34.097 48.695"/>
                  <polygon class="cls-6" points="2.639 27.389 2.631 24.356 0.009 22.832 0.018 25.864 2.639 27.389 2.639 27.389"/>
                  <polygon class="cls-7" points="5.261 28.911 5.252 25.879 2.631 24.356 2.639 27.389 5.261 28.911 5.261 28.911"/>
                  <polygon class="cls-12" points="7.882 30.434 7.873 27.402 5.252 25.879 5.261 28.911 7.882 30.434 7.882 30.434"/>
                  <polygon class="cls-12" points="10.501 31.957 10.492 28.924 7.873 27.402 7.882 30.434 10.501 31.957 10.501 31.957"/>
                  <polygon class="cls-8" points="13.121 33.478 13.113 30.447 10.492 28.924 10.501 31.957 13.121 33.478 13.121 33.478"/>
                  <polygon class="cls-10" points="15.743 35.002 15.734 31.969 13.113 30.447 13.121 33.478 15.743 35.002 15.743 35.002"/>
                  <polygon class="cls-8" points="18.362 36.525 18.354 33.492 15.734 31.969 15.743 35.002 18.362 36.525 18.362 36.525"/>
                  <polygon class="cls-6" points="20.984 38.047 20.976 35.017 18.354 33.492 18.362 36.525 20.984 38.047 20.984 38.047"/>
                  <polygon class="cls-6" points="23.605 39.571 23.597 36.539 20.976 35.017 20.984 38.047 23.605 39.571 23.605 39.571"/>
                  <polygon class="cls-11" points="26.227 41.095 26.218 38.063 23.597 36.539 23.605 39.571 26.227 41.095 26.227 41.095"/>
                  <polygon class="cls-14" points="28.848 42.619 28.839 39.586 26.218 38.063 26.227 41.095 28.848 42.619 28.848 42.619"/>
                  <polygon class="cls-13" points="31.468 44.141 31.46 41.108 28.839 39.586 28.848 42.619 31.468 44.141 31.468 44.141"/>
                  <polygon class="cls-8" points="34.088 45.664 34.08 42.632 31.46 41.108 31.468 44.141 34.088 45.664 34.088 45.664"/>
                  <polygon class="cls-7" points="2.631 24.356 2.622 21.325 0 19.802 0.009 22.832 2.631 24.356 2.631 24.356"/>
                  <polygon class="cls-9" points="5.252 25.879 5.244 22.849 2.622 21.325 2.631 24.356 5.252 25.879 5.252 25.879"/>
                  <polygon class="cls-7" points="7.873 27.402 7.865 24.371 5.244 22.849 5.252 25.879 7.873 27.402 7.873 27.402"/>
                  <polygon class="cls-8" points="10.492 28.924 10.484 25.894 7.865 24.371 7.873 27.402 10.492 28.924 10.492 28.924"/>
                  <polygon class="cls-9" points="13.113 30.447 13.103 27.417 10.484 25.894 10.492 28.924 13.113 30.447 13.113 30.447"/>
                  <polygon class="cls-9" points="15.734 31.969 15.726 28.938 13.103 27.417 13.113 30.447 15.734 31.969 15.734 31.969"/>
                  <polygon class="cls-9" points="18.354 33.492 18.345 30.462 15.726 28.938 15.734 31.969 18.354 33.492 18.354 33.492"/>
                  <polygon class="cls-8" points="20.976 35.017 20.966 31.985 18.345 30.462 18.354 33.492 20.976 35.017 20.976 35.017"/>
                  <polygon class="cls-6" points="23.597 36.539 23.589 33.51 20.966 31.985 20.976 35.017 23.597 36.539 23.597 36.539"/>
                  <polygon class="cls-9" points="26.218 38.063 26.21 35.031 23.589 33.51 23.597 36.539 26.218 38.063 26.218 38.063"/>
                  <polygon class="cls-7" points="28.839 39.586 28.831 36.556 26.21 35.031 26.218 38.063 28.839 39.586 28.839 39.586"/>
                  <polygon class="cls-8" points="31.46 41.108 31.451 38.079 28.831 36.556 28.839 39.586 31.46 41.108 31.46 41.108"/>
                  <polygon class="cls-9" points="34.08 42.632 34.071 39.602 31.451 38.079 31.46 41.108 34.08 42.632 34.08 42.632"/>
                </g>
              </g>
            </g>
            <g class="cls-4">
              <polygon class="cls-3" points="34.072 39.601 0 19.8 34.294 0 68.365 19.801 34.072 39.601"/>
              <g class="cls-18">
                <g>
                  <polygon class="cls-6" points="65.743 18.278 63.105 19.801 65.728 21.323 68.364 19.801 65.743 18.278 65.743 18.278"/>
                  <polygon class="cls-6" points="63.121 16.754 60.484 18.277 63.105 19.801 65.743 18.278 63.121 16.754 63.121 16.754"/>
                  <polygon class="cls-7" points="60.5 15.23 57.863 16.754 60.484 18.277 63.121 16.754 60.5 15.23 60.5 15.23"/>
                  <polygon class="cls-8" points="57.882 13.709 55.244 15.231 57.863 16.754 60.5 15.23 57.882 13.709 57.882 13.709"/>
                  <polygon class="cls-6" points="55.261 12.186 52.624 13.709 55.244 15.231 57.882 13.709 55.261 12.186 55.261 12.186"/>
                  <polygon class="cls-9" points="52.64 10.662 50.003 12.186 52.624 13.709 55.261 12.186 52.64 10.662 52.64 10.662"/>
                  <polygon class="cls-9" points="50.02 9.14 47.383 10.662 50.003 12.186 52.64 10.662 50.02 9.14 50.02 9.14"/>
                  <polygon class="cls-8" points="47.398 7.616 44.761 9.14 47.383 10.662 50.02 9.14 47.398 7.616 47.398 7.616"/>
                  <polygon class="cls-9" points="44.777 6.092 42.14 7.615 44.761 9.14 47.398 7.616 44.777 6.092 44.777 6.092"/>
                  <polygon class="cls-9" points="42.156 4.569 39.519 6.092 42.14 7.615 44.777 6.092 42.156 4.569 42.156 4.569"/>
                  <polygon class="cls-9" points="39.534 3.047 36.896 4.568 39.519 6.092 42.156 4.569 39.534 3.047 39.534 3.047"/>
                  <polygon class="cls-8" points="36.914 1.524 34.277 3.047 36.896 4.568 39.534 3.047 36.914 1.524 36.914 1.524"/>
                  <polygon class="cls-10" points="34.294 0.001 31.657 1.524 34.277 3.047 36.914 1.524 34.294 0.001 34.294 0.001"/>
                  <polygon class="cls-8" points="63.105 19.801 60.469 21.323 63.09 22.846 65.728 21.323 63.105 19.801 63.105 19.801"/>
                  <polygon class="cls-8" points="60.484 18.277 57.847 19.8 60.469 21.323 63.105 19.801 60.484 18.277 60.484 18.277"/>
                  <polygon class="cls-8" points="57.863 16.754 55.226 18.275 57.847 19.8 60.484 18.277 57.863 16.754 57.863 16.754"/>
                  <polygon class="cls-9" points="55.244 15.231 52.607 16.754 55.226 18.275 57.863 16.754 55.244 15.231 55.244 15.231"/>
                  <polygon class="cls-6" points="52.624 13.709 49.987 15.231 52.607 16.754 55.244 15.231 52.624 13.709 52.624 13.709"/>
                  <polygon class="cls-13" points="50.003 12.186 47.366 13.708 49.987 15.231 52.624 13.709 50.003 12.186 50.003 12.186"/>
                  <polygon class="cls-7" points="47.383 10.662 44.746 12.186 47.366 13.708 50.003 12.186 47.383 10.662 47.383 10.662"/>
                  <polygon class="cls-8" points="44.761 9.14 42.124 10.662 44.746 12.186 47.383 10.662 44.761 9.14 44.761 9.14"/>
                  <polygon class="cls-9" points="42.14 7.615 39.503 9.138 42.124 10.662 44.761 9.14 42.14 7.615 42.14 7.615"/>
                  <polygon class="cls-6" points="39.519 6.092 36.881 7.615 39.503 9.138 42.14 7.615 39.519 6.092 39.519 6.092"/>
                  <polygon class="cls-7" points="36.896 4.568 34.259 6.091 36.881 7.615 39.519 6.092 36.896 4.568 36.896 4.568"/>
                  <polygon class="cls-12" points="34.277 3.047 31.639 4.568 34.259 6.091 36.896 4.568 34.277 3.047 34.277 3.047"/>
                  <polygon class="cls-8" points="31.657 1.524 29.02 3.047 31.639 4.568 34.277 3.047 31.657 1.524 31.657 1.524"/>
                  <polygon class="cls-6" points="60.469 21.323 57.831 22.846 60.452 24.37 63.09 22.846 60.469 21.323 60.469 21.323"/>
                  <polygon class="cls-13" points="57.847 19.8 55.208 21.323 57.831 22.846 60.469 21.323 57.847 19.8 57.847 19.8"/>
                  <polygon class="cls-15" points="55.226 18.275 52.587 19.8 55.208 21.323 57.847 19.8 55.226 18.275 55.226 18.275"/>
                  <polygon class="cls-9" points="52.607 16.754 49.968 18.278 52.587 19.8 55.226 18.275 52.607 16.754 52.607 16.754"/>
                  <polygon class="cls-9" points="49.987 15.231 47.348 16.755 49.968 18.278 52.607 16.754 49.987 15.231 49.987 15.231"/>
                  <polygon class="cls-9" points="47.366 13.708 44.727 15.231 47.348 16.755 49.987 15.231 47.366 13.708 47.366 13.708"/>
                  <polygon class="cls-9" points="44.746 12.186 42.106 13.709 44.727 15.231 47.366 13.708 44.746 12.186 44.746 12.186"/>
                  <polygon class="cls-8" points="42.124 10.662 39.485 12.186 42.106 13.709 44.746 12.186 42.124 10.662 42.124 10.662"/>
                  <polygon class="cls-14" points="39.503 9.138 36.863 10.662 39.485 12.186 42.124 10.662 39.503 9.138 39.503 9.138"/>
                  <polygon class="cls-9" points="36.881 7.615 34.242 9.138 36.863 10.662 39.503 9.138 36.881 7.615 36.881 7.615"/>
                  <polygon class="cls-8" points="34.259 6.091 31.621 7.615 34.242 9.138 36.881 7.615 34.259 6.091 34.259 6.091"/>
                  <polygon class="cls-16" points="31.639 4.568 29 6.092 31.621 7.615 34.259 6.091 31.639 4.568 31.639 4.568"/>
                  <polygon class="cls-6" points="29.02 3.047 26.381 4.569 29 6.092 31.639 4.568 29.02 3.047 29.02 3.047"/>
                  <polygon class="cls-13" points="57.831 22.846 55.191 24.37 57.812 25.893 60.452 24.37 57.831 22.846 57.831 22.846"/>
                  <polygon class="cls-11" points="55.208 21.323 52.57 22.846 55.191 24.37 57.831 22.846 55.208 21.323 55.208 21.323"/>
                  <polygon class="cls-14" points="52.587 19.8 49.949 21.323 52.57 22.846 55.208 21.323 52.587 19.8 52.587 19.8"/>
                  <polygon class="cls-8" points="49.968 18.278 47.33 19.801 49.949 21.323 52.587 19.8 49.968 18.278 49.968 18.278"/>
                  <polygon class="cls-6" points="47.348 16.755 44.709 18.278 47.33 19.801 49.968 18.278 47.348 16.755 47.348 16.755"/>
                  <polygon class="cls-8" points="44.727 15.231 42.088 16.755 44.709 18.278 47.348 16.755 44.727 15.231 44.727 15.231"/>
                  <polygon class="cls-9" points="42.106 13.709 39.468 15.231 42.088 16.755 44.727 15.231 42.106 13.709 42.106 13.709"/>
                  <polygon class="cls-9" points="39.485 12.186 36.847 13.709 39.468 15.231 42.106 13.709 39.485 12.186 39.485 12.186"/>
                  <polygon class="cls-13" points="36.863 10.662 34.225 12.186 36.847 13.709 39.485 12.186 36.863 10.662 36.863 10.662"/>
                  <polygon class="cls-14" points="34.242 9.138 31.603 10.662 34.225 12.186 36.863 10.662 34.242 9.138 34.242 9.138"/>
                  <polygon class="cls-15" points="31.621 7.615 28.982 9.138 31.603 10.662 34.242 9.138 31.621 7.615 31.621 7.615"/>
                  <polygon class="cls-8" points="29 6.092 26.362 7.615 28.982 9.138 31.621 7.615 29 6.092 29 6.092"/>
                  <polygon class="cls-8" points="26.381 4.569 23.743 6.092 26.362 7.615 29 6.092 26.381 4.569 26.381 4.569"/>
                  <polygon class="cls-6" points="55.191 24.37 52.554 25.892 55.176 27.416 57.812 25.893 55.191 24.37 55.191 24.37"/>
                  <polygon class="cls-14" points="52.57 22.846 49.933 24.368 52.554 25.892 55.191 24.37 52.57 22.846 52.57 22.846"/>
                  <polygon class="cls-9" points="49.949 21.323 47.311 22.845 49.933 24.368 52.57 22.846 49.949 21.323 49.949 21.323"/>
                  <polygon class="cls-6" points="47.33 19.801 44.692 21.323 47.311 22.845 49.949 21.323 47.33 19.801 47.33 19.801"/>
                  <polygon class="cls-8" points="44.709 18.278 42.073 19.801 44.692 21.323 47.33 19.801 44.709 18.278 44.709 18.278"/>
                  <polygon class="cls-9" points="42.088 16.755 39.451 18.278 42.073 19.801 44.709 18.278 42.088 16.755 42.088 16.755"/>
                  <polygon class="cls-8" points="39.468 15.231 36.832 16.755 39.451 18.278 42.088 16.755 39.468 15.231 39.468 15.231"/>
                  <polygon class="cls-9" points="36.847 13.709 34.21 15.231 36.832 16.755 39.468 15.231 36.847 13.709 36.847 13.709"/>
                  <polygon class="cls-6" points="34.225 12.186 31.588 13.708 34.21 15.231 36.847 13.709 34.225 12.186 34.225 12.186"/>
                  <polygon class="cls-11" points="31.603 10.662 28.966 12.185 31.588 13.708 34.225 12.186 31.603 10.662 31.603 10.662"/>
                  <polygon class="cls-14" points="28.982 9.138 26.345 10.661 28.966 12.185 31.603 10.662 28.982 9.138 28.982 9.138"/>
                  <polygon class="cls-7" points="26.362 7.615 23.725 9.138 26.345 10.661 28.982 9.138 26.362 7.615 26.362 7.615"/>
                  <polygon class="cls-9" points="23.743 6.092 21.105 7.615 23.725 9.138 26.362 7.615 23.743 6.092 23.743 6.092"/>
                  <polygon class="cls-8" points="52.554 25.892 49.915 27.416 52.537 28.937 55.176 27.416 52.554 25.892 52.554 25.892"/>
                  <polygon class="cls-9" points="49.933 24.368 47.294 25.892 49.915 27.416 52.554 25.892 49.933 24.368 49.933 24.368"/>
                  <polygon class="cls-7" points="47.311 22.845 44.672 24.368 47.294 25.892 49.933 24.368 47.311 22.845 47.311 22.845"/>
                  <polygon class="cls-9" points="44.692 21.323 42.054 22.848 44.672 24.368 47.311 22.845 44.692 21.323 44.692 21.323"/>
                  <polygon class="cls-8" points="42.073 19.801 39.434 21.324 42.054 22.848 44.692 21.323 42.073 19.801 42.073 19.801"/>
                  <polygon class="cls-13" points="39.451 18.278 36.812 19.801 39.434 21.324 42.073 19.801 39.451 18.278 39.451 18.278"/>
                  <polygon class="cls-14" points="36.832 16.755 34.192 18.278 36.812 19.801 39.451 18.278 36.832 16.755 36.832 16.755"/>
                  <polygon class="cls-8" points="34.21 15.231 31.571 16.755 34.192 18.278 36.832 16.755 34.21 15.231 34.21 15.231"/>
                  <polygon class="cls-9" points="31.588 13.708 28.949 15.231 31.571 16.755 34.21 15.231 31.588 13.708 31.588 13.708"/>
                  <polygon class="cls-8" points="28.966 12.185 26.328 13.708 28.949 15.231 31.588 13.708 28.966 12.185 28.966 12.185"/>
                  <polygon class="cls-9" points="26.345 10.661 23.707 12.185 26.328 13.708 28.966 12.185 26.345 10.661 26.345 10.661"/>
                  <polygon class="cls-9" points="23.725 9.138 21.086 10.662 23.707 12.185 26.345 10.661 23.725 9.138 23.725 9.138"/>
                  <polygon class="cls-16" points="21.105 7.615 18.466 9.14 21.086 10.662 23.725 9.138 21.105 7.615 21.105 7.615"/>
                  <polygon class="cls-9" points="49.915 27.416 47.276 28.937 49.898 30.462 52.537 28.937 49.915 27.416 49.915 27.416"/>
                  <polygon class="cls-8" points="47.294 25.892 44.655 27.416 47.276 28.937 49.915 27.416 47.294 25.892 47.294 25.892"/>
                  <polygon class="cls-9" points="44.672 24.368 42.034 25.892 44.655 27.416 47.294 25.892 44.672 24.368 44.672 24.368"/>
                  <polygon class="cls-13" points="42.054 22.848 39.415 24.37 42.034 25.892 44.672 24.368 42.054 22.848 42.054 22.848"/>
                  <polygon class="cls-11" points="39.434 21.324 36.795 22.848 39.415 24.37 42.054 22.848 39.434 21.324 39.434 21.324"/>
                  <polygon class="cls-14" points="36.812 19.801 34.173 21.324 36.795 22.848 39.434 21.324 36.812 19.801 36.812 19.801"/>
                  <polygon class="cls-7" points="34.192 18.278 31.554 19.802 34.173 21.324 36.812 19.801 34.192 18.278 34.192 18.278"/>
                  <polygon class="cls-9" points="31.571 16.755 28.933 18.278 31.554 19.802 34.192 18.278 31.571 16.755 31.571 16.755"/>
                  <polygon class="cls-8" points="28.949 15.231 26.311 16.755 28.933 18.278 31.571 16.755 28.949 15.231 28.949 15.231"/>
                  <polygon class="cls-6" points="26.328 13.708 23.689 15.231 26.311 16.755 28.949 15.231 26.328 13.708 26.328 13.708"/>
                  <polygon class="cls-7" points="23.707 12.185 21.068 13.708 23.689 15.231 26.328 13.708 23.707 12.185 23.707 12.185"/>
                  <polygon class="cls-9" points="21.086 10.662 18.448 12.186 21.068 13.708 23.707 12.185 21.086 10.662 21.086 10.662"/>
                  <polygon class="cls-10" points="18.466 9.14 15.828 10.662 18.448 12.186 21.086 10.662 18.466 9.14 18.466 9.14"/>
                  <polygon class="cls-8" points="47.276 28.937 44.639 30.462 47.26 31.985 49.898 30.462 47.276 28.937 47.276 28.937"/>
                  <polygon class="cls-9" points="44.655 27.416 42.017 28.937 44.639 30.462 47.276 28.937 44.655 27.416 44.655 27.416"/>
                  <polygon class="cls-8" points="42.034 25.892 39.395 27.416 42.017 28.937 44.655 27.416 42.034 25.892 42.034 25.892"/>
                  <polygon class="cls-9" points="39.415 24.37 36.777 25.894 39.395 27.416 42.034 25.892 39.415 24.37 39.415 24.37"/>
                  <polygon class="cls-6" points="36.795 22.848 34.157 24.371 36.777 25.894 39.415 24.37 36.795 22.848 36.795 22.848"/>
                  <polygon class="cls-6" points="34.173 21.324 31.536 22.848 34.157 24.371 36.795 22.848 34.173 21.324 34.173 21.324"/>
                  <polygon class="cls-9" points="31.554 19.802 28.915 21.325 31.536 22.848 34.173 21.324 31.554 19.802 31.554 19.802"/>
                  <polygon class="cls-8" points="28.933 18.278 26.294 19.802 28.915 21.325 31.554 19.802 28.933 18.278 28.933 18.278"/>
                  <polygon class="cls-9" points="26.311 16.755 23.672 18.278 26.294 19.802 28.933 18.278 26.311 16.755 26.311 16.755"/>
                  <polygon class="cls-6" points="23.689 15.231 21.051 16.755 23.672 18.278 26.311 16.755 23.689 15.231 23.689 15.231"/>
                  <polygon class="cls-9" points="21.068 13.708 18.429 15.23 21.051 16.755 23.689 15.231 21.068 13.708 21.068 13.708"/>
                  <polygon class="cls-9" points="18.448 12.186 15.809 13.709 18.429 15.23 21.068 13.708 18.448 12.186 18.448 12.186"/>
                  <polygon class="cls-9" points="15.828 10.662 13.189 12.186 15.809 13.709 18.448 12.186 15.828 10.662 15.828 10.662"/>
                  <polygon class="cls-6" points="44.639 30.462 42.001 31.985 44.623 33.508 47.26 31.985 44.639 30.462 44.639 30.462"/>
                  <polygon class="cls-6" points="42.017 28.937 39.38 30.461 42.001 31.985 44.639 30.462 42.017 28.937 42.017 28.937"/>
                  <polygon class="cls-9" points="39.395 27.416 36.758 28.937 39.38 30.461 42.017 28.937 39.395 27.416 39.395 27.416"/>
                  <polygon class="cls-8" points="36.777 25.894 34.14 27.417 36.758 28.937 39.395 27.416 36.777 25.894 36.777 25.894"/>
                  <polygon class="cls-7" points="34.157 24.371 31.52 25.894 34.14 27.417 36.777 25.894 34.157 24.371 34.157 24.371"/>
                  <polygon class="cls-9" points="31.536 22.848 28.898 24.37 31.52 25.894 34.157 24.371 31.536 22.848 31.536 22.848"/>
                  <polygon class="cls-9" points="28.915 21.325 26.278 22.848 28.898 24.37 31.536 22.848 28.915 21.325 28.915 21.325"/>
                  <polygon class="cls-7" points="26.294 19.802 23.656 21.324 26.278 22.848 28.915 21.325 26.294 19.802 26.294 19.802"/>
                  <polygon class="cls-6" points="23.672 18.278 21.035 19.801 23.656 21.324 26.294 19.802 23.672 18.278 23.672 18.278"/>
                  <polygon class="cls-14" points="21.051 16.755 18.414 18.278 21.035 19.801 23.672 18.278 21.051 16.755 21.051 16.755"/>
                  <polygon class="cls-14" points="18.429 15.23 15.791 16.754 18.414 18.278 21.051 16.755 18.429 15.23 18.429 15.23"/>
                  <polygon class="cls-8" points="15.809 13.709 13.171 15.23 15.791 16.754 18.429 15.23 15.809 13.709 15.809 13.709"/>
                  <polygon class="cls-8" points="13.189 12.186 10.552 13.709 13.171 15.23 15.809 13.709 13.189 12.186 13.189 12.186"/>
                  <polygon class="cls-13" points="42.001 31.985 39.363 33.508 41.985 35.031 44.623 33.508 42.001 31.985 42.001 31.985"/>
                  <polygon class="cls-14" points="39.38 30.461 36.742 31.984 39.363 33.508 42.001 31.985 39.38 30.461 39.38 30.461"/>
                  <polygon class="cls-9" points="36.758 28.937 34.121 30.46 36.742 31.984 39.38 30.461 36.758 28.937 36.758 28.937"/>
                  <polygon class="cls-6" points="34.14 27.417 31.502 28.937 34.121 30.46 36.758 28.937 34.14 27.417 34.14 27.417"/>
                  <polygon class="cls-9" points="31.52 25.894 28.882 27.417 31.502 28.937 34.14 27.417 31.52 25.894 31.52 25.894"/>
                  <polygon class="cls-9" points="28.898 24.37 26.261 25.893 28.882 27.417 31.52 25.894 28.898 24.37 28.898 24.37"/>
                  <polygon class="cls-7" points="26.278 22.848 23.641 24.37 26.261 25.893 28.898 24.37 26.278 22.848 26.278 22.848"/>
                  <polygon class="cls-12" points="23.656 21.324 21.019 22.848 23.641 24.37 26.278 22.848 23.656 21.324 23.656 21.324"/>
                  <polygon class="cls-13" points="21.035 19.801 18.397 21.323 21.019 22.848 23.656 21.324 21.035 19.801 21.035 19.801"/>
                  <polygon class="cls-11" points="18.414 18.278 15.776 19.801 18.397 21.323 21.035 19.801 18.414 18.278 18.414 18.278"/>
                  <polygon class="cls-14" points="15.791 16.754 13.154 18.277 15.776 19.801 18.414 18.278 15.791 16.754 15.791 16.754"/>
                  <polygon class="cls-15" points="13.171 15.23 10.535 16.754 13.154 18.277 15.791 16.754 13.171 15.23 13.171 15.23"/>
                  <polygon class="cls-6" points="10.552 13.709 7.915 15.23 10.535 16.754 13.171 15.23 10.552 13.709 10.552 13.709"/>
                  <polygon class="cls-7" points="39.363 33.508 36.726 35.029 39.348 36.554 41.985 35.031 39.363 33.508 39.363 33.508"/>
                  <polygon class="cls-9" points="36.742 31.984 34.105 33.507 36.726 35.029 39.363 33.508 36.742 31.984 36.742 31.984"/>
                  <polygon class="cls-13" points="34.121 30.46 31.484 31.983 34.105 33.507 36.742 31.984 34.121 30.46 34.121 30.46"/>
                  <polygon class="cls-11" points="31.502 28.937 28.864 30.461 31.484 31.983 34.121 30.46 31.502 28.937 31.502 28.937"/>
                  <polygon class="cls-6" points="28.882 27.417 26.245 28.937 28.864 30.461 31.502 28.937 28.882 27.417 28.882 27.417"/>
                  <polygon class="cls-7" points="26.261 25.893 23.623 27.416 26.245 28.937 28.882 27.417 26.261 25.893 26.261 25.893"/>
                  <polygon class="cls-9" points="23.641 24.37 21.003 25.893 23.623 27.416 26.261 25.893 23.641 24.37 23.641 24.37"/>
                  <polygon class="cls-6" points="21.019 22.848 18.382 24.368 21.003 25.893 23.641 24.37 21.019 22.848 21.019 22.848"/>
                  <polygon class="cls-9" points="18.397 21.323 15.761 22.846 18.382 24.368 21.019 22.848 18.397 21.323 18.397 21.323"/>
                  <polygon class="cls-13" points="15.776 19.801 13.139 21.321 15.761 22.846 18.397 21.323 15.776 19.801 15.776 19.801"/>
                  <polygon class="cls-11" points="13.154 18.277 10.518 19.8 13.139 21.321 15.776 19.801 13.154 18.277 13.154 18.277"/>
                  <polygon class="cls-8" points="10.535 16.754 7.898 18.277 10.518 19.8 13.154 18.277 10.535 16.754 10.535 16.754"/>
                  <polygon class="cls-9" points="7.915 15.23 5.277 16.754 7.898 18.277 10.535 16.754 7.915 15.23 7.915 15.23"/>
                  <polygon class="cls-6" points="36.726 35.029 34.088 36.554 36.709 38.077 39.348 36.554 36.726 35.029 36.726 35.029"/>
                  <polygon class="cls-7" points="34.105 33.507 31.466 35.029 34.088 36.554 36.726 35.029 34.105 33.507 34.105 33.507"/>
                  <polygon class="cls-13" points="31.484 31.983 28.845 33.507 31.466 35.029 34.105 33.507 31.484 31.983 31.484 31.983"/>
                  <polygon class="cls-14" points="28.864 30.461 26.227 31.985 28.845 33.507 31.484 31.983 28.864 30.461 28.864 30.461"/>
                  <polygon class="cls-15" points="26.245 28.937 23.606 30.462 26.227 31.985 28.864 30.461 26.245 28.937 26.245 28.937"/>
                  <polygon class="cls-10" points="23.623 27.416 20.985 28.937 23.606 30.462 26.245 28.937 23.623 27.416 23.623 27.416"/>
                  <polygon class="cls-8" points="21.003 25.893 18.365 27.417 20.985 28.937 23.623 27.416 21.003 25.893 21.003 25.893"/>
                  <polygon class="cls-6" points="18.382 24.368 15.744 25.893 18.365 27.417 21.003 25.893 18.382 24.368 18.382 24.368"/>
                  <polygon class="cls-6" points="15.761 22.846 13.122 24.368 15.744 25.893 18.382 24.368 15.761 22.846 15.761 22.846"/>
                  <polygon class="cls-6" points="13.139 21.321 10.5 22.846 13.122 24.368 15.761 22.846 13.139 21.321 13.139 21.321"/>
                  <polygon class="cls-9" points="10.518 19.8 7.879 21.321 10.5 22.846 13.139 21.321 10.518 19.8 10.518 19.8"/>
                  <polygon class="cls-12" points="7.898 18.277 5.259 19.8 7.879 21.321 10.518 19.8 7.898 18.277 7.898 18.277"/>
                  <polygon class="cls-8" points="5.277 16.754 2.639 18.278 5.259 19.8 7.898 18.277 5.277 16.754 5.277 16.754"/>
                  <polygon class="cls-7" points="34.088 36.554 31.451 38.077 34.072 39.6 36.709 38.077 34.088 36.554 34.088 36.554"/>
                  <polygon class="cls-9" points="31.466 35.029 28.829 36.553 31.451 38.077 34.088 36.554 31.466 35.029 31.466 35.029"/>
                  <polygon class="cls-7" points="28.845 33.507 26.208 35.029 28.829 36.553 31.466 35.029 28.845 33.507 28.845 33.507"/>
                  <polygon class="cls-8" points="26.227 31.985 23.59 33.507 26.208 35.029 28.845 33.507 26.227 31.985 26.227 31.985"/>
                  <polygon class="cls-9" points="23.606 30.462 20.97 31.985 23.59 33.507 26.227 31.985 23.606 30.462 23.606 30.462"/>
                  <polygon class="cls-9" points="20.985 28.937 18.348 30.461 20.97 31.985 23.606 30.462 20.985 28.937 20.985 28.937"/>
                  <polygon class="cls-9" points="18.365 27.417 15.728 28.937 18.348 30.461 20.985 28.937 18.365 27.417 18.365 27.417"/>
                  <polygon class="cls-8" points="15.744 25.893 13.106 27.416 15.728 28.937 18.365 27.417 15.744 25.893 15.744 25.893"/>
                  <polygon class="cls-6" points="13.122 24.368 10.485 25.892 13.106 27.416 15.744 25.893 13.122 24.368 13.122 24.368"/>
                  <polygon class="cls-9" points="10.5 22.846 7.863 24.368 10.485 25.892 13.122 24.368 10.5 22.846 10.5 22.846"/>
                  <polygon class="cls-7" points="7.879 21.321 5.242 22.845 7.863 24.368 10.5 22.846 7.879 21.321 7.879 21.321"/>
                  <polygon class="cls-8" points="5.259 19.8 2.621 21.321 5.242 22.845 7.879 21.321 5.259 19.8 5.259 19.8"/>
                  <polygon class="cls-9" points="2.639 18.278 0.001 19.8 2.621 21.321 5.259 19.8 2.639 18.278 2.639 18.278"/>
                </g>
              </g>
            </g>
          </g>
          <g>
            <g class="cls-19">
              <polygon class="cls-20" points="68.365 19.802 68.477 59.209 34.184 79.01 34.072 39.601 68.365 19.802"/>
            </g>
            <polygon class="cls-21" points="34.184 79.01 0.112 59.207 0 19.801 34.072 39.601 34.184 79.01"/>
            <polygon class="cls-22" points="34.072 39.601 0 19.801 34.294 0 68.365 19.802 34.072 39.601"/>
          </g>
        </g>
      </g>
    </g>
  </g>
</svg>
