<svg xmlns="http://www.w3.org/2000/svg" xmlns:xlink="http://www.w3.org/1999/xlink" viewBox="0 0 68.47752 79.0098">
  <defs>
    <style>
      .cls-1 {
        mask: url(#mask);
        filter: url(#luminosity-noclip-2);
      }

      .cls-2, .cls-20 {
        mix-blend-mode: multiply;
      }

      .cls-2 {
        fill: url(#åçûìßííûé_ãðàäèåíò_2);
      }

      .cls-3 {
        fill: #fff;
      }

      .cls-4 {
        isolation: isolate;
      }

      .cls-5 {
        clip-path: url(#clip-path);
      }

      .cls-6 {
        fill: #827f75;
      }

      .cls-7 {
        fill: #93918d;
      }

      .cls-8 {
        fill: #8e8c88;
      }

      .cls-9 {
        fill: #a09e9a;
      }

      .cls-10 {
        fill: #9c9a96;
      }

      .cls-11 {
        fill: #0d3fa5;
      }

      .cls-12 {
        fill: #85837f;
      }

      .cls-13 {
        fill: #65645c;
      }

      .cls-14 {
        fill: #004de7;
      }

      .cls-15 {
        fill: #6194ff;
      }

      .cls-16 {
        fill: #999793;
      }

      .cls-17 {
        clip-path: url(#clip-path-2);
      }

      .cls-18 {
        clip-path: url(#clip-path-3);
      }

      .cls-19 {
        mask: url(#mask-2);
      }

      .cls-20 {
        opacity: 0.5;
        fill: url(#linear-gradient);
      }

      .cls-21 {
        fill: #616161;
        opacity: 0.1;
      }

      .cls-21, .cls-22 {
        mix-blend-mode: color-dodge;
      }

      .cls-22 {
        opacity: 0.3;
        fill: url(#linear-gradient-2);
      }

      .cls-23 {
        filter: url(#luminosity-noclip);
      }
    </style>
    <filter id="luminosity-noclip" x="34.07222" y="-8183.0879" width="34.4053" height="32766" filterUnits="userSpaceOnUse" color-interpolation-filters="sRGB">
      <feFlood flood-color="#fff" result="bg"/>
      <feBlend in="SourceGraphic" in2="bg"/>
    </filter>
    <mask id="mask" x="34.07222" y="-8183.0879" width="34.4053" height="32766" maskUnits="userSpaceOnUse">
      <g class="cls-23"/>
    </mask>
    <linearGradient id="åçûìßííûé_ãðàäèåíò_2" data-name="åçûìßííûé ãðàäèåíò 2" x1="-0.23334" y1="13.94157" x2="67.49816" y2="60.57644" gradientUnits="userSpaceOnUse">
      <stop offset="0" stop-color="#fff"/>
      <stop offset="0.50007" stop-color="#f0f0f0"/>
      <stop offset="1" stop-color="#e6e6e6"/>
    </linearGradient>
    <clipPath id="clip-path">
      <polygon class="cls-3" points="68.365 19.801 68.478 59.209 34.184 79.007 34.072 39.601 68.365 19.801"/>
    </clipPath>
    <clipPath id="clip-path-2">
      <polygon class="cls-3" points="34.184 79.007 0.112 59.207 0 19.8 34.072 39.601 34.184 79.007"/>
    </clipPath>
    <clipPath id="clip-path-3">
      <polygon class="cls-3" points="34.072 39.601 0 19.8 34.293 0 68.365 19.801 34.072 39.601"/>
    </clipPath>
    <filter id="luminosity-noclip-2" x="34.07222" y="19.8018" width="34.4053" height="59.208" filterUnits="userSpaceOnUse" color-interpolation-filters="sRGB">
      <feFlood flood-color="#fff" result="bg"/>
      <feBlend in="SourceGraphic" in2="bg"/>
    </filter>
    <mask id="mask-2" x="34.07222" y="19.8018" width="34.4053" height="59.208" maskUnits="userSpaceOnUse">
      <g class="cls-1">
        <polygon class="cls-2" points="68.365 19.802 68.478 59.209 34.183 79.01 34.072 39.601 68.365 19.802"/>
      </g>
    </mask>
    <linearGradient id="linear-gradient" x1="-0.23334" y1="13.94157" x2="67.49816" y2="60.57644" gradientUnits="userSpaceOnUse">
      <stop offset="0" stop-color="#fff"/>
      <stop offset="0.22658" stop-color="#d5cdc6"/>
      <stop offset="0.4937" stop-color="#a9978a"/>
      <stop offset="0.72113" stop-color="#88705d"/>
      <stop offset="0.89701" stop-color="#745842"/>
      <stop offset="1" stop-color="#6d4f38"/>
    </linearGradient>
    <linearGradient id="linear-gradient-2" x1="-20.43072" y1="-34.81203" x2="133.49617" y2="119.11486" gradientUnits="userSpaceOnUse">
      <stop offset="0" stop-color="#d9eed5"/>
      <stop offset="1"/>
    </linearGradient>
  </defs>
  <g class="cls-4">
    <g id="Layer_2" data-name="Layer 2">
      <g id="Layer_1-2" data-name="Layer 1">
        <g id="_12" data-name="12">
          <g class="cls-4">
            <g class="cls-4">
              <polygon class="cls-3" points="68.365 19.801 68.478 59.209 34.184 79.007 34.072 39.601 68.365 19.801"/>
              <g class="cls-5">
                <g>
                  <polygon class="cls-6" points="68.468 56.176 65.831 57.699 65.839 60.73 68.476 59.209 68.468 56.176 68.468 56.176"/>
                  <polygon class="cls-6" points="68.459 53.144 65.821 54.666 65.831 57.699 68.468 56.176 68.459 53.144 68.459 53.144"/>
                  <polygon class="cls-7" points="68.451 50.111 65.814 51.635 65.821 54.666 68.459 53.144 68.451 50.111 68.451 50.111"/>
                  <polygon class="cls-8" points="68.442 47.084 65.806 48.606 65.814 51.635 68.451 50.111 68.442 47.084 68.442 47.084"/>
                  <polygon class="cls-6" points="68.433 44.054 65.796 45.575 65.806 48.606 68.442 47.084 68.433 44.054 68.433 44.054"/>
                  <polygon class="cls-9" points="68.425 41.021 65.788 42.545 65.796 45.575 68.433 44.054 68.425 41.021 68.425 41.021"/>
                  <polygon class="cls-9" points="68.417 37.991 65.779 39.515 65.788 42.545 68.425 41.021 68.417 37.991 68.417 37.991"/>
                  <polygon class="cls-8" points="68.409 34.959 65.772 36.481 65.779 39.515 68.417 37.991 68.409 34.959 68.409 34.959"/>
                  <polygon class="cls-9" points="68.397 31.926 65.762 33.449 65.772 36.481 68.409 34.959 68.397 31.926 68.397 31.926"/>
                  <polygon class="cls-9" points="68.39 28.895 65.753 30.418 65.762 33.449 68.397 31.926 68.39 28.895 68.39 28.895"/>
                  <polygon class="cls-9" points="68.381 25.863 65.744 27.387 65.753 30.418 68.39 28.895 68.381 25.863 68.381 25.863"/>
                  <polygon class="cls-8" points="68.373 22.833 65.736 24.356 65.744 27.387 68.381 25.863 68.373 22.833 68.373 22.833"/>
                  <polygon class="cls-10" points="68.365 19.802 65.728 21.325 65.736 24.356 68.373 22.833 68.365 19.802 68.365 19.802"/>
                  <polygon class="cls-8" points="65.831 57.699 63.192 59.221 63.202 62.253 65.839 60.73 65.831 57.699 65.831 57.699"/>
                  <polygon class="cls-8" points="65.821 54.666 63.184 56.188 63.192 59.221 65.831 57.699 65.821 54.666 65.821 54.666"/>
                  <polygon class="cls-8" points="65.814 51.635 63.176 53.157 63.184 56.188 65.821 54.666 65.814 51.635 65.814 51.635"/>
                  <polygon class="cls-9" points="65.806 48.606 63.168 50.129 63.176 53.157 65.814 51.635 65.806 48.606 65.806 48.606"/>
                  <polygon class="cls-6" points="65.796 45.575 63.16 47.099 63.168 50.129 65.806 48.606 65.796 45.575 65.796 45.575"/>
                  <polygon class="cls-9" points="65.788 42.545 63.151 44.067 63.16 47.099 65.796 45.575 65.788 42.545 65.788 42.545"/>
                  <polygon class="cls-7" points="65.779 39.515 63.142 41.035 63.151 44.067 65.788 42.545 65.779 39.515 65.779 39.515"/>
                  <polygon class="cls-8" points="65.772 36.481 63.134 38.005 63.142 41.035 65.779 39.515 65.772 36.481 65.772 36.481"/>
                  <polygon class="cls-9" points="65.762 33.449 63.124 34.972 63.134 38.005 65.772 36.481 65.762 33.449 65.762 33.449"/>
                  <polygon class="cls-6" points="65.753 30.418 63.115 31.94 63.124 34.972 65.762 33.449 65.753 30.418 65.753 30.418"/>
                  <polygon class="cls-11" points="65.744 27.387 63.107 28.908 63.115 31.94 65.753 30.418 65.744 27.387 65.744 27.387"/>
                  <polygon class="cls-12" points="65.736 24.356 63.098 25.876 63.107 28.908 65.744 27.387 65.736 24.356 65.736 24.356"/>
                  <polygon class="cls-8" points="65.728 21.325 63.091 22.848 63.098 25.876 65.736 24.356 65.728 21.325 65.728 21.325"/>
                  <polygon class="cls-6" points="63.192 59.221 60.556 60.744 60.563 63.777 63.202 62.253 63.192 59.221 63.192 59.221"/>
                  <polygon class="cls-9" points="63.184 56.188 60.546 57.713 60.556 60.744 63.192 59.221 63.184 56.188 63.184 56.188"/>
                  <polygon class="cls-7" points="63.176 53.157 60.538 54.681 60.546 57.713 63.184 56.188 63.176 53.157 63.176 53.157"/>
                  <polygon class="cls-13" points="63.168 50.129 60.529 51.652 60.538 54.681 63.176 53.157 63.168 50.129 63.168 50.129"/>
                  <polygon class="cls-11" points="63.16 47.099 60.52 48.623 60.529 51.652 63.168 50.129 63.16 47.099 63.16 47.099"/>
                  <polygon class="cls-9" points="63.151 44.067 60.511 45.589 60.52 48.623 63.16 47.099 63.151 44.067 63.151 44.067"/>
                  <polygon class="cls-9" points="63.142 41.035 60.503 42.56 60.511 45.589 63.151 44.067 63.142 41.035 63.142 41.035"/>
                  <polygon class="cls-6" points="63.134 38.005 60.494 39.527 60.503 42.56 63.142 41.035 63.134 38.005 63.134 38.005"/>
                  <polygon class="cls-7" points="63.124 34.972 60.486 36.497 60.494 39.527 63.134 38.005 63.124 34.972 63.124 34.972"/>
                  <polygon class="cls-13" points="63.115 31.94 60.478 33.464 60.486 36.497 63.124 34.972 63.115 31.94 63.115 31.94"/>
                  <polygon class="cls-14" points="63.107 28.908 60.468 30.431 60.478 33.464 63.115 31.94 63.107 28.908 63.107 28.908"/>
                  <polygon class="cls-15" points="63.098 25.876 60.461 27.4 60.468 30.431 63.107 28.908 63.098 25.876 63.098 25.876"/>
                  <polygon class="cls-9" points="63.091 22.848 60.452 24.371 60.461 27.4 63.098 25.876 63.091 22.848 63.091 22.848"/>
                  <polygon class="cls-7" points="60.556 60.744 57.916 62.269 57.926 65.3 60.563 63.777 60.556 60.744 60.556 60.744"/>
                  <polygon class="cls-13" points="60.546 57.713 57.908 59.236 57.916 62.269 60.556 60.744 60.546 57.713 60.546 57.713"/>
                  <polygon class="cls-15" points="60.538 54.681 57.898 56.205 57.908 59.236 60.546 57.713 60.538 54.681 60.538 54.681"/>
                  <polygon class="cls-8" points="60.529 51.652 57.89 53.176 57.898 56.205 60.538 54.681 60.529 51.652 60.529 51.652"/>
                  <polygon class="cls-14" points="60.52 48.623 57.882 50.144 57.89 53.176 60.529 51.652 60.52 48.623 60.52 48.623"/>
                  <polygon class="cls-14" points="60.511 45.589 57.874 47.113 57.882 50.144 60.52 48.623 60.511 45.589 60.511 45.589"/>
                  <polygon class="cls-7" points="60.503 42.56 57.864 44.082 57.874 47.113 60.511 45.589 60.503 42.56 60.503 42.56"/>
                  <polygon class="cls-6" points="60.494 39.527 57.855 41.052 57.864 44.082 60.503 42.56 60.494 39.527 60.494 39.527"/>
                  <polygon class="cls-9" points="60.486 36.497 57.849 38.019 57.855 41.052 60.494 39.527 60.486 36.497 60.486 36.497"/>
                  <polygon class="cls-6" points="60.478 33.464 57.839 34.985 57.849 38.019 60.486 36.497 60.478 33.464 60.478 33.464"/>
                  <polygon class="cls-9" points="60.468 30.431 57.83 31.955 57.839 34.985 60.478 33.464 60.468 30.431 60.468 30.431"/>
                  <polygon class="cls-8" points="60.461 27.4 57.822 28.924 57.83 31.955 60.468 30.431 60.461 27.4 60.461 27.4"/>
                  <polygon class="cls-8" points="60.452 24.371 57.813 25.894 57.822 28.924 60.461 27.4 60.452 24.371 60.452 24.371"/>
                  <polygon class="cls-13" points="57.916 62.269 55.279 63.791 55.288 66.822 57.926 65.3 57.916 62.269 57.916 62.269"/>
                  <polygon class="cls-11" points="57.908 59.236 55.27 60.759 55.279 63.791 57.916 62.269 57.908 59.236 57.908 59.236"/>
                  <polygon class="cls-14" points="57.898 56.205 55.261 57.727 55.27 60.759 57.908 59.236 57.898 56.205 57.898 56.205"/>
                  <polygon class="cls-9" points="57.89 53.176 55.253 54.697 55.261 57.727 57.898 56.205 57.89 53.176 57.89 53.176"/>
                  <polygon class="cls-13" points="57.882 50.144 55.245 51.667 55.253 54.697 57.89 53.176 57.882 50.144 57.882 50.144"/>
                  <polygon class="cls-15" points="57.874 47.113 55.235 48.635 55.245 51.667 57.882 50.144 57.874 47.113 57.874 47.113"/>
                  <polygon class="cls-12" points="57.864 44.082 55.227 45.605 55.235 48.635 57.874 47.113 57.864 44.082 57.864 44.082"/>
                  <polygon class="cls-12" points="57.855 41.052 55.219 42.574 55.227 45.605 57.864 44.082 57.855 41.052 57.855 41.052"/>
                  <polygon class="cls-6" points="57.849 38.019 55.21 39.541 55.219 42.574 57.855 41.052 57.849 38.019 57.849 38.019"/>
                  <polygon class="cls-9" points="57.839 34.985 55.202 36.509 55.21 39.541 57.849 38.019 57.839 34.985 57.839 34.985"/>
                  <polygon class="cls-9" points="57.83 31.955 55.194 33.478 55.202 36.509 57.839 34.985 57.83 31.955 57.83 31.955"/>
                  <polygon class="cls-7" points="57.822 28.924 55.184 30.447 55.194 33.478 57.83 31.955 57.822 28.924 57.822 28.924"/>
                  <polygon class="cls-9" points="57.813 25.894 55.176 27.417 55.184 30.447 57.822 28.924 57.813 25.894 57.813 25.894"/>
                  <polygon class="cls-13" points="55.279 63.791 52.64 65.314 52.648 68.347 55.288 66.822 55.279 63.791 55.279 63.791"/>
                  <polygon class="cls-6" points="55.27 60.759 52.632 62.281 52.64 65.314 55.279 63.791 55.27 60.759 55.27 60.759"/>
                  <polygon class="cls-7" points="55.261 57.727 52.623 59.25 52.632 62.281 55.27 60.759 55.261 57.727 55.261 57.727"/>
                  <polygon class="cls-6" points="55.253 54.697 52.615 56.222 52.623 59.25 55.261 57.727 55.253 54.697 55.253 54.697"/>
                  <polygon class="cls-6" points="55.245 51.667 52.605 53.191 52.615 56.222 55.253 54.697 55.245 51.667 55.245 51.667"/>
                  <polygon class="cls-9" points="55.235 48.635 52.598 50.159 52.605 53.191 55.245 51.667 55.235 48.635 55.235 48.635"/>
                  <polygon class="cls-9" points="55.227 45.605 52.589 47.129 52.598 50.159 55.235 48.635 55.227 45.605 55.227 45.605"/>
                  <polygon class="cls-13" points="55.219 42.574 52.58 44.096 52.589 47.129 55.227 45.605 55.219 42.574 55.219 42.574"/>
                  <polygon class="cls-14" points="55.21 39.541 52.572 41.064 52.58 44.096 55.219 42.574 55.21 39.541 55.21 39.541"/>
                  <polygon class="cls-7" points="55.202 36.509 52.563 38.033 52.572 41.064 55.21 39.541 55.202 36.509 55.202 36.509"/>
                  <polygon class="cls-14" points="55.194 33.478 52.556 35.001 52.563 38.033 55.202 36.509 55.194 33.478 55.194 33.478"/>
                  <polygon class="cls-8" points="55.184 30.447 52.545 31.971 52.556 35.001 55.194 33.478 55.184 30.447 55.184 30.447"/>
                  <polygon class="cls-16" points="55.176 27.417 52.537 28.939 52.545 31.971 55.184 30.447 55.176 27.417 55.176 27.417"/>
                  <polygon class="cls-6" points="52.64 65.314 50.002 66.838 50.01 69.869 52.648 68.347 52.64 65.314 52.64 65.314"/>
                  <polygon class="cls-13" points="52.632 62.281 49.993 63.806 50.002 66.838 52.64 65.314 52.632 62.281 52.632 62.281"/>
                  <polygon class="cls-14" points="52.623 59.25 49.985 60.773 49.993 63.806 52.632 62.281 52.623 59.25 52.623 59.25"/>
                  <polygon class="cls-9" points="52.615 56.222 49.976 57.745 49.985 60.773 52.623 59.25 52.615 56.222 52.615 56.222"/>
                  <polygon class="cls-13" points="52.605 53.191 49.968 54.715 49.976 57.745 52.615 56.222 52.605 53.191 52.605 53.191"/>
                  <polygon class="cls-9" points="52.598 50.159 49.96 51.684 49.968 54.715 52.605 53.191 52.598 50.159 52.598 50.159"/>
                  <polygon class="cls-7" points="52.589 47.129 49.949 48.651 49.96 51.684 52.598 50.159 52.589 47.129 52.589 47.129"/>
                  <polygon class="cls-9" points="52.58 44.096 49.942 45.62 49.949 48.651 52.589 47.129 52.58 44.096 52.58 44.096"/>
                  <polygon class="cls-9" points="52.572 41.064 49.932 42.588 49.942 45.62 52.58 44.096 52.572 41.064 52.572 41.064"/>
                  <polygon class="cls-9" points="52.563 38.033 49.924 39.557 49.932 42.588 52.572 41.064 52.563 38.033 52.563 38.033"/>
                  <polygon class="cls-13" points="52.556 35.001 49.916 36.525 49.924 39.557 52.563 38.033 52.556 35.001 52.556 35.001"/>
                  <polygon class="cls-11" points="52.545 31.971 49.907 33.493 49.916 36.525 52.556 35.001 52.545 31.971 52.545 31.971"/>
                  <polygon class="cls-10" points="52.537 28.939 49.898 30.463 49.907 33.493 52.545 31.971 52.537 28.939 52.537 28.939"/>
                  <polygon class="cls-8" points="50.002 66.838 47.363 68.36 47.372 71.393 50.01 69.869 50.002 66.838 50.002 66.838"/>
                  <polygon class="cls-9" points="49.993 63.806 47.354 65.33 47.363 68.36 50.002 66.838 49.993 63.806 49.993 63.806"/>
                  <polygon class="cls-8" points="49.985 60.773 47.346 62.298 47.354 65.33 49.993 63.806 49.985 60.773 49.985 60.773"/>
                  <polygon class="cls-12" points="49.976 57.745 47.338 59.269 47.346 62.298 49.985 60.773 49.976 57.745 49.976 57.745"/>
                  <polygon class="cls-9" points="49.968 54.715 47.33 56.238 47.338 59.269 49.976 57.745 49.968 54.715 49.968 54.715"/>
                  <polygon class="cls-6" points="49.96 51.684 47.319 53.205 47.33 56.238 49.968 54.715 49.96 51.684 49.96 51.684"/>
                  <polygon class="cls-9" points="49.949 48.651 47.311 50.176 47.319 53.205 49.96 51.684 49.949 48.651 49.949 48.651"/>
                  <polygon class="cls-8" points="49.942 45.62 47.302 47.144 47.311 50.176 49.949 48.651 49.942 45.62 49.942 45.62"/>
                  <polygon class="cls-13" points="49.932 42.588 47.294 44.111 47.302 47.144 49.942 45.62 49.932 42.588 49.932 42.588"/>
                  <polygon class="cls-9" points="49.924 39.557 47.286 41.08 47.294 44.111 49.932 42.588 49.924 39.557 49.924 39.557"/>
                  <polygon class="cls-9" points="49.916 36.525 47.277 38.047 47.286 41.08 49.924 39.557 49.916 36.525 49.916 36.525"/>
                  <polygon class="cls-12" points="49.907 33.493 47.268 35.018 47.277 38.047 49.916 36.525 49.907 33.493 49.907 33.493"/>
                  <polygon class="cls-9" points="49.898 30.463 47.26 31.986 47.268 35.018 49.907 33.493 49.898 30.463 49.898 30.463"/>
                  <polygon class="cls-7" points="47.363 68.36 44.726 69.884 44.734 72.916 47.372 71.393 47.363 68.36 47.363 68.36"/>
                  <polygon class="cls-6" points="47.354 65.33 44.718 66.852 44.726 69.884 47.363 68.36 47.354 65.33 47.354 65.33"/>
                  <polygon class="cls-9" points="47.346 62.298 44.71 63.82 44.718 66.852 47.354 65.33 47.346 62.298 47.346 62.298"/>
                  <polygon class="cls-8" points="47.338 59.269 44.7 60.792 44.71 63.82 47.346 62.298 47.338 59.269 47.338 59.269"/>
                  <polygon class="cls-6" points="47.33 56.238 44.692 57.76 44.7 60.792 47.338 59.269 47.33 56.238 47.33 56.238"/>
                  <polygon class="cls-14" points="47.319 53.205 44.683 54.728 44.692 57.76 47.33 56.238 47.319 53.205 47.319 53.205"/>
                  <polygon class="cls-15" points="47.311 50.176 44.673 51.697 44.683 54.728 47.319 53.205 47.311 50.176 47.311 50.176"/>
                  <polygon class="cls-7" points="47.302 47.144 44.665 48.667 44.673 51.697 47.311 50.176 47.302 47.144 47.302 47.144"/>
                  <polygon class="cls-9" points="47.294 44.111 44.657 45.635 44.665 48.667 47.302 47.144 47.294 44.111 47.294 44.111"/>
                  <polygon class="cls-9" points="47.286 41.08 44.648 42.602 44.657 45.635 47.294 44.111 47.286 41.08 47.286 41.08"/>
                  <polygon class="cls-6" points="47.277 38.047 44.64 39.57 44.648 42.602 47.286 41.08 47.277 38.047 47.277 38.047"/>
                  <polygon class="cls-8" points="47.268 35.018 44.632 36.539 44.64 39.57 47.277 38.047 47.268 35.018 47.268 35.018"/>
                  <polygon class="cls-8" points="47.26 31.986 44.622 33.51 44.632 36.539 47.268 35.018 47.26 31.986 47.26 31.986"/>
                  <polygon class="cls-13" points="44.726 69.884 42.089 71.407 42.098 74.438 44.734 72.916 44.726 69.884 44.726 69.884"/>
                  <polygon class="cls-11" points="44.718 66.852 42.081 68.375 42.089 71.407 44.726 69.884 44.718 66.852 44.718 66.852"/>
                  <polygon class="cls-9" points="44.71 63.82 42.072 65.341 42.081 68.375 44.718 66.852 44.71 63.82 44.71 63.82"/>
                  <polygon class="cls-13" points="44.7 60.792 42.062 62.312 42.072 65.341 44.71 63.82 44.7 60.792 44.7 60.792"/>
                  <polygon class="cls-11" points="44.692 57.76 42.053 59.283 42.062 62.312 44.7 60.792 44.692 57.76 44.692 57.76"/>
                  <polygon class="cls-14" points="44.683 54.728 42.045 56.252 42.053 59.283 44.692 57.76 44.683 54.728 44.683 54.728"/>
                  <polygon class="cls-8" points="44.673 51.697 42.037 53.221 42.045 56.252 44.683 54.728 44.673 51.697 44.673 51.697"/>
                  <polygon class="cls-12" points="44.665 48.667 42.028 50.189 42.037 53.221 44.673 51.697 44.665 48.667 44.665 48.667"/>
                  <polygon class="cls-13" points="44.657 45.635 42.019 47.156 42.028 50.189 44.665 48.667 44.657 45.635 44.657 45.635"/>
                  <polygon class="cls-14" points="44.648 42.602 42.012 44.125 42.019 47.156 44.657 45.635 44.648 42.602 44.648 42.602"/>
                  <polygon class="cls-8" points="44.64 39.57 42.002 41.094 42.012 44.125 44.648 42.602 44.64 39.57 44.64 39.57"/>
                  <polygon class="cls-16" points="44.632 36.539 41.994 38.062 42.002 41.094 44.64 39.57 44.632 36.539 44.632 36.539"/>
                  <polygon class="cls-6" points="44.622 33.51 41.986 35.031 41.994 38.062 44.632 36.539 44.622 33.51 44.622 33.51"/>
                  <polygon class="cls-7" points="42.089 71.407 39.452 72.928 39.46 75.961 42.098 74.438 42.089 71.407 42.089 71.407"/>
                  <polygon class="cls-14" points="42.081 68.375 39.442 69.896 39.452 72.928 42.089 71.407 42.081 68.375 42.081 68.375"/>
                  <polygon class="cls-7" points="42.072 65.341 39.434 66.864 39.442 69.896 42.081 68.375 42.072 65.341 42.072 65.341"/>
                  <polygon class="cls-11" points="42.062 62.312 39.425 63.836 39.434 66.864 42.072 65.341 42.062 62.312 42.062 62.312"/>
                  <polygon class="cls-14" points="42.053 59.283 39.417 60.806 39.425 63.836 42.062 62.312 42.053 59.283 42.053 59.283"/>
                  <polygon class="cls-7" points="42.045 56.252 39.409 57.775 39.417 60.806 42.053 59.283 42.045 56.252 42.045 56.252"/>
                  <polygon class="cls-9" points="42.037 53.221 39.4 54.744 39.409 57.775 42.045 56.252 42.037 53.221 42.037 53.221"/>
                  <polygon class="cls-6" points="42.028 50.189 39.392 51.712 39.4 54.744 42.037 53.221 42.028 50.189 42.028 50.189"/>
                  <polygon class="cls-13" points="42.019 47.156 39.382 48.68 39.392 51.712 42.028 50.189 42.019 47.156 42.019 47.156"/>
                  <polygon class="cls-14" points="42.012 44.125 39.374 45.647 39.382 48.68 42.019 47.156 42.012 44.125 42.012 44.125"/>
                  <polygon class="cls-15" points="42.002 41.094 39.366 42.616 39.374 45.647 42.012 44.125 42.002 41.094 42.002 41.094"/>
                  <polygon class="cls-8" points="41.994 38.062 39.357 39.586 39.366 42.616 42.002 41.094 41.994 38.062 41.994 38.062"/>
                  <polygon class="cls-9" points="41.986 35.031 39.348 36.555 39.357 39.586 41.994 38.062 41.986 35.031 41.986 35.031"/>
                  <polygon class="cls-6" points="39.452 72.928 36.812 74.451 36.822 77.485 39.46 75.961 39.452 72.928 39.452 72.928"/>
                  <polygon class="cls-7" points="39.442 69.896 36.804 71.419 36.812 74.451 39.452 72.928 39.442 69.896 39.442 69.896"/>
                  <polygon class="cls-12" points="39.434 66.864 36.796 68.388 36.804 71.419 39.442 69.896 39.434 66.864 39.434 66.864"/>
                  <polygon class="cls-12" points="39.425 63.836 36.788 65.36 36.796 68.388 39.434 66.864 39.425 63.836 39.425 63.836"/>
                  <polygon class="cls-8" points="39.417 60.806 36.779 62.33 36.788 65.36 39.425 63.836 39.417 60.806 39.417 60.806"/>
                  <polygon class="cls-10" points="39.409 57.775 36.769 59.297 36.779 62.33 39.417 60.806 39.409 57.775 39.409 57.775"/>
                  <polygon class="cls-8" points="39.4 54.744 36.762 56.267 36.769 59.297 39.409 57.775 39.4 54.744 39.4 54.744"/>
                  <polygon class="cls-6" points="39.392 51.712 36.752 53.235 36.762 56.267 39.4 54.744 39.392 51.712 39.392 51.712"/>
                  <polygon class="cls-6" points="39.382 48.68 36.744 50.203 36.752 53.235 39.392 51.712 39.382 48.68 39.382 48.68"/>
                  <polygon class="cls-11" points="39.374 45.647 36.735 47.172 36.744 50.203 39.382 48.68 39.374 45.647 39.374 45.647"/>
                  <polygon class="cls-14" points="39.366 42.616 36.727 44.139 36.735 47.172 39.374 45.647 39.366 42.616 39.366 42.616"/>
                  <polygon class="cls-13" points="39.357 39.586 36.719 41.108 36.727 44.139 39.366 42.616 39.357 39.586 39.357 39.586"/>
                  <polygon class="cls-8" points="39.348 36.555 36.709 38.078 36.719 41.108 39.357 39.586 39.348 36.555 39.348 36.555"/>
                  <polygon class="cls-7" points="36.812 74.451 34.176 75.975 34.184 79.007 36.822 77.485 36.812 74.451 36.812 74.451"/>
                  <polygon class="cls-9" points="36.804 71.419 34.167 72.942 34.176 75.975 36.812 74.451 36.804 71.419 36.804 71.419"/>
                  <polygon class="cls-7" points="36.796 68.388 34.159 69.911 34.167 72.942 36.804 71.419 36.796 68.388 36.796 68.388"/>
                  <polygon class="cls-8" points="36.788 65.36 34.149 66.883 34.159 69.911 36.796 68.388 36.788 65.36 36.788 65.36"/>
                  <polygon class="cls-9" points="36.779 62.33 34.142 63.852 34.149 66.883 36.788 65.36 36.779 62.33 36.779 62.33"/>
                  <polygon class="cls-9" points="36.769 59.297 34.132 60.82 34.142 63.852 36.779 62.33 36.769 59.297 36.769 59.297"/>
                  <polygon class="cls-9" points="36.762 56.267 34.124 57.789 34.132 60.82 36.769 59.297 36.762 56.267 36.762 56.267"/>
                  <polygon class="cls-8" points="36.752 53.235 34.115 54.758 34.124 57.789 36.762 56.267 36.752 53.235 36.752 53.235"/>
                  <polygon class="cls-6" points="36.744 50.203 34.107 51.726 34.115 54.758 36.752 53.235 36.744 50.203 36.744 50.203"/>
                  <polygon class="cls-9" points="36.735 47.172 34.099 48.693 34.107 51.726 36.744 50.203 36.735 47.172 36.735 47.172"/>
                  <polygon class="cls-7" points="36.727 44.139 34.089 45.662 34.099 48.693 36.735 47.172 36.727 44.139 36.727 44.139"/>
                  <polygon class="cls-8" points="36.719 41.108 34.082 42.631 34.089 45.662 36.727 44.139 36.719 41.108 36.719 41.108"/>
                  <polygon class="cls-9" points="36.709 38.078 34.072 39.601 34.082 42.631 36.719 41.108 36.709 38.078 36.709 38.078"/>
                </g>
              </g>
            </g>
            <g class="cls-4">
              <polygon class="cls-3" points="34.184 79.007 0.112 59.207 0 19.8 34.072 39.601 34.184 79.007"/>
              <g class="cls-17">
                <g>
                  <polygon class="cls-6" points="2.733 60.728 2.725 57.699 0.103 56.176 0.112 59.206 2.733 60.728 2.733 60.728"/>
                  <polygon class="cls-6" points="5.355 62.253 5.346 59.223 2.725 57.699 2.733 60.728 5.355 62.253 5.355 62.253"/>
                  <polygon class="cls-7" points="7.976 63.777 7.968 60.745 5.346 59.223 5.355 62.253 7.976 63.777 7.976 63.777"/>
                  <polygon class="cls-8" points="10.596 65.298 10.586 62.268 7.968 60.745 7.976 63.777 10.596 65.298 10.596 65.298"/>
                  <polygon class="cls-6" points="13.215 66.82 13.206 63.79 10.586 62.268 10.596 65.298 13.215 66.82 13.215 66.82"/>
                  <polygon class="cls-9" points="15.837 68.345 15.828 65.314 13.206 63.79 13.215 66.82 15.837 68.345 15.837 68.345"/>
                  <polygon class="cls-9" points="18.457 69.867 18.448 66.838 15.828 65.314 15.837 68.345 18.457 69.867 18.457 69.867"/>
                  <polygon class="cls-8" points="21.078 71.39 21.07 68.359 18.448 66.838 18.457 69.867 21.078 71.39 21.078 71.39"/>
                  <polygon class="cls-9" points="23.7 72.914 23.691 69.883 21.07 68.359 21.078 71.39 23.7 72.914 23.7 72.914"/>
                  <polygon class="cls-9" points="26.321 74.436 26.313 71.407 23.691 69.883 23.7 72.914 26.321 74.436 26.321 74.436"/>
                  <polygon class="cls-9" points="28.942 75.961 28.934 72.932 26.313 71.407 26.321 74.436 28.942 75.961 28.942 75.961"/>
                  <polygon class="cls-8" points="31.562 77.483 31.554 74.451 28.934 72.932 28.942 75.961 31.562 77.483 31.562 77.483"/>
                  <polygon class="cls-10" points="34.183 79.004 34.175 75.975 31.554 74.451 31.562 77.483 34.183 79.004 34.183 79.004"/>
                  <polygon class="cls-8" points="2.725 57.699 2.716 54.67 0.095 53.144 0.103 56.176 2.725 57.699 2.725 57.699"/>
                  <polygon class="cls-8" points="5.346 59.223 5.338 56.19 2.716 54.67 2.725 57.699 5.346 59.223 5.346 59.223"/>
                  <polygon class="cls-8" points="7.968 60.745 7.959 57.715 5.338 56.19 5.346 59.223 7.968 60.745 7.968 60.745"/>
                  <polygon class="cls-9" points="10.586 62.268 10.578 59.237 7.959 57.715 7.968 60.745 10.586 62.268 10.586 62.268"/>
                  <polygon class="cls-6" points="13.206 63.79 13.198 60.76 10.578 59.237 10.586 62.268 13.206 63.79 13.206 63.79"/>
                  <polygon class="cls-9" points="15.828 65.314 15.819 62.283 13.198 60.76 13.206 63.79 15.828 65.314 15.828 65.314"/>
                  <polygon class="cls-7" points="18.448 66.838 18.439 63.806 15.819 62.283 15.828 65.314 18.448 66.838 18.448 66.838"/>
                  <polygon class="cls-8" points="21.07 68.359 21.06 65.33 18.439 63.806 18.448 66.838 21.07 68.359 21.07 68.359"/>
                  <polygon class="cls-9" points="23.691 69.883 23.682 66.853 21.06 65.33 21.07 68.359 23.691 69.883 23.691 69.883"/>
                  <polygon class="cls-6" points="26.313 71.407 26.304 68.377 23.682 66.853 23.691 69.883 26.313 71.407 26.313 71.407"/>
                  <polygon class="cls-11" points="28.934 72.932 28.925 69.9 26.304 68.377 26.313 71.407 28.934 72.932 28.934 72.932"/>
                  <polygon class="cls-12" points="31.554 74.451 31.546 71.422 28.925 69.9 28.934 72.932 31.554 74.451 31.554 74.451"/>
                  <polygon class="cls-8" points="34.175 75.975 34.165 72.945 31.546 71.422 31.554 74.451 34.175 75.975 34.175 75.975"/>
                  <polygon class="cls-6" points="2.716 54.67 2.707 51.636 0.086 50.113 0.095 53.144 2.716 54.67 2.716 54.67"/>
                  <polygon class="cls-9" points="5.338 56.19 5.329 53.16 2.707 51.636 2.716 54.67 5.338 56.19 5.338 56.19"/>
                  <polygon class="cls-7" points="7.959 57.715 7.95 54.683 5.329 53.16 5.338 56.19 7.959 57.715 7.959 57.715"/>
                  <polygon class="cls-13" points="10.578 59.237 10.57 56.205 7.95 54.683 7.959 57.715 10.578 59.237 10.578 59.237"/>
                  <polygon class="cls-11" points="13.198 60.76 13.189 57.728 10.57 56.205 10.578 59.237 13.198 60.76 13.198 60.76"/>
                  <polygon class="cls-9" points="15.819 62.283 15.811 59.251 13.189 57.728 13.198 60.76 15.819 62.283 15.819 62.283"/>
                  <polygon class="cls-9" points="18.439 63.806 18.431 60.774 15.811 59.251 15.819 62.283 18.439 63.806 18.439 63.806"/>
                  <polygon class="cls-6" points="21.06 65.33 21.052 62.298 18.431 60.774 18.439 63.806 21.06 65.33 21.06 65.33"/>
                  <polygon class="cls-7" points="23.682 66.853 23.674 63.822 21.052 62.298 21.06 65.33 23.682 66.853 23.682 66.853"/>
                  <polygon class="cls-13" points="26.304 68.377 26.295 65.344 23.674 63.822 23.682 66.853 26.304 68.377 26.304 68.377"/>
                  <polygon class="cls-14" points="28.925 69.9 28.917 66.868 26.295 65.344 26.304 68.377 28.925 69.9 28.925 69.9"/>
                  <polygon class="cls-15" points="31.546 71.422 31.538 68.391 28.917 66.868 28.925 69.9 31.546 71.422 31.546 71.422"/>
                  <polygon class="cls-9" points="34.165 72.945 34.156 69.912 31.538 68.391 31.546 71.422 34.165 72.945 34.165 72.945"/>
                  <polygon class="cls-7" points="2.707 51.636 2.699 48.604 0.077 47.08 0.086 50.113 2.707 51.636 2.707 51.636"/>
                  <polygon class="cls-13" points="5.329 53.16 5.321 50.128 2.699 48.604 2.707 51.636 5.329 53.16 5.329 53.16"/>
                  <polygon class="cls-15" points="7.95 54.683 7.942 51.652 5.321 50.128 5.329 53.16 7.95 54.683 7.95 54.683"/>
                  <polygon class="cls-8" points="10.57 56.205 10.56 53.174 7.942 51.652 7.95 54.683 10.57 56.205 10.57 56.205"/>
                  <polygon class="cls-14" points="13.189 57.728 13.181 54.696 10.56 53.174 10.57 56.205 13.189 57.728 13.189 57.728"/>
                  <polygon class="cls-14" points="15.811 59.251 15.802 56.22 13.181 54.696 13.189 57.728 15.811 59.251 15.811 59.251"/>
                  <polygon class="cls-7" points="18.431 60.774 18.422 57.742 15.802 56.22 15.811 59.251 18.431 60.774 18.431 60.774"/>
                  <polygon class="cls-6" points="21.052 62.298 21.044 59.266 18.422 57.742 18.431 60.774 21.052 62.298 21.052 62.298"/>
                  <polygon class="cls-9" points="23.674 63.822 23.665 60.789 21.044 59.266 21.052 62.298 23.674 63.822 23.674 63.822"/>
                  <polygon class="cls-6" points="26.295 65.344 26.286 62.312 23.665 60.789 23.674 63.822 26.295 65.344 26.295 65.344"/>
                  <polygon class="cls-9" points="28.917 66.868 28.909 63.836 26.286 62.312 26.295 65.344 28.917 66.868 28.917 66.868"/>
                  <polygon class="cls-8" points="31.538 68.391 31.528 65.359 28.909 63.836 28.917 66.868 31.538 68.391 31.538 68.391"/>
                  <polygon class="cls-8" points="34.156 69.912 34.149 66.881 31.528 65.359 31.538 68.391 34.156 69.912 34.156 69.912"/>
                  <polygon class="cls-13" points="2.699 48.604 2.69 45.573 0.069 44.052 0.077 47.08 2.699 48.604 2.699 48.604"/>
                  <polygon class="cls-11" points="5.321 50.128 5.311 47.099 2.69 45.573 2.699 48.604 5.321 50.128 5.321 50.128"/>
                  <polygon class="cls-14" points="7.942 51.652 7.934 48.621 5.311 47.099 5.321 50.128 7.942 51.652 7.942 51.652"/>
                  <polygon class="cls-9" points="10.56 53.174 10.552 50.142 7.934 48.621 7.942 51.652 10.56 53.174 10.56 53.174"/>
                  <polygon class="cls-13" points="13.181 54.696 13.172 51.665 10.552 50.142 10.56 53.174 13.181 54.696 13.181 54.696"/>
                  <polygon class="cls-15" points="15.802 56.22 15.793 53.189 13.172 51.665 13.181 54.696 15.802 56.22 15.802 56.22"/>
                  <polygon class="cls-12" points="18.422 57.742 18.413 54.713 15.793 53.189 15.802 56.22 18.422 57.742 18.422 57.742"/>
                  <polygon class="cls-12" points="21.044 59.266 21.035 56.234 18.413 54.713 18.422 57.742 21.044 59.266 21.044 59.266"/>
                  <polygon class="cls-6" points="23.665 60.789 23.656 57.759 21.035 56.234 21.044 59.266 23.665 60.789 23.665 60.789"/>
                  <polygon class="cls-9" points="26.286 62.312 26.278 59.282 23.656 57.759 23.665 60.789 26.286 62.312 26.286 62.312"/>
                  <polygon class="cls-9" points="28.909 63.836 28.899 60.806 26.278 59.282 26.286 62.312 28.909 63.836 28.909 63.836"/>
                  <polygon class="cls-7" points="31.528 65.359 31.519 62.328 28.899 60.806 28.909 63.836 31.528 65.359 31.528 65.359"/>
                  <polygon class="cls-9" points="34.149 66.881 34.14 63.852 31.519 62.328 31.528 65.359 34.149 66.881 34.149 66.881"/>
                  <polygon class="cls-13" points="2.69 45.573 2.682 42.543 0.06 41.019 0.069 44.052 2.69 45.573 2.69 45.573"/>
                  <polygon class="cls-6" points="5.311 47.099 5.303 44.064 2.682 42.543 2.69 45.573 5.311 47.099 5.311 47.099"/>
                  <polygon class="cls-7" points="7.934 48.621 7.924 45.589 5.303 44.064 5.311 47.099 7.934 48.621 7.934 48.621"/>
                  <polygon class="cls-6" points="10.552 50.142 10.544 47.111 7.924 45.589 7.934 48.621 10.552 50.142 10.552 50.142"/>
                  <polygon class="cls-6" points="13.172 51.665 13.164 48.634 10.544 47.111 10.552 50.142 13.172 51.665 13.172 51.665"/>
                  <polygon class="cls-9" points="15.793 53.189 15.785 50.157 13.164 48.634 13.172 51.665 15.793 53.189 15.793 53.189"/>
                  <polygon class="cls-9" points="18.413 54.713 18.406 51.68 15.785 50.157 15.793 53.189 18.413 54.713 18.413 54.713"/>
                  <polygon class="cls-13" points="21.035 56.234 21.027 53.202 18.406 51.68 18.413 54.713 21.035 56.234 21.035 56.234"/>
                  <polygon class="cls-14" points="23.656 57.759 23.648 54.727 21.027 53.202 21.035 56.234 23.656 57.759 23.656 57.759"/>
                  <polygon class="cls-7" points="26.278 59.282 26.269 56.251 23.648 54.727 23.656 57.759 26.278 59.282 26.278 59.282"/>
                  <polygon class="cls-14" points="28.899 60.806 28.891 57.773 26.269 56.251 26.278 59.282 28.899 60.806 28.899 60.806"/>
                  <polygon class="cls-8" points="31.519 62.328 31.511 59.297 28.891 57.773 28.899 60.806 31.519 62.328 31.519 62.328"/>
                  <polygon class="cls-16" points="34.14 63.852 34.131 60.819 31.511 59.297 31.519 62.328 34.14 63.852 34.14 63.852"/>
                  <polygon class="cls-6" points="2.682 42.543 2.674 39.51 0.052 37.986 0.06 41.019 2.682 42.543 2.682 42.543"/>
                  <polygon class="cls-13" points="5.303 44.064 5.295 41.033 2.674 39.51 2.682 42.543 5.303 44.064 5.303 44.064"/>
                  <polygon class="cls-14" points="7.924 45.589 7.916 42.557 5.295 41.033 5.303 44.064 7.924 45.589 7.924 45.589"/>
                  <polygon class="cls-9" points="10.544 47.111 10.535 44.079 7.916 42.557 7.924 45.589 10.544 47.111 10.544 47.111"/>
                  <polygon class="cls-13" points="13.164 48.634 13.154 45.602 10.535 44.079 10.544 47.111 13.164 48.634 13.164 48.634"/>
                  <polygon class="cls-9" points="15.785 50.157 15.777 47.125 13.154 45.602 13.164 48.634 15.785 50.157 15.785 50.157"/>
                  <polygon class="cls-7" points="18.406 51.68 18.396 48.647 15.777 47.125 15.785 50.157 18.406 51.68 18.406 51.68"/>
                  <polygon class="cls-9" points="21.027 53.202 21.018 50.172 18.396 48.647 18.406 51.68 21.027 53.202 21.027 53.202"/>
                  <polygon class="cls-9" points="23.648 54.727 23.64 51.694 21.018 50.172 21.027 53.202 23.648 54.727 23.648 54.727"/>
                  <polygon class="cls-9" points="26.269 56.251 26.261 53.219 23.64 51.694 23.648 54.727 26.269 56.251 26.269 56.251"/>
                  <polygon class="cls-13" points="28.891 57.773 28.882 54.742 26.261 53.219 26.269 56.251 28.891 57.773 28.891 57.773"/>
                  <polygon class="cls-11" points="31.511 59.297 31.502 56.264 28.882 54.742 28.891 57.773 31.511 59.297 31.511 59.297"/>
                  <polygon class="cls-10" points="34.131 60.819 34.123 57.786 31.502 56.264 31.511 59.297 34.131 60.819 34.131 60.819"/>
                  <polygon class="cls-8" points="2.674 39.51 2.664 36.478 0.043 34.955 0.052 37.986 2.674 39.51 2.674 39.51"/>
                  <polygon class="cls-9" points="5.295 41.033 5.287 38.002 2.664 36.478 2.674 39.51 5.295 41.033 5.295 41.033"/>
                  <polygon class="cls-8" points="7.916 42.557 7.908 39.524 5.287 38.002 5.295 41.033 7.916 42.557 7.916 42.557"/>
                  <polygon class="cls-12" points="10.535 44.079 10.526 41.047 7.908 39.524 7.916 42.557 10.535 44.079 10.535 44.079"/>
                  <polygon class="cls-9" points="13.154 45.602 13.146 42.569 10.526 41.047 10.535 44.079 13.154 45.602 13.154 45.602"/>
                  <polygon class="cls-6" points="15.777 47.125 15.768 44.093 13.146 42.569 13.154 45.602 15.777 47.125 15.777 47.125"/>
                  <polygon class="cls-9" points="18.396 48.647 18.388 45.616 15.768 44.093 15.777 47.125 18.396 48.647 18.396 48.647"/>
                  <polygon class="cls-8" points="21.018 50.172 21.009 47.14 18.388 45.616 18.396 48.647 21.018 50.172 21.018 50.172"/>
                  <polygon class="cls-13" points="23.64 51.694 23.631 48.663 21.009 47.14 21.018 50.172 23.64 51.694 23.64 51.694"/>
                  <polygon class="cls-9" points="26.261 53.219 26.253 50.186 23.631 48.663 23.64 51.694 26.261 53.219 26.261 53.219"/>
                  <polygon class="cls-9" points="28.882 54.742 28.874 51.71 26.253 50.186 26.261 53.219 28.882 54.742 28.882 54.742"/>
                  <polygon class="cls-12" points="31.502 56.264 31.495 53.233 28.874 51.71 28.882 54.742 31.502 56.264 31.502 56.264"/>
                  <polygon class="cls-9" points="34.123 57.786 34.114 54.754 31.495 53.233 31.502 56.264 34.123 57.786 34.123 57.786"/>
                  <polygon class="cls-7" points="2.664 36.478 2.656 33.447 0.035 31.923 0.043 34.955 2.664 36.478 2.664 36.478"/>
                  <polygon class="cls-6" points="5.287 38.002 5.278 34.972 2.656 33.447 2.664 36.478 5.287 38.002 5.287 38.002"/>
                  <polygon class="cls-9" points="7.908 39.524 7.899 36.495 5.278 34.972 5.287 38.002 7.908 39.524 7.908 39.524"/>
                  <polygon class="cls-8" points="10.526 41.047 10.518 38.016 7.899 36.495 7.908 39.524 10.526 41.047 10.526 41.047"/>
                  <polygon class="cls-6" points="13.146 42.569 13.137 39.539 10.518 38.016 10.526 41.047 13.146 42.569 13.146 42.569"/>
                  <polygon class="cls-14" points="15.768 44.093 15.759 41.063 13.137 39.539 13.146 42.569 15.768 44.093 15.768 44.093"/>
                  <polygon class="cls-15" points="18.388 45.616 18.379 42.585 15.759 41.063 15.768 44.093 18.388 45.616 18.388 45.616"/>
                  <polygon class="cls-7" points="21.009 47.14 21 44.109 18.379 42.585 18.388 45.616 21.009 47.14 21.009 47.14"/>
                  <polygon class="cls-9" points="23.631 48.663 23.622 45.633 21 44.109 21.009 47.14 23.631 48.663 23.631 48.663"/>
                  <polygon class="cls-9" points="26.253 50.186 26.243 47.155 23.622 45.633 23.631 48.663 26.253 50.186 26.253 50.186"/>
                  <polygon class="cls-6" points="28.874 51.71 28.866 48.679 26.243 47.155 26.253 50.186 28.874 51.71 28.874 51.71"/>
                  <polygon class="cls-8" points="31.495 53.233 31.485 50.202 28.866 48.679 28.874 51.71 31.495 53.233 31.495 53.233"/>
                  <polygon class="cls-8" points="34.114 54.754 34.105 51.724 31.485 50.202 31.495 53.233 34.114 54.754 34.114 54.754"/>
                  <polygon class="cls-13" points="2.656 33.447 2.648 30.418 0.025 28.894 0.035 31.923 2.656 33.447 2.656 33.447"/>
                  <polygon class="cls-11" points="5.278 34.972 5.269 31.94 2.648 30.418 2.656 33.447 5.278 34.972 5.278 34.972"/>
                  <polygon class="cls-9" points="7.899 36.495 7.891 33.466 5.269 31.94 5.278 34.972 7.899 36.495 7.899 36.495"/>
                  <polygon class="cls-13" points="10.518 38.016 10.509 34.985 7.891 33.466 7.899 36.495 10.518 38.016 10.518 38.016"/>
                  <polygon class="cls-11" points="13.137 39.539 13.129 36.509 10.509 34.985 10.518 38.016 13.137 39.539 13.137 39.539"/>
                  <polygon class="cls-14" points="15.759 41.063 15.75 38.032 13.129 36.509 13.137 39.539 15.759 41.063 15.759 41.063"/>
                  <polygon class="cls-8" points="18.379 42.585 18.371 39.555 15.75 38.032 15.759 41.063 18.379 42.585 18.379 42.585"/>
                  <polygon class="cls-12" points="21 44.109 20.993 41.078 18.371 39.555 18.379 42.585 21 44.109 21 44.109"/>
                  <polygon class="cls-13" points="23.622 45.633 23.614 42.602 20.993 41.078 21 44.109 23.622 45.633 23.622 45.633"/>
                  <polygon class="cls-14" points="26.243 47.155 26.235 44.126 23.614 42.602 23.622 45.633 26.243 47.155 26.243 47.155"/>
                  <polygon class="cls-8" points="28.866 48.679 28.856 45.648 26.235 44.126 26.243 47.155 28.866 48.679 28.866 48.679"/>
                  <polygon class="cls-16" points="31.485 50.202 31.476 47.172 28.856 45.648 28.866 48.679 31.485 50.202 31.485 50.202"/>
                  <polygon class="cls-6" points="34.105 51.724 34.097 48.695 31.476 47.172 31.485 50.202 34.105 51.724 34.105 51.724"/>
                  <polygon class="cls-7" points="2.648 30.418 2.639 27.389 0.018 25.864 0.025 28.894 2.648 30.418 2.648 30.418"/>
                  <polygon class="cls-14" points="5.269 31.94 5.26 28.911 2.639 27.389 2.648 30.418 5.269 31.94 5.269 31.94"/>
                  <polygon class="cls-7" points="7.891 33.466 7.882 30.434 5.26 28.911 5.269 31.94 7.891 33.466 7.891 33.466"/>
                  <polygon class="cls-11" points="10.509 34.985 10.5 31.957 7.882 30.434 7.891 33.466 10.509 34.985 10.509 34.985"/>
                  <polygon class="cls-14" points="13.129 36.509 13.121 33.478 10.5 31.957 10.509 34.985 13.129 36.509 13.129 36.509"/>
                  <polygon class="cls-7" points="15.75 38.032 15.742 35.002 13.121 33.478 13.129 36.509 15.75 38.032 15.75 38.032"/>
                  <polygon class="cls-9" points="18.371 39.555 18.362 36.525 15.742 35.002 15.75 38.032 18.371 39.555 18.371 39.555"/>
                  <polygon class="cls-6" points="20.993 41.078 20.983 38.047 18.362 36.525 18.371 39.555 20.993 41.078 20.993 41.078"/>
                  <polygon class="cls-13" points="23.614 42.602 23.605 39.571 20.983 38.047 20.993 41.078 23.614 42.602 23.614 42.602"/>
                  <polygon class="cls-14" points="26.235 44.126 26.226 41.095 23.605 39.571 23.614 42.602 26.235 44.126 26.235 44.126"/>
                  <polygon class="cls-15" points="28.856 45.648 28.848 42.619 26.226 41.095 26.235 44.126 28.856 45.648 28.856 45.648"/>
                  <polygon class="cls-8" points="31.476 47.172 31.469 44.141 28.848 42.619 28.856 45.648 31.476 47.172 31.476 47.172"/>
                  <polygon class="cls-9" points="34.097 48.695 34.089 45.664 31.469 44.141 31.476 47.172 34.097 48.695 34.097 48.695"/>
                  <polygon class="cls-6" points="2.639 27.389 2.63 24.356 0.009 22.832 0.018 25.864 2.639 27.389 2.639 27.389"/>
                  <polygon class="cls-7" points="5.26 28.911 5.251 25.879 2.63 24.356 2.639 27.389 5.26 28.911 5.26 28.911"/>
                  <polygon class="cls-12" points="7.882 30.434 7.872 27.402 5.251 25.879 5.26 28.911 7.882 30.434 7.882 30.434"/>
                  <polygon class="cls-12" points="10.5 31.957 10.492 28.924 7.872 27.402 7.882 30.434 10.5 31.957 10.5 31.957"/>
                  <polygon class="cls-8" points="13.121 33.478 13.112 30.447 10.492 28.924 10.5 31.957 13.121 33.478 13.121 33.478"/>
                  <polygon class="cls-10" points="15.742 35.002 15.733 31.969 13.112 30.447 13.121 33.478 15.742 35.002 15.742 35.002"/>
                  <polygon class="cls-8" points="18.362 36.525 18.354 33.492 15.733 31.969 15.742 35.002 18.362 36.525 18.362 36.525"/>
                  <polygon class="cls-6" points="20.983 38.047 20.975 35.017 18.354 33.492 18.362 36.525 20.983 38.047 20.983 38.047"/>
                  <polygon class="cls-6" points="23.605 39.571 23.597 36.539 20.975 35.017 20.983 38.047 23.605 39.571 23.605 39.571"/>
                  <polygon class="cls-11" points="26.226 41.095 26.218 38.063 23.597 36.539 23.605 39.571 26.226 41.095 26.226 41.095"/>
                  <polygon class="cls-14" points="28.848 42.619 28.839 39.586 26.218 38.063 26.226 41.095 28.848 42.619 28.848 42.619"/>
                  <polygon class="cls-13" points="31.469 44.141 31.459 41.108 28.839 39.586 28.848 42.619 31.469 44.141 31.469 44.141"/>
                  <polygon class="cls-8" points="34.089 45.664 34.08 42.632 31.459 41.108 31.469 44.141 34.089 45.664 34.089 45.664"/>
                  <polygon class="cls-7" points="2.63 24.356 2.622 21.325 0 19.802 0.009 22.832 2.63 24.356 2.63 24.356"/>
                  <polygon class="cls-9" points="5.251 25.879 5.243 22.849 2.622 21.325 2.63 24.356 5.251 25.879 5.251 25.879"/>
                  <polygon class="cls-7" points="7.872 27.402 7.865 24.371 5.243 22.849 5.251 25.879 7.872 27.402 7.872 27.402"/>
                  <polygon class="cls-8" points="10.492 28.924 10.484 25.894 7.865 24.371 7.872 27.402 10.492 28.924 10.492 28.924"/>
                  <polygon class="cls-9" points="13.112 30.447 13.104 27.417 10.484 25.894 10.492 28.924 13.112 30.447 13.112 30.447"/>
                  <polygon class="cls-9" points="15.733 31.969 15.726 28.938 13.104 27.417 13.112 30.447 15.733 31.969 15.733 31.969"/>
                  <polygon class="cls-9" points="18.354 33.492 18.345 30.462 15.726 28.938 15.733 31.969 18.354 33.492 18.354 33.492"/>
                  <polygon class="cls-8" points="20.975 35.017 20.967 31.985 18.345 30.462 18.354 33.492 20.975 35.017 20.975 35.017"/>
                  <polygon class="cls-6" points="23.597 36.539 23.588 33.51 20.967 31.985 20.975 35.017 23.597 36.539 23.597 36.539"/>
                  <polygon class="cls-9" points="26.218 38.063 26.209 35.031 23.588 33.51 23.597 36.539 26.218 38.063 26.218 38.063"/>
                  <polygon class="cls-7" points="28.839 39.586 28.83 36.556 26.209 35.031 26.218 38.063 28.839 39.586 28.839 39.586"/>
                  <polygon class="cls-8" points="31.459 41.108 31.451 38.079 28.83 36.556 28.839 39.586 31.459 41.108 31.459 41.108"/>
                  <polygon class="cls-9" points="34.08 42.632 34.071 39.602 31.451 38.079 31.459 41.108 34.08 42.632 34.08 42.632"/>
                </g>
              </g>
            </g>
            <g class="cls-4">
              <polygon class="cls-3" points="34.072 39.601 0 19.8 34.293 0 68.365 19.801 34.072 39.601"/>
              <g class="cls-18">
                <g>
                  <polygon class="cls-6" points="65.742 18.278 63.105 19.801 65.727 21.323 68.365 19.801 65.742 18.278 65.742 18.278"/>
                  <polygon class="cls-6" points="63.121 16.754 60.484 18.277 63.105 19.801 65.742 18.278 63.121 16.754 63.121 16.754"/>
                  <polygon class="cls-7" points="60.5 15.23 57.862 16.754 60.484 18.277 63.121 16.754 60.5 15.23 60.5 15.23"/>
                  <polygon class="cls-8" points="57.882 13.709 55.244 15.231 57.862 16.754 60.5 15.23 57.882 13.709 57.882 13.709"/>
                  <polygon class="cls-6" points="55.261 12.186 52.623 13.709 55.244 15.231 57.882 13.709 55.261 12.186 55.261 12.186"/>
                  <polygon class="cls-9" points="52.64 10.662 50.002 12.186 52.623 13.709 55.261 12.186 52.64 10.662 52.64 10.662"/>
                  <polygon class="cls-9" points="50.018 9.14 47.382 10.662 50.002 12.186 52.64 10.662 50.018 9.14 50.018 9.14"/>
                  <polygon class="cls-8" points="47.398 7.616 44.761 9.14 47.382 10.662 50.018 9.14 47.398 7.616 47.398 7.616"/>
                  <polygon class="cls-9" points="44.776 6.092 42.139 7.615 44.761 9.14 47.398 7.616 44.776 6.092 44.776 6.092"/>
                  <polygon class="cls-9" points="42.155 4.569 39.518 6.092 42.139 7.615 44.776 6.092 42.155 4.569 42.155 4.569"/>
                  <polygon class="cls-9" points="39.534 3.047 36.896 4.568 39.518 6.092 42.155 4.569 39.534 3.047 39.534 3.047"/>
                  <polygon class="cls-8" points="36.914 1.524 34.276 3.047 36.896 4.568 39.534 3.047 36.914 1.524 36.914 1.524"/>
                  <polygon class="cls-10" points="34.293 0.001 31.656 1.524 34.276 3.047 36.914 1.524 34.293 0.001 34.293 0.001"/>
                  <polygon class="cls-8" points="63.105 19.801 60.468 21.323 63.09 22.846 65.727 21.323 63.105 19.801 63.105 19.801"/>
                  <polygon class="cls-8" points="60.484 18.277 57.848 19.8 60.468 21.323 63.105 19.801 60.484 18.277 60.484 18.277"/>
                  <polygon class="cls-8" points="57.862 16.754 55.226 18.275 57.848 19.8 60.484 18.277 57.862 16.754 57.862 16.754"/>
                  <polygon class="cls-9" points="55.244 15.231 52.606 16.754 55.226 18.275 57.862 16.754 55.244 15.231 55.244 15.231"/>
                  <polygon class="cls-6" points="52.623 13.709 49.985 15.231 52.606 16.754 55.244 15.231 52.623 13.709 52.623 13.709"/>
                  <polygon class="cls-13" points="50.002 12.186 47.365 13.708 49.985 15.231 52.623 13.709 50.002 12.186 50.002 12.186"/>
                  <polygon class="cls-7" points="47.382 10.662 44.745 12.186 47.365 13.708 50.002 12.186 47.382 10.662 47.382 10.662"/>
                  <polygon class="cls-8" points="44.761 9.14 42.123 10.662 44.745 12.186 47.382 10.662 44.761 9.14 44.761 9.14"/>
                  <polygon class="cls-9" points="42.139 7.615 39.502 9.138 42.123 10.662 44.761 9.14 42.139 7.615 42.139 7.615"/>
                  <polygon class="cls-6" points="39.518 6.092 36.881 7.615 39.502 9.138 42.139 7.615 39.518 6.092 39.518 6.092"/>
                  <polygon class="cls-7" points="36.896 4.568 34.259 6.091 36.881 7.615 39.518 6.092 36.896 4.568 36.896 4.568"/>
                  <polygon class="cls-12" points="34.276 3.047 31.639 4.568 34.259 6.091 36.896 4.568 34.276 3.047 34.276 3.047"/>
                  <polygon class="cls-8" points="31.656 1.524 29.019 3.047 31.639 4.568 34.276 3.047 31.656 1.524 31.656 1.524"/>
                  <polygon class="cls-6" points="60.468 21.323 57.829 22.846 60.452 24.37 63.09 22.846 60.468 21.323 60.468 21.323"/>
                  <polygon class="cls-13" points="57.848 19.8 55.209 21.323 57.829 22.846 60.468 21.323 57.848 19.8 57.848 19.8"/>
                  <polygon class="cls-15" points="55.226 18.275 52.587 19.8 55.209 21.323 57.848 19.8 55.226 18.275 55.226 18.275"/>
                  <polygon class="cls-9" points="52.606 16.754 49.969 18.278 52.587 19.8 55.226 18.275 52.606 16.754 52.606 16.754"/>
                  <polygon class="cls-9" points="49.985 15.231 47.349 16.755 49.969 18.278 52.606 16.754 49.985 15.231 49.985 15.231"/>
                  <polygon class="cls-9" points="47.365 13.708 44.726 15.231 47.349 16.755 49.985 15.231 47.365 13.708 47.365 13.708"/>
                  <polygon class="cls-9" points="44.745 12.186 42.107 13.709 44.726 15.231 47.365 13.708 44.745 12.186 44.745 12.186"/>
                  <polygon class="cls-8" points="42.123 10.662 39.485 12.186 42.107 13.709 44.745 12.186 42.123 10.662 42.123 10.662"/>
                  <polygon class="cls-14" points="39.502 9.138 36.863 10.662 39.485 12.186 42.123 10.662 39.502 9.138 39.502 9.138"/>
                  <polygon class="cls-9" points="36.881 7.615 34.243 9.138 36.863 10.662 39.502 9.138 36.881 7.615 36.881 7.615"/>
                  <polygon class="cls-8" points="34.259 6.091 31.621 7.615 34.243 9.138 36.881 7.615 34.259 6.091 34.259 6.091"/>
                  <polygon class="cls-16" points="31.639 4.568 29 6.092 31.621 7.615 34.259 6.091 31.639 4.568 31.639 4.568"/>
                  <polygon class="cls-6" points="29.019 3.047 26.38 4.569 29 6.092 31.639 4.568 29.019 3.047 29.019 3.047"/>
                  <polygon class="cls-13" points="57.829 22.846 55.19 24.37 57.812 25.893 60.452 24.37 57.829 22.846 57.829 22.846"/>
                  <polygon class="cls-11" points="55.209 21.323 52.569 22.846 55.19 24.37 57.829 22.846 55.209 21.323 55.209 21.323"/>
                  <polygon class="cls-14" points="52.587 19.8 49.947 21.323 52.569 22.846 55.209 21.323 52.587 19.8 52.587 19.8"/>
                  <polygon class="cls-8" points="49.969 18.278 47.33 19.801 49.947 21.323 52.587 19.8 49.969 18.278 49.969 18.278"/>
                  <polygon class="cls-6" points="47.349 16.755 44.71 18.278 47.33 19.801 49.969 18.278 47.349 16.755 47.349 16.755"/>
                  <polygon class="cls-8" points="44.726 15.231 42.089 16.755 44.71 18.278 47.349 16.755 44.726 15.231 44.726 15.231"/>
                  <polygon class="cls-9" points="42.107 13.709 39.469 15.231 42.089 16.755 44.726 15.231 42.107 13.709 42.107 13.709"/>
                  <polygon class="cls-9" points="39.485 12.186 36.846 13.709 39.469 15.231 42.107 13.709 39.485 12.186 39.485 12.186"/>
                  <polygon class="cls-13" points="36.863 10.662 34.225 12.186 36.846 13.709 39.485 12.186 36.863 10.662 36.863 10.662"/>
                  <polygon class="cls-14" points="34.243 9.138 31.603 10.662 34.225 12.186 36.863 10.662 34.243 9.138 34.243 9.138"/>
                  <polygon class="cls-15" points="31.621 7.615 28.982 9.138 31.603 10.662 34.243 9.138 31.621 7.615 31.621 7.615"/>
                  <polygon class="cls-8" points="29 6.092 26.361 7.615 28.982 9.138 31.621 7.615 29 6.092 29 6.092"/>
                  <polygon class="cls-8" points="26.38 4.569 23.742 6.092 26.361 7.615 29 6.092 26.38 4.569 26.38 4.569"/>
                  <polygon class="cls-6" points="55.19 24.37 52.554 25.892 55.176 27.416 57.812 25.893 55.19 24.37 55.19 24.37"/>
                  <polygon class="cls-14" points="52.569 22.846 49.932 24.368 52.554 25.892 55.19 24.37 52.569 22.846 52.569 22.846"/>
                  <polygon class="cls-9" points="49.947 21.323 47.311 22.845 49.932 24.368 52.569 22.846 49.947 21.323 49.947 21.323"/>
                  <polygon class="cls-6" points="47.33 19.801 44.692 21.323 47.311 22.845 49.947 21.323 47.33 19.801 47.33 19.801"/>
                  <polygon class="cls-8" points="44.71 18.278 42.072 19.801 44.692 21.323 47.33 19.801 44.71 18.278 44.71 18.278"/>
                  <polygon class="cls-9" points="42.089 16.755 39.45 18.278 42.072 19.801 44.71 18.278 42.089 16.755 42.089 16.755"/>
                  <polygon class="cls-8" points="39.469 15.231 36.83 16.755 39.45 18.278 42.089 16.755 39.469 15.231 39.469 15.231"/>
                  <polygon class="cls-9" points="36.846 13.709 34.209 15.231 36.83 16.755 39.469 15.231 36.846 13.709 36.846 13.709"/>
                  <polygon class="cls-6" points="34.225 12.186 31.588 13.708 34.209 15.231 36.846 13.709 34.225 12.186 34.225 12.186"/>
                  <polygon class="cls-11" points="31.603 10.662 28.967 12.185 31.588 13.708 34.225 12.186 31.603 10.662 31.603 10.662"/>
                  <polygon class="cls-14" points="28.982 9.138 26.345 10.661 28.967 12.185 31.603 10.662 28.982 9.138 28.982 9.138"/>
                  <polygon class="cls-7" points="26.361 7.615 23.725 9.138 26.345 10.661 28.982 9.138 26.361 7.615 26.361 7.615"/>
                  <polygon class="cls-9" points="23.742 6.092 21.105 7.615 23.725 9.138 26.361 7.615 23.742 6.092 23.742 6.092"/>
                  <polygon class="cls-8" points="52.554 25.892 49.916 27.416 52.537 28.937 55.176 27.416 52.554 25.892 52.554 25.892"/>
                  <polygon class="cls-9" points="49.932 24.368 47.293 25.892 49.916 27.416 52.554 25.892 49.932 24.368 49.932 24.368"/>
                  <polygon class="cls-7" points="47.311 22.845 44.673 24.368 47.293 25.892 49.932 24.368 47.311 22.845 47.311 22.845"/>
                  <polygon class="cls-9" points="44.692 21.323 42.052 22.848 44.673 24.368 47.311 22.845 44.692 21.323 44.692 21.323"/>
                  <polygon class="cls-8" points="42.072 19.801 39.434 21.324 42.052 22.848 44.692 21.323 42.072 19.801 42.072 19.801"/>
                  <polygon class="cls-13" points="39.45 18.278 36.812 19.801 39.434 21.324 42.072 19.801 39.45 18.278 39.45 18.278"/>
                  <polygon class="cls-14" points="36.83 16.755 34.192 18.278 36.812 19.801 39.45 18.278 36.83 16.755 36.83 16.755"/>
                  <polygon class="cls-8" points="34.209 15.231 31.57 16.755 34.192 18.278 36.83 16.755 34.209 15.231 34.209 15.231"/>
                  <polygon class="cls-9" points="31.588 13.708 28.95 15.231 31.57 16.755 34.209 15.231 31.588 13.708 31.588 13.708"/>
                  <polygon class="cls-8" points="28.967 12.185 26.328 13.708 28.95 15.231 31.588 13.708 28.967 12.185 28.967 12.185"/>
                  <polygon class="cls-9" points="26.345 10.661 23.705 12.185 26.328 13.708 28.967 12.185 26.345 10.661 26.345 10.661"/>
                  <polygon class="cls-9" points="23.725 9.138 21.086 10.662 23.705 12.185 26.345 10.661 23.725 9.138 23.725 9.138"/>
                  <polygon class="cls-16" points="21.105 7.615 18.466 9.14 21.086 10.662 23.725 9.138 21.105 7.615 21.105 7.615"/>
                  <polygon class="cls-9" points="49.916 27.416 47.276 28.937 49.898 30.462 52.537 28.937 49.916 27.416 49.916 27.416"/>
                  <polygon class="cls-8" points="47.293 25.892 44.655 27.416 47.276 28.937 49.916 27.416 47.293 25.892 47.293 25.892"/>
                  <polygon class="cls-9" points="44.673 24.368 42.034 25.892 44.655 27.416 47.293 25.892 44.673 24.368 44.673 24.368"/>
                  <polygon class="cls-13" points="42.052 22.848 39.416 24.37 42.034 25.892 44.673 24.368 42.052 22.848 42.052 22.848"/>
                  <polygon class="cls-11" points="39.434 21.324 36.796 22.848 39.416 24.37 42.052 22.848 39.434 21.324 39.434 21.324"/>
                  <polygon class="cls-14" points="36.812 19.801 34.173 21.324 36.796 22.848 39.434 21.324 36.812 19.801 36.812 19.801"/>
                  <polygon class="cls-7" points="34.192 18.278 31.553 19.802 34.173 21.324 36.812 19.801 34.192 18.278 34.192 18.278"/>
                  <polygon class="cls-9" points="31.57 16.755 28.932 18.278 31.553 19.802 34.192 18.278 31.57 16.755 31.57 16.755"/>
                  <polygon class="cls-8" points="28.95 15.231 26.31 16.755 28.932 18.278 31.57 16.755 28.95 15.231 28.95 15.231"/>
                  <polygon class="cls-6" points="26.328 13.708 23.689 15.231 26.31 16.755 28.95 15.231 26.328 13.708 26.328 13.708"/>
                  <polygon class="cls-7" points="23.705 12.185 21.067 13.708 23.689 15.231 26.328 13.708 23.705 12.185 23.705 12.185"/>
                  <polygon class="cls-9" points="21.086 10.662 18.447 12.186 21.067 13.708 23.705 12.185 21.086 10.662 21.086 10.662"/>
                  <polygon class="cls-10" points="18.466 9.14 15.827 10.662 18.447 12.186 21.086 10.662 18.466 9.14 18.466 9.14"/>
                  <polygon class="cls-8" points="47.276 28.937 44.638 30.462 47.26 31.985 49.898 30.462 47.276 28.937 47.276 28.937"/>
                  <polygon class="cls-9" points="44.655 27.416 42.017 28.937 44.638 30.462 47.276 28.937 44.655 27.416 44.655 27.416"/>
                  <polygon class="cls-8" points="42.034 25.892 39.395 27.416 42.017 28.937 44.655 27.416 42.034 25.892 42.034 25.892"/>
                  <polygon class="cls-9" points="39.416 24.37 36.777 25.894 39.395 27.416 42.034 25.892 39.416 24.37 39.416 24.37"/>
                  <polygon class="cls-6" points="36.796 22.848 34.156 24.371 36.777 25.894 39.416 24.37 36.796 22.848 36.796 22.848"/>
                  <polygon class="cls-6" points="34.173 21.324 31.535 22.848 34.156 24.371 36.796 22.848 34.173 21.324 34.173 21.324"/>
                  <polygon class="cls-9" points="31.553 19.802 28.915 21.325 31.535 22.848 34.173 21.324 31.553 19.802 31.553 19.802"/>
                  <polygon class="cls-8" points="28.932 18.278 26.293 19.802 28.915 21.325 31.553 19.802 28.932 18.278 28.932 18.278"/>
                  <polygon class="cls-9" points="26.31 16.755 23.672 18.278 26.293 19.802 28.932 18.278 26.31 16.755 26.31 16.755"/>
                  <polygon class="cls-6" points="23.689 15.231 21.051 16.755 23.672 18.278 26.31 16.755 23.689 15.231 23.689 15.231"/>
                  <polygon class="cls-9" points="21.067 13.708 18.429 15.23 21.051 16.755 23.689 15.231 21.067 13.708 21.067 13.708"/>
                  <polygon class="cls-9" points="18.447 12.186 15.809 13.709 18.429 15.23 21.067 13.708 18.447 12.186 18.447 12.186"/>
                  <polygon class="cls-9" points="15.827 10.662 13.189 12.186 15.809 13.709 18.447 12.186 15.827 10.662 15.827 10.662"/>
                  <polygon class="cls-6" points="44.638 30.462 42.001 31.985 44.622 33.508 47.26 31.985 44.638 30.462 44.638 30.462"/>
                  <polygon class="cls-6" points="42.017 28.937 39.38 30.461 42.001 31.985 44.638 30.462 42.017 28.937 42.017 28.937"/>
                  <polygon class="cls-9" points="39.395 27.416 36.757 28.937 39.38 30.461 42.017 28.937 39.395 27.416 39.395 27.416"/>
                  <polygon class="cls-8" points="36.777 25.894 34.14 27.417 36.757 28.937 39.395 27.416 36.777 25.894 36.777 25.894"/>
                  <polygon class="cls-7" points="34.156 24.371 31.519 25.894 34.14 27.417 36.777 25.894 34.156 24.371 34.156 24.371"/>
                  <polygon class="cls-9" points="31.535 22.848 28.898 24.37 31.519 25.894 34.156 24.371 31.535 22.848 31.535 22.848"/>
                  <polygon class="cls-9" points="28.915 21.325 26.278 22.848 28.898 24.37 31.535 22.848 28.915 21.325 28.915 21.325"/>
                  <polygon class="cls-7" points="26.293 19.802 23.656 21.324 26.278 22.848 28.915 21.325 26.293 19.802 26.293 19.802"/>
                  <polygon class="cls-6" points="23.672 18.278 21.035 19.801 23.656 21.324 26.293 19.802 23.672 18.278 23.672 18.278"/>
                  <polygon class="cls-14" points="21.051 16.755 18.413 18.278 21.035 19.801 23.672 18.278 21.051 16.755 21.051 16.755"/>
                  <polygon class="cls-14" points="18.429 15.23 15.792 16.754 18.413 18.278 21.051 16.755 18.429 15.23 18.429 15.23"/>
                  <polygon class="cls-8" points="15.809 13.709 13.172 15.23 15.792 16.754 18.429 15.23 15.809 13.709 15.809 13.709"/>
                  <polygon class="cls-8" points="13.189 12.186 10.551 13.709 13.172 15.23 15.809 13.709 13.189 12.186 13.189 12.186"/>
                  <polygon class="cls-13" points="42.001 31.985 39.363 33.508 41.986 35.031 44.622 33.508 42.001 31.985 42.001 31.985"/>
                  <polygon class="cls-14" points="39.38 30.461 36.743 31.984 39.363 33.508 42.001 31.985 39.38 30.461 39.38 30.461"/>
                  <polygon class="cls-9" points="36.757 28.937 34.12 30.46 36.743 31.984 39.38 30.461 36.757 28.937 36.757 28.937"/>
                  <polygon class="cls-6" points="34.14 27.417 31.502 28.937 34.12 30.46 36.757 28.937 34.14 27.417 34.14 27.417"/>
                  <polygon class="cls-9" points="31.519 25.894 28.882 27.417 31.502 28.937 34.14 27.417 31.519 25.894 31.519 25.894"/>
                  <polygon class="cls-9" points="28.898 24.37 26.26 25.893 28.882 27.417 31.519 25.894 28.898 24.37 28.898 24.37"/>
                  <polygon class="cls-7" points="26.278 22.848 23.641 24.37 26.26 25.893 28.898 24.37 26.278 22.848 26.278 22.848"/>
                  <polygon class="cls-12" points="23.656 21.324 21.019 22.848 23.641 24.37 26.278 22.848 23.656 21.324 23.656 21.324"/>
                  <polygon class="cls-13" points="21.035 19.801 18.397 21.323 21.019 22.848 23.656 21.324 21.035 19.801 21.035 19.801"/>
                  <polygon class="cls-11" points="18.413 18.278 15.776 19.801 18.397 21.323 21.035 19.801 18.413 18.278 18.413 18.278"/>
                  <polygon class="cls-14" points="15.792 16.754 13.154 18.277 15.776 19.801 18.413 18.278 15.792 16.754 15.792 16.754"/>
                  <polygon class="cls-15" points="13.172 15.23 10.534 16.754 13.154 18.277 15.792 16.754 13.172 15.23 13.172 15.23"/>
                  <polygon class="cls-6" points="10.551 13.709 7.914 15.23 10.534 16.754 13.172 15.23 10.551 13.709 10.551 13.709"/>
                  <polygon class="cls-7" points="39.363 33.508 36.726 35.029 39.348 36.554 41.986 35.031 39.363 33.508 39.363 33.508"/>
                  <polygon class="cls-9" points="36.743 31.984 34.104 33.507 36.726 35.029 39.363 33.508 36.743 31.984 36.743 31.984"/>
                  <polygon class="cls-13" points="34.12 30.46 31.483 31.983 34.104 33.507 36.743 31.984 34.12 30.46 34.12 30.46"/>
                  <polygon class="cls-11" points="31.502 28.937 28.866 30.461 31.483 31.983 34.12 30.46 31.502 28.937 31.502 28.937"/>
                  <polygon class="cls-6" points="28.882 27.417 26.245 28.937 28.866 30.461 31.502 28.937 28.882 27.417 28.882 27.417"/>
                  <polygon class="cls-7" points="26.26 25.893 23.623 27.416 26.245 28.937 28.882 27.417 26.26 25.893 26.26 25.893"/>
                  <polygon class="cls-9" points="23.641 24.37 21.003 25.893 23.623 27.416 26.26 25.893 23.641 24.37 23.641 24.37"/>
                  <polygon class="cls-6" points="21.019 22.848 18.382 24.368 21.003 25.893 23.641 24.37 21.019 22.848 21.019 22.848"/>
                  <polygon class="cls-9" points="18.397 21.323 15.76 22.846 18.382 24.368 21.019 22.848 18.397 21.323 18.397 21.323"/>
                  <polygon class="cls-13" points="15.776 19.801 13.138 21.321 15.76 22.846 18.397 21.323 15.776 19.801 15.776 19.801"/>
                  <polygon class="cls-11" points="13.154 18.277 10.517 19.8 13.138 21.321 15.776 19.801 13.154 18.277 13.154 18.277"/>
                  <polygon class="cls-8" points="10.534 16.754 7.897 18.277 10.517 19.8 13.154 18.277 10.534 16.754 10.534 16.754"/>
                  <polygon class="cls-9" points="7.914 15.23 5.277 16.754 7.897 18.277 10.534 16.754 7.914 15.23 7.914 15.23"/>
                  <polygon class="cls-6" points="36.726 35.029 34.088 36.554 36.709 38.077 39.348 36.554 36.726 35.029 36.726 35.029"/>
                  <polygon class="cls-7" points="34.104 33.507 31.466 35.029 34.088 36.554 36.726 35.029 34.104 33.507 34.104 33.507"/>
                  <polygon class="cls-13" points="31.483 31.983 28.845 33.507 31.466 35.029 34.104 33.507 31.483 31.983 31.483 31.983"/>
                  <polygon class="cls-14" points="28.866 30.461 26.226 31.985 28.845 33.507 31.483 31.983 28.866 30.461 28.866 30.461"/>
                  <polygon class="cls-15" points="26.245 28.937 23.605 30.462 26.226 31.985 28.866 30.461 26.245 28.937 26.245 28.937"/>
                  <polygon class="cls-10" points="23.623 27.416 20.984 28.937 23.605 30.462 26.245 28.937 23.623 27.416 23.623 27.416"/>
                  <polygon class="cls-8" points="21.003 25.893 18.364 27.417 20.984 28.937 23.623 27.416 21.003 25.893 21.003 25.893"/>
                  <polygon class="cls-6" points="18.382 24.368 15.743 25.893 18.364 27.417 21.003 25.893 18.382 24.368 18.382 24.368"/>
                  <polygon class="cls-6" points="15.76 22.846 13.122 24.368 15.743 25.893 18.382 24.368 15.76 22.846 15.76 22.846"/>
                  <polygon class="cls-6" points="13.138 21.321 10.5 22.846 13.122 24.368 15.76 22.846 13.138 21.321 13.138 21.321"/>
                  <polygon class="cls-9" points="10.517 19.8 7.879 21.321 10.5 22.846 13.138 21.321 10.517 19.8 10.517 19.8"/>
                  <polygon class="cls-12" points="7.897 18.277 5.258 19.8 7.879 21.321 10.517 19.8 7.897 18.277 7.897 18.277"/>
                  <polygon class="cls-8" points="5.277 16.754 2.639 18.278 5.258 19.8 7.897 18.277 5.277 16.754 5.277 16.754"/>
                  <polygon class="cls-7" points="34.088 36.554 31.451 38.077 34.072 39.6 36.709 38.077 34.088 36.554 34.088 36.554"/>
                  <polygon class="cls-9" points="31.466 35.029 28.829 36.553 31.451 38.077 34.088 36.554 31.466 35.029 31.466 35.029"/>
                  <polygon class="cls-7" points="28.845 33.507 26.207 35.029 28.829 36.553 31.466 35.029 28.845 33.507 28.845 33.507"/>
                  <polygon class="cls-8" points="26.226 31.985 23.589 33.507 26.207 35.029 28.845 33.507 26.226 31.985 26.226 31.985"/>
                  <polygon class="cls-9" points="23.605 30.462 20.969 31.985 23.589 33.507 26.226 31.985 23.605 30.462 23.605 30.462"/>
                  <polygon class="cls-9" points="20.984 28.937 18.348 30.461 20.969 31.985 23.605 30.462 20.984 28.937 20.984 28.937"/>
                  <polygon class="cls-9" points="18.364 27.417 15.727 28.937 18.348 30.461 20.984 28.937 18.364 27.417 18.364 27.417"/>
                  <polygon class="cls-8" points="15.743 25.893 13.106 27.416 15.727 28.937 18.364 27.417 15.743 25.893 15.743 25.893"/>
                  <polygon class="cls-6" points="13.122 24.368 10.485 25.892 13.106 27.416 15.743 25.893 13.122 24.368 13.122 24.368"/>
                  <polygon class="cls-9" points="10.5 22.846 7.863 24.368 10.485 25.892 13.122 24.368 10.5 22.846 10.5 22.846"/>
                  <polygon class="cls-7" points="7.879 21.321 5.242 22.845 7.863 24.368 10.5 22.846 7.879 21.321 7.879 21.321"/>
                  <polygon class="cls-8" points="5.258 19.8 2.622 21.321 5.242 22.845 7.879 21.321 5.258 19.8 5.258 19.8"/>
                  <polygon class="cls-9" points="2.639 18.278 0.001 19.8 2.622 21.321 5.258 19.8 2.639 18.278 2.639 18.278"/>
                </g>
              </g>
            </g>
          </g>
          <g>
            <g class="cls-19">
              <polygon class="cls-20" points="68.365 19.802 68.478 59.209 34.183 79.01 34.072 39.601 68.365 19.802"/>
            </g>
            <polygon class="cls-21" points="34.183 79.01 0.111 59.207 0 19.801 34.072 39.601 34.183 79.01"/>
            <polygon class="cls-22" points="34.072 39.601 0 19.801 34.293 0 68.365 19.802 34.072 39.601"/>
          </g>
        </g>
      </g>
    </g>
  </g>
</svg>
