<svg xmlns="http://www.w3.org/2000/svg" xmlns:xlink="http://www.w3.org/1999/xlink" viewBox="0 0 68.4804 79.0127">
  <defs>
    <style>
      .cls-1 {
        fill: #323232;
      }

      .cls-2 {
        fill: #454545;
      }

      .cls-3 {
        fill: #575757;
      }

      .cls-4 {
        isolation: isolate;
      }

      .cls-5 {
        clip-path: url(#clip-path);
      }

      .cls-6 {
        fill: #c71600;
      }

      .cls-7 {
        fill: #baa3a1;
      }

      .cls-8 {
        fill: #e32008;
      }

      .cls-9 {
        fill: #d0c3c0;
      }

      .cls-10 {
        fill: #220e0b;
      }

      .cls-11 {
        fill: #db2005;
      }

      .cls-12 {
        fill: #c8b9b7;
      }

      .cls-13 {
        fill: #af1606;
      }

      .cls-14 {
        fill: #a31607;
      }

      .cls-15 {
        fill: #981406;
      }

      .cls-16 {
        fill: #740f05;
      }

      .cls-17 {
        fill: #8d8584;
      }

      .cls-18 {
        fill: #978e8e;
      }

      .cls-19 {
        fill: #a29795;
      }

      .cls-20 {
        clip-path: url(#clip-path-2);
      }

      .cls-21 {
        fill: #cb1600;
      }

      .cls-22 {
        fill: #fe9183;
      }

      .cls-23 {
        fill: #e72008;
      }

      .cls-24 {
        fill: #ffb4aa;
      }

      .cls-25 {
        fill: #2d120f;
      }

      .cls-26 {
        fill: #ac1a04;
      }

      .cls-27 {
        fill: #ffab9e;
      }

      .cls-28 {
        fill: #690d04;
      }

      .cls-29 {
        fill: #db8880;
      }

      .cls-30 {
        fill: #e28d85;
      }

      .cls-31 {
        fill: #6f0e04;
      }

      .cls-32 {
        fill: #b21606;
      }

      .cls-33 {
        fill: #eb9187;
      }

      .cls-34 {
        fill: #de2106;
      }

      .cls-35 {
        fill: #b51906;
      }

      .cls-36 {
        clip-path: url(#clip-path-3);
      }

      .cls-37 {
        fill: #d61c07;
      }

      .cls-38 {
        fill: #e52007;
      }

      .cls-39 {
        fill: #c81c08;
      }

      .cls-40 {
        fill: #311c19;
      }

      .cls-41 {
        fill: #921306;
      }

      .cls-42 {
        fill: #ff5d4a;
      }

      .cls-43 {
        fill: #4f2c28;
      }

      .cls-44 {
        fill: #a91607;
      }

      .cls-45 {
        fill: #b91808;
      }

      .cls-46 {
        opacity: 0.6;
        mix-blend-mode: multiply;
        fill: url(#linear-gradient);
      }

      .cls-47 {
        fill: #616161;
      }

      .cls-47, .cls-48 {
        opacity: 0.3;
        mix-blend-mode: color-dodge;
      }

      .cls-48 {
        fill: url(#linear-gradient-2);
      }

      .cls-49 {
        fill: #fff;
        opacity: 0.8;
        mix-blend-mode: color;
      }
    </style>
    <clipPath id="clip-path" transform="translate(0 0.0019)">
      <polygon class="cls-1" points="68.368 19.801 68.479 59.209 34.184 79.01 34.073 39.601 68.368 19.801"/>
    </clipPath>
    <clipPath id="clip-path-2" transform="translate(0 0.0019)">
      <polygon class="cls-2" points="34.184 79.01 0.111 59.207 0 19.801 34.073 39.601 34.184 79.01"/>
    </clipPath>
    <clipPath id="clip-path-3" transform="translate(0 0.0019)">
      <polygon class="cls-3" points="34.073 39.601 0 19.801 34.295 0 68.368 19.801 34.073 39.601"/>
    </clipPath>
    <linearGradient id="linear-gradient" x1="29.60815" y1="37.49969" x2="72.30089" y2="60.96149" gradientUnits="userSpaceOnUse">
      <stop offset="0" stop-color="#fff"/>
      <stop offset="0.10549" stop-color="#eadcdc"/>
      <stop offset="0.35664" stop-color="#bc8f8f"/>
      <stop offset="0.58058" stop-color="#975252"/>
      <stop offset="0.76909" stop-color="#7c2525"/>
      <stop offset="0.91475" stop-color="#6c0a0a"/>
      <stop offset="1" stop-color="#600"/>
    </linearGradient>
    <linearGradient id="linear-gradient-2" x1="-1.46887" y1="87.30699" x2="75.45425" y2="-58.33427" gradientUnits="userSpaceOnUse">
      <stop offset="0" stop-color="#eedfd5"/>
      <stop offset="1"/>
    </linearGradient>
  </defs>
  <g class="cls-4">
    <g id="Layer_2" data-name="Layer 2">
      <g id="Layer_1-2" data-name="Layer 1">
        <g id="_13" data-name="13">
          <g id="_9" data-name="9">
            <g class="cls-4">
              <g class="cls-4">
                <polygon class="cls-1" points="68.368 19.803 68.479 59.211 34.184 79.012 34.073 39.602 68.368 19.803"/>
                <g class="cls-5">
                  <g>
                    <polygon class="cls-6" points="36.71 38.08 34.073 39.602 34.081 42.634 36.718 41.11 36.71 38.08 36.71 38.08"/>
                    <polygon class="cls-6" points="36.718 41.11 34.081 42.634 34.09 45.666 36.727 44.142 36.718 41.11 36.718 41.11"/>
                    <polygon class="cls-6" points="36.727 44.142 34.09 45.666 34.098 48.697 36.735 47.176 36.727 44.142 36.727 44.142"/>
                    <polygon class="cls-7" points="36.735 47.176 34.098 48.697 34.106 51.73 36.743 50.207 36.735 47.176 36.735 47.176"/>
                    <polygon class="cls-7" points="36.743 50.207 34.106 51.73 34.114 54.76 36.751 53.238 36.743 50.207 36.743 50.207"/>
                    <polygon class="cls-7" points="36.751 53.238 34.114 54.76 34.123 57.791 36.76 56.267 36.751 53.238 36.751 53.238"/>
                    <polygon class="cls-7" points="36.76 56.267 34.123 57.791 34.133 60.822 36.77 59.301 36.76 56.267 36.76 56.267"/>
                    <polygon class="cls-7" points="36.77 59.301 34.133 60.822 34.141 63.855 36.777 62.332 36.77 59.301 36.77 59.301"/>
                    <polygon class="cls-7" points="36.777 62.332 34.141 63.855 34.149 66.885 36.786 65.363 36.777 62.332 36.777 62.332"/>
                    <polygon class="cls-6" points="36.786 65.363 34.149 66.885 34.157 69.917 36.795 68.394 36.786 65.363 36.786 65.363"/>
                    <polygon class="cls-6" points="36.795 68.394 34.157 69.917 34.166 72.949 36.803 71.426 36.795 68.394 36.795 68.394"/>
                    <polygon class="cls-6" points="36.803 71.426 34.166 72.949 34.176 75.979 36.813 74.457 36.803 71.426 36.803 71.426"/>
                    <polygon class="cls-6" points="36.813 74.457 34.176 75.979 34.184 79.009 36.821 77.487 36.813 74.457 36.813 74.457"/>
                    <polygon class="cls-8" points="39.348 36.556 36.71 38.08 36.718 41.11 39.356 39.588 39.348 36.556 39.348 36.556"/>
                    <polygon class="cls-8" points="39.356 39.588 36.718 41.11 36.727 44.142 39.364 42.621 39.356 39.588 39.356 39.588"/>
                    <polygon class="cls-8" points="39.364 42.621 36.727 44.142 36.735 47.176 39.373 45.651 39.364 42.621 39.364 42.621"/>
                    <polygon class="cls-9" points="39.373 45.651 36.735 47.176 36.743 50.207 39.383 48.684 39.373 45.651 39.373 45.651"/>
                    <polygon class="cls-10" points="39.383 48.684 36.743 50.207 36.751 53.238 39.391 51.714 39.383 48.684 39.383 48.684"/>
                    <polygon class="cls-9" points="39.391 51.714 36.751 53.238 36.76 56.267 39.398 54.746 39.391 51.714 39.391 51.714"/>
                    <polygon class="cls-9" points="39.398 54.746 36.76 56.267 36.77 59.301 39.406 57.777 39.398 54.746 39.398 54.746"/>
                    <polygon class="cls-9" points="39.406 57.777 36.77 59.301 36.777 62.332 39.417 60.809 39.406 57.777 39.406 57.777"/>
                    <polygon class="cls-9" points="39.417 60.809 36.777 62.332 36.786 65.363 39.425 63.839 39.417 60.809 39.417 60.809"/>
                    <polygon class="cls-8" points="39.425 63.839 36.786 65.363 36.795 68.394 39.434 66.871 39.425 63.839 39.425 63.839"/>
                    <polygon class="cls-8" points="39.434 66.871 36.795 68.394 36.803 71.426 39.442 69.903 39.434 66.871 39.434 66.871"/>
                    <polygon class="cls-8" points="39.442 69.903 36.803 71.426 36.813 74.457 39.451 72.934 39.442 69.903 39.442 69.903"/>
                    <polygon class="cls-8" points="39.451 72.934 36.813 74.457 36.821 77.487 39.46 75.964 39.451 72.934 39.451 72.934"/>
                    <polygon class="cls-6" points="41.986 35.033 39.348 36.556 39.356 39.588 41.995 38.064 41.986 35.033 41.986 35.033"/>
                    <polygon class="cls-11" points="41.995 38.064 39.356 39.588 39.364 42.621 42.003 41.097 41.995 38.064 41.995 38.064"/>
                    <polygon class="cls-6" points="42.003 41.097 39.364 42.621 39.373 45.651 42.012 44.129 42.003 41.097 42.003 41.097"/>
                    <polygon class="cls-12" points="42.012 44.129 39.373 45.651 39.383 48.684 42.021 47.159 42.012 44.129 42.012 44.129"/>
                    <polygon class="cls-10" points="42.021 47.159 39.383 48.684 39.391 51.714 42.029 50.191 42.021 47.159 42.021 47.159"/>
                    <polygon class="cls-10" points="42.029 50.191 39.391 51.714 39.398 54.746 42.038 53.222 42.029 50.191 42.029 50.191"/>
                    <polygon class="cls-10" points="42.038 53.222 39.398 54.746 39.406 57.777 42.046 56.254 42.038 53.222 42.038 53.222"/>
                    <polygon class="cls-10" points="42.046 56.254 39.406 57.777 39.417 60.809 42.056 59.285 42.046 56.254 42.046 56.254"/>
                    <polygon class="cls-12" points="42.056 59.285 39.417 60.809 39.425 63.839 42.064 62.314 42.056 59.285 42.056 59.285"/>
                    <polygon class="cls-13" points="42.064 62.314 39.425 63.839 39.434 66.871 42.072 65.348 42.064 62.314 42.064 62.314"/>
                    <polygon class="cls-6" points="42.072 65.348 39.434 66.871 39.442 69.903 42.08 68.38 42.072 65.348 42.072 65.348"/>
                    <polygon class="cls-11" points="42.08 68.38 39.442 69.903 39.451 72.934 42.09 71.41 42.08 68.38 42.08 68.38"/>
                    <polygon class="cls-6" points="42.09 71.41 39.451 72.934 39.46 75.964 42.099 74.44 42.09 71.41 42.09 71.41"/>
                    <polygon class="cls-14" points="44.625 33.509 41.986 35.033 41.995 38.064 44.633 36.541 44.625 33.509 44.625 33.509"/>
                    <polygon class="cls-15" points="44.633 36.541 41.995 38.064 42.003 41.097 44.642 39.572 44.633 36.541 44.633 36.541"/>
                    <polygon class="cls-16" points="44.642 39.572 42.003 41.097 42.012 44.129 44.65 42.604 44.642 39.572 44.642 39.572"/>
                    <polygon class="cls-17" points="44.65 42.604 42.012 44.129 42.021 47.159 44.659 45.638 44.65 42.604 44.65 42.604"/>
                    <polygon class="cls-10" points="44.659 45.638 42.021 47.159 42.029 50.191 44.669 48.668 44.659 45.638 44.659 45.638"/>
                    <polygon class="cls-18" points="44.669 48.668 42.029 50.191 42.038 53.222 44.677 51.697 44.669 48.668 44.669 48.668"/>
                    <polygon class="cls-17" points="44.677 51.697 42.038 53.222 42.046 56.254 44.684 54.729 44.677 51.697 44.677 51.697"/>
                    <polygon class="cls-17" points="44.684 54.729 42.046 56.254 42.056 59.285 44.693 57.762 44.684 54.729 44.684 54.729"/>
                    <polygon class="cls-17" points="44.693 57.762 42.056 59.285 42.064 62.314 44.702 60.793 44.693 57.762 44.693 57.762"/>
                    <polygon class="cls-16" points="44.702 60.793 42.064 62.314 42.072 65.348 44.71 63.824 44.702 60.793 44.702 60.793"/>
                    <polygon class="cls-15" points="44.71 63.824 42.072 65.348 42.08 68.38 44.719 66.855 44.71 63.824 44.71 63.824"/>
                    <polygon class="cls-14" points="44.719 66.855 42.08 68.38 42.09 71.41 44.729 69.887 44.719 66.855 44.719 66.855"/>
                    <polygon class="cls-15" points="44.729 69.887 42.09 71.41 42.099 74.44 44.737 72.917 44.729 69.887 44.729 69.887"/>
                    <polygon class="cls-13" points="47.262 31.986 44.625 33.509 44.633 36.541 47.271 35.018 47.262 31.986 47.262 31.986"/>
                    <polygon class="cls-13" points="47.271 35.018 44.633 36.541 44.642 39.572 47.279 38.05 47.271 35.018 47.271 35.018"/>
                    <polygon class="cls-13" points="47.279 38.05 44.642 39.572 44.65 42.604 47.288 41.082 47.279 38.05 47.279 38.05"/>
                    <polygon class="cls-19" points="47.288 41.082 44.65 42.604 44.659 45.638 47.297 44.114 47.288 41.082 47.288 41.082"/>
                    <polygon class="cls-19" points="47.297 44.114 44.659 45.638 44.669 48.668 47.306 47.144 47.297 44.114 47.297 44.114"/>
                    <polygon class="cls-19" points="47.306 47.144 44.669 48.668 44.677 51.697 47.313 50.176 47.306 47.144 47.306 47.144"/>
                    <polygon class="cls-19" points="47.313 50.176 44.677 51.697 44.684 54.729 47.322 53.206 47.313 50.176 47.313 50.176"/>
                    <polygon class="cls-19" points="47.322 53.206 44.684 54.729 44.693 57.762 47.33 56.239 47.322 53.206 47.322 53.206"/>
                    <polygon class="cls-19" points="47.33 56.239 44.693 57.762 44.702 60.793 47.339 59.269 47.33 56.239 47.33 56.239"/>
                    <polygon class="cls-13" points="47.339 59.269 44.702 60.793 44.71 63.824 47.349 62.302 47.339 59.269 47.339 59.269"/>
                    <polygon class="cls-13" points="47.349 62.302 44.71 63.824 44.719 66.855 47.356 65.334 47.349 62.302 47.349 62.302"/>
                    <polygon class="cls-13" points="47.356 65.334 44.719 66.855 44.729 69.887 47.365 68.363 47.356 65.334 47.356 65.334"/>
                    <polygon class="cls-13" points="47.365 68.363 44.729 69.887 44.737 72.917 47.375 71.394 47.365 68.363 47.365 68.363"/>
                    <polygon class="cls-6" points="49.901 30.463 47.262 31.986 47.271 35.018 49.909 33.495 49.901 30.463 49.901 30.463"/>
                    <polygon class="cls-11" points="49.909 33.495 47.271 35.018 47.279 38.05 49.919 36.527 49.909 33.495 49.909 33.495"/>
                    <polygon class="cls-6" points="49.919 36.527 47.279 38.05 47.288 41.082 49.927 39.559 49.919 36.527 49.919 36.527"/>
                    <polygon class="cls-12" points="49.927 39.559 47.288 41.082 47.297 44.114 49.935 42.591 49.927 39.559 49.927 39.559"/>
                    <polygon class="cls-10" points="49.935 42.591 47.297 44.114 47.306 47.144 49.943 45.621 49.935 42.591 49.935 42.591"/>
                    <polygon class="cls-10" points="49.943 45.621 47.306 47.144 47.313 50.176 49.952 48.651 49.943 45.621 49.943 45.621"/>
                    <polygon class="cls-10" points="49.952 48.651 47.313 50.176 47.322 53.206 49.961 51.684 49.952 48.651 49.952 48.651"/>
                    <polygon class="cls-10" points="49.961 51.684 47.322 53.206 47.33 56.239 49.969 54.717 49.961 51.684 49.961 51.684"/>
                    <polygon class="cls-12" points="49.969 54.717 47.33 56.239 47.339 59.269 49.979 57.746 49.969 54.717 49.969 54.717"/>
                    <polygon class="cls-6" points="49.979 57.746 47.339 59.269 47.349 62.302 49.987 60.777 49.979 57.746 49.979 57.746"/>
                    <polygon class="cls-11" points="49.987 60.777 47.349 62.302 47.356 65.334 49.995 63.809 49.987 60.777 49.987 60.777"/>
                    <polygon class="cls-6" points="49.995 63.809 47.356 65.334 47.365 68.363 50.004 66.84 49.995 63.809 49.995 63.809"/>
                    <polygon class="cls-6" points="50.004 66.84 47.365 68.363 47.375 71.394 50.012 69.87 50.004 66.84 50.004 66.84"/>
                    <polygon class="cls-8" points="52.539 28.938 49.901 30.463 49.909 33.495 52.549 31.971 52.539 28.938 52.539 28.938"/>
                    <polygon class="cls-8" points="52.549 31.971 49.909 33.495 49.919 36.527 52.557 35.004 52.549 31.971 52.549 31.971"/>
                    <polygon class="cls-8" points="52.557 35.004 49.919 36.527 49.927 39.559 52.564 38.035 52.557 35.004 52.557 35.004"/>
                    <polygon class="cls-9" points="52.564 38.035 49.927 39.559 49.935 42.591 52.572 41.067 52.564 38.035 52.564 38.035"/>
                    <polygon class="cls-9" points="52.572 41.067 49.935 42.591 49.943 45.621 52.582 44.098 52.572 41.067 52.572 41.067"/>
                    <polygon class="cls-10" points="52.582 44.098 49.943 45.621 49.952 48.651 52.591 47.129 52.582 44.098 52.582 44.098"/>
                    <polygon class="cls-9" points="52.591 47.129 49.952 48.651 49.961 51.684 52.601 50.16 52.591 47.129 52.591 47.129"/>
                    <polygon class="cls-9" points="52.601 50.16 49.961 51.684 49.969 54.717 52.608 53.192 52.601 50.16 52.601 50.16"/>
                    <polygon class="cls-9" points="52.608 53.192 49.969 54.717 49.979 57.746 52.617 56.223 52.608 53.192 52.608 53.192"/>
                    <polygon class="cls-13" points="52.617 56.223 49.979 57.746 49.987 60.777 52.625 59.254 52.617 56.223 52.617 56.223"/>
                    <polygon class="cls-8" points="52.625 59.254 49.987 60.777 49.995 63.809 52.635 62.285 52.625 59.254 52.625 59.254"/>
                    <polygon class="cls-8" points="52.635 62.285 49.995 63.809 50.004 66.84 52.642 65.317 52.635 62.285 52.635 62.285"/>
                    <polygon class="cls-8" points="52.642 65.317 50.004 66.84 50.012 69.87 52.652 68.348 52.642 65.317 52.642 65.317"/>
                    <polygon class="cls-14" points="55.176 27.418 52.539 28.938 52.549 31.971 55.185 30.449 55.176 27.418 55.176 27.418"/>
                    <polygon class="cls-15" points="55.185 30.449 52.549 31.971 52.557 35.004 55.193 33.48 55.185 30.449 55.185 30.449"/>
                    <polygon class="cls-16" points="55.193 33.48 52.557 35.004 52.564 38.035 55.202 36.513 55.193 33.48 55.193 33.48"/>
                    <polygon class="cls-17" points="55.202 36.513 52.564 38.035 52.572 41.067 55.211 39.544 55.202 36.513 55.202 36.513"/>
                    <polygon class="cls-7" points="55.211 39.544 52.572 41.067 52.582 44.098 55.219 42.576 55.211 39.544 55.211 39.544"/>
                    <polygon class="cls-17" points="55.219 42.576 52.582 44.098 52.591 47.129 55.23 45.606 55.219 42.576 55.219 42.576"/>
                    <polygon class="cls-10" points="55.23 45.606 52.591 47.129 52.601 50.16 55.237 48.637 55.23 45.606 55.23 45.606"/>
                    <polygon class="cls-7" points="55.237 48.637 52.601 50.16 52.608 53.192 55.245 51.669 55.237 48.637 55.237 48.637"/>
                    <polygon class="cls-18" points="55.245 51.669 52.608 53.192 52.617 56.223 55.254 54.699 55.245 51.669 55.245 51.669"/>
                    <polygon class="cls-16" points="55.254 54.699 52.617 56.223 52.625 59.254 55.263 57.732 55.254 54.699 55.254 54.699"/>
                    <polygon class="cls-15" points="55.263 57.732 52.625 59.254 52.635 62.285 55.272 60.765 55.263 57.732 55.263 57.732"/>
                    <polygon class="cls-14" points="55.272 60.765 52.635 62.285 52.642 65.317 55.28 63.794 55.272 60.765 55.272 60.765"/>
                    <polygon class="cls-15" points="55.28 63.794 52.642 65.317 52.652 68.348 55.288 66.824 55.28 63.794 55.28 63.794"/>
                    <polygon class="cls-13" points="57.813 25.894 55.176 27.418 55.185 30.449 57.822 28.926 57.813 25.894 57.813 25.894"/>
                    <polygon class="cls-13" points="57.822 28.926 55.185 30.449 55.193 33.48 57.83 31.959 57.822 28.926 57.822 28.926"/>
                    <polygon class="cls-13" points="57.83 31.959 55.193 33.48 55.202 36.513 57.84 34.991 57.83 31.959 57.83 31.959"/>
                    <polygon class="cls-19" points="57.84 34.991 55.202 36.513 55.211 39.544 57.848 38.022 57.84 34.991 57.84 34.991"/>
                    <polygon class="cls-10" points="57.848 38.022 55.211 39.544 55.219 42.576 57.855 41.054 57.848 38.022 57.848 38.022"/>
                    <polygon class="cls-10" points="57.855 41.054 55.219 42.576 55.23 45.606 57.866 44.083 57.855 41.054 57.855 41.054"/>
                    <polygon class="cls-10" points="57.866 44.083 55.23 45.606 55.237 48.637 57.874 47.115 57.866 44.083 57.866 44.083"/>
                    <polygon class="cls-10" points="57.874 47.115 55.237 48.637 55.245 51.669 57.883 50.146 57.874 47.115 57.874 47.115"/>
                    <polygon class="cls-19" points="57.883 50.146 55.245 51.669 55.254 54.699 57.892 53.178 57.883 50.146 57.883 50.146"/>
                    <polygon class="cls-13" points="57.892 53.178 55.254 54.699 55.263 57.732 57.9 56.209 57.892 53.178 57.892 53.178"/>
                    <polygon class="cls-13" points="57.9 56.209 55.263 57.732 55.272 60.765 57.909 59.241 57.9 56.209 57.9 56.209"/>
                    <polygon class="cls-13" points="57.909 59.241 55.272 60.765 55.28 63.794 57.917 62.271 57.909 59.241 57.909 59.241"/>
                    <polygon class="cls-13" points="57.917 62.271 55.28 63.794 55.288 66.824 57.925 65.302 57.917 62.271 57.917 62.271"/>
                    <polygon class="cls-6" points="60.451 24.37 57.813 25.894 57.822 28.926 60.461 27.402 60.451 24.37 60.451 24.37"/>
                    <polygon class="cls-11" points="60.461 27.402 57.822 28.926 57.83 31.959 60.47 30.435 60.461 27.402 60.461 27.402"/>
                    <polygon class="cls-11" points="60.47 30.435 57.83 31.959 57.84 34.991 60.478 33.468 60.47 30.435 60.47 30.435"/>
                    <polygon class="cls-7" points="60.478 33.468 57.84 34.991 57.848 38.022 60.487 36.5 60.478 33.468 60.478 33.468"/>
                    <polygon class="cls-12" points="60.487 36.5 57.848 38.022 57.855 41.054 60.495 39.529 60.487 36.5 60.487 36.5"/>
                    <polygon class="cls-7" points="60.495 39.529 57.855 41.054 57.866 44.083 60.504 42.559 60.495 39.529 60.495 39.529"/>
                    <polygon class="cls-12" points="60.504 42.559 57.866 44.083 57.874 47.115 60.513 45.591 60.504 42.559 60.504 42.559"/>
                    <polygon class="cls-7" points="60.513 45.591 57.874 47.115 57.883 50.146 60.522 48.625 60.513 45.591 60.513 45.591"/>
                    <polygon class="cls-12" points="60.522 48.625 57.883 50.146 57.892 53.178 60.529 51.654 60.522 48.625 60.522 48.625"/>
                    <polygon class="cls-11" points="60.529 51.654 57.892 53.178 57.9 56.209 60.539 54.685 60.529 51.654 60.529 51.654"/>
                    <polygon class="cls-6" points="60.539 54.685 57.9 56.209 57.909 59.241 60.547 57.717 60.539 54.685 60.539 54.685"/>
                    <polygon class="cls-11" points="60.547 57.717 57.909 59.241 57.917 62.271 60.555 60.748 60.547 57.717 60.547 57.717"/>
                    <polygon class="cls-6" points="60.555 60.748 57.917 62.271 57.925 65.302 60.563 63.779 60.555 60.748 60.555 60.748"/>
                    <polygon class="cls-8" points="63.092 22.848 60.451 24.37 60.461 27.402 63.1 25.878 63.092 22.848 63.092 22.848"/>
                    <polygon class="cls-8" points="63.1 25.878 60.461 27.402 60.47 30.435 63.108 28.912 63.1 25.878 63.1 25.878"/>
                    <polygon class="cls-8" points="63.108 28.912 60.47 30.435 60.478 33.468 63.117 31.944 63.108 28.912 63.108 28.912"/>
                    <polygon class="cls-9" points="63.117 31.944 60.478 33.468 60.487 36.5 63.125 34.975 63.117 31.944 63.117 31.944"/>
                    <polygon class="cls-10" points="63.125 34.975 60.487 36.5 60.495 39.529 63.134 38.007 63.125 34.975 63.125 34.975"/>
                    <polygon class="cls-9" points="63.134 38.007 60.495 39.529 60.504 42.559 63.142 41.035 63.134 38.007 63.134 38.007"/>
                    <polygon class="cls-9" points="63.142 41.035 60.504 42.559 60.513 45.591 63.151 44.069 63.142 41.035 63.142 41.035"/>
                    <polygon class="cls-9" points="63.151 44.069 60.513 45.591 60.522 48.625 63.159 47.1 63.151 44.069 63.151 44.069"/>
                    <polygon class="cls-9" points="63.159 47.1 60.522 48.625 60.529 51.654 63.168 50.131 63.159 47.1 63.159 47.1"/>
                    <polygon class="cls-13" points="63.168 50.131 60.529 51.654 60.539 54.685 63.176 53.162 63.168 50.131 63.168 50.131"/>
                    <polygon class="cls-8" points="63.176 53.162 60.539 54.685 60.547 57.717 63.184 56.195 63.176 53.162 63.176 53.162"/>
                    <polygon class="cls-8" points="63.184 56.195 60.547 57.717 60.555 60.748 63.195 59.225 63.184 56.195 63.184 56.195"/>
                    <polygon class="cls-8" points="63.195 59.225 60.555 60.748 60.563 63.779 63.203 62.255 63.195 59.225 63.195 59.225"/>
                    <polygon class="cls-14" points="65.73 21.323 63.092 22.848 63.1 25.878 65.738 24.357 65.73 21.323 65.73 21.323"/>
                    <polygon class="cls-15" points="65.738 24.357 63.1 25.878 63.108 28.912 65.748 27.39 65.738 24.357 65.738 24.357"/>
                    <polygon class="cls-16" points="65.748 27.39 63.108 28.912 63.117 31.944 65.756 30.42 65.748 27.39 65.748 27.39"/>
                    <polygon class="cls-17" points="65.756 30.42 63.117 31.944 63.125 34.975 65.765 33.452 65.756 30.42 65.756 30.42"/>
                    <polygon class="cls-10" points="65.765 33.452 63.125 34.975 63.134 38.007 65.772 36.482 65.765 33.452 65.765 33.452"/>
                    <polygon class="cls-10" points="65.772 36.482 63.134 38.007 63.142 41.035 65.781 39.514 65.772 36.482 65.772 36.482"/>
                    <polygon class="cls-10" points="65.781 39.514 63.142 41.035 63.151 44.069 65.789 42.545 65.781 39.514 65.781 39.514"/>
                    <polygon class="cls-10" points="65.789 42.545 63.151 44.069 63.159 47.1 65.798 45.577 65.789 42.545 65.789 42.545"/>
                    <polygon class="cls-17" points="65.798 45.577 63.159 47.1 63.168 50.131 65.808 48.606 65.798 45.577 65.798 45.577"/>
                    <polygon class="cls-16" points="65.808 48.606 63.168 50.131 63.176 53.162 65.816 51.64 65.808 48.606 65.808 48.606"/>
                    <polygon class="cls-15" points="65.816 51.64 63.176 53.162 63.184 56.195 65.825 54.672 65.816 51.64 65.816 51.64"/>
                    <polygon class="cls-14" points="65.825 54.672 63.184 56.195 63.195 59.225 65.833 57.702 65.825 54.672 65.825 54.672"/>
                    <polygon class="cls-15" points="65.833 57.702 63.195 59.225 63.203 62.255 65.841 60.731 65.833 57.702 65.833 57.702"/>
                    <polygon class="cls-13" points="68.368 19.802 65.73 21.323 65.738 24.357 68.377 22.832 68.368 19.802 68.368 19.802"/>
                    <polygon class="cls-13" points="68.377 22.832 65.738 24.357 65.748 27.39 68.385 25.865 68.377 22.832 68.377 22.832"/>
                    <polygon class="cls-13" points="68.385 25.865 65.748 27.39 65.756 30.42 68.395 28.897 68.385 25.865 68.385 25.865"/>
                    <polygon class="cls-19" points="68.395 28.897 65.756 30.42 65.765 33.452 68.402 31.928 68.395 28.897 68.395 28.897"/>
                    <polygon class="cls-10" points="68.402 31.928 65.765 33.452 65.772 36.482 68.41 34.96 68.402 31.928 68.402 31.928"/>
                    <polygon class="cls-19" points="68.41 34.96 65.772 36.482 65.781 39.514 68.422 37.989 68.41 34.96 68.41 34.96"/>
                    <polygon class="cls-19" points="68.422 37.989 65.781 39.514 65.789 42.545 68.43 41.022 68.422 37.989 68.422 37.989"/>
                    <polygon class="cls-19" points="68.43 41.022 65.789 42.545 65.798 45.577 68.438 44.054 68.43 41.022 68.43 41.022"/>
                    <polygon class="cls-19" points="68.438 44.054 65.798 45.577 65.808 48.606 68.446 47.083 68.438 44.054 68.438 44.054"/>
                    <polygon class="cls-13" points="68.446 47.083 65.808 48.606 65.816 51.64 68.454 50.115 68.446 47.083 68.446 47.083"/>
                    <polygon class="cls-13" points="68.454 50.115 65.816 51.64 65.825 54.672 68.463 53.148 68.454 50.115 68.454 50.115"/>
                    <polygon class="cls-13" points="68.463 53.148 65.825 54.672 65.833 57.702 68.471 56.178 68.463 53.148 68.463 53.148"/>
                    <polygon class="cls-13" points="68.471 56.178 65.833 57.702 65.841 60.731 68.48 59.209 68.471 56.178 68.471 56.178"/>
                  </g>
                </g>
              </g>
              <g class="cls-4">
                <polygon class="cls-2" points="34.184 79.012 0.111 59.209 0 19.803 34.073 39.602 34.184 79.012"/>
                <g class="cls-20">
                  <g>
                    <polygon class="cls-6" points="34.176 75.979 31.554 74.457 31.563 77.488 34.184 79.013 34.176 75.979 34.176 75.979"/>
                    <polygon class="cls-6" points="34.166 72.947 31.544 71.424 31.554 74.457 34.176 75.979 34.166 72.947 34.166 72.947"/>
                    <polygon class="cls-6" points="34.157 69.916 31.536 68.392 31.544 71.424 34.166 72.947 34.157 69.916 34.157 69.916"/>
                    <polygon class="cls-21" points="34.149 66.885 31.527 65.362 31.536 68.392 34.157 69.916 34.149 66.885 34.149 66.885"/>
                    <polygon class="cls-22" points="34.141 63.853 31.519 62.33 31.527 65.362 34.149 66.885 34.141 63.853 34.141 63.853"/>
                    <polygon class="cls-22" points="34.133 60.822 31.51 59.299 31.519 62.33 34.141 63.853 34.133 60.822 34.133 60.822"/>
                    <polygon class="cls-22" points="34.123 57.792 31.503 56.268 31.51 59.299 34.133 60.822 34.123 57.792 34.123 57.792"/>
                    <polygon class="cls-22" points="34.114 54.76 31.493 53.237 31.503 56.268 34.123 57.792 34.114 54.76 34.114 54.76"/>
                    <polygon class="cls-22" points="34.106 51.728 31.484 50.205 31.493 53.237 34.114 54.76 34.106 51.728 34.106 51.728"/>
                    <polygon class="cls-22" points="34.098 48.697 31.477 47.174 31.484 50.205 34.106 51.728 34.098 48.697 34.098 48.697"/>
                    <polygon class="cls-6" points="34.09 45.666 31.468 44.142 31.477 47.174 34.098 48.697 34.09 45.666 34.09 45.666"/>
                    <polygon class="cls-6" points="34.081 42.634 31.46 41.11 31.468 44.142 34.09 45.666 34.081 42.634 34.081 42.634"/>
                    <polygon class="cls-6" points="34.073 39.601 31.449 38.079 31.46 41.11 34.081 42.634 34.073 39.601 34.073 39.601"/>
                    <polygon class="cls-8" points="31.554 74.457 28.934 72.934 28.942 75.965 31.563 77.488 31.554 74.457 31.554 74.457"/>
                    <polygon class="cls-8" points="31.544 71.424 28.926 69.902 28.934 72.934 31.554 74.457 31.544 71.424 31.544 71.424"/>
                    <polygon class="cls-8" points="31.536 68.392 28.915 66.869 28.926 69.902 31.544 71.424 31.536 68.392 31.536 68.392"/>
                    <polygon class="cls-23" points="31.527 65.362 28.907 63.839 28.915 66.869 31.536 68.392 31.527 65.362 31.527 65.362"/>
                    <polygon class="cls-24" points="31.519 62.33 28.899 60.807 28.907 63.839 31.527 65.362 31.519 62.33 31.519 62.33"/>
                    <polygon class="cls-24" points="31.51 59.299 28.89 57.777 28.899 60.807 31.519 62.33 31.51 59.299 31.51 59.299"/>
                    <polygon class="cls-24" points="31.503 56.268 28.882 54.747 28.89 57.777 31.51 59.299 31.503 56.268 31.503 56.268"/>
                    <polygon class="cls-24" points="31.493 53.237 28.873 51.714 28.882 54.747 31.503 56.268 31.493 53.237 31.493 53.237"/>
                    <polygon class="cls-25" points="31.484 50.205 28.864 48.683 28.873 51.714 31.493 53.237 31.484 50.205 31.484 50.205"/>
                    <polygon class="cls-24" points="31.477 47.174 28.856 45.65 28.864 48.683 31.484 50.205 31.477 47.174 31.477 47.174"/>
                    <polygon class="cls-8" points="31.468 44.142 28.848 42.621 28.856 45.65 31.477 47.174 31.468 44.142 31.468 44.142"/>
                    <polygon class="cls-8" points="31.46 41.11 28.839 39.588 28.848 42.621 31.468 44.142 31.46 41.11 31.46 41.11"/>
                    <polygon class="cls-8" points="31.449 38.079 28.83 36.556 28.839 39.588 31.46 41.11 31.449 38.079 31.449 38.079"/>
                    <polygon class="cls-6" points="28.934 72.934 26.312 71.41 26.32 74.442 28.942 75.965 28.934 72.934 28.934 72.934"/>
                    <polygon class="cls-11" points="28.926 69.902 26.304 68.378 26.312 71.41 28.934 72.934 28.926 69.902 28.926 69.902"/>
                    <polygon class="cls-6" points="28.915 66.869 26.295 65.346 26.304 68.378 28.926 69.902 28.915 66.869 28.915 66.869"/>
                    <polygon class="cls-26" points="28.907 63.839 26.286 62.314 26.295 65.346 28.915 66.869 28.907 63.839 28.907 63.839"/>
                    <polygon class="cls-27" points="28.899 60.807 26.276 59.284 26.286 62.314 28.907 63.839 28.899 60.807 28.899 60.807"/>
                    <polygon class="cls-25" points="28.89 57.777 26.27 56.254 26.276 59.284 28.899 60.807 28.89 57.777 28.89 57.777"/>
                    <polygon class="cls-25" points="28.882 54.747 26.26 53.223 26.27 56.254 28.89 57.777 28.882 54.747 28.882 54.747"/>
                    <polygon class="cls-25" points="28.873 51.714 26.252 50.191 26.26 53.223 28.882 54.747 28.873 51.714 28.873 51.714"/>
                    <polygon class="cls-25" points="28.864 48.683 26.244 47.158 26.252 50.191 28.873 51.714 28.864 48.683 28.864 48.683"/>
                    <polygon class="cls-27" points="28.856 45.65 26.234 44.127 26.244 47.158 28.864 48.683 28.856 45.65 28.856 45.65"/>
                    <polygon class="cls-6" points="28.848 42.621 26.227 41.097 26.234 44.127 28.856 45.65 28.848 42.621 28.848 42.621"/>
                    <polygon class="cls-11" points="28.839 39.588 26.218 38.064 26.227 41.097 28.848 42.621 28.839 39.588 28.839 39.588"/>
                    <polygon class="cls-6" points="28.83 36.556 26.21 35.033 26.218 38.064 28.839 39.588 28.83 36.556 28.83 36.556"/>
                    <polygon class="cls-14" points="26.312 71.41 23.691 69.887 23.699 72.918 26.32 74.442 26.312 71.41 26.312 71.41"/>
                    <polygon class="cls-15" points="26.304 68.378 23.682 66.854 23.691 69.887 26.312 71.41 26.304 68.378 26.304 68.378"/>
                    <polygon class="cls-14" points="26.295 65.346 23.673 63.822 23.682 66.854 26.304 68.378 26.295 65.346 26.295 65.346"/>
                    <polygon class="cls-28" points="26.286 62.314 23.663 60.793 23.673 63.822 26.295 65.346 26.286 62.314 26.286 62.314"/>
                    <polygon class="cls-29" points="26.276 59.284 23.656 57.76 23.663 60.793 26.286 62.314 26.276 59.284 26.276 59.284"/>
                    <polygon class="cls-30" points="26.27 56.254 23.647 54.729 23.656 57.76 26.276 59.284 26.27 56.254 26.27 56.254"/>
                    <polygon class="cls-29" points="26.26 53.223 23.639 51.699 23.647 54.729 26.27 56.254 26.26 53.223 26.26 53.223"/>
                    <polygon class="cls-29" points="26.252 50.191 23.63 48.668 23.639 51.699 26.26 53.223 26.252 50.191 26.252 50.191"/>
                    <polygon class="cls-25" points="26.244 47.158 23.622 45.635 23.63 48.668 26.252 50.191 26.244 47.158 26.244 47.158"/>
                    <polygon class="cls-29" points="26.234 44.127 23.614 42.603 23.622 45.635 26.244 47.158 26.234 44.127 26.234 44.127"/>
                    <polygon class="cls-31" points="26.227 41.097 23.604 39.572 23.614 42.603 26.234 44.127 26.227 41.097 26.227 41.097"/>
                    <polygon class="cls-14" points="26.218 38.064 23.597 36.541 23.604 39.572 26.227 41.097 26.218 38.064 26.218 38.064"/>
                    <polygon class="cls-15" points="26.21 35.033 23.587 33.509 23.597 36.541 26.218 38.064 26.21 35.033 26.21 35.033"/>
                    <polygon class="cls-13" points="23.691 69.887 21.07 68.363 21.08 71.394 23.699 72.918 23.691 69.887 23.691 69.887"/>
                    <polygon class="cls-13" points="23.682 66.854 21.063 65.332 21.07 68.363 23.691 69.887 23.682 66.854 23.682 66.854"/>
                    <polygon class="cls-13" points="23.673 63.822 21.054 62.3 21.063 65.332 23.682 66.854 23.673 63.822 23.673 63.822"/>
                    <polygon class="cls-32" points="23.663 60.793 21.045 59.269 21.054 62.3 23.673 63.822 23.663 60.793 23.663 60.793"/>
                    <polygon class="cls-33" points="23.656 57.76 21.037 56.236 21.045 59.269 23.663 60.793 23.656 57.76 23.656 57.76"/>
                    <polygon class="cls-33" points="23.647 54.729 21.026 53.206 21.037 56.236 23.656 57.76 23.647 54.729 23.647 54.729"/>
                    <polygon class="cls-33" points="23.639 51.699 21.019 50.177 21.026 53.206 23.647 54.729 23.639 51.699 23.639 51.699"/>
                    <polygon class="cls-33" points="23.63 48.668 21.01 47.144 21.019 50.177 23.639 51.699 23.63 48.668 23.63 48.668"/>
                    <polygon class="cls-33" points="23.622 45.635 21.002 44.113 21.01 47.144 23.63 48.668 23.622 45.635 23.622 45.635"/>
                    <polygon class="cls-33" points="23.614 42.603 20.993 41.08 21.002 44.113 23.622 45.635 23.614 42.603 23.614 42.603"/>
                    <polygon class="cls-15" points="23.604 39.572 20.985 38.05 20.993 41.08 23.614 42.603 23.604 39.572 23.604 39.572"/>
                    <polygon class="cls-13" points="23.597 36.541 20.977 35.018 20.985 38.05 23.604 39.572 23.597 36.541 23.597 36.541"/>
                    <polygon class="cls-13" points="23.587 33.509 20.968 31.986 20.977 35.018 23.597 36.541 23.587 33.509 23.587 33.509"/>
                    <polygon class="cls-6" points="21.07 68.363 18.449 66.84 18.458 69.873 21.08 71.394 21.07 68.363 21.07 68.363"/>
                    <polygon class="cls-11" points="21.063 65.332 18.441 63.808 18.449 66.84 21.07 68.363 21.063 65.332 21.063 65.332"/>
                    <polygon class="cls-6" points="21.054 62.3 18.432 60.776 18.441 63.808 21.063 65.332 21.054 62.3 21.054 62.3"/>
                    <polygon class="cls-34" points="21.045 59.269 18.423 57.746 18.432 60.776 21.054 62.3 21.045 59.269 21.045 59.269"/>
                    <polygon class="cls-27" points="21.037 56.236 18.414 54.715 18.423 57.746 21.045 59.269 21.037 56.236 21.037 56.236"/>
                    <polygon class="cls-25" points="21.026 53.206 18.406 51.684 18.414 54.715 21.037 56.236 21.026 53.206 21.026 53.206"/>
                    <polygon class="cls-25" points="21.019 50.177 18.397 48.652 18.406 51.684 21.026 53.206 21.019 50.177 21.019 50.177"/>
                    <polygon class="cls-25" points="21.01 47.144 18.389 45.621 18.397 48.652 21.019 50.177 21.01 47.144 21.01 47.144"/>
                    <polygon class="cls-25" points="21.002 44.113 18.38 42.589 18.389 45.621 21.01 47.144 21.002 44.113 21.002 44.113"/>
                    <polygon class="cls-22" points="20.993 41.08 18.372 39.559 18.38 42.589 21.002 44.113 20.993 41.08 20.993 41.08"/>
                    <polygon class="cls-11" points="20.985 38.05 18.364 36.527 18.372 39.559 20.993 41.08 20.985 38.05 20.985 38.05"/>
                    <polygon class="cls-6" points="20.977 35.018 18.354 33.494 18.364 36.527 20.985 38.05 20.977 35.018 20.977 35.018"/>
                    <polygon class="cls-6" points="20.968 31.986 18.345 30.463 18.354 33.494 20.977 35.018 20.968 31.986 20.968 31.986"/>
                    <polygon class="cls-8" points="18.449 66.84 15.828 65.317 15.837 68.349 18.458 69.873 18.449 66.84 18.449 66.84"/>
                    <polygon class="cls-8" points="18.441 63.808 15.818 62.285 15.828 65.317 18.449 66.84 18.441 63.808 18.441 63.808"/>
                    <polygon class="cls-8" points="18.432 60.776 15.811 59.252 15.818 62.285 18.441 63.808 18.432 60.776 18.432 60.776"/>
                    <polygon class="cls-35" points="18.423 57.746 15.801 56.223 15.811 59.252 18.432 60.776 18.423 57.746 18.423 57.746"/>
                    <polygon class="cls-24" points="18.414 54.715 15.793 53.19 15.801 56.223 18.423 57.746 18.414 54.715 18.414 54.715"/>
                    <polygon class="cls-24" points="18.406 51.684 15.784 50.16 15.793 53.19 18.414 54.715 18.406 51.684 18.406 51.684"/>
                    <polygon class="cls-25" points="18.397 48.652 15.775 47.13 15.784 50.16 18.406 51.684 18.397 48.652 18.397 48.652"/>
                    <polygon class="cls-24" points="18.389 45.621 15.767 44.097 15.775 47.13 18.397 48.652 18.389 45.621 18.389 45.621"/>
                    <polygon class="cls-24" points="18.38 42.589 15.76 41.065 15.767 44.097 18.389 45.621 18.38 42.589 18.38 42.589"/>
                    <polygon class="cls-24" points="18.372 39.559 15.75 38.034 15.76 41.065 18.38 42.589 18.372 39.559 18.372 39.559"/>
                    <polygon class="cls-8" points="18.364 36.527 15.741 35.003 15.75 38.034 18.372 39.559 18.364 36.527 18.364 36.527"/>
                    <polygon class="cls-8" points="18.354 33.494 15.733 31.971 15.741 35.003 18.364 36.527 18.354 33.494 18.354 33.494"/>
                    <polygon class="cls-8" points="18.345 30.463 15.724 28.938 15.733 31.971 18.354 33.494 18.345 30.463 18.345 30.463"/>
                    <polygon class="cls-14" points="15.828 65.317 13.209 63.795 13.217 66.826 15.837 68.349 15.828 65.317 15.828 65.317"/>
                    <polygon class="cls-15" points="15.818 62.285 13.201 60.764 13.209 63.795 15.828 65.317 15.818 62.285 15.818 62.285"/>
                    <polygon class="cls-14" points="15.811 59.252 13.191 57.73 13.201 60.764 15.818 62.285 15.811 59.252 15.811 59.252"/>
                    <polygon class="cls-28" points="15.801 56.223 13.184 54.7 13.191 57.73 15.811 59.252 15.801 56.223 15.801 56.223"/>
                    <polygon class="cls-29" points="15.793 53.19 13.173 51.668 13.184 54.7 15.801 56.223 15.793 53.19 15.793 53.19"/>
                    <polygon class="cls-30" points="15.784 50.16 13.166 48.638 13.173 51.668 15.793 53.19 15.784 50.16 15.784 50.16"/>
                    <polygon class="cls-30" points="15.775 47.13 13.157 45.609 13.166 48.638 15.784 50.16 15.775 47.13 15.775 47.13"/>
                    <polygon class="cls-25" points="15.767 44.097 13.148 42.576 13.157 45.609 15.775 47.13 15.767 44.097 15.767 44.097"/>
                    <polygon class="cls-30" points="15.76 41.065 13.14 39.543 13.148 42.576 15.767 44.097 15.76 41.065 15.76 41.065"/>
                    <polygon class="cls-29" points="15.75 38.034 13.132 36.512 13.14 39.543 15.76 41.065 15.75 38.034 15.75 38.034"/>
                    <polygon class="cls-31" points="15.741 35.003 13.123 33.48 13.132 36.512 15.75 38.034 15.741 35.003 15.741 35.003"/>
                    <polygon class="cls-14" points="15.733 31.971 13.113 30.45 13.123 33.48 15.741 35.003 15.733 31.971 15.733 31.971"/>
                    <polygon class="cls-15" points="15.724 28.938 13.106 27.418 13.113 30.45 15.733 31.971 15.724 28.938 15.724 28.938"/>
                    <polygon class="cls-13" points="13.209 63.795 10.588 62.271 10.598 65.303 13.217 66.826 13.209 63.795 13.209 63.795"/>
                    <polygon class="cls-13" points="13.201 60.764 10.579 59.239 10.588 62.271 13.209 63.795 13.201 60.764 13.201 60.764"/>
                    <polygon class="cls-13" points="13.191 57.73 10.57 56.208 10.579 59.239 13.201 60.764 13.191 57.73 13.191 57.73"/>
                    <polygon class="cls-32" points="13.184 54.7 10.561 53.178 10.57 56.208 13.191 57.73 13.184 54.7 13.184 54.7"/>
                    <polygon class="cls-33" points="13.173 51.668 10.553 50.144 10.561 53.178 13.184 54.7 13.173 51.668 13.173 51.668"/>
                    <polygon class="cls-25" points="13.166 48.638 10.543 47.115 10.553 50.144 13.173 51.668 13.166 48.638 13.166 48.638"/>
                    <polygon class="cls-25" points="13.157 45.609 10.535 44.084 10.543 47.115 13.166 48.638 13.157 45.609 13.157 45.609"/>
                    <polygon class="cls-25" points="13.148 42.576 10.527 41.054 10.535 44.084 13.157 45.609 13.148 42.576 13.148 42.576"/>
                    <polygon class="cls-25" points="13.14 39.543 10.519 38.02 10.527 41.054 13.148 42.576 13.14 39.543 13.14 39.543"/>
                    <polygon class="cls-33" points="13.132 36.512 10.51 34.987 10.519 38.02 13.14 39.543 13.132 36.512 13.132 36.512"/>
                    <polygon class="cls-15" points="13.123 33.48 10.501 31.959 10.51 34.987 13.132 36.512 13.123 33.48 13.123 33.48"/>
                    <polygon class="cls-13" points="13.113 30.45 10.493 28.926 10.501 31.959 13.123 33.48 13.113 30.45 13.113 30.45"/>
                    <polygon class="cls-13" points="13.106 27.418 10.484 25.894 10.493 28.926 13.113 30.45 13.106 27.418 13.106 27.418"/>
                    <polygon class="cls-6" points="10.588 62.271 7.966 60.747 7.975 63.78 10.598 65.303 10.588 62.271 10.588 62.271"/>
                    <polygon class="cls-11" points="10.579 59.239 7.958 57.716 7.966 60.747 10.588 62.271 10.579 59.239 10.579 59.239"/>
                    <polygon class="cls-11" points="10.57 56.208 7.949 54.684 7.958 57.716 10.579 59.239 10.57 56.208 10.57 56.208"/>
                    <polygon class="cls-21" points="10.561 53.178 7.94 51.654 7.949 54.684 10.57 56.208 10.561 53.178 10.561 53.178"/>
                    <polygon class="cls-27" points="10.553 50.144 7.931 48.621 7.94 51.654 10.561 53.178 10.553 50.144 10.553 50.144"/>
                    <polygon class="cls-22" points="10.543 47.115 7.924 45.591 7.931 48.621 10.553 50.144 10.543 47.115 10.543 47.115"/>
                    <polygon class="cls-27" points="10.535 44.084 7.914 42.561 7.924 45.591 10.543 47.115 10.535 44.084 10.535 44.084"/>
                    <polygon class="cls-22" points="10.527 41.054 7.905 39.529 7.914 42.561 10.535 44.084 10.527 41.054 10.527 41.054"/>
                    <polygon class="cls-27" points="10.519 38.02 7.897 36.497 7.905 39.529 10.527 41.054 10.519 38.02 10.519 38.02"/>
                    <polygon class="cls-27" points="10.51 34.987 7.888 33.466 7.897 36.497 10.519 38.02 10.51 34.987 10.51 34.987"/>
                    <polygon class="cls-6" points="10.501 31.959 7.881 30.434 7.888 33.466 10.51 34.987 10.501 31.959 10.501 31.959"/>
                    <polygon class="cls-11" points="10.493 28.926 7.871 27.402 7.881 30.434 10.501 31.959 10.493 28.926 10.493 28.926"/>
                    <polygon class="cls-6" points="10.484 25.894 7.862 24.37 7.871 27.402 10.493 28.926 10.484 25.894 10.484 25.894"/>
                    <polygon class="cls-8" points="7.966 60.747 5.346 59.225 5.354 62.257 7.975 63.78 7.966 60.747 7.966 60.747"/>
                    <polygon class="cls-8" points="7.958 57.716 5.336 56.191 5.346 59.225 7.966 60.747 7.958 57.716 7.958 57.716"/>
                    <polygon class="cls-8" points="7.949 54.684 5.328 53.161 5.336 56.191 7.958 57.716 7.949 54.684 7.949 54.684"/>
                    <polygon class="cls-35" points="7.94 51.654 5.318 50.13 5.328 53.161 7.949 54.684 7.94 51.654 7.94 51.654"/>
                    <polygon class="cls-24" points="7.931 48.621 5.311 47.099 5.318 50.13 7.94 51.654 7.931 48.621 7.931 48.621"/>
                    <polygon class="cls-24" points="7.924 45.591 5.301 44.066 5.311 47.099 7.931 48.621 7.924 45.591 7.924 45.591"/>
                    <polygon class="cls-24" points="7.914 42.561 5.293 41.037 5.301 44.066 7.924 45.591 7.914 42.561 7.914 42.561"/>
                    <polygon class="cls-24" points="7.905 39.529 5.284 38.005 5.293 41.037 7.914 42.561 7.905 39.529 7.905 39.529"/>
                    <polygon class="cls-25" points="7.897 36.497 5.276 34.974 5.284 38.005 7.905 39.529 7.897 36.497 7.897 36.497"/>
                    <polygon class="cls-24" points="7.888 33.466 5.267 31.941 5.276 34.974 7.897 36.497 7.888 33.466 7.888 33.466"/>
                    <polygon class="cls-8" points="7.881 30.434 5.258 28.912 5.267 31.941 7.888 33.466 7.881 30.434 7.881 30.434"/>
                    <polygon class="cls-8" points="7.871 27.402 5.25 25.878 5.258 28.912 7.881 30.434 7.871 27.402 7.871 27.402"/>
                    <polygon class="cls-8" points="7.862 24.37 5.242 22.848 5.25 25.878 7.871 27.402 7.862 24.37 7.862 24.37"/>
                    <polygon class="cls-14" points="5.346 59.225 2.725 57.702 2.732 60.734 5.354 62.257 5.346 59.225 5.346 59.225"/>
                    <polygon class="cls-15" points="5.336 56.191 2.717 54.672 2.725 57.702 5.346 59.225 5.336 56.191 5.336 56.191"/>
                    <polygon class="cls-14" points="5.328 53.161 2.708 51.638 2.717 54.672 5.336 56.191 5.328 53.161 5.328 53.161"/>
                    <polygon class="cls-28" points="5.318 50.13 2.697 48.608 2.708 51.638 5.328 53.161 5.318 50.13 5.318 50.13"/>
                    <polygon class="cls-29" points="5.311 47.099 2.69 45.575 2.697 48.608 5.318 50.13 5.311 47.099 5.311 47.099"/>
                    <polygon class="cls-25" points="5.301 44.066 2.681 42.547 2.69 45.575 5.311 47.099 5.301 44.066 5.301 44.066"/>
                    <polygon class="cls-25" points="5.293 41.037 2.673 39.516 2.681 42.547 5.301 44.066 5.293 41.037 5.293 41.037"/>
                    <polygon class="cls-25" points="5.284 38.005 2.664 36.483 2.673 39.516 5.293 41.037 5.284 38.005 5.284 38.005"/>
                    <polygon class="cls-25" points="5.276 34.974 2.655 33.451 2.664 36.483 5.284 38.005 5.276 34.974 5.276 34.974"/>
                    <polygon class="cls-29" points="5.267 31.941 2.647 30.418 2.655 33.451 5.276 34.974 5.267 31.941 5.267 31.941"/>
                    <polygon class="cls-31" points="5.258 28.912 2.639 27.39 2.647 30.418 5.267 31.941 5.258 28.912 5.258 28.912"/>
                    <polygon class="cls-14" points="5.25 25.878 2.631 24.357 2.639 27.39 5.258 28.912 5.25 25.878 5.25 25.878"/>
                    <polygon class="cls-15" points="5.242 22.848 2.621 21.325 2.631 24.357 5.25 25.878 5.242 22.848 5.242 22.848"/>
                    <polygon class="cls-13" points="2.725 57.702 0.104 56.18 0.111 59.211 2.732 60.734 2.725 57.702 2.725 57.702"/>
                    <polygon class="cls-13" points="2.717 54.672 0.095 53.146 0.104 56.18 2.725 57.702 2.717 54.672 2.717 54.672"/>
                    <polygon class="cls-13" points="2.708 51.638 0.085 50.113 0.095 53.146 2.717 54.672 2.708 51.638 2.708 51.638"/>
                    <polygon class="cls-32" points="2.697 48.608 0.078 47.083 0.085 50.113 2.708 51.638 2.697 48.608 2.697 48.608"/>
                    <polygon class="cls-33" points="2.69 45.575 0.068 44.052 0.078 47.083 2.697 48.608 2.69 45.575 2.69 45.575"/>
                    <polygon class="cls-33" points="2.681 42.547 0.059 41.022 0.068 44.052 2.69 45.575 2.681 42.547 2.681 42.547"/>
                    <polygon class="cls-33" points="2.673 39.516 0.051 37.992 0.059 41.022 2.681 42.547 2.673 39.516 2.673 39.516"/>
                    <polygon class="cls-33" points="2.664 36.483 0.043 34.96 0.051 37.992 2.673 39.516 2.664 36.483 2.664 36.483"/>
                    <polygon class="cls-25" points="2.655 33.451 0.035 31.928 0.043 34.96 2.664 36.483 2.655 33.451 2.655 33.451"/>
                    <polygon class="cls-33" points="2.647 30.418 0.025 28.896 0.035 31.928 2.655 33.451 2.647 30.418 2.647 30.418"/>
                    <polygon class="cls-15" points="2.639 27.39 0.017 25.866 0.025 28.896 2.647 30.418 2.639 27.39 2.639 27.39"/>
                    <polygon class="cls-13" points="2.631 24.357 0.009 22.834 0.017 25.866 2.639 27.39 2.631 24.357 2.631 24.357"/>
                    <polygon class="cls-13" points="2.621 21.325 0 19.802 0.009 22.834 2.631 24.357 2.621 21.325 2.621 21.325"/>
                  </g>
                </g>
              </g>
              <g class="cls-4">
                <polygon class="cls-3" points="34.073 39.602 0 19.803 34.295 0.002 68.368 19.803 34.073 39.602"/>
                <g class="cls-36">
                  <g>
                    <polygon class="cls-37" points="36.711 38.081 34.09 36.557 31.453 38.08 34.073 39.603 36.711 38.081 36.711 38.081"/>
                    <polygon class="cls-38" points="39.35 36.557 36.729 35.033 34.09 36.557 36.711 38.081 39.35 36.557 39.35 36.557"/>
                    <polygon class="cls-37" points="41.988 35.033 39.366 33.51 36.729 35.033 39.35 36.557 41.988 35.033 41.988 35.033"/>
                    <polygon class="cls-39" points="44.628 33.51 42.004 31.987 39.366 33.51 41.988 35.033 44.628 33.51 44.628 33.51"/>
                    <polygon class="cls-38" points="47.266 31.987 44.645 30.463 42.004 31.987 44.628 33.51 47.266 31.987 47.266 31.987"/>
                    <polygon class="cls-38" points="49.903 30.464 47.281 28.939 44.645 30.463 47.266 31.987 49.903 30.464 49.903 30.464"/>
                    <polygon class="cls-37" points="52.541 28.939 49.919 27.418 47.281 28.939 49.903 30.464 52.541 28.939 52.541 28.939"/>
                    <polygon class="cls-39" points="55.18 27.418 52.559 25.893 49.919 27.418 52.541 28.939 55.18 27.418 55.18 27.418"/>
                    <polygon class="cls-37" points="57.816 25.894 55.195 24.37 52.559 25.893 55.18 27.418 57.816 25.894 57.816 25.894"/>
                    <polygon class="cls-38" points="60.453 24.372 57.833 22.85 55.195 24.37 57.816 25.894 60.453 24.372 60.453 24.372"/>
                    <polygon class="cls-37" points="63.094 22.85 60.472 21.325 57.833 22.85 60.453 24.372 63.094 22.85 63.094 22.85"/>
                    <polygon class="cls-39" points="65.731 21.325 63.111 19.803 60.472 21.325 63.094 22.85 65.731 21.325 65.731 21.325"/>
                    <polygon class="cls-38" points="68.368 19.803 65.748 18.28 63.111 19.803 65.731 21.325 68.368 19.803 68.368 19.803"/>
                    <polygon class="cls-38" points="34.09 36.557 31.468 35.033 28.831 36.556 31.453 38.08 34.09 36.557 34.09 36.557"/>
                    <polygon class="cls-40" points="36.729 35.033 34.106 33.51 31.468 35.033 34.09 36.557 36.729 35.033 36.729 35.033"/>
                    <polygon class="cls-38" points="39.366 33.51 36.745 31.987 34.106 33.51 36.729 35.033 39.366 33.51 39.366 33.51"/>
                    <polygon class="cls-39" points="42.004 31.987 39.384 30.463 36.745 31.987 39.366 33.51 42.004 31.987 42.004 31.987"/>
                    <polygon class="cls-38" points="44.645 30.463 42.023 28.939 39.384 30.463 42.004 31.987 44.645 30.463 44.645 30.463"/>
                    <polygon class="cls-40" points="47.281 28.939 44.66 27.418 42.023 28.939 44.645 30.463 47.281 28.939 47.281 28.939"/>
                    <polygon class="cls-41" points="49.919 27.418 47.299 25.893 44.66 27.418 47.281 28.939 49.919 27.418 49.919 27.418"/>
                    <polygon class="cls-39" points="52.559 25.893 49.938 24.37 47.299 25.893 49.919 27.418 52.559 25.893 52.559 25.893"/>
                    <polygon class="cls-38" points="55.195 24.37 52.574 22.848 49.938 24.37 52.559 25.893 55.195 24.37 55.195 24.37"/>
                    <polygon class="cls-40" points="57.833 22.85 55.211 21.325 52.574 22.848 55.195 24.37 57.833 22.85 57.833 22.85"/>
                    <polygon class="cls-41" points="60.472 21.325 57.85 19.803 55.211 21.325 57.833 22.85 60.472 21.325 60.472 21.325"/>
                    <polygon class="cls-39" points="63.111 19.803 60.489 18.279 57.85 19.803 60.472 21.325 63.111 19.803 63.111 19.803"/>
                    <polygon class="cls-38" points="65.748 18.28 63.126 16.756 60.489 18.279 63.111 19.803 65.748 18.28 65.748 18.28"/>
                    <polygon class="cls-42" points="31.468 35.033 28.848 33.51 26.21 35.033 28.831 36.556 31.468 35.033 31.468 35.033"/>
                    <polygon class="cls-38" points="34.106 33.51 31.486 31.987 28.848 33.51 31.468 35.033 34.106 33.51 34.106 33.51"/>
                    <polygon class="cls-43" points="36.745 31.987 34.123 30.463 31.486 31.987 34.106 33.51 36.745 31.987 36.745 31.987"/>
                    <polygon class="cls-44" points="39.384 30.463 36.762 28.939 34.123 30.463 36.745 31.987 39.384 30.463 39.384 30.463"/>
                    <polygon class="cls-42" points="42.023 28.939 39.401 27.416 36.762 28.939 39.384 30.463 42.023 28.939 42.023 28.939"/>
                    <polygon class="cls-38" points="44.66 27.418 42.039 25.893 39.401 27.416 42.023 28.939 44.66 27.418 44.66 27.418"/>
                    <polygon class="cls-43" points="47.299 25.893 44.677 24.37 42.039 25.893 44.66 27.418 47.299 25.893 47.299 25.893"/>
                    <polygon class="cls-39" points="49.938 24.37 47.314 22.847 44.677 24.37 47.299 25.893 49.938 24.37 49.938 24.37"/>
                    <polygon class="cls-41" points="52.574 22.848 49.953 21.325 47.314 22.847 49.938 24.37 52.574 22.848 52.574 22.848"/>
                    <polygon class="cls-38" points="55.211 21.325 52.59 19.803 49.953 21.325 52.574 22.848 55.211 21.325 55.211 21.325"/>
                    <polygon class="cls-43" points="57.85 19.803 55.23 18.279 52.59 19.803 55.211 21.325 57.85 19.803 57.85 19.803"/>
                    <polygon class="cls-39" points="60.489 18.279 57.868 16.756 55.23 18.279 57.85 19.803 60.489 18.279 60.489 18.279"/>
                    <polygon class="cls-38" points="63.126 16.756 60.505 15.232 57.868 16.756 60.489 18.279 63.126 16.756 63.126 16.756"/>
                    <polygon class="cls-45" points="28.848 33.51 26.226 31.987 23.589 33.509 26.21 35.033 28.848 33.51 28.848 33.51"/>
                    <polygon class="cls-39" points="31.486 31.987 28.863 30.463 26.226 31.987 28.848 33.51 31.486 31.987 31.486 31.987"/>
                    <polygon class="cls-39" points="34.123 30.463 31.503 28.939 28.863 30.463 31.486 31.987 34.123 30.463 34.123 30.463"/>
                    <polygon class="cls-43" points="36.762 28.939 34.141 27.416 31.503 28.939 34.123 30.463 36.762 28.939 36.762 28.939"/>
                    <polygon class="cls-39" points="39.401 27.416 36.779 25.893 34.141 27.416 36.762 28.939 39.401 27.416 39.401 27.416"/>
                    <polygon class="cls-39" points="42.039 25.893 39.418 24.37 36.779 25.893 39.401 27.416 42.039 25.893 42.039 25.893"/>
                    <polygon class="cls-41" points="44.677 24.37 42.056 22.847 39.418 24.37 42.039 25.893 44.677 24.37 44.677 24.37"/>
                    <polygon class="cls-40" points="47.314 22.847 44.693 21.323 42.056 22.847 44.677 24.37 47.314 22.847 47.314 22.847"/>
                    <polygon class="cls-45" points="49.953 21.325 47.332 19.802 44.693 21.323 47.314 22.847 49.953 21.325 49.953 21.325"/>
                    <polygon class="cls-39" points="52.59 19.803 49.968 18.279 47.332 19.802 49.953 21.325 52.59 19.803 52.59 19.803"/>
                    <polygon class="cls-41" points="55.23 18.279 52.606 16.756 49.968 18.279 52.59 19.803 55.23 18.279 55.23 18.279"/>
                    <polygon class="cls-40" points="57.868 16.756 55.245 15.231 52.606 16.756 55.23 18.279 57.868 16.756 57.868 16.756"/>
                    <polygon class="cls-39" points="60.505 15.232 57.884 13.709 55.245 15.231 57.868 16.756 60.505 15.232 60.505 15.232"/>
                    <polygon class="cls-37" points="26.226 31.987 23.605 30.464 20.969 31.987 23.589 33.509 26.226 31.987 26.226 31.987"/>
                    <polygon class="cls-38" points="28.863 30.463 26.244 28.939 23.605 30.464 26.226 31.987 28.863 30.463 28.863 30.463"/>
                    <polygon class="cls-37" points="31.503 28.939 28.882 27.418 26.244 28.939 28.863 30.463 31.503 28.939 31.503 28.939"/>
                    <polygon class="cls-40" points="34.141 27.416 31.52 25.893 28.882 27.418 31.503 28.939 34.141 27.416 34.141 27.416"/>
                    <polygon class="cls-37" points="36.779 25.893 34.159 24.37 31.52 25.893 34.141 27.416 36.779 25.893 36.779 25.893"/>
                    <polygon class="cls-38" points="39.418 24.37 36.797 22.848 34.159 24.37 36.779 25.893 39.418 24.37 39.418 24.37"/>
                    <polygon class="cls-37" points="42.056 22.847 39.435 21.323 36.797 22.848 39.418 24.37 42.056 22.847 42.056 22.847"/>
                    <polygon class="cls-40" points="44.693 21.323 42.074 19.802 39.435 21.323 42.056 22.847 44.693 21.323 44.693 21.323"/>
                    <polygon class="cls-38" points="47.332 19.802 44.711 18.279 42.074 19.802 44.693 21.323 47.332 19.802 47.332 19.802"/>
                    <polygon class="cls-38" points="49.968 18.279 47.349 16.756 44.711 18.279 47.332 19.802 49.968 18.279 49.968 18.279"/>
                    <polygon class="cls-37" points="52.606 16.756 49.987 15.232 47.349 16.756 49.968 18.279 52.606 16.756 52.606 16.756"/>
                    <polygon class="cls-40" points="55.245 15.231 52.625 13.709 49.987 15.232 52.606 16.756 55.245 15.231 55.245 15.231"/>
                    <polygon class="cls-38" points="57.884 13.709 55.264 12.186 52.625 13.709 55.245 15.231 57.884 13.709 57.884 13.709"/>
                    <polygon class="cls-38" points="23.605 30.464 20.983 28.939 18.347 30.463 20.969 31.987 23.605 30.464 23.605 30.464"/>
                    <polygon class="cls-40" points="26.244 28.939 23.622 27.418 20.983 28.939 23.605 30.464 26.244 28.939 26.244 28.939"/>
                    <polygon class="cls-38" points="28.882 27.418 26.26 25.893 23.622 27.418 26.244 28.939 28.882 27.418 28.882 27.418"/>
                    <polygon class="cls-39" points="31.52 25.893 28.899 24.37 26.26 25.893 28.882 27.418 31.52 25.893 31.52 25.893"/>
                    <polygon class="cls-40" points="34.159 24.37 31.539 22.847 28.899 24.37 31.52 25.893 34.159 24.37 34.159 24.37"/>
                    <polygon class="cls-43" points="36.797 22.848 34.176 21.323 31.539 22.847 34.159 24.37 36.797 22.848 36.797 22.848"/>
                    <polygon class="cls-41" points="39.435 21.323 36.814 19.802 34.176 21.323 36.797 22.848 39.435 21.323 39.435 21.323"/>
                    <polygon class="cls-43" points="42.074 19.802 39.452 18.277 36.814 19.802 39.435 21.323 42.074 19.802 42.074 19.802"/>
                    <polygon class="cls-41" points="44.711 18.279 42.09 16.756 39.452 18.277 42.074 19.802 44.711 18.279 44.711 18.279"/>
                    <polygon class="cls-40" points="47.349 16.756 44.727 15.232 42.09 16.756 44.711 18.279 47.349 16.756 47.349 16.756"/>
                    <polygon class="cls-38" points="49.987 15.232 47.365 13.709 44.727 15.232 47.349 16.756 49.987 15.232 49.987 15.232"/>
                    <polygon class="cls-43" points="52.625 13.709 50.004 12.186 47.365 13.709 49.987 15.232 52.625 13.709 52.625 13.709"/>
                    <polygon class="cls-38" points="55.264 12.186 52.642 10.663 50.004 12.186 52.625 13.709 55.264 12.186 55.264 12.186"/>
                    <polygon class="cls-42" points="20.983 28.939 18.364 27.418 15.727 28.939 18.347 30.463 20.983 28.939 20.983 28.939"/>
                    <polygon class="cls-38" points="23.622 27.418 21.002 25.894 18.364 27.418 20.983 28.939 23.622 27.418 23.622 27.418"/>
                    <polygon class="cls-43" points="26.26 25.893 23.641 24.37 21.002 25.894 23.622 27.418 26.26 25.893 26.26 25.893"/>
                    <polygon class="cls-41" points="28.899 24.37 26.278 22.848 23.641 24.37 26.26 25.893 28.899 24.37 28.899 24.37"/>
                    <polygon class="cls-38" points="31.539 22.847 28.918 21.323 26.278 22.848 28.899 24.37 31.539 22.847 31.539 22.847"/>
                    <polygon class="cls-43" points="34.176 21.323 31.556 19.803 28.918 21.323 31.539 22.847 34.176 21.323 34.176 21.323"/>
                    <polygon class="cls-43" points="36.814 19.802 34.193 18.279 31.556 19.803 34.176 21.323 36.814 19.802 36.814 19.802"/>
                    <polygon class="cls-39" points="39.452 18.277 36.832 16.756 34.193 18.279 36.814 19.802 39.452 18.277 39.452 18.277"/>
                    <polygon class="cls-37" points="42.09 16.756 39.47 15.232 36.832 16.756 39.452 18.277 42.09 16.756 42.09 16.756"/>
                    <polygon class="cls-38" points="44.727 15.232 42.106 13.71 39.47 15.232 42.09 16.756 44.727 15.232 44.727 15.232"/>
                    <polygon class="cls-40" points="47.365 13.709 44.746 12.186 42.106 13.71 44.727 15.232 47.365 13.709 47.365 13.709"/>
                    <polygon class="cls-39" points="50.004 12.186 47.385 10.663 44.746 12.186 47.365 13.709 50.004 12.186 50.004 12.186"/>
                    <polygon class="cls-38" points="52.642 10.663 50.022 9.14 47.385 10.663 50.004 12.186 52.642 10.663 52.642 10.663"/>
                    <polygon class="cls-45" points="18.364 27.418 15.742 25.894 13.105 27.418 15.727 28.939 18.364 27.418 18.364 27.418"/>
                    <polygon class="cls-39" points="21.002 25.894 18.38 24.37 15.742 25.894 18.364 27.418 21.002 25.894 21.002 25.894"/>
                    <polygon class="cls-39" points="23.641 24.37 21.02 22.848 18.38 24.37 21.002 25.894 23.641 24.37 23.641 24.37"/>
                    <polygon class="cls-43" points="26.278 22.848 23.657 21.323 21.02 22.848 23.641 24.37 26.278 22.848 26.278 22.848"/>
                    <polygon class="cls-40" points="28.918 21.323 26.297 19.802 23.657 21.323 26.278 22.848 28.918 21.323 28.918 21.323"/>
                    <polygon class="cls-40" points="31.556 19.803 28.934 18.279 26.297 19.802 28.918 21.323 31.556 19.803 31.556 19.803"/>
                    <polygon class="cls-43" points="34.193 18.279 31.572 16.756 28.934 18.279 31.556 19.803 34.193 18.279 34.193 18.279"/>
                    <polygon class="cls-40" points="36.832 16.756 34.211 15.231 31.572 16.756 34.193 18.279 36.832 16.756 36.832 16.756"/>
                    <polygon class="cls-45" points="39.47 15.232 36.848 13.709 34.211 15.231 36.832 16.756 39.47 15.232 39.47 15.232"/>
                    <polygon class="cls-39" points="42.106 13.71 39.486 12.186 36.848 13.709 39.47 15.232 42.106 13.71 42.106 13.71"/>
                    <polygon class="cls-40" points="44.746 12.186 42.124 10.663 39.486 12.186 42.106 13.71 44.746 12.186 44.746 12.186"/>
                    <polygon class="cls-41" points="47.385 10.663 44.762 9.14 42.124 10.663 44.746 12.186 47.385 10.663 47.385 10.663"/>
                    <polygon class="cls-39" points="50.022 9.14 47.4 7.617 44.762 9.14 47.385 10.663 50.022 9.14 50.022 9.14"/>
                    <polygon class="cls-38" points="15.742 25.894 13.122 24.372 10.485 25.894 13.105 27.418 15.742 25.894 15.742 25.894"/>
                    <polygon class="cls-38" points="18.38 24.37 15.761 22.85 13.122 24.372 15.742 25.894 18.38 24.37 18.38 24.37"/>
                    <polygon class="cls-37" points="21.02 22.848 18.398 21.325 15.761 22.85 18.38 24.37 21.02 22.848 21.02 22.848"/>
                    <polygon class="cls-39" points="23.657 21.323 21.039 19.803 18.398 21.325 21.02 22.848 23.657 21.323 23.657 21.323"/>
                    <polygon class="cls-37" points="26.297 19.802 23.676 18.279 21.039 19.803 23.657 21.323 26.297 19.802 26.297 19.802"/>
                    <polygon class="cls-41" points="28.934 18.279 26.313 16.756 23.676 18.279 26.297 19.802 28.934 18.279 28.934 18.279"/>
                    <polygon class="cls-37" points="31.572 16.756 28.952 15.232 26.313 16.756 28.934 18.279 31.572 16.756 31.572 16.756"/>
                    <polygon class="cls-43" points="34.211 15.231 31.591 13.709 28.952 15.232 31.572 16.756 34.211 15.231 34.211 15.231"/>
                    <polygon class="cls-40" points="36.848 13.709 34.229 12.186 31.591 13.709 34.211 15.231 36.848 13.709 36.848 13.709"/>
                    <polygon class="cls-38" points="39.486 12.186 36.866 10.664 34.229 12.186 36.848 13.709 39.486 12.186 39.486 12.186"/>
                    <polygon class="cls-43" points="42.124 10.663 39.504 9.14 36.866 10.664 39.486 12.186 42.124 10.663 42.124 10.663"/>
                    <polygon class="cls-39" points="44.762 9.14 42.142 7.617 39.504 9.14 42.124 10.663 44.762 9.14 44.762 9.14"/>
                    <polygon class="cls-38" points="47.4 7.617 44.78 6.094 42.142 7.617 44.762 9.14 47.4 7.617 47.4 7.617"/>
                    <polygon class="cls-38" points="13.122 24.372 10.501 22.85 7.863 24.37 10.485 25.894 13.122 24.372 13.122 24.372"/>
                    <polygon class="cls-40" points="15.761 22.85 13.14 21.325 10.501 22.85 13.122 24.372 15.761 22.85 15.761 22.85"/>
                    <polygon class="cls-38" points="18.398 21.325 15.776 19.802 13.14 21.325 15.761 22.85 18.398 21.325 18.398 21.325"/>
                    <polygon class="cls-39" points="21.039 19.803 18.416 18.279 15.776 19.802 18.398 21.325 21.039 19.803 21.039 19.803"/>
                    <polygon class="cls-41" points="23.676 18.279 21.055 16.756 18.416 18.279 21.039 19.803 23.676 18.279 23.676 18.279"/>
                    <polygon class="cls-40" points="26.313 16.756 23.693 15.232 21.055 16.756 23.676 18.279 26.313 16.756 26.313 16.756"/>
                    <polygon class="cls-38" points="28.952 15.232 26.331 13.709 23.693 15.232 26.313 16.756 28.952 15.232 28.952 15.232"/>
                    <polygon class="cls-39" points="31.591 13.709 28.969 12.186 26.331 13.709 28.952 15.232 31.591 13.709 31.591 13.709"/>
                    <polygon class="cls-41" points="34.229 12.186 31.606 10.663 28.969 12.186 31.591 13.709 34.229 12.186 34.229 12.186"/>
                    <polygon class="cls-43" points="36.866 10.664 34.244 9.14 31.606 10.663 34.229 12.186 36.866 10.664 36.866 10.664"/>
                    <polygon class="cls-38" points="39.504 9.14 36.883 7.617 34.244 9.14 36.866 10.664 39.504 9.14 39.504 9.14"/>
                    <polygon class="cls-39" points="42.142 7.617 39.521 6.093 36.883 7.617 39.504 9.14 42.142 7.617 42.142 7.617"/>
                    <polygon class="cls-38" points="44.78 6.094 42.158 4.57 39.521 6.093 42.142 7.617 44.78 6.094 44.78 6.094"/>
                    <polygon class="cls-42" points="10.501 22.85 7.88 21.325 5.242 22.848 7.863 24.37 10.501 22.85 10.501 22.85"/>
                    <polygon class="cls-38" points="13.14 21.325 10.517 19.802 7.88 21.325 10.501 22.85 13.14 21.325 13.14 21.325"/>
                    <polygon class="cls-43" points="15.776 19.802 13.157 18.279 10.517 19.802 13.14 21.325 15.776 19.802 15.776 19.802"/>
                    <polygon class="cls-41" points="18.416 18.279 15.795 16.756 13.157 18.279 15.776 19.802 18.416 18.279 18.416 18.279"/>
                    <polygon class="cls-42" points="21.055 16.756 18.434 15.231 15.795 16.756 18.416 18.279 21.055 16.756 21.055 16.756"/>
                    <polygon class="cls-38" points="23.693 15.232 21.07 13.709 18.434 15.231 21.055 16.756 23.693 15.232 23.693 15.232"/>
                    <polygon class="cls-43" points="26.331 13.709 23.709 12.186 21.07 13.709 23.693 15.232 26.331 13.709 26.331 13.709"/>
                    <polygon class="cls-41" points="28.969 12.186 26.348 10.662 23.709 12.186 26.331 13.709 28.969 12.186 28.969 12.186"/>
                    <polygon class="cls-37" points="31.606 10.663 28.985 9.139 26.348 10.662 28.969 12.186 31.606 10.663 31.606 10.663"/>
                    <polygon class="cls-41" points="34.244 9.14 31.622 7.617 28.985 9.139 31.606 10.663 34.244 9.14 34.244 9.14"/>
                    <polygon class="cls-43" points="36.883 7.617 34.262 6.093 31.622 7.617 34.244 9.14 36.883 7.617 36.883 7.617"/>
                    <polygon class="cls-39" points="39.521 6.093 36.899 4.57 34.262 6.093 36.883 7.617 39.521 6.093 39.521 6.093"/>
                    <polygon class="cls-38" points="42.158 4.57 39.537 3.048 36.899 4.57 39.521 6.093 42.158 4.57 42.158 4.57"/>
                    <polygon class="cls-45" points="7.88 21.325 5.258 19.802 2.621 21.323 5.242 22.848 7.88 21.325 7.88 21.325"/>
                    <polygon class="cls-39" points="10.517 19.802 7.897 18.279 5.258 19.802 7.88 21.325 10.517 19.802 10.517 19.802"/>
                    <polygon class="cls-39" points="13.157 18.279 10.534 16.756 7.897 18.279 10.517 19.802 13.157 18.279 13.157 18.279"/>
                    <polygon class="cls-40" points="15.795 16.756 13.173 15.231 10.534 16.756 13.157 18.279 15.795 16.756 15.795 16.756"/>
                    <polygon class="cls-40" points="18.434 15.231 15.813 13.707 13.173 15.231 15.795 16.756 18.434 15.231 18.434 15.231"/>
                    <polygon class="cls-43" points="21.07 13.709 18.449 12.186 15.813 13.707 18.434 15.231 21.07 13.709 21.07 13.709"/>
                    <polygon class="cls-39" points="23.709 12.186 21.089 10.662 18.449 12.186 21.07 13.709 23.709 12.186 23.709 12.186"/>
                    <polygon class="cls-43" points="26.348 10.662 23.727 9.139 21.089 10.662 23.709 12.186 26.348 10.662 26.348 10.662"/>
                    <polygon class="cls-40" points="28.985 9.139 26.363 7.616 23.727 9.139 26.348 10.662 28.985 9.139 28.985 9.139"/>
                    <polygon class="cls-40" points="31.622 7.617 29 6.093 26.363 7.616 28.985 9.139 31.622 7.617 31.622 7.617"/>
                    <polygon class="cls-39" points="34.262 6.093 31.641 4.57 29 6.093 31.622 7.617 34.262 6.093 34.262 6.093"/>
                    <polygon class="cls-43" points="36.899 4.57 34.277 3.047 31.641 4.57 34.262 6.093 36.899 4.57 36.899 4.57"/>
                    <polygon class="cls-39" points="39.537 3.048 36.915 1.523 34.277 3.047 36.899 4.57 39.537 3.048 39.537 3.048"/>
                    <polygon class="cls-38" points="5.258 19.802 2.639 18.28 0.001 19.802 2.621 21.323 5.258 19.802 5.258 19.802"/>
                    <polygon class="cls-38" points="7.897 18.279 5.276 16.756 2.639 18.28 5.258 19.802 7.897 18.279 7.897 18.279"/>
                    <polygon class="cls-38" points="10.534 16.756 7.914 15.232 5.276 16.756 7.897 18.279 10.534 16.756 10.534 16.756"/>
                    <polygon class="cls-39" points="13.173 15.231 10.553 13.709 7.914 15.232 10.534 16.756 13.173 15.231 13.173 15.231"/>
                    <polygon class="cls-38" points="15.813 13.707 13.191 12.186 10.553 13.709 13.173 15.231 15.813 13.707 15.813 13.707"/>
                    <polygon class="cls-38" points="18.449 12.186 15.83 10.663 13.191 12.186 15.813 13.707 18.449 12.186 18.449 12.186"/>
                    <polygon class="cls-38" points="21.089 10.662 18.468 9.139 15.83 10.663 18.449 12.186 21.089 10.662 21.089 10.662"/>
                    <polygon class="cls-39" points="23.727 9.139 21.105 7.616 18.468 9.139 21.089 10.662 23.727 9.139 23.727 9.139"/>
                    <polygon class="cls-38" points="26.363 7.616 23.743 6.093 21.105 7.616 23.727 9.139 26.363 7.616 26.363 7.616"/>
                    <polygon class="cls-38" points="29 6.093 26.38 4.57 23.743 6.093 26.363 7.616 29 6.093 29 6.093"/>
                    <polygon class="cls-38" points="31.641 4.57 29.021 3.048 26.38 4.57 29 6.093 31.641 4.57 31.641 4.57"/>
                    <polygon class="cls-39" points="34.277 3.047 31.658 1.523 29.021 3.048 31.641 4.57 34.277 3.047 34.277 3.047"/>
                    <polygon class="cls-41" points="36.915 1.523 34.296 0 31.658 1.523 34.277 3.047 36.915 1.523 36.915 1.523"/>
                  </g>
                </g>
              </g>
            </g>
            <g>
              <polygon class="cls-46" points="68.368 19.804 68.48 59.211 34.185 79.012 34.073 39.602 68.368 19.804"/>
              <polygon class="cls-47" points="34.185 79.012 0.114 59.209 0.001 19.803 34.073 39.602 34.185 79.012"/>
              <polygon class="cls-48" points="34.073 39.602 0.001 19.803 34.295 0.002 68.368 19.804 34.073 39.602"/>
            </g>
          </g>
          <polygon class="cls-49" points="0.027 28.823 34.073 48.83 68.368 28.823 68.48 47.209 34.24 66.833 0.079 47.019 0.027 28.823"/>
        </g>
      </g>
    </g>
  </g>
</svg>
