<svg xmlns="http://www.w3.org/2000/svg" xmlns:xlink="http://www.w3.org/1999/xlink" viewBox="0 0 68.4786 79.0098">
  <defs>
    <style>
      .cls-1 {
        mask: url(#mask);
        filter: url(#luminosity-noclip-2);
      }

      .cls-2, .cls-20 {
        mix-blend-mode: multiply;
      }

      .cls-2 {
        fill: url(#åçûìßííûé_ãðàäèåíò_2);
      }

      .cls-3 {
        fill: #fff;
      }

      .cls-4 {
        isolation: isolate;
      }

      .cls-5 {
        clip-path: url(#clip-path);
      }

      .cls-6 {
        fill: #827f75;
      }

      .cls-7 {
        fill: #93918d;
      }

      .cls-8 {
        fill: #8e8c88;
      }

      .cls-9 {
        fill: #a09e9a;
      }

      .cls-10 {
        fill: #9c9a96;
      }

      .cls-11 {
        fill: #a5360d;
      }

      .cls-12 {
        fill: #85837f;
      }

      .cls-13 {
        fill: #65645c;
      }

      .cls-14 {
        fill: #e73e00;
      }

      .cls-15 {
        fill: #ff8c61;
      }

      .cls-16 {
        fill: #999793;
      }

      .cls-17 {
        clip-path: url(#clip-path-2);
      }

      .cls-18 {
        clip-path: url(#clip-path-3);
      }

      .cls-19 {
        mask: url(#mask-2);
      }

      .cls-20 {
        opacity: 0.5;
        fill: url(#linear-gradient);
      }

      .cls-21 {
        fill: #616161;
        opacity: 0.1;
      }

      .cls-21, .cls-22 {
        mix-blend-mode: color-dodge;
      }

      .cls-22 {
        opacity: 0.3;
        fill: url(#linear-gradient-2);
      }

      .cls-23 {
        filter: url(#luminosity-noclip);
      }
    </style>
    <filter id="luminosity-noclip" x="34.0743" y="-8183.0879" width="34.4043" height="32766" filterUnits="userSpaceOnUse" color-interpolation-filters="sRGB">
      <feFlood flood-color="#fff" result="bg"/>
      <feBlend in="SourceGraphic" in2="bg"/>
    </filter>
    <mask id="mask" x="34.0743" y="-8183.0879" width="34.4043" height="32766" maskUnits="userSpaceOnUse">
      <g class="cls-23"/>
    </mask>
    <linearGradient id="åçûìßííûé_ãðàäèåíò_2" data-name="åçûìßííûé ãðàäèåíò 2" x1="-0.23048" y1="13.942" x2="67.49961" y2="60.57589" gradientUnits="userSpaceOnUse">
      <stop offset="0" stop-color="#fff"/>
      <stop offset="0.50007" stop-color="#f0f0f0"/>
      <stop offset="1" stop-color="#e6e6e6"/>
    </linearGradient>
    <clipPath id="clip-path">
      <polygon class="cls-3" points="68.367 19.801 68.479 59.209 34.184 79.01 34.072 39.601 68.367 19.801"/>
    </clipPath>
    <clipPath id="clip-path-2">
      <polygon class="cls-3" points="34.184 79.01 0.111 59.207 0 19.801 34.072 39.601 34.184 79.01"/>
    </clipPath>
    <clipPath id="clip-path-3">
      <polygon class="cls-3" points="34.072 39.601 0 19.801 34.295 0 68.367 19.801 34.072 39.601"/>
    </clipPath>
    <filter id="luminosity-noclip-2" x="34.0743" y="19.8018" width="34.4043" height="59.208" filterUnits="userSpaceOnUse" color-interpolation-filters="sRGB">
      <feFlood flood-color="#fff" result="bg"/>
      <feBlend in="SourceGraphic" in2="bg"/>
    </filter>
    <mask id="mask-2" x="34.0743" y="19.8018" width="34.4043" height="59.208" maskUnits="userSpaceOnUse">
      <g class="cls-1">
        <polygon class="cls-2" points="68.367 19.802 68.479 59.209 34.186 79.01 34.074 39.601 68.367 19.802"/>
      </g>
    </mask>
    <linearGradient id="linear-gradient" x1="-0.23048" y1="13.942" x2="67.49961" y2="60.57589" gradientUnits="userSpaceOnUse">
      <stop offset="0" stop-color="#fff"/>
      <stop offset="0.22658" stop-color="#d5cdc6"/>
      <stop offset="0.4937" stop-color="#a9978a"/>
      <stop offset="0.72113" stop-color="#88705d"/>
      <stop offset="0.89701" stop-color="#745842"/>
      <stop offset="1" stop-color="#6d4f38"/>
    </linearGradient>
    <linearGradient id="linear-gradient-2" x1="-20.42871" y1="-34.81201" x2="133.49813" y2="119.11483" gradientUnits="userSpaceOnUse">
      <stop offset="0" stop-color="#ecd5ee"/>
      <stop offset="1"/>
    </linearGradient>
  </defs>
  <g class="cls-4">
    <g id="Layer_2" data-name="Layer 2">
      <g id="Layer_1-2" data-name="Layer 1">
        <g id="_14" data-name="14">
          <g class="cls-4">
            <g class="cls-4">
              <polygon class="cls-3" points="68.367 19.801 68.479 59.209 34.184 79.01 34.072 39.601 68.367 19.801"/>
              <g class="cls-5">
                <g>
                  <polygon class="cls-6" points="68.469 56.176 65.832 57.699 65.84 60.73 68.477 59.209 68.469 56.176 68.469 56.176"/>
                  <polygon class="cls-6" points="68.461 53.144 65.823 54.666 65.832 57.699 68.469 56.176 68.461 53.144 68.461 53.144"/>
                  <polygon class="cls-7" points="68.452 50.111 65.816 51.635 65.823 54.666 68.461 53.144 68.452 50.111 68.452 50.111"/>
                  <polygon class="cls-8" points="68.443 47.084 65.808 48.606 65.816 51.635 68.452 50.111 68.443 47.084 68.443 47.084"/>
                  <polygon class="cls-6" points="68.436 44.054 65.797 45.575 65.808 48.606 68.443 47.084 68.436 44.054 68.436 44.054"/>
                  <polygon class="cls-9" points="68.427 41.021 65.789 42.545 65.797 45.575 68.436 44.054 68.427 41.021 68.427 41.021"/>
                  <polygon class="cls-9" points="68.418 37.991 65.781 39.515 65.789 42.545 68.427 41.021 68.418 37.991 68.418 37.991"/>
                  <polygon class="cls-8" points="68.41 34.959 65.772 36.481 65.781 39.515 68.418 37.991 68.41 34.959 68.41 34.959"/>
                  <polygon class="cls-9" points="68.399 31.926 65.763 33.449 65.772 36.481 68.41 34.959 68.399 31.926 68.399 31.926"/>
                  <polygon class="cls-9" points="68.392 28.895 65.755 30.418 65.763 33.449 68.399 31.926 68.392 28.895 68.392 28.895"/>
                  <polygon class="cls-9" points="68.384 25.863 65.746 27.387 65.755 30.418 68.392 28.895 68.384 25.863 68.384 25.863"/>
                  <polygon class="cls-8" points="68.375 22.833 65.737 24.356 65.746 27.387 68.384 25.863 68.375 22.833 68.375 22.833"/>
                  <polygon class="cls-10" points="68.367 19.802 65.729 21.325 65.737 24.356 68.375 22.833 68.367 19.802 68.367 19.802"/>
                  <polygon class="cls-8" points="65.832 57.699 63.194 59.221 63.203 62.253 65.84 60.73 65.832 57.699 65.832 57.699"/>
                  <polygon class="cls-8" points="65.823 54.666 63.187 56.188 63.194 59.221 65.832 57.699 65.823 54.666 65.823 54.666"/>
                  <polygon class="cls-8" points="65.816 51.635 63.179 53.157 63.187 56.188 65.823 54.666 65.816 51.635 65.816 51.635"/>
                  <polygon class="cls-9" points="65.808 48.606 63.17 50.129 63.179 53.157 65.816 51.635 65.808 48.606 65.808 48.606"/>
                  <polygon class="cls-6" points="65.797 45.575 63.16 47.099 63.17 50.129 65.808 48.606 65.797 45.575 65.797 45.575"/>
                  <polygon class="cls-9" points="65.789 42.545 63.152 44.067 63.16 47.099 65.797 45.575 65.789 42.545 65.789 42.545"/>
                  <polygon class="cls-7" points="65.781 39.515 63.144 41.035 63.152 44.067 65.789 42.545 65.781 39.515 65.781 39.515"/>
                  <polygon class="cls-8" points="65.772 36.481 63.135 38.005 63.144 41.035 65.781 39.515 65.772 36.481 65.772 36.481"/>
                  <polygon class="cls-9" points="65.763 33.449 63.127 34.972 63.135 38.005 65.772 36.481 65.763 33.449 65.763 33.449"/>
                  <polygon class="cls-6" points="65.755 30.418 63.116 31.94 63.127 34.972 65.763 33.449 65.755 30.418 65.755 30.418"/>
                  <polygon class="cls-11" points="65.746 27.387 63.108 28.908 63.116 31.94 65.755 30.418 65.746 27.387 65.746 27.387"/>
                  <polygon class="cls-12" points="65.737 24.356 63.101 25.876 63.108 28.908 65.746 27.387 65.737 24.356 65.737 24.356"/>
                  <polygon class="cls-8" points="65.729 21.325 63.092 22.848 63.101 25.876 65.737 24.356 65.729 21.325 65.729 21.325"/>
                  <polygon class="cls-6" points="63.194 59.221 60.557 60.744 60.566 63.777 63.203 62.253 63.194 59.221 63.194 59.221"/>
                  <polygon class="cls-9" points="63.187 56.188 60.548 57.713 60.557 60.744 63.194 59.221 63.187 56.188 63.187 56.188"/>
                  <polygon class="cls-7" points="63.179 53.157 60.539 54.681 60.548 57.713 63.187 56.188 63.179 53.157 63.179 53.157"/>
                  <polygon class="cls-13" points="63.17 50.129 60.53 51.652 60.539 54.681 63.179 53.157 63.17 50.129 63.17 50.129"/>
                  <polygon class="cls-11" points="63.16 47.099 60.522 48.623 60.53 51.652 63.17 50.129 63.16 47.099 63.16 47.099"/>
                  <polygon class="cls-9" points="63.152 44.067 60.513 45.589 60.522 48.623 63.16 47.099 63.152 44.067 63.152 44.067"/>
                  <polygon class="cls-9" points="63.144 41.035 60.505 42.56 60.513 45.589 63.152 44.067 63.144 41.035 63.144 41.035"/>
                  <polygon class="cls-6" points="63.135 38.005 60.497 39.527 60.505 42.56 63.144 41.035 63.135 38.005 63.135 38.005"/>
                  <polygon class="cls-7" points="63.127 34.972 60.487 36.497 60.497 39.527 63.135 38.005 63.127 34.972 63.127 34.972"/>
                  <polygon class="cls-13" points="63.116 31.94 60.479 33.464 60.487 36.497 63.127 34.972 63.116 31.94 63.116 31.94"/>
                  <polygon class="cls-14" points="63.108 28.908 60.471 30.431 60.479 33.464 63.116 31.94 63.108 28.908 63.108 28.908"/>
                  <polygon class="cls-15" points="63.101 25.876 60.462 27.4 60.471 30.431 63.108 28.908 63.101 25.876 63.101 25.876"/>
                  <polygon class="cls-9" points="63.092 22.848 60.454 24.371 60.462 27.4 63.101 25.876 63.092 22.848 63.092 22.848"/>
                  <polygon class="cls-7" points="60.557 60.744 57.918 62.269 57.927 65.3 60.566 63.777 60.557 60.744 60.557 60.744"/>
                  <polygon class="cls-13" points="60.548 57.713 57.908 59.236 57.918 62.269 60.557 60.744 60.548 57.713 60.548 57.713"/>
                  <polygon class="cls-15" points="60.539 54.681 57.9 56.205 57.908 59.236 60.548 57.713 60.539 54.681 60.539 54.681"/>
                  <polygon class="cls-8" points="60.53 51.652 57.893 53.176 57.9 56.205 60.539 54.681 60.53 51.652 60.53 51.652"/>
                  <polygon class="cls-14" points="60.522 48.623 57.883 50.144 57.893 53.176 60.53 51.652 60.522 48.623 60.522 48.623"/>
                  <polygon class="cls-14" points="60.513 45.589 57.874 47.113 57.883 50.144 60.522 48.623 60.513 45.589 60.513 45.589"/>
                  <polygon class="cls-7" points="60.505 42.56 57.866 44.082 57.874 47.113 60.513 45.589 60.505 42.56 60.505 42.56"/>
                  <polygon class="cls-6" points="60.497 39.527 57.858 41.052 57.866 44.082 60.505 42.56 60.497 39.527 60.497 39.527"/>
                  <polygon class="cls-9" points="60.487 36.497 57.85 38.019 57.858 41.052 60.497 39.527 60.487 36.497 60.487 36.497"/>
                  <polygon class="cls-6" points="60.479 33.464 57.84 34.985 57.85 38.019 60.487 36.497 60.479 33.464 60.479 33.464"/>
                  <polygon class="cls-9" points="60.471 30.431 57.832 31.955 57.84 34.985 60.479 33.464 60.471 30.431 60.471 30.431"/>
                  <polygon class="cls-8" points="60.462 27.4 57.824 28.924 57.832 31.955 60.471 30.431 60.462 27.4 60.462 27.4"/>
                  <polygon class="cls-8" points="60.454 24.371 57.815 25.894 57.824 28.924 60.462 27.4 60.454 24.371 60.454 24.371"/>
                  <polygon class="cls-13" points="57.918 62.269 55.281 63.791 55.29 66.822 57.927 65.3 57.918 62.269 57.918 62.269"/>
                  <polygon class="cls-11" points="57.908 59.236 55.272 60.759 55.281 63.791 57.918 62.269 57.908 59.236 57.908 59.236"/>
                  <polygon class="cls-14" points="57.9 56.205 55.263 57.727 55.272 60.759 57.908 59.236 57.9 56.205 57.9 56.205"/>
                  <polygon class="cls-9" points="57.893 53.176 55.254 54.697 55.263 57.727 57.9 56.205 57.893 53.176 57.893 53.176"/>
                  <polygon class="cls-13" points="57.883 50.144 55.246 51.667 55.254 54.697 57.893 53.176 57.883 50.144 57.883 50.144"/>
                  <polygon class="cls-15" points="57.874 47.113 55.236 48.635 55.246 51.667 57.883 50.144 57.874 47.113 57.874 47.113"/>
                  <polygon class="cls-12" points="57.866 44.082 55.229 45.605 55.236 48.635 57.874 47.113 57.866 44.082 57.866 44.082"/>
                  <polygon class="cls-12" points="57.858 41.052 55.221 42.574 55.229 45.605 57.866 44.082 57.858 41.052 57.858 41.052"/>
                  <polygon class="cls-6" points="57.85 38.019 55.213 39.541 55.221 42.574 57.858 41.052 57.85 38.019 57.85 38.019"/>
                  <polygon class="cls-9" points="57.84 34.985 55.203 36.509 55.213 39.541 57.85 38.019 57.84 34.985 57.84 34.985"/>
                  <polygon class="cls-9" points="57.832 31.955 55.193 33.478 55.203 36.509 57.84 34.985 57.832 31.955 57.832 31.955"/>
                  <polygon class="cls-7" points="57.824 28.924 55.185 30.447 55.193 33.478 57.832 31.955 57.824 28.924 57.824 28.924"/>
                  <polygon class="cls-9" points="57.815 25.894 55.177 27.417 55.185 30.447 57.824 28.924 57.815 25.894 57.815 25.894"/>
                  <polygon class="cls-13" points="55.281 63.791 52.642 65.314 52.65 68.347 55.29 66.822 55.281 63.791 55.281 63.791"/>
                  <polygon class="cls-6" points="55.272 60.759 52.633 62.281 52.642 65.314 55.281 63.791 55.272 60.759 55.272 60.759"/>
                  <polygon class="cls-7" points="55.263 57.727 52.624 59.25 52.633 62.281 55.272 60.759 55.263 57.727 55.263 57.727"/>
                  <polygon class="cls-6" points="55.254 54.697 52.616 56.222 52.624 59.25 55.263 57.727 55.254 54.697 55.254 54.697"/>
                  <polygon class="cls-6" points="55.246 51.667 52.608 53.191 52.616 56.222 55.254 54.697 55.246 51.667 55.246 51.667"/>
                  <polygon class="cls-9" points="55.236 48.635 52.6 50.159 52.608 53.191 55.246 51.667 55.236 48.635 55.236 48.635"/>
                  <polygon class="cls-9" points="55.229 45.605 52.591 47.129 52.6 50.159 55.236 48.635 55.229 45.605 55.229 45.605"/>
                  <polygon class="cls-13" points="55.221 42.574 52.581 44.096 52.591 47.129 55.229 45.605 55.221 42.574 55.221 42.574"/>
                  <polygon class="cls-14" points="55.213 39.541 52.573 41.064 52.581 44.096 55.221 42.574 55.213 39.541 55.213 39.541"/>
                  <polygon class="cls-7" points="55.203 36.509 52.565 38.033 52.573 41.064 55.213 39.541 55.203 36.509 55.203 36.509"/>
                  <polygon class="cls-14" points="55.193 33.478 52.555 35.001 52.565 38.033 55.203 36.509 55.193 33.478 55.193 33.478"/>
                  <polygon class="cls-8" points="55.185 30.447 52.547 31.971 52.555 35.001 55.193 33.478 55.185 30.447 55.185 30.447"/>
                  <polygon class="cls-16" points="55.177 27.417 52.539 28.939 52.547 31.971 55.185 30.447 55.177 27.417 55.177 27.417"/>
                  <polygon class="cls-6" points="52.642 65.314 50.003 66.838 50.012 69.869 52.65 68.347 52.642 65.314 52.642 65.314"/>
                  <polygon class="cls-13" points="52.633 62.281 49.994 63.806 50.003 66.838 52.642 65.314 52.633 62.281 52.633 62.281"/>
                  <polygon class="cls-14" points="52.624 59.25 49.986 60.773 49.994 63.806 52.633 62.281 52.624 59.25 52.624 59.25"/>
                  <polygon class="cls-9" points="52.616 56.222 49.978 57.745 49.986 60.773 52.624 59.25 52.616 56.222 52.616 56.222"/>
                  <polygon class="cls-13" points="52.608 53.191 49.97 54.715 49.978 57.745 52.616 56.222 52.608 53.191 52.608 53.191"/>
                  <polygon class="cls-9" points="52.6 50.159 49.962 51.684 49.97 54.715 52.608 53.191 52.6 50.159 52.6 50.159"/>
                  <polygon class="cls-7" points="52.591 47.129 49.95 48.651 49.962 51.684 52.6 50.159 52.591 47.129 52.591 47.129"/>
                  <polygon class="cls-9" points="52.581 44.096 49.942 45.62 49.95 48.651 52.591 47.129 52.581 44.096 52.581 44.096"/>
                  <polygon class="cls-9" points="52.573 41.064 49.935 42.588 49.942 45.62 52.581 44.096 52.573 41.064 52.573 41.064"/>
                  <polygon class="cls-9" points="52.565 38.033 49.926 39.557 49.935 42.588 52.573 41.064 52.565 38.033 52.565 38.033"/>
                  <polygon class="cls-13" points="52.555 35.001 49.917 36.525 49.926 39.557 52.565 38.033 52.555 35.001 52.555 35.001"/>
                  <polygon class="cls-11" points="52.547 31.971 49.908 33.493 49.917 36.525 52.555 35.001 52.547 31.971 52.547 31.971"/>
                  <polygon class="cls-10" points="52.539 28.939 49.899 30.463 49.908 33.493 52.547 31.971 52.539 28.939 52.539 28.939"/>
                  <polygon class="cls-8" points="50.003 66.838 47.365 68.36 47.373 71.393 50.012 69.869 50.003 66.838 50.003 66.838"/>
                  <polygon class="cls-9" points="49.994 63.806 47.358 65.33 47.365 68.36 50.003 66.838 49.994 63.806 49.994 63.806"/>
                  <polygon class="cls-8" points="49.986 60.773 47.348 62.298 47.358 65.33 49.994 63.806 49.986 60.773 49.986 60.773"/>
                  <polygon class="cls-12" points="49.978 57.745 47.338 59.269 47.348 62.298 49.986 60.773 49.978 57.745 49.978 57.745"/>
                  <polygon class="cls-9" points="49.97 54.715 47.33 56.238 47.338 59.269 49.978 57.745 49.97 54.715 49.97 54.715"/>
                  <polygon class="cls-6" points="49.962 51.684 47.321 53.205 47.33 56.238 49.97 54.715 49.962 51.684 49.962 51.684"/>
                  <polygon class="cls-9" points="49.95 48.651 47.313 50.176 47.321 53.205 49.962 51.684 49.95 48.651 49.95 48.651"/>
                  <polygon class="cls-8" points="49.942 45.62 47.305 47.144 47.313 50.176 49.95 48.651 49.942 45.62 49.942 45.62"/>
                  <polygon class="cls-13" points="49.935 42.588 47.296 44.111 47.305 47.144 49.942 45.62 49.935 42.588 49.935 42.588"/>
                  <polygon class="cls-9" points="49.926 39.557 47.288 41.08 47.296 44.111 49.935 42.588 49.926 39.557 49.926 39.557"/>
                  <polygon class="cls-9" points="49.917 36.525 47.279 38.047 47.288 41.08 49.926 39.557 49.917 36.525 49.917 36.525"/>
                  <polygon class="cls-12" points="49.908 33.493 47.27 35.018 47.279 38.047 49.917 36.525 49.908 33.493 49.908 33.493"/>
                  <polygon class="cls-9" points="49.899 30.463 47.262 31.986 47.27 35.018 49.908 33.493 49.899 30.463 49.899 30.463"/>
                  <polygon class="cls-7" points="47.365 68.36 44.729 69.884 44.736 72.916 47.373 71.393 47.365 68.36 47.365 68.36"/>
                  <polygon class="cls-6" points="47.358 65.33 44.72 66.852 44.729 69.884 47.365 68.36 47.358 65.33 47.358 65.33"/>
                  <polygon class="cls-9" points="47.348 62.298 44.711 63.82 44.72 66.852 47.358 65.33 47.348 62.298 47.348 62.298"/>
                  <polygon class="cls-8" points="47.338 59.269 44.701 60.792 44.711 63.82 47.348 62.298 47.338 59.269 47.338 59.269"/>
                  <polygon class="cls-6" points="47.33 56.238 44.692 57.76 44.701 60.792 47.338 59.269 47.33 56.238 47.33 56.238"/>
                  <polygon class="cls-14" points="47.321 53.205 44.685 54.728 44.692 57.76 47.33 56.238 47.321 53.205 47.321 53.205"/>
                  <polygon class="cls-15" points="47.313 50.176 44.676 51.697 44.685 54.728 47.321 53.205 47.313 50.176 47.313 50.176"/>
                  <polygon class="cls-7" points="47.305 47.144 44.667 48.667 44.676 51.697 47.313 50.176 47.305 47.144 47.305 47.144"/>
                  <polygon class="cls-9" points="47.296 44.111 44.658 45.635 44.667 48.667 47.305 47.144 47.296 44.111 47.296 44.111"/>
                  <polygon class="cls-9" points="47.288 41.08 44.65 42.602 44.658 45.635 47.296 44.111 47.288 41.08 47.288 41.08"/>
                  <polygon class="cls-6" points="47.279 38.047 44.642 39.57 44.65 42.602 47.288 41.08 47.279 38.047 47.279 38.047"/>
                  <polygon class="cls-8" points="47.27 35.018 44.633 36.539 44.642 39.57 47.279 38.047 47.27 35.018 47.27 35.018"/>
                  <polygon class="cls-8" points="47.262 31.986 44.625 33.51 44.633 36.539 47.27 35.018 47.262 31.986 47.262 31.986"/>
                  <polygon class="cls-13" points="44.729 69.884 42.091 71.407 42.1 74.438 44.736 72.916 44.729 69.884 44.729 69.884"/>
                  <polygon class="cls-11" points="44.72 66.852 42.082 68.375 42.091 71.407 44.729 69.884 44.72 66.852 44.72 66.852"/>
                  <polygon class="cls-9" points="44.711 63.82 42.072 65.341 42.082 68.375 44.72 66.852 44.711 63.82 44.711 63.82"/>
                  <polygon class="cls-13" points="44.701 60.792 42.064 62.312 42.072 65.341 44.711 63.82 44.701 60.792 44.701 60.792"/>
                  <polygon class="cls-11" points="44.692 57.76 42.056 59.283 42.064 62.312 44.701 60.792 44.692 57.76 44.692 57.76"/>
                  <polygon class="cls-14" points="44.685 54.728 42.048 56.252 42.056 59.283 44.692 57.76 44.685 54.728 44.685 54.728"/>
                  <polygon class="cls-8" points="44.676 51.697 42.039 53.221 42.048 56.252 44.685 54.728 44.676 51.697 44.676 51.697"/>
                  <polygon class="cls-12" points="44.667 48.667 42.029 50.189 42.039 53.221 44.676 51.697 44.667 48.667 44.667 48.667"/>
                  <polygon class="cls-13" points="44.658 45.635 42.022 47.156 42.029 50.189 44.667 48.667 44.658 45.635 44.658 45.635"/>
                  <polygon class="cls-14" points="44.65 42.602 42.013 44.125 42.022 47.156 44.658 45.635 44.65 42.602 44.65 42.602"/>
                  <polygon class="cls-8" points="44.642 39.57 42.005 41.094 42.013 44.125 44.65 42.602 44.642 39.57 44.642 39.57"/>
                  <polygon class="cls-16" points="44.633 36.539 41.996 38.062 42.005 41.094 44.642 39.57 44.633 36.539 44.633 36.539"/>
                  <polygon class="cls-6" points="44.625 33.51 41.987 35.031 41.996 38.062 44.633 36.539 44.625 33.51 44.625 33.51"/>
                  <polygon class="cls-7" points="42.091 71.407 39.453 72.928 39.461 75.961 42.1 74.438 42.091 71.407 42.091 71.407"/>
                  <polygon class="cls-14" points="42.082 68.375 39.445 69.896 39.453 72.928 42.091 71.407 42.082 68.375 42.082 68.375"/>
                  <polygon class="cls-7" points="42.072 65.341 39.436 66.864 39.445 69.896 42.082 68.375 42.072 65.341 42.072 65.341"/>
                  <polygon class="cls-11" points="42.064 62.312 39.427 63.836 39.436 66.864 42.072 65.341 42.064 62.312 42.064 62.312"/>
                  <polygon class="cls-14" points="42.056 59.283 39.419 60.806 39.427 63.836 42.064 62.312 42.056 59.283 42.056 59.283"/>
                  <polygon class="cls-7" points="42.048 56.252 39.41 57.775 39.419 60.806 42.056 59.283 42.048 56.252 42.048 56.252"/>
                  <polygon class="cls-9" points="42.039 53.221 39.401 54.744 39.41 57.775 42.048 56.252 42.039 53.221 42.039 53.221"/>
                  <polygon class="cls-6" points="42.029 50.189 39.393 51.712 39.401 54.744 42.039 53.221 42.029 50.189 42.029 50.189"/>
                  <polygon class="cls-13" points="42.022 47.156 39.384 48.68 39.393 51.712 42.029 50.189 42.022 47.156 42.022 47.156"/>
                  <polygon class="cls-14" points="42.013 44.125 39.376 45.647 39.384 48.68 42.022 47.156 42.013 44.125 42.013 44.125"/>
                  <polygon class="cls-15" points="42.005 41.094 39.368 42.616 39.376 45.647 42.013 44.125 42.005 41.094 42.005 41.094"/>
                  <polygon class="cls-8" points="41.996 38.062 39.359 39.586 39.368 42.616 42.005 41.094 41.996 38.062 41.996 38.062"/>
                  <polygon class="cls-9" points="41.987 35.031 39.351 36.555 39.359 39.586 41.996 38.062 41.987 35.031 41.987 35.031"/>
                  <polygon class="cls-6" points="39.453 72.928 36.814 74.451 36.822 77.485 39.461 75.961 39.453 72.928 39.453 72.928"/>
                  <polygon class="cls-7" points="39.445 69.896 36.806 71.419 36.814 74.451 39.453 72.928 39.445 69.896 39.445 69.896"/>
                  <polygon class="cls-12" points="39.436 66.864 36.798 68.388 36.806 71.419 39.445 69.896 39.436 66.864 39.436 66.864"/>
                  <polygon class="cls-12" points="39.427 63.836 36.787 65.36 36.798 68.388 39.436 66.864 39.427 63.836 39.427 63.836"/>
                  <polygon class="cls-8" points="39.419 60.806 36.779 62.33 36.787 65.36 39.427 63.836 39.419 60.806 39.419 60.806"/>
                  <polygon class="cls-10" points="39.41 57.775 36.772 59.297 36.779 62.33 39.419 60.806 39.41 57.775 39.41 57.775"/>
                  <polygon class="cls-8" points="39.401 54.744 36.764 56.267 36.772 59.297 39.41 57.775 39.401 54.744 39.401 54.744"/>
                  <polygon class="cls-6" points="39.393 51.712 36.754 53.235 36.764 56.267 39.401 54.744 39.393 51.712 39.393 51.712"/>
                  <polygon class="cls-6" points="39.384 48.68 36.746 50.203 36.754 53.235 39.393 51.712 39.384 48.68 39.384 48.68"/>
                  <polygon class="cls-11" points="39.376 45.647 36.737 47.172 36.746 50.203 39.384 48.68 39.376 45.647 39.376 45.647"/>
                  <polygon class="cls-14" points="39.368 42.616 36.728 44.139 36.737 47.172 39.376 45.647 39.368 42.616 39.368 42.616"/>
                  <polygon class="cls-13" points="39.359 39.586 36.72 41.108 36.728 44.139 39.368 42.616 39.359 39.586 39.359 39.586"/>
                  <polygon class="cls-8" points="39.351 36.555 36.711 38.078 36.72 41.108 39.359 39.586 39.351 36.555 39.351 36.555"/>
                  <polygon class="cls-7" points="36.814 74.451 34.177 75.975 34.186 79.007 36.822 77.485 36.814 74.451 36.814 74.451"/>
                  <polygon class="cls-9" points="36.806 71.419 34.169 72.942 34.177 75.975 36.814 74.451 36.806 71.419 36.806 71.419"/>
                  <polygon class="cls-7" points="36.798 68.388 34.16 69.911 34.169 72.942 36.806 71.419 36.798 68.388 36.798 68.388"/>
                  <polygon class="cls-8" points="36.787 65.36 34.15 66.883 34.16 69.911 36.798 68.388 36.787 65.36 36.787 65.36"/>
                  <polygon class="cls-9" points="36.779 62.33 34.143 63.852 34.15 66.883 36.787 65.36 36.779 62.33 36.779 62.33"/>
                  <polygon class="cls-9" points="36.772 59.297 34.134 60.82 34.143 63.852 36.779 62.33 36.772 59.297 36.772 59.297"/>
                  <polygon class="cls-9" points="36.764 56.267 34.126 57.789 34.134 60.82 36.772 59.297 36.764 56.267 36.764 56.267"/>
                  <polygon class="cls-8" points="36.754 53.235 34.118 54.758 34.126 57.789 36.764 56.267 36.754 53.235 36.754 53.235"/>
                  <polygon class="cls-6" points="36.746 50.203 34.108 51.726 34.118 54.758 36.754 53.235 36.746 50.203 36.746 50.203"/>
                  <polygon class="cls-9" points="36.737 47.172 34.099 48.693 34.108 51.726 36.746 50.203 36.737 47.172 36.737 47.172"/>
                  <polygon class="cls-7" points="36.728 44.139 34.091 45.662 34.099 48.693 36.737 47.172 36.728 44.139 36.728 44.139"/>
                  <polygon class="cls-8" points="36.72 41.108 34.082 42.631 34.091 45.662 36.728 44.139 36.72 41.108 36.72 41.108"/>
                  <polygon class="cls-9" points="36.711 38.078 34.074 39.601 34.082 42.631 36.72 41.108 36.711 38.078 36.711 38.078"/>
                </g>
              </g>
            </g>
            <g class="cls-4">
              <polygon class="cls-3" points="34.184 79.01 0.111 59.207 0 19.801 34.072 39.601 34.184 79.01"/>
              <g class="cls-17">
                <g>
                  <polygon class="cls-6" points="2.734 60.729 2.727 57.7 0.104 56.176 0.112 59.206 2.734 60.729 2.734 60.729"/>
                  <polygon class="cls-6" points="5.356 62.253 5.347 59.223 2.727 57.7 2.734 60.729 5.356 62.253 5.356 62.253"/>
                  <polygon class="cls-7" points="7.977 63.777 7.968 60.745 5.347 59.223 5.356 62.253 7.977 63.777 7.977 63.777"/>
                  <polygon class="cls-8" points="10.596 65.298 10.588 62.269 7.968 60.745 7.977 63.777 10.596 65.298 10.596 65.298"/>
                  <polygon class="cls-6" points="13.217 66.821 13.207 63.791 10.588 62.269 10.596 65.298 13.217 66.821 13.217 66.821"/>
                  <polygon class="cls-9" points="15.837 68.345 15.829 65.314 13.207 63.791 13.217 66.821 15.837 68.345 15.837 68.345"/>
                  <polygon class="cls-9" points="18.457 69.867 18.449 66.838 15.829 65.314 15.837 68.345 18.457 69.867 18.457 69.867"/>
                  <polygon class="cls-8" points="21.079 71.391 21.07 68.359 18.449 66.838 18.457 69.867 21.079 71.391 21.079 71.391"/>
                  <polygon class="cls-9" points="23.701 72.914 23.691 69.884 21.07 68.359 21.079 71.391 23.701 72.914 23.701 72.914"/>
                  <polygon class="cls-9" points="26.321 74.438 26.314 71.407 23.691 69.884 23.701 72.914 26.321 74.438 26.321 74.438"/>
                  <polygon class="cls-9" points="28.942 75.961 28.935 72.932 26.314 71.407 26.321 74.438 28.942 75.961 28.942 75.961"/>
                  <polygon class="cls-8" points="31.564 77.483 31.555 74.453 28.935 72.932 28.942 75.961 31.564 77.483 31.564 77.483"/>
                  <polygon class="cls-10" points="34.183 79.006 34.175 75.976 31.555 74.453 31.564 77.483 34.183 79.006 34.183 79.006"/>
                  <polygon class="cls-8" points="2.727 57.7 2.717 54.67 0.096 53.146 0.104 56.176 2.727 57.7 2.727 57.7"/>
                  <polygon class="cls-8" points="5.347 59.223 5.339 56.193 2.717 54.67 2.727 57.7 5.347 59.223 5.347 59.223"/>
                  <polygon class="cls-8" points="7.968 60.745 7.96 57.715 5.339 56.193 5.347 59.223 7.968 60.745 7.968 60.745"/>
                  <polygon class="cls-9" points="10.588 62.269 10.579 59.238 7.96 57.715 7.968 60.745 10.588 62.269 10.588 62.269"/>
                  <polygon class="cls-6" points="13.207 63.791 13.198 60.76 10.579 59.238 10.588 62.269 13.207 63.791 13.207 63.791"/>
                  <polygon class="cls-9" points="15.829 65.314 15.82 62.283 13.198 60.76 13.207 63.791 15.829 65.314 15.829 65.314"/>
                  <polygon class="cls-7" points="18.449 66.838 18.44 63.807 15.82 62.283 15.829 65.314 18.449 66.838 18.449 66.838"/>
                  <polygon class="cls-8" points="21.07 68.359 21.063 65.33 18.44 63.807 18.449 66.838 21.07 68.359 21.07 68.359"/>
                  <polygon class="cls-9" points="23.691 69.884 23.684 66.853 21.063 65.33 21.07 68.359 23.691 69.884 23.691 69.884"/>
                  <polygon class="cls-6" points="26.314 71.407 26.305 68.377 23.684 66.853 23.691 69.884 26.314 71.407 26.314 71.407"/>
                  <polygon class="cls-11" points="28.935 72.932 28.926 69.901 26.305 68.377 26.314 71.407 28.935 72.932 28.935 72.932"/>
                  <polygon class="cls-12" points="31.555 74.453 31.547 71.423 28.926 69.901 28.935 72.932 31.555 74.453 31.555 74.453"/>
                  <polygon class="cls-8" points="34.175 75.976 34.167 72.945 31.547 71.423 31.555 74.453 34.175 75.976 34.175 75.976"/>
                  <polygon class="cls-6" points="2.717 54.67 2.709 51.638 0.086 50.113 0.096 53.146 2.717 54.67 2.717 54.67"/>
                  <polygon class="cls-9" points="5.339 56.193 5.33 53.16 2.709 51.638 2.717 54.67 5.339 56.193 5.339 56.193"/>
                  <polygon class="cls-7" points="7.96 57.715 7.951 54.684 5.33 53.16 5.339 56.193 7.96 57.715 7.96 57.715"/>
                  <polygon class="cls-13" points="10.579 59.238 10.569 56.206 7.951 54.684 7.96 57.715 10.579 59.238 10.579 59.238"/>
                  <polygon class="cls-11" points="13.198 60.76 13.191 57.728 10.569 56.206 10.579 59.238 13.198 60.76 13.198 60.76"/>
                  <polygon class="cls-9" points="15.82 62.283 15.811 59.251 13.191 57.728 13.198 60.76 15.82 62.283 15.82 62.283"/>
                  <polygon class="cls-9" points="18.44 63.807 18.432 60.774 15.811 59.251 15.82 62.283 18.44 63.807 18.44 63.807"/>
                  <polygon class="cls-6" points="21.063 65.33 21.053 62.298 18.432 60.774 18.44 63.807 21.063 65.33 21.063 65.33"/>
                  <polygon class="cls-7" points="23.684 66.853 23.676 63.822 21.053 62.298 21.063 65.33 23.684 66.853 23.684 66.853"/>
                  <polygon class="cls-13" points="26.305 68.377 26.296 65.344 23.676 63.822 23.684 66.853 26.305 68.377 26.305 68.377"/>
                  <polygon class="cls-14" points="28.926 69.901 28.918 66.868 26.296 65.344 26.305 68.377 28.926 69.901 28.926 69.901"/>
                  <polygon class="cls-15" points="31.547 71.423 31.538 68.392 28.918 66.868 28.926 69.901 31.547 71.423 31.547 71.423"/>
                  <polygon class="cls-9" points="34.167 72.945 34.158 69.914 31.538 68.392 31.547 71.423 34.167 72.945 34.167 72.945"/>
                  <polygon class="cls-7" points="2.709 51.638 2.7 48.604 0.078 47.08 0.086 50.113 2.709 51.638 2.709 51.638"/>
                  <polygon class="cls-13" points="5.33 53.16 5.32 50.128 2.7 48.604 2.709 51.638 5.33 53.16 5.33 53.16"/>
                  <polygon class="cls-15" points="7.951 54.684 7.942 51.652 5.32 50.128 5.33 53.16 7.951 54.684 7.951 54.684"/>
                  <polygon class="cls-8" points="10.569 56.206 10.562 53.174 7.942 51.652 7.951 54.684 10.569 56.206 10.569 56.206"/>
                  <polygon class="cls-14" points="13.191 57.728 13.182 54.696 10.562 53.174 10.569 56.206 13.191 57.728 13.191 57.728"/>
                  <polygon class="cls-14" points="15.811 59.251 15.803 56.22 13.182 54.696 13.191 57.728 15.811 59.251 15.811 59.251"/>
                  <polygon class="cls-7" points="18.432 60.774 18.424 57.742 15.803 56.22 15.811 59.251 18.432 60.774 18.432 60.774"/>
                  <polygon class="cls-6" points="21.053 62.298 21.044 59.267 18.424 57.742 18.432 60.774 21.053 62.298 21.053 62.298"/>
                  <polygon class="cls-9" points="23.676 63.822 23.666 60.789 21.044 59.267 21.053 62.298 23.676 63.822 23.676 63.822"/>
                  <polygon class="cls-6" points="26.296 65.344 26.288 62.312 23.666 60.789 23.676 63.822 26.296 65.344 26.296 65.344"/>
                  <polygon class="cls-9" points="28.918 66.868 28.908 63.836 26.288 62.312 26.296 65.344 28.918 66.868 28.918 66.868"/>
                  <polygon class="cls-8" points="31.538 68.392 31.528 65.359 28.908 63.836 28.918 66.868 31.538 68.392 31.538 68.392"/>
                  <polygon class="cls-8" points="34.158 69.914 34.149 66.881 31.528 65.359 31.538 68.392 34.158 69.914 34.158 69.914"/>
                  <polygon class="cls-13" points="2.7 48.604 2.691 45.575 0.069 44.052 0.078 47.08 2.7 48.604 2.7 48.604"/>
                  <polygon class="cls-11" points="5.32 50.128 5.313 47.099 2.691 45.575 2.7 48.604 5.32 50.128 5.32 50.128"/>
                  <polygon class="cls-14" points="7.942 51.652 7.934 48.623 5.313 47.099 5.32 50.128 7.942 51.652 7.942 51.652"/>
                  <polygon class="cls-9" points="10.562 53.174 10.553 50.143 7.934 48.623 7.942 51.652 10.562 53.174 10.562 53.174"/>
                  <polygon class="cls-13" points="13.182 54.696 13.173 51.666 10.553 50.143 10.562 53.174 13.182 54.696 13.182 54.696"/>
                  <polygon class="cls-15" points="15.803 56.22 15.795 53.189 13.173 51.666 13.182 54.696 15.803 56.22 15.803 56.22"/>
                  <polygon class="cls-12" points="18.424 57.742 18.414 54.713 15.795 53.189 15.803 56.22 18.424 57.742 18.424 57.742"/>
                  <polygon class="cls-12" points="21.044 59.267 21.036 56.236 18.414 54.713 18.424 57.742 21.044 59.267 21.044 59.267"/>
                  <polygon class="cls-6" points="23.666 60.789 23.657 57.759 21.036 56.236 21.044 59.267 23.666 60.789 23.666 60.789"/>
                  <polygon class="cls-9" points="26.288 62.312 26.279 59.282 23.657 57.759 23.666 60.789 26.288 62.312 26.288 62.312"/>
                  <polygon class="cls-9" points="28.908 63.836 28.899 60.806 26.279 59.282 26.288 62.312 28.908 63.836 28.908 63.836"/>
                  <polygon class="cls-7" points="31.528 65.359 31.521 62.329 28.899 60.806 28.908 63.836 31.528 65.359 31.528 65.359"/>
                  <polygon class="cls-9" points="34.149 66.881 34.141 63.852 31.521 62.329 31.528 65.359 34.149 66.881 34.149 66.881"/>
                  <polygon class="cls-13" points="2.691 45.575 2.683 42.543 0.062 41.02 0.069 44.052 2.691 45.575 2.691 45.575"/>
                  <polygon class="cls-6" points="5.313 47.099 5.305 44.064 2.683 42.543 2.691 45.575 5.313 47.099 5.313 47.099"/>
                  <polygon class="cls-7" points="7.934 48.623 7.925 45.589 5.305 44.064 5.313 47.099 7.934 48.623 7.934 48.623"/>
                  <polygon class="cls-6" points="10.553 50.143 10.545 47.111 7.925 45.589 7.934 48.623 10.553 50.143 10.553 50.143"/>
                  <polygon class="cls-6" points="13.173 51.666 13.165 48.634 10.545 47.111 10.553 50.143 13.173 51.666 13.173 51.666"/>
                  <polygon class="cls-9" points="15.795 53.189 15.786 50.157 13.165 48.634 13.173 51.666 15.795 53.189 15.795 53.189"/>
                  <polygon class="cls-9" points="18.414 54.713 18.406 51.68 15.786 50.157 15.795 53.189 18.414 54.713 18.414 54.713"/>
                  <polygon class="cls-13" points="21.036 56.236 21.028 53.203 18.406 51.68 18.414 54.713 21.036 56.236 21.036 56.236"/>
                  <polygon class="cls-14" points="23.657 57.759 23.649 54.727 21.028 53.203 21.036 56.236 23.657 57.759 23.657 57.759"/>
                  <polygon class="cls-7" points="26.279 59.282 26.271 56.251 23.649 54.727 23.657 57.759 26.279 59.282 26.279 59.282"/>
                  <polygon class="cls-14" points="28.899 60.806 28.892 57.773 26.271 56.251 26.279 59.282 28.899 60.806 28.899 60.806"/>
                  <polygon class="cls-8" points="31.521 62.329 31.512 59.297 28.892 57.773 28.899 60.806 31.521 62.329 31.521 62.329"/>
                  <polygon class="cls-16" points="34.141 63.852 34.132 60.819 31.512 59.297 31.521 62.329 34.141 63.852 34.141 63.852"/>
                  <polygon class="cls-6" points="2.683 42.543 2.675 39.51 0.054 37.987 0.062 41.02 2.683 42.543 2.683 42.543"/>
                  <polygon class="cls-13" points="5.305 44.064 5.296 41.033 2.675 39.51 2.683 42.543 5.305 44.064 5.305 44.064"/>
                  <polygon class="cls-14" points="7.925 45.589 7.917 42.558 5.296 41.033 5.305 44.064 7.925 45.589 7.925 45.589"/>
                  <polygon class="cls-9" points="10.545 47.111 10.537 44.08 7.917 42.558 7.925 45.589 10.545 47.111 10.545 47.111"/>
                  <polygon class="cls-13" points="13.165 48.634 13.156 45.602 10.537 44.08 10.545 47.111 13.165 48.634 13.165 48.634"/>
                  <polygon class="cls-9" points="15.786 50.157 15.777 47.125 13.156 45.602 13.165 48.634 15.786 50.157 15.786 50.157"/>
                  <polygon class="cls-7" points="18.406 51.68 18.398 48.648 15.777 47.125 15.786 50.157 18.406 51.68 18.406 51.68"/>
                  <polygon class="cls-9" points="21.028 53.203 21.02 50.172 18.398 48.648 18.406 51.68 21.028 53.203 21.028 53.203"/>
                  <polygon class="cls-9" points="23.649 54.727 23.641 51.695 21.02 50.172 21.028 53.203 23.649 54.727 23.649 54.727"/>
                  <polygon class="cls-9" points="26.271 56.251 26.262 53.219 23.641 51.695 23.649 54.727 26.271 56.251 26.271 56.251"/>
                  <polygon class="cls-13" points="28.892 57.773 28.884 54.742 26.262 53.219 26.271 56.251 28.892 57.773 28.892 57.773"/>
                  <polygon class="cls-11" points="31.512 59.297 31.503 56.265 28.884 54.742 28.892 57.773 31.512 59.297 31.512 59.297"/>
                  <polygon class="cls-10" points="34.132 60.819 34.123 57.786 31.503 56.265 31.512 59.297 34.132 60.819 34.132 60.819"/>
                  <polygon class="cls-8" points="2.675 39.51 2.666 36.478 0.045 34.955 0.054 37.987 2.675 39.51 2.675 39.51"/>
                  <polygon class="cls-9" points="5.296 41.033 5.287 38.002 2.666 36.478 2.675 39.51 5.296 41.033 5.296 41.033"/>
                  <polygon class="cls-8" points="7.917 42.558 7.909 39.525 5.287 38.002 5.296 41.033 7.917 42.558 7.917 42.558"/>
                  <polygon class="cls-12" points="10.537 44.08 10.527 41.048 7.909 39.525 7.917 42.558 10.537 44.08 10.537 44.08"/>
                  <polygon class="cls-9" points="13.156 45.602 13.147 42.57 10.527 41.048 10.537 44.08 13.156 45.602 13.156 45.602"/>
                  <polygon class="cls-6" points="15.777 47.125 15.77 44.093 13.147 42.57 13.156 45.602 15.777 47.125 15.777 47.125"/>
                  <polygon class="cls-9" points="18.398 48.648 18.389 45.616 15.77 44.093 15.777 47.125 18.398 48.648 18.398 48.648"/>
                  <polygon class="cls-8" points="21.02 50.172 21.011 47.141 18.389 45.616 18.398 48.648 21.02 50.172 21.02 50.172"/>
                  <polygon class="cls-13" points="23.641 51.695 23.633 48.663 21.011 47.141 21.02 50.172 23.641 51.695 23.641 51.695"/>
                  <polygon class="cls-9" points="26.262 53.219 26.254 50.186 23.633 48.663 23.641 51.695 26.262 53.219 26.262 53.219"/>
                  <polygon class="cls-9" points="28.884 54.742 28.875 51.71 26.254 50.186 26.262 53.219 28.884 54.742 28.884 54.742"/>
                  <polygon class="cls-12" points="31.503 56.265 31.495 53.233 28.875 51.71 28.884 54.742 31.503 56.265 31.503 56.265"/>
                  <polygon class="cls-9" points="34.123 57.786 34.115 54.755 31.495 53.233 31.503 56.265 34.123 57.786 34.123 57.786"/>
                  <polygon class="cls-7" points="2.666 36.478 2.657 33.447 0.034 31.926 0.045 34.955 2.666 36.478 2.666 36.478"/>
                  <polygon class="cls-6" points="5.287 38.002 5.279 34.972 2.657 33.447 2.666 36.478 5.287 38.002 5.287 38.002"/>
                  <polygon class="cls-9" points="7.909 39.525 7.9 36.497 5.279 34.972 5.287 38.002 7.909 39.525 7.909 39.525"/>
                  <polygon class="cls-8" points="10.527 41.048 10.52 38.018 7.9 36.497 7.909 39.525 10.527 41.048 10.527 41.048"/>
                  <polygon class="cls-6" points="13.147 42.57 13.139 39.539 10.52 38.018 10.527 41.048 13.147 42.57 13.147 42.57"/>
                  <polygon class="cls-14" points="15.77 44.093 15.759 41.063 13.139 39.539 13.147 42.57 15.77 44.093 15.77 44.093"/>
                  <polygon class="cls-15" points="18.389 45.616 18.379 42.586 15.759 41.063 15.77 44.093 18.389 45.616 18.389 45.616"/>
                  <polygon class="cls-7" points="21.011 47.141 21.002 44.109 18.379 42.586 18.389 45.616 21.011 47.141 21.011 47.141"/>
                  <polygon class="cls-9" points="23.633 48.663 23.623 45.633 21.002 44.109 21.011 47.141 23.633 48.663 23.633 48.663"/>
                  <polygon class="cls-9" points="26.254 50.186 26.245 47.155 23.623 45.633 23.633 48.663 26.254 50.186 26.254 50.186"/>
                  <polygon class="cls-6" points="28.875 51.71 28.866 48.68 26.245 47.155 26.254 50.186 28.875 51.71 28.875 51.71"/>
                  <polygon class="cls-8" points="31.495 53.233 31.486 50.203 28.866 48.68 28.875 51.71 31.495 53.233 31.495 53.233"/>
                  <polygon class="cls-8" points="34.115 54.755 34.105 51.724 31.486 50.203 31.495 53.233 34.115 54.755 34.115 54.755"/>
                  <polygon class="cls-13" points="2.657 33.447 2.649 30.418 0.026 28.895 0.034 31.926 2.657 33.447 2.657 33.447"/>
                  <polygon class="cls-11" points="5.279 34.972 5.269 31.942 2.649 30.418 2.657 33.447 5.279 34.972 5.279 34.972"/>
                  <polygon class="cls-9" points="7.9 36.497 7.892 33.466 5.269 31.942 5.279 34.972 7.9 36.497 7.9 36.497"/>
                  <polygon class="cls-13" points="10.52 38.018 10.51 34.985 7.892 33.466 7.9 36.497 10.52 38.018 10.52 38.018"/>
                  <polygon class="cls-11" points="13.139 39.539 13.129 36.509 10.51 34.985 10.52 38.018 13.139 39.539 13.139 39.539"/>
                  <polygon class="cls-14" points="15.759 41.063 15.751 38.032 13.129 36.509 13.139 39.539 15.759 41.063 15.759 41.063"/>
                  <polygon class="cls-8" points="18.379 42.586 18.371 39.557 15.751 38.032 15.759 41.063 18.379 42.586 18.379 42.586"/>
                  <polygon class="cls-12" points="21.002 44.109 20.992 41.078 18.371 39.557 18.379 42.586 21.002 44.109 21.002 44.109"/>
                  <polygon class="cls-13" points="23.623 45.633 23.613 42.602 20.992 41.078 21.002 44.109 23.623 45.633 23.623 45.633"/>
                  <polygon class="cls-14" points="26.245 47.155 26.235 44.126 23.613 42.602 23.623 45.633 26.245 47.155 26.245 47.155"/>
                  <polygon class="cls-8" points="28.866 48.68 28.858 45.649 26.235 44.126 26.245 47.155 28.866 48.68 28.866 48.68"/>
                  <polygon class="cls-16" points="31.486 50.203 31.478 47.172 28.858 45.649 28.866 48.68 31.486 50.203 31.486 50.203"/>
                  <polygon class="cls-6" points="34.105 51.724 34.098 48.695 31.478 47.172 31.486 50.203 34.105 51.724 34.105 51.724"/>
                  <polygon class="cls-7" points="2.649 30.418 2.639 27.389 0.018 25.864 0.026 28.895 2.649 30.418 2.649 30.418"/>
                  <polygon class="cls-14" points="5.269 31.942 5.261 28.911 2.639 27.389 2.649 30.418 5.269 31.942 5.269 31.942"/>
                  <polygon class="cls-7" points="7.892 33.466 7.883 30.435 5.261 28.911 5.269 31.942 7.892 33.466 7.892 33.466"/>
                  <polygon class="cls-11" points="10.51 34.985 10.501 31.957 7.883 30.435 7.892 33.466 10.51 34.985 10.51 34.985"/>
                  <polygon class="cls-14" points="13.129 36.509 13.121 33.478 10.501 31.957 10.51 34.985 13.129 36.509 13.129 36.509"/>
                  <polygon class="cls-7" points="15.751 38.032 15.742 35.002 13.121 33.478 13.129 36.509 15.751 38.032 15.751 38.032"/>
                  <polygon class="cls-9" points="18.371 39.557 18.362 36.525 15.742 35.002 15.751 38.032 18.371 39.557 18.371 39.557"/>
                  <polygon class="cls-6" points="20.992 41.078 20.984 38.048 18.362 36.525 18.371 39.557 20.992 41.078 20.992 41.078"/>
                  <polygon class="cls-13" points="23.613 42.602 23.605 39.571 20.984 38.048 20.992 41.078 23.613 42.602 23.613 42.602"/>
                  <polygon class="cls-14" points="26.235 44.126 26.227 41.096 23.605 39.571 23.613 42.602 26.235 44.126 26.235 44.126"/>
                  <polygon class="cls-15" points="28.858 45.649 28.848 42.619 26.227 41.096 26.235 44.126 28.858 45.649 28.858 45.649"/>
                  <polygon class="cls-8" points="31.478 47.172 31.468 44.141 28.848 42.619 28.858 45.649 31.478 47.172 31.478 47.172"/>
                  <polygon class="cls-9" points="34.098 48.695 34.089 45.664 31.468 44.141 31.478 47.172 34.098 48.695 34.098 48.695"/>
                  <polygon class="cls-6" points="2.639 27.389 2.631 24.356 0.01 22.833 0.018 25.864 2.639 27.389 2.639 27.389"/>
                  <polygon class="cls-7" points="5.261 28.911 5.252 25.88 2.631 24.356 2.639 27.389 5.261 28.911 5.261 28.911"/>
                  <polygon class="cls-12" points="7.883 30.435 7.873 27.402 5.252 25.88 5.261 28.911 7.883 30.435 7.883 30.435"/>
                  <polygon class="cls-12" points="10.501 31.957 10.492 28.924 7.873 27.402 7.883 30.435 10.501 31.957 10.501 31.957"/>
                  <polygon class="cls-8" points="13.121 33.478 13.113 30.447 10.492 28.924 10.501 31.957 13.121 33.478 13.121 33.478"/>
                  <polygon class="cls-10" points="15.742 35.002 15.733 31.971 13.113 30.447 13.121 33.478 15.742 35.002 15.742 35.002"/>
                  <polygon class="cls-8" points="18.362 36.525 18.354 33.493 15.733 31.971 15.742 35.002 18.362 36.525 18.362 36.525"/>
                  <polygon class="cls-6" points="20.984 38.048 20.976 35.017 18.354 33.493 18.362 36.525 20.984 38.048 20.984 38.048"/>
                  <polygon class="cls-6" points="23.605 39.571 23.598 36.539 20.976 35.017 20.984 38.048 23.605 39.571 23.605 39.571"/>
                  <polygon class="cls-11" points="26.227 41.096 26.218 38.063 23.598 36.539 23.605 39.571 26.227 41.096 26.227 41.096"/>
                  <polygon class="cls-14" points="28.848 42.619 28.84 39.588 26.218 38.063 26.227 41.096 28.848 42.619 28.848 42.619"/>
                  <polygon class="cls-13" points="31.468 44.141 31.46 41.108 28.84 39.588 28.848 42.619 31.468 44.141 31.468 44.141"/>
                  <polygon class="cls-8" points="34.089 45.664 34.08 42.632 31.46 41.108 31.468 44.141 34.089 45.664 34.089 45.664"/>
                  <polygon class="cls-7" points="2.631 24.356 2.623 21.325 0.001 19.802 0.01 22.833 2.631 24.356 2.631 24.356"/>
                  <polygon class="cls-9" points="5.252 25.88 5.243 22.849 2.623 21.325 2.631 24.356 5.252 25.88 5.252 25.88"/>
                  <polygon class="cls-7" points="7.873 27.402 7.865 24.372 5.243 22.849 5.252 25.88 7.873 27.402 7.873 27.402"/>
                  <polygon class="cls-8" points="10.492 28.924 10.484 25.894 7.865 24.372 7.873 27.402 10.492 28.924 10.492 28.924"/>
                  <polygon class="cls-9" points="13.113 30.447 13.104 27.417 10.484 25.894 10.492 28.924 13.113 30.447 13.113 30.447"/>
                  <polygon class="cls-9" points="15.733 31.971 15.726 28.938 13.104 27.417 13.113 30.447 15.733 31.971 15.733 31.971"/>
                  <polygon class="cls-9" points="18.354 33.493 18.347 30.462 15.726 28.938 15.733 31.971 18.354 33.493 18.354 33.493"/>
                  <polygon class="cls-8" points="20.976 35.017 20.968 31.986 18.347 30.462 18.354 33.493 20.976 35.017 20.976 35.017"/>
                  <polygon class="cls-6" points="23.598 36.539 23.588 33.51 20.968 31.986 20.976 35.017 23.598 36.539 23.598 36.539"/>
                  <polygon class="cls-9" points="26.218 38.063 26.21 35.033 23.588 33.51 23.598 36.539 26.218 38.063 26.218 38.063"/>
                  <polygon class="cls-7" points="28.84 39.588 28.832 36.556 26.21 35.033 26.218 38.063 28.84 39.588 28.84 39.588"/>
                  <polygon class="cls-8" points="31.46 41.108 31.451 38.079 28.832 36.556 28.84 39.588 31.46 41.108 31.46 41.108"/>
                  <polygon class="cls-9" points="34.08 42.632 34.071 39.602 31.451 38.079 31.46 41.108 34.08 42.632 34.08 42.632"/>
                </g>
              </g>
            </g>
            <g class="cls-4">
              <polygon class="cls-3" points="34.072 39.601 0 19.801 34.295 0 68.367 19.801 34.072 39.601"/>
              <g class="cls-18">
                <g>
                  <polygon class="cls-6" points="65.744 18.278 63.108 19.801 65.729 21.323 68.365 19.801 65.744 18.278 65.744 18.278"/>
                  <polygon class="cls-6" points="63.123 16.754 60.486 18.277 63.108 19.801 65.744 18.278 63.123 16.754 63.123 16.754"/>
                  <polygon class="cls-7" points="60.502 15.23 57.864 16.754 60.486 18.277 63.123 16.754 60.502 15.23 60.502 15.23"/>
                  <polygon class="cls-8" points="57.883 13.709 55.246 15.231 57.864 16.754 60.502 15.23 57.883 13.709 57.883 13.709"/>
                  <polygon class="cls-6" points="55.263 12.186 52.625 13.709 55.246 15.231 57.883 13.709 55.263 12.186 55.263 12.186"/>
                  <polygon class="cls-9" points="52.642 10.662 50.004 12.186 52.625 13.709 55.263 12.186 52.642 10.662 52.642 10.662"/>
                  <polygon class="cls-9" points="50.021 9.14 47.384 10.662 50.004 12.186 52.642 10.662 50.021 9.14 50.021 9.14"/>
                  <polygon class="cls-8" points="47.399 7.616 44.763 9.14 47.384 10.662 50.021 9.14 47.399 7.616 47.399 7.616"/>
                  <polygon class="cls-9" points="44.778 6.092 42.141 7.615 44.763 9.14 47.399 7.616 44.778 6.092 44.778 6.092"/>
                  <polygon class="cls-9" points="42.157 4.569 39.52 6.092 42.141 7.615 44.778 6.092 42.157 4.569 42.157 4.569"/>
                  <polygon class="cls-9" points="39.535 3.047 36.899 4.568 39.52 6.092 42.157 4.569 39.535 3.047 39.535 3.047"/>
                  <polygon class="cls-8" points="36.916 1.524 34.278 3.047 36.899 4.568 39.535 3.047 36.916 1.524 36.916 1.524"/>
                  <polygon class="cls-10" points="34.295 0.001 31.658 1.524 34.278 3.047 36.916 1.524 34.295 0.001 34.295 0.001"/>
                  <polygon class="cls-8" points="63.108 19.801 60.471 21.323 63.092 22.846 65.729 21.323 63.108 19.801 63.108 19.801"/>
                  <polygon class="cls-8" points="60.486 18.277 57.849 19.8 60.471 21.323 63.108 19.801 60.486 18.277 60.486 18.277"/>
                  <polygon class="cls-8" points="57.864 16.754 55.227 18.275 57.849 19.8 60.486 18.277 57.864 16.754 57.864 16.754"/>
                  <polygon class="cls-9" points="55.246 15.231 52.609 16.754 55.227 18.275 57.864 16.754 55.246 15.231 55.246 15.231"/>
                  <polygon class="cls-6" points="52.625 13.709 49.988 15.231 52.609 16.754 55.246 15.231 52.625 13.709 52.625 13.709"/>
                  <polygon class="cls-13" points="50.004 12.186 47.367 13.708 49.988 15.231 52.625 13.709 50.004 12.186 50.004 12.186"/>
                  <polygon class="cls-7" points="47.384 10.662 44.746 12.186 47.367 13.708 50.004 12.186 47.384 10.662 47.384 10.662"/>
                  <polygon class="cls-8" points="44.763 9.14 42.126 10.662 44.746 12.186 47.384 10.662 44.763 9.14 44.763 9.14"/>
                  <polygon class="cls-9" points="42.141 7.615 39.504 9.138 42.126 10.662 44.763 9.14 42.141 7.615 42.141 7.615"/>
                  <polygon class="cls-6" points="39.52 6.092 36.882 7.615 39.504 9.138 42.141 7.615 39.52 6.092 39.52 6.092"/>
                  <polygon class="cls-7" points="36.899 4.568 34.26 6.091 36.882 7.615 39.52 6.092 36.899 4.568 36.899 4.568"/>
                  <polygon class="cls-12" points="34.278 3.047 31.641 4.568 34.26 6.091 36.899 4.568 34.278 3.047 34.278 3.047"/>
                  <polygon class="cls-8" points="31.658 1.524 29.022 3.047 31.641 4.568 34.278 3.047 31.658 1.524 31.658 1.524"/>
                  <polygon class="cls-6" points="60.471 21.323 57.831 22.846 60.454 24.37 63.092 22.846 60.471 21.323 60.471 21.323"/>
                  <polygon class="cls-13" points="57.849 19.8 55.211 21.323 57.831 22.846 60.471 21.323 57.849 19.8 57.849 19.8"/>
                  <polygon class="cls-15" points="55.227 18.275 52.588 19.8 55.211 21.323 57.849 19.8 55.227 18.275 55.227 18.275"/>
                  <polygon class="cls-9" points="52.609 16.754 49.97 18.278 52.588 19.8 55.227 18.275 52.609 16.754 52.609 16.754"/>
                  <polygon class="cls-9" points="49.988 15.231 47.349 16.755 49.97 18.278 52.609 16.754 49.988 15.231 49.988 15.231"/>
                  <polygon class="cls-9" points="47.367 13.708 44.729 15.231 47.349 16.755 49.988 15.231 47.367 13.708 47.367 13.708"/>
                  <polygon class="cls-9" points="44.746 12.186 42.108 13.709 44.729 15.231 47.367 13.708 44.746 12.186 44.746 12.186"/>
                  <polygon class="cls-8" points="42.126 10.662 39.486 12.186 42.108 13.709 44.746 12.186 42.126 10.662 42.126 10.662"/>
                  <polygon class="cls-14" points="39.504 9.138 36.865 10.662 39.486 12.186 42.126 10.662 39.504 9.138 39.504 9.138"/>
                  <polygon class="cls-9" points="36.882 7.615 34.244 9.138 36.865 10.662 39.504 9.138 36.882 7.615 36.882 7.615"/>
                  <polygon class="cls-8" points="34.26 6.091 31.622 7.615 34.244 9.138 36.882 7.615 34.26 6.091 34.26 6.091"/>
                  <polygon class="cls-16" points="31.641 4.568 29.002 6.092 31.622 7.615 34.26 6.091 31.641 4.568 31.641 4.568"/>
                  <polygon class="cls-6" points="29.022 3.047 26.383 4.569 29.002 6.092 31.641 4.568 29.022 3.047 29.022 3.047"/>
                  <polygon class="cls-13" points="57.831 22.846 55.192 24.37 57.815 25.893 60.454 24.37 57.831 22.846 57.831 22.846"/>
                  <polygon class="cls-11" points="55.211 21.323 52.571 22.846 55.192 24.37 57.831 22.846 55.211 21.323 55.211 21.323"/>
                  <polygon class="cls-14" points="52.588 19.8 49.949 21.323 52.571 22.846 55.211 21.323 52.588 19.8 52.588 19.8"/>
                  <polygon class="cls-8" points="49.97 18.278 47.331 19.801 49.949 21.323 52.588 19.8 49.97 18.278 49.97 18.278"/>
                  <polygon class="cls-6" points="47.349 16.755 44.711 18.278 47.331 19.801 49.97 18.278 47.349 16.755 47.349 16.755"/>
                  <polygon class="cls-8" points="44.729 15.231 42.09 16.755 44.711 18.278 47.349 16.755 44.729 15.231 44.729 15.231"/>
                  <polygon class="cls-9" points="42.108 13.709 39.471 15.231 42.09 16.755 44.729 15.231 42.108 13.709 42.108 13.709"/>
                  <polygon class="cls-9" points="39.486 12.186 36.849 13.709 39.471 15.231 42.108 13.709 39.486 12.186 39.486 12.186"/>
                  <polygon class="cls-13" points="36.865 10.662 34.227 12.186 36.849 13.709 39.486 12.186 36.865 10.662 36.865 10.662"/>
                  <polygon class="cls-14" points="34.244 9.138 31.605 10.662 34.227 12.186 36.865 10.662 34.244 9.138 34.244 9.138"/>
                  <polygon class="cls-15" points="31.622 7.615 28.983 9.138 31.605 10.662 34.244 9.138 31.622 7.615 31.622 7.615"/>
                  <polygon class="cls-8" points="29.002 6.092 26.364 7.615 28.983 9.138 31.622 7.615 29.002 6.092 29.002 6.092"/>
                  <polygon class="cls-8" points="26.383 4.569 23.744 6.092 26.364 7.615 29.002 6.092 26.383 4.569 26.383 4.569"/>
                  <polygon class="cls-6" points="55.192 24.37 52.555 25.892 55.177 27.416 57.815 25.893 55.192 24.37 55.192 24.37"/>
                  <polygon class="cls-14" points="52.571 22.846 49.935 24.368 52.555 25.892 55.192 24.37 52.571 22.846 52.571 22.846"/>
                  <polygon class="cls-9" points="49.949 21.323 47.312 22.845 49.935 24.368 52.571 22.846 49.949 21.323 49.949 21.323"/>
                  <polygon class="cls-6" points="47.331 19.801 44.693 21.323 47.312 22.845 49.949 21.323 47.331 19.801 47.331 19.801"/>
                  <polygon class="cls-8" points="44.711 18.278 42.074 19.801 44.693 21.323 47.331 19.801 44.711 18.278 44.711 18.278"/>
                  <polygon class="cls-9" points="42.09 16.755 39.453 18.278 42.074 19.801 44.711 18.278 42.09 16.755 42.09 16.755"/>
                  <polygon class="cls-8" points="39.471 15.231 36.832 16.755 39.453 18.278 42.09 16.755 39.471 15.231 39.471 15.231"/>
                  <polygon class="cls-9" points="36.849 13.709 34.212 15.231 36.832 16.755 39.471 15.231 36.849 13.709 36.849 13.709"/>
                  <polygon class="cls-6" points="34.227 12.186 31.591 13.708 34.212 15.231 36.849 13.709 34.227 12.186 34.227 12.186"/>
                  <polygon class="cls-11" points="31.605 10.662 28.968 12.185 31.591 13.708 34.227 12.186 31.605 10.662 31.605 10.662"/>
                  <polygon class="cls-14" points="28.983 9.138 26.346 10.661 28.968 12.185 31.605 10.662 28.983 9.138 28.983 9.138"/>
                  <polygon class="cls-7" points="26.364 7.615 23.726 9.138 26.346 10.661 28.983 9.138 26.364 7.615 26.364 7.615"/>
                  <polygon class="cls-9" points="23.744 6.092 21.105 7.615 23.726 9.138 26.364 7.615 23.744 6.092 23.744 6.092"/>
                  <polygon class="cls-8" points="52.555 25.892 49.916 27.416 52.538 28.937 55.177 27.416 52.555 25.892 52.555 25.892"/>
                  <polygon class="cls-9" points="49.935 24.368 47.295 25.892 49.916 27.416 52.555 25.892 49.935 24.368 49.935 24.368"/>
                  <polygon class="cls-7" points="47.312 22.845 44.674 24.368 47.295 25.892 49.935 24.368 47.312 22.845 47.312 22.845"/>
                  <polygon class="cls-9" points="44.693 21.323 42.055 22.848 44.674 24.368 47.312 22.845 44.693 21.323 44.693 21.323"/>
                  <polygon class="cls-8" points="42.074 19.801 39.434 21.324 42.055 22.848 44.693 21.323 42.074 19.801 42.074 19.801"/>
                  <polygon class="cls-13" points="39.453 18.278 36.814 19.801 39.434 21.324 42.074 19.801 39.453 18.278 39.453 18.278"/>
                  <polygon class="cls-14" points="36.832 16.755 34.193 18.278 36.814 19.801 39.453 18.278 36.832 16.755 36.832 16.755"/>
                  <polygon class="cls-8" points="34.212 15.231 31.571 16.755 34.193 18.278 36.832 16.755 34.212 15.231 34.212 15.231"/>
                  <polygon class="cls-9" points="31.591 13.708 28.95 15.231 31.571 16.755 34.212 15.231 31.591 13.708 31.591 13.708"/>
                  <polygon class="cls-8" points="28.968 12.185 26.329 13.708 28.95 15.231 31.591 13.708 28.968 12.185 28.968 12.185"/>
                  <polygon class="cls-9" points="26.346 10.661 23.708 12.185 26.329 13.708 28.968 12.185 26.346 10.661 26.346 10.661"/>
                  <polygon class="cls-9" points="23.726 9.138 21.087 10.662 23.708 12.185 26.346 10.661 23.726 9.138 23.726 9.138"/>
                  <polygon class="cls-16" points="21.105 7.615 18.467 9.14 21.087 10.662 23.726 9.138 21.105 7.615 21.105 7.615"/>
                  <polygon class="cls-9" points="49.916 27.416 47.279 28.937 49.899 30.462 52.538 28.937 49.916 27.416 49.916 27.416"/>
                  <polygon class="cls-8" points="47.295 25.892 44.657 27.416 47.279 28.937 49.916 27.416 47.295 25.892 47.295 25.892"/>
                  <polygon class="cls-9" points="44.674 24.368 42.035 25.892 44.657 27.416 47.295 25.892 44.674 24.368 44.674 24.368"/>
                  <polygon class="cls-13" points="42.055 22.848 39.417 24.37 42.035 25.892 44.674 24.368 42.055 22.848 42.055 22.848"/>
                  <polygon class="cls-11" points="39.434 21.324 36.797 22.848 39.417 24.37 42.055 22.848 39.434 21.324 39.434 21.324"/>
                  <polygon class="cls-14" points="36.814 19.801 34.175 21.324 36.797 22.848 39.434 21.324 36.814 19.801 36.814 19.801"/>
                  <polygon class="cls-7" points="34.193 18.278 31.555 19.802 34.175 21.324 36.814 19.801 34.193 18.278 34.193 18.278"/>
                  <polygon class="cls-9" points="31.571 16.755 28.934 18.278 31.555 19.802 34.193 18.278 31.571 16.755 31.571 16.755"/>
                  <polygon class="cls-8" points="28.95 15.231 26.313 16.755 28.934 18.278 31.571 16.755 28.95 15.231 28.95 15.231"/>
                  <polygon class="cls-6" points="26.329 13.708 23.691 15.231 26.313 16.755 28.95 15.231 26.329 13.708 26.329 13.708"/>
                  <polygon class="cls-7" points="23.708 12.185 21.07 13.708 23.691 15.231 26.329 13.708 23.708 12.185 23.708 12.185"/>
                  <polygon class="cls-9" points="21.087 10.662 18.449 12.186 21.07 13.708 23.708 12.185 21.087 10.662 21.087 10.662"/>
                  <polygon class="cls-10" points="18.467 9.14 15.829 10.662 18.449 12.186 21.087 10.662 18.467 9.14 18.467 9.14"/>
                  <polygon class="cls-8" points="47.279 28.937 44.639 30.462 47.262 31.985 49.899 30.462 47.279 28.937 47.279 28.937"/>
                  <polygon class="cls-9" points="44.657 27.416 42.017 28.937 44.639 30.462 47.279 28.937 44.657 27.416 44.657 27.416"/>
                  <polygon class="cls-8" points="42.035 25.892 39.397 27.416 42.017 28.937 44.657 27.416 42.035 25.892 42.035 25.892"/>
                  <polygon class="cls-9" points="39.417 24.37 36.778 25.894 39.397 27.416 42.035 25.892 39.417 24.37 39.417 24.37"/>
                  <polygon class="cls-6" points="36.797 22.848 34.158 24.371 36.778 25.894 39.417 24.37 36.797 22.848 36.797 22.848"/>
                  <polygon class="cls-6" points="34.175 21.324 31.537 22.848 34.158 24.371 36.797 22.848 34.175 21.324 34.175 21.324"/>
                  <polygon class="cls-9" points="31.555 19.802 28.917 21.325 31.537 22.848 34.175 21.324 31.555 19.802 31.555 19.802"/>
                  <polygon class="cls-8" points="28.934 18.278 26.295 19.802 28.917 21.325 31.555 19.802 28.934 18.278 28.934 18.278"/>
                  <polygon class="cls-9" points="26.313 16.755 23.674 18.278 26.295 19.802 28.934 18.278 26.313 16.755 26.313 16.755"/>
                  <polygon class="cls-6" points="23.691 15.231 21.052 16.755 23.674 18.278 26.313 16.755 23.691 15.231 23.691 15.231"/>
                  <polygon class="cls-9" points="21.07 13.708 18.431 15.23 21.052 16.755 23.691 15.231 21.07 13.708 21.07 13.708"/>
                  <polygon class="cls-9" points="18.449 12.186 15.81 13.709 18.431 15.23 21.07 13.708 18.449 12.186 18.449 12.186"/>
                  <polygon class="cls-9" points="15.829 10.662 13.191 12.186 15.81 13.709 18.449 12.186 15.829 10.662 15.829 10.662"/>
                  <polygon class="cls-6" points="44.639 30.462 42.002 31.985 44.625 33.508 47.262 31.985 44.639 30.462 44.639 30.462"/>
                  <polygon class="cls-6" points="42.017 28.937 39.38 30.461 42.002 31.985 44.639 30.462 42.017 28.937 42.017 28.937"/>
                  <polygon class="cls-9" points="39.397 27.416 36.759 28.937 39.38 30.461 42.017 28.937 39.397 27.416 39.397 27.416"/>
                  <polygon class="cls-8" points="36.778 25.894 34.142 27.417 36.759 28.937 39.397 27.416 36.778 25.894 36.778 25.894"/>
                  <polygon class="cls-7" points="34.158 24.371 31.522 25.894 34.142 27.417 36.778 25.894 34.158 24.371 34.158 24.371"/>
                  <polygon class="cls-9" points="31.537 22.848 28.899 24.37 31.522 25.894 34.158 24.371 31.537 22.848 31.537 22.848"/>
                  <polygon class="cls-9" points="28.917 21.325 26.279 22.848 28.899 24.37 31.537 22.848 28.917 21.325 28.917 21.325"/>
                  <polygon class="cls-7" points="26.295 19.802 23.657 21.324 26.279 22.848 28.917 21.325 26.295 19.802 26.295 19.802"/>
                  <polygon class="cls-6" points="23.674 18.278 21.036 19.801 23.657 21.324 26.295 19.802 23.674 18.278 23.674 18.278"/>
                  <polygon class="cls-14" points="21.052 16.755 18.414 18.278 21.036 19.801 23.674 18.278 21.052 16.755 21.052 16.755"/>
                  <polygon class="cls-14" points="18.431 15.23 15.794 16.754 18.414 18.278 21.052 16.755 18.431 15.23 18.431 15.23"/>
                  <polygon class="cls-8" points="15.81 13.709 13.173 15.23 15.794 16.754 18.431 15.23 15.81 13.709 15.81 13.709"/>
                  <polygon class="cls-8" points="13.191 12.186 10.553 13.709 13.173 15.23 15.81 13.709 13.191 12.186 13.191 12.186"/>
                  <polygon class="cls-13" points="42.002 31.985 39.365 33.508 41.985 35.031 44.625 33.508 42.002 31.985 42.002 31.985"/>
                  <polygon class="cls-14" points="39.38 30.461 36.743 31.984 39.365 33.508 42.002 31.985 39.38 30.461 39.38 30.461"/>
                  <polygon class="cls-9" points="36.759 28.937 34.122 30.46 36.743 31.984 39.38 30.461 36.759 28.937 36.759 28.937"/>
                  <polygon class="cls-6" points="34.142 27.417 31.503 28.937 34.122 30.46 36.759 28.937 34.142 27.417 34.142 27.417"/>
                  <polygon class="cls-9" points="31.522 25.894 28.884 27.417 31.503 28.937 34.142 27.417 31.522 25.894 31.522 25.894"/>
                  <polygon class="cls-9" points="28.899 24.37 26.262 25.893 28.884 27.417 31.522 25.894 28.899 24.37 28.899 24.37"/>
                  <polygon class="cls-7" points="26.279 22.848 23.642 24.37 26.262 25.893 28.899 24.37 26.279 22.848 26.279 22.848"/>
                  <polygon class="cls-12" points="23.657 21.324 21.022 22.848 23.642 24.37 26.279 22.848 23.657 21.324 23.657 21.324"/>
                  <polygon class="cls-13" points="21.036 19.801 18.399 21.323 21.022 22.848 23.657 21.324 21.036 19.801 21.036 19.801"/>
                  <polygon class="cls-11" points="18.414 18.278 15.777 19.801 18.399 21.323 21.036 19.801 18.414 18.278 18.414 18.278"/>
                  <polygon class="cls-14" points="15.794 16.754 13.156 18.277 15.777 19.801 18.414 18.278 15.794 16.754 15.794 16.754"/>
                  <polygon class="cls-15" points="13.173 15.23 10.537 16.754 13.156 18.277 15.794 16.754 13.173 15.23 13.173 15.23"/>
                  <polygon class="cls-6" points="10.553 13.709 7.916 15.23 10.537 16.754 13.173 15.23 10.553 13.709 10.553 13.709"/>
                  <polygon class="cls-7" points="39.365 33.508 36.728 35.029 39.349 36.554 41.985 35.031 39.365 33.508 39.365 33.508"/>
                  <polygon class="cls-9" points="36.743 31.984 34.105 33.507 36.728 35.029 39.365 33.508 36.743 31.984 36.743 31.984"/>
                  <polygon class="cls-13" points="34.122 30.46 31.485 31.983 34.105 33.507 36.743 31.984 34.122 30.46 34.122 30.46"/>
                  <polygon class="cls-11" points="31.503 28.937 28.866 30.461 31.485 31.983 34.122 30.46 31.503 28.937 31.503 28.937"/>
                  <polygon class="cls-6" points="28.884 27.417 26.246 28.937 28.866 30.461 31.503 28.937 28.884 27.417 28.884 27.417"/>
                  <polygon class="cls-7" points="26.262 25.893 23.625 27.416 26.246 28.937 28.884 27.417 26.262 25.893 26.262 25.893"/>
                  <polygon class="cls-9" points="23.642 24.37 21.005 25.893 23.625 27.416 26.262 25.893 23.642 24.37 23.642 24.37"/>
                  <polygon class="cls-6" points="21.022 22.848 18.383 24.368 21.005 25.893 23.642 24.37 21.022 22.848 21.022 22.848"/>
                  <polygon class="cls-9" points="18.399 21.323 15.763 22.846 18.383 24.368 21.022 22.848 18.399 21.323 18.399 21.323"/>
                  <polygon class="cls-13" points="15.777 19.801 13.142 21.321 15.763 22.846 18.399 21.323 15.777 19.801 15.777 19.801"/>
                  <polygon class="cls-11" points="13.156 18.277 10.52 19.8 13.142 21.321 15.777 19.801 13.156 18.277 13.156 18.277"/>
                  <polygon class="cls-8" points="10.537 16.754 7.899 18.277 10.52 19.8 13.156 18.277 10.537 16.754 10.537 16.754"/>
                  <polygon class="cls-9" points="7.916 15.23 5.279 16.754 7.899 18.277 10.537 16.754 7.916 15.23 7.916 15.23"/>
                  <polygon class="cls-6" points="36.728 35.029 34.09 36.554 36.711 38.077 39.349 36.554 36.728 35.029 36.728 35.029"/>
                  <polygon class="cls-7" points="34.105 33.507 31.468 35.029 34.09 36.554 36.728 35.029 34.105 33.507 34.105 33.507"/>
                  <polygon class="cls-13" points="31.485 31.983 28.846 33.507 31.468 35.029 34.105 33.507 31.485 31.983 31.485 31.983"/>
                  <polygon class="cls-14" points="28.866 30.461 26.229 31.985 28.846 33.507 31.485 31.983 28.866 30.461 28.866 30.461"/>
                  <polygon class="cls-15" points="26.246 28.937 23.608 30.462 26.229 31.985 28.866 30.461 26.246 28.937 26.246 28.937"/>
                  <polygon class="cls-10" points="23.625 27.416 20.986 28.937 23.608 30.462 26.246 28.937 23.625 27.416 23.625 27.416"/>
                  <polygon class="cls-8" points="21.005 25.893 18.367 27.417 20.986 28.937 23.625 27.416 21.005 25.893 21.005 25.893"/>
                  <polygon class="cls-6" points="18.383 24.368 15.746 25.893 18.367 27.417 21.005 25.893 18.383 24.368 18.383 24.368"/>
                  <polygon class="cls-6" points="15.763 22.846 13.122 24.368 15.746 25.893 18.383 24.368 15.763 22.846 15.763 22.846"/>
                  <polygon class="cls-6" points="13.142 21.321 10.501 22.846 13.122 24.368 15.763 22.846 13.142 21.321 13.142 21.321"/>
                  <polygon class="cls-9" points="10.52 19.8 7.88 21.321 10.501 22.846 13.142 21.321 10.52 19.8 10.52 19.8"/>
                  <polygon class="cls-12" points="7.899 18.277 5.26 19.8 7.88 21.321 10.52 19.8 7.899 18.277 7.899 18.277"/>
                  <polygon class="cls-8" points="5.279 16.754 2.639 18.278 5.26 19.8 7.899 18.277 5.279 16.754 5.279 16.754"/>
                  <polygon class="cls-7" points="34.09 36.554 31.451 38.077 34.074 39.6 36.711 38.077 34.09 36.554 34.09 36.554"/>
                  <polygon class="cls-9" points="31.468 35.029 28.83 36.553 31.451 38.077 34.09 36.554 31.468 35.029 31.468 35.029"/>
                  <polygon class="cls-7" points="28.846 33.507 26.209 35.029 28.83 36.553 31.468 35.029 28.846 33.507 28.846 33.507"/>
                  <polygon class="cls-8" points="26.229 31.985 23.591 33.507 26.209 35.029 28.846 33.507 26.229 31.985 26.229 31.985"/>
                  <polygon class="cls-9" points="23.608 30.462 20.971 31.985 23.591 33.507 26.229 31.985 23.608 30.462 23.608 30.462"/>
                  <polygon class="cls-9" points="20.986 28.937 18.349 30.461 20.971 31.985 23.608 30.462 20.986 28.937 20.986 28.937"/>
                  <polygon class="cls-9" points="18.367 27.417 15.728 28.937 18.349 30.461 20.986 28.937 18.367 27.417 18.367 27.417"/>
                  <polygon class="cls-8" points="15.746 25.893 13.106 27.416 15.728 28.937 18.367 27.417 15.746 25.893 15.746 25.893"/>
                  <polygon class="cls-6" points="13.122 24.368 10.485 25.892 13.106 27.416 15.746 25.893 13.122 24.368 13.122 24.368"/>
                  <polygon class="cls-9" points="10.501 22.846 7.864 24.368 10.485 25.892 13.122 24.368 10.501 22.846 10.501 22.846"/>
                  <polygon class="cls-7" points="7.88 21.321 5.242 22.845 7.864 24.368 10.501 22.846 7.88 21.321 7.88 21.321"/>
                  <polygon class="cls-8" points="5.26 19.8 2.623 21.321 5.242 22.845 7.88 21.321 5.26 19.8 5.26 19.8"/>
                  <polygon class="cls-9" points="2.639 18.278 0.002 19.8 2.623 21.321 5.26 19.8 2.639 18.278 2.639 18.278"/>
                </g>
              </g>
            </g>
          </g>
          <g>
            <g class="cls-19">
              <polygon class="cls-20" points="68.367 19.802 68.479 59.209 34.186 79.01 34.074 39.601 68.367 19.802"/>
            </g>
            <polygon class="cls-21" points="34.186 79.01 0.114 59.207 0.002 19.801 34.074 39.601 34.186 79.01"/>
            <polygon class="cls-22" points="34.074 39.601 0.002 19.801 34.295 0 68.367 19.802 34.074 39.601"/>
          </g>
        </g>
      </g>
    </g>
  </g>
</svg>
