<svg xmlns="http://www.w3.org/2000/svg" xmlns:xlink="http://www.w3.org/1999/xlink" viewBox="0 0 68.47852 79.00782">
  <defs>
    <style>
      .cls-1 {
        fill: #323232;
      }

      .cls-2 {
        fill: #454545;
      }

      .cls-3 {
        fill: #575757;
      }

      .cls-4 {
        isolation: isolate;
      }

      .cls-5 {
        clip-path: url(#clip-path);
      }

      .cls-6 {
        fill: #9b3302;
      }

      .cls-7 {
        fill: #c54002;
      }

      .cls-8 {
        fill: #bbb9a5;
      }

      .cls-9 {
        fill: #a53b01;
      }

      .cls-10 {
        fill: #c9c8b2;
      }

      .cls-11 {
        fill: #cdccb5;
      }

      .cls-12 {
        fill: #b2b09c;
      }

      .cls-13 {
        fill: #8d5a40;
      }

      .cls-14 {
        fill: #afac91;
      }

      .cls-15 {
        fill: #c0bfa9;
      }

      .cls-16 {
        fill: #c6c3af;
      }

      .cls-17 {
        fill: #9b3701;
      }

      .cls-18 {
        clip-path: url(#clip-path-2);
      }

      .cls-19 {
        clip-path: url(#clip-path-3);
      }

      .cls-20 {
        fill: #929179;
      }

      .cls-21 {
        opacity: 0.4;
        mix-blend-mode: multiply;
        fill: url(#linear-gradient);
      }

      .cls-22 {
        fill: #616161;
        opacity: 0.3;
      }

      .cls-22, .cls-23 {
        mix-blend-mode: color-dodge;
      }

      .cls-23 {
        opacity: 0.5;
        fill: url(#linear-gradient-2);
      }
    </style>
    <clipPath id="clip-path">
      <polygon class="cls-1" points="68.367 19.8 68.479 59.209 34.183 79.008 34.072 39.601 68.367 19.8"/>
    </clipPath>
    <clipPath id="clip-path-2">
      <polygon class="cls-2" points="34.183 79.008 0.112 59.209 0 19.8 34.072 39.601 34.183 79.008"/>
    </clipPath>
    <clipPath id="clip-path-3">
      <polygon class="cls-3" points="34.072 39.601 0 19.8 34.295 0 68.367 19.8 34.072 39.601"/>
    </clipPath>
    <linearGradient id="linear-gradient" x1="13.75696" y1="29.57961" x2="67.6915" y2="58.07913" gradientUnits="userSpaceOnUse">
      <stop offset="0" stop-color="#fff"/>
      <stop offset="0.10549" stop-color="#e8e3dc"/>
      <stop offset="0.35664" stop-color="#b5a48f"/>
      <stop offset="0.58058" stop-color="#8d7252"/>
      <stop offset="0.76909" stop-color="#704e25"/>
      <stop offset="0.91475" stop-color="#5e380a"/>
      <stop offset="1" stop-color="#573000"/>
    </linearGradient>
    <linearGradient id="linear-gradient-2" x1="-20.43102" y1="-34.81381" x2="133.49813" y2="119.11534" gradientUnits="userSpaceOnUse">
      <stop offset="0" stop-color="#d9eed5"/>
      <stop offset="1"/>
    </linearGradient>
  </defs>
  <g class="cls-4">
    <g id="Layer_2" data-name="Layer 2">
      <g id="Layer_1-2" data-name="Layer 1">
        <g id="_2" data-name="2">
          <g class="cls-4">
            <g class="cls-4">
              <polygon class="cls-1" points="68.367 19.8 68.479 59.209 34.183 79.008 34.072 39.601 68.367 19.8"/>
              <g class="cls-5">
                <g>
                  <polygon class="cls-6" points="68.469 56.177 65.833 57.698 65.84 60.731 68.478 59.209 68.469 56.177 68.469 56.177"/>
                  <polygon class="cls-6" points="68.459 53.144 65.822 54.668 65.833 57.698 68.469 56.177 68.459 53.144 68.459 53.144"/>
                  <polygon class="cls-7" points="68.452 50.112 65.814 51.635 65.822 54.668 68.459 53.144 68.452 50.112 68.452 50.112"/>
                  <polygon class="cls-8" points="68.443 47.083 65.806 48.607 65.814 51.635 68.452 50.112 68.443 47.083 68.443 47.083"/>
                  <polygon class="cls-6" points="68.435 44.053 65.798 45.576 65.806 48.607 68.443 47.083 68.435 44.053 68.435 44.053"/>
                  <polygon class="cls-9" points="68.426 41.022 65.789 42.544 65.798 45.576 68.435 44.053 68.426 41.022 68.426 41.022"/>
                  <polygon class="cls-9" points="68.418 37.991 65.779 39.514 65.789 42.544 68.426 41.022 68.418 37.991 68.418 37.991"/>
                  <polygon class="cls-8" points="68.41 34.959 65.772 36.481 65.779 39.514 68.418 37.991 68.41 34.959 68.41 34.959"/>
                  <polygon class="cls-9" points="68.399 31.926 65.763 33.45 65.772 36.481 68.41 34.959 68.399 31.926 68.399 31.926"/>
                  <polygon class="cls-9" points="68.391 28.895 65.753 30.418 65.763 33.45 68.399 31.926 68.391 28.895 68.391 28.895"/>
                  <polygon class="cls-9" points="68.383 25.863 65.745 27.385 65.753 30.418 68.391 28.895 68.383 25.863 68.383 25.863"/>
                  <polygon class="cls-8" points="68.374 22.833 65.737 24.356 65.745 27.385 68.383 25.863 68.374 22.833 68.374 22.833"/>
                  <polygon class="cls-10" points="68.366 19.803 65.73 21.324 65.737 24.356 68.374 22.833 68.366 19.803 68.366 19.803"/>
                  <polygon class="cls-8" points="65.833 57.698 63.194 59.222 63.202 62.253 65.84 60.731 65.833 57.698 65.833 57.698"/>
                  <polygon class="cls-8" points="65.822 54.668 63.185 56.189 63.194 59.222 65.833 57.698 65.822 54.668 65.822 54.668"/>
                  <polygon class="cls-8" points="65.814 51.635 63.178 53.158 63.185 56.189 65.822 54.668 65.814 51.635 65.814 51.635"/>
                  <polygon class="cls-11" points="65.806 48.607 63.169 50.129 63.178 53.158 65.814 51.635 65.806 48.607 65.806 48.607"/>
                  <polygon class="cls-6" points="65.798 45.576 63.161 47.098 63.169 50.129 65.806 48.607 65.798 45.576 65.798 45.576"/>
                  <polygon class="cls-9" points="65.789 42.544 63.151 44.067 63.161 47.098 65.798 45.576 65.789 42.544 65.789 42.544"/>
                  <polygon class="cls-7" points="65.779 39.514 63.142 41.036 63.151 44.067 65.789 42.544 65.779 39.514 65.779 39.514"/>
                  <polygon class="cls-8" points="65.772 36.481 63.134 38.004 63.142 41.036 65.779 39.514 65.772 36.481 65.772 36.481"/>
                  <polygon class="cls-9" points="65.763 33.45 63.126 34.972 63.134 38.004 65.772 36.481 65.763 33.45 65.763 33.45"/>
                  <polygon class="cls-6" points="65.753 30.418 63.116 31.94 63.126 34.972 65.763 33.45 65.753 30.418 65.753 30.418"/>
                  <polygon class="cls-7" points="65.745 27.385 63.108 28.908 63.116 31.94 65.753 30.418 65.745 27.385 65.745 27.385"/>
                  <polygon class="cls-12" points="65.737 24.356 63.1 25.878 63.108 28.908 65.745 27.385 65.737 24.356 65.737 24.356"/>
                  <polygon class="cls-8" points="65.73 21.324 63.092 22.848 63.1 25.878 65.737 24.356 65.73 21.324 65.73 21.324"/>
                  <polygon class="cls-13" points="63.194 59.222 60.557 60.744 60.564 63.777 63.202 62.253 63.194 59.222 63.194 59.222"/>
                  <polygon class="cls-9" points="63.185 56.189 60.548 57.713 60.557 60.744 63.194 59.222 63.185 56.189 63.185 56.189"/>
                  <polygon class="cls-7" points="63.178 53.158 60.539 54.681 60.548 57.713 63.185 56.189 63.178 53.158 63.178 53.158"/>
                  <polygon class="cls-11" points="63.169 50.129 60.529 51.653 60.539 54.681 63.178 53.158 63.169 50.129 63.169 50.129"/>
                  <polygon class="cls-9" points="63.161 47.098 60.52 48.622 60.529 51.653 63.169 50.129 63.161 47.098 63.161 47.098"/>
                  <polygon class="cls-9" points="63.151 44.067 60.512 45.59 60.52 48.622 63.161 47.098 63.151 44.067 63.151 44.067"/>
                  <polygon class="cls-9" points="63.142 41.036 60.504 42.56 60.512 45.59 63.151 44.067 63.142 41.036 63.142 41.036"/>
                  <polygon class="cls-14" points="63.134 38.004 60.495 39.527 60.504 42.56 63.142 41.036 63.134 38.004 63.134 38.004"/>
                  <polygon class="cls-15" points="63.126 34.972 60.487 36.496 60.495 39.527 63.134 38.004 63.126 34.972 63.126 34.972"/>
                  <polygon class="cls-12" points="63.116 31.94 60.479 33.463 60.487 36.496 63.126 34.972 63.116 31.94 63.116 31.94"/>
                  <polygon class="cls-8" points="63.108 28.908 60.469 30.431 60.479 33.463 63.116 31.94 63.108 28.908 63.108 28.908"/>
                  <polygon class="cls-16" points="63.1 25.878 60.461 27.401 60.469 30.431 63.108 28.908 63.1 25.878 63.1 25.878"/>
                  <polygon class="cls-14" points="63.092 22.848 60.453 24.371 60.461 27.401 63.1 25.878 63.092 22.848 63.092 22.848"/>
                  <polygon class="cls-6" points="60.557 60.744 57.916 62.269 57.927 65.299 60.564 63.777 60.557 60.744 60.557 60.744"/>
                  <polygon class="cls-9" points="60.548 57.713 57.909 59.237 57.916 62.269 60.557 60.744 60.548 57.713 60.548 57.713"/>
                  <polygon class="cls-9" points="60.539 54.681 57.899 56.203 57.909 59.237 60.548 57.713 60.539 54.681 60.539 54.681"/>
                  <polygon class="cls-8" points="60.529 51.653 57.891 53.176 57.899 56.203 60.539 54.681 60.529 51.653 60.529 51.653"/>
                  <polygon class="cls-6" points="60.52 48.622 57.883 50.146 57.891 53.176 60.529 51.653 60.52 48.622 60.52 48.622"/>
                  <polygon class="cls-9" points="60.512 45.59 57.875 47.114 57.883 50.146 60.52 48.622 60.512 45.59 60.512 45.59"/>
                  <polygon class="cls-7" points="60.504 42.56 57.865 44.083 57.875 47.114 60.512 45.59 60.504 42.56 60.504 42.56"/>
                  <polygon class="cls-14" points="60.495 39.527 57.856 41.051 57.865 44.083 60.504 42.56 60.495 39.527 60.495 39.527"/>
                  <polygon class="cls-17" points="60.487 36.496 57.85 38.019 57.856 41.051 60.495 39.527 60.487 36.496 60.487 36.496"/>
                  <polygon class="cls-6" points="60.479 33.463 57.84 34.987 57.85 38.019 60.487 36.496 60.479 33.463 60.479 33.463"/>
                  <polygon class="cls-9" points="60.469 30.431 57.831 31.955 57.84 34.987 60.479 33.463 60.469 30.431 60.469 30.431"/>
                  <polygon class="cls-8" points="60.461 27.401 57.823 28.925 57.831 31.955 60.469 30.431 60.461 27.401 60.461 27.401"/>
                  <polygon class="cls-8" points="60.453 24.371 57.814 25.895 57.823 28.925 60.461 27.401 60.453 24.371 60.453 24.371"/>
                  <polygon class="cls-6" points="57.916 62.269 55.279 63.791 55.289 66.823 57.927 65.299 57.916 62.269 57.916 62.269"/>
                  <polygon class="cls-9" points="57.909 59.237 55.27 60.758 55.279 63.791 57.916 62.269 57.909 59.237 57.909 59.237"/>
                  <polygon class="cls-9" points="57.899 56.203 55.262 57.728 55.27 60.758 57.909 59.237 57.899 56.203 57.899 56.203"/>
                  <polygon class="cls-14" points="57.891 53.176 55.254 54.698 55.262 57.728 57.899 56.203 57.891 53.176 57.891 53.176"/>
                  <polygon class="cls-8" points="57.883 50.146 55.246 51.668 55.254 54.698 57.891 53.176 57.883 50.146 57.883 50.146"/>
                  <polygon class="cls-8" points="57.875 47.114 55.236 48.636 55.246 51.668 57.883 50.146 57.875 47.114 57.875 47.114"/>
                  <polygon class="cls-12" points="57.865 44.083 55.228 45.606 55.236 48.636 57.875 47.114 57.865 44.083 57.865 44.083"/>
                  <polygon class="cls-12" points="57.856 41.051 55.22 42.574 55.228 45.606 57.865 44.083 57.856 41.051 57.856 41.051"/>
                  <polygon class="cls-6" points="57.85 38.019 55.211 39.541 55.22 42.574 57.856 41.051 57.85 38.019 57.85 38.019"/>
                  <polygon class="cls-9" points="57.84 34.987 55.203 36.51 55.211 39.541 57.85 38.019 57.84 34.987 57.84 34.987"/>
                  <polygon class="cls-9" points="57.831 31.955 55.194 33.478 55.203 36.51 57.84 34.987 57.831 31.955 57.831 31.955"/>
                  <polygon class="cls-15" points="57.823 28.925 55.185 30.447 55.194 33.478 57.831 31.955 57.823 28.925 57.823 28.925"/>
                  <polygon class="cls-11" points="57.814 25.895 55.176 27.417 55.185 30.447 57.823 28.925 57.814 25.895 57.814 25.895"/>
                  <polygon class="cls-13" points="55.279 63.791 52.642 65.314 52.649 68.346 55.289 66.823 55.279 63.791 55.279 63.791"/>
                  <polygon class="cls-6" points="55.27 60.758 52.633 62.282 52.642 65.314 55.279 63.791 55.27 60.758 55.27 60.758"/>
                  <polygon class="cls-7" points="55.262 57.728 52.623 59.25 52.633 62.282 55.27 60.758 55.262 57.728 55.262 57.728"/>
                  <polygon class="cls-14" points="55.254 54.698 52.616 56.222 52.623 59.25 55.262 57.728 55.254 54.698 55.254 54.698"/>
                  <polygon class="cls-6" points="55.246 51.668 52.606 53.191 52.616 56.222 55.254 54.698 55.246 51.668 55.246 51.668"/>
                  <polygon class="cls-9" points="55.236 48.636 52.599 50.159 52.606 53.191 55.246 51.668 55.236 48.636 55.236 48.636"/>
                  <polygon class="cls-9" points="55.228 45.606 52.591 47.129 52.599 50.159 55.236 48.636 55.228 45.606 55.228 45.606"/>
                  <polygon class="cls-8" points="55.22 42.574 52.581 44.097 52.591 47.129 55.228 45.606 55.22 42.574 55.22 42.574"/>
                  <polygon class="cls-9" points="55.211 39.541 52.573 41.065 52.581 44.097 55.22 42.574 55.211 39.541 55.211 39.541"/>
                  <polygon class="cls-9" points="55.203 36.51 52.563 38.033 52.573 41.065 55.211 39.541 55.203 36.51 55.203 36.51"/>
                  <polygon class="cls-7" points="55.194 33.478 52.556 35.001 52.563 38.033 55.203 36.51 55.194 33.478 55.194 33.478"/>
                  <polygon class="cls-8" points="55.185 30.447 52.546 31.971 52.556 35.001 55.194 33.478 55.185 30.447 55.185 30.447"/>
                  <polygon class="cls-16" points="55.176 27.417 52.538 28.941 52.546 31.971 55.185 30.447 55.176 27.417 55.176 27.417"/>
                  <polygon class="cls-6" points="52.642 65.314 50.003 66.838 50.012 69.869 52.649 68.346 52.642 65.314 52.642 65.314"/>
                  <polygon class="cls-7" points="52.633 62.282 49.994 63.805 50.003 66.838 52.642 65.314 52.633 62.282 52.633 62.282"/>
                  <polygon class="cls-9" points="52.623 59.25 49.985 60.773 49.994 63.805 52.633 62.282 52.623 59.25 52.623 59.25"/>
                  <polygon class="cls-8" points="52.616 56.222 49.976 57.744 49.985 60.773 52.623 59.25 52.616 56.222 52.616 56.222"/>
                  <polygon class="cls-13" points="52.606 53.191 49.969 54.715 49.976 57.744 52.616 56.222 52.606 53.191 52.606 53.191"/>
                  <polygon class="cls-9" points="52.599 50.159 49.96 51.683 49.969 54.715 52.606 53.191 52.599 50.159 52.599 50.159"/>
                  <polygon class="cls-7" points="52.591 47.129 49.95 48.653 49.96 51.683 52.599 50.159 52.591 47.129 52.591 47.129"/>
                  <polygon class="cls-11" points="52.581 44.097 49.942 45.621 49.95 48.653 52.591 47.129 52.581 44.097 52.581 44.097"/>
                  <polygon class="cls-9" points="52.573 41.065 49.934 42.588 49.942 45.621 52.581 44.097 52.573 41.065 52.573 41.065"/>
                  <polygon class="cls-9" points="52.563 38.033 49.925 39.556 49.934 42.588 52.573 41.065 52.563 38.033 52.563 38.033"/>
                  <polygon class="cls-7" points="52.556 35.001 49.917 36.525 49.925 39.556 52.563 38.033 52.556 35.001 52.556 35.001"/>
                  <polygon class="cls-16" points="52.546 31.971 49.907 33.494 49.917 36.525 52.556 35.001 52.546 31.971 52.546 31.971"/>
                  <polygon class="cls-10" points="52.538 28.941 49.899 30.463 49.907 33.494 52.546 31.971 52.538 28.941 52.538 28.941"/>
                  <polygon class="cls-8" points="50.003 66.838 47.364 68.361 47.373 71.393 50.012 69.869 50.003 66.838 50.003 66.838"/>
                  <polygon class="cls-11" points="49.994 63.805 47.356 65.329 47.364 68.361 50.003 66.838 49.994 63.805 49.994 63.805"/>
                  <polygon class="cls-8" points="49.985 60.773 47.347 62.297 47.356 65.329 49.994 63.805 49.985 60.773 49.985 60.773"/>
                  <polygon class="cls-12" points="49.976 57.744 47.339 59.268 47.347 62.297 49.985 60.773 49.976 57.744 49.976 57.744"/>
                  <polygon class="cls-9" points="49.969 54.715 47.329 56.238 47.339 59.268 49.976 57.744 49.969 54.715 49.969 54.715"/>
                  <polygon class="cls-6" points="49.96 51.683 47.32 53.206 47.329 56.238 49.969 54.715 49.96 51.683 49.96 51.683"/>
                  <polygon class="cls-9" points="49.95 48.653 47.313 50.176 47.32 53.206 49.96 51.683 49.95 48.653 49.95 48.653"/>
                  <polygon class="cls-8" points="49.942 45.621 47.304 47.144 47.313 50.176 49.95 48.653 49.942 45.621 49.942 45.621"/>
                  <polygon class="cls-6" points="49.934 42.588 47.295 44.112 47.304 47.144 49.942 45.621 49.934 42.588 49.934 42.588"/>
                  <polygon class="cls-9" points="49.925 39.556 47.287 41.08 47.295 44.112 49.934 42.588 49.925 39.556 49.925 39.556"/>
                  <polygon class="cls-9" points="49.917 36.525 47.278 38.048 47.287 41.08 49.925 39.556 49.917 36.525 49.917 36.525"/>
                  <polygon class="cls-12" points="49.907 33.494 47.27 35.018 47.278 38.048 49.917 36.525 49.907 33.494 49.907 33.494"/>
                  <polygon class="cls-11" points="49.899 30.463 47.261 31.987 47.27 35.018 49.907 33.494 49.899 30.463 49.899 30.463"/>
                  <polygon class="cls-6" points="47.364 68.361 44.727 69.884 44.735 72.916 47.373 71.393 47.364 68.361 47.364 68.361"/>
                  <polygon class="cls-6" points="47.356 65.329 44.719 66.852 44.727 69.884 47.364 68.361 47.356 65.329 47.356 65.329"/>
                  <polygon class="cls-9" points="47.347 62.297 44.71 63.82 44.719 66.852 47.356 65.329 47.347 62.297 47.347 62.297"/>
                  <polygon class="cls-8" points="47.339 59.268 44.7 60.792 44.71 63.82 47.347 62.297 47.339 59.268 47.339 59.268"/>
                  <polygon class="cls-6" points="47.329 56.238 44.692 57.761 44.7 60.792 47.339 59.268 47.329 56.238 47.329 56.238"/>
                  <polygon class="cls-9" points="47.32 53.206 44.684 54.729 44.692 57.761 47.329 56.238 47.32 53.206 47.32 53.206"/>
                  <polygon class="cls-9" points="47.313 50.176 44.675 51.698 44.684 54.729 47.32 53.206 47.313 50.176 47.313 50.176"/>
                  <polygon class="cls-15" points="47.304 47.144 44.667 48.667 44.675 51.698 47.313 50.176 47.304 47.144 47.304 47.144"/>
                  <polygon class="cls-9" points="47.295 44.112 44.658 45.635 44.667 48.667 47.304 47.144 47.295 44.112 47.295 44.112"/>
                  <polygon class="cls-9" points="47.287 41.08 44.649 42.603 44.658 45.635 47.295 44.112 47.287 41.08 47.287 41.08"/>
                  <polygon class="cls-6" points="47.278 38.048 44.641 39.57 44.649 42.603 47.287 41.08 47.278 38.048 47.278 38.048"/>
                  <polygon class="cls-8" points="47.27 35.018 44.634 36.54 44.641 39.57 47.278 38.048 47.27 35.018 47.27 35.018"/>
                  <polygon class="cls-8" points="47.261 31.987 44.624 33.509 44.634 36.54 47.27 35.018 47.261 31.987 47.261 31.987"/>
                  <polygon class="cls-6" points="44.727 69.884 42.089 71.406 42.099 74.439 44.735 72.916 44.727 69.884 44.727 69.884"/>
                  <polygon class="cls-9" points="44.719 66.852 42.08 68.374 42.089 71.406 44.727 69.884 44.719 66.852 44.719 66.852"/>
                  <polygon class="cls-9" points="44.71 63.82 42.073 65.343 42.08 68.374 44.719 66.852 44.71 63.82 44.71 63.82"/>
                  <polygon class="cls-11" points="44.7 60.792 42.063 62.314 42.073 65.343 44.71 63.82 44.7 60.792 44.7 60.792"/>
                  <polygon class="cls-9" points="44.692 57.761 42.055 59.282 42.063 62.314 44.7 60.792 44.692 57.761 44.692 57.761"/>
                  <polygon class="cls-9" points="44.684 54.729 42.046 56.252 42.055 59.282 44.692 57.761 44.684 54.729 44.684 54.729"/>
                  <polygon class="cls-7" points="44.675 51.698 42.038 53.22 42.046 56.252 44.684 54.729 44.675 51.698 44.675 51.698"/>
                  <polygon class="cls-12" points="44.667 48.667 42.03 50.19 42.038 53.22 44.675 51.698 44.667 48.667 44.667 48.667"/>
                  <polygon class="cls-11" points="44.658 45.635 42.02 47.158 42.03 50.19 44.667 48.667 44.658 45.635 44.658 45.635"/>
                  <polygon class="cls-15" points="44.649 42.603 42.013 44.125 42.02 47.158 44.658 45.635 44.649 42.603 44.649 42.603"/>
                  <polygon class="cls-8" points="44.641 39.57 42.004 41.093 42.013 44.125 44.649 42.603 44.641 39.57 44.641 39.57"/>
                  <polygon class="cls-16" points="44.634 36.54 41.995 38.063 42.004 41.093 44.641 39.57 44.634 36.54 44.634 36.54"/>
                  <polygon class="cls-14" points="44.624 33.509 41.986 35.033 41.995 38.063 44.634 36.54 44.624 33.509 44.624 33.509"/>
                  <polygon class="cls-6" points="42.089 71.406 39.452 72.93 39.461 75.961 42.099 74.439 42.089 71.406 42.089 71.406"/>
                  <polygon class="cls-9" points="42.08 68.374 39.443 69.897 39.452 72.93 42.089 71.406 42.08 68.374 42.08 68.374"/>
                  <polygon class="cls-7" points="42.073 65.343 39.435 66.865 39.443 69.897 42.08 68.374 42.073 65.343 42.073 65.343"/>
                  <polygon class="cls-8" points="42.063 62.314 39.426 63.836 39.435 66.865 42.073 65.343 42.063 62.314 42.063 62.314"/>
                  <polygon class="cls-6" points="42.055 59.282 39.418 60.807 39.426 63.836 42.063 62.314 42.055 59.282 42.055 59.282"/>
                  <polygon class="cls-7" points="42.046 56.252 39.409 57.774 39.418 60.807 42.055 59.282 42.046 56.252 42.046 56.252"/>
                  <polygon class="cls-9" points="42.038 53.22 39.401 54.745 39.409 57.774 42.046 56.252 42.038 53.22 42.038 53.22"/>
                  <polygon class="cls-14" points="42.03 50.19 39.393 51.712 39.401 54.745 42.038 53.22 42.03 50.19 42.03 50.19"/>
                  <polygon class="cls-6" points="42.02 47.158 39.383 48.68 39.393 51.712 42.03 50.19 42.02 47.158 42.02 47.158"/>
                  <polygon class="cls-6" points="42.013 44.125 39.376 45.648 39.383 48.68 42.02 47.158 42.013 44.125 42.013 44.125"/>
                  <polygon class="cls-9" points="42.004 41.093 39.366 42.616 39.376 45.648 42.013 44.125 42.004 41.093 42.004 41.093"/>
                  <polygon class="cls-8" points="41.995 38.063 39.357 39.585 39.366 42.616 42.004 41.093 41.995 38.063 41.995 38.063"/>
                  <polygon class="cls-11" points="41.986 35.033 39.349 36.555 39.357 39.585 41.995 38.063 41.986 35.033 41.986 35.033"/>
                  <polygon class="cls-6" points="39.452 72.93 36.814 74.453 36.823 77.484 39.461 75.961 39.452 72.93 39.452 72.93"/>
                  <polygon class="cls-6" points="39.443 69.897 36.805 71.421 36.814 74.453 39.452 72.93 39.443 69.897 39.443 69.897"/>
                  <polygon class="cls-7" points="39.435 66.865 36.796 68.389 36.805 71.421 39.443 69.897 39.435 66.865 39.435 66.865"/>
                  <polygon class="cls-12" points="39.426 63.836 36.788 65.359 36.796 68.389 39.435 66.865 39.426 63.836 39.426 63.836"/>
                  <polygon class="cls-8" points="39.418 60.807 36.78 62.329 36.788 65.359 39.426 63.836 39.418 60.807 39.418 60.807"/>
                  <polygon class="cls-10" points="39.409 57.774 36.77 59.297 36.78 62.329 39.418 60.807 39.409 57.774 39.409 57.774"/>
                  <polygon class="cls-8" points="39.401 54.745 36.763 56.267 36.77 59.297 39.409 57.774 39.401 54.745 39.401 54.745"/>
                  <polygon class="cls-14" points="39.393 51.712 36.753 53.234 36.763 56.267 39.401 54.745 39.393 51.712 39.393 51.712"/>
                  <polygon class="cls-6" points="39.383 48.68 36.745 50.203 36.753 53.234 39.393 51.712 39.383 48.68 39.383 48.68"/>
                  <polygon class="cls-9" points="39.376 45.648 36.736 47.171 36.745 50.203 39.383 48.68 39.376 45.648 39.376 45.648"/>
                  <polygon class="cls-9" points="39.366 42.616 36.728 44.14 36.736 47.171 39.376 45.648 39.366 42.616 39.366 42.616"/>
                  <polygon class="cls-12" points="39.357 39.585 36.72 41.108 36.728 44.14 39.366 42.616 39.357 39.585 39.357 39.585"/>
                  <polygon class="cls-8" points="39.349 36.555 36.709 38.079 36.72 41.108 39.357 39.585 39.349 36.555 39.349 36.555"/>
                  <polygon class="cls-6" points="36.814 74.453 34.177 75.975 34.185 79.007 36.823 77.484 36.814 74.453 36.814 74.453"/>
                  <polygon class="cls-9" points="36.805 71.421 34.167 72.943 34.177 75.975 36.814 74.453 36.805 71.421 36.805 71.421"/>
                  <polygon class="cls-7" points="36.796 68.389 34.16 69.912 34.167 72.943 36.805 71.421 36.796 68.389 36.796 68.389"/>
                  <polygon class="cls-8" points="36.788 65.359 34.151 66.882 34.16 69.912 36.796 68.389 36.788 65.359 36.788 65.359"/>
                  <polygon class="cls-9" points="36.78 62.329 34.143 63.853 34.151 66.882 36.788 65.359 36.78 62.329 36.78 62.329"/>
                  <polygon class="cls-9" points="36.77 59.297 34.134 60.82 34.143 63.853 36.78 62.329 36.77 59.297 36.77 59.297"/>
                  <polygon class="cls-9" points="36.763 56.267 34.125 57.79 34.134 60.82 36.77 59.297 36.763 56.267 36.763 56.267"/>
                  <polygon class="cls-8" points="36.753 53.234 34.116 54.757 34.125 57.79 36.763 56.267 36.753 53.234 36.753 53.234"/>
                  <polygon class="cls-6" points="36.745 50.203 34.108 51.725 34.116 54.757 36.753 53.234 36.745 50.203 36.745 50.203"/>
                  <polygon class="cls-9" points="36.736 47.171 34.1 48.694 34.108 51.725 36.745 50.203 36.736 47.171 36.736 47.171"/>
                  <polygon class="cls-7" points="36.728 44.14 34.09 45.662 34.1 48.694 36.736 47.171 36.728 44.14 36.728 44.14"/>
                  <polygon class="cls-8" points="36.72 41.108 34.083 42.631 34.09 45.662 36.728 44.14 36.72 41.108 36.72 41.108"/>
                  <polygon class="cls-11" points="36.709 38.079 34.073 39.601 34.083 42.631 36.72 41.108 36.709 38.079 36.709 38.079"/>
                </g>
              </g>
            </g>
            <g class="cls-4">
              <polygon class="cls-2" points="34.183 79.008 0.112 59.209 0 19.8 34.072 39.601 34.183 79.008"/>
              <g class="cls-18">
                <g>
                  <polygon class="cls-6" points="34.174 75.975 31.554 74.452 31.562 77.484 34.182 79.007 34.174 75.975 34.174 75.975"/>
                  <polygon class="cls-6" points="34.164 72.943 31.545 71.42 31.554 74.452 34.174 75.975 34.164 72.943 34.164 72.943"/>
                  <polygon class="cls-7" points="34.157 69.912 31.537 68.389 31.545 71.42 34.164 72.943 34.157 69.912 34.157 69.912"/>
                  <polygon class="cls-8" points="34.147 66.882 31.527 65.359 31.537 68.389 34.157 69.912 34.147 66.882 34.147 66.882"/>
                  <polygon class="cls-6" points="34.139 63.853 31.519 62.329 31.527 65.359 34.147 66.882 34.139 63.853 34.139 63.853"/>
                  <polygon class="cls-9" points="34.13 60.82 31.511 59.297 31.519 62.329 34.139 63.853 34.13 60.82 34.13 60.82"/>
                  <polygon class="cls-9" points="34.122 57.79 31.502 56.267 31.511 59.297 34.13 60.82 34.122 57.79 34.122 57.79"/>
                  <polygon class="cls-8" points="34.114 54.757 31.494 53.234 31.502 56.267 34.122 57.79 34.114 54.757 34.114 54.757"/>
                  <polygon class="cls-9" points="34.104 51.725 31.485 50.203 31.494 53.234 34.114 54.757 34.104 51.725 34.104 51.725"/>
                  <polygon class="cls-9" points="34.097 48.694 31.477 47.171 31.485 50.203 34.104 51.725 34.097 48.694 34.097 48.694"/>
                  <polygon class="cls-9" points="34.087 45.662 31.467 44.139 31.477 47.171 34.097 48.694 34.087 45.662 34.087 45.662"/>
                  <polygon class="cls-8" points="34.079 42.631 31.459 41.108 31.467 44.139 34.087 45.662 34.079 42.631 34.079 42.631"/>
                  <polygon class="cls-10" points="34.071 39.601 31.45 38.079 31.459 41.108 34.079 42.631 34.071 39.601 34.071 39.601"/>
                  <polygon class="cls-8" points="31.554 74.452 28.934 72.93 28.942 75.961 31.562 77.484 31.554 74.452 31.554 74.452"/>
                  <polygon class="cls-8" points="31.545 71.42 28.925 69.899 28.934 72.93 31.554 74.452 31.545 71.42 31.545 71.42"/>
                  <polygon class="cls-8" points="31.537 68.389 28.916 66.866 28.925 69.899 31.545 71.42 31.537 68.389 31.537 68.389"/>
                  <polygon class="cls-11" points="31.527 65.359 28.908 63.838 28.916 66.866 31.537 68.389 31.527 65.359 31.527 65.359"/>
                  <polygon class="cls-6" points="31.519 62.329 28.899 60.807 28.908 63.838 31.527 65.359 31.519 62.329 31.519 62.329"/>
                  <polygon class="cls-9" points="31.511 59.297 28.891 57.776 28.899 60.807 31.519 62.329 31.511 59.297 31.511 59.297"/>
                  <polygon class="cls-7" points="31.502 56.267 28.882 54.745 28.891 57.776 31.511 59.297 31.502 56.267 31.502 56.267"/>
                  <polygon class="cls-8" points="31.494 53.234 28.873 51.713 28.882 54.745 31.502 56.267 31.494 53.234 31.494 53.234"/>
                  <polygon class="cls-9" points="31.485 50.203 28.865 48.681 28.873 51.713 31.494 53.234 31.485 50.203 31.485 50.203"/>
                  <polygon class="cls-6" points="31.477 47.171 28.856 45.648 28.865 48.681 31.485 50.203 31.477 47.171 31.477 47.171"/>
                  <polygon class="cls-7" points="31.467 44.139 28.848 42.616 28.856 45.648 31.477 47.171 31.467 44.139 31.467 44.139"/>
                  <polygon class="cls-12" points="31.459 41.108 28.839 39.586 28.848 42.616 31.467 44.139 31.459 41.108 31.459 41.108"/>
                  <polygon class="cls-8" points="31.45 38.079 28.83 36.556 28.839 39.586 31.459 41.108 31.45 38.079 31.45 38.079"/>
                  <polygon class="cls-13" points="28.934 72.93 26.312 71.406 26.32 74.439 28.942 75.961 28.934 72.93 28.934 72.93"/>
                  <polygon class="cls-9" points="28.925 69.899 26.304 68.374 26.312 71.406 28.934 72.93 28.925 69.899 28.925 69.899"/>
                  <polygon class="cls-7" points="28.916 66.866 26.295 65.343 26.304 68.374 28.925 69.899 28.916 66.866 28.916 66.866"/>
                  <polygon class="cls-11" points="28.908 63.838 26.287 62.314 26.295 65.343 28.916 66.866 28.908 63.838 28.908 63.838"/>
                  <polygon class="cls-9" points="28.899 60.807 26.278 59.282 26.287 62.314 28.908 63.838 28.899 60.807 28.899 60.807"/>
                  <polygon class="cls-9" points="28.891 57.776 26.268 56.252 26.278 59.282 28.899 60.807 28.891 57.776 28.891 57.776"/>
                  <polygon class="cls-9" points="28.882 54.745 26.26 53.22 26.268 56.252 28.891 57.776 28.882 54.745 28.882 54.745"/>
                  <polygon class="cls-14" points="28.873 51.713 26.252 50.19 26.26 53.22 28.882 54.745 28.873 51.713 28.873 51.713"/>
                  <polygon class="cls-15" points="28.865 48.681 26.243 47.156 26.252 50.19 28.873 51.713 28.865 48.681 28.865 48.681"/>
                  <polygon class="cls-12" points="28.856 45.648 26.235 44.125 26.243 47.156 28.865 48.681 28.856 45.648 28.856 45.648"/>
                  <polygon class="cls-8" points="28.848 42.616 26.226 41.093 26.235 44.125 28.856 45.648 28.848 42.616 28.848 42.616"/>
                  <polygon class="cls-16" points="28.839 39.586 26.217 38.063 26.226 41.093 28.848 42.616 28.839 39.586 28.839 39.586"/>
                  <polygon class="cls-14" points="28.83 36.556 26.209 35.033 26.217 38.063 28.839 39.586 28.83 36.556 28.83 36.556"/>
                  <polygon class="cls-6" points="26.312 71.406 23.691 69.884 23.699 72.914 26.32 74.439 26.312 71.406 26.312 71.406"/>
                  <polygon class="cls-9" points="26.304 68.374 23.682 66.851 23.691 69.884 26.312 71.406 26.304 68.374 26.304 68.374"/>
                  <polygon class="cls-9" points="26.295 65.343 23.674 63.819 23.682 66.851 26.304 68.374 26.295 65.343 26.295 65.343"/>
                  <polygon class="cls-8" points="26.287 62.314 23.665 60.79 23.674 63.819 26.295 65.343 26.287 62.314 26.287 62.314"/>
                  <polygon class="cls-6" points="26.278 59.282 23.656 57.76 23.665 60.79 26.287 62.314 26.278 59.282 26.278 59.282"/>
                  <polygon class="cls-9" points="26.268 56.252 23.648 54.728 23.656 57.76 26.278 59.282 26.268 56.252 26.268 56.252"/>
                  <polygon class="cls-7" points="26.26 53.22 23.639 51.697 23.648 54.728 26.268 56.252 26.26 53.22 26.26 53.22"/>
                  <polygon class="cls-14" points="26.252 50.19 23.631 48.665 23.639 51.697 26.26 53.22 26.252 50.19 26.252 50.19"/>
                  <polygon class="cls-17" points="26.243 47.156 23.622 45.634 23.631 48.665 26.252 50.19 26.243 47.156 26.243 47.156"/>
                  <polygon class="cls-6" points="26.235 44.125 23.614 42.601 23.622 45.634 26.243 47.156 26.235 44.125 26.235 44.125"/>
                  <polygon class="cls-9" points="26.226 41.093 23.604 39.569 23.614 42.601 26.235 44.125 26.226 41.093 26.226 41.093"/>
                  <polygon class="cls-8" points="26.217 38.063 23.596 36.539 23.604 39.569 26.226 41.093 26.217 38.063 26.217 38.063"/>
                  <polygon class="cls-8" points="26.209 35.033 23.588 33.509 23.596 36.539 26.217 38.063 26.209 35.033 26.209 35.033"/>
                  <polygon class="cls-6" points="23.691 69.884 21.071 68.359 21.079 71.392 23.699 72.914 23.691 69.884 23.691 69.884"/>
                  <polygon class="cls-9" points="23.682 66.851 21.061 65.328 21.071 68.359 23.691 69.884 23.682 66.851 23.682 66.851"/>
                  <polygon class="cls-9" points="23.674 63.819 21.053 62.297 21.061 65.328 23.682 66.851 23.674 63.819 23.674 63.819"/>
                  <polygon class="cls-14" points="23.665 60.79 21.045 59.268 21.053 62.297 23.674 63.819 23.665 60.79 23.665 60.79"/>
                  <polygon class="cls-8" points="23.656 57.76 21.036 56.237 21.045 59.268 23.665 60.79 23.656 57.76 23.656 57.76"/>
                  <polygon class="cls-8" points="23.648 54.728 21.028 53.206 21.036 56.237 23.656 57.76 23.648 54.728 23.648 54.728"/>
                  <polygon class="cls-12" points="23.639 51.697 21.019 50.175 21.028 53.206 23.648 54.728 23.639 51.697 23.639 51.697"/>
                  <polygon class="cls-12" points="23.631 48.665 21.011 47.144 21.019 50.175 23.639 51.697 23.631 48.665 23.631 48.665"/>
                  <polygon class="cls-6" points="23.622 45.634 21.001 44.111 21.011 47.144 23.631 48.665 23.622 45.634 23.622 45.634"/>
                  <polygon class="cls-9" points="23.614 42.601 20.994 41.079 21.001 44.111 23.622 45.634 23.614 42.601 23.614 42.601"/>
                  <polygon class="cls-9" points="23.604 39.569 20.984 38.047 20.994 41.079 23.614 42.601 23.604 39.569 23.604 39.569"/>
                  <polygon class="cls-15" points="23.596 36.539 20.976 35.017 20.984 38.047 23.604 39.569 23.596 36.539 23.596 36.539"/>
                  <polygon class="cls-11" points="23.588 33.509 20.968 31.986 20.976 35.017 23.596 36.539 23.588 33.509 23.588 33.509"/>
                  <polygon class="cls-13" points="21.071 68.359 18.449 66.837 18.457 69.869 21.079 71.392 21.071 68.359 21.071 68.359"/>
                  <polygon class="cls-6" points="21.061 65.328 18.44 63.804 18.449 66.837 21.071 68.359 21.061 65.328 21.061 65.328"/>
                  <polygon class="cls-7" points="21.053 62.297 18.432 60.773 18.44 63.804 21.061 65.328 21.053 62.297 21.053 62.297"/>
                  <polygon class="cls-14" points="21.045 59.268 18.423 57.744 18.432 60.773 21.053 62.297 21.045 59.268 21.045 59.268"/>
                  <polygon class="cls-6" points="21.036 56.237 18.415 54.713 18.423 57.744 21.045 59.268 21.036 56.237 21.036 56.237"/>
                  <polygon class="cls-9" points="21.028 53.206 18.406 51.682 18.415 54.713 21.036 56.237 21.028 53.206 21.028 53.206"/>
                  <polygon class="cls-9" points="21.019 50.175 18.397 48.65 18.406 51.682 21.028 53.206 21.019 50.175 21.019 50.175"/>
                  <polygon class="cls-8" points="21.011 47.144 18.389 45.62 18.397 48.65 21.019 50.175 21.011 47.144 21.011 47.144"/>
                  <polygon class="cls-9" points="21.001 44.111 18.38 42.587 18.389 45.62 21.011 47.144 21.001 44.111 21.001 44.111"/>
                  <polygon class="cls-9" points="20.994 41.079 18.372 39.555 18.38 42.587 21.001 44.111 20.994 41.079 20.994 41.079"/>
                  <polygon class="cls-7" points="20.984 38.047 18.362 36.524 18.372 39.555 20.994 41.079 20.984 38.047 20.984 38.047"/>
                  <polygon class="cls-8" points="20.976 35.017 18.354 33.493 18.362 36.524 20.984 38.047 20.976 35.017 20.976 35.017"/>
                  <polygon class="cls-16" points="20.968 31.986 18.346 30.463 18.354 33.493 20.976 35.017 20.968 31.986 20.968 31.986"/>
                  <polygon class="cls-6" points="18.449 66.837 15.828 65.314 15.836 68.345 18.457 69.869 18.449 66.837 18.449 66.837"/>
                  <polygon class="cls-7" points="18.44 63.804 15.819 62.281 15.828 65.314 18.449 66.837 18.44 63.804 18.44 63.804"/>
                  <polygon class="cls-9" points="18.432 60.773 15.81 59.249 15.819 62.281 18.44 63.804 18.432 60.773 18.432 60.773"/>
                  <polygon class="cls-8" points="18.423 57.744 15.802 56.221 15.81 59.249 18.432 60.773 18.423 57.744 18.423 57.744"/>
                  <polygon class="cls-13" points="18.415 54.713 15.793 53.19 15.802 56.221 18.423 57.744 18.415 54.713 18.415 54.713"/>
                  <polygon class="cls-9" points="18.406 51.682 15.785 50.158 15.793 53.19 18.415 54.713 18.406 51.682 18.406 51.682"/>
                  <polygon class="cls-7" points="18.397 48.65 15.776 47.128 15.785 50.158 18.406 51.682 18.397 48.65 18.397 48.65"/>
                  <polygon class="cls-11" points="18.389 45.62 15.768 44.096 15.776 47.128 18.397 48.65 18.389 45.62 18.389 45.62"/>
                  <polygon class="cls-9" points="18.38 42.587 15.759 41.065 15.768 44.096 18.389 45.62 18.38 42.587 18.38 42.587"/>
                  <polygon class="cls-9" points="18.372 39.555 15.75 38.032 15.759 41.065 18.38 42.587 18.372 39.555 18.372 39.555"/>
                  <polygon class="cls-7" points="18.362 36.524 15.741 35 15.75 38.032 18.372 39.555 18.362 36.524 18.362 36.524"/>
                  <polygon class="cls-16" points="18.354 33.493 15.733 31.97 15.741 35 18.362 36.524 18.354 33.493 18.354 33.493"/>
                  <polygon class="cls-10" points="18.346 30.463 15.725 28.939 15.733 31.97 18.354 33.493 18.346 30.463 18.346 30.463"/>
                  <polygon class="cls-8" points="15.828 65.314 13.206 63.79 13.214 66.821 15.836 68.345 15.828 65.314 15.828 65.314"/>
                  <polygon class="cls-11" points="15.819 62.281 13.198 60.758 13.206 63.79 15.828 65.314 15.819 62.281 15.819 62.281"/>
                  <polygon class="cls-8" points="15.81 59.249 13.189 57.725 13.198 60.758 15.819 62.281 15.81 59.249 15.81 59.249"/>
                  <polygon class="cls-12" points="15.802 56.221 13.18 54.697 13.189 57.725 15.81 59.249 15.802 56.221 15.802 56.221"/>
                  <polygon class="cls-9" points="15.793 53.19 13.172 51.668 13.18 54.697 15.802 56.221 15.793 53.19 15.793 53.19"/>
                  <polygon class="cls-6" points="15.785 50.158 13.163 48.635 13.172 51.668 15.793 53.19 15.785 50.158 15.785 50.158"/>
                  <polygon class="cls-9" points="15.776 47.128 13.154 45.604 13.163 48.635 15.785 50.158 15.776 47.128 15.776 47.128"/>
                  <polygon class="cls-8" points="15.768 44.096 13.146 42.573 13.154 45.604 15.776 47.128 15.768 44.096 15.768 44.096"/>
                  <polygon class="cls-6" points="15.759 41.065 13.137 39.54 13.146 42.573 15.768 44.096 15.759 41.065 15.759 41.065"/>
                  <polygon class="cls-9" points="15.75 38.032 13.128 36.509 13.137 39.54 15.759 41.065 15.75 38.032 15.75 38.032"/>
                  <polygon class="cls-9" points="15.741 35 13.12 33.477 13.128 36.509 15.75 38.032 15.741 35 15.741 35"/>
                  <polygon class="cls-12" points="15.733 31.97 13.112 30.446 13.12 33.477 15.741 35 15.733 31.97 15.733 31.97"/>
                  <polygon class="cls-11" points="15.725 28.939 13.103 27.416 13.112 30.446 15.733 31.97 15.725 28.939 15.725 28.939"/>
                  <polygon class="cls-6" points="13.206 63.79 10.586 62.268 10.595 65.299 13.214 66.821 13.206 63.79 13.206 63.79"/>
                  <polygon class="cls-6" points="13.198 60.758 10.578 59.234 10.586 62.268 13.206 63.79 13.198 60.758 13.198 60.758"/>
                  <polygon class="cls-9" points="13.189 57.725 10.569 56.203 10.578 59.234 13.198 60.758 13.189 57.725 13.189 57.725"/>
                  <polygon class="cls-8" points="13.18 54.697 10.56 53.175 10.569 56.203 13.189 57.725 13.18 54.697 13.18 54.697"/>
                  <polygon class="cls-6" points="13.172 51.668 10.552 50.144 10.56 53.175 13.18 54.697 13.172 51.668 13.172 51.668"/>
                  <polygon class="cls-9" points="13.163 48.635 10.543 47.112 10.552 50.144 13.172 51.668 13.163 48.635 13.163 48.635"/>
                  <polygon class="cls-9" points="13.154 45.604 10.535 44.082 10.543 47.112 13.163 48.635 13.154 45.604 13.154 45.604"/>
                  <polygon class="cls-15" points="13.146 42.573 10.526 41.049 10.535 44.082 13.154 45.604 13.146 42.573 13.146 42.573"/>
                  <polygon class="cls-9" points="13.137 39.54 10.518 38.018 10.526 41.049 13.146 42.573 13.137 39.54 13.137 39.54"/>
                  <polygon class="cls-9" points="13.128 36.509 10.509 34.986 10.518 38.018 13.137 39.54 13.128 36.509 13.128 36.509"/>
                  <polygon class="cls-6" points="13.12 33.477 10.5 31.954 10.509 34.986 13.128 36.509 13.12 33.477 13.12 33.477"/>
                  <polygon class="cls-8" points="13.112 30.446 10.492 28.923 10.5 31.954 13.12 33.477 13.112 30.446 13.112 30.446"/>
                  <polygon class="cls-8" points="13.103 27.416 10.483 25.893 10.492 28.923 13.112 30.446 13.103 27.416 13.103 27.416"/>
                  <polygon class="cls-6" points="10.586 62.268 7.966 60.744 7.975 63.777 10.595 65.299 10.586 62.268 10.586 62.268"/>
                  <polygon class="cls-9" points="10.578 59.234 7.957 57.713 7.966 60.744 10.586 62.268 10.578 59.234 10.578 59.234"/>
                  <polygon class="cls-9" points="10.569 56.203 7.948 54.681 7.957 57.713 10.578 59.234 10.569 56.203 10.569 56.203"/>
                  <polygon class="cls-11" points="10.56 53.175 7.94 51.652 7.948 54.681 10.569 56.203 10.56 53.175 10.56 53.175"/>
                  <polygon class="cls-9" points="10.552 50.144 7.932 48.622 7.94 51.652 10.56 53.175 10.552 50.144 10.552 50.144"/>
                  <polygon class="cls-9" points="10.543 47.112 7.923 45.589 7.932 48.622 10.552 50.144 10.543 47.112 10.543 47.112"/>
                  <polygon class="cls-7" points="10.535 44.082 7.915 42.56 7.923 45.589 10.543 47.112 10.535 44.082 10.535 44.082"/>
                  <polygon class="cls-12" points="10.526 41.049 7.906 39.527 7.915 42.56 10.535 44.082 10.526 41.049 10.526 41.049"/>
                  <polygon class="cls-11" points="10.518 38.018 7.897 36.495 7.906 39.527 10.526 41.049 10.518 38.018 10.518 38.018"/>
                  <polygon class="cls-15" points="10.509 34.986 7.889 33.463 7.897 36.495 10.518 38.018 10.509 34.986 10.509 34.986"/>
                  <polygon class="cls-8" points="10.5 31.954 7.88 30.431 7.889 33.463 10.509 34.986 10.5 31.954 10.5 31.954"/>
                  <polygon class="cls-16" points="10.492 28.923 7.871 27.401 7.88 30.431 10.5 31.954 10.492 28.923 10.492 28.923"/>
                  <polygon class="cls-14" points="10.483 25.893 7.863 24.371 7.871 27.401 10.492 28.923 10.483 25.893 10.483 25.893"/>
                  <polygon class="cls-6" points="7.966 60.744 5.346 59.223 5.355 62.253 7.975 63.777 7.966 60.744 7.966 60.744"/>
                  <polygon class="cls-9" points="7.957 57.713 5.338 56.19 5.346 59.223 7.966 60.744 7.957 57.713 7.957 57.713"/>
                  <polygon class="cls-7" points="7.948 54.681 5.329 53.158 5.338 56.19 7.957 57.713 7.948 54.681 7.948 54.681"/>
                  <polygon class="cls-8" points="7.94 51.652 5.32 50.129 5.329 53.158 7.948 54.681 7.94 51.652 7.94 51.652"/>
                  <polygon class="cls-6" points="7.932 48.622 5.311 47.099 5.32 50.129 7.94 51.652 7.932 48.622 7.932 48.622"/>
                  <polygon class="cls-7" points="7.923 45.589 5.303 44.067 5.311 47.099 7.932 48.622 7.923 45.589 7.923 45.589"/>
                  <polygon class="cls-9" points="7.915 42.56 5.295 41.036 5.303 44.067 7.923 45.589 7.915 42.56 7.915 42.56"/>
                  <polygon class="cls-14" points="7.906 39.527 5.286 38.005 5.295 41.036 7.915 42.56 7.906 39.527 7.906 39.527"/>
                  <polygon class="cls-6" points="7.897 36.495 5.277 34.973 5.286 38.005 7.906 39.527 7.897 36.495 7.897 36.495"/>
                  <polygon class="cls-6" points="7.889 33.463 5.268 31.941 5.277 34.973 7.897 36.495 7.889 33.463 7.889 33.463"/>
                  <polygon class="cls-9" points="7.88 30.431 5.26 28.909 5.268 31.941 7.889 33.463 7.88 30.431 7.88 30.431"/>
                  <polygon class="cls-8" points="7.871 27.401 5.251 25.878 5.26 28.909 7.88 30.431 7.871 27.401 7.871 27.401"/>
                  <polygon class="cls-11" points="7.863 24.371 5.243 22.848 5.251 25.878 7.871 27.401 7.863 24.371 7.863 24.371"/>
                  <polygon class="cls-6" points="5.346 59.223 2.725 57.698 2.733 60.731 5.355 62.253 5.346 59.223 5.346 59.223"/>
                  <polygon class="cls-6" points="5.338 56.19 2.716 54.668 2.725 57.698 5.346 59.223 5.338 56.19 5.338 56.19"/>
                  <polygon class="cls-7" points="5.329 53.158 2.706 51.634 2.716 54.668 5.338 56.19 5.329 53.158 5.329 53.158"/>
                  <polygon class="cls-12" points="5.32 50.129 2.699 48.607 2.706 51.634 5.329 53.158 5.32 50.129 5.32 50.129"/>
                  <polygon class="cls-8" points="5.311 47.099 2.69 45.575 2.699 48.607 5.32 50.129 5.311 47.099 5.311 47.099"/>
                  <polygon class="cls-10" points="5.303 44.067 2.682 42.544 2.69 45.575 5.311 47.099 5.303 44.067 5.303 44.067"/>
                  <polygon class="cls-8" points="5.295 41.036 2.674 39.513 2.682 42.544 5.303 44.067 5.295 41.036 5.295 41.036"/>
                  <polygon class="cls-14" points="5.286 38.005 2.664 36.481 2.674 39.513 5.295 41.036 5.286 38.005 5.286 38.005"/>
                  <polygon class="cls-6" points="5.277 34.973 2.656 33.449 2.664 36.481 5.286 38.005 5.277 34.973 5.277 34.973"/>
                  <polygon class="cls-9" points="5.268 31.941 2.647 30.417 2.656 33.449 5.277 34.973 5.268 31.941 5.268 31.941"/>
                  <polygon class="cls-9" points="5.26 28.909 2.639 27.385 2.647 30.417 5.268 31.941 5.26 28.909 5.26 28.909"/>
                  <polygon class="cls-12" points="5.251 25.878 2.63 24.355 2.639 27.385 5.26 28.909 5.251 25.878 5.251 25.878"/>
                  <polygon class="cls-8" points="5.243 22.848 2.622 21.324 2.63 24.355 5.251 25.878 5.243 22.848 5.243 22.848"/>
                  <polygon class="cls-6" points="2.725 57.698 0.104 56.175 0.113 59.209 2.733 60.731 2.725 57.698 2.725 57.698"/>
                  <polygon class="cls-9" points="2.716 54.668 0.096 53.143 0.104 56.175 2.725 57.698 2.716 54.668 2.716 54.668"/>
                  <polygon class="cls-7" points="2.706 51.634 0.087 50.112 0.096 53.143 2.716 54.668 2.706 51.634 2.706 51.634"/>
                  <polygon class="cls-8" points="2.699 48.607 0.079 47.083 0.087 50.112 2.706 51.634 2.699 48.607 2.699 48.607"/>
                  <polygon class="cls-9" points="2.69 45.575 0.07 44.053 0.079 47.083 2.699 48.607 2.69 45.575 2.69 45.575"/>
                  <polygon class="cls-9" points="2.682 42.544 0.061 41.021 0.07 44.053 2.69 45.575 2.682 42.544 2.682 42.544"/>
                  <polygon class="cls-9" points="2.674 39.513 0.053 37.99 0.061 41.021 2.682 42.544 2.674 39.513 2.674 39.513"/>
                  <polygon class="cls-8" points="2.664 36.481 0.044 34.959 0.053 37.99 2.674 39.513 2.664 36.481 2.664 36.481"/>
                  <polygon class="cls-6" points="2.656 33.449 0.036 31.926 0.044 34.959 2.664 36.481 2.656 33.449 2.656 33.449"/>
                  <polygon class="cls-9" points="2.647 30.417 0.027 28.895 0.036 31.926 2.656 33.449 2.647 30.417 2.647 30.417"/>
                  <polygon class="cls-7" points="2.639 27.385 0.018 25.862 0.027 28.895 2.647 30.417 2.639 27.385 2.639 27.385"/>
                  <polygon class="cls-8" points="2.63 24.355 0.01 22.833 0.018 25.862 2.639 27.385 2.63 24.355 2.63 24.355"/>
                  <polygon class="cls-11" points="2.622 21.324 0.001 19.802 0.01 22.833 2.63 24.355 2.622 21.324 2.622 21.324"/>
                </g>
              </g>
            </g>
            <g class="cls-4">
              <polygon class="cls-3" points="34.072 39.601 0 19.8 34.295 0 68.367 19.8 34.072 39.601"/>
              <g class="cls-19">
                <g>
                  <polygon class="cls-14" points="65.743 18.277 63.106 19.8 65.728 21.323 68.366 19.801 65.743 18.277 65.743 18.277"/>
                  <polygon class="cls-14" points="63.122 16.754 60.485 18.277 63.106 19.8 65.743 18.277 63.122 16.754 63.122 16.754"/>
                  <polygon class="cls-15" points="60.501 15.231 57.863 16.753 60.485 18.277 63.122 16.754 60.501 15.231 60.501 15.231"/>
                  <polygon class="cls-8" points="57.883 13.709 55.245 15.232 57.863 16.753 60.501 15.231 57.883 13.709 57.883 13.709"/>
                  <polygon class="cls-14" points="55.262 12.186 52.624 13.709 55.245 15.232 57.883 13.709 55.262 12.186 55.262 12.186"/>
                  <polygon class="cls-11" points="52.641 10.663 50.003 12.186 52.624 13.709 55.262 12.186 52.641 10.663 52.641 10.663"/>
                  <polygon class="cls-11" points="50.019 9.14 47.384 10.663 50.003 12.186 52.641 10.663 50.019 9.14 50.019 9.14"/>
                  <polygon class="cls-8" points="47.399 7.617 44.762 9.139 47.384 10.663 50.019 9.14 47.399 7.617 47.399 7.617"/>
                  <polygon class="cls-11" points="44.777 6.094 42.14 7.616 44.762 9.139 47.399 7.617 44.777 6.094 44.777 6.094"/>
                  <polygon class="cls-11" points="42.156 4.57 39.519 6.092 42.14 7.616 44.777 6.094 42.156 4.57 42.156 4.57"/>
                  <polygon class="cls-11" points="39.535 3.046 36.897 4.569 39.519 6.092 42.156 4.57 39.535 3.046 39.535 3.046"/>
                  <polygon class="cls-8" points="36.914 1.524 34.277 3.046 36.897 4.569 39.535 3.046 36.914 1.524 36.914 1.524"/>
                  <polygon class="cls-10" points="34.294 0.001 31.657 1.524 34.277 3.046 36.914 1.524 34.294 0.001 34.294 0.001"/>
                  <polygon class="cls-8" points="63.106 19.8 60.469 21.323 63.091 22.847 65.728 21.323 63.106 19.8 63.106 19.8"/>
                  <polygon class="cls-8" points="60.485 18.277 57.849 19.8 60.469 21.323 63.106 19.8 60.485 18.277 60.485 18.277"/>
                  <polygon class="cls-8" points="57.863 16.753 55.226 18.276 57.849 19.8 60.485 18.277 57.863 16.753 57.863 16.753"/>
                  <polygon class="cls-11" points="55.245 15.232 52.607 16.754 55.226 18.276 57.863 16.753 55.245 15.232 55.245 15.232"/>
                  <polygon class="cls-14" points="52.624 13.709 49.987 15.232 52.607 16.754 55.245 15.232 52.624 13.709 52.624 13.709"/>
                  <polygon class="cls-11" points="50.003 12.186 47.366 13.708 49.987 15.232 52.624 13.709 50.003 12.186 50.003 12.186"/>
                  <polygon class="cls-15" points="47.384 10.663 44.745 12.186 47.366 13.708 50.003 12.186 47.384 10.663 47.384 10.663"/>
                  <polygon class="cls-8" points="44.762 9.139 42.124 10.662 44.745 12.186 47.384 10.663 44.762 9.139 44.762 9.139"/>
                  <polygon class="cls-11" points="42.14 7.616 39.503 9.139 42.124 10.662 44.762 9.139 42.14 7.616 42.14 7.616"/>
                  <polygon class="cls-14" points="39.519 6.092 36.882 7.615 39.503 9.139 42.14 7.616 39.519 6.092 39.519 6.092"/>
                  <polygon class="cls-15" points="36.897 4.569 34.261 6.092 36.882 7.615 39.519 6.092 36.897 4.569 36.897 4.569"/>
                  <polygon class="cls-12" points="34.277 3.046 31.64 4.569 34.261 6.092 36.897 4.569 34.277 3.046 34.277 3.046"/>
                  <polygon class="cls-8" points="31.657 1.524 29.02 3.046 31.64 4.569 34.277 3.046 31.657 1.524 31.657 1.524"/>
                  <polygon class="cls-14" points="60.469 21.323 57.83 22.847 60.453 24.37 63.091 22.847 60.469 21.323 60.469 21.323"/>
                  <polygon class="cls-11" points="57.849 19.8 55.21 21.323 57.83 22.847 60.469 21.323 57.849 19.8 57.849 19.8"/>
                  <polygon class="cls-15" points="55.226 18.276 52.587 19.8 55.21 21.323 57.849 19.8 55.226 18.276 55.226 18.276"/>
                  <polygon class="cls-11" points="52.607 16.754 49.97 18.277 52.587 19.8 55.226 18.276 52.607 16.754 52.607 16.754"/>
                  <polygon class="cls-11" points="49.987 15.232 47.349 16.755 49.97 18.277 52.607 16.754 49.987 15.232 49.987 15.232"/>
                  <polygon class="cls-11" points="47.366 13.708 44.727 15.232 47.349 16.755 49.987 15.232 47.366 13.708 47.366 13.708"/>
                  <polygon class="cls-11" points="44.745 12.186 42.108 13.709 44.727 15.232 47.366 13.708 44.745 12.186 44.745 12.186"/>
                  <polygon class="cls-14" points="42.124 10.662 39.486 12.186 42.108 13.709 44.745 12.186 42.124 10.662 42.124 10.662"/>
                  <polygon class="cls-15" points="39.503 9.139 36.864 10.662 39.486 12.186 42.124 10.662 39.503 9.139 39.503 9.139"/>
                  <polygon class="cls-12" points="36.882 7.615 34.244 9.139 36.864 10.662 39.503 9.139 36.882 7.615 36.882 7.615"/>
                  <polygon class="cls-8" points="34.261 6.092 31.621 7.615 34.244 9.139 36.882 7.615 34.261 6.092 34.261 6.092"/>
                  <polygon class="cls-16" points="31.64 4.569 29.001 6.092 31.621 7.615 34.261 6.092 31.64 4.569 31.64 4.569"/>
                  <polygon class="cls-14" points="29.02 3.046 26.382 4.569 29.001 6.092 31.64 4.569 29.02 3.046 29.02 3.046"/>
                  <polygon class="cls-15" points="57.83 22.847 55.191 24.37 57.812 25.893 60.453 24.37 57.83 22.847 57.83 22.847"/>
                  <polygon class="cls-11" points="55.21 21.323 52.57 22.847 55.191 24.37 57.83 22.847 55.21 21.323 55.21 21.323"/>
                  <polygon class="cls-11" points="52.587 19.8 49.948 21.323 52.57 22.847 55.21 21.323 52.587 19.8 52.587 19.8"/>
                  <polygon class="cls-8" points="49.97 18.277 47.329 19.801 49.948 21.323 52.587 19.8 49.97 18.277 49.97 18.277"/>
                  <polygon class="cls-14" points="47.349 16.755 44.71 18.278 47.329 19.801 49.97 18.277 47.349 16.755 47.349 16.755"/>
                  <polygon class="cls-11" points="44.727 15.232 42.089 16.755 44.71 18.278 47.349 16.755 44.727 15.232 44.727 15.232"/>
                  <polygon class="cls-15" points="42.108 13.709 39.47 15.233 42.089 16.755 44.727 15.232 42.108 13.709 42.108 13.709"/>
                  <polygon class="cls-14" points="39.486 12.186 36.847 13.709 39.47 15.233 42.108 13.709 39.486 12.186 39.486 12.186"/>
                  <polygon class="cls-11" points="36.864 10.662 34.226 12.186 36.847 13.709 39.486 12.186 36.864 10.662 36.864 10.662"/>
                  <polygon class="cls-14" points="34.244 9.139 31.604 10.662 34.226 12.186 36.864 10.662 34.244 9.139 34.244 9.139"/>
                  <polygon class="cls-11" points="31.621 7.615 28.983 9.139 31.604 10.662 34.244 9.139 31.621 7.615 31.621 7.615"/>
                  <polygon class="cls-8" points="29.001 6.092 26.362 7.616 28.983 9.139 31.621 7.615 29.001 6.092 29.001 6.092"/>
                  <polygon class="cls-8" points="26.382 4.569 23.742 6.093 26.362 7.616 29.001 6.092 26.382 4.569 26.382 4.569"/>
                  <polygon class="cls-11" points="55.191 24.37 52.554 25.892 55.176 27.416 57.812 25.893 55.191 24.37 55.191 24.37"/>
                  <polygon class="cls-11" points="52.57 22.847 49.934 24.368 52.554 25.892 55.191 24.37 52.57 22.847 52.57 22.847"/>
                  <polygon class="cls-11" points="49.948 21.323 47.311 22.845 49.934 24.368 52.57 22.847 49.948 21.323 49.948 21.323"/>
                  <polygon class="cls-14" points="47.329 19.801 44.692 21.323 47.311 22.845 49.948 21.323 47.329 19.801 47.329 19.801"/>
                  <polygon class="cls-8" points="44.71 18.278 42.073 19.801 44.692 21.323 47.329 19.801 44.71 18.278 44.71 18.278"/>
                  <polygon class="cls-8" points="42.089 16.755 39.451 18.277 42.073 19.801 44.71 18.278 42.089 16.755 42.089 16.755"/>
                  <polygon class="cls-12" points="39.47 15.233 36.831 16.755 39.451 18.277 42.089 16.755 39.47 15.233 39.47 15.233"/>
                  <polygon class="cls-12" points="36.847 13.709 34.21 15.231 36.831 16.755 39.47 15.233 36.847 13.709 36.847 13.709"/>
                  <polygon class="cls-14" points="34.226 12.186 31.589 13.707 34.21 15.231 36.847 13.709 34.226 12.186 34.226 12.186"/>
                  <polygon class="cls-11" points="31.604 10.662 28.968 12.185 31.589 13.707 34.226 12.186 31.604 10.662 31.604 10.662"/>
                  <polygon class="cls-11" points="28.983 9.139 26.346 10.661 28.968 12.185 31.604 10.662 28.983 9.139 28.983 9.139"/>
                  <polygon class="cls-15" points="26.362 7.616 23.726 9.139 26.346 10.661 28.983 9.139 26.362 7.616 26.362 7.616"/>
                  <polygon class="cls-11" points="23.742 6.093 21.105 7.616 23.726 9.139 26.362 7.616 23.742 6.093 23.742 6.093"/>
                  <polygon class="cls-20" points="52.554 25.892 49.917 27.416 52.538 28.939 55.176 27.416 52.554 25.892 52.554 25.892"/>
                  <polygon class="cls-14" points="49.934 24.368 47.294 25.892 49.917 27.416 52.554 25.892 49.934 24.368 49.934 24.368"/>
                  <polygon class="cls-15" points="47.311 22.845 44.674 24.368 47.294 25.892 49.934 24.368 47.311 22.845 47.311 22.845"/>
                  <polygon class="cls-14" points="44.692 21.323 42.053 22.847 44.674 24.368 47.311 22.845 44.692 21.323 44.692 21.323"/>
                  <polygon class="cls-14" points="42.073 19.801 39.435 21.324 42.053 22.847 44.692 21.323 42.073 19.801 42.073 19.801"/>
                  <polygon class="cls-11" points="39.451 18.277 36.814 19.801 39.435 21.324 42.073 19.801 39.451 18.277 39.451 18.277"/>
                  <polygon class="cls-11" points="36.831 16.755 34.193 18.278 36.814 19.801 39.451 18.277 36.831 16.755 36.831 16.755"/>
                  <polygon class="cls-8" points="34.21 15.231 31.571 16.754 34.193 18.278 36.831 16.755 34.21 15.231 34.21 15.231"/>
                  <polygon class="cls-11" points="31.589 13.707 28.95 15.231 31.571 16.754 34.21 15.231 31.589 13.707 31.589 13.707"/>
                  <polygon class="cls-11" points="28.968 12.185 26.329 13.707 28.95 15.231 31.589 13.707 28.968 12.185 28.968 12.185"/>
                  <polygon class="cls-15" points="26.346 10.661 23.707 12.185 26.329 13.707 28.968 12.185 26.346 10.661 26.346 10.661"/>
                  <polygon class="cls-8" points="23.726 9.139 21.087 10.662 23.707 12.185 26.346 10.661 23.726 9.139 23.726 9.139"/>
                  <polygon class="cls-16" points="21.105 7.616 18.467 9.139 21.087 10.662 23.726 9.139 21.105 7.616 21.105 7.616"/>
                  <polygon class="cls-14" points="49.917 27.416 47.276 28.939 49.899 30.462 52.538 28.939 49.917 27.416 49.917 27.416"/>
                  <polygon class="cls-15" points="47.294 25.892 44.655 27.416 47.276 28.939 49.917 27.416 47.294 25.892 47.294 25.892"/>
                  <polygon class="cls-11" points="44.674 24.368 42.034 25.892 44.655 27.416 47.294 25.892 44.674 24.368 44.674 24.368"/>
                  <polygon class="cls-8" points="42.053 22.847 39.417 24.37 42.034 25.892 44.674 24.368 42.053 22.847 42.053 22.847"/>
                  <polygon class="cls-20" points="39.435 21.324 36.796 22.848 39.417 24.37 42.053 22.847 39.435 21.324 39.435 21.324"/>
                  <polygon class="cls-11" points="36.814 19.801 34.174 21.324 36.796 22.848 39.435 21.324 36.814 19.801 36.814 19.801"/>
                  <polygon class="cls-15" points="34.193 18.278 31.554 19.801 34.174 21.324 36.814 19.801 34.193 18.278 34.193 18.278"/>
                  <polygon class="cls-11" points="31.571 16.754 28.933 18.278 31.554 19.801 34.193 18.278 31.571 16.754 31.571 16.754"/>
                  <polygon class="cls-11" points="28.95 15.231 26.311 16.754 28.933 18.278 31.571 16.754 28.95 15.231 28.95 15.231"/>
                  <polygon class="cls-11" points="26.329 13.707 23.69 15.231 26.311 16.754 28.95 15.231 26.329 13.707 26.329 13.707"/>
                  <polygon class="cls-15" points="23.707 12.185 21.069 13.707 23.69 15.231 26.329 13.707 23.707 12.185 23.707 12.185"/>
                  <polygon class="cls-16" points="21.087 10.662 18.448 12.186 21.069 13.707 23.707 12.185 21.087 10.662 21.087 10.662"/>
                  <polygon class="cls-10" points="18.467 9.139 15.828 10.663 18.448 12.186 21.087 10.662 18.467 9.139 18.467 9.139"/>
                  <polygon class="cls-8" points="47.276 28.939 44.64 30.462 47.261 31.985 49.899 30.462 47.276 28.939 47.276 28.939"/>
                  <polygon class="cls-11" points="44.655 27.416 42.018 28.939 44.64 30.462 47.276 28.939 44.655 27.416 44.655 27.416"/>
                  <polygon class="cls-8" points="42.034 25.892 39.396 27.416 42.018 28.939 44.655 27.416 42.034 25.892 42.034 25.892"/>
                  <polygon class="cls-12" points="39.417 24.37 36.778 25.894 39.396 27.416 42.034 25.892 39.417 24.37 39.417 24.37"/>
                  <polygon class="cls-11" points="36.796 22.848 34.157 24.371 36.778 25.894 39.417 24.37 36.796 22.848 36.796 22.848"/>
                  <polygon class="cls-14" points="34.174 21.324 31.536 22.848 34.157 24.371 36.796 22.848 34.174 21.324 34.174 21.324"/>
                  <polygon class="cls-11" points="31.554 19.801 28.916 21.325 31.536 22.848 34.174 21.324 31.554 19.801 31.554 19.801"/>
                  <polygon class="cls-8" points="28.933 18.278 26.294 19.801 28.916 21.325 31.554 19.801 28.933 18.278 28.933 18.278"/>
                  <polygon class="cls-20" points="26.311 16.754 23.673 18.278 26.294 19.801 28.933 18.278 26.311 16.754 26.311 16.754"/>
                  <polygon class="cls-11" points="23.69 15.231 21.052 16.754 23.673 18.278 26.311 16.754 23.69 15.231 23.69 15.231"/>
                  <polygon class="cls-11" points="21.069 13.707 18.43 15.231 21.052 16.754 23.69 15.231 21.069 13.707 21.069 13.707"/>
                  <polygon class="cls-12" points="18.448 12.186 15.809 13.709 18.43 15.231 21.069 13.707 18.448 12.186 18.448 12.186"/>
                  <polygon class="cls-11" points="15.828 10.663 13.19 12.186 15.809 13.709 18.448 12.186 15.828 10.663 15.828 10.663"/>
                  <polygon class="cls-15" points="44.64 30.462 42.002 31.985 44.624 33.508 47.261 31.985 44.64 30.462 44.64 30.462"/>
                  <polygon class="cls-14" points="42.018 28.939 39.381 30.462 42.002 31.985 44.64 30.462 42.018 28.939 42.018 28.939"/>
                  <polygon class="cls-11" points="39.396 27.416 36.758 28.938 39.381 30.462 42.018 28.939 39.396 27.416 39.396 27.416"/>
                  <polygon class="cls-8" points="36.778 25.894 34.141 27.416 36.758 28.938 39.396 27.416 36.778 25.894 36.778 25.894"/>
                  <polygon class="cls-14" points="34.157 24.371 31.52 25.894 34.141 27.416 36.778 25.894 34.157 24.371 34.157 24.371"/>
                  <polygon class="cls-11" points="31.536 22.848 28.899 24.37 31.52 25.894 34.157 24.371 31.536 22.848 31.536 22.848"/>
                  <polygon class="cls-11" points="28.916 21.325 26.279 22.848 28.899 24.37 31.536 22.848 28.916 21.325 28.916 21.325"/>
                  <polygon class="cls-15" points="26.294 19.801 23.658 21.324 26.279 22.848 28.916 21.325 26.294 19.801 26.294 19.801"/>
                  <polygon class="cls-11" points="23.673 18.278 21.036 19.801 23.658 21.324 26.294 19.801 23.673 18.278 23.673 18.278"/>
                  <polygon class="cls-11" points="21.052 16.754 18.414 18.277 21.036 19.801 23.673 18.278 21.052 16.754 21.052 16.754"/>
                  <polygon class="cls-14" points="18.43 15.231 15.792 16.754 18.414 18.277 21.052 16.754 18.43 15.231 18.43 15.231"/>
                  <polygon class="cls-8" points="15.809 13.709 13.172 15.231 15.792 16.754 18.43 15.231 15.809 13.709 15.809 13.709"/>
                  <polygon class="cls-8" points="13.19 12.186 10.552 13.709 13.172 15.231 15.809 13.709 13.19 12.186 13.19 12.186"/>
                  <polygon class="cls-20" points="42.002 31.985 39.364 33.508 41.986 35.032 44.624 33.508 42.002 31.985 42.002 31.985"/>
                  <polygon class="cls-11" points="39.381 30.462 36.744 31.984 39.364 33.508 42.002 31.985 39.381 30.462 39.381 30.462"/>
                  <polygon class="cls-11" points="36.758 28.938 34.122 30.461 36.744 31.984 39.381 30.462 36.758 28.938 36.758 28.938"/>
                  <polygon class="cls-11" points="34.141 27.416 31.503 28.939 34.122 30.461 36.758 28.938 34.141 27.416 34.141 27.416"/>
                  <polygon class="cls-11" points="31.52 25.894 28.883 27.416 31.503 28.939 34.141 27.416 31.52 25.894 31.52 25.894"/>
                  <polygon class="cls-11" points="28.899 24.37 26.261 25.892 28.883 27.416 31.52 25.894 28.899 24.37 28.899 24.37"/>
                  <polygon class="cls-15" points="26.279 22.848 23.642 24.37 26.261 25.892 28.899 24.37 26.279 22.848 26.279 22.848"/>
                  <polygon class="cls-12" points="23.658 21.324 21.019 22.847 23.642 24.37 26.279 22.848 23.658 21.324 23.658 21.324"/>
                  <polygon class="cls-11" points="21.036 19.801 18.398 21.323 21.019 22.847 23.658 21.324 21.036 19.801 21.036 19.801"/>
                  <polygon class="cls-15" points="18.414 18.277 15.777 19.8 18.398 21.323 21.036 19.801 18.414 18.277 18.414 18.277"/>
                  <polygon class="cls-8" points="15.792 16.754 13.155 18.277 15.777 19.8 18.414 18.277 15.792 16.754 15.792 16.754"/>
                  <polygon class="cls-16" points="13.172 15.231 10.535 16.754 13.155 18.277 15.792 16.754 13.172 15.231 13.172 15.231"/>
                  <polygon class="cls-14" points="10.552 13.709 7.916 15.231 10.535 16.754 13.172 15.231 10.552 13.709 10.552 13.709"/>
                  <polygon class="cls-15" points="39.364 33.508 36.727 35.03 39.349 36.553 41.986 35.032 39.364 33.508 39.364 33.508"/>
                  <polygon class="cls-11" points="36.744 31.984 34.105 33.506 36.727 35.03 39.364 33.508 36.744 31.984 36.744 31.984"/>
                  <polygon class="cls-15" points="34.122 30.461 31.484 31.983 34.105 33.506 36.744 31.984 34.122 30.461 34.122 30.461"/>
                  <polygon class="cls-8" points="31.503 28.939 28.866 30.462 31.484 31.983 34.122 30.461 31.503 28.939 31.503 28.939"/>
                  <polygon class="cls-14" points="28.883 27.416 26.245 28.939 28.866 30.462 31.503 28.939 28.883 27.416 28.883 27.416"/>
                  <polygon class="cls-15" points="26.261 25.892 23.624 27.416 26.245 28.939 28.883 27.416 26.261 25.892 26.261 25.892"/>
                  <polygon class="cls-11" points="23.642 24.37 21.004 25.892 23.624 27.416 26.261 25.892 23.642 24.37 23.642 24.37"/>
                  <polygon class="cls-14" points="21.019 22.847 18.383 24.369 21.004 25.892 23.642 24.37 21.019 22.847 21.019 22.847"/>
                  <polygon class="cls-14" points="18.398 21.323 15.761 22.846 18.383 24.369 21.019 22.847 18.398 21.323 18.398 21.323"/>
                  <polygon class="cls-14" points="15.777 19.8 13.14 21.322 15.761 22.846 18.398 21.323 15.777 19.8 15.777 19.8"/>
                  <polygon class="cls-11" points="13.155 18.277 10.518 19.799 13.14 21.322 15.777 19.8 13.155 18.277 13.155 18.277"/>
                  <polygon class="cls-8" points="10.535 16.754 7.898 18.277 10.518 19.799 13.155 18.277 10.535 16.754 10.535 16.754"/>
                  <polygon class="cls-11" points="7.916 15.231 5.278 16.754 7.898 18.277 10.535 16.754 7.916 15.231 7.916 15.231"/>
                  <polygon class="cls-14" points="36.727 35.03 34.088 36.553 36.709 38.077 39.349 36.553 36.727 35.03 36.727 35.03"/>
                  <polygon class="cls-15" points="34.105 33.506 31.467 35.03 34.088 36.553 36.727 35.03 34.105 33.506 34.105 33.506"/>
                  <polygon class="cls-12" points="31.484 31.983 28.846 33.506 31.467 35.03 34.105 33.506 31.484 31.983 31.484 31.983"/>
                  <polygon class="cls-12" points="28.866 30.462 26.227 31.985 28.846 33.506 31.484 31.983 28.866 30.462 28.866 30.462"/>
                  <polygon class="cls-8" points="26.245 28.939 23.606 30.462 26.227 31.985 28.866 30.462 26.245 28.939 26.245 28.939"/>
                  <polygon class="cls-10" points="23.624 27.416 20.985 28.939 23.606 30.462 26.245 28.939 23.624 27.416 23.624 27.416"/>
                  <polygon class="cls-8" points="21.004 25.892 18.366 27.416 20.985 28.939 23.624 27.416 21.004 25.892 21.004 25.892"/>
                  <polygon class="cls-14" points="18.383 24.369 15.744 25.892 18.366 27.416 21.004 25.892 18.383 24.369 18.383 24.369"/>
                  <polygon class="cls-14" points="15.761 22.846 13.123 24.369 15.744 25.892 18.383 24.369 15.761 22.846 15.761 22.846"/>
                  <polygon class="cls-11" points="13.14 21.322 10.501 22.846 13.123 24.369 15.761 22.846 13.14 21.322 13.14 21.322"/>
                  <polygon class="cls-11" points="10.518 19.799 7.88 21.322 10.501 22.846 13.14 21.322 10.518 19.799 10.518 19.799"/>
                  <polygon class="cls-12" points="7.898 18.277 5.26 19.8 7.88 21.322 10.518 19.799 7.898 18.277 7.898 18.277"/>
                  <polygon class="cls-8" points="5.278 16.754 2.64 18.277 5.26 19.8 7.898 18.277 5.278 16.754 5.278 16.754"/>
                  <polygon class="cls-15" points="34.088 36.553 31.451 38.076 34.073 39.6 36.709 38.077 34.088 36.553 34.088 36.553"/>
                  <polygon class="cls-11" points="31.467 35.03 28.83 36.553 31.451 38.076 34.088 36.553 31.467 35.03 31.467 35.03"/>
                  <polygon class="cls-15" points="28.846 33.506 26.208 35.029 28.83 36.553 31.467 35.03 28.846 33.506 28.846 33.506"/>
                  <polygon class="cls-8" points="26.227 31.985 23.59 33.507 26.208 35.029 28.846 33.506 26.227 31.985 26.227 31.985"/>
                  <polygon class="cls-11" points="23.606 30.462 20.97 31.985 23.59 33.507 26.227 31.985 23.606 30.462 23.606 30.462"/>
                  <polygon class="cls-11" points="20.985 28.939 18.349 30.462 20.97 31.985 23.606 30.462 20.985 28.939 20.985 28.939"/>
                  <polygon class="cls-11" points="18.366 27.416 15.728 28.939 18.349 30.462 20.985 28.939 18.366 27.416 18.366 27.416"/>
                  <polygon class="cls-8" points="15.744 25.892 13.107 27.416 15.728 28.939 18.366 27.416 15.744 25.892 15.744 25.892"/>
                  <polygon class="cls-14" points="13.123 24.369 10.486 25.892 13.107 27.416 15.744 25.892 13.123 24.369 13.123 24.369"/>
                  <polygon class="cls-11" points="10.501 22.846 7.864 24.368 10.486 25.892 13.123 24.369 10.501 22.846 10.501 22.846"/>
                  <polygon class="cls-15" points="7.88 21.322 5.242 22.845 7.864 24.368 10.501 22.846 7.88 21.322 7.88 21.322"/>
                  <polygon class="cls-8" points="5.26 19.8 2.622 21.322 5.242 22.845 7.88 21.322 5.26 19.8 5.26 19.8"/>
                  <polygon class="cls-11" points="2.64 18.277 0.002 19.8 2.622 21.322 5.26 19.8 2.64 18.277 2.64 18.277"/>
                </g>
              </g>
            </g>
          </g>
          <g>
            <polygon class="cls-21" points="68.366 19.801 68.478 59.209 34.183 79.008 34.072 39.6 68.366 19.801"/>
            <polygon class="cls-22" points="34.183 79.008 0.112 59.209 0 19.8 34.072 39.6 34.183 79.008"/>
            <polygon class="cls-23" points="34.072 39.6 0 19.8 34.294 0.001 68.366 19.801 34.072 39.6"/>
          </g>
        </g>
      </g>
    </g>
  </g>
</svg>
