<svg xmlns="http://www.w3.org/2000/svg" xmlns:xlink="http://www.w3.org/1999/xlink" viewBox="0 0 68.4805 79.0083">
  <defs>
    <style>
      .cls-1 {
        fill: #323232;
      }

      .cls-2 {
        fill: #454545;
      }

      .cls-3 {
        fill: #575757;
      }

      .cls-4 {
        isolation: isolate;
      }

      .cls-5 {
        clip-path: url(#clip-path);
      }

      .cls-6 {
        fill: #eed05b;
      }

      .cls-7 {
        fill: #fcdd61;
      }

      .cls-8 {
        fill: #e8c84e;
      }

      .cls-9 {
        fill: #deb82f;
      }

      .cls-10 {
        fill: #4e750f;
      }

      .cls-11, .cls-22 {
        fill: #77b119;
      }

      .cls-12 {
        fill: #c49a02;
      }

      .cls-13 {
        fill: #649512;
      }

      .cls-14 {
        fill: #45670c;
      }

      .cls-15 {
        fill: #3c560a;
      }

      .cls-16 {
        clip-path: url(#clip-path-2);
      }

      .cls-17 {
        clip-path: url(#clip-path-3);
      }

      .cls-18, .cls-22 {
        opacity: 0.6;
        mix-blend-mode: multiply;
      }

      .cls-18 {
        fill: url(#linear-gradient);
      }

      .cls-19 {
        fill: #616161;
        opacity: 0.1;
      }

      .cls-19, .cls-20 {
        mix-blend-mode: color-dodge;
      }

      .cls-20 {
        opacity: 0.3;
        fill: url(#linear-gradient-2);
      }

      .cls-21 {
        fill: #7fbb39;
        mix-blend-mode: color;
      }
    </style>
    <clipPath id="clip-path" transform="translate(0.001 0.00048)">
      <polygon class="cls-1" points="68.369 19.8 68.48 59.209 34.184 79.008 34.072 39.601 68.369 19.8"/>
    </clipPath>
    <clipPath id="clip-path-2" transform="translate(0.001 0.00048)">
      <polygon class="cls-2" points="34.184 79.008 0.113 59.209 0 19.8 34.072 39.601 34.184 79.008"/>
    </clipPath>
    <clipPath id="clip-path-3" transform="translate(0.001 0.00048)">
      <polygon class="cls-3" points="34.072 39.601 0 19.8 34.295 0 68.369 19.8 34.072 39.601"/>
    </clipPath>
    <linearGradient id="linear-gradient" x1="13.75838" y1="29.58045" x2="67.69243" y2="58.07971" gradientUnits="userSpaceOnUse">
      <stop offset="0" stop-color="#fff"/>
      <stop offset="1" stop-color="#650"/>
    </linearGradient>
    <linearGradient id="linear-gradient-2" x1="-20.42971" y1="-34.81251" x2="133.49713" y2="119.11433" gradientUnits="userSpaceOnUse">
      <stop offset="0" stop-color="#86c97a"/>
      <stop offset="1"/>
    </linearGradient>
  </defs>
  <g class="cls-4">
    <g id="Layer_2" data-name="Layer 2">
      <g id="Layer_1-2" data-name="Layer 1">
        <g id="_3" data-name="3">
          <g id="_1-2" data-name="1-2">
            <g class="cls-4">
              <g class="cls-4">
                <polygon class="cls-1" points="68.37 19.801 68.481 59.209 34.185 79.008 34.073 39.601 68.37 19.801"/>
                <g class="cls-5">
                  <g>
                    <polygon class="cls-6" points="68.473 56.176 65.833 57.699 65.841 60.731 68.481 59.209 68.473 56.176 68.473 56.176"/>
                    <polygon class="cls-6" points="68.463 53.146 65.825 54.669 65.833 57.699 68.473 56.176 68.463 53.146 68.463 53.146"/>
                    <polygon class="cls-7" points="68.454 50.114 65.816 51.636 65.825 54.669 68.463 53.146 68.454 50.114 68.454 50.114"/>
                    <polygon class="cls-8" points="68.446 47.083 65.807 48.607 65.816 51.636 68.454 50.114 68.446 47.083 68.446 47.083"/>
                    <polygon class="cls-9" points="68.437 44.052 65.799 45.575 65.807 48.607 68.446 47.083 68.437 44.052 68.437 44.052"/>
                    <polygon class="cls-8" points="68.429 41.021 65.791 42.544 65.799 45.575 68.437 44.052 68.429 41.021 68.429 41.021"/>
                    <polygon class="cls-7" points="68.42 37.989 65.781 39.513 65.791 42.544 68.429 41.021 68.42 37.989 68.42 37.989"/>
                    <polygon class="cls-6" points="68.411 34.958 65.773 36.48 65.781 39.513 68.42 37.989 68.411 34.958 68.411 34.958"/>
                    <polygon class="cls-6" points="68.403 31.926 65.765 33.45 65.773 36.48 68.411 34.958 68.403 31.926 68.403 31.926"/>
                    <polygon class="cls-7" points="68.395 28.895 65.755 30.418 65.765 33.45 68.403 31.926 68.395 28.895 68.395 28.895"/>
                    <polygon class="cls-9" points="68.387 25.863 65.747 27.386 65.755 30.418 68.395 28.895 68.387 25.863 68.387 25.863"/>
                    <polygon class="cls-10" points="68.376 22.831 65.738 24.354 65.747 27.386 68.387 25.863 68.376 22.831 68.376 22.831"/>
                    <polygon class="cls-11" points="68.368 19.802 65.73 21.325 65.738 24.354 68.376 22.831 68.368 19.802 68.368 19.802"/>
                    <polygon class="cls-6" points="65.833 57.699 63.196 59.222 63.204 62.254 65.841 60.731 65.833 57.699 65.833 57.699"/>
                    <polygon class="cls-8" points="65.825 54.669 63.187 56.191 63.196 59.222 65.833 57.699 65.825 54.669 65.825 54.669"/>
                    <polygon class="cls-7" points="65.816 51.636 63.18 53.16 63.187 56.191 65.825 54.669 65.816 51.636 65.816 51.636"/>
                    <polygon class="cls-8" points="65.807 48.607 63.17 50.129 63.18 53.16 65.816 51.636 65.807 48.607 65.807 48.607"/>
                    <polygon class="cls-6" points="65.799 45.575 63.161 47.097 63.17 50.129 65.807 48.607 65.799 45.575 65.799 45.575"/>
                    <polygon class="cls-8" points="65.791 42.544 63.153 44.067 63.161 47.097 65.799 45.575 65.791 42.544 65.791 42.544"/>
                    <polygon class="cls-7" points="65.781 39.513 63.145 41.035 63.153 44.067 65.791 42.544 65.781 39.513 65.781 39.513"/>
                    <polygon class="cls-8" points="65.773 36.48 63.137 38.003 63.145 41.035 65.781 39.513 65.773 36.48 65.773 36.48"/>
                    <polygon class="cls-9" points="65.765 33.45 63.126 34.972 63.137 38.003 65.773 36.48 65.765 33.45 65.765 33.45"/>
                    <polygon class="cls-6" points="65.755 30.418 63.118 31.94 63.126 34.972 65.765 33.45 65.755 30.418 65.755 30.418"/>
                    <polygon class="cls-12" points="65.747 27.386 63.109 28.909 63.118 31.94 65.755 30.418 65.747 27.386 65.747 27.386"/>
                    <polygon class="cls-13" points="65.738 24.354 63.101 25.876 63.109 28.909 65.747 27.386 65.738 24.354 65.738 24.354"/>
                    <polygon class="cls-14" points="65.73 21.325 63.093 22.848 63.101 25.876 65.738 24.354 65.73 21.325 65.73 21.325"/>
                    <polygon class="cls-7" points="63.196 59.222 60.56 60.745 60.567 63.776 63.204 62.254 63.196 59.222 63.196 59.222"/>
                    <polygon class="cls-8" points="63.187 56.191 60.55 57.713 60.56 60.745 63.196 59.222 63.187 56.191 63.187 56.191"/>
                    <polygon class="cls-6" points="63.18 53.16 60.542 54.682 60.55 57.713 63.187 56.191 63.18 53.16 63.18 53.16"/>
                    <polygon class="cls-7" points="63.17 50.129 60.533 51.651 60.542 54.682 63.18 53.16 63.17 50.129 63.17 50.129"/>
                    <polygon class="cls-7" points="63.161 47.097 60.524 48.62 60.533 51.651 63.17 50.129 63.161 47.097 63.161 47.097"/>
                    <polygon class="cls-6" points="63.153 44.067 60.517 45.589 60.524 48.62 63.161 47.097 63.153 44.067 63.153 44.067"/>
                    <polygon class="cls-7" points="63.145 41.035 60.508 42.558 60.517 45.589 63.153 44.067 63.145 41.035 63.145 41.035"/>
                    <polygon class="cls-7" points="63.137 38.003 60.498 39.525 60.508 42.558 63.145 41.035 63.137 38.003 63.137 38.003"/>
                    <polygon class="cls-7" points="63.126 34.972 60.489 36.495 60.498 39.525 63.137 38.003 63.126 34.972 63.126 34.972"/>
                    <polygon class="cls-9" points="63.118 31.94 60.481 33.463 60.489 36.495 63.126 34.972 63.118 31.94 63.118 31.94"/>
                    <polygon class="cls-15" points="63.109 28.909 60.473 30.431 60.481 33.463 63.118 31.94 63.109 28.909 63.109 28.909"/>
                    <polygon class="cls-10" points="63.101 25.876 60.465 27.399 60.473 30.431 63.109 28.909 63.101 25.876 63.101 25.876"/>
                    <polygon class="cls-13" points="63.093 22.848 60.455 24.371 60.465 27.399 63.101 25.876 63.093 22.848 63.093 22.848"/>
                    <polygon class="cls-7" points="60.56 60.745 57.92 62.269 57.928 65.3 60.567 63.776 60.56 60.745 60.56 60.745"/>
                    <polygon class="cls-8" points="60.55 57.713 57.912 59.237 57.92 62.269 60.56 60.745 60.55 57.713 60.55 57.713"/>
                    <polygon class="cls-6" points="60.542 54.682 57.904 56.206 57.912 59.237 60.55 57.713 60.542 54.682 60.542 54.682"/>
                    <polygon class="cls-8" points="60.533 51.651 57.894 53.175 57.904 56.206 60.542 54.682 60.533 51.651 60.533 51.651"/>
                    <polygon class="cls-7" points="60.524 48.62 57.887 50.144 57.894 53.175 60.533 51.651 60.524 48.62 60.524 48.62"/>
                    <polygon class="cls-8" points="60.517 45.589 57.876 47.113 57.887 50.144 60.524 48.62 60.517 45.589 60.517 45.589"/>
                    <polygon class="cls-6" points="60.508 42.558 57.868 44.081 57.876 47.113 60.517 45.589 60.508 42.558 60.508 42.558"/>
                    <polygon class="cls-7" points="60.498 39.525 57.859 41.049 57.868 44.081 60.508 42.558 60.498 39.525 60.498 39.525"/>
                    <polygon class="cls-8" points="60.489 36.495 57.851 38.019 57.859 41.049 60.498 39.525 60.489 36.495 60.489 36.495"/>
                    <polygon class="cls-9" points="60.481 33.463 57.843 34.986 57.851 38.019 60.489 36.495 60.481 33.463 60.481 33.463"/>
                    <polygon class="cls-10" points="60.473 30.431 57.834 31.955 57.843 34.986 60.481 33.463 60.473 30.431 60.473 30.431"/>
                    <polygon class="cls-11" points="60.465 27.399 57.825 28.922 57.834 31.955 60.473 30.431 60.465 27.399 60.465 27.399"/>
                    <polygon class="cls-11" points="60.455 24.371 57.816 25.895 57.825 28.922 60.465 27.399 60.455 24.371 60.455 24.371"/>
                    <polygon class="cls-7" points="57.92 62.269 55.282 63.791 55.29 66.824 57.928 65.3 57.92 62.269 57.92 62.269"/>
                    <polygon class="cls-8" points="57.912 59.237 55.273 60.761 55.282 63.791 57.92 62.269 57.912 59.237 57.912 59.237"/>
                    <polygon class="cls-8" points="57.904 56.206 55.264 57.729 55.273 60.761 57.912 59.237 57.904 56.206 57.904 56.206"/>
                    <polygon class="cls-9" points="57.894 53.175 55.256 54.699 55.264 57.729 57.904 56.206 57.894 53.175 57.894 53.175"/>
                    <polygon class="cls-6" points="57.887 50.144 55.246 51.667 55.256 54.699 57.894 53.175 57.887 50.144 57.887 50.144"/>
                    <polygon class="cls-8" points="57.876 47.113 55.238 48.636 55.246 51.667 57.887 50.144 57.876 47.113 57.876 47.113"/>
                    <polygon class="cls-8" points="57.868 44.081 55.231 45.604 55.238 48.636 57.876 47.113 57.868 44.081 57.868 44.081"/>
                    <polygon class="cls-6" points="57.859 41.049 55.222 42.573 55.231 45.604 57.868 44.081 57.859 41.049 57.859 41.049"/>
                    <polygon class="cls-8" points="57.851 38.019 55.213 39.541 55.222 42.573 57.859 41.049 57.851 38.019 57.851 38.019"/>
                    <polygon class="cls-7" points="57.843 34.986 55.204 36.51 55.213 39.541 57.851 38.019 57.843 34.986 57.843 34.986"/>
                    <polygon class="cls-6" points="57.834 31.955 55.195 33.478 55.204 36.51 57.843 34.986 57.834 31.955 57.834 31.955"/>
                    <polygon class="cls-12" points="57.825 28.922 55.187 30.446 55.195 33.478 57.834 31.955 57.825 28.922 57.825 28.922"/>
                    <polygon class="cls-15" points="57.816 25.895 55.18 27.417 55.187 30.446 57.825 28.922 57.816 25.895 57.816 25.895"/>
                    <polygon class="cls-6" points="55.282 63.791 52.642 65.314 52.65 68.346 55.29 66.824 55.282 63.791 55.282 63.791"/>
                    <polygon class="cls-8" points="55.273 60.761 52.634 62.285 52.642 65.314 55.282 63.791 55.273 60.761 55.273 60.761"/>
                    <polygon class="cls-7" points="55.264 57.729 52.626 59.252 52.634 62.285 55.273 60.761 55.264 57.729 55.264 57.729"/>
                    <polygon class="cls-8" points="55.256 54.699 52.617 56.222 52.626 59.252 55.264 57.729 55.256 54.699 55.256 54.699"/>
                    <polygon class="cls-8" points="55.246 51.667 52.608 53.189 52.617 56.222 55.256 54.699 55.246 51.667 55.246 51.667"/>
                    <polygon class="cls-9" points="55.238 48.636 52.601 50.159 52.608 53.189 55.246 51.667 55.238 48.636 55.238 48.636"/>
                    <polygon class="cls-6" points="55.231 45.604 52.591 47.127 52.601 50.159 55.238 48.636 55.231 45.604 55.231 45.604"/>
                    <polygon class="cls-8" points="55.222 42.573 52.583 44.096 52.591 47.127 55.231 45.604 55.222 42.573 55.222 42.573"/>
                    <polygon class="cls-6" points="55.213 39.541 52.574 41.065 52.583 44.096 55.222 42.573 55.213 39.541 55.213 39.541"/>
                    <polygon class="cls-6" points="55.204 36.51 52.565 38.033 52.574 41.065 55.213 39.541 55.204 36.51 55.204 36.51"/>
                    <polygon class="cls-9" points="55.195 33.478 52.558 35.001 52.565 38.033 55.204 36.51 55.195 33.478 55.195 33.478"/>
                    <polygon class="cls-14" points="55.187 30.446 52.55 31.969 52.558 35.001 55.195 33.478 55.187 30.446 55.187 30.446"/>
                    <polygon class="cls-10" points="55.18 27.417 52.539 28.941 52.55 31.969 55.187 30.446 55.18 27.417 55.18 27.417"/>
                    <polygon class="cls-6" points="52.642 65.314 50.005 66.837 50.014 69.869 52.65 68.346 52.642 65.314 52.642 65.314"/>
                    <polygon class="cls-7" points="52.634 62.285 49.997 63.807 50.005 66.837 52.642 65.314 52.634 62.285 52.634 62.285"/>
                    <polygon class="cls-7" points="52.626 59.252 49.988 60.775 49.997 63.807 52.634 62.285 52.626 59.252 52.626 59.252"/>
                    <polygon class="cls-8" points="52.617 56.222 49.981 57.745 49.988 60.775 52.626 59.252 52.617 56.222 52.617 56.222"/>
                    <polygon class="cls-7" points="52.608 53.189 49.973 54.713 49.981 57.745 52.617 56.222 52.608 53.189 52.608 53.189"/>
                    <polygon class="cls-8" points="52.601 50.159 49.963 51.683 49.973 54.713 52.608 53.189 52.601 50.159 52.601 50.159"/>
                    <polygon class="cls-7" points="52.591 47.127 49.954 48.651 49.963 51.683 52.601 50.159 52.591 47.127 52.591 47.127"/>
                    <polygon class="cls-7" points="52.583 44.096 49.946 45.619 49.954 48.651 52.591 47.127 52.583 44.096 52.583 44.096"/>
                    <polygon class="cls-7" points="52.574 41.065 49.937 42.588 49.946 45.619 52.583 44.096 52.574 41.065 52.574 41.065"/>
                    <polygon class="cls-9" points="52.565 38.033 49.929 39.556 49.937 42.588 52.574 41.065 52.565 38.033 52.565 38.033"/>
                    <polygon class="cls-15" points="52.558 35.001 49.921 36.524 49.929 39.556 52.565 38.033 52.558 35.001 52.558 35.001"/>
                    <polygon class="cls-10" points="52.55 31.969 49.91 33.492 49.921 36.524 52.558 35.001 52.55 31.969 52.55 31.969"/>
                    <polygon class="cls-13" points="52.539 28.941 49.902 30.463 49.91 33.492 52.55 31.969 52.539 28.941 52.539 28.941"/>
                    <polygon class="cls-9" points="50.005 66.837 47.367 68.36 47.376 71.394 50.014 69.869 50.005 66.837 50.005 66.837"/>
                    <polygon class="cls-6" points="49.997 63.807 47.358 65.332 47.367 68.36 50.005 66.837 49.997 63.807 49.997 63.807"/>
                    <polygon class="cls-7" points="49.988 60.775 47.351 62.298 47.358 65.332 49.997 63.807 49.988 60.775 49.988 60.775"/>
                    <polygon class="cls-6" points="49.981 57.745 47.342 59.269 47.351 62.298 49.988 60.775 49.981 57.745 49.981 57.745"/>
                    <polygon class="cls-6" points="49.973 54.713 47.332 56.237 47.342 59.269 49.981 57.745 49.973 54.713 49.973 54.713"/>
                    <polygon class="cls-8" points="49.963 51.683 47.324 53.206 47.332 56.237 49.973 54.713 49.963 51.683 49.963 51.683"/>
                    <polygon class="cls-7" points="49.954 48.651 47.315 50.174 47.324 53.206 49.963 51.683 49.954 48.651 49.954 48.651"/>
                    <polygon class="cls-6" points="49.946 45.619 47.308 47.141 47.315 50.174 49.954 48.651 49.946 45.619 49.946 45.619"/>
                    <polygon class="cls-6" points="49.937 42.588 47.3 44.111 47.308 47.141 49.946 45.619 49.937 42.588 49.937 42.588"/>
                    <polygon class="cls-9" points="49.929 39.556 47.289 41.08 47.3 44.111 49.937 42.588 49.929 39.556 49.929 39.556"/>
                    <polygon class="cls-10" points="49.921 36.524 47.28 38.047 47.289 41.08 49.929 39.556 49.921 36.524 49.921 36.524"/>
                    <polygon class="cls-11" points="49.91 33.492 47.272 35.015 47.28 38.047 49.921 36.524 49.91 33.492 49.91 33.492"/>
                    <polygon class="cls-11" points="49.902 30.463 47.264 31.986 47.272 35.015 49.91 33.492 49.902 30.463 49.902 30.463"/>
                    <polygon class="cls-7" points="47.367 68.36 44.729 69.884 44.738 72.916 47.376 71.394 47.367 68.36 47.367 68.36"/>
                    <polygon class="cls-7" points="47.358 65.332 44.72 66.854 44.729 69.884 47.367 68.36 47.358 65.332 47.358 65.332"/>
                    <polygon class="cls-6" points="47.351 62.298 44.712 63.821 44.72 66.854 47.358 65.332 47.351 62.298 47.351 62.298"/>
                    <polygon class="cls-8" points="47.342 59.269 44.703 60.792 44.712 63.821 47.351 62.298 47.342 59.269 47.342 59.269"/>
                    <polygon class="cls-7" points="47.332 56.237 44.695 57.759 44.703 60.792 47.342 59.269 47.332 56.237 47.332 56.237"/>
                    <polygon class="cls-8" points="47.324 53.206 44.686 54.729 44.695 57.759 47.332 56.237 47.324 53.206 47.324 53.206"/>
                    <polygon class="cls-6" points="47.315 50.174 44.677 51.697 44.686 54.729 47.324 53.206 47.315 50.174 47.315 50.174"/>
                    <polygon class="cls-7" points="47.308 47.141 44.668 48.666 44.677 51.697 47.315 50.174 47.308 47.141 47.308 47.141"/>
                    <polygon class="cls-8" points="47.3 44.111 44.659 45.635 44.668 48.666 47.308 47.141 47.3 44.111 47.3 44.111"/>
                    <polygon class="cls-6" points="47.289 41.08 44.65 42.603 44.659 45.635 47.3 44.111 47.289 41.08 47.289 41.08"/>
                    <polygon class="cls-12" points="47.28 38.047 44.643 39.571 44.65 42.603 47.289 41.08 47.28 38.047 47.28 38.047"/>
                    <polygon class="cls-15" points="47.272 35.015 44.634 36.539 44.643 39.571 47.28 38.047 47.272 35.015 47.272 35.015"/>
                    <polygon class="cls-10" points="47.264 31.986 44.626 33.51 44.634 36.539 47.272 35.015 47.264 31.986 47.264 31.986"/>
                    <polygon class="cls-7" points="44.729 69.884 42.093 71.406 42.101 74.438 44.738 72.916 44.729 69.884 44.729 69.884"/>
                    <polygon class="cls-8" points="44.72 66.854 42.084 68.375 42.093 71.406 44.729 69.884 44.72 66.854 44.72 66.854"/>
                    <polygon class="cls-6" points="44.712 63.821 42.075 65.343 42.084 68.375 44.72 66.854 44.712 63.821 44.712 63.821"/>
                    <polygon class="cls-9" points="44.703 60.792 42.067 62.313 42.075 65.343 44.712 63.821 44.703 60.792 44.703 60.792"/>
                    <polygon class="cls-8" points="44.695 57.759 42.059 59.281 42.067 62.313 44.703 60.792 44.695 57.759 44.695 57.759"/>
                    <polygon class="cls-6" points="44.686 54.729 42.051 56.25 42.059 59.281 44.695 57.759 44.686 54.729 44.686 54.729"/>
                    <polygon class="cls-8" points="44.677 51.697 42.04 53.218 42.051 56.25 44.686 54.729 44.677 51.697 44.677 51.697"/>
                    <polygon class="cls-7" points="44.668 48.666 42.031 50.187 42.04 53.218 44.677 51.697 44.668 48.666 44.668 48.666"/>
                    <polygon class="cls-8" points="44.659 45.635 42.023 47.156 42.031 50.187 44.668 48.666 44.659 45.635 44.659 45.635"/>
                    <polygon class="cls-9" points="44.65 42.603 42.016 44.125 42.023 47.156 44.659 45.635 44.65 42.603 44.65 42.603"/>
                    <polygon class="cls-15" points="44.643 39.571 42.006 41.093 42.016 44.125 44.65 42.603 44.643 39.571 44.643 39.571"/>
                    <polygon class="cls-10" points="44.634 36.539 41.998 38.061 42.006 41.093 44.643 39.571 44.634 36.539 44.634 36.539"/>
                    <polygon class="cls-13" points="44.626 33.51 41.99 35.032 41.998 38.061 44.634 36.539 44.626 33.51 44.626 33.51"/>
                    <polygon class="cls-7" points="42.093 71.406 39.454 72.93 39.463 75.961 42.101 74.438 42.093 71.406 42.093 71.406"/>
                    <polygon class="cls-8" points="42.084 68.375 39.445 69.899 39.454 72.93 42.093 71.406 42.084 68.375 42.084 68.375"/>
                    <polygon class="cls-7" points="42.075 65.343 39.437 66.867 39.445 69.899 42.084 68.375 42.075 65.343 42.075 65.343"/>
                    <polygon class="cls-8" points="42.067 62.313 39.428 63.836 39.437 66.867 42.075 65.343 42.067 62.313 42.067 62.313"/>
                    <polygon class="cls-6" points="42.059 59.281 39.421 60.805 39.428 63.836 42.067 62.313 42.059 59.281 42.059 59.281"/>
                    <polygon class="cls-7" points="42.051 56.25 39.41 57.774 39.421 60.805 42.059 59.281 42.051 56.25 42.051 56.25"/>
                    <polygon class="cls-8" points="42.04 53.218 39.401 54.743 39.41 57.774 42.051 56.25 42.04 53.218 42.04 53.218"/>
                    <polygon class="cls-7" points="42.031 50.187 39.394 51.711 39.401 54.743 42.04 53.218 42.031 50.187 42.031 50.187"/>
                    <polygon class="cls-7" points="42.023 47.156 39.386 48.68 39.394 51.711 42.031 50.187 42.023 47.156 42.023 47.156"/>
                    <polygon class="cls-6" points="42.016 44.125 39.377 45.648 39.386 48.68 42.023 47.156 42.016 44.125 42.016 44.125"/>
                    <polygon class="cls-12" points="42.006 41.093 39.367 42.616 39.377 45.648 42.016 44.125 42.006 41.093 42.006 41.093"/>
                    <polygon class="cls-15" points="41.998 38.061 39.359 39.583 39.367 42.616 42.006 41.093 41.998 38.061 41.998 38.061"/>
                    <polygon class="cls-11" points="41.99 35.032 39.351 36.556 39.359 39.583 41.998 38.061 41.99 35.032 41.99 35.032"/>
                    <polygon class="cls-6" points="39.454 72.93 36.816 74.454 36.824 77.485 39.463 75.961 39.454 72.93 39.454 72.93"/>
                    <polygon class="cls-8" points="39.445 69.899 36.809 71.422 36.816 74.454 39.454 72.93 39.445 69.899 39.445 69.899"/>
                    <polygon class="cls-7" points="39.437 66.867 36.797 68.391 36.809 71.422 39.445 69.899 39.437 66.867 39.437 66.867"/>
                    <polygon class="cls-8" points="39.428 63.836 36.789 65.36 36.797 68.391 39.437 66.867 39.428 63.836 39.428 63.836"/>
                    <polygon class="cls-7" points="39.421 60.805 36.781 62.329 36.789 65.36 39.428 63.836 39.421 60.805 39.421 60.805"/>
                    <polygon class="cls-7" points="39.41 57.774 36.772 59.297 36.781 62.329 39.421 60.805 39.41 57.774 39.41 57.774"/>
                    <polygon class="cls-9" points="39.401 54.743 36.764 56.266 36.772 59.297 39.41 57.774 39.401 54.743 39.401 54.743"/>
                    <polygon class="cls-6" points="39.394 51.711 36.756 53.234 36.764 56.266 39.401 54.743 39.394 51.711 39.394 51.711"/>
                    <polygon class="cls-8" points="39.386 48.68 36.746 50.204 36.756 53.234 39.394 51.711 39.386 48.68 39.386 48.68"/>
                    <polygon class="cls-7" points="39.377 45.648 36.738 47.171 36.746 50.204 39.386 48.68 39.377 45.648 39.377 45.648"/>
                    <polygon class="cls-8" points="39.367 42.616 36.731 44.14 36.738 47.171 39.377 45.648 39.367 42.616 39.367 42.616"/>
                    <polygon class="cls-12" points="39.359 39.583 36.721 41.107 36.731 44.14 39.367 42.616 39.359 39.583 39.359 39.583"/>
                    <polygon class="cls-10" points="39.351 36.556 36.713 38.08 36.721 41.107 39.359 39.583 39.351 36.556 39.351 36.556"/>
                    <polygon class="cls-6" points="36.816 74.454 34.177 75.977 34.185 79.008 36.824 77.485 36.816 74.454 36.816 74.454"/>
                    <polygon class="cls-8" points="36.809 71.422 34.168 72.947 34.177 75.977 36.816 74.454 36.809 71.422 36.809 71.422"/>
                    <polygon class="cls-7" points="36.797 68.391 34.159 69.914 34.168 72.947 36.809 71.422 36.797 68.391 36.797 68.391"/>
                    <polygon class="cls-6" points="36.789 65.36 34.151 66.884 34.159 69.914 36.797 68.391 36.789 65.36 36.789 65.36"/>
                    <polygon class="cls-7" points="36.781 62.329 34.142 63.852 34.151 66.884 36.789 65.36 36.781 62.329 36.781 62.329"/>
                    <polygon class="cls-7" points="36.772 59.297 34.135 60.821 34.142 63.852 36.781 62.329 36.772 59.297 36.772 59.297"/>
                    <polygon class="cls-8" points="36.764 56.266 34.125 57.79 34.135 60.821 36.772 59.297 36.764 56.266 36.764 56.266"/>
                    <polygon class="cls-6" points="36.756 53.234 34.116 54.757 34.125 57.79 36.764 56.266 36.756 53.234 36.756 53.234"/>
                    <polygon class="cls-6" points="36.746 50.204 34.108 51.727 34.116 54.757 36.756 53.234 36.746 50.204 36.746 50.204"/>
                    <polygon class="cls-6" points="36.738 47.171 34.101 48.695 34.108 51.727 36.746 50.204 36.738 47.171 36.738 47.171"/>
                    <polygon class="cls-9" points="36.731 44.14 34.092 45.663 34.101 48.695 36.738 47.171 36.731 44.14 36.731 44.14"/>
                    <polygon class="cls-10" points="36.721 41.107 34.081 42.631 34.092 45.663 36.731 44.14 36.721 41.107 36.721 41.107"/>
                    <polygon class="cls-11" points="36.713 38.08 34.073 39.602 34.081 42.631 36.721 41.107 36.713 38.08 36.713 38.08"/>
                  </g>
                </g>
              </g>
              <g class="cls-4">
                <polygon class="cls-2" points="34.185 79.008 0.114 59.209 0.001 19.801 34.073 39.601 34.185 79.008"/>
                <g class="cls-16">
                  <g>
                    <polygon class="cls-6" points="34.177 75.977 31.555 74.453 31.564 77.485 34.185 79.008 34.177 75.977 34.177 75.977"/>
                    <polygon class="cls-6" points="34.168 72.947 31.546 71.422 31.555 74.453 34.177 75.977 34.168 72.947 34.168 72.947"/>
                    <polygon class="cls-7" points="34.159 69.914 31.538 68.391 31.546 71.422 34.168 72.947 34.159 69.914 34.159 69.914"/>
                    <polygon class="cls-8" points="34.151 66.884 31.53 65.36 31.538 68.391 34.159 69.914 34.151 66.884 34.151 66.884"/>
                    <polygon class="cls-9" points="34.143 63.852 31.521 62.329 31.53 65.36 34.151 66.884 34.143 63.852 34.143 63.852"/>
                    <polygon class="cls-8" points="34.135 60.821 31.512 59.297 31.521 62.329 34.143 63.852 34.135 60.821 34.135 60.821"/>
                    <polygon class="cls-7" points="34.125 57.79 31.504 56.266 31.512 59.297 34.135 60.821 34.125 57.79 34.125 57.79"/>
                    <polygon class="cls-6" points="34.116 54.757 31.496 53.234 31.504 56.266 34.125 57.79 34.116 54.757 34.116 54.757"/>
                    <polygon class="cls-6" points="34.108 51.727 31.486 50.204 31.496 53.234 34.116 54.757 34.108 51.727 34.108 51.727"/>
                    <polygon class="cls-7" points="34.101 48.695 31.477 47.171 31.486 50.204 34.108 51.727 34.101 48.695 34.101 48.695"/>
                    <polygon class="cls-9" points="34.092 45.663 31.47 44.139 31.477 47.171 34.101 48.695 34.092 45.663 34.092 45.663"/>
                    <polygon class="cls-10" points="34.081 42.631 31.461 41.107 31.47 44.139 34.092 45.663 34.081 42.631 34.081 42.631"/>
                    <polygon class="cls-11" points="34.073 39.602 31.452 38.079 31.461 41.107 34.081 42.631 34.073 39.602 34.073 39.602"/>
                    <polygon class="cls-6" points="31.555 74.453 28.935 72.93 28.944 75.961 31.564 77.485 31.555 74.453 31.555 74.453"/>
                    <polygon class="cls-8" points="31.546 71.422 28.927 69.9 28.935 72.93 31.555 74.453 31.546 71.422 31.546 71.422"/>
                    <polygon class="cls-7" points="31.538 68.391 28.918 66.867 28.927 69.9 31.546 71.422 31.538 68.391 31.538 68.391"/>
                    <polygon class="cls-8" points="31.53 65.36 28.909 63.839 28.918 66.867 31.538 68.391 31.53 65.36 31.53 65.36"/>
                    <polygon class="cls-6" points="31.521 62.329 28.901 60.805 28.909 63.839 31.53 65.36 31.521 62.329 31.521 62.329"/>
                    <polygon class="cls-8" points="31.512 59.297 28.893 57.776 28.901 60.805 31.521 62.329 31.512 59.297 31.512 59.297"/>
                    <polygon class="cls-7" points="31.504 56.266 28.885 54.743 28.893 57.776 31.512 59.297 31.504 56.266 31.504 56.266"/>
                    <polygon class="cls-8" points="31.496 53.234 28.875 51.711 28.885 54.743 31.504 56.266 31.496 53.234 31.496 53.234"/>
                    <polygon class="cls-9" points="31.486 50.204 28.866 48.682 28.875 51.711 31.496 53.234 31.486 50.204 31.486 50.204"/>
                    <polygon class="cls-6" points="31.477 47.171 28.858 45.648 28.866 48.682 31.486 50.204 31.477 47.171 31.477 47.171"/>
                    <polygon class="cls-12" points="31.47 44.139 28.851 42.617 28.858 45.648 31.477 47.171 31.47 44.139 31.47 44.139"/>
                    <polygon class="cls-13" points="31.461 41.107 28.84 39.585 28.851 42.617 31.47 44.139 31.461 41.107 31.461 41.107"/>
                    <polygon class="cls-14" points="31.452 38.079 28.831 36.556 28.84 39.585 31.461 41.107 31.452 38.079 31.452 38.079"/>
                    <polygon class="cls-7" points="28.935 72.93 26.314 71.408 26.325 74.439 28.944 75.961 28.935 72.93 28.935 72.93"/>
                    <polygon class="cls-8" points="28.927 69.9 26.306 68.376 26.314 71.408 28.935 72.93 28.927 69.9 28.927 69.9"/>
                    <polygon class="cls-6" points="28.918 66.867 26.298 65.345 26.306 68.376 28.927 69.9 28.918 66.867 28.918 66.867"/>
                    <polygon class="cls-7" points="28.909 63.839 26.289 62.314 26.298 65.345 28.918 66.867 28.909 63.839 28.909 63.839"/>
                    <polygon class="cls-7" points="28.901 60.805 26.281 59.283 26.289 62.314 28.909 63.839 28.901 60.805 28.901 60.805"/>
                    <polygon class="cls-6" points="28.893 57.776 26.272 56.252 26.281 59.283 28.901 60.805 28.893 57.776 28.893 57.776"/>
                    <polygon class="cls-7" points="28.885 54.743 26.265 53.221 26.272 56.252 28.893 57.776 28.885 54.743 28.885 54.743"/>
                    <polygon class="cls-7" points="28.875 51.711 26.255 50.188 26.265 53.221 28.885 54.743 28.875 51.711 28.875 51.711"/>
                    <polygon class="cls-7" points="28.866 48.682 26.247 47.158 26.255 50.188 28.875 51.711 28.866 48.682 28.866 48.682"/>
                    <polygon class="cls-9" points="28.858 45.648 26.238 44.127 26.247 47.158 28.866 48.682 28.858 45.648 28.858 45.648"/>
                    <polygon class="cls-15" points="28.851 42.617 26.23 41.094 26.238 44.127 28.858 45.648 28.851 42.617 28.851 42.617"/>
                    <polygon class="cls-10" points="28.84 39.585 26.222 38.062 26.23 41.094 28.851 42.617 28.84 39.585 28.84 39.585"/>
                    <polygon class="cls-13" points="28.831 36.556 26.211 35.034 26.222 38.062 28.84 39.585 28.831 36.556 28.831 36.556"/>
                    <polygon class="cls-7" points="26.314 71.408 23.693 69.884 23.701 72.916 26.325 74.439 26.314 71.408 26.314 71.408"/>
                    <polygon class="cls-8" points="26.306 68.376 23.685 66.854 23.693 69.884 26.314 71.408 26.306 68.376 26.306 68.376"/>
                    <polygon class="cls-6" points="26.298 65.345 23.676 63.821 23.685 66.854 26.306 68.376 26.298 65.345 26.298 65.345"/>
                    <polygon class="cls-8" points="26.289 62.314 23.668 60.792 23.676 63.821 26.298 65.345 26.289 62.314 26.289 62.314"/>
                    <polygon class="cls-7" points="26.281 59.283 23.658 57.759 23.668 60.792 26.289 62.314 26.281 59.283 26.281 59.283"/>
                    <polygon class="cls-8" points="26.272 56.252 23.651 54.729 23.658 57.759 26.281 59.283 26.272 56.252 26.272 56.252"/>
                    <polygon class="cls-6" points="26.265 53.221 23.643 51.697 23.651 54.729 26.272 56.252 26.265 53.221 26.265 53.221"/>
                    <polygon class="cls-7" points="26.255 50.188 23.633 48.666 23.643 51.697 26.265 53.221 26.255 50.188 26.255 50.188"/>
                    <polygon class="cls-8" points="26.247 47.158 23.625 45.635 23.633 48.666 26.255 50.188 26.247 47.158 26.247 47.158"/>
                    <polygon class="cls-9" points="26.238 44.127 23.617 42.603 23.625 45.635 26.247 47.158 26.238 44.127 26.238 44.127"/>
                    <polygon class="cls-10" points="26.23 41.094 23.608 39.571 23.617 42.603 26.238 44.127 26.23 41.094 26.23 41.094"/>
                    <polygon class="cls-11" points="26.222 38.062 23.598 36.539 23.608 39.571 26.23 41.094 26.222 38.062 26.222 38.062"/>
                    <polygon class="cls-11" points="26.211 35.034 23.591 33.51 23.598 36.539 26.222 38.062 26.211 35.034 26.211 35.034"/>
                    <polygon class="cls-7" points="23.693 69.884 21.071 68.36 21.082 71.392 23.701 72.916 23.693 69.884 23.693 69.884"/>
                    <polygon class="cls-8" points="23.685 66.854 21.064 65.332 21.071 68.36 23.693 69.884 23.685 66.854 23.685 66.854"/>
                    <polygon class="cls-8" points="23.676 63.821 21.055 62.297 21.064 65.332 23.685 66.854 23.676 63.821 23.676 63.821"/>
                    <polygon class="cls-9" points="23.668 60.792 21.046 59.269 21.055 62.297 23.676 63.821 23.668 60.792 23.668 60.792"/>
                    <polygon class="cls-6" points="23.658 57.759 21.039 56.237 21.046 59.269 23.668 60.792 23.658 57.759 23.658 57.759"/>
                    <polygon class="cls-8" points="23.651 54.729 21.028 53.206 21.039 56.237 23.658 57.759 23.651 54.729 23.651 54.729"/>
                    <polygon class="cls-8" points="23.643 51.697 21.021 50.174 21.028 53.206 23.651 54.729 23.643 51.697 23.643 51.697"/>
                    <polygon class="cls-6" points="23.633 48.666 21.013 47.141 21.021 50.174 23.643 51.697 23.633 48.666 23.633 48.666"/>
                    <polygon class="cls-8" points="23.625 45.635 21.004 44.111 21.013 47.141 23.633 48.666 23.625 45.635 23.625 45.635"/>
                    <polygon class="cls-7" points="23.617 42.603 20.995 41.08 21.004 44.111 23.625 45.635 23.617 42.603 23.617 42.603"/>
                    <polygon class="cls-6" points="23.608 39.571 20.987 38.047 20.995 41.08 23.617 42.603 23.608 39.571 23.608 39.571"/>
                    <polygon class="cls-12" points="23.598 36.539 20.977 35.015 20.987 38.047 23.608 39.571 23.598 36.539 23.598 36.539"/>
                    <polygon class="cls-15" points="23.591 33.51 20.969 31.986 20.977 35.015 23.598 36.539 23.591 33.51 23.591 33.51"/>
                    <polygon class="cls-6" points="21.071 68.36 18.45 66.837 18.459 69.869 21.082 71.392 21.071 68.36 21.071 68.36"/>
                    <polygon class="cls-8" points="21.064 65.332 18.442 63.807 18.45 66.837 21.071 68.36 21.064 65.332 21.064 65.332"/>
                    <polygon class="cls-7" points="21.055 62.297 18.434 60.775 18.442 63.807 21.064 65.332 21.055 62.297 21.055 62.297"/>
                    <polygon class="cls-8" points="21.046 59.269 18.425 57.745 18.434 60.775 21.055 62.297 21.046 59.269 21.046 59.269"/>
                    <polygon class="cls-8" points="21.039 56.237 18.416 54.712 18.425 57.745 21.046 59.269 21.039 56.237 21.039 56.237"/>
                    <polygon class="cls-9" points="21.028 53.206 18.409 51.683 18.416 54.712 21.039 56.237 21.028 53.206 21.028 53.206"/>
                    <polygon class="cls-6" points="21.021 50.174 18.399 48.651 18.409 51.683 21.028 53.206 21.021 50.174 21.021 50.174"/>
                    <polygon class="cls-8" points="21.013 47.141 18.391 45.619 18.399 48.651 21.021 50.174 21.013 47.141 21.013 47.141"/>
                    <polygon class="cls-6" points="21.004 44.111 18.383 42.588 18.391 45.619 21.013 47.141 21.004 44.111 21.004 44.111"/>
                    <polygon class="cls-6" points="20.995 41.08 18.374 39.556 18.383 42.588 21.004 44.111 20.995 41.08 20.995 41.08"/>
                    <polygon class="cls-9" points="20.987 38.047 18.366 36.524 18.374 39.556 20.995 41.08 20.987 38.047 20.987 38.047"/>
                    <polygon class="cls-14" points="20.977 35.015 18.356 33.492 18.366 36.524 20.987 38.047 20.977 35.015 20.977 35.015"/>
                    <polygon class="cls-10" points="20.969 31.986 18.347 30.463 18.356 33.492 20.977 35.015 20.969 31.986 20.969 31.986"/>
                    <polygon class="cls-6" points="18.45 66.837 15.83 65.314 15.84 68.346 18.459 69.869 18.45 66.837 18.45 66.837"/>
                    <polygon class="cls-7" points="18.442 63.807 15.821 62.285 15.83 65.314 18.45 66.837 18.442 63.807 18.442 63.807"/>
                    <polygon class="cls-7" points="18.434 60.775 15.814 59.252 15.821 62.285 18.442 63.807 18.434 60.775 18.434 60.775"/>
                    <polygon class="cls-8" points="18.425 57.745 15.806 56.222 15.814 59.252 18.434 60.775 18.425 57.745 18.425 57.745"/>
                    <polygon class="cls-7" points="18.416 54.712 15.795 53.189 15.806 56.222 18.425 57.745 18.416 54.712 18.416 54.712"/>
                    <polygon class="cls-8" points="18.409 51.683 15.788 50.159 15.795 53.189 18.416 54.712 18.409 51.683 18.409 51.683"/>
                    <polygon class="cls-7" points="18.399 48.651 15.779 47.127 15.788 50.159 18.409 51.683 18.399 48.651 18.399 48.651"/>
                    <polygon class="cls-7" points="18.391 45.619 15.77 44.096 15.779 47.127 18.399 48.651 18.391 45.619 18.391 45.619"/>
                    <polygon class="cls-7" points="18.383 42.588 15.763 41.065 15.77 44.096 18.391 45.619 18.383 42.588 18.383 42.588"/>
                    <polygon class="cls-9" points="18.374 39.556 15.754 38.033 15.763 41.065 18.383 42.588 18.374 39.556 18.374 39.556"/>
                    <polygon class="cls-15" points="18.366 36.524 15.745 35.001 15.754 38.033 18.374 39.556 18.366 36.524 18.366 36.524"/>
                    <polygon class="cls-10" points="18.356 33.492 15.735 31.969 15.745 35.001 18.366 36.524 18.356 33.492 18.356 33.492"/>
                    <polygon class="cls-13" points="18.347 30.463 15.729 28.94 15.735 31.969 18.356 33.492 18.347 30.463 18.347 30.463"/>
                    <polygon class="cls-9" points="15.83 65.314 13.209 63.791 13.217 66.824 15.84 68.346 15.83 65.314 15.83 65.314"/>
                    <polygon class="cls-6" points="15.821 62.285 13.201 60.761 13.209 63.791 15.83 65.314 15.821 62.285 15.821 62.285"/>
                    <polygon class="cls-7" points="15.814 59.252 13.191 57.729 13.201 60.761 15.821 62.285 15.814 59.252 15.814 59.252"/>
                    <polygon class="cls-6" points="15.806 56.222 13.183 54.699 13.191 57.729 15.814 59.252 15.806 56.222 15.806 56.222"/>
                    <polygon class="cls-6" points="15.795 53.189 13.175 51.667 13.183 54.699 15.806 56.222 15.795 53.189 15.795 53.189"/>
                    <polygon class="cls-8" points="15.788 50.159 13.166 48.636 13.175 51.667 15.795 53.189 15.788 50.159 15.788 50.159"/>
                    <polygon class="cls-7" points="15.779 47.127 13.158 45.604 13.166 48.636 15.788 50.159 15.779 47.127 15.779 47.127"/>
                    <polygon class="cls-6" points="15.77 44.096 13.148 42.572 13.158 45.604 15.779 47.127 15.77 44.096 15.77 44.096"/>
                    <polygon class="cls-6" points="15.763 41.065 13.141 39.541 13.148 42.572 15.77 44.096 15.763 41.065 15.763 41.065"/>
                    <polygon class="cls-9" points="15.754 38.033 13.133 36.51 13.141 39.541 15.763 41.065 15.754 38.033 15.754 38.033"/>
                    <polygon class="cls-10" points="15.745 35.001 13.123 33.478 13.133 36.51 15.754 38.033 15.745 35.001 15.745 35.001"/>
                    <polygon class="cls-11" points="15.735 31.969 13.115 30.446 13.123 33.478 15.745 35.001 15.735 31.969 15.735 31.969"/>
                    <polygon class="cls-11" points="15.729 28.94 13.106 27.417 13.115 30.446 15.735 31.969 15.729 28.94 15.729 28.94"/>
                    <polygon class="cls-7" points="13.209 63.791 10.588 62.268 10.596 65.3 13.217 66.824 13.209 63.791 13.209 63.791"/>
                    <polygon class="cls-7" points="13.201 60.761 10.579 59.237 10.588 62.268 13.209 63.791 13.201 60.761 13.201 60.761"/>
                    <polygon class="cls-6" points="13.191 57.729 10.569 56.206 10.579 59.237 13.201 60.761 13.191 57.729 13.191 57.729"/>
                    <polygon class="cls-8" points="13.183 54.699 10.563 53.175 10.569 56.206 13.191 57.729 13.183 54.699 13.183 54.699"/>
                    <polygon class="cls-7" points="13.175 51.667 10.554 50.144 10.563 53.175 13.183 54.699 13.175 51.667 13.175 51.667"/>
                    <polygon class="cls-8" points="13.166 48.636 10.545 47.113 10.554 50.144 13.175 51.667 13.166 48.636 13.166 48.636"/>
                    <polygon class="cls-6" points="13.158 45.604 10.536 44.081 10.545 47.113 13.166 48.636 13.158 45.604 13.158 45.604"/>
                    <polygon class="cls-7" points="13.148 42.572 10.528 41.049 10.536 44.081 13.158 45.604 13.148 42.572 13.148 42.572"/>
                    <polygon class="cls-8" points="13.141 39.541 10.52 38.019 10.528 41.049 13.148 42.572 13.141 39.541 13.141 39.541"/>
                    <polygon class="cls-6" points="13.133 36.51 10.509 34.986 10.52 38.019 13.141 39.541 13.133 36.51 13.133 36.51"/>
                    <polygon class="cls-12" points="13.123 33.478 10.503 31.955 10.509 34.986 13.133 36.51 13.123 33.478 13.123 33.478"/>
                    <polygon class="cls-15" points="13.115 30.446 10.492 28.922 10.503 31.955 13.123 33.478 13.115 30.446 13.115 30.446"/>
                    <polygon class="cls-10" points="13.106 27.417 10.484 25.894 10.492 28.922 13.115 30.446 13.106 27.417 13.106 27.417"/>
                    <polygon class="cls-7" points="10.588 62.268 7.97 60.746 7.979 63.778 10.596 65.3 10.588 62.268 10.588 62.268"/>
                    <polygon class="cls-8" points="10.579 59.237 7.96 57.716 7.97 60.746 10.588 62.268 10.579 59.237 10.579 59.237"/>
                    <polygon class="cls-6" points="10.569 56.206 7.952 54.683 7.96 57.716 10.579 59.237 10.569 56.206 10.569 56.206"/>
                    <polygon class="cls-9" points="10.563 53.175 7.943 51.653 7.952 54.683 10.569 56.206 10.563 53.175 10.563 53.175"/>
                    <polygon class="cls-8" points="10.554 50.144 7.935 48.621 7.943 51.653 10.563 53.175 10.554 50.144 10.554 50.144"/>
                    <polygon class="cls-6" points="10.545 47.113 7.926 45.591 7.935 48.621 10.554 50.144 10.545 47.113 10.545 47.113"/>
                    <polygon class="cls-8" points="10.536 44.081 7.918 42.56 7.926 45.591 10.545 47.113 10.536 44.081 10.536 44.081"/>
                    <polygon class="cls-7" points="10.528 41.049 7.908 39.526 7.918 42.56 10.536 44.081 10.528 41.049 10.528 41.049"/>
                    <polygon class="cls-8" points="10.52 38.019 7.9 36.496 7.908 39.526 10.528 41.049 10.52 38.019 10.52 38.019"/>
                    <polygon class="cls-9" points="10.509 34.986 7.892 33.465 7.9 36.496 10.52 38.019 10.509 34.986 10.509 34.986"/>
                    <polygon class="cls-15" points="10.503 31.955 7.883 30.432 7.892 33.465 10.509 34.986 10.503 31.955 10.503 31.955"/>
                    <polygon class="cls-10" points="10.492 28.922 7.876 27.401 7.883 30.432 10.503 31.955 10.492 28.922 10.492 28.922"/>
                    <polygon class="cls-13" points="10.484 25.894 7.864 24.372 7.876 27.401 10.492 28.922 10.484 25.894 10.484 25.894"/>
                    <polygon class="cls-7" points="7.97 60.746 5.349 59.223 5.356 62.254 7.979 63.778 7.97 60.746 7.97 60.746"/>
                    <polygon class="cls-8" points="7.96 57.716 5.338 56.191 5.349 59.223 7.97 60.746 7.96 57.716 7.96 57.716"/>
                    <polygon class="cls-7" points="7.952 54.683 5.33 53.161 5.338 56.191 7.96 57.716 7.952 54.683 7.952 54.683"/>
                    <polygon class="cls-8" points="7.943 51.653 5.322 50.129 5.33 53.161 7.952 54.683 7.943 51.653 7.943 51.653"/>
                    <polygon class="cls-6" points="7.935 48.621 5.313 47.099 5.322 50.129 7.943 51.653 7.935 48.621 7.935 48.621"/>
                    <polygon class="cls-7" points="7.926 45.591 5.304 44.068 5.313 47.099 7.935 48.621 7.926 45.591 7.926 45.591"/>
                    <polygon class="cls-8" points="7.918 42.56 5.296 41.035 5.304 44.068 7.926 45.591 7.918 42.56 7.918 42.56"/>
                    <polygon class="cls-7" points="7.908 39.526 5.287 38.003 5.296 41.035 7.918 42.56 7.908 39.526 7.908 39.526"/>
                    <polygon class="cls-7" points="7.9 36.496 5.279 34.973 5.287 38.003 7.908 39.526 7.9 36.496 7.9 36.496"/>
                    <polygon class="cls-6" points="7.892 33.465 5.271 31.941 5.279 34.973 7.9 36.496 7.892 33.465 7.892 33.465"/>
                    <polygon class="cls-12" points="7.883 30.432 5.262 28.91 5.271 31.941 7.892 33.465 7.883 30.432 7.883 30.432"/>
                    <polygon class="cls-15" points="7.876 27.401 5.252 25.877 5.262 28.91 7.883 30.432 7.876 27.401 7.876 27.401"/>
                    <polygon class="cls-11" points="7.864 24.372 5.244 22.849 5.252 25.877 7.876 27.401 7.864 24.372 7.864 24.372"/>
                    <polygon class="cls-6" points="5.349 59.223 2.726 57.699 2.734 60.731 5.356 62.254 5.349 59.223 5.349 59.223"/>
                    <polygon class="cls-8" points="5.338 56.191 2.718 54.669 2.726 57.699 5.349 59.223 5.338 56.191 5.338 56.191"/>
                    <polygon class="cls-7" points="5.33 53.161 2.709 51.636 2.718 54.669 5.338 56.191 5.33 53.161 5.33 53.161"/>
                    <polygon class="cls-8" points="5.322 50.129 2.699 48.607 2.709 51.636 5.33 53.161 5.322 50.129 5.322 50.129"/>
                    <polygon class="cls-7" points="5.313 47.099 2.692 45.574 2.699 48.607 5.322 50.129 5.313 47.099 5.313 47.099"/>
                    <polygon class="cls-7" points="5.304 44.068 2.683 42.544 2.692 45.574 5.313 47.099 5.304 44.068 5.304 44.068"/>
                    <polygon class="cls-9" points="5.296 41.035 2.675 39.512 2.683 42.544 5.304 44.068 5.296 41.035 5.296 41.035"/>
                    <polygon class="cls-6" points="5.287 38.003 2.666 36.48 2.675 39.512 5.296 41.035 5.287 38.003 5.287 38.003"/>
                    <polygon class="cls-8" points="5.279 34.973 2.657 33.45 2.666 36.48 5.287 38.003 5.279 34.973 5.279 34.973"/>
                    <polygon class="cls-7" points="5.271 31.941 2.649 30.417 2.657 33.45 5.279 34.973 5.271 31.941 5.271 31.941"/>
                    <polygon class="cls-8" points="5.262 28.91 2.641 27.386 2.649 30.417 5.271 31.941 5.262 28.91 5.262 28.91"/>
                    <polygon class="cls-12" points="5.252 25.877 2.631 24.354 2.641 27.386 5.262 28.91 5.252 25.877 5.252 25.877"/>
                    <polygon class="cls-10" points="5.244 22.849 2.622 21.325 2.631 24.354 5.252 25.877 5.244 22.849 5.244 22.849"/>
                    <polygon class="cls-6" points="2.726 57.699 0.105 56.175 0.114 59.208 2.734 60.731 2.726 57.699 2.726 57.699"/>
                    <polygon class="cls-8" points="2.718 54.669 0.096 53.145 0.105 56.175 2.726 57.699 2.718 54.669 2.718 54.669"/>
                    <polygon class="cls-7" points="2.709 51.636 0.087 50.113 0.096 53.145 2.718 54.669 2.709 51.636 2.709 51.636"/>
                    <polygon class="cls-6" points="2.699 48.607 0.079 47.083 0.087 50.113 2.709 51.636 2.699 48.607 2.699 48.607"/>
                    <polygon class="cls-7" points="2.692 45.574 0.07 44.051 0.079 47.083 2.699 48.607 2.692 45.574 2.692 45.574"/>
                    <polygon class="cls-7" points="2.683 42.544 0.063 41.021 0.07 44.051 2.692 45.574 2.683 42.544 2.683 42.544"/>
                    <polygon class="cls-8" points="2.675 39.512 0.053 37.988 0.063 41.021 2.683 42.544 2.675 39.512 2.675 39.512"/>
                    <polygon class="cls-6" points="2.666 36.48 0.045 34.957 0.053 37.988 2.675 39.512 2.666 36.48 2.666 36.48"/>
                    <polygon class="cls-6" points="2.657 33.45 0.037 31.926 0.045 34.957 2.666 36.48 2.657 33.45 2.657 33.45"/>
                    <polygon class="cls-6" points="2.649 30.417 0.027 28.895 0.037 31.926 2.657 33.45 2.649 30.417 2.649 30.417"/>
                    <polygon class="cls-9" points="2.641 27.386 0.02 25.862 0.027 28.895 2.649 30.417 2.641 27.386 2.641 27.386"/>
                    <polygon class="cls-10" points="2.631 24.354 0.01 22.831 0.02 25.862 2.641 27.386 2.631 24.354 2.631 24.354"/>
                    <polygon class="cls-11" points="2.622 21.325 0.001 19.802 0.01 22.831 2.631 24.354 2.622 21.325 2.622 21.325"/>
                  </g>
                </g>
              </g>
              <g class="cls-4">
                <polygon class="cls-3" points="34.073 39.601 0.001 19.801 34.296 0 68.37 19.801 34.073 39.601"/>
                <g class="cls-17">
                  <g>
                    <polygon class="cls-11" points="65.748 18.277 63.109 19.801 65.731 21.325 68.37 19.801 65.748 18.277 65.748 18.277"/>
                    <polygon class="cls-13" points="63.126 16.754 60.488 18.277 63.109 19.801 65.748 18.277 63.126 16.754 63.126 16.754"/>
                    <polygon class="cls-10" points="60.505 15.231 57.867 16.754 60.488 18.277 63.126 16.754 60.505 15.231 60.505 15.231"/>
                    <polygon class="cls-10" points="57.885 13.708 55.246 15.232 57.867 16.754 60.505 15.231 57.885 13.708 57.885 13.708"/>
                    <polygon class="cls-13" points="55.264 12.186 52.625 13.708 55.246 15.232 57.885 13.708 55.264 12.186 55.264 12.186"/>
                    <polygon class="cls-11" points="52.644 10.663 50.005 12.186 52.625 13.708 55.264 12.186 52.644 10.663 52.644 10.663"/>
                    <polygon class="cls-13" points="50.024 9.14 47.385 10.663 50.005 12.186 52.644 10.663 50.024 9.14 50.024 9.14"/>
                    <polygon class="cls-13" points="47.402 7.616 44.764 9.14 47.385 10.663 50.024 9.14 47.402 7.616 47.402 7.616"/>
                    <polygon class="cls-13" points="44.781 6.092 42.142 7.616 44.764 9.14 47.402 7.616 44.781 6.092 44.781 6.092"/>
                    <polygon class="cls-13" points="42.158 4.569 39.519 6.092 42.142 7.616 44.781 6.092 42.158 4.569 42.158 4.569"/>
                    <polygon class="cls-10" points="39.54 3.046 36.899 4.57 39.519 6.092 42.158 4.569 39.54 3.046 39.54 3.046"/>
                    <polygon class="cls-13" points="36.918 1.523 34.279 3.046 36.899 4.57 39.54 3.046 36.918 1.523 36.918 1.523"/>
                    <polygon class="cls-11" points="34.295 0 31.657 1.523 34.279 3.046 36.918 1.523 34.295 0 34.295 0"/>
                    <polygon class="cls-13" points="63.109 19.801 60.471 21.325 63.093 22.849 65.731 21.325 63.109 19.801 63.109 19.801"/>
                    <polygon class="cls-13" points="60.488 18.277 57.849 19.801 60.471 21.325 63.109 19.801 60.488 18.277 60.488 18.277"/>
                    <polygon class="cls-11" points="57.867 16.754 55.229 18.277 57.849 19.801 60.488 18.277 57.867 16.754 57.867 16.754"/>
                    <polygon class="cls-13" points="55.246 15.232 52.607 16.755 55.229 18.277 57.867 16.754 55.246 15.232 55.246 15.232"/>
                    <polygon class="cls-11" points="52.625 13.708 49.986 15.232 52.607 16.755 55.246 15.232 52.625 13.708 52.625 13.708"/>
                    <polygon class="cls-13" points="50.005 12.186 47.365 13.709 49.986 15.232 52.625 13.708 50.005 12.186 50.005 12.186"/>
                    <polygon class="cls-10" points="47.385 10.663 44.746 12.187 47.365 13.709 50.005 12.186 47.385 10.663 47.385 10.663"/>
                    <polygon class="cls-13" points="44.764 9.14 42.124 10.663 44.746 12.187 47.385 10.663 44.764 9.14 44.764 9.14"/>
                    <polygon class="cls-11" points="42.142 7.616 39.503 9.14 42.124 10.663 44.764 9.14 42.142 7.616 42.142 7.616"/>
                    <polygon class="cls-10" points="39.519 6.092 36.883 7.616 39.503 9.14 42.142 7.616 39.519 6.092 39.519 6.092"/>
                    <polygon class="cls-13" points="36.899 4.57 34.262 6.093 36.883 7.616 39.519 6.092 36.899 4.57 36.899 4.57"/>
                    <polygon class="cls-11" points="34.279 3.046 31.641 4.57 34.262 6.093 36.899 4.57 34.279 3.046 34.279 3.046"/>
                    <polygon class="cls-13" points="31.657 1.523 29.019 3.046 31.641 4.57 34.279 3.046 31.657 1.523 31.657 1.523"/>
                    <polygon class="cls-13" points="60.471 21.325 57.833 22.849 60.453 24.372 63.093 22.849 60.471 21.325 60.471 21.325"/>
                    <polygon class="cls-11" points="57.849 19.801 55.211 21.325 57.833 22.849 60.471 21.325 57.849 19.801 57.849 19.801"/>
                    <polygon class="cls-13" points="55.229 18.277 52.59 19.801 55.211 21.325 57.849 19.801 55.229 18.277 55.229 18.277"/>
                    <polygon class="cls-10" points="52.607 16.755 49.969 18.279 52.59 19.801 55.229 18.277 52.607 16.755 52.607 16.755"/>
                    <polygon class="cls-13" points="49.986 15.232 47.349 16.755 49.969 18.279 52.607 16.755 49.986 15.232 49.986 15.232"/>
                    <polygon class="cls-10" points="47.365 13.709 44.729 15.233 47.349 16.755 49.986 15.232 47.365 13.709 47.365 13.709"/>
                    <polygon class="cls-13" points="44.746 12.187 42.107 13.709 44.729 15.233 47.365 13.709 44.746 12.187 44.746 12.187"/>
                    <polygon class="cls-11" points="42.124 10.663 39.486 12.187 42.107 13.709 44.746 12.187 42.124 10.663 42.124 10.663"/>
                    <polygon class="cls-13" points="39.503 9.14 36.865 10.663 39.486 12.187 42.124 10.663 39.503 9.14 39.503 9.14"/>
                    <polygon class="cls-10" points="36.883 7.616 34.242 9.14 36.865 10.663 39.503 9.14 36.883 7.616 36.883 7.616"/>
                    <polygon class="cls-13" points="34.262 6.093 31.622 7.617 34.242 9.14 36.883 7.616 34.262 6.093 34.262 6.093"/>
                    <polygon class="cls-13" points="31.641 4.57 29.003 6.093 31.622 7.617 34.262 6.093 31.641 4.57 31.641 4.57"/>
                    <polygon class="cls-15" points="29.019 3.046 26.38 4.57 29.003 6.093 31.641 4.57 29.019 3.046 29.019 3.046"/>
                    <polygon class="cls-10" points="57.833 22.849 55.195 24.371 57.816 25.895 60.453 24.372 57.833 22.849 57.833 22.849"/>
                    <polygon class="cls-13" points="55.211 21.325 52.574 22.848 55.195 24.371 57.833 22.849 55.211 21.325 55.211 21.325"/>
                    <polygon class="cls-13" points="52.59 19.801 49.953 21.324 52.574 22.848 55.211 21.325 52.59 19.801 52.59 19.801"/>
                    <polygon class="cls-10" points="49.969 18.279 47.332 19.801 49.953 21.324 52.59 19.801 49.969 18.279 49.969 18.279"/>
                    <polygon class="cls-15" points="47.349 16.755 44.712 18.277 47.332 19.801 49.969 18.279 47.349 16.755 47.349 16.755"/>
                    <polygon class="cls-13" points="44.729 15.233 42.092 16.755 44.712 18.277 47.349 16.755 44.729 15.233 44.729 15.233"/>
                    <polygon class="cls-10" points="42.107 13.709 39.471 15.233 42.092 16.755 44.729 15.233 42.107 13.709 42.107 13.709"/>
                    <polygon class="cls-13" points="39.486 12.187 36.85 13.709 39.471 15.233 42.107 13.709 39.486 12.187 39.486 12.187"/>
                    <polygon class="cls-15" points="36.865 10.663 34.229 12.186 36.85 13.709 39.486 12.187 36.865 10.663 36.865 10.663"/>
                    <polygon class="cls-11" points="34.242 9.14 31.606 10.663 34.229 12.186 36.865 10.663 34.242 9.14 34.242 9.14"/>
                    <polygon class="cls-13" points="31.622 7.617 28.985 9.14 31.606 10.663 34.242 9.14 31.622 7.617 31.622 7.617"/>
                    <polygon class="cls-10" points="29.003 6.093 26.365 7.616 28.985 9.14 31.622 7.617 29.003 6.093 29.003 6.093"/>
                    <polygon class="cls-10" points="26.38 4.57 23.743 6.092 26.365 7.616 29.003 6.093 26.38 4.57 26.38 4.57"/>
                    <polygon class="cls-15" points="55.195 24.371 52.559 25.894 55.18 27.417 57.816 25.895 55.195 24.371 55.195 24.371"/>
                    <polygon class="cls-10" points="52.574 22.848 49.937 24.371 52.559 25.894 55.195 24.371 52.574 22.848 52.574 22.848"/>
                    <polygon class="cls-13" points="49.953 21.324 47.313 22.847 49.937 24.371 52.574 22.848 49.953 21.324 49.953 21.324"/>
                    <polygon class="cls-13" points="47.332 19.801 44.695 21.324 47.313 22.847 49.953 21.324 47.332 19.801 47.332 19.801"/>
                    <polygon class="cls-15" points="44.712 18.277 42.073 19.801 44.695 21.324 47.332 19.801 44.712 18.277 44.712 18.277"/>
                    <polygon class="cls-10" points="42.092 16.755 39.454 18.277 42.073 19.801 44.712 18.277 42.092 16.755 42.092 16.755"/>
                    <polygon class="cls-13" points="39.471 15.233 36.834 16.755 39.454 18.277 42.092 16.755 39.471 15.233 39.471 15.233"/>
                    <polygon class="cls-10" points="36.85 13.709 34.212 15.231 36.834 16.755 39.471 15.233 36.85 13.709 36.85 13.709"/>
                    <polygon class="cls-13" points="34.229 12.186 31.59 13.708 34.212 15.231 36.85 13.709 34.229 12.186 34.229 12.186"/>
                    <polygon class="cls-13" points="31.606 10.663 28.969 12.185 31.59 13.708 34.229 12.186 31.606 10.663 31.606 10.663"/>
                    <polygon class="cls-10" points="28.985 9.14 26.349 10.663 28.969 12.185 31.606 10.663 28.985 9.14 28.985 9.14"/>
                    <polygon class="cls-13" points="26.365 7.616 23.727 9.139 26.349 10.663 28.985 9.14 26.365 7.616 26.365 7.616"/>
                    <polygon class="cls-13" points="23.743 6.092 21.106 7.616 23.727 9.139 26.365 7.616 23.743 6.092 23.743 6.092"/>
                    <polygon class="cls-11" points="52.559 25.894 49.919 27.417 52.539 28.94 55.18 27.417 52.559 25.894 52.559 25.894"/>
                    <polygon class="cls-13" points="49.937 24.371 47.298 25.894 49.919 27.417 52.559 25.894 49.937 24.371 49.937 24.371"/>
                    <polygon class="cls-11" points="47.313 22.847 44.676 24.371 47.298 25.894 49.937 24.371 47.313 22.847 47.313 22.847"/>
                    <polygon class="cls-10" points="44.695 21.324 42.056 22.848 44.676 24.371 47.313 22.847 44.695 21.324 44.695 21.324"/>
                    <polygon class="cls-13" points="42.073 19.801 39.435 21.324 42.056 22.848 44.695 21.324 42.073 19.801 42.073 19.801"/>
                    <polygon class="cls-13" points="39.454 18.277 36.814 19.801 39.435 21.324 42.073 19.801 39.454 18.277 39.454 18.277"/>
                    <polygon class="cls-11" points="36.834 16.755 34.194 18.279 36.814 19.801 39.454 18.277 36.834 16.755 36.834 16.755"/>
                    <polygon class="cls-13" points="34.212 15.231 31.574 16.754 34.194 18.279 36.834 16.755 34.212 15.231 34.212 15.231"/>
                    <polygon class="cls-15" points="31.59 13.708 28.951 15.231 31.574 16.754 34.212 15.231 31.59 13.708 31.59 13.708"/>
                    <polygon class="cls-10" points="28.969 12.185 26.33 13.708 28.951 15.231 31.59 13.708 28.969 12.185 28.969 12.185"/>
                    <polygon class="cls-13" points="26.349 10.663 23.71 12.186 26.33 13.708 28.969 12.185 26.349 10.663 26.349 10.663"/>
                    <polygon class="cls-11" points="23.727 9.139 21.089 10.663 23.71 12.186 26.349 10.663 23.727 9.139 23.727 9.139"/>
                    <polygon class="cls-13" points="21.106 7.616 18.466 9.139 21.089 10.663 23.727 9.139 21.106 7.616 21.106 7.616"/>
                    <polygon class="cls-13" points="49.919 27.417 47.281 28.939 49.903 30.463 52.539 28.94 49.919 27.417 49.919 27.417"/>
                    <polygon class="cls-11" points="47.298 25.894 44.66 27.416 47.281 28.939 49.919 27.417 47.298 25.894 47.298 25.894"/>
                    <polygon class="cls-13" points="44.676 24.371 42.039 25.892 44.66 27.416 47.298 25.894 44.676 24.371 44.676 24.371"/>
                    <polygon class="cls-13" points="42.056 22.848 39.419 24.369 42.039 25.892 44.676 24.371 42.056 22.848 42.056 22.848"/>
                    <polygon class="cls-10" points="39.435 21.324 36.797 22.847 39.419 24.369 42.056 22.848 39.435 21.324 39.435 21.324"/>
                    <polygon class="cls-13" points="36.814 19.801 34.178 21.324 36.797 22.847 39.435 21.324 36.814 19.801 36.814 19.801"/>
                    <polygon class="cls-10" points="34.194 18.279 31.558 19.801 34.178 21.324 36.814 19.801 34.194 18.279 34.194 18.279"/>
                    <polygon class="cls-13" points="31.574 16.754 28.936 18.277 31.558 19.801 34.194 18.279 31.574 16.754 31.574 16.754"/>
                    <polygon class="cls-13" points="28.951 15.231 26.314 16.754 28.936 18.277 31.574 16.754 28.951 15.231 28.951 15.231"/>
                    <polygon class="cls-10" points="26.33 13.708 23.692 15.231 26.314 16.754 28.951 15.231 26.33 13.708 26.33 13.708"/>
                    <polygon class="cls-10" points="23.71 12.186 21.071 13.708 23.692 15.231 26.33 13.708 23.71 12.186 23.71 12.186"/>
                    <polygon class="cls-13" points="21.089 10.663 18.451 12.185 21.071 13.708 23.71 12.186 21.089 10.663 21.089 10.663"/>
                    <polygon class="cls-13" points="18.466 9.139 15.828 10.662 18.451 12.185 21.089 10.663 18.466 9.139 18.466 9.139"/>
                    <polygon class="cls-13" points="47.281 28.939 44.644 30.463 47.266 31.986 49.903 30.463 47.281 28.939 47.281 28.939"/>
                    <polygon class="cls-13" points="44.66 27.416 42.022 28.939 44.644 30.463 47.281 28.939 44.66 27.416 44.66 27.416"/>
                    <polygon class="cls-10" points="42.039 25.892 39.4 27.416 42.022 28.939 44.66 27.416 42.039 25.892 42.039 25.892"/>
                    <polygon class="cls-11" points="39.419 24.369 36.781 25.893 39.4 27.416 42.039 25.892 39.419 24.369 39.419 24.369"/>
                    <polygon class="cls-15" points="36.797 22.847 34.158 24.369 36.781 25.893 39.419 24.369 36.797 22.847 36.797 22.847"/>
                    <polygon class="cls-11" points="34.178 21.324 31.538 22.848 34.158 24.369 36.797 22.847 34.178 21.324 34.178 21.324"/>
                    <polygon class="cls-10" points="31.558 19.801 28.918 21.324 31.538 22.848 34.178 21.324 31.558 19.801 31.558 19.801"/>
                    <polygon class="cls-13" points="28.936 18.277 26.298 19.801 28.918 21.324 31.558 19.801 28.936 18.277 28.936 18.277"/>
                    <polygon class="cls-11" points="26.314 16.754 23.675 18.277 26.298 19.801 28.936 18.277 26.314 16.754 26.314 16.754"/>
                    <polygon class="cls-13" points="23.692 15.231 21.055 16.754 23.675 18.277 26.314 16.754 23.692 15.231 23.692 15.231"/>
                    <polygon class="cls-11" points="21.071 13.708 18.436 15.231 21.055 16.754 23.692 15.231 21.071 13.708 21.071 13.708"/>
                    <polygon class="cls-13" points="18.451 12.185 15.813 13.708 18.436 15.231 21.071 13.708 18.451 12.185 18.451 12.185"/>
                    <polygon class="cls-10" points="15.828 10.662 13.191 12.185 15.813 13.708 18.451 12.185 15.828 10.662 15.828 10.662"/>
                    <polygon class="cls-13" points="44.644 30.463 42.004 31.986 44.627 33.509 47.266 31.986 44.644 30.463 44.644 30.463"/>
                    <polygon class="cls-10" points="42.022 28.939 39.384 30.463 42.004 31.986 44.644 30.463 42.022 28.939 42.022 28.939"/>
                    <polygon class="cls-15" points="39.4 27.416 36.762 28.939 39.384 30.463 42.022 28.939 39.4 27.416 39.4 27.416"/>
                    <polygon class="cls-15" points="36.781 25.893 34.142 27.416 36.762 28.939 39.4 27.416 36.781 25.893 36.781 25.893"/>
                    <polygon class="cls-13" points="34.158 24.369 31.52 25.893 34.142 27.416 36.781 25.893 34.158 24.369 34.158 24.369"/>
                    <polygon class="cls-10" points="31.538 22.848 28.9 24.371 31.52 25.893 34.158 24.369 31.538 22.848 31.538 22.848"/>
                    <polygon class="cls-13" points="28.918 21.324 26.279 22.848 28.9 24.371 31.538 22.848 28.918 21.324 28.918 21.324"/>
                    <polygon class="cls-10" points="26.298 19.801 23.658 21.324 26.279 22.848 28.918 21.324 26.298 19.801 26.298 19.801"/>
                    <polygon class="cls-13" points="23.675 18.277 21.037 19.801 23.658 21.324 26.298 19.801 23.675 18.277 23.675 18.277"/>
                    <polygon class="cls-13" points="21.055 16.754 18.416 18.277 21.037 19.801 23.675 18.277 21.055 16.754 21.055 16.754"/>
                    <polygon class="cls-10" points="18.436 15.231 15.795 16.754 18.416 18.277 21.055 16.754 18.436 15.231 18.436 15.231"/>
                    <polygon class="cls-13" points="15.813 13.708 13.175 15.231 15.795 16.754 18.436 15.231 15.813 13.708 15.813 13.708"/>
                    <polygon class="cls-11" points="13.191 12.185 10.554 13.708 13.175 15.231 15.813 13.708 13.191 12.185 13.191 12.185"/>
                    <polygon class="cls-11" points="42.004 31.986 39.367 33.509 41.989 35.033 44.627 33.509 42.004 31.986 42.004 31.986"/>
                    <polygon class="cls-13" points="39.384 30.463 36.746 31.985 39.367 33.509 42.004 31.986 39.384 30.463 39.384 30.463"/>
                    <polygon class="cls-10" points="36.762 28.939 34.125 30.462 36.746 31.985 39.384 30.463 36.762 28.939 36.762 28.939"/>
                    <polygon class="cls-13" points="34.142 27.416 31.505 28.939 34.125 30.462 36.762 28.939 34.142 27.416 34.142 27.416"/>
                    <polygon class="cls-11" points="31.52 25.893 28.883 27.416 31.505 28.939 34.142 27.416 31.52 25.893 31.52 25.893"/>
                    <polygon class="cls-13" points="28.9 24.371 26.263 25.893 28.883 27.416 31.52 25.893 28.9 24.371 28.9 24.371"/>
                    <polygon class="cls-11" points="26.279 22.848 23.644 24.371 26.263 25.893 28.9 24.371 26.279 22.848 26.279 22.848"/>
                    <polygon class="cls-13" points="23.658 21.324 21.021 22.848 23.644 24.371 26.279 22.848 23.658 21.324 23.658 21.324"/>
                    <polygon class="cls-13" points="21.037 19.801 18.4 21.324 21.021 22.848 23.658 21.324 21.037 19.801 21.037 19.801"/>
                    <polygon class="cls-11" points="18.416 18.277 15.779 19.801 18.4 21.324 21.037 19.801 18.416 18.277 18.416 18.277"/>
                    <polygon class="cls-15" points="15.795 16.754 13.159 18.277 15.779 19.801 18.416 18.277 15.795 16.754 15.795 16.754"/>
                    <polygon class="cls-11" points="13.175 15.231 10.536 16.754 13.159 18.277 15.795 16.754 13.175 15.231 13.175 15.231"/>
                    <polygon class="cls-13" points="10.554 13.708 7.916 15.231 10.536 16.754 13.175 15.231 10.554 13.708 10.554 13.708"/>
                    <polygon class="cls-13" points="39.367 33.509 36.731 35.033 39.351 36.556 41.989 35.033 39.367 33.509 39.367 33.509"/>
                    <polygon class="cls-13" points="36.746 31.985 34.108 33.509 36.731 35.033 39.367 33.509 36.746 31.985 36.746 31.985"/>
                    <polygon class="cls-13" points="34.125 30.462 31.484 31.985 34.108 33.509 36.746 31.985 34.125 30.462 34.125 30.462"/>
                    <polygon class="cls-15" points="31.505 28.939 28.866 30.463 31.484 31.985 34.125 30.462 31.505 28.939 31.505 28.939"/>
                    <polygon class="cls-13" points="28.883 27.416 26.246 28.939 28.866 30.463 31.505 28.939 28.883 27.416 28.883 27.416"/>
                    <polygon class="cls-10" points="26.263 25.893 23.625 27.416 26.246 28.939 28.883 27.416 26.263 25.893 26.263 25.893"/>
                    <polygon class="cls-13" points="23.644 24.371 21.005 25.895 23.625 27.416 26.263 25.893 23.644 24.371 23.644 24.371"/>
                    <polygon class="cls-10" points="21.021 22.848 18.383 24.371 21.005 25.895 23.644 24.371 21.021 22.848 21.021 22.848"/>
                    <polygon class="cls-11" points="18.4 21.324 15.763 22.848 18.383 24.371 21.021 22.848 18.4 21.324 18.4 21.324"/>
                    <polygon class="cls-13" points="15.779 19.801 13.14 21.324 15.763 22.848 18.4 21.324 15.779 19.801 15.779 19.801"/>
                    <polygon class="cls-13" points="13.159 18.277 10.52 19.801 13.14 21.324 15.779 19.801 13.159 18.277 13.159 18.277"/>
                    <polygon class="cls-10" points="10.536 16.754 7.898 18.277 10.52 19.801 13.159 18.277 10.536 16.754 10.536 16.754"/>
                    <polygon class="cls-13" points="7.916 15.231 5.277 16.754 7.898 18.277 10.536 16.754 7.916 15.231 7.916 15.231"/>
                    <polygon class="cls-13" points="36.731 35.033 34.092 36.556 36.711 38.08 39.351 36.556 36.731 35.033 36.731 35.033"/>
                    <polygon class="cls-10" points="34.108 33.509 31.468 35.033 34.092 36.556 36.731 35.033 34.108 33.509 34.108 33.509"/>
                    <polygon class="cls-13" points="31.484 31.985 28.848 33.509 31.468 35.033 34.108 33.509 31.484 31.985 31.484 31.985"/>
                    <polygon class="cls-11" points="28.866 30.463 26.226 31.986 28.848 33.509 31.484 31.985 28.866 30.463 28.866 30.463"/>
                    <polygon class="cls-13" points="26.246 28.939 23.606 30.463 26.226 31.986 28.866 30.463 26.246 28.939 26.246 28.939"/>
                    <polygon class="cls-10" points="23.625 27.416 20.985 28.939 23.606 30.463 26.246 28.939 23.625 27.416 23.625 27.416"/>
                    <polygon class="cls-15" points="21.005 25.895 18.366 27.418 20.985 28.939 23.625 27.416 21.005 25.895 21.005 25.895"/>
                    <polygon class="cls-13" points="18.383 24.371 15.743 25.895 18.366 27.418 21.005 25.895 18.383 24.371 18.383 24.371"/>
                    <polygon class="cls-13" points="15.763 22.848 13.123 24.371 15.743 25.895 18.383 24.371 15.763 22.848 15.763 22.848"/>
                    <polygon class="cls-10" points="13.14 21.324 10.501 22.848 13.123 24.371 15.763 22.848 13.14 21.324 13.14 21.324"/>
                    <polygon class="cls-13" points="10.52 19.801 7.881 21.324 10.501 22.848 13.14 21.324 10.52 19.801 10.52 19.801"/>
                    <polygon class="cls-13" points="7.898 18.277 5.259 19.801 7.881 21.324 10.52 19.801 7.898 18.277 7.898 18.277"/>
                    <polygon class="cls-15" points="5.277 16.754 2.639 18.277 5.259 19.801 7.898 18.277 5.277 16.754 5.277 16.754"/>
                    <polygon class="cls-13" points="34.092 36.556 31.453 38.079 34.073 39.602 36.711 38.08 34.092 36.556 34.092 36.556"/>
                    <polygon class="cls-10" points="31.468 35.033 28.831 36.555 31.453 38.079 34.092 36.556 31.468 35.033 31.468 35.033"/>
                    <polygon class="cls-13" points="28.848 33.509 26.21 35.031 28.831 36.555 31.468 35.033 28.848 33.509 28.848 33.509"/>
                    <polygon class="cls-13" points="26.226 31.986 23.59 33.509 26.21 35.031 28.848 33.509 26.226 31.986 26.226 31.986"/>
                    <polygon class="cls-11" points="23.606 30.463 20.969 31.985 23.59 33.509 26.226 31.986 23.606 30.463 23.606 30.463"/>
                    <polygon class="cls-13" points="20.985 28.939 18.348 30.463 20.969 31.985 23.606 30.463 20.985 28.939 20.985 28.939"/>
                    <polygon class="cls-13" points="18.366 27.418 15.729 28.939 18.348 30.463 20.985 28.939 18.366 27.418 18.366 27.418"/>
                    <polygon class="cls-11" points="15.743 25.895 13.106 27.416 15.729 28.939 18.366 27.418 15.743 25.895 15.743 25.895"/>
                    <polygon class="cls-13" points="13.123 24.371 10.485 25.893 13.106 27.416 15.743 25.895 13.123 24.371 13.123 24.371"/>
                    <polygon class="cls-13" points="10.501 22.848 7.863 24.369 10.485 25.893 13.123 24.371 10.501 22.848 10.501 22.848"/>
                    <polygon class="cls-11" points="7.881 21.324 5.244 22.848 7.863 24.369 10.501 22.848 7.881 21.324 7.881 21.324"/>
                    <polygon class="cls-13" points="5.259 19.801 2.622 21.324 5.244 22.848 7.881 21.324 5.259 19.801 5.259 19.801"/>
                    <polygon class="cls-13" points="2.639 18.277 0 19.801 2.622 21.324 5.259 19.801 2.639 18.277 2.639 18.277"/>
                  </g>
                </g>
              </g>
            </g>
            <g>
              <polygon class="cls-18" points="68.366 19.801 68.479 59.209 34.185 79.008 34.073 39.601 68.366 19.801"/>
              <polygon class="cls-19" points="34.185 79.008 0.114 59.209 0.001 19.8 34.073 39.601 34.185 79.008"/>
              <polygon class="cls-20" points="34.073 39.601 0.001 19.8 34.295 0.001 68.366 19.801 34.073 39.601"/>
            </g>
          </g>
          <polygon class="cls-21" points="34.073 39.601 0.001 19.8 34.295 0.001 68.366 19.801 34.073 39.601"/>
          <polygon class="cls-22" points="68.378 25.868 68.37 22.835 68.359 19.806 65.722 21.331 63.085 22.853 60.447 24.375 57.809 25.899 55.17 27.422 52.531 28.946 49.893 30.468 47.256 31.991 44.618 33.515 41.982 35.037 39.343 36.561 36.704 38.084 34.065 39.607 34.082 45.667 34.082 45.667 34.082 45.667 36.721 44.145 36.713 41.112 39.351 39.589 39.36 42.621 41.998 41.097 42.006 44.129 44.643 42.608 44.634 39.576 47.272 38.052 47.28 41.084 49.921 39.561 52.558 38.038 52.55 35.006 55.187 33.483 55.18 30.451 57.816 28.928 57.826 31.959 57.835 34.991 60.473 33.468 63.109 31.946 63.101 28.914 65.738 27.391 68.378 25.868"/>
        </g>
      </g>
    </g>
  </g>
</svg>
