<svg xmlns="http://www.w3.org/2000/svg" xmlns:xlink="http://www.w3.org/1999/xlink" viewBox="0 0 68.4815 79.0093">
  <defs>
    <style>
      .cls-1 {
        fill: #323232;
      }

      .cls-2 {
        fill: #454545;
      }

      .cls-3 {
        fill: #575757;
      }

      .cls-4 {
        isolation: isolate;
      }

      .cls-5 {
        clip-path: url(#clip-path);
      }

      .cls-6 {
        fill: #e6f5ff;
      }

      .cls-7 {
        fill: #d4efff;
      }

      .cls-8 {
        fill: #fff;
      }

      .cls-9 {
        fill: #b9e7ff;
      }

      .cls-10 {
        fill: #ccedff;
      }

      .cls-11 {
        clip-path: url(#clip-path-2);
      }

      .cls-12 {
        clip-path: url(#clip-path-3);
      }

      .cls-13 {
        opacity: 0.4;
        mix-blend-mode: multiply;
        fill: url(#linear-gradient);
      }

      .cls-14 {
        fill: #616161;
        opacity: 0.1;
      }

      .cls-14, .cls-15 {
        mix-blend-mode: color-dodge;
      }

      .cls-15 {
        opacity: 0.5;
        fill: url(#linear-gradient-2);
      }
    </style>
    <clipPath id="clip-path" transform="translate(0.002 0.00048)">
      <polygon class="cls-1" points="68.366 19.8 68.479 59.209 34.185 79.008 34.071 39.601 68.366 19.8"/>
    </clipPath>
    <clipPath id="clip-path-2" transform="translate(0.002 0.00048)">
      <polygon class="cls-2" points="34.185 79.008 0.11 59.209 0 19.8 34.071 39.601 34.185 79.008"/>
    </clipPath>
    <clipPath id="clip-path-3" transform="translate(0.002 0.00048)">
      <polygon class="cls-3" points="34.071 39.601 0 19.8 34.295 0 68.366 19.8 34.071 39.601"/>
    </clipPath>
    <linearGradient id="linear-gradient" x1="13.75849" y1="29.57945" x2="67.69363" y2="58.07929" gradientUnits="userSpaceOnUse">
      <stop offset="0" stop-color="#fff"/>
      <stop offset="0.10549" stop-color="#dceaea"/>
      <stop offset="0.35664" stop-color="#8fbcba"/>
      <stop offset="0.58058" stop-color="#529795"/>
      <stop offset="0.76909" stop-color="#257c7a"/>
      <stop offset="0.91475" stop-color="#0a6c69"/>
      <stop offset="1" stop-color="#006663"/>
    </linearGradient>
    <linearGradient id="linear-gradient-2" x1="-20.42901" y1="-34.81331" x2="133.50008" y2="119.11578" gradientUnits="userSpaceOnUse">
      <stop offset="0" stop-color="#dbd5ee"/>
      <stop offset="1"/>
    </linearGradient>
  </defs>
  <g class="cls-4">
    <g id="Layer_2" data-name="Layer 2">
      <g id="Layer_1-2" data-name="Layer 1">
        <g id="_4" data-name="4">
          <g class="cls-4">
            <g class="cls-4">
              <polygon class="cls-1" points="68.368 19.801 68.481 59.209 34.187 79.008 34.073 39.601 68.368 19.801"/>
              <g class="cls-5">
                <g>
                  <polygon class="cls-6" points="68.472 56.177 65.832 57.702 65.841 60.733 68.481 59.21 68.472 56.177 68.472 56.177"/>
                  <polygon class="cls-6" points="68.463 53.146 65.824 54.669 65.832 57.702 68.472 56.177 68.463 53.146 68.463 53.146"/>
                  <polygon class="cls-6" points="68.455 50.114 65.815 51.636 65.824 54.669 68.463 53.146 68.455 50.114 68.455 50.114"/>
                  <polygon class="cls-6" points="68.444 47.083 65.808 48.607 65.815 51.636 68.455 50.114 68.444 47.083 68.444 47.083"/>
                  <polygon class="cls-6" points="68.437 44.052 65.798 45.575 65.808 48.607 68.444 47.083 68.437 44.052 68.437 44.052"/>
                  <polygon class="cls-7" points="68.429 41.02 65.789 42.542 65.798 45.575 68.437 44.052 68.429 41.02 68.429 41.02"/>
                  <polygon class="cls-8" points="68.42 37.987 65.781 39.511 65.789 42.542 68.429 41.02 68.42 37.987 68.42 37.987"/>
                  <polygon class="cls-6" points="68.412 34.958 65.772 36.481 65.781 39.511 68.42 37.987 68.412 34.958 68.412 34.958"/>
                  <polygon class="cls-7" points="68.401 31.926 65.765 33.45 65.772 36.481 68.412 34.958 68.401 31.926 68.401 31.926"/>
                  <polygon class="cls-6" points="68.394 28.895 65.756 30.418 65.765 33.45 68.401 31.926 68.394 28.895 68.394 28.895"/>
                  <polygon class="cls-7" points="68.386 25.864 65.748 27.388 65.756 30.418 68.394 28.895 68.386 25.864 68.386 25.864"/>
                  <polygon class="cls-9" points="68.378 22.832 65.739 24.356 65.748 27.388 68.386 25.864 68.378 22.832 68.378 22.832"/>
                  <polygon class="cls-6" points="68.368 19.8 65.729 21.323 65.739 24.356 68.378 22.832 68.368 19.8 68.368 19.8"/>
                  <polygon class="cls-7" points="65.832 57.702 63.194 59.223 63.204 62.256 65.841 60.733 65.832 57.702 65.832 57.702"/>
                  <polygon class="cls-6" points="65.824 54.669 63.187 56.191 63.194 59.223 65.832 57.702 65.824 54.669 65.824 54.669"/>
                  <polygon class="cls-8" points="65.815 51.636 63.179 53.16 63.187 56.191 65.824 54.669 65.815 51.636 65.815 51.636"/>
                  <polygon class="cls-6" points="65.808 48.607 63.171 50.129 63.179 53.16 65.815 51.636 65.808 48.607 65.808 48.607"/>
                  <polygon class="cls-7" points="65.798 45.575 63.161 47.097 63.171 50.129 65.808 48.607 65.798 45.575 65.798 45.575"/>
                  <polygon class="cls-9" points="65.789 42.542 63.152 44.065 63.161 47.097 65.798 45.575 65.789 42.542 65.789 42.542"/>
                  <polygon class="cls-6" points="65.781 39.511 63.145 41.033 63.152 44.065 65.789 42.542 65.781 39.511 65.781 39.511"/>
                  <polygon class="cls-7" points="65.772 36.481 63.136 38.005 63.145 41.033 65.781 39.511 65.772 36.481 65.772 36.481"/>
                  <polygon class="cls-8" points="65.765 33.45 63.128 34.972 63.136 38.005 65.772 36.481 65.765 33.45 65.765 33.45"/>
                  <polygon class="cls-7" points="65.756 30.418 63.118 31.94 63.128 34.972 65.765 33.45 65.756 30.418 65.756 30.418"/>
                  <polygon class="cls-6" points="65.748 27.388 63.109 28.911 63.118 31.94 65.756 30.418 65.748 27.388 65.748 27.388"/>
                  <polygon class="cls-8" points="65.739 24.356 63.101 25.878 63.109 28.911 65.748 27.388 65.739 24.356 65.739 24.356"/>
                  <polygon class="cls-7" points="65.729 21.323 63.093 22.847 63.101 25.878 65.739 24.356 65.729 21.323 65.729 21.323"/>
                  <polygon class="cls-6" points="63.194 59.223 60.558 60.747 60.565 63.778 63.204 62.256 63.194 59.223 63.194 59.223"/>
                  <polygon class="cls-6" points="63.187 56.191 60.549 57.716 60.558 60.747 63.194 59.223 63.187 56.191 63.187 56.191"/>
                  <polygon class="cls-6" points="63.179 53.16 60.539 54.682 60.549 57.716 63.187 56.191 63.179 53.16 63.179 53.16"/>
                  <polygon class="cls-7" points="63.171 50.129 60.531 51.653 60.539 54.682 63.179 53.16 63.171 50.129 63.171 50.129"/>
                  <polygon class="cls-6" points="63.161 47.097 60.523 48.621 60.531 51.653 63.171 50.129 63.161 47.097 63.161 47.097"/>
                  <polygon class="cls-8" points="63.152 44.065 60.514 45.588 60.523 48.621 63.161 47.097 63.152 44.065 63.152 44.065"/>
                  <polygon class="cls-6" points="63.145 41.033 60.506 42.557 60.514 45.588 63.152 44.065 63.145 41.033 63.145 41.033"/>
                  <polygon class="cls-6" points="63.136 38.005 60.498 39.528 60.506 42.557 63.145 41.033 63.136 38.005 63.136 38.005"/>
                  <polygon class="cls-6" points="63.128 34.972 60.489 36.496 60.498 39.528 63.136 38.005 63.128 34.972 63.128 34.972"/>
                  <polygon class="cls-9" points="63.118 31.94 60.479 33.464 60.489 36.496 63.128 34.972 63.118 31.94 63.118 31.94"/>
                  <polygon class="cls-8" points="63.109 28.911 60.471 30.434 60.479 33.464 63.118 31.94 63.109 28.911 63.109 28.911"/>
                  <polygon class="cls-6" points="63.101 25.878 60.462 27.402 60.471 30.434 63.109 28.911 63.101 25.878 63.101 25.878"/>
                  <polygon class="cls-6" points="63.093 22.847 60.454 24.369 60.462 27.402 63.101 25.878 63.093 22.847 63.093 22.847"/>
                  <polygon class="cls-8" points="60.558 60.747 57.919 62.271 57.927 65.302 60.565 63.778 60.558 60.747 60.558 60.747"/>
                  <polygon class="cls-6" points="60.549 57.716 57.909 59.239 57.919 62.271 60.558 60.747 60.549 57.716 60.549 57.716"/>
                  <polygon class="cls-6" points="60.539 54.682 57.901 56.206 57.909 59.239 60.549 57.716 60.539 54.682 60.539 54.682"/>
                  <polygon class="cls-9" points="60.531 51.653 57.894 53.176 57.901 56.206 60.539 54.682 60.531 51.653 60.531 51.653"/>
                  <polygon class="cls-6" points="60.523 48.621 57.885 50.144 57.894 53.176 60.531 51.653 60.523 48.621 60.523 48.621"/>
                  <polygon class="cls-6" points="60.514 45.588 57.876 47.113 57.885 50.144 60.523 48.621 60.514 45.588 60.514 45.588"/>
                  <polygon class="cls-10" points="60.506 42.557 57.866 44.08 57.876 47.113 60.514 45.588 60.506 42.557 60.506 42.557"/>
                  <polygon class="cls-8" points="60.498 39.528 57.857 41.052 57.866 44.08 60.506 42.557 60.498 39.528 60.498 39.528"/>
                  <polygon class="cls-6" points="60.489 36.496 57.85 38.019 57.857 41.052 60.498 39.528 60.489 36.496 60.489 36.496"/>
                  <polygon class="cls-7" points="60.479 33.464 57.841 34.988 57.85 38.019 60.489 36.496 60.479 33.464 60.479 33.464"/>
                  <polygon class="cls-6" points="60.471 30.434 57.832 31.958 57.841 34.988 60.479 33.464 60.471 30.434 60.471 30.434"/>
                  <polygon class="cls-7" points="60.462 27.402 57.824 28.925 57.832 31.958 60.471 30.434 60.462 27.402 60.462 27.402"/>
                  <polygon class="cls-9" points="60.454 24.369 57.816 25.893 57.824 28.925 60.462 27.402 60.454 24.369 60.454 24.369"/>
                  <polygon class="cls-6" points="57.919 62.271 55.281 63.792 55.29 66.826 57.927 65.302 57.919 62.271 57.919 62.271"/>
                  <polygon class="cls-6" points="57.909 59.239 55.272 60.761 55.281 63.792 57.919 62.271 57.909 59.239 57.909 59.239"/>
                  <polygon class="cls-10" points="57.901 56.206 55.265 57.729 55.272 60.761 57.909 59.239 57.901 56.206 57.901 56.206"/>
                  <polygon class="cls-6" points="57.894 53.176 55.256 54.699 55.265 57.729 57.901 56.206 57.894 53.176 57.894 53.176"/>
                  <polygon class="cls-8" points="57.885 50.144 55.247 51.667 55.256 54.699 57.894 53.176 57.885 50.144 57.885 50.144"/>
                  <polygon class="cls-10" points="57.876 47.113 55.237 48.634 55.247 51.667 57.885 50.144 57.876 47.113 57.876 47.113"/>
                  <polygon class="cls-6" points="57.866 44.08 55.229 45.603 55.237 48.634 57.876 47.113 57.866 44.08 57.866 44.08"/>
                  <polygon class="cls-6" points="57.857 41.052 55.221 42.574 55.229 45.603 57.866 44.08 57.857 41.052 57.857 41.052"/>
                  <polygon class="cls-6" points="57.85 38.019 55.213 39.541 55.221 42.574 57.857 41.052 57.85 38.019 57.85 38.019"/>
                  <polygon class="cls-6" points="57.841 34.988 55.204 36.51 55.213 39.541 57.85 38.019 57.841 34.988 57.841 34.988"/>
                  <polygon class="cls-7" points="57.832 31.958 55.195 33.479 55.204 36.51 57.841 34.988 57.832 31.958 57.832 31.958"/>
                  <polygon class="cls-6" points="57.824 28.925 55.187 30.447 55.195 33.479 57.832 31.958 57.824 28.925 57.824 28.925"/>
                  <polygon class="cls-8" points="57.816 25.893 55.178 27.416 55.187 30.447 57.824 28.925 57.816 25.893 57.816 25.893"/>
                  <polygon class="cls-6" points="55.281 63.792 52.645 65.315 52.652 68.348 55.29 66.826 55.281 63.792 55.281 63.792"/>
                  <polygon class="cls-7" points="55.272 60.761 52.636 62.283 52.645 65.315 55.281 63.792 55.272 60.761 55.272 60.761"/>
                  <polygon class="cls-8" points="55.265 57.729 52.627 59.252 52.636 62.283 55.272 60.761 55.265 57.729 55.265 57.729"/>
                  <polygon class="cls-6" points="55.256 54.699 52.619 56.221 52.627 59.252 55.265 57.729 55.256 54.699 55.256 54.699"/>
                  <polygon class="cls-6" points="55.247 51.667 52.609 53.189 52.619 56.221 55.256 54.699 55.247 51.667 55.247 51.667"/>
                  <polygon class="cls-6" points="55.237 48.634 52.601 50.157 52.609 53.189 55.247 51.667 55.237 48.634 55.237 48.634"/>
                  <polygon class="cls-7" points="55.229 45.603 52.592 47.125 52.601 50.157 55.237 48.634 55.229 45.603 55.229 45.603"/>
                  <polygon class="cls-6" points="55.221 42.574 52.584 44.096 52.592 47.125 55.229 45.603 55.221 42.574 55.221 42.574"/>
                  <polygon class="cls-7" points="55.213 39.541 52.575 41.065 52.584 44.096 55.221 42.574 55.213 39.541 55.213 39.541"/>
                  <polygon class="cls-6" points="55.204 36.51 52.567 38.032 52.575 41.065 55.213 39.541 55.204 36.51 55.204 36.51"/>
                  <polygon class="cls-6" points="55.195 33.479 52.56 35.002 52.567 38.032 55.204 36.51 55.195 33.479 55.195 33.479"/>
                  <polygon class="cls-8" points="55.187 30.447 52.549 31.971 52.56 35.002 55.195 33.479 55.187 30.447 55.187 30.447"/>
                  <polygon class="cls-6" points="55.178 27.416 52.541 28.938 52.549 31.971 55.187 30.447 55.178 27.416 55.178 27.416"/>
                  <polygon class="cls-7" points="52.645 65.315 50.007 66.838 50.015 69.87 52.652 68.348 52.645 65.315 52.645 65.315"/>
                  <polygon class="cls-6" points="52.636 62.283 49.995 63.807 50.007 66.838 52.645 65.315 52.636 62.283 52.636 62.283"/>
                  <polygon class="cls-9" points="52.627 59.252 49.987 60.775 49.995 63.807 52.636 62.283 52.627 59.252 52.627 59.252"/>
                  <polygon class="cls-6" points="52.619 56.221 49.979 57.745 49.987 60.775 52.627 59.252 52.619 56.221 52.619 56.221"/>
                  <polygon class="cls-7" points="52.609 53.189 49.971 54.713 49.979 57.745 52.619 56.221 52.609 53.189 52.609 53.189"/>
                  <polygon class="cls-6" points="52.601 50.157 49.963 51.68 49.971 54.713 52.609 53.189 52.601 50.157 52.601 50.157"/>
                  <polygon class="cls-8" points="52.592 47.125 49.954 48.648 49.963 51.68 52.601 50.157 52.592 47.125 52.592 47.125"/>
                  <polygon class="cls-6" points="52.584 44.096 49.945 45.62 49.954 48.648 52.592 47.125 52.584 44.096 52.584 44.096"/>
                  <polygon class="cls-9" points="52.575 41.065 49.937 42.588 49.945 45.62 52.584 44.096 52.575 41.065 52.575 41.065"/>
                  <polygon class="cls-8" points="52.567 38.032 49.929 39.556 49.937 42.588 52.575 41.065 52.567 38.032 52.567 38.032"/>
                  <polygon class="cls-6" points="52.56 35.002 49.919 36.526 49.929 39.556 52.567 38.032 52.56 35.002 52.56 35.002"/>
                  <polygon class="cls-7" points="52.549 31.971 49.911 33.494 49.919 36.526 52.56 35.002 52.549 31.971 52.549 31.971"/>
                  <polygon class="cls-9" points="52.541 28.938 49.903 30.461 49.911 33.494 52.549 31.971 52.541 28.938 52.541 28.938"/>
                  <polygon class="cls-6" points="50.007 66.838 47.367 68.362 47.377 71.394 50.015 69.87 50.007 66.838 50.007 66.838"/>
                  <polygon class="cls-10" points="49.995 63.807 47.359 65.33 47.367 68.362 50.007 66.838 49.995 63.807 49.995 63.807"/>
                  <polygon class="cls-6" points="49.987 60.775 47.351 62.297 47.359 65.33 49.995 63.807 49.987 60.775 49.987 60.775"/>
                  <polygon class="cls-7" points="49.979 57.745 47.342 59.268 47.351 62.297 49.987 60.775 49.979 57.745 49.979 57.745"/>
                  <polygon class="cls-6" points="49.971 54.713 47.334 56.235 47.342 59.268 49.979 57.745 49.971 54.713 49.971 54.713"/>
                  <polygon class="cls-9" points="49.963 51.68 47.325 53.204 47.334 56.235 49.971 54.713 49.963 51.68 49.963 51.68"/>
                  <polygon class="cls-6" points="49.954 48.648 47.315 50.171 47.325 53.204 49.963 51.68 49.954 48.648 49.954 48.648"/>
                  <polygon class="cls-9" points="49.945 45.62 47.308 47.143 47.315 50.171 49.954 48.648 49.945 45.62 49.945 45.62"/>
                  <polygon class="cls-6" points="49.937 42.588 47.299 44.11 47.308 47.143 49.945 45.62 49.937 42.588 49.937 42.588"/>
                  <polygon class="cls-6" points="49.929 39.556 47.291 41.079 47.299 44.11 49.937 42.588 49.929 39.556 49.929 39.556"/>
                  <polygon class="cls-7" points="49.919 36.526 47.283 38.048 47.291 41.079 49.929 39.556 49.919 36.526 49.919 36.526"/>
                  <polygon class="cls-6" points="49.911 33.494 47.274 35.016 47.283 38.048 49.919 36.526 49.911 33.494 49.911 33.494"/>
                  <polygon class="cls-6" points="49.903 30.461 47.266 31.984 47.274 35.016 49.911 33.494 49.903 30.461 49.903 30.461"/>
                  <polygon class="cls-10" points="47.367 68.362 44.729 69.885 44.737 72.916 47.377 71.394 47.367 68.362 47.367 68.362"/>
                  <polygon class="cls-8" points="47.359 65.33 44.722 66.853 44.729 69.885 47.367 68.362 47.359 65.33 47.359 65.33"/>
                  <polygon class="cls-10" points="47.351 62.297 44.712 63.821 44.722 66.853 47.359 65.33 47.351 62.297 47.351 62.297"/>
                  <polygon class="cls-6" points="47.342 59.268 44.703 60.791 44.712 63.821 47.351 62.297 47.342 59.268 47.342 59.268"/>
                  <polygon class="cls-8" points="47.334 56.235 44.695 57.759 44.703 60.791 47.342 59.268 47.334 56.235 47.334 56.235"/>
                  <polygon class="cls-6" points="47.325 53.204 44.687 54.727 44.695 57.759 47.334 56.235 47.325 53.204 47.325 53.204"/>
                  <polygon class="cls-6" points="47.315 50.171 44.679 51.694 44.687 54.727 47.325 53.204 47.315 50.171 47.315 50.171"/>
                  <polygon class="cls-8" points="47.308 47.143 44.669 48.666 44.679 51.694 47.315 50.171 47.308 47.143 47.308 47.143"/>
                  <polygon class="cls-7" points="47.299 44.11 44.661 45.635 44.669 48.666 47.308 47.143 47.299 44.11 47.299 44.11"/>
                  <polygon class="cls-10" points="47.291 41.079 44.653 42.602 44.661 45.635 47.299 44.11 47.291 41.079 47.291 41.079"/>
                  <polygon class="cls-6" points="47.283 38.048 44.643 39.572 44.653 42.602 47.291 41.079 47.283 38.048 47.283 38.048"/>
                  <polygon class="cls-9" points="47.274 35.016 44.634 36.54 44.643 39.572 47.283 38.048 47.274 35.016 47.274 35.016"/>
                  <polygon class="cls-8" points="47.266 31.984 44.626 33.508 44.634 36.54 47.274 35.016 47.266 31.984 47.266 31.984"/>
                  <polygon class="cls-6" points="44.729 69.885 42.091 71.408 42.1 74.44 44.737 72.916 44.729 69.885 44.729 69.885"/>
                  <polygon class="cls-9" points="44.722 66.853 42.083 68.376 42.091 71.408 44.729 69.885 44.722 66.853 44.722 66.853"/>
                  <polygon class="cls-6" points="44.712 63.821 42.073 65.344 42.083 68.376 44.722 66.853 44.712 63.821 44.712 63.821"/>
                  <polygon class="cls-9" points="44.703 60.791 42.064 62.314 42.073 65.344 44.712 63.821 44.703 60.791 44.703 60.791"/>
                  <polygon class="cls-6" points="44.695 57.759 42.057 59.282 42.064 62.314 44.703 60.791 44.695 57.759 44.695 57.759"/>
                  <polygon class="cls-6" points="44.687 54.727 42.049 56.25 42.057 59.282 44.695 57.759 44.687 54.727 44.687 54.727"/>
                  <polygon class="cls-9" points="44.679 51.694 42.04 53.218 42.049 56.25 44.687 54.727 44.679 51.694 44.679 51.694"/>
                  <polygon class="cls-6" points="44.669 48.666 42.032 50.19 42.04 53.218 44.679 51.694 44.669 48.666 44.669 48.666"/>
                  <polygon class="cls-10" points="44.661 45.635 42.021 47.158 42.032 50.19 44.669 48.666 44.661 45.635 44.661 45.635"/>
                  <polygon class="cls-6" points="44.653 42.602 42.013 44.125 42.021 47.158 44.661 45.635 44.653 42.602 44.653 42.602"/>
                  <polygon class="cls-6" points="44.643 39.572 42.005 41.095 42.013 44.125 44.653 42.602 44.643 39.572 44.643 39.572"/>
                  <polygon class="cls-6" points="44.634 36.54 41.997 38.063 42.005 41.095 44.643 39.572 44.634 36.54 44.634 36.54"/>
                  <polygon class="cls-6" points="44.626 33.508 41.987 35.031 41.997 38.063 44.634 36.54 44.626 33.508 44.626 33.508"/>
                  <polygon class="cls-9" points="42.091 71.408 39.452 72.932 39.46 75.963 42.1 74.44 42.091 71.408 42.091 71.408"/>
                  <polygon class="cls-6" points="42.083 68.376 39.444 69.9 39.452 72.932 42.091 71.408 42.083 68.376 42.083 68.376"/>
                  <polygon class="cls-7" points="42.073 65.344 39.436 66.867 39.444 69.9 42.083 68.376 42.073 65.344 42.073 65.344"/>
                  <polygon class="cls-10" points="42.064 62.314 39.427 63.839 39.436 66.867 42.073 65.344 42.064 62.314 42.064 62.314"/>
                  <polygon class="cls-8" points="42.057 59.282 39.419 60.805 39.427 63.839 42.064 62.314 42.057 59.282 42.057 59.282"/>
                  <polygon class="cls-6" points="42.049 56.25 39.41 57.773 39.419 60.805 42.057 59.282 42.049 56.25 42.049 56.25"/>
                  <polygon class="cls-7" points="42.04 53.218 39.4 54.743 39.41 57.773 42.049 56.25 42.04 53.218 42.04 53.218"/>
                  <polygon class="cls-6" points="42.032 50.19 39.392 51.713 39.4 54.743 42.04 53.218 42.032 50.19 42.032 50.19"/>
                  <polygon class="cls-8" points="42.021 47.158 39.383 48.682 39.392 51.713 42.032 50.19 42.021 47.158 42.021 47.158"/>
                  <polygon class="cls-9" points="42.013 44.125 39.375 45.648 39.383 48.682 42.021 47.158 42.013 44.125 42.013 44.125"/>
                  <polygon class="cls-8" points="42.005 41.095 39.367 42.619 39.375 45.648 42.013 44.125 42.005 41.095 42.005 41.095"/>
                  <polygon class="cls-7" points="41.997 38.063 39.358 39.586 39.367 42.619 42.005 41.095 41.997 38.063 41.997 38.063"/>
                  <polygon class="cls-6" points="41.987 35.031 39.35 36.554 39.358 39.586 41.997 38.063 41.987 35.031 41.987 35.031"/>
                  <polygon class="cls-8" points="39.452 72.932 36.815 74.455 36.823 77.487 39.46 75.963 39.452 72.932 39.452 72.932"/>
                  <polygon class="cls-7" points="39.444 69.9 36.807 71.422 36.815 74.455 39.452 72.932 39.444 69.9 39.444 69.9"/>
                  <polygon class="cls-6" points="39.436 66.867 36.799 68.391 36.807 71.422 39.444 69.9 39.436 66.867 39.436 66.867"/>
                  <polygon class="cls-9" points="39.427 63.839 36.79 65.36 36.799 68.391 39.436 66.867 39.427 63.839 39.427 63.839"/>
                  <polygon class="cls-6" points="39.419 60.805 36.779 62.329 36.79 65.36 39.427 63.839 39.419 60.805 39.419 60.805"/>
                  <polygon class="cls-7" points="39.41 57.773 36.771 59.296 36.779 62.329 39.419 60.805 39.41 57.773 39.41 57.773"/>
                  <polygon class="cls-6" points="39.4 54.743 36.764 56.264 36.771 59.296 39.41 57.773 39.4 54.743 39.4 54.743"/>
                  <polygon class="cls-6" points="39.392 51.713 36.755 53.235 36.764 56.264 39.4 54.743 39.392 51.713 39.392 51.713"/>
                  <polygon class="cls-9" points="39.383 48.682 36.746 50.204 36.755 53.235 39.392 51.713 39.383 48.682 39.383 48.682"/>
                  <polygon class="cls-8" points="39.375 45.648 36.738 47.171 36.746 50.204 39.383 48.682 39.375 45.648 39.375 45.648"/>
                  <polygon class="cls-6" points="39.367 42.619 36.729 44.141 36.738 47.171 39.375 45.648 39.367 42.619 39.367 42.619"/>
                  <polygon class="cls-6" points="39.358 39.586 36.721 41.109 36.729 44.141 39.367 42.619 39.358 39.586 39.358 39.586"/>
                  <polygon class="cls-8" points="39.35 36.554 36.712 38.078 36.721 41.109 39.358 39.586 39.35 36.554 39.35 36.554"/>
                  <polygon class="cls-6" points="36.815 74.455 34.177 75.977 34.187 79.009 36.823 77.487 36.815 74.455 36.815 74.455"/>
                  <polygon class="cls-6" points="36.807 71.422 34.167 72.947 34.177 75.977 36.815 74.455 36.807 71.422 36.807 71.422"/>
                  <polygon class="cls-10" points="36.799 68.391 34.159 69.914 34.167 72.947 36.807 71.422 36.799 68.391 36.799 68.391"/>
                  <polygon class="cls-8" points="36.79 65.36 34.149 66.884 34.159 69.914 36.799 68.391 36.79 65.36 36.79 65.36"/>
                  <polygon class="cls-6" points="36.779 62.329 34.142 63.852 34.149 66.884 36.79 65.36 36.779 62.329 36.779 62.329"/>
                  <polygon class="cls-6" points="36.771 59.296 34.133 60.819 34.142 63.852 36.779 62.329 36.771 59.296 36.771 59.296"/>
                  <polygon class="cls-8" points="36.764 56.264 34.125 57.788 34.133 60.819 36.771 59.296 36.764 56.264 36.764 56.264"/>
                  <polygon class="cls-6" points="36.755 53.235 34.117 54.759 34.125 57.788 36.764 56.264 36.755 53.235 36.755 53.235"/>
                  <polygon class="cls-6" points="36.746 50.204 34.106 51.727 34.117 54.759 36.755 53.235 36.746 50.204 36.746 50.204"/>
                  <polygon class="cls-7" points="36.738 47.171 34.099 48.695 34.106 51.727 36.746 50.204 36.738 47.171 36.738 47.171"/>
                  <polygon class="cls-8" points="36.729 44.141 34.091 45.664 34.099 48.695 36.738 47.171 36.729 44.141 36.729 44.141"/>
                  <polygon class="cls-6" points="36.721 41.109 34.083 42.632 34.091 45.664 36.729 44.141 36.721 41.109 36.721 41.109"/>
                  <polygon class="cls-6" points="36.712 38.078 34.073 39.601 34.083 42.632 36.721 41.109 36.712 38.078 36.712 38.078"/>
                </g>
              </g>
            </g>
            <g class="cls-4">
              <polygon class="cls-2" points="34.187 79.008 0.112 59.209 0.002 19.801 34.073 39.601 34.187 79.008"/>
              <g class="cls-11">
                <g>
                  <polygon class="cls-6" points="31.453 38.079 31.462 41.11 34.084 42.634 34.075 39.602 31.453 38.079 31.453 38.079"/>
                  <polygon class="cls-6" points="28.831 36.555 28.841 39.587 31.462 41.11 31.453 38.079 28.831 36.555 28.831 36.555"/>
                  <polygon class="cls-6" points="26.211 35.032 26.217 38.063 28.841 39.587 28.831 36.555 26.211 35.032 26.211 35.032"/>
                  <polygon class="cls-6" points="23.591 33.509 23.6 36.541 26.217 38.063 26.211 35.032 23.591 33.509 23.591 33.509"/>
                  <polygon class="cls-6" points="20.968 31.985 20.978 35.018 23.6 36.541 23.591 33.509 20.968 31.985 20.968 31.985"/>
                  <polygon class="cls-7" points="18.347 30.462 18.354 33.494 20.978 35.018 20.968 31.985 18.347 30.462 18.347 30.462"/>
                  <polygon class="cls-8" points="15.725 28.938 15.733 31.971 18.354 33.494 18.347 30.462 15.725 28.938 15.725 28.938"/>
                  <polygon class="cls-6" points="13.108 27.416 13.116 30.449 15.733 31.971 15.725 28.938 13.108 27.416 13.108 27.416"/>
                  <polygon class="cls-7" points="10.485 25.893 10.495 28.925 13.116 30.449 13.108 27.416 10.485 25.893 10.485 25.893"/>
                  <polygon class="cls-6" points="7.863 24.369 7.872 27.402 10.495 28.925 10.485 25.893 7.863 24.369 7.863 24.369"/>
                  <polygon class="cls-7" points="5.243 22.848 5.253 25.879 7.872 27.402 7.863 24.369 5.243 22.848 5.243 22.848"/>
                  <polygon class="cls-9" points="2.623 21.324 2.631 24.356 5.253 25.879 5.243 22.848 2.623 21.324 2.623 21.324"/>
                  <polygon class="cls-6" points="0 19.801 0.009 22.832 2.631 24.356 2.623 21.324 0 19.801 0 19.801"/>
                  <polygon class="cls-7" points="31.462 41.11 31.47 44.14 34.092 45.664 34.084 42.634 31.462 41.11 31.462 41.11"/>
                  <polygon class="cls-6" points="28.841 39.587 28.85 42.617 31.47 44.14 31.462 41.11 28.841 39.587 28.841 39.587"/>
                  <polygon class="cls-8" points="26.217 38.063 26.228 41.093 28.85 42.617 28.841 39.587 26.217 38.063 26.217 38.063"/>
                  <polygon class="cls-6" points="23.6 36.541 23.607 39.572 26.228 41.093 26.217 38.063 23.6 36.541 23.6 36.541"/>
                  <polygon class="cls-7" points="20.978 35.018 20.986 38.048 23.607 39.572 23.6 36.541 20.978 35.018 20.978 35.018"/>
                  <polygon class="cls-9" points="18.354 33.494 18.365 36.525 20.986 38.048 20.978 35.018 18.354 33.494 18.354 33.494"/>
                  <polygon class="cls-6" points="15.733 31.971 15.742 35.001 18.365 36.525 18.354 33.494 15.733 31.971 15.733 31.971"/>
                  <polygon class="cls-7" points="13.116 30.449 13.124 33.479 15.742 35.001 15.733 31.971 13.116 30.449 13.116 30.449"/>
                  <polygon class="cls-8" points="10.495 28.925 10.503 31.956 13.124 33.479 13.116 30.449 10.495 28.925 10.495 28.925"/>
                  <polygon class="cls-7" points="7.872 27.402 7.882 30.432 10.503 31.956 10.495 28.925 7.872 27.402 7.872 27.402"/>
                  <polygon class="cls-6" points="5.253 25.879 5.262 28.91 7.882 30.432 7.872 27.402 5.253 25.879 5.253 25.879"/>
                  <polygon class="cls-8" points="2.631 24.356 2.639 27.386 5.262 28.91 5.253 25.879 2.631 24.356 2.631 24.356"/>
                  <polygon class="cls-7" points="0.009 22.832 0.019 25.863 2.639 27.386 2.631 24.356 0.009 22.832 0.009 22.832"/>
                  <polygon class="cls-6" points="31.47 44.14 31.479 47.172 34.1 48.697 34.092 45.664 31.47 44.14 31.47 44.14"/>
                  <polygon class="cls-6" points="28.85 42.617 28.857 45.649 31.479 47.172 31.47 44.14 28.85 42.617 28.85 42.617"/>
                  <polygon class="cls-6" points="26.228 41.093 26.236 44.126 28.857 45.649 28.85 42.617 26.228 41.093 26.228 41.093"/>
                  <polygon class="cls-7" points="23.607 39.572 23.615 42.603 26.236 44.126 26.228 41.093 23.607 39.572 23.607 39.572"/>
                  <polygon class="cls-6" points="20.986 38.048 20.995 41.08 23.615 42.603 23.607 39.572 20.986 38.048 20.986 38.048"/>
                  <polygon class="cls-8" points="18.365 36.525 18.373 39.556 20.995 41.08 20.986 38.048 18.365 36.525 18.365 36.525"/>
                  <polygon class="cls-6" points="15.742 35.001 15.752 38.033 18.373 39.556 18.365 36.525 15.742 35.001 15.742 35.001"/>
                  <polygon class="cls-6" points="13.124 33.479 13.132 36.511 15.752 38.033 15.742 35.001 13.124 33.479 13.124 33.479"/>
                  <polygon class="cls-6" points="10.503 31.956 10.512 34.988 13.132 36.511 13.124 33.479 10.503 31.956 10.503 31.956"/>
                  <polygon class="cls-9" points="7.882 30.432 7.89 33.464 10.512 34.988 10.503 31.956 7.882 30.432 7.882 30.432"/>
                  <polygon class="cls-8" points="5.262 28.91 5.27 31.941 7.89 33.464 7.882 30.432 5.262 28.91 5.262 28.91"/>
                  <polygon class="cls-6" points="2.639 27.386 2.649 30.418 5.27 31.941 5.262 28.91 2.639 27.386 2.639 27.386"/>
                  <polygon class="cls-6" points="0.019 25.863 0.026 28.895 2.649 30.418 2.639 27.386 0.019 25.863 0.019 25.863"/>
                  <polygon class="cls-8" points="31.479 47.172 31.487 50.204 34.108 51.728 34.1 48.697 31.479 47.172 31.479 47.172"/>
                  <polygon class="cls-6" points="28.857 45.649 28.866 48.682 31.487 50.204 31.479 47.172 28.857 45.649 28.857 45.649"/>
                  <polygon class="cls-6" points="26.236 44.126 26.244 47.158 28.866 48.682 28.857 45.649 26.236 44.126 26.236 44.126"/>
                  <polygon class="cls-9" points="23.615 42.603 23.624 45.635 26.244 47.158 26.236 44.126 23.615 42.603 23.615 42.603"/>
                  <polygon class="cls-6" points="20.995 41.08 21.003 44.111 23.624 45.635 23.615 42.603 20.995 41.08 20.995 41.08"/>
                  <polygon class="cls-6" points="18.373 39.556 18.382 42.588 21.003 44.111 20.995 41.08 18.373 39.556 18.373 39.556"/>
                  <polygon class="cls-10" points="15.752 38.033 15.76 41.065 18.382 42.588 18.373 39.556 15.752 38.033 15.752 38.033"/>
                  <polygon class="cls-8" points="13.132 36.511 13.142 39.543 15.76 41.065 15.752 38.033 13.132 36.511 13.132 36.511"/>
                  <polygon class="cls-6" points="10.512 34.988 10.52 38.02 13.142 39.543 13.132 36.511 10.512 34.988 10.512 34.988"/>
                  <polygon class="cls-7" points="7.89 33.464 7.898 36.496 10.52 38.02 10.512 34.988 7.89 33.464 7.89 33.464"/>
                  <polygon class="cls-6" points="5.27 31.941 5.278 34.973 7.898 36.496 7.89 33.464 5.27 31.941 5.27 31.941"/>
                  <polygon class="cls-7" points="2.649 30.418 2.657 33.45 5.278 34.973 5.27 31.941 2.649 30.418 2.649 30.418"/>
                  <polygon class="cls-9" points="0.026 28.895 0.035 31.926 2.657 33.45 2.649 30.418 0.026 28.895 0.026 28.895"/>
                  <polygon class="cls-6" points="31.487 50.204 31.495 53.235 34.117 54.759 34.108 51.728 31.487 50.204 31.487 50.204"/>
                  <polygon class="cls-6" points="28.866 48.682 28.874 51.711 31.495 53.235 31.487 50.204 28.866 48.682 28.866 48.682"/>
                  <polygon class="cls-10" points="26.244 47.158 26.253 50.188 28.874 51.711 28.866 48.682 26.244 47.158 26.244 47.158"/>
                  <polygon class="cls-6" points="23.624 45.635 23.633 48.666 26.253 50.188 26.244 47.158 23.624 45.635 23.624 45.635"/>
                  <polygon class="cls-8" points="21.003 44.111 21.011 47.141 23.633 48.666 23.624 45.635 21.003 44.111 21.003 44.111"/>
                  <polygon class="cls-10" points="18.382 42.588 18.391 45.619 21.011 47.141 21.003 44.111 18.382 42.588 18.382 42.588"/>
                  <polygon class="cls-6" points="15.76 41.065 15.769 44.095 18.391 45.619 18.382 42.588 15.76 41.065 15.76 41.065"/>
                  <polygon class="cls-6" points="13.142 39.543 13.149 42.574 15.769 44.095 15.76 41.065 13.142 39.543 13.142 39.543"/>
                  <polygon class="cls-6" points="10.52 38.02 10.528 41.05 13.149 42.574 13.142 39.543 10.52 38.02 10.52 38.02"/>
                  <polygon class="cls-6" points="7.898 36.496 7.907 39.526 10.528 41.05 10.52 38.02 7.898 36.496 7.898 36.496"/>
                  <polygon class="cls-7" points="5.278 34.973 5.286 38.004 7.907 39.526 7.898 36.496 5.278 34.973 5.278 34.973"/>
                  <polygon class="cls-6" points="2.657 33.45 2.665 36.48 5.286 38.004 5.278 34.973 2.657 33.45 2.657 33.45"/>
                  <polygon class="cls-8" points="0.035 31.926 0.044 34.958 2.665 36.48 2.657 33.45 0.035 31.926 0.035 31.926"/>
                  <polygon class="cls-6" points="31.495 53.235 31.503 56.265 34.126 57.788 34.117 54.759 31.495 53.235 31.495 53.235"/>
                  <polygon class="cls-7" points="28.874 51.711 28.883 54.743 31.503 56.265 31.495 53.235 28.874 51.711 28.874 51.711"/>
                  <polygon class="cls-8" points="26.253 50.188 26.261 53.218 28.883 54.743 28.874 51.711 26.253 50.188 26.253 50.188"/>
                  <polygon class="cls-6" points="23.633 48.666 23.641 51.695 26.261 53.218 26.253 50.188 23.633 48.666 23.633 48.666"/>
                  <polygon class="cls-6" points="21.011 47.141 21.02 50.172 23.641 51.695 23.633 48.666 21.011 47.141 21.011 47.141"/>
                  <polygon class="cls-6" points="18.391 45.619 18.398 48.648 21.02 50.172 21.011 47.141 18.391 45.619 18.391 45.619"/>
                  <polygon class="cls-7" points="15.769 44.095 15.776 47.125 18.398 48.648 18.391 45.619 15.769 44.095 15.769 44.095"/>
                  <polygon class="cls-6" points="13.149 42.574 13.158 45.604 15.776 47.125 15.769 44.095 13.149 42.574 13.149 42.574"/>
                  <polygon class="cls-7" points="10.528 41.05 10.537 44.08 13.158 45.604 13.149 42.574 10.528 41.05 10.528 41.05"/>
                  <polygon class="cls-6" points="7.907 39.526 7.915 42.557 10.537 44.08 10.528 41.05 7.907 39.526 7.907 39.526"/>
                  <polygon class="cls-6" points="5.286 38.004 5.295 41.034 7.915 42.557 7.907 39.526 5.286 38.004 5.286 38.004"/>
                  <polygon class="cls-8" points="2.665 36.48 2.674 39.511 5.295 41.034 5.286 38.004 2.665 36.48 2.665 36.48"/>
                  <polygon class="cls-6" points="0.044 34.958 0.053 37.987 2.674 39.511 2.665 36.48 0.044 34.958 0.044 34.958"/>
                  <polygon class="cls-7" points="31.503 56.265 31.514 59.297 34.135 60.821 34.126 57.788 31.503 56.265 31.503 56.265"/>
                  <polygon class="cls-6" points="28.883 54.743 28.891 57.773 31.514 59.297 31.503 56.265 28.883 54.743 28.883 54.743"/>
                  <polygon class="cls-9" points="26.261 53.218 26.27 56.25 28.891 57.773 28.883 54.743 26.261 53.218 26.261 53.218"/>
                  <polygon class="cls-6" points="23.641 51.695 23.65 54.728 26.27 56.25 26.261 53.218 23.641 51.695 23.641 51.695"/>
                  <polygon class="cls-7" points="21.02 50.172 21.028 53.204 23.65 54.728 23.641 51.695 21.02 50.172 21.02 50.172"/>
                  <polygon class="cls-6" points="18.398 48.648 18.406 51.681 21.028 53.204 21.02 50.172 18.398 48.648 18.398 48.648"/>
                  <polygon class="cls-8" points="15.776 47.125 15.786 50.158 18.406 51.681 18.398 48.648 15.776 47.125 15.776 47.125"/>
                  <polygon class="cls-6" points="13.158 45.604 13.167 48.635 15.786 50.158 15.776 47.125 13.158 45.604 13.158 45.604"/>
                  <polygon class="cls-9" points="10.537 44.08 10.545 47.113 13.167 48.635 13.158 45.604 10.537 44.08 10.537 44.08"/>
                  <polygon class="cls-8" points="7.915 42.557 7.923 45.588 10.545 47.113 10.537 44.08 7.915 42.557 7.915 42.557"/>
                  <polygon class="cls-6" points="5.295 41.034 5.304 44.066 7.923 45.588 7.915 42.557 5.295 41.034 5.295 41.034"/>
                  <polygon class="cls-7" points="2.674 39.511 2.682 42.543 5.304 44.066 5.295 41.034 2.674 39.511 2.674 39.511"/>
                  <polygon class="cls-9" points="0.053 37.987 0.061 41.02 2.682 42.543 2.674 39.511 0.053 37.987 0.053 37.987"/>
                  <polygon class="cls-6" points="31.514 59.297 31.521 62.328 34.143 63.85 34.135 60.821 31.514 59.297 31.514 59.297"/>
                  <polygon class="cls-10" points="28.891 57.773 28.899 60.805 31.521 62.328 31.514 59.297 28.891 57.773 28.891 57.773"/>
                  <polygon class="cls-6" points="26.27 56.25 26.279 59.281 28.899 60.805 28.891 57.773 26.27 56.25 26.27 56.25"/>
                  <polygon class="cls-7" points="23.65 54.728 23.658 57.758 26.279 59.281 26.27 56.25 23.65 54.728 23.65 54.728"/>
                  <polygon class="cls-6" points="21.028 53.204 21.037 56.235 23.658 57.758 23.65 54.728 21.028 53.204 21.028 53.204"/>
                  <polygon class="cls-9" points="18.406 51.681 18.415 54.711 21.037 56.235 21.028 53.204 18.406 51.681 18.406 51.681"/>
                  <polygon class="cls-6" points="15.786 50.158 15.794 53.187 18.415 54.711 18.406 51.681 15.786 50.158 15.786 50.158"/>
                  <polygon class="cls-9" points="13.167 48.635 13.175 51.666 15.794 53.187 15.786 50.158 13.167 48.635 13.167 48.635"/>
                  <polygon class="cls-6" points="10.545 47.113 10.555 50.143 13.175 51.666 13.167 48.635 10.545 47.113 10.545 47.113"/>
                  <polygon class="cls-6" points="7.923 45.588 7.933 48.62 10.555 50.143 10.545 47.113 7.923 45.588 7.923 45.588"/>
                  <polygon class="cls-7" points="5.304 44.066 5.312 47.096 7.933 48.62 7.923 45.588 5.304 44.066 5.304 44.066"/>
                  <polygon class="cls-6" points="2.682 42.543 2.69 45.573 5.312 47.096 5.304 44.066 2.682 42.543 2.682 42.543"/>
                  <polygon class="cls-6" points="0.061 41.02 0.069 44.049 2.69 45.573 2.682 42.543 0.061 41.02 0.061 41.02"/>
                  <polygon class="cls-10" points="31.521 62.328 31.529 65.36 34.151 66.883 34.143 63.85 31.521 62.328 31.521 62.328"/>
                  <polygon class="cls-8" points="28.899 60.805 28.909 63.836 31.529 65.36 31.521 62.328 28.899 60.805 28.899 60.805"/>
                  <polygon class="cls-10" points="26.279 59.281 26.287 62.313 28.909 63.836 28.899 60.805 26.279 59.281 26.279 59.281"/>
                  <polygon class="cls-6" points="23.658 57.758 23.667 60.791 26.287 62.313 26.279 59.281 23.658 57.758 23.658 57.758"/>
                  <polygon class="cls-8" points="21.037 56.235 21.046 59.266 23.667 60.791 23.658 57.758 21.037 56.235 21.037 56.235"/>
                  <polygon class="cls-6" points="18.415 54.711 18.425 57.743 21.046 59.266 21.037 56.235 18.415 54.711 18.415 54.711"/>
                  <polygon class="cls-6" points="15.794 53.187 15.802 56.221 18.425 57.743 18.415 54.711 15.794 53.187 15.794 53.187"/>
                  <polygon class="cls-8" points="13.175 51.666 13.186 54.698 15.802 56.221 15.794 53.187 13.175 51.666 13.175 51.666"/>
                  <polygon class="cls-7" points="10.555 50.143 10.563 53.175 13.186 54.698 13.175 51.666 10.555 50.143 10.555 50.143"/>
                  <polygon class="cls-10" points="7.933 48.62 7.941 51.651 10.563 53.175 10.555 50.143 7.933 48.62 7.933 48.62"/>
                  <polygon class="cls-6" points="5.312 47.096 5.321 50.128 7.941 51.651 7.933 48.62 5.312 47.096 5.312 47.096"/>
                  <polygon class="cls-9" points="2.69 45.573 2.699 48.605 5.321 50.128 5.312 47.096 2.69 45.573 2.69 45.573"/>
                  <polygon class="cls-8" points="0.069 44.049 0.077 47.081 2.699 48.605 2.69 45.573 0.069 44.049 0.069 44.049"/>
                  <polygon class="cls-6" points="31.529 65.36 31.538 68.391 34.16 69.915 34.151 66.883 31.529 65.36 31.529 65.36"/>
                  <polygon class="cls-9" points="28.909 63.836 28.917 66.868 31.538 68.391 31.529 65.36 28.909 63.836 28.909 63.836"/>
                  <polygon class="cls-6" points="26.287 62.313 26.295 65.345 28.917 66.868 28.909 63.836 26.287 62.313 26.287 62.313"/>
                  <polygon class="cls-9" points="23.667 60.791 23.676 63.821 26.295 65.345 26.287 62.313 23.667 60.791 23.667 60.791"/>
                  <polygon class="cls-6" points="21.046 59.266 21.054 62.298 23.676 63.821 23.667 60.791 21.046 59.266 21.046 59.266"/>
                  <polygon class="cls-6" points="18.425 57.743 18.433 60.776 21.054 62.298 21.046 59.266 18.425 57.743 18.425 57.743"/>
                  <polygon class="cls-9" points="15.802 56.221 15.812 59.252 18.433 60.776 18.425 57.743 15.802 56.221 15.802 56.221"/>
                  <polygon class="cls-6" points="13.186 54.698 13.193 57.73 15.812 59.252 15.802 56.221 13.186 54.698 13.186 54.698"/>
                  <polygon class="cls-10" points="10.563 53.175 10.571 56.206 13.193 57.73 13.186 54.698 10.563 53.175 10.563 53.175"/>
                  <polygon class="cls-6" points="7.941 51.651 7.949 54.683 10.571 56.206 10.563 53.175 7.941 51.651 7.941 51.651"/>
                  <polygon class="cls-6" points="5.321 50.128 5.331 53.161 7.949 54.683 7.941 51.651 5.321 50.128 5.321 50.128"/>
                  <polygon class="cls-6" points="2.699 48.605 2.708 51.636 5.331 53.161 5.321 50.128 2.699 48.605 2.699 48.605"/>
                  <polygon class="cls-6" points="0.077 47.081 0.085 50.114 2.708 51.636 2.699 48.605 0.077 47.081 0.077 47.081"/>
                  <polygon class="cls-9" points="31.538 68.391 31.548 71.423 34.17 72.947 34.16 69.915 31.538 68.391 31.538 68.391"/>
                  <polygon class="cls-6" points="28.917 66.868 28.926 69.901 31.548 71.423 31.538 68.391 28.917 66.868 28.917 66.868"/>
                  <polygon class="cls-7" points="26.295 65.345 26.304 68.376 28.926 69.901 28.917 66.868 26.295 65.345 26.295 65.345"/>
                  <polygon class="cls-10" points="23.676 63.821 23.685 66.854 26.304 68.376 26.295 65.345 23.676 63.821 23.676 63.821"/>
                  <polygon class="cls-8" points="21.054 62.298 21.063 65.332 23.685 66.854 23.676 63.821 21.054 62.298 21.054 62.298"/>
                  <polygon class="cls-6" points="18.433 60.776 18.441 63.807 21.063 65.332 21.054 62.298 18.433 60.776 18.433 60.776"/>
                  <polygon class="cls-7" points="15.812 59.252 15.82 62.283 18.441 63.807 18.433 60.776 15.812 59.252 15.812 59.252"/>
                  <polygon class="cls-6" points="13.193 57.73 13.201 60.761 15.82 62.283 15.812 59.252 13.193 57.73 13.193 57.73"/>
                  <polygon class="cls-8" points="10.571 56.206 10.581 59.239 13.201 60.761 13.193 57.73 10.571 56.206 10.571 56.206"/>
                  <polygon class="cls-9" points="7.949 54.683 7.959 57.716 10.581 59.239 10.571 56.206 7.949 54.683 7.949 54.683"/>
                  <polygon class="cls-8" points="5.331 53.161 5.339 56.191 7.959 57.716 7.949 54.683 5.331 53.161 5.331 53.161"/>
                  <polygon class="cls-7" points="2.708 51.636 2.717 54.669 5.339 56.191 5.331 53.161 2.708 51.636 2.708 51.636"/>
                  <polygon class="cls-6" points="0.085 50.114 0.097 53.146 2.717 54.669 2.708 51.636 0.085 50.114 0.085 50.114"/>
                  <polygon class="cls-8" points="31.548 71.423 31.558 74.454 34.178 75.977 34.17 72.947 31.548 71.423 31.548 71.423"/>
                  <polygon class="cls-7" points="28.926 69.901 28.934 72.93 31.558 74.454 31.548 71.423 28.926 69.901 28.926 69.901"/>
                  <polygon class="cls-6" points="26.304 68.376 26.313 71.408 28.934 72.93 28.926 69.901 26.304 68.376 26.304 68.376"/>
                  <polygon class="cls-9" points="23.685 66.854 23.692 69.884 26.313 71.408 26.304 68.376 23.685 66.854 23.685 66.854"/>
                  <polygon class="cls-6" points="21.063 65.332 21.071 68.361 23.692 69.884 23.685 66.854 21.063 65.332 21.063 65.332"/>
                  <polygon class="cls-7" points="18.441 63.807 18.449 66.838 21.071 68.361 21.063 65.332 18.441 63.807 18.441 63.807"/>
                  <polygon class="cls-6" points="15.82 62.283 15.828 65.314 18.449 66.838 18.441 63.807 15.82 62.283 15.82 62.283"/>
                  <polygon class="cls-6" points="13.201 60.761 13.21 63.792 15.828 65.314 15.82 62.283 13.201 60.761 13.201 60.761"/>
                  <polygon class="cls-9" points="10.581 59.239 10.589 62.269 13.21 63.792 13.201 60.761 10.581 59.239 10.581 59.239"/>
                  <polygon class="cls-8" points="7.959 57.716 7.968 60.746 10.589 62.269 10.581 59.239 7.959 57.716 7.959 57.716"/>
                  <polygon class="cls-6" points="5.339 56.191 5.347 59.223 7.968 60.746 7.959 57.716 5.339 56.191 5.339 56.191"/>
                  <polygon class="cls-6" points="2.717 54.669 2.726 57.699 5.347 59.223 5.339 56.191 2.717 54.669 2.717 54.669"/>
                  <polygon class="cls-8" points="0.097 53.146 0.104 56.176 2.726 57.699 2.717 54.669 0.097 53.146 0.097 53.146"/>
                  <polygon class="cls-6" points="31.558 74.454 31.565 77.486 34.187 79.008 34.178 75.977 31.558 74.454 31.558 74.454"/>
                  <polygon class="cls-6" points="28.934 72.93 28.944 75.963 31.565 77.486 31.558 74.454 28.934 72.93 28.934 72.93"/>
                  <polygon class="cls-10" points="26.313 71.408 26.321 74.439 28.944 75.963 28.934 72.93 26.313 71.408 26.313 71.408"/>
                  <polygon class="cls-8" points="23.692 69.884 23.702 72.916 26.321 74.439 26.313 71.408 23.692 69.884 23.692 69.884"/>
                  <polygon class="cls-6" points="21.071 68.361 21.08 71.394 23.702 72.916 23.692 69.884 21.071 68.361 21.071 68.361"/>
                  <polygon class="cls-6" points="18.449 66.838 18.459 69.869 21.08 71.394 21.071 68.361 18.449 66.838 18.449 66.838"/>
                  <polygon class="cls-8" points="15.828 65.314 15.836 68.345 18.459 69.869 18.449 66.838 15.828 65.314 15.828 65.314"/>
                  <polygon class="cls-6" points="13.21 63.792 13.219 66.824 15.836 68.345 15.828 65.314 13.21 63.792 13.21 63.792"/>
                  <polygon class="cls-6" points="10.589 62.269 10.597 65.301 13.219 66.824 13.21 63.792 10.589 62.269 10.589 62.269"/>
                  <polygon class="cls-7" points="7.968 60.746 7.976 63.778 10.597 65.301 10.589 62.269 7.968 60.746 7.968 60.746"/>
                  <polygon class="cls-8" points="5.347 59.223 5.355 62.254 7.976 63.778 7.968 60.746 5.347 59.223 5.347 59.223"/>
                  <polygon class="cls-6" points="2.726 57.699 2.734 60.731 5.355 62.254 5.347 59.223 2.726 57.699 2.726 57.699"/>
                  <polygon class="cls-6" points="0.104 56.176 0.112 59.209 2.734 60.731 2.726 57.699 0.104 56.176 0.104 56.176"/>
                </g>
              </g>
            </g>
            <g class="cls-4">
              <polygon class="cls-3" points="34.073 39.601 0.002 19.801 34.297 0 68.368 19.801 34.073 39.601"/>
              <g class="cls-12">
                <g>
                  <polygon class="cls-6" points="65.748 18.277 63.109 19.801 65.73 21.325 68.37 19.801 65.748 18.277 65.748 18.277"/>
                  <polygon class="cls-6" points="63.127 16.754 60.487 18.277 63.109 19.801 65.748 18.277 63.127 16.754 63.127 16.754"/>
                  <polygon class="cls-6" points="60.505 15.231 57.866 16.754 60.487 18.277 63.127 16.754 60.505 15.231 60.505 15.231"/>
                  <polygon class="cls-6" points="57.885 13.708 55.247 15.232 57.866 16.754 60.505 15.231 57.885 13.708 57.885 13.708"/>
                  <polygon class="cls-6" points="55.264 12.186 52.624 13.708 55.247 15.232 57.885 13.708 55.264 12.186 55.264 12.186"/>
                  <polygon class="cls-7" points="52.643 10.662 50.003 12.186 52.624 13.708 55.264 12.186 52.643 10.662 52.643 10.662"/>
                  <polygon class="cls-8" points="50.02 9.138 47.382 10.662 50.003 12.186 52.643 10.662 50.02 9.138 50.02 9.138"/>
                  <polygon class="cls-6" points="47.401 7.616 44.764 9.14 47.382 10.662 50.02 9.138 47.401 7.616 47.401 7.616"/>
                  <polygon class="cls-7" points="44.78 6.092 42.142 7.616 44.764 9.14 47.401 7.616 44.78 6.092 44.78 6.092"/>
                  <polygon class="cls-6" points="42.159 4.569 39.521 6.092 42.142 7.616 44.78 6.092 42.159 4.569 42.159 4.569"/>
                  <polygon class="cls-7" points="39.538 3.046 36.9 4.57 39.521 6.092 42.159 4.569 39.538 3.046 39.538 3.046"/>
                  <polygon class="cls-9" points="36.918 1.523 34.279 3.046 36.9 4.57 39.538 3.046 36.918 1.523 36.918 1.523"/>
                  <polygon class="cls-6" points="34.296 0 31.657 1.523 34.279 3.046 36.918 1.523 34.296 0 34.296 0"/>
                  <polygon class="cls-7" points="63.109 19.801 60.472 21.324 63.093 22.848 65.73 21.325 63.109 19.801 63.109 19.801"/>
                  <polygon class="cls-6" points="60.487 18.277 57.851 19.801 60.472 21.324 63.109 19.801 60.487 18.277 60.487 18.277"/>
                  <polygon class="cls-8" points="57.866 16.754 55.229 18.277 57.851 19.801 60.487 18.277 57.866 16.754 57.866 16.754"/>
                  <polygon class="cls-6" points="55.247 15.232 52.609 16.754 55.229 18.277 57.866 16.754 55.247 15.232 55.247 15.232"/>
                  <polygon class="cls-7" points="52.624 13.708 49.987 15.231 52.609 16.754 55.247 15.232 52.624 13.708 52.624 13.708"/>
                  <polygon class="cls-9" points="50.003 12.186 47.366 13.707 49.987 15.231 52.624 13.708 50.003 12.186 50.003 12.186"/>
                  <polygon class="cls-6" points="47.382 10.662 44.743 12.184 47.366 13.707 50.003 12.186 47.382 10.662 47.382 10.662"/>
                  <polygon class="cls-7" points="44.764 9.14 42.127 10.663 44.743 12.184 47.382 10.662 44.764 9.14 44.764 9.14"/>
                  <polygon class="cls-8" points="42.142 7.616 39.504 9.139 42.127 10.663 44.764 9.14 42.142 7.616 42.142 7.616"/>
                  <polygon class="cls-7" points="39.521 6.092 36.883 7.616 39.504 9.139 42.142 7.616 39.521 6.092 39.521 6.092"/>
                  <polygon class="cls-6" points="36.9 4.57 34.265 6.092 36.883 7.616 39.521 6.092 36.9 4.57 36.9 4.57"/>
                  <polygon class="cls-8" points="34.279 3.046 31.641 4.569 34.265 6.092 36.9 4.57 34.279 3.046 34.279 3.046"/>
                  <polygon class="cls-7" points="31.657 1.523 29.019 3.046 31.641 4.569 34.279 3.046 31.657 1.523 31.657 1.523"/>
                  <polygon class="cls-6" points="60.472 21.324 57.833 22.848 60.455 24.371 63.093 22.848 60.472 21.324 60.472 21.324"/>
                  <polygon class="cls-6" points="57.851 19.801 55.213 21.324 57.833 22.848 60.472 21.324 57.851 19.801 57.851 19.801"/>
                  <polygon class="cls-6" points="55.229 18.277 52.59 19.801 55.213 21.324 57.851 19.801 55.229 18.277 55.229 18.277"/>
                  <polygon class="cls-7" points="52.609 16.754 49.97 18.277 52.59 19.801 55.229 18.277 52.609 16.754 52.609 16.754"/>
                  <polygon class="cls-6" points="49.987 15.231 47.349 16.754 49.97 18.277 52.609 16.754 49.987 15.231 49.987 15.231"/>
                  <polygon class="cls-8" points="47.366 13.707 44.728 15.231 47.349 16.754 49.987 15.231 47.366 13.707 47.366 13.707"/>
                  <polygon class="cls-6" points="44.743 12.184 42.105 13.707 44.728 15.231 47.366 13.707 44.743 12.184 44.743 12.184"/>
                  <polygon class="cls-6" points="42.127 10.663 39.486 12.186 42.105 13.707 44.743 12.184 42.127 10.663 42.127 10.663"/>
                  <polygon class="cls-6" points="39.504 9.139 36.866 10.663 39.486 12.186 42.127 10.663 39.504 9.139 39.504 9.139"/>
                  <polygon class="cls-9" points="36.883 7.616 34.244 9.139 36.866 10.663 39.504 9.139 36.883 7.616 36.883 7.616"/>
                  <polygon class="cls-8" points="34.265 6.092 31.624 7.616 34.244 9.139 36.883 7.616 34.265 6.092 34.265 6.092"/>
                  <polygon class="cls-6" points="31.641 4.569 29.002 6.092 31.624 7.616 34.265 6.092 31.641 4.569 31.641 4.569"/>
                  <polygon class="cls-6" points="29.019 3.046 26.382 4.569 29.002 6.092 31.641 4.569 29.019 3.046 29.019 3.046"/>
                  <polygon class="cls-8" points="57.833 22.848 55.194 24.371 57.816 25.895 60.455 24.371 57.833 22.848 57.833 22.848"/>
                  <polygon class="cls-6" points="55.213 21.324 52.573 22.848 55.194 24.371 57.833 22.848 55.213 21.324 55.213 21.324"/>
                  <polygon class="cls-6" points="52.59 19.801 49.952 21.324 52.573 22.848 55.213 21.324 52.59 19.801 52.59 19.801"/>
                  <polygon class="cls-9" points="49.97 18.277 47.332 19.801 49.952 21.324 52.59 19.801 49.97 18.277 49.97 18.277"/>
                  <polygon class="cls-6" points="47.349 16.754 44.71 18.277 47.332 19.801 49.97 18.277 47.349 16.754 47.349 16.754"/>
                  <polygon class="cls-6" points="44.728 15.231 42.089 16.754 44.71 18.277 47.349 16.754 44.728 15.231 44.728 15.231"/>
                  <polygon class="cls-10" points="42.105 13.707 39.468 15.231 42.089 16.754 44.728 15.231 42.105 13.707 42.105 13.707"/>
                  <polygon class="cls-8" points="39.486 12.186 36.849 13.709 39.468 15.231 42.105 13.707 39.486 12.186 39.486 12.186"/>
                  <polygon class="cls-6" points="36.866 10.663 34.228 12.186 36.849 13.709 39.486 12.186 36.866 10.663 36.866 10.663"/>
                  <polygon class="cls-7" points="34.244 9.139 31.605 10.663 34.228 12.186 36.866 10.663 34.244 9.139 34.244 9.139"/>
                  <polygon class="cls-6" points="31.624 7.616 28.986 9.14 31.605 10.663 34.244 9.139 31.624 7.616 31.624 7.616"/>
                  <polygon class="cls-7" points="29.002 6.092 26.364 7.616 28.986 9.14 31.624 7.616 29.002 6.092 29.002 6.092"/>
                  <polygon class="cls-9" points="26.382 4.569 23.743 6.092 26.364 7.616 29.002 6.092 26.382 4.569 26.382 4.569"/>
                  <polygon class="cls-6" points="55.194 24.371 52.558 25.894 55.179 27.417 57.816 25.895 55.194 24.371 55.194 24.371"/>
                  <polygon class="cls-6" points="52.573 22.848 49.937 24.371 52.558 25.894 55.194 24.371 52.573 22.848 52.573 22.848"/>
                  <polygon class="cls-10" points="49.952 21.324 47.315 22.847 49.937 24.371 52.573 22.848 49.952 21.324 49.952 21.324"/>
                  <polygon class="cls-6" points="47.332 19.801 44.695 21.324 47.315 22.847 49.952 21.324 47.332 19.801 47.332 19.801"/>
                  <polygon class="cls-8" points="44.71 18.277 42.073 19.801 44.695 21.324 47.332 19.801 44.71 18.277 44.71 18.277"/>
                  <polygon class="cls-10" points="42.089 16.754 39.452 18.277 42.073 19.801 44.71 18.277 42.089 16.754 42.089 16.754"/>
                  <polygon class="cls-6" points="39.468 15.231 36.831 16.753 39.452 18.277 42.089 16.754 39.468 15.231 39.468 15.231"/>
                  <polygon class="cls-6" points="36.849 13.709 34.212 15.231 36.831 16.753 39.468 15.231 36.849 13.709 36.849 13.709"/>
                  <polygon class="cls-6" points="34.228 12.186 31.591 13.708 34.212 15.231 36.849 13.709 34.228 12.186 34.228 12.186"/>
                  <polygon class="cls-6" points="31.605 10.663 28.968 12.185 31.591 13.708 34.228 12.186 31.605 10.663 31.605 10.663"/>
                  <polygon class="cls-7" points="28.986 9.14 26.349 10.663 28.968 12.185 31.605 10.663 28.986 9.14 28.986 9.14"/>
                  <polygon class="cls-6" points="26.364 7.616 23.728 9.139 26.349 10.663 28.986 9.14 26.364 7.616 26.364 7.616"/>
                  <polygon class="cls-8" points="23.743 6.092 21.105 7.616 23.728 9.139 26.364 7.616 23.743 6.092 23.743 6.092"/>
                  <polygon class="cls-6" points="52.558 25.894 49.921 27.416 52.542 28.939 55.179 27.417 52.558 25.894 52.558 25.894"/>
                  <polygon class="cls-7" points="49.937 24.371 47.299 25.892 49.921 27.416 52.558 25.894 49.937 24.371 49.937 24.371"/>
                  <polygon class="cls-8" points="47.315 22.847 44.679 24.369 47.299 25.892 49.937 24.371 47.315 22.847 47.315 22.847"/>
                  <polygon class="cls-6" points="44.695 21.324 42.058 22.847 44.679 24.369 47.315 22.847 44.695 21.324 44.695 21.324"/>
                  <polygon class="cls-6" points="42.073 19.801 39.437 21.323 42.058 22.847 44.695 21.324 42.073 19.801 42.073 19.801"/>
                  <polygon class="cls-6" points="39.452 18.277 36.814 19.8 39.437 21.323 42.073 19.801 39.452 18.277 39.452 18.277"/>
                  <polygon class="cls-7" points="36.831 16.753 34.193 18.276 36.814 19.8 39.452 18.277 36.831 16.753 36.831 16.753"/>
                  <polygon class="cls-6" points="34.212 15.231 31.574 16.754 34.193 18.276 36.831 16.753 34.212 15.231 34.212 15.231"/>
                  <polygon class="cls-7" points="31.591 13.708 28.954 15.231 31.574 16.754 34.212 15.231 31.591 13.708 31.591 13.708"/>
                  <polygon class="cls-6" points="28.968 12.185 26.331 13.707 28.954 15.231 31.591 13.708 28.968 12.185 28.968 12.185"/>
                  <polygon class="cls-6" points="26.349 10.663 23.711 12.185 26.331 13.707 28.968 12.185 26.349 10.663 26.349 10.663"/>
                  <polygon class="cls-8" points="23.728 9.139 21.089 10.662 23.711 12.185 26.349 10.663 23.728 9.139 23.728 9.139"/>
                  <polygon class="cls-6" points="21.105 7.616 18.469 9.138 21.089 10.662 23.728 9.139 21.105 7.616 21.105 7.616"/>
                  <polygon class="cls-7" points="49.921 27.416 47.283 28.939 49.904 30.463 52.542 28.939 49.921 27.416 49.921 27.416"/>
                  <polygon class="cls-6" points="47.299 25.892 44.659 27.416 47.283 28.939 49.921 27.416 47.299 25.892 47.299 25.892"/>
                  <polygon class="cls-9" points="44.679 24.369 42.038 25.892 44.659 27.416 47.299 25.892 44.679 24.369 44.679 24.369"/>
                  <polygon class="cls-6" points="42.058 22.847 39.419 24.369 42.038 25.892 44.679 24.369 42.058 22.847 42.058 22.847"/>
                  <polygon class="cls-7" points="39.437 21.323 36.797 22.847 39.419 24.369 42.058 22.847 39.437 21.323 39.437 21.323"/>
                  <polygon class="cls-6" points="36.814 19.8 34.175 21.323 36.797 22.847 39.437 21.323 36.814 19.8 36.814 19.8"/>
                  <polygon class="cls-8" points="34.193 18.276 31.554 19.8 34.175 21.323 36.814 19.8 34.193 18.276 34.193 18.276"/>
                  <polygon class="cls-6" points="31.574 16.754 28.936 18.277 31.554 19.8 34.193 18.276 31.574 16.754 31.574 16.754"/>
                  <polygon class="cls-9" points="28.954 15.231 26.314 16.754 28.936 18.277 31.574 16.754 28.954 15.231 28.954 15.231"/>
                  <polygon class="cls-8" points="26.331 13.707 23.692 15.231 26.314 16.754 28.954 15.231 26.331 13.707 26.331 13.707"/>
                  <polygon class="cls-6" points="23.711 12.185 21.073 13.708 23.692 15.231 26.331 13.707 23.711 12.185 23.711 12.185"/>
                  <polygon class="cls-7" points="21.089 10.662 18.451 12.185 21.073 13.708 23.711 12.185 21.089 10.662 21.089 10.662"/>
                  <polygon class="cls-9" points="18.469 9.138 15.83 10.662 18.451 12.185 21.089 10.662 18.469 9.138 18.469 9.138"/>
                  <polygon class="cls-6" points="47.283 28.939 44.645 30.462 47.266 31.985 49.904 30.463 47.283 28.939 47.283 28.939"/>
                  <polygon class="cls-10" points="44.659 27.416 42.022 28.938 44.645 30.462 47.283 28.939 44.659 27.416 44.659 27.416"/>
                  <polygon class="cls-6" points="42.038 25.892 39.401 27.416 42.022 28.938 44.659 27.416 42.038 25.892 42.038 25.892"/>
                  <polygon class="cls-7" points="39.419 24.369 36.781 25.892 39.401 27.416 42.038 25.892 39.419 24.369 39.419 24.369"/>
                  <polygon class="cls-6" points="36.797 22.847 34.16 24.369 36.781 25.892 39.419 24.369 36.797 22.847 36.797 22.847"/>
                  <polygon class="cls-9" points="34.175 21.323 31.538 22.846 34.16 24.369 36.797 22.847 34.175 21.323 34.175 21.323"/>
                  <polygon class="cls-6" points="31.554 19.8 28.917 21.322 31.538 22.846 34.175 21.323 31.554 19.8 31.554 19.8"/>
                  <polygon class="cls-9" points="28.936 18.277 26.298 19.801 28.917 21.322 31.554 19.8 28.936 18.277 28.936 18.277"/>
                  <polygon class="cls-6" points="26.314 16.754 23.678 18.277 26.298 19.801 28.936 18.277 26.314 16.754 26.314 16.754"/>
                  <polygon class="cls-6" points="23.692 15.231 21.056 16.753 23.678 18.277 26.314 16.754 23.692 15.231 23.692 15.231"/>
                  <polygon class="cls-7" points="21.073 13.708 18.436 15.231 21.056 16.753 23.692 15.231 21.073 13.708 21.073 13.708"/>
                  <polygon class="cls-6" points="18.451 12.185 15.815 13.707 18.436 15.231 21.073 13.708 18.451 12.185 18.451 12.185"/>
                  <polygon class="cls-6" points="15.83 10.662 13.193 12.184 15.815 13.707 18.451 12.185 15.83 10.662 15.83 10.662"/>
                  <polygon class="cls-10" points="44.645 30.462 42.006 31.985 44.627 33.509 47.266 31.985 44.645 30.462 44.645 30.462"/>
                  <polygon class="cls-8" points="42.022 28.938 39.384 30.462 42.006 31.985 44.645 30.462 42.022 28.938 42.022 28.938"/>
                  <polygon class="cls-10" points="39.401 27.416 36.764 28.938 39.384 30.462 42.022 28.938 39.401 27.416 39.401 27.416"/>
                  <polygon class="cls-6" points="36.781 25.892 34.143 27.416 36.764 28.938 39.401 27.416 36.781 25.892 36.781 25.892"/>
                  <polygon class="cls-8" points="34.16 24.369 31.521 25.892 34.143 27.416 36.781 25.892 34.16 24.369 34.16 24.369"/>
                  <polygon class="cls-6" points="31.538 22.846 28.899 24.369 31.521 25.892 34.16 24.369 31.538 22.846 31.538 22.846"/>
                  <polygon class="cls-6" points="28.917 21.322 26.278 22.846 28.899 24.369 31.538 22.846 28.917 21.322 28.917 21.322"/>
                  <polygon class="cls-8" points="26.298 19.801 23.659 21.324 26.278 22.846 28.917 21.322 26.298 19.801 26.298 19.801"/>
                  <polygon class="cls-7" points="23.678 18.277 21.038 19.801 23.659 21.324 26.298 19.801 23.678 18.277 23.678 18.277"/>
                  <polygon class="cls-10" points="21.056 16.753 18.417 18.277 21.038 19.801 23.678 18.277 21.056 16.753 21.056 16.753"/>
                  <polygon class="cls-6" points="18.436 15.231 15.797 16.754 18.417 18.277 21.056 16.753 18.436 15.231 18.436 15.231"/>
                  <polygon class="cls-9" points="15.815 13.707 13.175 15.231 15.797 16.754 18.436 15.231 15.815 13.707 15.815 13.707"/>
                  <polygon class="cls-8" points="13.193 12.184 10.553 13.707 13.175 15.231 15.815 13.707 13.193 12.184 13.193 12.184"/>
                  <polygon class="cls-6" points="42.006 31.985 39.367 33.509 41.988 35.033 44.627 33.509 42.006 31.985 42.006 31.985"/>
                  <polygon class="cls-9" points="39.384 30.462 36.745 31.985 39.367 33.509 42.006 31.985 39.384 30.462 39.384 30.462"/>
                  <polygon class="cls-6" points="36.764 28.938 34.124 30.462 36.745 31.985 39.384 30.462 36.764 28.938 36.764 28.938"/>
                  <polygon class="cls-9" points="34.143 27.416 31.503 28.939 34.124 30.462 36.764 28.938 34.143 27.416 34.143 27.416"/>
                  <polygon class="cls-6" points="31.521 25.892 28.883 27.416 31.503 28.939 34.143 27.416 31.521 25.892 31.521 25.892"/>
                  <polygon class="cls-6" points="28.899 24.369 26.261 25.892 28.883 27.416 31.521 25.892 28.899 24.369 28.899 24.369"/>
                  <polygon class="cls-9" points="26.278 22.846 23.64 24.369 26.261 25.892 28.899 24.369 26.278 22.846 26.278 22.846"/>
                  <polygon class="cls-6" points="23.659 21.324 21.02 22.848 23.64 24.369 26.278 22.846 23.659 21.324 23.659 21.324"/>
                  <polygon class="cls-10" points="21.038 19.801 18.399 21.324 21.02 22.848 23.659 21.324 21.038 19.801 21.038 19.801"/>
                  <polygon class="cls-6" points="18.417 18.277 15.778 19.801 18.399 21.324 21.038 19.801 18.417 18.277 18.417 18.277"/>
                  <polygon class="cls-6" points="15.797 16.754 13.158 18.277 15.778 19.801 18.417 18.277 15.797 16.754 15.797 16.754"/>
                  <polygon class="cls-6" points="13.175 15.231 10.537 16.754 13.158 18.277 15.797 16.754 13.175 15.231 13.175 15.231"/>
                  <polygon class="cls-6" points="10.553 13.707 7.915 15.231 10.537 16.754 13.175 15.231 10.553 13.707 10.553 13.707"/>
                  <polygon class="cls-9" points="39.367 33.509 36.729 35.033 39.35 36.556 41.988 35.033 39.367 33.509 39.367 33.509"/>
                  <polygon class="cls-6" points="36.745 31.985 34.106 33.509 36.729 35.033 39.367 33.509 36.745 31.985 36.745 31.985"/>
                  <polygon class="cls-7" points="34.124 30.462 31.486 31.985 34.106 33.509 36.745 31.985 34.124 30.462 34.124 30.462"/>
                  <polygon class="cls-10" points="31.503 28.939 28.866 30.463 31.486 31.985 34.124 30.462 31.503 28.939 31.503 28.939"/>
                  <polygon class="cls-8" points="28.883 27.416 26.244 28.939 28.866 30.463 31.503 28.939 28.883 27.416 28.883 27.416"/>
                  <polygon class="cls-6" points="26.261 25.892 23.624 27.416 26.244 28.939 28.883 27.416 26.261 25.892 26.261 25.892"/>
                  <polygon class="cls-7" points="23.64 24.369 21.002 25.892 23.624 27.416 26.261 25.892 23.64 24.369 23.64 24.369"/>
                  <polygon class="cls-6" points="21.02 22.848 18.383 24.371 21.002 25.892 23.64 24.369 21.02 22.848 21.02 22.848"/>
                  <polygon class="cls-8" points="18.399 21.324 15.762 22.848 18.383 24.371 21.02 22.848 18.399 21.324 18.399 21.324"/>
                  <polygon class="cls-9" points="15.778 19.801 13.141 21.324 15.762 22.848 18.399 21.324 15.778 19.801 15.778 19.801"/>
                  <polygon class="cls-8" points="13.158 18.277 10.52 19.801 13.141 21.324 15.778 19.801 13.158 18.277 13.158 18.277"/>
                  <polygon class="cls-7" points="10.537 16.754 7.898 18.277 10.52 19.801 13.158 18.277 10.537 16.754 10.537 16.754"/>
                  <polygon class="cls-6" points="7.915 15.231 5.276 16.754 7.898 18.277 10.537 16.754 7.915 15.231 7.915 15.231"/>
                  <polygon class="cls-8" points="36.729 35.033 34.092 36.555 36.714 38.079 39.35 36.556 36.729 35.033 36.729 35.033"/>
                  <polygon class="cls-7" points="34.106 33.509 31.47 35.032 34.092 36.555 36.729 35.033 34.106 33.509 34.106 33.509"/>
                  <polygon class="cls-6" points="31.486 31.985 28.85 33.508 31.47 35.032 34.106 33.509 31.486 31.985 31.486 31.985"/>
                  <polygon class="cls-9" points="28.866 30.463 26.229 31.985 28.85 33.508 31.486 31.985 28.866 30.463 28.866 30.463"/>
                  <polygon class="cls-6" points="26.244 28.939 23.607 30.462 26.229 31.985 28.866 30.463 26.244 28.939 26.244 28.939"/>
                  <polygon class="cls-7" points="23.624 27.416 20.986 28.938 23.607 30.462 26.244 28.939 23.624 27.416 23.624 27.416"/>
                  <polygon class="cls-6" points="21.002 25.892 18.365 27.416 20.986 28.938 23.624 27.416 21.002 25.892 21.002 25.892"/>
                  <polygon class="cls-6" points="18.383 24.371 15.746 25.893 18.365 27.416 21.002 25.892 18.383 24.371 18.383 24.371"/>
                  <polygon class="cls-9" points="15.762 22.848 13.124 24.369 15.746 25.893 18.383 24.371 15.762 22.848 15.762 22.848"/>
                  <polygon class="cls-8" points="13.141 21.324 10.503 22.847 13.124 24.369 15.762 22.848 13.141 21.324 13.141 21.324"/>
                  <polygon class="cls-6" points="10.52 19.801 7.882 21.324 10.503 22.847 13.141 21.324 10.52 19.801 10.52 19.801"/>
                  <polygon class="cls-6" points="7.898 18.277 5.262 19.801 7.882 21.324 10.52 19.801 7.898 18.277 7.898 18.277"/>
                  <polygon class="cls-8" points="5.276 16.754 2.639 18.277 5.262 19.801 7.898 18.277 5.276 16.754 5.276 16.754"/>
                  <polygon class="cls-6" points="34.092 36.555 31.453 38.079 34.075 39.602 36.714 38.079 34.092 36.555 34.092 36.555"/>
                  <polygon class="cls-6" points="31.47 35.032 28.831 36.555 31.453 38.079 34.092 36.555 31.47 35.032 31.47 35.032"/>
                  <polygon class="cls-10" points="28.85 33.508 26.209 35.031 28.831 36.555 31.47 35.032 28.85 33.508 28.85 33.508"/>
                  <polygon class="cls-8" points="26.229 31.985 23.589 33.509 26.209 35.031 28.85 33.508 26.229 31.985 26.229 31.985"/>
                  <polygon class="cls-6" points="23.607 30.462 20.968 31.985 23.589 33.509 26.229 31.985 23.607 30.462 23.607 30.462"/>
                  <polygon class="cls-6" points="20.986 28.938 18.347 30.462 20.968 31.985 23.607 30.462 20.986 28.938 20.986 28.938"/>
                  <polygon class="cls-8" points="18.365 27.416 15.725 28.938 18.347 30.462 20.986 28.938 18.365 27.416 18.365 27.416"/>
                  <polygon class="cls-6" points="15.746 25.893 13.106 27.416 15.725 28.938 18.365 27.416 15.746 25.893 15.746 25.893"/>
                  <polygon class="cls-6" points="13.124 24.369 10.485 25.893 13.106 27.416 15.746 25.893 13.124 24.369 13.124 24.369"/>
                  <polygon class="cls-7" points="10.503 22.847 7.863 24.369 10.485 25.893 13.124 24.369 10.503 22.847 10.503 22.847"/>
                  <polygon class="cls-8" points="7.882 21.324 5.243 22.848 7.863 24.369 10.503 22.847 7.882 21.324 7.882 21.324"/>
                  <polygon class="cls-6" points="5.262 19.801 2.623 21.324 5.243 22.848 7.882 21.324 5.262 19.801 5.262 19.801"/>
                  <polygon class="cls-6" points="2.639 18.277 0 19.801 2.623 21.324 5.262 19.801 2.639 18.277 2.639 18.277"/>
                </g>
              </g>
            </g>
          </g>
          <g>
            <polygon class="cls-13" points="68.368 19.801 68.479 59.209 34.187 79.008 34.073 39.601 68.368 19.801"/>
            <polygon class="cls-14" points="34.187 79.008 0.112 59.209 0.002 19.8 34.073 39.601 34.187 79.008"/>
            <polygon class="cls-15" points="34.073 39.601 0.002 19.8 34.295 0.001 68.368 19.801 34.073 39.601"/>
          </g>
        </g>
      </g>
    </g>
  </g>
</svg>
