<svg xmlns="http://www.w3.org/2000/svg" xmlns:xlink="http://www.w3.org/1999/xlink" viewBox="0 0 68.9473 79.4502">
  <defs>
    <style>
      .cls-1 {
        fill: #929292;
      }

      .cls-2 {
        fill: #575757;
      }

      .cls-3 {
        isolation: isolate;
      }

      .cls-4 {
        clip-path: url(#clip-path);
      }

      .cls-5 {
        fill: #675331;
      }

      .cls-6 {
        fill: #7c643e;
      }

      .cls-7 {
        fill: #977a4c;
      }

      .cls-8 {
        fill: #bc965f;
      }

      .cls-9 {
        fill: #e1b574;
      }

      .cls-10 {
        clip-path: url(#clip-path-2);
      }

      .cls-11 {
        clip-path: url(#clip-path-3);
      }

      .cls-12 {
        fill: #4e750f;
      }

      .cls-13, .cls-23 {
        fill: #77b119;
      }

      .cls-14 {
        fill: #649512;
      }

      .cls-15 {
        fill: #45670c;
      }

      .cls-16 {
        fill: #3c560a;
      }

      .cls-17 {
        clip-path: url(#clip-path-4);
      }

      .cls-18 {
        opacity: 0.8;
      }

      .cls-19 {
        fill: #616161;
        opacity: 0.1;
      }

      .cls-19, .cls-21 {
        mix-blend-mode: color-dodge;
      }

      .cls-20, .cls-23 {
        mix-blend-mode: multiply;
      }

      .cls-20 {
        fill: url(#linear-gradient);
      }

      .cls-21 {
        opacity: 0.3;
        fill: url(#linear-gradient-2);
      }

      .cls-22 {
        fill: #7fbb39;
        mix-blend-mode: color;
      }

      .cls-23 {
        opacity: 0.6;
      }
    </style>
    <clipPath id="clip-path" transform="translate(0.164 0.1587)">
      <polygon class="cls-1" points="34.419 39.618 34.307 79.04 0 59.232 0.111 19.81 34.419 39.618"/>
    </clipPath>
    <clipPath id="clip-path-2" transform="translate(0.164 0.1587)">
      <polygon class="cls-1" points="34.419 39.618 68.504 19.809 68.393 59.232 34.307 79.04 34.419 39.618"/>
    </clipPath>
    <clipPath id="clip-path-3" transform="translate(0.164 0.1587)">
      <polygon class="cls-1" points="0.111 19.81 34.197 0 68.504 19.809 34.419 39.618 0.111 19.81"/>
    </clipPath>
    <clipPath id="clip-path-4" transform="translate(0.164 0.1587)">
      <polygon class="cls-2" points="34.178 39.611 0.104 19.811 34.4 0.011 68.473 19.811 34.178 39.611"/>
    </clipPath>
    <linearGradient id="linear-gradient" x1="10.92582" y1="8.93807" x2="69.54086" y2="67.55311" gradientUnits="userSpaceOnUse">
      <stop offset="0" stop-color="#fff"/>
      <stop offset="1" stop-color="#5f4727"/>
    </linearGradient>
    <linearGradient id="linear-gradient-2" x1="-20.16547" y1="-34.67007" x2="133.82847" y2="119.32387" gradientUnits="userSpaceOnUse">
      <stop offset="0" stop-color="#86c97a"/>
      <stop offset="1"/>
    </linearGradient>
  </defs>
  <g class="cls-3">
    <g id="Layer_2" data-name="Layer 2">
      <g id="Layer_1-2" data-name="Layer 1">
        <g id="_5" data-name="5">
          <g id="_1" data-name="1">
            <g class="cls-3">
              <g class="cls-3">
                <polygon class="cls-1" points="34.583 39.776 34.471 79.198 0.164 59.391 0.275 19.969 34.583 39.776"/>
                <g class="cls-4">
                  <g>
                    <polygon class="cls-5" points="34.607 75.467 31.158 73.477 31.147 77.455 34.596 79.446 34.607 75.467 34.607 75.467"/>
                    <polygon class="cls-5" points="34.619 71.487 31.17 69.496 31.158 73.477 34.607 75.467 34.619 71.487 34.619 71.487"/>
                    <polygon class="cls-5" points="34.631 67.515 31.182 65.522 31.17 69.496 34.619 71.487 34.631 67.515 34.631 67.515"/>
                    <polygon class="cls-6" points="34.641 63.535 31.191 61.543 31.182 65.522 34.631 67.515 34.641 63.535 34.641 63.535"/>
                    <polygon class="cls-7" points="34.652 59.556 31.205 57.564 31.191 61.543 34.641 63.535 34.652 59.556 34.652 59.556"/>
                    <polygon class="cls-8" points="34.664 55.576 31.215 53.585 31.205 57.564 34.652 59.556 34.664 55.576 34.664 55.576"/>
                    <polygon class="cls-7" points="34.675 51.607 31.226 49.617 31.215 53.585 34.664 55.576 34.675 51.607 34.675 51.607"/>
                    <polygon class="cls-7" points="34.688 47.628 31.237 45.637 31.226 49.617 34.675 51.607 34.688 47.628 34.688 47.628"/>
                    <polygon class="cls-5" points="34.698 43.648 31.25 41.657 31.237 45.637 34.688 47.628 34.698 43.648 34.698 43.648"/>
                    <polygon class="cls-5" points="34.709 39.674 31.261 37.683 31.25 41.657 34.698 43.648 34.709 39.674 34.709 39.674"/>
                    <polygon class="cls-7" points="31.158 73.477 27.7 71.479 27.69 75.458 31.147 77.455 31.158 73.477 31.158 73.477"/>
                    <polygon class="cls-5" points="31.17 69.496 27.711 67.499 27.7 71.479 31.158 73.477 31.17 69.496 31.17 69.496"/>
                    <polygon class="cls-5" points="31.182 65.522 27.724 63.526 27.711 67.499 31.17 69.496 31.182 65.522 31.182 65.522"/>
                    <polygon class="cls-6" points="31.191 61.543 27.734 59.546 27.724 63.526 31.182 65.522 31.191 61.543 31.191 61.543"/>
                    <polygon class="cls-7" points="31.205 57.564 27.746 55.567 27.734 59.546 31.191 61.543 31.205 57.564 31.205 57.564"/>
                    <polygon class="cls-8" points="31.215 53.585 27.758 51.588 27.746 55.567 31.205 57.564 31.215 53.585 31.215 53.585"/>
                    <polygon class="cls-8" points="31.226 49.617 27.768 47.619 27.758 51.588 31.215 53.585 31.226 49.617 31.226 49.617"/>
                    <polygon class="cls-5" points="31.237 45.637 27.78 43.639 27.768 47.619 31.226 49.617 31.237 45.637 31.237 45.637"/>
                    <polygon class="cls-5" points="31.25 41.657 27.79 39.66 27.78 43.639 31.237 45.637 31.25 41.657 31.25 41.657"/>
                    <polygon class="cls-6" points="31.261 37.683 27.803 35.687 27.79 39.66 31.25 41.657 31.261 37.683 31.261 37.683"/>
                    <polygon class="cls-8" points="27.7 71.479 24.243 69.483 24.229 73.462 27.69 75.458 27.7 71.479 27.7 71.479"/>
                    <polygon class="cls-7" points="27.711 67.499 24.253 65.503 24.243 69.483 27.7 71.479 27.711 67.499 27.711 67.499"/>
                    <polygon class="cls-5" points="27.724 63.526 24.265 61.53 24.253 65.503 27.711 67.499 27.724 63.526 27.724 63.526"/>
                    <polygon class="cls-6" points="27.734 59.546 24.275 57.549 24.265 61.53 27.724 63.526 27.734 59.546 27.734 59.546"/>
                    <polygon class="cls-6" points="27.746 55.567 24.288 53.571 24.275 57.549 27.734 59.546 27.746 55.567 27.746 55.567"/>
                    <polygon class="cls-7" points="27.758 51.588 24.298 49.591 24.288 53.571 27.746 55.567 27.758 51.588 27.758 51.588"/>
                    <polygon class="cls-7" points="27.768 47.619 24.309 45.623 24.298 49.591 27.758 51.588 27.768 47.619 27.768 47.619"/>
                    <polygon class="cls-5" points="27.78 43.639 24.321 41.644 24.309 45.623 27.768 47.619 27.78 43.639 27.78 43.639"/>
                    <polygon class="cls-6" points="27.79 39.66 24.332 37.664 24.321 41.644 27.78 43.639 27.79 39.66 27.79 39.66"/>
                    <polygon class="cls-6" points="27.803 35.687 24.344 33.689 24.332 37.664 27.79 39.66 27.803 35.687 27.803 35.687"/>
                    <polygon class="cls-8" points="24.243 69.483 20.783 67.486 20.772 71.464 24.229 73.462 24.243 69.483 24.243 69.483"/>
                    <polygon class="cls-8" points="24.253 65.503 20.796 63.507 20.783 67.486 24.243 69.483 24.253 65.503 24.253 65.503"/>
                    <polygon class="cls-5" points="24.265 61.53 20.807 59.533 20.796 63.507 24.253 65.503 24.265 61.53 24.265 61.53"/>
                    <polygon class="cls-5" points="24.275 57.549 20.817 55.554 20.807 59.533 24.265 61.53 24.275 57.549 24.275 57.549"/>
                    <polygon class="cls-5" points="24.288 53.571 20.828 51.573 20.817 55.554 24.275 57.549 24.288 53.571 24.288 53.571"/>
                    <polygon class="cls-5" points="24.298 49.591 20.84 47.595 20.828 51.573 24.288 53.571 24.298 49.591 24.298 49.591"/>
                    <polygon class="cls-5" points="24.309 45.623 20.851 43.626 20.84 47.595 24.298 49.591 24.309 45.623 24.309 45.623"/>
                    <polygon class="cls-5" points="24.321 41.644 20.862 39.647 20.851 43.626 24.309 45.623 24.321 41.644 24.321 41.644"/>
                    <polygon class="cls-5" points="24.332 37.664 20.874 35.667 20.862 39.647 24.321 41.644 24.332 37.664 24.332 37.664"/>
                    <polygon class="cls-6" points="24.344 33.689 20.886 31.693 20.874 35.667 24.332 37.664 24.344 33.689 24.344 33.689"/>
                    <polygon class="cls-8" points="20.783 67.486 17.33 65.493 17.32 69.472 20.772 71.464 20.783 67.486 20.783 67.486"/>
                    <polygon class="cls-7" points="20.796 63.507 17.341 61.513 17.33 65.493 20.783 67.486 20.796 63.507 20.796 63.507"/>
                    <polygon class="cls-6" points="20.807 59.533 17.353 57.54 17.341 61.513 20.796 63.507 20.807 59.533 20.807 59.533"/>
                    <polygon class="cls-6" points="20.817 55.554 17.364 53.559 17.353 57.54 20.807 59.533 20.817 55.554 20.817 55.554"/>
                    <polygon class="cls-5" points="20.828 51.573 17.375 49.581 17.364 53.559 20.817 55.554 20.828 51.573 20.828 51.573"/>
                    <polygon class="cls-6" points="20.84 47.595 17.387 45.601 17.375 49.581 20.828 51.573 20.84 47.595 20.84 47.595"/>
                    <polygon class="cls-6" points="20.851 43.626 17.398 41.632 17.387 45.601 20.84 47.595 20.851 43.626 20.851 43.626"/>
                    <polygon class="cls-6" points="20.862 39.647 17.409 37.653 17.398 41.632 20.851 43.626 20.862 39.647 20.862 39.647"/>
                    <polygon class="cls-5" points="20.874 35.667 17.42 33.674 17.409 37.653 20.862 39.647 20.874 35.667 20.874 35.667"/>
                    <polygon class="cls-6" points="20.886 31.693 17.432 29.7 17.42 33.674 20.874 35.667 20.886 31.693 20.886 31.693"/>
                    <polygon class="cls-9" points="17.33 65.493 13.878 63.499 13.865 67.478 17.32 69.472 17.33 65.493 17.33 65.493"/>
                    <polygon class="cls-7" points="17.341 61.513 13.888 59.519 13.878 63.499 17.33 65.493 17.341 61.513 17.341 61.513"/>
                    <polygon class="cls-6" points="17.353 57.54 13.898 55.544 13.888 59.519 17.341 61.513 17.353 57.54 17.353 57.54"/>
                    <polygon class="cls-5" points="17.364 53.559 13.911 51.566 13.898 55.544 17.353 57.54 17.364 53.559 17.364 53.559"/>
                    <polygon class="cls-5" points="17.375 49.581 13.922 47.587 13.911 51.566 17.364 53.559 17.375 49.581 17.375 49.581"/>
                    <polygon class="cls-6" points="17.387 45.601 13.933 43.607 13.922 47.587 17.375 49.581 17.387 45.601 17.387 45.601"/>
                    <polygon class="cls-7" points="17.398 41.632 13.944 39.639 13.933 43.607 17.387 45.601 17.398 41.632 17.398 41.632"/>
                    <polygon class="cls-7" points="17.409 37.653 13.956 35.659 13.944 39.639 17.398 41.632 17.409 37.653 17.409 37.653"/>
                    <polygon class="cls-5" points="17.42 33.674 13.967 31.679 13.956 35.659 17.409 37.653 17.42 33.674 17.42 33.674"/>
                    <polygon class="cls-6" points="17.432 29.7 13.978 27.706 13.967 31.679 17.42 33.674 17.432 29.7 17.432 29.7"/>
                    <polygon class="cls-8" points="13.878 63.499 10.418 61.501 10.407 65.481 13.865 67.478 13.878 63.499 13.878 63.499"/>
                    <polygon class="cls-7" points="13.888 59.519 10.43 57.523 10.418 61.501 13.878 63.499 13.888 59.519 13.888 59.519"/>
                    <polygon class="cls-6" points="13.898 55.544 10.441 53.549 10.43 57.523 13.888 59.519 13.898 55.544 13.898 55.544"/>
                    <polygon class="cls-5" points="13.911 51.566 10.451 49.569 10.441 53.549 13.898 55.544 13.911 51.566 13.911 51.566"/>
                    <polygon class="cls-6" points="13.922 47.587 10.465 45.589 10.451 49.569 13.911 51.566 13.922 47.587 13.922 47.587"/>
                    <polygon class="cls-6" points="13.933 43.607 10.475 41.61 10.465 45.589 13.922 47.587 13.933 43.607 13.933 43.607"/>
                    <polygon class="cls-7" points="13.944 39.639 10.485 37.642 10.475 41.61 13.933 43.607 13.944 39.639 13.944 39.639"/>
                    <polygon class="cls-8" points="13.956 35.659 10.498 33.662 10.485 37.642 13.944 39.639 13.956 35.659 13.956 35.659"/>
                    <polygon class="cls-5" points="13.967 31.679 10.509 29.683 10.498 33.662 13.956 35.659 13.967 31.679 13.967 31.679"/>
                    <polygon class="cls-5" points="13.978 27.706 10.519 25.709 10.509 29.683 13.967 31.679 13.978 27.706 13.978 27.706"/>
                    <polygon class="cls-7" points="10.418 61.501 6.961 59.506 6.948 63.484 10.407 65.481 10.418 61.501 10.418 61.501"/>
                    <polygon class="cls-7" points="10.43 57.523 6.971 55.525 6.961 59.506 10.418 61.501 10.43 57.523 10.43 57.523"/>
                    <polygon class="cls-6" points="10.441 53.549 6.984 51.552 6.971 55.525 10.43 57.523 10.441 53.549 10.441 53.549"/>
                    <polygon class="cls-5" points="10.451 49.569 6.994 47.572 6.984 51.552 10.441 53.549 10.451 49.569 10.451 49.569"/>
                    <polygon class="cls-6" points="10.465 45.589 7.004 43.593 6.994 47.572 10.451 49.569 10.465 45.589 10.465 45.589"/>
                    <polygon class="cls-7" points="10.475 41.61 7.018 39.613 7.004 43.593 10.465 45.589 10.475 41.61 10.475 41.61"/>
                    <polygon class="cls-8" points="10.485 37.642 7.027 35.645 7.018 39.613 10.475 41.61 10.485 37.642 10.485 37.642"/>
                    <polygon class="cls-9" points="10.498 33.662 7.039 31.666 7.027 35.645 10.485 37.642 10.498 33.662 10.498 33.662"/>
                    <polygon class="cls-7" points="10.509 29.683 7.051 27.687 7.039 31.666 10.498 33.662 10.509 29.683 10.509 29.683"/>
                    <polygon class="cls-5" points="10.519 25.709 7.063 23.712 7.051 27.687 10.509 29.683 10.519 25.709 10.519 25.709"/>
                    <polygon class="cls-6" points="6.961 59.506 3.506 57.511 3.496 61.492 6.948 63.484 6.961 59.506 6.961 59.506"/>
                    <polygon class="cls-7" points="6.971 55.525 3.518 53.533 3.506 57.511 6.961 59.506 6.971 55.525 6.971 55.525"/>
                    <polygon class="cls-7" points="6.984 51.552 3.529 49.558 3.518 53.533 6.971 55.525 6.984 51.552 6.984 51.552"/>
                    <polygon class="cls-5" points="6.994 47.572 3.542 45.578 3.529 49.558 6.984 51.552 6.994 47.572 6.994 47.572"/>
                    <polygon class="cls-6" points="7.004 43.593 3.552 41.599 3.542 45.578 6.994 47.572 7.004 43.593 7.004 43.593"/>
                    <polygon class="cls-7" points="7.018 39.613 3.561 37.619 3.552 41.599 7.004 43.593 7.018 39.613 7.018 39.613"/>
                    <polygon class="cls-7" points="7.027 35.645 3.575 33.651 3.561 37.619 7.018 39.613 7.027 35.645 7.027 35.645"/>
                    <polygon class="cls-8" points="7.039 31.666 3.585 29.672 3.575 33.651 7.027 35.645 7.039 31.666 7.039 31.666"/>
                    <polygon class="cls-8" points="7.051 27.687 3.597 25.692 3.585 29.672 7.039 31.666 7.051 27.687 7.051 27.687"/>
                    <polygon class="cls-5" points="7.063 23.712 3.607 21.718 3.597 25.692 7.051 27.687 7.063 23.712 7.063 23.712"/>
                    <polygon class="cls-6" points="3.506 57.511 0.049 55.515 0.037 59.494 3.496 61.492 3.506 57.511 3.506 57.511"/>
                    <polygon class="cls-7" points="3.518 53.533 0.06 51.535 0.049 55.515 3.506 57.511 3.518 53.533 3.518 53.533"/>
                    <polygon class="cls-5" points="3.529 49.558 0.071 47.562 0.06 51.535 3.518 53.533 3.529 49.558 3.529 49.558"/>
                    <polygon class="cls-5" points="3.542 45.578 0.081 43.582 0.071 47.562 3.529 49.558 3.542 45.578 3.542 45.578"/>
                    <polygon class="cls-6" points="3.552 41.599 0.094 39.603 0.081 43.582 3.542 45.578 3.552 41.599 3.552 41.599"/>
                    <polygon class="cls-6" points="3.561 37.619 0.104 35.623 0.094 39.603 3.552 41.599 3.561 37.619 3.561 37.619"/>
                    <polygon class="cls-7" points="3.575 33.651 0.115 31.654 0.104 35.623 3.561 37.619 3.575 33.651 3.575 33.651"/>
                    <polygon class="cls-7" points="3.585 29.672 0.128 27.675 0.115 31.654 3.575 33.651 3.585 29.672 3.585 29.672"/>
                    <polygon class="cls-8" points="3.597 25.692 0.139 23.695 0.128 27.675 3.585 29.672 3.597 25.692 3.597 25.692"/>
                    <polygon class="cls-5" points="3.607 21.718 0.149 19.722 0.139 23.695 3.597 25.692 3.607 21.718 3.607 21.718"/>
                  </g>
                </g>
              </g>
              <g class="cls-3">
                <polygon class="cls-1" points="34.583 39.776 68.668 19.967 68.557 59.391 34.471 79.198 34.583 39.776"/>
                <g class="cls-10">
                  <g>
                    <polygon class="cls-5" points="68.697 55.511 65.261 57.508 65.25 61.487 68.688 59.49 68.697 55.511 68.697 55.511"/>
                    <polygon class="cls-5" points="68.707 51.532 65.273 53.527 65.261 57.508 68.697 55.511 68.707 51.532 68.707 51.532"/>
                    <polygon class="cls-6" points="68.721 47.558 65.284 49.554 65.273 53.527 68.707 51.532 68.721 47.558 68.721 47.558"/>
                    <polygon class="cls-7" points="68.73 43.579 65.295 45.575 65.284 49.554 68.721 47.558 68.73 43.579 68.73 43.579"/>
                    <polygon class="cls-5" points="68.743 39.599 65.307 41.596 65.295 45.575 68.73 43.579 68.743 39.599 68.743 39.599"/>
                    <polygon class="cls-5" points="68.754 35.62 65.318 37.616 65.307 41.596 68.743 39.599 68.754 35.62 68.754 35.62"/>
                    <polygon class="cls-7" points="68.766 31.651 65.328 33.647 65.318 37.616 68.754 35.62 68.766 31.651 68.766 31.651"/>
                    <polygon class="cls-7" points="68.776 27.672 65.34 29.668 65.328 33.647 68.766 31.651 68.776 27.672 68.776 27.672"/>
                    <polygon class="cls-8" points="68.787 23.692 65.351 25.689 65.34 29.668 68.776 27.672 68.787 23.692 68.787 23.692"/>
                    <polygon class="cls-5" points="68.799 19.718 65.363 21.715 65.351 25.689 68.787 23.692 68.799 19.718 68.799 19.718"/>
                    <polygon class="cls-6" points="65.261 57.508 61.824 59.503 61.814 63.484 65.25 61.487 65.261 57.508 65.261 57.508"/>
                    <polygon class="cls-6" points="65.273 53.527 61.837 55.525 61.824 59.503 65.261 57.508 65.273 53.527 65.273 53.527"/>
                    <polygon class="cls-6" points="65.284 49.554 61.848 51.552 61.837 55.525 65.273 53.527 65.284 49.554 65.284 49.554"/>
                    <polygon class="cls-7" points="65.295 45.575 61.859 47.571 61.848 51.552 65.284 49.554 65.295 45.575 65.295 45.575"/>
                    <polygon class="cls-7" points="65.307 41.596 61.871 43.593 61.859 47.571 65.295 45.575 65.307 41.596 65.307 41.596"/>
                    <polygon class="cls-5" points="65.318 37.616 61.882 39.613 61.871 43.593 65.307 41.596 65.318 37.616 65.318 37.616"/>
                    <polygon class="cls-6" points="65.328 33.647 61.893 35.645 61.882 39.613 65.318 37.616 65.328 33.647 65.328 33.647"/>
                    <polygon class="cls-7" points="65.34 29.668 61.905 31.665 61.893 35.645 65.328 33.647 65.34 29.668 65.34 29.668"/>
                    <polygon class="cls-8" points="65.351 25.689 61.915 27.686 61.905 31.665 65.34 29.668 65.351 25.689 65.351 25.689"/>
                    <polygon class="cls-5" points="65.363 21.715 61.927 23.712 61.915 27.686 65.351 25.689 65.363 21.715 65.363 21.715"/>
                    <polygon class="cls-6" points="61.824 59.503 58.394 61.499 58.383 65.477 61.814 63.484 61.824 59.503 61.824 59.503"/>
                    <polygon class="cls-6" points="61.837 55.525 58.405 57.518 58.394 61.499 61.824 59.503 61.837 55.525 61.837 55.525"/>
                    <polygon class="cls-8" points="61.848 51.552 58.418 53.545 58.405 57.518 61.837 55.525 61.848 51.552 61.848 51.552"/>
                    <polygon class="cls-7" points="61.859 47.571 58.429 49.566 58.418 53.545 61.848 51.552 61.859 47.571 61.859 47.571"/>
                    <polygon class="cls-5" points="61.871 43.593 58.439 45.587 58.429 49.566 61.859 47.571 61.871 43.593 61.871 43.593"/>
                    <polygon class="cls-5" points="61.882 39.613 58.451 41.607 58.439 45.587 61.871 43.593 61.882 39.613 61.882 39.613"/>
                    <polygon class="cls-7" points="61.893 35.645 58.462 37.639 58.451 41.607 61.882 39.613 61.893 35.645 61.893 35.645"/>
                    <polygon class="cls-7" points="61.905 31.665 58.473 33.66 58.462 37.639 61.893 35.645 61.905 31.665 61.905 31.665"/>
                    <polygon class="cls-8" points="61.915 27.686 58.484 29.68 58.473 33.66 61.905 31.665 61.915 27.686 61.915 27.686"/>
                    <polygon class="cls-5" points="61.927 23.712 58.496 25.706 58.484 29.68 61.915 27.686 61.927 23.712 61.927 23.712"/>
                    <polygon class="cls-6" points="58.394 61.499 54.959 63.495 54.947 67.475 58.383 65.477 58.394 61.499 58.394 61.499"/>
                    <polygon class="cls-7" points="58.405 57.518 54.971 59.516 54.959 63.495 58.394 61.499 58.405 57.518 58.405 57.518"/>
                    <polygon class="cls-8" points="58.418 53.545 54.982 55.542 54.971 59.516 58.405 57.518 58.418 53.545 58.418 53.545"/>
                    <polygon class="cls-8" points="58.429 49.566 54.992 51.562 54.982 55.542 58.418 53.545 58.429 49.566 58.429 49.566"/>
                    <polygon class="cls-5" points="58.439 45.587 55.004 47.582 54.992 51.562 58.429 49.566 58.439 45.587 58.439 45.587"/>
                    <polygon class="cls-6" points="58.451 41.607 55.016 43.603 55.004 47.582 58.439 45.587 58.451 41.607 58.451 41.607"/>
                    <polygon class="cls-7" points="58.462 37.639 55.025 39.635 55.016 43.603 58.451 41.607 58.462 37.639 58.462 37.639"/>
                    <polygon class="cls-8" points="58.473 33.66 55.038 35.656 55.025 39.635 58.462 37.639 58.473 33.66 58.473 33.66"/>
                    <polygon class="cls-7" points="58.484 29.68 55.049 31.677 55.038 35.656 58.473 33.66 58.484 29.68 58.484 29.68"/>
                    <polygon class="cls-7" points="58.496 25.706 55.059 27.703 55.049 31.677 58.484 29.68 58.496 25.706 58.496 25.706"/>
                    <polygon class="cls-6" points="54.959 63.495 51.527 65.489 51.517 69.468 54.947 67.475 54.959 63.495 54.959 63.495"/>
                    <polygon class="cls-8" points="54.971 59.516 51.54 61.51 51.527 65.489 54.959 63.495 54.971 59.516 54.971 59.516"/>
                    <polygon class="cls-8" points="54.982 55.542 51.55 57.536 51.54 61.51 54.971 59.516 54.982 55.542 54.982 55.542"/>
                    <polygon class="cls-7" points="54.992 51.562 51.56 53.557 51.55 57.536 54.982 55.542 54.992 51.562 54.992 51.562"/>
                    <polygon class="cls-5" points="55.004 47.582 51.573 49.577 51.56 53.557 54.992 51.562 55.004 47.582 55.004 47.582"/>
                    <polygon class="cls-5" points="55.016 43.603 51.583 45.598 51.573 49.577 55.004 47.582 55.016 43.603 55.016 43.603"/>
                    <polygon class="cls-6" points="55.025 39.635 51.596 41.629 51.583 45.598 55.016 43.603 55.025 39.635 55.025 39.635"/>
                    <polygon class="cls-6" points="55.038 35.656 51.605 37.65 51.596 41.629 55.025 39.635 55.038 35.656 55.038 35.656"/>
                    <polygon class="cls-7" points="55.049 31.677 51.617 33.67 51.605 37.65 55.038 35.656 55.049 31.677 55.049 31.677"/>
                    <polygon class="cls-6" points="55.059 27.703 51.629 29.697 51.617 33.67 55.049 31.677 55.059 27.703 55.059 27.703"/>
                    <polygon class="cls-6" points="51.527 65.489 48.092 67.486 48.079 71.464 51.517 69.468 51.527 65.489 51.527 65.489"/>
                    <polygon class="cls-8" points="51.54 61.51 48.102 63.505 48.092 67.486 51.527 65.489 51.54 61.51 51.54 61.51"/>
                    <polygon class="cls-8" points="51.55 57.536 48.113 59.533 48.102 63.505 51.54 61.51 51.55 57.536 51.55 57.536"/>
                    <polygon class="cls-7" points="51.56 53.557 48.126 55.553 48.113 59.533 51.55 57.536 51.56 53.557 51.56 53.557"/>
                    <polygon class="cls-7" points="51.573 49.577 48.137 51.573 48.126 55.553 51.56 53.557 51.573 49.577 51.573 49.577"/>
                    <polygon class="cls-5" points="51.583 45.598 48.147 47.595 48.137 51.573 51.573 49.577 51.583 45.598 51.583 45.598"/>
                    <polygon class="cls-5" points="51.596 41.629 48.158 43.626 48.147 47.595 51.583 45.598 51.596 41.629 51.596 41.629"/>
                    <polygon class="cls-6" points="51.605 37.65 48.171 39.647 48.158 43.626 51.596 41.629 51.605 37.65 51.605 37.65"/>
                    <polygon class="cls-6" points="51.617 33.67 48.182 35.667 48.171 39.647 51.605 37.65 51.617 33.67 51.617 33.67"/>
                    <polygon class="cls-5" points="51.629 29.697 48.193 31.693 48.182 35.667 51.617 33.67 51.629 29.697 51.629 29.697"/>
                    <polygon class="cls-6" points="48.092 67.486 44.66 69.479 44.649 73.459 48.079 71.464 48.092 67.486 48.092 67.486"/>
                    <polygon class="cls-7" points="48.102 63.505 44.672 65.501 44.66 69.479 48.092 67.486 48.102 63.505 48.102 63.505"/>
                    <polygon class="cls-8" points="48.113 59.533 44.683 61.526 44.672 65.501 48.102 63.505 48.113 59.533 48.113 59.533"/>
                    <polygon class="cls-6" points="48.126 55.553 44.694 57.547 44.683 61.526 48.113 59.533 48.126 55.553 48.126 55.553"/>
                    <polygon class="cls-7" points="48.137 51.573 44.705 53.569 44.694 57.547 48.126 55.553 48.137 51.573 48.137 51.573"/>
                    <polygon class="cls-5" points="48.147 47.595 44.715 49.587 44.705 53.569 48.137 51.573 48.147 47.595 48.147 47.595"/>
                    <polygon class="cls-5" points="48.158 43.626 44.728 45.62 44.715 49.587 48.147 47.595 48.158 43.626 48.158 43.626"/>
                    <polygon class="cls-5" points="48.171 39.647 44.738 41.641 44.728 45.62 48.158 43.626 48.171 39.647 48.171 39.647"/>
                    <polygon class="cls-5" points="48.182 35.667 44.752 37.662 44.738 41.641 48.171 39.647 48.182 35.667 48.182 35.667"/>
                    <polygon class="cls-7" points="48.193 31.693 44.762 33.687 44.752 37.662 48.182 35.667 48.193 31.693 48.193 31.693"/>
                    <polygon class="cls-7" points="44.66 69.479 41.224 71.477 41.214 75.456 44.649 73.459 44.66 69.479 44.66 69.479"/>
                    <polygon class="cls-7" points="44.672 65.501 41.235 67.497 41.224 71.477 44.66 69.479 44.672 65.501 44.672 65.501"/>
                    <polygon class="cls-7" points="44.683 61.526 41.247 63.523 41.235 67.497 44.672 65.501 44.683 61.526 44.683 61.526"/>
                    <polygon class="cls-5" points="44.694 57.547 41.258 59.544 41.247 63.523 44.683 61.526 44.694 57.547 44.694 57.547"/>
                    <polygon class="cls-5" points="44.705 53.569 41.269 55.563 41.258 59.544 44.694 57.547 44.705 53.569 44.705 53.569"/>
                    <polygon class="cls-5" points="44.715 49.587 41.281 51.585 41.269 55.563 44.705 53.569 44.715 49.587 44.715 49.587"/>
                    <polygon class="cls-5" points="44.728 45.62 41.292 47.617 41.281 51.585 44.715 49.587 44.728 45.62 44.728 45.62"/>
                    <polygon class="cls-5" points="44.738 41.641 41.303 43.637 41.292 47.617 44.728 45.62 44.738 41.641 44.738 41.641"/>
                    <polygon class="cls-6" points="44.752 37.662 41.314 39.658 41.303 43.637 44.738 41.641 44.752 37.662 44.752 37.662"/>
                    <polygon class="cls-8" points="44.762 33.687 41.325 35.685 41.314 39.658 44.752 37.662 44.762 33.687 44.762 33.687"/>
                    <polygon class="cls-6" points="41.224 71.477 37.789 73.474 37.776 77.453 41.214 75.456 41.224 71.477 41.224 71.477"/>
                    <polygon class="cls-7" points="41.235 67.497 37.8 69.494 37.789 73.474 41.224 71.477 41.235 67.497 41.235 67.497"/>
                    <polygon class="cls-5" points="41.247 63.523 37.811 65.52 37.8 69.494 41.235 67.497 41.247 63.523 41.247 63.523"/>
                    <polygon class="cls-5" points="41.258 59.544 37.821 61.541 37.811 65.52 41.247 63.523 41.258 59.544 41.258 59.544"/>
                    <polygon class="cls-6" points="41.269 55.563 37.834 57.561 37.821 61.541 41.258 59.544 41.269 55.563 41.269 55.563"/>
                    <polygon class="cls-6" points="41.281 51.585 37.845 53.582 37.834 57.561 41.269 55.563 41.281 51.585 41.281 51.585"/>
                    <polygon class="cls-6" points="41.292 47.617 37.854 49.614 37.845 53.582 41.281 51.585 41.292 47.617 41.292 47.617"/>
                    <polygon class="cls-6" points="41.303 43.637 37.868 45.635 37.854 49.614 41.292 47.617 41.303 43.637 41.303 43.637"/>
                    <polygon class="cls-8" points="41.314 39.658 37.878 41.655 37.868 45.635 41.303 43.637 41.314 39.658 41.314 39.658"/>
                    <polygon class="cls-7" points="41.325 35.685 37.891 37.681 37.878 41.655 41.314 39.658 41.325 35.685 41.325 35.685"/>
                    <polygon class="cls-5" points="37.789 73.474 34.353 75.47 34.342 79.45 37.776 77.453 37.789 73.474 37.789 73.474"/>
                    <polygon class="cls-6" points="37.8 69.494 34.364 71.492 34.353 75.47 37.789 73.474 37.8 69.494 37.8 69.494"/>
                    <polygon class="cls-5" points="37.811 65.52 34.374 67.517 34.364 71.492 37.8 69.494 37.811 65.52 37.811 65.52"/>
                    <polygon class="cls-6" points="37.821 61.541 34.387 63.537 34.374 67.517 37.811 65.52 37.821 61.541 37.821 61.541"/>
                    <polygon class="cls-6" points="37.834 57.561 34.397 59.559 34.387 63.537 37.821 61.541 37.834 57.561 37.834 57.561"/>
                    <polygon class="cls-6" points="37.845 53.582 34.408 55.578 34.397 59.559 37.834 57.561 37.845 53.582 37.845 53.582"/>
                    <polygon class="cls-7" points="37.854 49.614 34.42 51.609 34.408 55.578 37.845 53.582 37.854 49.614 37.854 49.614"/>
                    <polygon class="cls-8" points="37.868 45.635 34.431 47.631 34.42 51.609 37.854 49.614 37.868 45.635 37.868 45.635"/>
                    <polygon class="cls-7" points="37.878 41.655 34.443 43.651 34.431 47.631 37.868 45.635 37.878 41.655 37.878 41.655"/>
                    <polygon class="cls-5" points="37.891 37.681 34.453 39.678 34.443 43.651 37.878 41.655 37.891 37.681 37.891 37.681"/>
                  </g>
                </g>
              </g>
              <g class="cls-3">
                <polygon class="cls-1" points="0.275 19.969 34.361 0.159 68.668 19.967 34.583 39.776 0.275 19.969"/>
                <g class="cls-11">
                  <g>
                    <polygon class="cls-6" points="30.945 1.999 34.395 3.99 37.836 1.991 34.387 0 30.945 1.999 30.945 1.999"/>
                    <polygon class="cls-6" points="27.506 3.999 30.954 5.99 34.395 3.99 30.945 1.999 27.506 3.999 27.506 3.999"/>
                    <polygon class="cls-5" points="24.074 5.993 27.521 7.984 30.954 5.99 27.506 3.999 24.074 5.993 24.074 5.993"/>
                    <polygon class="cls-6" points="20.633 7.991 24.084 9.983 27.521 7.984 24.074 5.993 20.633 7.991 20.633 7.991"/>
                    <polygon class="cls-7" points="17.193 9.991 20.643 11.982 24.084 9.983 20.633 7.991 17.193 9.991 17.193 9.991"/>
                    <polygon class="cls-8" points="13.753 11.991 17.202 13.982 20.643 11.982 17.193 9.991 13.753 11.991 13.753 11.991"/>
                    <polygon class="cls-8" points="10.316 13.987 13.766 15.979 17.202 13.982 13.753 11.991 10.316 13.987 10.316 13.987"/>
                    <polygon class="cls-7" points="6.876 15.987 10.324 17.978 13.766 15.979 10.316 13.987 6.876 15.987 6.876 15.987"/>
                    <polygon class="cls-5" points="3.435 17.986 6.885 19.978 10.324 17.978 6.876 15.987 3.435 17.986 3.435 17.986"/>
                    <polygon class="cls-6" points="0 19.983 3.448 21.974 6.885 19.978 3.435 17.986 0 19.983 0 19.983"/>
                    <polygon class="cls-7" points="34.395 3.99 37.852 5.987 41.294 3.987 37.836 1.991 34.395 3.99 34.395 3.99"/>
                    <polygon class="cls-7" points="30.954 5.99 34.411 7.986 37.852 5.987 34.395 3.99 30.954 5.99 30.954 5.99"/>
                    <polygon class="cls-5" points="27.521 7.984 30.982 9.98 34.411 7.986 30.954 5.99 27.521 7.984 27.521 7.984"/>
                    <polygon class="cls-7" points="24.084 9.983 27.541 11.98 30.982 9.98 27.521 7.984 24.084 9.983 24.084 9.983"/>
                    <polygon class="cls-7" points="20.643 11.982 24.101 13.978 27.541 11.98 24.084 9.983 20.643 11.982 20.643 11.982"/>
                    <polygon class="cls-8" points="17.202 13.982 20.659 15.978 24.101 13.978 20.643 11.982 17.202 13.982 17.202 13.982"/>
                    <polygon class="cls-8" points="13.766 15.979 17.224 17.976 20.659 15.978 17.202 13.982 13.766 15.979 13.766 15.979"/>
                    <polygon class="cls-6" points="10.324 17.978 13.783 19.975 17.224 17.976 13.766 15.979 10.324 17.978 10.324 17.978"/>
                    <polygon class="cls-5" points="6.885 19.978 10.342 21.974 13.783 19.975 10.324 17.978 6.885 19.978 6.885 19.978"/>
                    <polygon class="cls-5" points="3.448 21.974 6.906 23.972 10.342 21.974 6.885 19.978 3.448 21.974 3.448 21.974"/>
                    <polygon class="cls-7" points="37.852 5.987 41.313 7.984 44.752 5.984 41.294 3.987 37.852 5.987 37.852 5.987"/>
                    <polygon class="cls-8" points="34.411 7.986 37.871 9.983 41.313 7.984 37.852 5.987 34.411 7.986 34.411 7.986"/>
                    <polygon class="cls-5" points="30.982 9.98 34.44 11.978 37.871 9.983 34.411 7.986 30.982 9.98 30.982 9.98"/>
                    <polygon class="cls-6" points="27.541 11.98 31 13.977 34.44 11.978 30.982 9.98 27.541 11.98 27.541 11.98"/>
                    <polygon class="cls-7" points="24.101 13.978 27.559 15.976 31 13.977 27.541 11.98 24.101 13.978 24.101 13.978"/>
                    <polygon class="cls-7" points="20.659 15.978 24.117 17.976 27.559 15.976 24.101 13.978 20.659 15.978 20.659 15.978"/>
                    <polygon class="cls-8" points="17.224 17.976 20.683 19.972 24.117 17.976 20.659 15.978 17.224 17.976 17.224 17.976"/>
                    <polygon class="cls-7" points="13.783 19.975 17.242 21.972 20.683 19.972 17.224 17.976 13.783 19.975 13.783 19.975"/>
                    <polygon class="cls-6" points="10.342 21.974 13.801 23.972 17.242 21.972 13.783 19.975 10.342 21.974 10.342 21.974"/>
                    <polygon class="cls-5" points="6.906 23.972 10.365 25.967 13.801 23.972 10.342 21.974 6.906 23.972 6.906 23.972"/>
                    <polygon class="cls-8" points="41.313 7.984 44.769 9.98 48.21 7.98 44.752 5.984 41.313 7.984 41.313 7.984"/>
                    <polygon class="cls-8" points="37.871 9.983 41.329 11.98 44.769 9.98 41.313 7.984 37.871 9.983 37.871 9.983"/>
                    <polygon class="cls-5" points="34.44 11.978 37.897 13.974 41.329 11.98 37.871 9.983 34.44 11.978 34.44 11.978"/>
                    <polygon class="cls-5" points="31 13.977 34.457 15.973 37.897 13.974 34.44 11.978 31 13.977 31 13.977"/>
                    <polygon class="cls-6" points="27.559 15.976 31.017 17.972 34.457 15.973 31 13.977 27.559 15.976 27.559 15.976"/>
                    <polygon class="cls-7" points="24.117 17.976 27.576 19.972 31.017 17.972 27.559 15.976 24.117 17.976 24.117 17.976"/>
                    <polygon class="cls-8" points="20.683 19.972 24.141 21.969 27.576 19.972 24.117 17.976 20.683 19.972 20.683 19.972"/>
                    <polygon class="cls-9" points="17.242 21.972 20.699 23.968 24.141 21.969 20.683 19.972 17.242 21.972 17.242 21.972"/>
                    <polygon class="cls-7" points="13.801 23.972 17.259 25.967 20.699 23.968 17.242 21.972 13.801 23.972 13.801 23.972"/>
                    <polygon class="cls-5" points="10.365 25.967 13.822 27.964 17.259 25.967 13.801 23.972 10.365 25.967 10.365 25.967"/>
                    <polygon class="cls-8" points="44.769 9.98 48.223 11.974 51.663 9.975 48.21 7.98 44.769 9.98 44.769 9.98"/>
                    <polygon class="cls-8" points="41.329 11.98 44.783 13.974 48.223 11.974 44.769 9.98 41.329 11.98 41.329 11.98"/>
                    <polygon class="cls-7" points="37.897 13.974 41.351 15.967 44.783 13.974 41.329 11.98 37.897 13.974 37.897 13.974"/>
                    <polygon class="cls-5" points="34.457 15.973 37.91 17.967 41.351 15.967 37.897 13.974 34.457 15.973 34.457 15.973"/>
                    <polygon class="cls-5" points="31.017 17.972 34.471 19.966 37.91 17.967 34.457 15.973 31.017 17.972 31.017 17.972"/>
                    <polygon class="cls-5" points="27.576 19.972 31.03 21.966 34.471 19.966 31.017 17.972 27.576 19.972 27.576 19.972"/>
                    <polygon class="cls-6" points="24.141 21.969 27.593 23.962 31.03 21.966 27.576 19.972 24.141 21.969 24.141 21.969"/>
                    <polygon class="cls-8" points="20.699 23.968 24.153 25.962 27.593 23.962 24.141 21.969 20.699 23.968 20.699 23.968"/>
                    <polygon class="cls-7" points="17.259 25.967 20.713 27.961 24.153 25.962 20.699 23.968 17.259 25.967 17.259 25.967"/>
                    <polygon class="cls-5" points="13.822 27.964 17.276 29.958 20.713 27.961 17.259 25.967 13.822 27.964 13.822 27.964"/>
                    <polygon class="cls-7" points="48.223 11.974 51.677 13.968 55.117 11.969 51.663 9.975 48.223 11.974 48.223 11.974"/>
                    <polygon class="cls-9" points="44.783 13.974 48.236 15.967 51.677 13.968 48.223 11.974 44.783 13.974 44.783 13.974"/>
                    <polygon class="cls-8" points="41.351 15.967 44.806 17.962 48.236 15.967 44.783 13.974 41.351 15.967 41.351 15.967"/>
                    <polygon class="cls-7" points="37.91 17.967 41.365 19.961 44.806 17.962 41.351 15.967 37.91 17.967 37.91 17.967"/>
                    <polygon class="cls-7" points="34.471 19.966 37.924 21.96 41.365 19.961 37.91 17.967 34.471 19.966 34.471 19.966"/>
                    <polygon class="cls-5" points="31.03 21.966 34.483 23.96 37.924 21.96 34.471 19.966 31.03 21.966 31.03 21.966"/>
                    <polygon class="cls-6" points="27.593 23.962 31.047 25.957 34.483 23.96 31.03 21.966 27.593 23.962 27.593 23.962"/>
                    <polygon class="cls-8" points="24.153 25.962 27.607 27.956 31.047 25.957 27.593 23.962 24.153 25.962 24.153 25.962"/>
                    <polygon class="cls-7" points="20.713 27.961 24.166 29.956 27.607 27.956 24.153 25.962 20.713 27.961 20.713 27.961"/>
                    <polygon class="cls-5" points="17.276 29.958 20.73 31.952 24.166 29.956 20.713 27.961 17.276 29.958 17.276 29.958"/>
                    <polygon class="cls-7" points="51.677 13.968 55.135 15.964 58.576 13.965 55.117 11.969 51.677 13.968 51.677 13.968"/>
                    <polygon class="cls-7" points="48.236 15.967 51.694 17.964 55.135 15.964 51.677 13.968 48.236 15.967 48.236 15.967"/>
                    <polygon class="cls-8" points="44.806 17.962 48.264 19.958 51.694 17.964 48.236 15.967 44.806 17.962 44.806 17.962"/>
                    <polygon class="cls-7" points="41.365 19.961 44.822 21.957 48.264 19.958 44.806 17.962 41.365 19.961 41.365 19.961"/>
                    <polygon class="cls-5" points="37.924 21.96 41.383 23.957 44.822 21.957 41.365 19.961 37.924 21.96 37.924 21.96"/>
                    <polygon class="cls-5" points="34.483 23.96 37.941 25.957 41.383 23.957 37.924 21.96 34.483 23.96 34.483 23.96"/>
                    <polygon class="cls-7" points="31.047 25.957 34.506 27.953 37.941 25.957 34.483 23.96 31.047 25.957 31.047 25.957"/>
                    <polygon class="cls-8" points="27.607 27.956 31.064 29.953 34.506 27.953 31.047 25.957 27.607 27.956 27.607 27.956"/>
                    <polygon class="cls-7" points="24.166 29.956 27.624 31.952 31.064 29.953 27.607 27.956 24.166 29.956 24.166 29.956"/>
                    <polygon class="cls-5" points="20.73 31.952 24.189 33.949 27.624 31.952 24.166 29.956 20.73 31.952 20.73 31.952"/>
                    <polygon class="cls-6" points="55.135 15.964 58.593 17.962 62.034 15.961 58.576 13.965 55.135 15.964 55.135 15.964"/>
                    <polygon class="cls-7" points="51.694 17.964 55.152 19.961 58.593 17.962 55.135 15.964 51.694 17.964 51.694 17.964"/>
                    <polygon class="cls-7" points="48.264 19.958 51.723 21.955 55.152 19.961 51.694 17.964 48.264 19.958 48.264 19.958"/>
                    <polygon class="cls-5" points="44.822 21.957 48.281 23.954 51.723 21.955 48.264 19.958 44.822 21.957 44.822 21.957"/>
                    <polygon class="cls-5" points="41.383 23.957 44.841 25.954 48.281 23.954 44.822 21.957 41.383 23.957 41.383 23.957"/>
                    <polygon class="cls-6" points="37.941 25.957 41.399 27.953 44.841 25.954 41.383 23.957 37.941 25.957 37.941 25.957"/>
                    <polygon class="cls-7" points="34.506 27.953 37.964 29.95 41.399 27.953 37.941 25.957 34.506 27.953 34.506 27.953"/>
                    <polygon class="cls-6" points="31.064 29.953 34.523 31.949 37.964 29.95 34.506 27.953 31.064 29.953 31.064 29.953"/>
                    <polygon class="cls-6" points="27.624 31.952 31.082 33.949 34.523 31.949 31.064 29.953 27.624 31.952 27.624 31.952"/>
                    <polygon class="cls-5" points="24.189 33.949 27.646 35.945 31.082 33.949 27.624 31.952 24.189 33.949 24.189 33.949"/>
                    <polygon class="cls-6" points="58.593 17.962 62.047 19.955 65.486 17.956 62.034 15.961 58.593 17.962 58.593 17.962"/>
                    <polygon class="cls-7" points="55.152 19.961 58.607 21.955 62.047 19.955 58.593 17.962 55.152 19.961 55.152 19.961"/>
                    <polygon class="cls-8" points="51.723 21.955 55.175 23.949 58.607 21.955 55.152 19.961 51.723 21.955 51.723 21.955"/>
                    <polygon class="cls-5" points="48.281 23.954 51.734 25.948 55.175 23.949 51.723 21.955 48.281 23.954 48.281 23.954"/>
                    <polygon class="cls-6" points="44.841 25.954 48.293 27.947 51.734 25.948 48.281 23.954 44.841 25.954 44.841 25.954"/>
                    <polygon class="cls-7" points="41.399 27.953 44.854 29.947 48.293 27.947 44.841 25.954 41.399 27.953 41.399 27.953"/>
                    <polygon class="cls-8" points="37.964 29.95 41.417 31.944 44.854 29.947 41.399 27.953 37.964 29.95 37.964 29.95"/>
                    <polygon class="cls-6" points="34.523 31.949 37.976 33.943 41.417 31.944 37.964 29.95 34.523 31.949 34.523 31.949"/>
                    <polygon class="cls-5" points="31.082 33.949 34.537 35.942 37.976 33.943 34.523 31.949 31.082 33.949 31.082 33.949"/>
                    <polygon class="cls-6" points="27.646 35.945 31.101 37.938 34.537 35.942 31.082 33.949 27.646 35.945 27.646 35.945"/>
                    <polygon class="cls-6" points="62.047 19.955 65.506 21.952 68.947 19.952 65.486 17.956 62.047 19.955 62.047 19.955"/>
                    <polygon class="cls-7" points="58.607 21.955 62.064 23.951 65.506 21.952 62.047 19.955 58.607 21.955 58.607 21.955"/>
                    <polygon class="cls-8" points="55.175 23.949 58.634 25.945 62.064 23.951 58.607 21.955 55.175 23.949 55.175 23.949"/>
                    <polygon class="cls-5" points="51.734 25.948 55.192 27.944 58.634 25.945 55.175 23.949 51.734 25.948 51.734 25.948"/>
                    <polygon class="cls-5" points="48.293 27.947 51.753 29.944 55.192 27.944 51.734 25.948 48.293 27.947 48.293 27.947"/>
                    <polygon class="cls-6" points="44.854 29.947 48.313 31.943 51.753 29.944 48.293 27.947 44.854 29.947 44.854 29.947"/>
                    <polygon class="cls-8" points="41.417 31.944 44.877 33.94 48.313 31.943 44.854 29.947 41.417 31.944 41.417 31.944"/>
                    <polygon class="cls-7" points="37.976 33.943 41.436 35.94 44.877 33.94 41.417 31.944 37.976 33.943 37.976 33.943"/>
                    <polygon class="cls-5" points="34.537 35.942 37.995 37.938 41.436 35.94 37.976 33.943 34.537 35.942 34.537 35.942"/>
                    <polygon class="cls-6" points="31.101 37.938 34.559 39.936 37.995 37.938 34.537 35.942 31.101 37.938 31.101 37.938"/>
                  </g>
                </g>
              </g>
            </g>
            <g class="cls-3">
              <g class="cls-3">
                <g>
                  <polygon class="cls-12" points="68.644 22.999 66.007 24.522 66.015 27.555 68.652 26.031 68.644 22.999 68.644 22.999"/>
                  <polygon class="cls-13" points="68.637 19.971 65.998 21.494 66.007 24.522 68.644 22.999 68.637 19.971 68.637 19.971"/>
                  <polygon class="cls-14" points="66.007 24.522 63.369 26.045 63.378 29.077 66.015 27.555 66.007 24.522 66.007 24.522"/>
                  <polygon class="cls-15" points="65.998 21.494 63.361 23.017 63.369 26.045 66.007 24.522 65.998 21.494 65.998 21.494"/>
                  <polygon class="cls-16" points="63.378 29.077 60.74 30.6 60.748 33.632 63.386 32.109 63.378 29.077 63.378 29.077"/>
                  <polygon class="cls-12" points="63.369 26.045 60.732 27.567 60.74 30.6 63.378 29.077 63.369 26.045 63.369 26.045"/>
                  <polygon class="cls-14" points="63.361 23.017 60.723 24.539 60.732 27.567 63.369 26.045 63.361 23.017 63.361 23.017"/>
                  <polygon class="cls-12" points="60.74 30.6 58.101 32.123 58.111 35.155 60.748 33.632 60.74 30.6 60.74 30.6"/>
                  <polygon class="cls-13" points="60.732 27.567 58.093 29.091 58.101 32.123 60.74 30.6 60.732 27.567 60.732 27.567"/>
                  <polygon class="cls-13" points="60.723 24.539 58.085 26.062 58.093 29.091 60.732 27.567 60.723 24.539 60.723 24.539"/>
                  <polygon class="cls-16" points="58.085 26.062 55.447 27.585 55.455 30.615 58.093 29.091 58.085 26.062 58.085 26.062"/>
                  <polygon class="cls-15" points="55.455 30.615 52.816 32.138 52.824 35.17 55.463 33.646 55.455 30.615 55.455 30.615"/>
                  <polygon class="cls-12" points="55.447 27.585 52.807 29.109 52.816 32.138 55.455 30.615 55.447 27.585 55.447 27.585"/>
                  <polygon class="cls-16" points="52.824 35.17 50.188 36.692 50.196 39.725 52.834 38.202 52.824 35.17 52.824 35.17"/>
                  <polygon class="cls-12" points="52.816 32.138 50.178 33.661 50.188 36.692 52.824 35.17 52.816 32.138 52.816 32.138"/>
                  <polygon class="cls-14" points="52.807 29.109 50.17 30.632 50.178 33.661 52.816 32.138 52.807 29.109 52.807 29.109"/>
                  <polygon class="cls-12" points="50.188 36.692 47.549 38.216 47.557 41.248 50.196 39.725 50.188 36.692 50.188 36.692"/>
                  <polygon class="cls-13" points="50.178 33.661 47.54 35.184 47.549 38.216 50.188 36.692 50.178 33.661 50.178 33.661"/>
                  <polygon class="cls-13" points="50.17 30.632 47.532 32.155 47.54 35.184 50.178 33.661 50.17 30.632 50.17 30.632"/>
                  <polygon class="cls-16" points="47.54 35.184 44.902 36.707 44.911 39.739 47.549 38.216 47.54 35.184 47.54 35.184"/>
                  <polygon class="cls-12" points="47.532 32.155 44.893 33.679 44.902 36.707 47.54 35.184 47.532 32.155 47.532 32.155"/>
                  <polygon class="cls-16" points="44.911 39.739 42.275 41.261 42.283 44.293 44.919 42.771 44.911 39.739 44.911 39.739"/>
                  <polygon class="cls-12" points="44.902 36.707 42.266 38.229 42.275 41.261 44.911 39.739 44.902 36.707 44.902 36.707"/>
                  <polygon class="cls-14" points="44.893 33.679 42.257 35.2 42.266 38.229 44.902 36.707 44.893 33.679 44.893 33.679"/>
                  <polygon class="cls-16" points="42.266 38.229 39.628 39.753 39.636 42.784 42.275 41.261 42.266 38.229 42.266 38.229"/>
                  <polygon class="cls-13" points="42.257 35.2 39.619 36.724 39.628 39.753 42.266 38.229 42.257 35.2 42.257 35.2"/>
                  <polygon class="cls-12" points="39.619 36.724 36.979 38.247 36.988 41.276 39.628 39.753 39.619 36.724 39.619 36.724"/>
                  <polygon class="cls-12" points="36.988 41.276 34.351 42.799 34.358 45.832 36.998 44.308 36.988 41.276 36.988 41.276"/>
                  <polygon class="cls-13" points="36.979 38.247 34.342 39.77 34.351 42.799 36.988 41.276 36.979 38.247 36.979 38.247"/>
                </g>
              </g>
              <g class="cls-3">
                <g>
                  <polygon class="cls-12" points="34.351 42.799 31.727 41.276 31.738 44.308 34.358 45.832 34.351 42.799 34.351 42.799"/>
                  <polygon class="cls-13" points="34.342 39.77 31.72 38.247 31.727 41.276 34.351 42.799 34.342 39.77 34.342 39.77"/>
                  <polygon class="cls-14" points="31.727 41.276 29.107 39.753 29.117 42.786 31.738 44.308 31.727 41.276 31.727 41.276"/>
                  <polygon class="cls-15" points="31.72 38.247 29.1 36.725 29.107 39.753 31.727 41.276 31.72 38.247 31.72 38.247"/>
                  <polygon class="cls-16" points="29.117 42.786 26.496 41.263 26.507 44.295 29.125 45.817 29.117 42.786 29.117 42.786"/>
                  <polygon class="cls-12" points="29.107 39.753 26.488 38.231 26.496 41.263 29.117 42.786 29.107 39.753 29.107 39.753"/>
                  <polygon class="cls-14" points="29.1 36.725 26.479 35.202 26.488 38.231 29.107 39.753 29.1 36.725 29.1 36.725"/>
                  <polygon class="cls-12" points="26.496 41.263 23.876 39.739 23.885 42.771 26.507 44.295 26.496 41.263 26.496 41.263"/>
                  <polygon class="cls-13" points="26.488 38.231 23.867 36.707 23.876 39.739 26.496 41.263 26.488 38.231 26.488 38.231"/>
                  <polygon class="cls-13" points="26.479 35.202 23.858 33.679 23.867 36.707 26.488 38.231 26.479 35.202 26.479 35.202"/>
                  <polygon class="cls-16" points="23.858 33.679 21.236 32.155 21.244 35.184 23.867 36.707 23.858 33.679 23.858 33.679"/>
                  <polygon class="cls-15" points="21.244 35.184 18.624 33.661 18.632 36.692 21.255 38.216 21.244 35.184 21.244 35.184"/>
                  <polygon class="cls-12" points="21.236 32.155 18.615 30.632 18.624 33.661 21.244 35.184 21.236 32.155 21.236 32.155"/>
                  <polygon class="cls-16" points="18.632 36.692 16.012 35.17 16.022 38.202 18.641 39.725 18.632 36.692 18.632 36.692"/>
                  <polygon class="cls-12" points="18.624 33.661 16.003 32.138 16.012 35.17 18.632 36.692 18.624 33.661 18.624 33.661"/>
                  <polygon class="cls-14" points="18.615 30.632 15.995 29.109 16.003 32.138 18.624 33.661 18.615 30.632 18.615 30.632"/>
                  <polygon class="cls-12" points="16.012 35.17 13.39 33.646 13.398 36.679 16.022 38.202 16.012 35.17 16.012 35.17"/>
                  <polygon class="cls-13" points="16.003 32.138 13.382 30.615 13.39 33.646 16.012 35.17 16.003 32.138 16.003 32.138"/>
                  <polygon class="cls-13" points="15.995 29.109 13.374 27.585 13.382 30.615 16.003 32.138 15.995 29.109 15.995 29.109"/>
                  <polygon class="cls-16" points="13.382 30.615 10.76 29.091 10.769 32.123 13.39 33.646 13.382 30.615 13.382 30.615"/>
                  <polygon class="cls-12" points="13.374 27.585 10.752 26.062 10.76 29.091 13.382 30.615 13.374 27.585 13.374 27.585"/>
                  <polygon class="cls-12" points="10.76 29.091 8.142 27.569 8.151 30.601 10.769 32.123 10.76 29.091 10.76 29.091"/>
                  <polygon class="cls-14" points="10.752 26.062 8.133 24.541 8.142 27.569 10.76 29.091 10.752 26.062 10.752 26.062"/>
                  <polygon class="cls-16" points="8.142 27.569 5.519 26.045 5.529 29.077 8.151 30.601 8.142 27.569 8.142 27.569"/>
                  <polygon class="cls-13" points="8.133 24.541 5.512 23.018 5.519 26.045 8.142 27.569 8.133 24.541 8.133 24.541"/>
                  <polygon class="cls-12" points="5.512 23.018 2.891 21.494 2.898 24.522 5.519 26.045 5.512 23.018 5.512 23.018"/>
                  <polygon class="cls-12" points="2.898 24.522 0.277 22.999 0.286 26.03 2.907 27.555 2.898 24.522 2.898 24.522"/>
                  <polygon class="cls-13" points="2.891 21.494 0.268 19.97 0.277 22.999 2.898 24.522 2.891 21.494 2.891 21.494"/>
                </g>
              </g>
              <g class="cls-3">
                <polygon class="cls-2" points="34.342 39.77 0.268 19.969 34.564 0.169 68.637 19.969 34.342 39.77"/>
                <g class="cls-17">
                  <g>
                    <polygon class="cls-13" points="66.016 18.447 63.378 19.97 65.999 21.494 68.637 19.97 66.016 18.447 66.016 18.447"/>
                    <polygon class="cls-14" points="63.394 16.923 60.757 18.447 63.378 19.97 66.016 18.447 63.394 16.923 63.394 16.923"/>
                    <polygon class="cls-12" points="60.772 15.4 58.134 16.923 60.757 18.447 63.394 16.923 60.772 15.4 60.772 15.4"/>
                    <polygon class="cls-12" points="58.153 13.876 55.514 15.4 58.134 16.923 60.772 15.4 58.153 13.876 58.153 13.876"/>
                    <polygon class="cls-14" points="55.531 12.353 52.893 13.876 55.514 15.4 58.153 13.876 55.531 12.353 55.531 12.353"/>
                    <polygon class="cls-13" points="52.911 10.832 50.273 12.354 52.893 13.876 55.531 12.353 52.911 10.832 52.911 10.832"/>
                    <polygon class="cls-14" points="50.292 9.308 47.652 10.832 50.273 12.354 52.911 10.832 50.292 9.308 50.292 9.308"/>
                    <polygon class="cls-14" points="47.67 7.785 45.031 9.308 47.652 10.832 50.292 9.308 47.67 7.785 47.67 7.785"/>
                    <polygon class="cls-14" points="45.048 6.262 42.409 7.785 45.031 9.308 47.67 7.785 45.048 6.262 45.048 6.262"/>
                    <polygon class="cls-14" points="42.428 4.738 39.788 6.262 42.409 7.785 45.048 6.262 42.428 4.738 42.428 4.738"/>
                    <polygon class="cls-12" points="39.807 3.215 37.167 4.738 39.788 6.262 42.428 4.738 39.807 3.215 39.807 3.215"/>
                    <polygon class="cls-14" points="37.185 1.691 34.547 3.215 37.167 4.738 39.807 3.215 37.185 1.691 37.185 1.691"/>
                    <polygon class="cls-13" points="34.563 0.168 31.925 1.691 34.547 3.215 37.185 1.691 34.563 0.168 34.563 0.168"/>
                    <polygon class="cls-14" points="63.378 19.97 60.738 21.494 63.36 23.017 65.999 21.494 63.378 19.97 63.378 19.97"/>
                    <polygon class="cls-14" points="60.757 18.447 58.117 19.97 60.738 21.494 63.378 19.97 60.757 18.447 60.757 18.447"/>
                    <polygon class="cls-13" points="58.134 16.923 55.496 18.447 58.117 19.97 60.757 18.447 58.134 16.923 58.134 16.923"/>
                    <polygon class="cls-14" points="55.514 15.4 52.876 16.923 55.496 18.447 58.134 16.923 55.514 15.4 55.514 15.4"/>
                    <polygon class="cls-13" points="52.893 13.876 50.254 15.4 52.876 16.923 55.514 15.4 52.893 13.876 52.893 13.876"/>
                    <polygon class="cls-14" points="50.273 12.354 47.635 13.878 50.254 15.4 52.893 13.876 50.273 12.354 50.273 12.354"/>
                    <polygon class="cls-12" points="47.652 10.832 45.014 12.355 47.635 13.878 50.273 12.354 47.652 10.832 47.652 10.832"/>
                    <polygon class="cls-14" points="45.031 9.308 42.393 10.832 45.014 12.355 47.652 10.832 45.031 9.308 45.031 9.308"/>
                    <polygon class="cls-13" points="42.409 7.785 39.77 9.308 42.393 10.832 45.031 9.308 42.409 7.785 42.409 7.785"/>
                    <polygon class="cls-12" points="39.788 6.262 37.15 7.785 39.77 9.308 42.409 7.785 39.788 6.262 39.788 6.262"/>
                    <polygon class="cls-14" points="37.167 4.738 34.529 6.262 37.15 7.785 39.788 6.262 37.167 4.738 37.167 4.738"/>
                    <polygon class="cls-13" points="34.547 3.215 31.908 4.738 34.529 6.262 37.167 4.738 34.547 3.215 34.547 3.215"/>
                    <polygon class="cls-14" points="31.925 1.691 29.287 3.215 31.908 4.738 34.547 3.215 31.925 1.691 31.925 1.691"/>
                    <polygon class="cls-14" points="60.738 21.494 58.101 23.017 60.723 24.54 63.36 23.017 60.738 21.494 60.738 21.494"/>
                    <polygon class="cls-13" points="58.117 19.97 55.479 21.494 58.101 23.017 60.738 21.494 58.117 19.97 58.117 19.97"/>
                    <polygon class="cls-14" points="55.496 18.447 52.857 19.97 55.479 21.494 58.117 19.97 55.496 18.447 55.496 18.447"/>
                    <polygon class="cls-12" points="52.876 16.923 50.238 18.447 52.857 19.97 55.496 18.447 52.876 16.923 52.876 16.923"/>
                    <polygon class="cls-14" points="50.254 15.4 47.616 16.923 50.238 18.447 52.876 16.923 50.254 15.4 50.254 15.4"/>
                    <polygon class="cls-12" points="47.635 13.878 44.996 15.402 47.616 16.923 50.254 15.4 47.635 13.878 47.635 13.878"/>
                    <polygon class="cls-14" points="45.014 12.355 42.375 13.879 44.996 15.402 47.635 13.878 45.014 12.355 45.014 12.355"/>
                    <polygon class="cls-13" points="42.393 10.832 39.755 12.355 42.375 13.879 45.014 12.355 42.393 10.832 42.393 10.832"/>
                    <polygon class="cls-14" points="39.77 9.308 37.132 10.832 39.755 12.355 42.393 10.832 39.77 9.308 39.77 9.308"/>
                    <polygon class="cls-12" points="37.15 7.785 34.511 9.308 37.132 10.832 39.77 9.308 37.15 7.785 37.15 7.785"/>
                    <polygon class="cls-14" points="34.529 6.262 31.891 7.786 34.511 9.308 37.15 7.785 34.529 6.262 34.529 6.262"/>
                    <polygon class="cls-14" points="31.908 4.738 29.269 6.262 31.891 7.786 34.529 6.262 31.908 4.738 31.908 4.738"/>
                    <polygon class="cls-16" points="29.287 3.215 26.648 4.738 29.269 6.262 31.908 4.738 29.287 3.215 29.287 3.215"/>
                    <polygon class="cls-12" points="58.101 23.017 55.463 24.54 58.085 26.063 60.723 24.54 58.101 23.017 58.101 23.017"/>
                    <polygon class="cls-14" points="55.479 21.494 52.841 23.017 55.463 24.54 58.101 23.017 55.479 21.494 55.479 21.494"/>
                    <polygon class="cls-14" points="52.857 19.97 50.219 21.493 52.841 23.017 55.479 21.494 52.857 19.97 52.857 19.97"/>
                    <polygon class="cls-12" points="50.238 18.447 47.601 19.97 50.219 21.493 52.857 19.97 50.238 18.447 50.238 18.447"/>
                    <polygon class="cls-16" points="47.616 16.923 44.976 18.447 47.601 19.97 50.238 18.447 47.616 16.923 47.616 16.923"/>
                    <polygon class="cls-14" points="44.996 15.402 42.358 16.923 44.976 18.447 47.616 16.923 44.996 15.402 44.996 15.402"/>
                    <polygon class="cls-12" points="42.375 13.879 39.738 15.401 42.358 16.923 44.996 15.402 42.375 13.879 42.375 13.879"/>
                    <polygon class="cls-14" points="39.755 12.355 37.116 13.878 39.738 15.401 42.375 13.879 39.755 12.355 39.755 12.355"/>
                    <polygon class="cls-16" points="37.132 10.832 34.496 12.354 37.116 13.878 39.755 12.355 37.132 10.832 37.132 10.832"/>
                    <polygon class="cls-13" points="34.511 9.308 31.873 10.832 34.496 12.354 37.132 10.832 34.511 9.308 34.511 9.308"/>
                    <polygon class="cls-14" points="31.891 7.786 29.254 9.308 31.873 10.832 34.511 9.308 31.891 7.786 31.891 7.786"/>
                    <polygon class="cls-12" points="29.269 6.262 26.632 7.785 29.254 9.308 31.891 7.786 29.269 6.262 29.269 6.262"/>
                    <polygon class="cls-12" points="26.648 4.738 24.011 6.262 26.632 7.785 29.269 6.262 26.648 4.738 26.648 4.738"/>
                    <polygon class="cls-16" points="55.463 24.54 52.824 26.062 55.447 27.585 58.085 26.063 55.463 24.54 55.463 24.54"/>
                    <polygon class="cls-12" points="52.841 23.017 50.203 24.538 52.824 26.062 55.463 24.54 52.841 23.017 52.841 23.017"/>
                    <polygon class="cls-14" points="50.219 21.493 47.582 23.015 50.203 24.538 52.841 23.017 50.219 21.493 50.219 21.493"/>
                    <polygon class="cls-14" points="47.601 19.97 44.962 21.492 47.582 23.015 50.219 21.493 47.601 19.97 47.601 19.97"/>
                    <polygon class="cls-16" points="44.976 18.447 42.34 19.969 44.962 21.492 47.601 19.97 44.976 18.447 44.976 18.447"/>
                    <polygon class="cls-12" points="42.358 16.923 39.722 18.447 42.34 19.969 44.976 18.447 42.358 16.923 42.358 16.923"/>
                    <polygon class="cls-14" points="39.738 15.401 37.101 16.923 39.722 18.447 42.358 16.923 39.738 15.401 39.738 15.401"/>
                    <polygon class="cls-12" points="37.116 13.878 34.479 15.4 37.101 16.923 39.738 15.401 37.116 13.878 37.116 13.878"/>
                    <polygon class="cls-14" points="34.496 12.354 31.858 13.876 34.479 15.4 37.116 13.878 34.496 12.354 34.496 12.354"/>
                    <polygon class="cls-14" points="31.873 10.832 29.235 12.353 31.858 13.876 34.496 12.354 31.873 10.832 31.873 10.832"/>
                    <polygon class="cls-12" points="29.254 9.308 26.617 10.832 29.235 12.353 31.873 10.832 29.254 9.308 29.254 9.308"/>
                    <polygon class="cls-14" points="26.632 7.785 23.995 9.307 26.617 10.832 29.254 9.308 26.632 7.785 26.632 7.785"/>
                    <polygon class="cls-14" points="24.011 6.262 21.373 7.784 23.995 9.307 26.632 7.785 24.011 6.262 24.011 6.262"/>
                    <polygon class="cls-13" points="52.824 26.062 50.188 27.585 52.808 29.108 55.447 27.585 52.824 26.062 52.824 26.062"/>
                    <polygon class="cls-14" points="50.203 24.538 47.565 26.062 50.188 27.585 52.824 26.062 50.203 24.538 50.203 24.538"/>
                    <polygon class="cls-13" points="47.582 23.015 44.943 24.538 47.565 26.062 50.203 24.538 47.582 23.015 47.582 23.015"/>
                    <polygon class="cls-12" points="44.962 21.492 42.323 23.017 44.943 24.538 47.582 23.015 44.962 21.492 44.962 21.492"/>
                    <polygon class="cls-14" points="42.34 19.969 39.703 21.492 42.323 23.017 44.962 21.492 42.34 19.969 42.34 19.969"/>
                    <polygon class="cls-14" points="39.722 18.447 37.082 19.97 39.703 21.492 42.34 19.969 39.722 18.447 39.722 18.447"/>
                    <polygon class="cls-13" points="37.101 16.923 34.462 18.447 37.082 19.97 39.722 18.447 37.101 16.923 37.101 16.923"/>
                    <polygon class="cls-14" points="34.479 15.4 31.841 16.923 34.462 18.447 37.101 16.923 34.479 15.4 34.479 15.4"/>
                    <polygon class="cls-16" points="31.858 13.876 29.22 15.4 31.841 16.923 34.479 15.4 31.858 13.876 31.858 13.876"/>
                    <polygon class="cls-12" points="29.235 12.353 26.598 13.876 29.22 15.4 31.858 13.876 29.235 12.353 29.235 12.353"/>
                    <polygon class="cls-14" points="26.617 10.832 23.978 12.354 26.598 13.876 29.235 12.353 26.617 10.832 26.617 10.832"/>
                    <polygon class="cls-13" points="23.995 9.307 21.356 10.831 23.978 12.354 26.617 10.832 23.995 9.307 23.995 9.307"/>
                    <polygon class="cls-14" points="21.373 7.784 18.735 9.307 21.356 10.831 23.995 9.307 21.373 7.784 21.373 7.784"/>
                    <polygon class="cls-14" points="50.188 27.585 47.55 29.108 50.171 30.632 52.808 29.108 50.188 27.585 50.188 27.585"/>
                    <polygon class="cls-13" points="47.565 26.062 44.929 27.584 47.55 29.108 50.188 27.585 47.565 26.062 47.565 26.062"/>
                    <polygon class="cls-14" points="44.943 24.538 42.308 26.062 44.929 27.584 47.565 26.062 44.943 24.538 44.943 24.538"/>
                    <polygon class="cls-14" points="42.323 23.017 39.686 24.538 42.308 26.062 44.943 24.538 42.323 23.017 42.323 23.017"/>
                    <polygon class="cls-12" points="39.703 21.492 37.065 23.015 39.686 24.538 42.323 23.017 39.703 21.492 39.703 21.492"/>
                    <polygon class="cls-14" points="37.082 19.97 34.445 21.492 37.065 23.015 39.703 21.492 37.082 19.97 37.082 19.97"/>
                    <polygon class="cls-12" points="34.462 18.447 31.825 19.97 34.445 21.492 37.082 19.97 34.462 18.447 34.462 18.447"/>
                    <polygon class="cls-14" points="31.841 16.923 29.203 18.447 31.825 19.97 34.462 18.447 31.841 16.923 31.841 16.923"/>
                    <polygon class="cls-14" points="29.22 15.4 26.582 16.923 29.203 18.447 31.841 16.923 29.22 15.4 29.22 15.4"/>
                    <polygon class="cls-12" points="26.598 13.876 23.961 15.4 26.582 16.923 29.22 15.4 26.598 13.876 26.598 13.876"/>
                    <polygon class="cls-12" points="23.978 12.354 21.341 13.876 23.961 15.4 26.598 13.876 23.978 12.354 23.978 12.354"/>
                    <polygon class="cls-14" points="21.356 10.831 18.718 12.353 21.341 13.876 23.978 12.354 21.356 10.831 21.356 10.831"/>
                    <polygon class="cls-14" points="18.735 9.307 16.098 10.83 18.718 12.353 21.356 10.831 18.735 9.307 18.735 9.307"/>
                    <polygon class="cls-14" points="47.55 29.108 44.912 30.632 47.533 32.155 50.171 30.632 47.55 29.108 47.55 29.108"/>
                    <polygon class="cls-14" points="44.929 27.584 42.29 29.108 44.912 30.632 47.55 29.108 44.929 27.584 44.929 27.584"/>
                    <polygon class="cls-12" points="42.308 26.062 39.668 27.584 42.29 29.108 44.929 27.584 42.308 26.062 42.308 26.062"/>
                    <polygon class="cls-16" points="39.686 24.538 37.048 26.062 39.668 27.584 42.308 26.062 39.686 24.538 39.686 24.538"/>
                    <polygon class="cls-16" points="37.065 23.015 34.427 24.538 37.048 26.062 39.686 24.538 37.065 23.015 37.065 23.015"/>
                    <polygon class="cls-16" points="34.445 21.492 31.806 23.017 34.427 24.538 37.065 23.015 34.445 21.492 34.445 21.492"/>
                    <polygon class="cls-12" points="31.825 19.97 29.188 21.494 31.806 23.017 34.445 21.492 31.825 19.97 31.825 19.97"/>
                    <polygon class="cls-14" points="29.203 18.447 26.564 19.97 29.188 21.494 31.825 19.97 29.203 18.447 29.203 18.447"/>
                    <polygon class="cls-13" points="26.582 16.923 23.943 18.447 26.564 19.97 29.203 18.447 26.582 16.923 26.582 16.923"/>
                    <polygon class="cls-14" points="23.961 15.4 21.321 16.923 23.943 18.447 26.582 16.923 23.961 15.4 23.961 15.4"/>
                    <polygon class="cls-13" points="21.341 13.876 18.702 15.4 21.321 16.923 23.961 15.4 21.341 13.876 21.341 13.876"/>
                    <polygon class="cls-14" points="18.718 12.353 16.08 13.876 18.702 15.4 21.341 13.876 18.718 12.353 18.718 12.353"/>
                    <polygon class="cls-12" points="16.098 10.83 13.459 12.353 16.08 13.876 18.718 12.353 16.098 10.83 16.098 10.83"/>
                    <polygon class="cls-14" points="44.912 30.632 42.273 32.155 44.893 33.679 47.533 32.155 44.912 30.632 44.912 30.632"/>
                    <polygon class="cls-12" points="42.29 29.108 39.651 30.632 42.273 32.155 44.912 30.632 42.29 29.108 42.29 29.108"/>
                    <polygon class="cls-16" points="39.668 27.584 37.03 29.108 39.651 30.632 42.29 29.108 39.668 27.584 39.668 27.584"/>
                    <polygon class="cls-16" points="37.048 26.062 34.409 27.585 37.03 29.108 39.668 27.584 37.048 26.062 37.048 26.062"/>
                    <polygon class="cls-14" points="34.427 24.538 31.789 26.062 34.409 27.585 37.048 26.062 34.427 24.538 34.427 24.538"/>
                    <polygon class="cls-12" points="31.806 23.017 29.168 24.539 31.789 26.062 34.427 24.538 31.806 23.017 31.806 23.017"/>
                    <polygon class="cls-14" points="29.188 21.494 26.548 23.017 29.168 24.539 31.806 23.017 29.188 21.494 29.188 21.494"/>
                    <polygon class="cls-12" points="26.564 19.97 23.926 21.494 26.548 23.017 29.188 21.494 26.564 19.97 26.564 19.97"/>
                    <polygon class="cls-14" points="23.943 18.447 21.306 19.97 23.926 21.494 26.564 19.97 23.943 18.447 23.943 18.447"/>
                    <polygon class="cls-14" points="21.321 16.923 18.684 18.447 21.306 19.97 23.943 18.447 21.321 16.923 21.321 16.923"/>
                    <polygon class="cls-12" points="18.702 15.4 16.064 16.923 18.684 18.447 21.321 16.923 18.702 15.4 18.702 15.4"/>
                    <polygon class="cls-14" points="16.08 13.876 13.443 15.4 16.064 16.923 18.702 15.4 16.08 13.876 16.08 13.876"/>
                    <polygon class="cls-13" points="13.459 12.353 10.821 13.876 13.443 15.4 16.08 13.876 13.459 12.353 13.459 12.353"/>
                    <polygon class="cls-13" points="42.273 32.155 39.636 33.677 42.257 35.201 44.893 33.679 42.273 32.155 42.273 32.155"/>
                    <polygon class="cls-14" points="39.651 30.632 37.014 32.154 39.636 33.677 42.273 32.155 39.651 30.632 39.651 30.632"/>
                    <polygon class="cls-12" points="37.03 29.108 34.393 30.631 37.014 32.154 39.651 30.632 37.03 29.108 37.03 29.108"/>
                    <polygon class="cls-14" points="34.409 27.585 31.772 29.108 34.393 30.631 37.03 29.108 34.409 27.585 34.409 27.585"/>
                    <polygon class="cls-13" points="31.789 26.062 29.151 27.584 31.772 29.108 34.409 27.585 31.789 26.062 31.789 26.062"/>
                    <polygon class="cls-14" points="29.168 24.539 26.531 26.062 29.151 27.584 31.789 26.062 29.168 24.539 29.168 24.539"/>
                    <polygon class="cls-13" points="26.548 23.017 23.911 24.539 26.531 26.062 29.168 24.539 26.548 23.017 26.548 23.017"/>
                    <polygon class="cls-14" points="23.926 21.494 21.289 23.017 23.911 24.539 26.548 23.017 23.926 21.494 23.926 21.494"/>
                    <polygon class="cls-14" points="21.306 19.97 18.668 21.492 21.289 23.017 23.926 21.494 21.306 19.97 21.306 19.97"/>
                    <polygon class="cls-16" points="18.684 18.447 16.047 19.969 18.668 21.492 21.306 19.97 18.684 18.447 18.684 18.447"/>
                    <polygon class="cls-16" points="16.064 16.923 13.427 18.447 16.047 19.969 18.684 18.447 16.064 16.923 16.064 16.923"/>
                    <polygon class="cls-13" points="13.443 15.4 10.806 16.923 13.427 18.447 16.064 16.923 13.443 15.4 13.443 15.4"/>
                    <polygon class="cls-14" points="10.821 13.876 8.183 15.4 10.806 16.923 13.443 15.4 10.821 13.876 10.821 13.876"/>
                    <polygon class="cls-14" points="39.636 33.677 36.998 35.201 39.619 36.725 42.257 35.201 39.636 33.677 39.636 33.677"/>
                    <polygon class="cls-14" points="37.014 32.154 34.374 33.677 36.998 35.201 39.636 33.677 37.014 32.154 37.014 32.154"/>
                    <polygon class="cls-14" points="34.393 30.631 31.753 32.154 34.374 33.677 37.014 32.154 34.393 30.631 34.393 30.631"/>
                    <polygon class="cls-16" points="31.772 29.108 29.135 30.632 31.753 32.154 34.393 30.631 31.772 29.108 31.772 29.108"/>
                    <polygon class="cls-14" points="29.151 27.584 26.512 29.108 29.135 30.632 31.772 29.108 29.151 27.584 29.151 27.584"/>
                    <polygon class="cls-12" points="26.531 26.062 23.891 27.585 26.512 29.108 29.151 27.584 26.531 26.062 26.531 26.062"/>
                    <polygon class="cls-14" points="23.911 24.539 21.272 26.063 23.891 27.585 26.531 26.062 23.911 24.539 23.911 24.539"/>
                    <polygon class="cls-12" points="21.289 23.017 18.65 24.539 21.272 26.063 23.911 24.539 21.289 23.017 21.289 23.017"/>
                    <polygon class="cls-13" points="18.668 21.492 16.028 23.017 18.65 24.539 21.289 23.017 18.668 21.492 18.668 21.492"/>
                    <polygon class="cls-14" points="16.047 19.969 13.406 21.492 16.028 23.017 18.668 21.492 16.047 19.969 16.047 19.969"/>
                    <polygon class="cls-14" points="13.427 18.447 10.788 19.97 13.406 21.492 16.047 19.969 13.427 18.447 13.427 18.447"/>
                    <polygon class="cls-12" points="10.806 16.923 8.166 18.447 10.788 19.97 13.427 18.447 10.806 16.923 10.806 16.923"/>
                    <polygon class="cls-14" points="8.183 15.4 5.544 16.922 8.166 18.447 10.806 16.923 8.183 15.4 8.183 15.4"/>
                    <polygon class="cls-14" points="36.998 35.201 34.357 36.725 36.978 38.248 39.619 36.725 36.998 35.201 36.998 35.201"/>
                    <polygon class="cls-12" points="34.374 33.677 31.736 35.201 34.357 36.725 36.998 35.201 34.374 33.677 34.374 33.677"/>
                    <polygon class="cls-14" points="31.753 32.154 29.115 33.677 31.736 35.201 34.374 33.677 31.753 32.154 31.753 32.154"/>
                    <polygon class="cls-13" points="29.135 30.632 26.494 32.155 29.115 33.677 31.753 32.154 29.135 30.632 29.135 30.632"/>
                    <polygon class="cls-14" points="26.512 29.108 23.873 30.632 26.494 32.155 29.135 30.632 26.512 29.108 26.512 29.108"/>
                    <polygon class="cls-12" points="23.891 27.585 21.254 29.108 23.873 30.632 26.512 29.108 23.891 27.585 23.891 27.585"/>
                    <polygon class="cls-16" points="21.272 26.063 18.633 27.586 21.254 29.108 23.891 27.585 21.272 26.063 21.272 26.063"/>
                    <polygon class="cls-14" points="18.65 24.539 16.012 26.062 18.633 27.586 21.272 26.063 18.65 24.539 18.65 24.539"/>
                    <polygon class="cls-14" points="16.028 23.017 13.39 24.539 16.012 26.062 18.65 24.539 16.028 23.017 16.028 23.017"/>
                    <polygon class="cls-12" points="13.406 21.492 10.769 23.017 13.39 24.539 16.028 23.017 13.406 21.492 13.406 21.492"/>
                    <polygon class="cls-14" points="10.788 19.97 8.148 21.494 10.769 23.017 13.406 21.492 10.788 19.97 10.788 19.97"/>
                    <polygon class="cls-14" points="8.166 18.447 5.527 19.97 8.148 21.494 10.788 19.97 8.166 18.447 8.166 18.447"/>
                    <polygon class="cls-16" points="5.544 16.922 2.906 18.447 5.527 19.97 8.166 18.447 5.544 16.922 5.544 16.922"/>
                    <polygon class="cls-14" points="34.357 36.725 31.721 38.246 34.342 39.77 36.978 38.248 34.357 36.725 34.357 36.725"/>
                    <polygon class="cls-12" points="31.736 35.201 29.1 36.723 31.721 38.246 34.357 36.725 31.736 35.201 31.736 35.201"/>
                    <polygon class="cls-14" points="29.115 33.677 26.477 35.2 29.1 36.723 31.736 35.201 29.115 33.677 29.115 33.677"/>
                    <polygon class="cls-14" points="26.494 32.155 23.858 33.677 26.477 35.2 29.115 33.677 26.494 32.155 26.494 32.155"/>
                    <polygon class="cls-13" points="23.873 30.632 21.236 32.154 23.858 33.677 26.494 32.155 23.873 30.632 23.873 30.632"/>
                    <polygon class="cls-14" points="21.254 29.108 18.616 30.632 21.236 32.154 23.873 30.632 21.254 29.108 21.254 29.108"/>
                    <polygon class="cls-14" points="18.633 27.586 15.996 29.108 18.616 30.632 21.254 29.108 18.633 27.586 18.633 27.586"/>
                    <polygon class="cls-13" points="16.012 26.062 13.375 27.585 15.996 29.108 18.633 27.586 16.012 26.062 16.012 26.062"/>
                    <polygon class="cls-14" points="13.39 24.539 10.753 26.062 13.375 27.585 16.012 26.062 13.39 24.539 13.39 24.539"/>
                    <polygon class="cls-14" points="10.769 23.017 8.133 24.538 10.753 26.062 13.39 24.539 10.769 23.017 10.769 23.017"/>
                    <polygon class="cls-13" points="8.148 21.494 5.512 23.017 8.133 24.538 10.769 23.017 8.148 21.494 8.148 21.494"/>
                    <polygon class="cls-14" points="5.527 19.97 2.891 21.492 5.512 23.017 8.148 21.494 5.527 19.97 5.527 19.97"/>
                    <polygon class="cls-14" points="2.906 18.447 0.268 19.969 2.891 21.492 5.527 19.97 2.906 18.447 2.906 18.447"/>
                  </g>
                </g>
              </g>
            </g>
            <g class="cls-18">
              <polygon class="cls-19" points="34.584 39.775 34.473 79.2 0.164 59.392 0.273 19.967 34.584 39.775"/>
              <polygon class="cls-20" points="34.584 39.775 68.67 19.967 68.559 59.391 34.473 79.2 34.584 39.775"/>
              <polygon class="cls-21" points="0.273 19.967 34.359 0.159 68.67 19.967 34.584 39.775 0.273 19.967"/>
              <polygon class="cls-22" points="0.273 19.967 34.359 0.159 68.67 19.967 34.584 39.775 0.273 19.967"/>
            </g>
          </g>
          <polygon class="cls-23" points="68.652 26.031 68.644 22.999 68.637 19.971 65.998 21.494 63.361 23.017 60.723 24.539 58.085 26.062 55.447 27.585 52.807 29.109 50.17 30.632 47.532 32.155 44.893 33.679 42.257 35.2 39.619 36.724 36.979 38.247 34.342 39.77 34.358 45.832 34.358 45.832 34.358 45.832 36.998 44.308 36.988 41.276 39.628 39.753 39.636 42.784 42.275 41.261 42.283 44.293 44.919 42.771 44.911 39.739 47.549 38.216 47.557 41.248 50.196 39.725 52.834 38.202 52.824 35.17 55.463 33.646 55.455 30.615 58.093 29.091 58.101 32.123 58.109 35.155 60.748 33.631 63.386 32.109 63.378 29.077 66.015 27.555 68.652 26.031"/>
        </g>
      </g>
    </g>
  </g>
</svg>
