<svg xmlns="http://www.w3.org/2000/svg" xmlns:xlink="http://www.w3.org/1999/xlink" viewBox="0 0 68.4771 79.00682">
  <defs>
    <style>
      .cls-1 {
        fill: #838383;
      }

      .cls-2 {
        fill: #b5b5b5;
      }

      .cls-3 {
        fill: #e5e5e5;
      }

      .cls-4 {
        isolation: isolate;
      }

      .cls-5 {
        clip-path: url(#clip-path);
      }

      .cls-6 {
        fill: #ad7d3b;
      }

      .cls-7 {
        fill: #d5a74a;
      }

      .cls-8 {
        fill: #bbb9a5;
      }

      .cls-9 {
        fill: #b69240;
      }

      .cls-10 {
        fill: #c9c8b2;
      }

      .cls-11 {
        fill: #cdccb5;
      }

      .cls-12 {
        fill: #b2b09c;
      }

      .cls-13 {
        fill: #a08e6a;
      }

      .cls-14 {
        fill: #afac91;
      }

      .cls-15 {
        fill: #c0bfa9;
      }

      .cls-16 {
        fill: #c6c3af;
      }

      .cls-17 {
        fill: #ad8a3b;
      }

      .cls-18 {
        clip-path: url(#clip-path-2);
      }

      .cls-19 {
        clip-path: url(#clip-path-3);
      }

      .cls-20 {
        fill: #929179;
      }

      .cls-21 {
        opacity: 0.4;
        mix-blend-mode: multiply;
        fill: url(#linear-gradient);
      }

      .cls-22 {
        fill: #616161;
        opacity: 0.3;
      }

      .cls-22, .cls-23 {
        mix-blend-mode: color-dodge;
      }

      .cls-23 {
        opacity: 0.5;
        fill: url(#linear-gradient-2);
      }
    </style>
    <clipPath id="clip-path">
      <polygon class="cls-1" points="68.365 19.8 68.477 59.209 34.184 79.007 34.072 39.6 68.365 19.8"/>
    </clipPath>
    <clipPath id="clip-path-2">
      <polygon class="cls-2" points="34.184 79.007 0.112 59.206 0 19.799 34.072 39.6 34.184 79.007"/>
    </clipPath>
    <clipPath id="clip-path-3">
      <polygon class="cls-3" points="34.072 39.6 0 19.799 34.294 0 68.365 19.8 34.072 39.6"/>
    </clipPath>
    <linearGradient id="linear-gradient" x1="13.75832" y1="29.57944" x2="67.69175" y2="58.07838" gradientUnits="userSpaceOnUse">
      <stop offset="0" stop-color="#fff"/>
      <stop offset="0.10549" stop-color="#eae8dc"/>
      <stop offset="0.35664" stop-color="#bcb48f"/>
      <stop offset="0.58058" stop-color="#978b52"/>
      <stop offset="0.76909" stop-color="#7c6e25"/>
      <stop offset="0.91475" stop-color="#6c5c0a"/>
      <stop offset="1" stop-color="#650"/>
    </linearGradient>
    <linearGradient id="linear-gradient-2" x1="-20.43074" y1="-34.81407" x2="133.49632" y2="119.11299" gradientUnits="userSpaceOnUse">
      <stop offset="0" stop-color="#d9eed5"/>
      <stop offset="1"/>
    </linearGradient>
  </defs>
  <g class="cls-4">
    <g id="Layer_2" data-name="Layer 2">
      <g id="Layer_1-2" data-name="Layer 1">
        <g id="_6" data-name="6">
          <g class="cls-4">
            <g class="cls-4">
              <polygon class="cls-1" points="68.365 19.8 68.477 59.209 34.184 79.007 34.072 39.6 68.365 19.8"/>
              <g class="cls-5">
                <g>
                  <polygon class="cls-6" points="68.469 56.177 65.831 57.699 65.839 60.73 68.477 59.209 68.469 56.177 68.469 56.177"/>
                  <polygon class="cls-6" points="68.459 53.145 65.822 54.667 65.831 57.699 68.469 56.177 68.459 53.145 68.459 53.145"/>
                  <polygon class="cls-7" points="68.451 50.112 65.813 51.634 65.822 54.667 68.459 53.145 68.451 50.112 68.451 50.112"/>
                  <polygon class="cls-8" points="68.442 47.083 65.806 48.605 65.813 51.634 68.451 50.112 68.442 47.083 68.442 47.083"/>
                  <polygon class="cls-6" points="68.434 44.053 65.796 45.575 65.806 48.605 68.442 47.083 68.434 44.053 68.434 44.053"/>
                  <polygon class="cls-9" points="68.426 41.022 65.788 42.543 65.796 45.575 68.434 44.053 68.426 41.022 68.426 41.022"/>
                  <polygon class="cls-9" points="68.416 37.99 65.779 39.513 65.788 42.543 68.426 41.022 68.416 37.99 68.416 37.99"/>
                  <polygon class="cls-8" points="68.408 34.958 65.77 36.48 65.779 39.513 68.416 37.99 68.408 34.958 68.408 34.958"/>
                  <polygon class="cls-9" points="68.399 31.926 65.762 33.449 65.77 36.48 68.408 34.958 68.399 31.926 68.399 31.926"/>
                  <polygon class="cls-9" points="68.391 28.894 65.754 30.417 65.762 33.449 68.399 31.926 68.391 28.894 68.391 28.894"/>
                  <polygon class="cls-9" points="68.382 25.863 65.745 27.385 65.754 30.417 68.391 28.894 68.382 25.863 68.382 25.863"/>
                  <polygon class="cls-8" points="68.374 22.832 65.736 24.355 65.745 27.385 68.382 25.863 68.374 22.832 68.374 22.832"/>
                  <polygon class="cls-10" points="68.364 19.801 65.728 21.324 65.736 24.355 68.374 22.832 68.364 19.801 68.364 19.801"/>
                  <polygon class="cls-8" points="65.831 57.699 63.193 59.22 63.203 62.253 65.839 60.73 65.831 57.699 65.831 57.699"/>
                  <polygon class="cls-8" points="65.822 54.667 63.185 56.189 63.193 59.22 65.831 57.699 65.822 54.667 65.822 54.667"/>
                  <polygon class="cls-8" points="65.813 51.634 63.177 53.156 63.185 56.189 65.822 54.667 65.813 51.634 65.813 51.634"/>
                  <polygon class="cls-11" points="65.806 48.605 63.168 50.129 63.177 53.156 65.813 51.634 65.806 48.605 65.806 48.605"/>
                  <polygon class="cls-6" points="65.796 45.575 63.159 47.099 63.168 50.129 65.806 48.605 65.796 45.575 65.796 45.575"/>
                  <polygon class="cls-9" points="65.788 42.543 63.151 44.065 63.159 47.099 65.796 45.575 65.788 42.543 65.788 42.543"/>
                  <polygon class="cls-7" points="65.779 39.513 63.142 41.035 63.151 44.065 65.788 42.543 65.779 39.513 65.779 39.513"/>
                  <polygon class="cls-8" points="65.77 36.48 63.133 38.003 63.142 41.035 65.779 39.513 65.77 36.48 65.77 36.48"/>
                  <polygon class="cls-9" points="65.762 33.449 63.125 34.972 63.133 38.003 65.77 36.48 65.762 33.449 65.762 33.449"/>
                  <polygon class="cls-6" points="65.754 30.417 63.116 31.94 63.125 34.972 65.762 33.449 65.754 30.417 65.754 30.417"/>
                  <polygon class="cls-7" points="65.745 27.385 63.108 28.907 63.116 31.94 65.754 30.417 65.745 27.385 65.745 27.385"/>
                  <polygon class="cls-12" points="65.736 24.355 63.099 25.877 63.108 28.907 65.745 27.385 65.736 24.355 65.736 24.355"/>
                  <polygon class="cls-8" points="65.728 21.324 63.091 22.848 63.099 25.877 65.736 24.355 65.728 21.324 65.728 21.324"/>
                  <polygon class="cls-13" points="63.193 59.22 60.555 60.744 60.564 63.774 63.203 62.253 63.193 59.22 63.193 59.22"/>
                  <polygon class="cls-9" points="63.185 56.189 60.547 57.712 60.555 60.744 63.193 59.22 63.185 56.189 63.185 56.189"/>
                  <polygon class="cls-7" points="63.177 53.156 60.538 54.68 60.547 57.712 63.185 56.189 63.177 53.156 63.177 53.156"/>
                  <polygon class="cls-11" points="63.168 50.129 60.529 51.65 60.538 54.68 63.177 53.156 63.168 50.129 63.168 50.129"/>
                  <polygon class="cls-9" points="63.159 47.099 60.52 48.622 60.529 51.65 63.168 50.129 63.159 47.099 63.159 47.099"/>
                  <polygon class="cls-9" points="63.151 44.065 60.512 45.59 60.52 48.622 63.159 47.099 63.151 44.065 63.151 44.065"/>
                  <polygon class="cls-9" points="63.142 41.035 60.504 42.56 60.512 45.59 63.151 44.065 63.142 41.035 63.142 41.035"/>
                  <polygon class="cls-14" points="63.133 38.003 60.496 39.527 60.504 42.56 63.142 41.035 63.133 38.003 63.133 38.003"/>
                  <polygon class="cls-15" points="63.125 34.972 60.486 36.495 60.496 39.527 63.133 38.003 63.125 34.972 63.125 34.972"/>
                  <polygon class="cls-12" points="63.116 31.94 60.478 33.464 60.486 36.495 63.125 34.972 63.116 31.94 63.116 31.94"/>
                  <polygon class="cls-8" points="63.108 28.907 60.469 30.432 60.478 33.464 63.116 31.94 63.108 28.907 63.108 28.907"/>
                  <polygon class="cls-16" points="63.099 25.877 60.46 27.401 60.469 30.432 63.108 28.907 63.099 25.877 63.099 25.877"/>
                  <polygon class="cls-14" points="63.091 22.848 60.452 24.37 60.46 27.401 63.099 25.877 63.091 22.848 63.091 22.848"/>
                  <polygon class="cls-6" points="60.555 60.744 57.916 62.268 57.925 65.299 60.564 63.774 60.555 60.744 60.555 60.744"/>
                  <polygon class="cls-9" points="60.547 57.712 57.908 59.236 57.916 62.268 60.555 60.744 60.547 57.712 60.547 57.712"/>
                  <polygon class="cls-9" points="60.538 54.68 57.899 56.204 57.908 59.236 60.547 57.712 60.538 54.68 60.538 54.68"/>
                  <polygon class="cls-8" points="60.529 51.65 57.891 53.175 57.899 56.204 60.538 54.68 60.529 51.65 60.529 51.65"/>
                  <polygon class="cls-6" points="60.52 48.622 57.883 50.145 57.891 53.175 60.529 51.65 60.52 48.622 60.52 48.622"/>
                  <polygon class="cls-9" points="60.512 45.59 57.874 47.112 57.883 50.145 60.52 48.622 60.512 45.59 60.512 45.59"/>
                  <polygon class="cls-7" points="60.504 42.56 57.865 44.083 57.874 47.112 60.512 45.59 60.504 42.56 60.504 42.56"/>
                  <polygon class="cls-14" points="60.496 39.527 57.856 41.051 57.865 44.083 60.504 42.56 60.496 39.527 60.496 39.527"/>
                  <polygon class="cls-17" points="60.486 36.495 57.848 38.019 57.856 41.051 60.496 39.527 60.486 36.495 60.486 36.495"/>
                  <polygon class="cls-6" points="60.478 33.464 57.839 34.986 57.848 38.019 60.486 36.495 60.478 33.464 60.478 33.464"/>
                  <polygon class="cls-9" points="60.469 30.432 57.831 31.954 57.839 34.986 60.478 33.464 60.469 30.432 60.469 30.432"/>
                  <polygon class="cls-8" points="60.46 27.401 57.821 28.925 57.831 31.954 60.469 30.432 60.46 27.401 60.46 27.401"/>
                  <polygon class="cls-8" points="60.452 24.37 57.813 25.895 57.821 28.925 60.46 27.401 60.452 24.37 60.452 24.37"/>
                  <polygon class="cls-6" points="57.916 62.268 55.279 63.79 55.287 66.822 57.925 65.299 57.916 62.268 57.916 62.268"/>
                  <polygon class="cls-9" points="57.908 59.236 55.27 60.759 55.279 63.79 57.916 62.268 57.908 59.236 57.908 59.236"/>
                  <polygon class="cls-9" points="57.899 56.204 55.262 57.726 55.27 60.759 57.908 59.236 57.899 56.204 57.899 56.204"/>
                  <polygon class="cls-14" points="57.891 53.175 55.253 54.697 55.262 57.726 57.899 56.204 57.891 53.175 57.891 53.175"/>
                  <polygon class="cls-8" points="57.883 50.145 55.245 51.668 55.253 54.697 57.891 53.175 57.883 50.145 57.883 50.145"/>
                  <polygon class="cls-8" points="57.874 47.112 55.235 48.636 55.245 51.668 57.883 50.145 57.874 47.112 57.874 47.112"/>
                  <polygon class="cls-12" points="57.865 44.083 55.228 45.605 55.235 48.636 57.874 47.112 57.865 44.083 57.865 44.083"/>
                  <polygon class="cls-12" points="57.856 41.051 55.219 42.573 55.228 45.605 57.865 44.083 57.856 41.051 57.856 41.051"/>
                  <polygon class="cls-6" points="57.848 38.019 55.21 39.54 55.219 42.573 57.856 41.051 57.848 38.019 57.848 38.019"/>
                  <polygon class="cls-9" points="57.839 34.986 55.202 36.509 55.21 39.54 57.848 38.019 57.839 34.986 57.839 34.986"/>
                  <polygon class="cls-9" points="57.831 31.954 55.193 33.477 55.202 36.509 57.839 34.986 57.831 31.954 57.831 31.954"/>
                  <polygon class="cls-15" points="57.821 28.925 55.185 30.447 55.193 33.477 57.831 31.954 57.821 28.925 57.821 28.925"/>
                  <polygon class="cls-11" points="57.813 25.895 55.176 27.415 55.185 30.447 57.821 28.925 57.813 25.895 57.813 25.895"/>
                  <polygon class="cls-13" points="55.279 63.79 52.641 65.314 52.649 68.346 55.287 66.822 55.279 63.79 55.279 63.79"/>
                  <polygon class="cls-6" points="55.27 60.759 52.632 62.281 52.641 65.314 55.279 63.79 55.27 60.759 55.27 60.759"/>
                  <polygon class="cls-7" points="55.262 57.726 52.623 59.249 52.632 62.281 55.27 60.759 55.262 57.726 55.262 57.726"/>
                  <polygon class="cls-14" points="55.253 54.697 52.614 56.22 52.623 59.249 55.262 57.726 55.253 54.697 55.253 54.697"/>
                  <polygon class="cls-6" points="55.245 51.668 52.606 53.191 52.614 56.22 55.253 54.697 55.245 51.668 55.245 51.668"/>
                  <polygon class="cls-9" points="55.235 48.636 52.598 50.158 52.606 53.191 55.245 51.668 55.235 48.636 55.235 48.636"/>
                  <polygon class="cls-9" points="55.228 45.605 52.589 47.129 52.598 50.158 55.235 48.636 55.228 45.605 55.228 45.605"/>
                  <polygon class="cls-8" points="55.219 42.573 52.581 44.095 52.589 47.129 55.228 45.605 55.219 42.573 55.219 42.573"/>
                  <polygon class="cls-9" points="55.21 39.54 52.572 41.064 52.581 44.095 55.219 42.573 55.21 39.54 55.21 39.54"/>
                  <polygon class="cls-9" points="55.202 36.509 52.563 38.034 52.572 41.064 55.21 39.54 55.202 36.509 55.202 36.509"/>
                  <polygon class="cls-7" points="55.193 33.477 52.554 34.999 52.563 38.034 55.202 36.509 55.193 33.477 55.193 33.477"/>
                  <polygon class="cls-8" points="55.185 30.447 52.546 31.971 52.554 34.999 55.193 33.477 55.185 30.447 55.185 30.447"/>
                  <polygon class="cls-16" points="55.176 27.415 52.538 28.939 52.546 31.971 55.185 30.447 55.176 27.415 55.176 27.415"/>
                  <polygon class="cls-6" points="52.641 65.314 50.002 66.836 50.011 69.869 52.649 68.346 52.641 65.314 52.641 65.314"/>
                  <polygon class="cls-7" points="52.632 62.281 49.993 63.805 50.002 66.836 52.641 65.314 52.632 62.281 52.632 62.281"/>
                  <polygon class="cls-9" points="52.623 59.249 49.985 60.773 49.993 63.805 52.632 62.281 52.623 59.249 52.623 59.249"/>
                  <polygon class="cls-8" points="52.614 56.22 49.977 57.744 49.985 60.773 52.623 59.249 52.614 56.22 52.614 56.22"/>
                  <polygon class="cls-13" points="52.606 53.191 49.968 54.715 49.977 57.744 52.614 56.22 52.606 53.191 52.606 53.191"/>
                  <polygon class="cls-9" points="52.598 50.158 49.959 51.681 49.968 54.715 52.606 53.191 52.598 50.158 52.598 50.158"/>
                  <polygon class="cls-7" points="52.589 47.129 49.95 48.652 49.959 51.681 52.598 50.158 52.589 47.129 52.589 47.129"/>
                  <polygon class="cls-11" points="52.581 44.095 49.941 45.62 49.95 48.652 52.589 47.129 52.581 44.095 52.581 44.095"/>
                  <polygon class="cls-9" points="52.572 41.064 49.933 42.589 49.941 45.62 52.581 44.095 52.572 41.064 52.572 41.064"/>
                  <polygon class="cls-9" points="52.563 38.034 49.925 39.556 49.933 42.589 52.572 41.064 52.563 38.034 52.563 38.034"/>
                  <polygon class="cls-7" points="52.554 34.999 49.916 36.522 49.925 39.556 52.563 38.034 52.554 34.999 52.554 34.999"/>
                  <polygon class="cls-16" points="52.546 31.971 49.908 33.494 49.916 36.522 52.554 34.999 52.546 31.971 52.546 31.971"/>
                  <polygon class="cls-10" points="52.538 28.939 49.898 30.464 49.908 33.494 52.546 31.971 52.538 28.939 52.538 28.939"/>
                  <polygon class="cls-8" points="50.002 66.836 47.363 68.36 47.372 71.393 50.011 69.869 50.002 66.836 50.002 66.836"/>
                  <polygon class="cls-11" points="49.993 63.805 47.355 65.328 47.363 68.36 50.002 66.836 49.993 63.805 49.993 63.805"/>
                  <polygon class="cls-8" points="49.985 60.773 47.346 62.298 47.355 65.328 49.993 63.805 49.985 60.773 49.985 60.773"/>
                  <polygon class="cls-12" points="49.977 57.744 47.337 59.269 47.346 62.298 49.985 60.773 49.977 57.744 49.977 57.744"/>
                  <polygon class="cls-9" points="49.968 54.715 47.329 56.236 47.337 59.269 49.977 57.744 49.968 54.715 49.968 54.715"/>
                  <polygon class="cls-6" points="49.959 51.681 47.32 53.206 47.329 56.236 49.968 54.715 49.959 51.681 49.959 51.681"/>
                  <polygon class="cls-9" points="49.95 48.652 47.311 50.175 47.32 53.206 49.959 51.681 49.95 48.652 49.95 48.652"/>
                  <polygon class="cls-8" points="49.941 45.62 47.304 47.145 47.311 50.175 49.95 48.652 49.941 45.62 49.941 45.62"/>
                  <polygon class="cls-6" points="49.933 42.589 47.295 44.111 47.304 47.145 49.941 45.62 49.933 42.589 49.933 42.589"/>
                  <polygon class="cls-9" points="49.925 39.556 47.286 41.078 47.295 44.111 49.933 42.589 49.925 39.556 49.925 39.556"/>
                  <polygon class="cls-9" points="49.916 36.522 47.277 38.047 47.286 41.078 49.925 39.556 49.916 36.522 49.916 36.522"/>
                  <polygon class="cls-12" points="49.908 33.494 47.269 35.016 47.277 38.047 49.916 36.522 49.908 33.494 49.908 33.494"/>
                  <polygon class="cls-11" points="49.898 30.464 47.26 31.987 47.269 35.016 49.908 33.494 49.898 30.464 49.898 30.464"/>
                  <polygon class="cls-6" points="47.363 68.36 44.726 69.884 44.735 72.915 47.372 71.393 47.363 68.36 47.363 68.36"/>
                  <polygon class="cls-6" points="47.355 65.328 44.718 66.852 44.726 69.884 47.363 68.36 47.355 65.328 47.355 65.328"/>
                  <polygon class="cls-9" points="47.346 62.298 44.708 63.819 44.718 66.852 47.355 65.328 47.346 62.298 47.346 62.298"/>
                  <polygon class="cls-8" points="47.337 59.269 44.7 60.789 44.708 63.819 47.346 62.298 47.337 59.269 47.337 59.269"/>
                  <polygon class="cls-6" points="47.329 56.236 44.691 57.76 44.7 60.789 47.337 59.269 47.329 56.236 47.329 56.236"/>
                  <polygon class="cls-9" points="47.32 53.206 44.683 54.728 44.691 57.76 47.329 56.236 47.32 53.206 47.32 53.206"/>
                  <polygon class="cls-9" points="47.311 50.175 44.675 51.697 44.683 54.728 47.32 53.206 47.311 50.175 47.311 50.175"/>
                  <polygon class="cls-15" points="47.304 47.145 44.666 48.665 44.675 51.697 47.311 50.175 47.304 47.145 47.304 47.145"/>
                  <polygon class="cls-9" points="47.295 44.111 44.657 45.634 44.666 48.665 47.304 47.145 47.295 44.111 47.295 44.111"/>
                  <polygon class="cls-9" points="47.286 41.078 44.649 42.602 44.657 45.634 47.295 44.111 47.286 41.078 47.286 41.078"/>
                  <polygon class="cls-6" points="47.277 38.047 44.64 39.569 44.649 42.602 47.286 41.078 47.277 38.047 47.277 38.047"/>
                  <polygon class="cls-8" points="47.269 35.016 44.631 36.539 44.64 39.569 47.277 38.047 47.269 35.016 47.269 35.016"/>
                  <polygon class="cls-8" points="47.26 31.987 44.623 33.509 44.631 36.539 47.269 35.016 47.26 31.987 47.26 31.987"/>
                  <polygon class="cls-6" points="44.726 69.884 42.089 71.405 42.098 74.438 44.735 72.915 44.726 69.884 44.726 69.884"/>
                  <polygon class="cls-9" points="44.718 66.852 42.081 68.374 42.089 71.405 44.726 69.884 44.718 66.852 44.718 66.852"/>
                  <polygon class="cls-9" points="44.708 63.819 42.071 65.342 42.081 68.374 44.718 66.852 44.708 63.819 44.708 63.819"/>
                  <polygon class="cls-11" points="44.7 60.789 42.063 62.313 42.071 65.342 44.708 63.819 44.7 60.789 44.7 60.789"/>
                  <polygon class="cls-9" points="44.691 57.76 42.055 59.282 42.063 62.313 44.7 60.789 44.691 57.76 44.691 57.76"/>
                  <polygon class="cls-9" points="44.683 54.728 42.046 56.251 42.055 59.282 44.691 57.76 44.683 54.728 44.683 54.728"/>
                  <polygon class="cls-7" points="44.675 51.697 42.038 53.221 42.046 56.251 44.683 54.728 44.675 51.697 44.675 51.697"/>
                  <polygon class="cls-12" points="44.666 48.665 42.028 50.188 42.038 53.221 44.675 51.697 44.666 48.665 44.666 48.665"/>
                  <polygon class="cls-11" points="44.657 45.634 42.02 47.155 42.028 50.188 44.666 48.665 44.657 45.634 44.657 45.634"/>
                  <polygon class="cls-15" points="44.649 42.602 42.011 44.124 42.02 47.155 44.657 45.634 44.649 42.602 44.649 42.602"/>
                  <polygon class="cls-8" points="44.64 39.569 42.003 41.094 42.011 44.124 44.649 42.602 44.64 39.569 44.64 39.569"/>
                  <polygon class="cls-16" points="44.631 36.539 41.994 38.063 42.003 41.094 44.64 39.569 44.631 36.539 44.631 36.539"/>
                  <polygon class="cls-14" points="44.623 33.509 41.986 35.031 41.994 38.063 44.631 36.539 44.623 33.509 44.623 33.509"/>
                  <polygon class="cls-6" points="42.089 71.405 39.452 72.929 39.46 75.961 42.098 74.438 42.089 71.405 42.089 71.405"/>
                  <polygon class="cls-9" points="42.081 68.374 39.442 69.896 39.452 72.929 42.089 71.405 42.081 68.374 42.081 68.374"/>
                  <polygon class="cls-7" points="42.071 65.342 39.435 66.865 39.442 69.896 42.081 68.374 42.071 65.342 42.071 65.342"/>
                  <polygon class="cls-8" points="42.063 62.313 39.426 63.836 39.435 66.865 42.071 65.342 42.063 62.313 42.063 62.313"/>
                  <polygon class="cls-6" points="42.055 59.282 39.418 60.806 39.426 63.836 42.063 62.313 42.055 59.282 42.055 59.282"/>
                  <polygon class="cls-7" points="42.046 56.251 39.409 57.772 39.418 60.806 42.055 59.282 42.046 56.251 42.046 56.251"/>
                  <polygon class="cls-9" points="42.038 53.221 39.4 54.743 39.409 57.772 42.046 56.251 42.038 53.221 42.038 53.221"/>
                  <polygon class="cls-14" points="42.028 50.188 39.391 51.711 39.4 54.743 42.038 53.221 42.028 50.188 42.028 50.188"/>
                  <polygon class="cls-6" points="42.02 47.155 39.383 48.68 39.391 51.711 42.028 50.188 42.02 47.155 42.02 47.155"/>
                  <polygon class="cls-6" points="42.011 44.124 39.374 45.647 39.383 48.68 42.02 47.155 42.011 44.124 42.011 44.124"/>
                  <polygon class="cls-9" points="42.003 41.094 39.366 42.614 39.374 45.647 42.011 44.124 42.003 41.094 42.003 41.094"/>
                  <polygon class="cls-8" points="41.994 38.063 39.358 39.584 39.366 42.614 42.003 41.094 41.994 38.063 41.994 38.063"/>
                  <polygon class="cls-11" points="41.986 35.031 39.348 36.555 39.358 39.584 41.994 38.063 41.986 35.031 41.986 35.031"/>
                  <polygon class="cls-6" points="39.452 72.929 36.813 74.451 36.821 77.485 39.46 75.961 39.452 72.929 39.452 72.929"/>
                  <polygon class="cls-6" points="39.442 69.896 36.805 71.42 36.813 74.451 39.452 72.929 39.442 69.896 39.442 69.896"/>
                  <polygon class="cls-7" points="39.435 66.865 36.796 68.389 36.805 71.42 39.442 69.896 39.435 66.865 39.435 66.865"/>
                  <polygon class="cls-12" points="39.426 63.836 36.787 65.36 36.796 68.389 39.435 66.865 39.426 63.836 39.426 63.836"/>
                  <polygon class="cls-8" points="39.418 60.806 36.779 62.329 36.787 65.36 39.426 63.836 39.418 60.806 39.418 60.806"/>
                  <polygon class="cls-10" points="39.409 57.772 36.77 59.297 36.779 62.329 39.418 60.806 39.409 57.772 39.409 57.772"/>
                  <polygon class="cls-8" points="39.4 54.743 36.761 56.266 36.77 59.297 39.409 57.772 39.4 54.743 39.4 54.743"/>
                  <polygon class="cls-14" points="39.391 51.711 36.753 53.234 36.761 56.266 39.4 54.743 39.391 51.711 39.391 51.711"/>
                  <polygon class="cls-6" points="39.383 48.68 36.745 50.202 36.753 53.234 39.391 51.711 39.383 48.68 39.383 48.68"/>
                  <polygon class="cls-9" points="39.374 45.647 36.735 47.171 36.745 50.202 39.383 48.68 39.374 45.647 39.374 45.647"/>
                  <polygon class="cls-9" points="39.366 42.614 36.727 44.139 36.735 47.171 39.374 45.647 39.366 42.614 39.366 42.614"/>
                  <polygon class="cls-12" points="39.358 39.584 36.719 41.107 36.727 44.139 39.366 42.614 39.358 39.584 39.358 39.584"/>
                  <polygon class="cls-8" points="39.348 36.555 36.709 38.077 36.719 41.107 39.358 39.584 39.348 36.555 39.348 36.555"/>
                  <polygon class="cls-6" points="36.813 74.451 34.176 75.976 34.184 79.006 36.821 77.485 36.813 74.451 36.813 74.451"/>
                  <polygon class="cls-9" points="36.805 71.42 34.167 72.943 34.176 75.976 36.813 74.451 36.805 71.42 36.805 71.42"/>
                  <polygon class="cls-7" points="36.796 68.389 34.159 69.91 34.167 72.943 36.805 71.42 36.796 68.389 36.796 68.389"/>
                  <polygon class="cls-8" points="36.787 65.36 34.15 66.882 34.159 69.91 36.796 68.389 36.787 65.36 36.787 65.36"/>
                  <polygon class="cls-9" points="36.779 62.329 34.141 63.851 34.15 66.882 36.787 65.36 36.779 62.329 36.779 62.329"/>
                  <polygon class="cls-9" points="36.77 59.297 34.133 60.819 34.141 63.851 36.779 62.329 36.77 59.297 36.77 59.297"/>
                  <polygon class="cls-9" points="36.761 56.266 34.124 57.789 34.133 60.819 36.77 59.297 36.761 56.266 36.761 56.266"/>
                  <polygon class="cls-8" points="36.753 53.234 34.116 54.757 34.124 57.789 36.761 56.266 36.753 53.234 36.753 53.234"/>
                  <polygon class="cls-6" points="36.745 50.202 34.107 51.726 34.116 54.757 36.753 53.234 36.745 50.202 36.745 50.202"/>
                  <polygon class="cls-9" points="36.735 47.171 34.099 48.692 34.107 51.726 36.745 50.202 36.735 47.171 36.735 47.171"/>
                  <polygon class="cls-7" points="36.727 44.139 34.09 45.661 34.099 48.692 36.735 47.171 36.727 44.139 36.727 44.139"/>
                  <polygon class="cls-8" points="36.719 41.107 34.081 42.631 34.09 45.661 36.727 44.139 36.719 41.107 36.719 41.107"/>
                  <polygon class="cls-11" points="36.709 38.077 34.072 39.601 34.081 42.631 36.719 41.107 36.709 38.077 36.709 38.077"/>
                </g>
              </g>
            </g>
            <g class="cls-4">
              <polygon class="cls-2" points="34.184 79.007 0.112 59.206 0 19.799 34.072 39.6 34.184 79.007"/>
              <g class="cls-18">
                <g>
                  <polygon class="cls-6" points="34.173 75.973 31.554 74.451 31.562 77.483 34.182 79.006 34.173 75.973 34.173 75.973"/>
                  <polygon class="cls-6" points="34.165 72.941 31.545 71.42 31.554 74.451 34.173 75.973 34.165 72.941 34.165 72.941"/>
                  <polygon class="cls-7" points="34.157 69.91 31.537 68.388 31.545 71.42 34.165 72.941 34.157 69.91 34.157 69.91"/>
                  <polygon class="cls-8" points="34.147 66.882 31.528 65.358 31.537 68.388 34.157 69.91 34.147 66.882 34.147 66.882"/>
                  <polygon class="cls-6" points="34.14 63.85 31.52 62.329 31.528 65.358 34.147 66.882 34.14 63.85 34.14 63.85"/>
                  <polygon class="cls-9" points="34.131 60.819 31.511 59.296 31.52 62.329 34.14 63.85 34.131 60.819 34.131 60.819"/>
                  <polygon class="cls-9" points="34.122 57.789 31.501 56.266 31.511 59.296 34.131 60.819 34.122 57.789 34.122 57.789"/>
                  <polygon class="cls-8" points="34.114 54.757 31.493 53.233 31.501 56.266 34.122 57.789 34.114 54.757 34.114 54.757"/>
                  <polygon class="cls-9" points="34.105 51.726 31.485 50.202 31.493 53.233 34.114 54.757 34.105 51.726 34.105 51.726"/>
                  <polygon class="cls-9" points="34.097 48.692 31.477 47.171 31.485 50.202 34.105 51.726 34.097 48.692 34.097 48.692"/>
                  <polygon class="cls-9" points="34.088 45.661 31.468 44.138 31.477 47.171 34.097 48.692 34.088 45.661 34.088 45.661"/>
                  <polygon class="cls-8" points="34.079 42.631 31.459 41.107 31.468 44.138 34.088 45.661 34.079 42.631 34.079 42.631"/>
                  <polygon class="cls-10" points="34.07 39.601 31.451 38.076 31.459 41.107 34.079 42.631 34.07 39.601 34.07 39.601"/>
                  <polygon class="cls-8" points="31.554 74.451 28.934 72.929 28.942 75.961 31.562 77.483 31.554 74.451 31.554 74.451"/>
                  <polygon class="cls-8" points="31.545 71.42 28.925 69.897 28.934 72.929 31.554 74.451 31.545 71.42 31.545 71.42"/>
                  <polygon class="cls-8" points="31.537 68.388 28.916 66.865 28.925 69.897 31.545 71.42 31.537 68.388 31.537 68.388"/>
                  <polygon class="cls-11" points="31.528 65.358 28.908 63.836 28.916 66.865 31.537 68.388 31.528 65.358 31.528 65.358"/>
                  <polygon class="cls-6" points="31.52 62.329 28.899 60.806 28.908 63.836 31.528 65.358 31.52 62.329 31.52 62.329"/>
                  <polygon class="cls-9" points="31.511 59.296 28.891 57.772 28.899 60.806 31.52 62.329 31.511 59.296 31.511 59.296"/>
                  <polygon class="cls-7" points="31.501 56.266 28.882 54.743 28.891 57.772 31.511 59.296 31.501 56.266 31.501 56.266"/>
                  <polygon class="cls-8" points="31.493 53.233 28.874 51.711 28.882 54.743 31.501 56.266 31.493 53.233 31.493 53.233"/>
                  <polygon class="cls-9" points="31.485 50.202 28.864 48.68 28.874 51.711 31.493 53.233 31.485 50.202 31.485 50.202"/>
                  <polygon class="cls-6" points="31.477 47.171 28.856 45.647 28.864 48.68 31.485 50.202 31.477 47.171 31.477 47.171"/>
                  <polygon class="cls-7" points="31.468 44.138 28.848 42.614 28.856 45.647 31.477 47.171 31.468 44.138 31.468 44.138"/>
                  <polygon class="cls-12" points="31.459 41.107 28.839 39.584 28.848 42.614 31.468 44.138 31.459 41.107 31.459 41.107"/>
                  <polygon class="cls-8" points="31.451 38.076 28.831 36.555 28.839 39.584 31.459 41.107 31.451 38.076 31.451 38.076"/>
                  <polygon class="cls-13" points="28.934 72.929 26.312 71.405 26.321 74.437 28.942 75.961 28.934 72.929 28.934 72.929"/>
                  <polygon class="cls-9" points="28.925 69.897 26.304 68.374 26.312 71.405 28.934 72.929 28.925 69.897 28.925 69.897"/>
                  <polygon class="cls-7" points="28.916 66.865 26.295 65.341 26.304 68.374 28.925 69.897 28.916 66.865 28.916 66.865"/>
                  <polygon class="cls-11" points="28.908 63.836 26.287 62.313 26.295 65.341 28.916 66.865 28.908 63.836 28.908 63.836"/>
                  <polygon class="cls-9" points="28.899 60.806 26.278 59.282 26.287 62.313 28.908 63.836 28.899 60.806 28.899 60.806"/>
                  <polygon class="cls-9" points="28.891 57.772 26.27 56.251 26.278 59.282 28.899 60.806 28.891 57.772 28.891 57.772"/>
                  <polygon class="cls-9" points="28.882 54.743 26.26 53.221 26.27 56.251 28.891 57.772 28.882 54.743 28.882 54.743"/>
                  <polygon class="cls-14" points="28.874 51.711 26.252 50.188 26.26 53.221 28.882 54.743 28.874 51.711 28.874 51.711"/>
                  <polygon class="cls-15" points="28.864 48.68 26.243 47.155 26.252 50.188 28.874 51.711 28.864 48.68 28.864 48.68"/>
                  <polygon class="cls-12" points="28.856 45.647 26.235 44.124 26.243 47.155 28.864 48.68 28.856 45.647 28.856 45.647"/>
                  <polygon class="cls-8" points="28.848 42.614 26.227 41.093 26.235 44.124 28.856 45.647 28.848 42.614 28.848 42.614"/>
                  <polygon class="cls-16" points="28.839 39.584 26.218 38.063 26.227 41.093 28.848 42.614 28.839 39.584 28.839 39.584"/>
                  <polygon class="cls-14" points="28.831 36.555 26.209 35.03 26.218 38.063 28.839 39.584 28.831 36.555 28.831 36.555"/>
                  <polygon class="cls-6" points="26.312 71.405 23.691 69.882 23.699 72.914 26.321 74.437 26.312 71.405 26.312 71.405"/>
                  <polygon class="cls-9" points="26.304 68.374 23.683 66.851 23.691 69.882 26.312 71.405 26.304 68.374 26.304 68.374"/>
                  <polygon class="cls-9" points="26.295 65.341 23.673 63.817 23.683 66.851 26.304 68.374 26.295 65.341 26.295 65.341"/>
                  <polygon class="cls-8" points="26.287 62.313 23.665 60.788 23.673 63.817 26.295 65.341 26.287 62.313 26.287 62.313"/>
                  <polygon class="cls-6" points="26.278 59.282 23.656 57.759 23.665 60.788 26.287 62.313 26.278 59.282 26.278 59.282"/>
                  <polygon class="cls-9" points="26.27 56.251 23.648 54.727 23.656 57.759 26.278 59.282 26.27 56.251 26.27 56.251"/>
                  <polygon class="cls-7" points="26.26 53.221 23.639 51.696 23.648 54.727 26.27 56.251 26.26 53.221 26.26 53.221"/>
                  <polygon class="cls-14" points="26.252 50.188 23.63 48.665 23.639 51.696 26.26 53.221 26.252 50.188 26.252 50.188"/>
                  <polygon class="cls-17" points="26.243 47.155 23.622 45.631 23.63 48.665 26.252 50.188 26.243 47.155 26.243 47.155"/>
                  <polygon class="cls-6" points="26.235 44.124 23.614 42.601 23.622 45.631 26.243 47.155 26.235 44.124 26.235 44.124"/>
                  <polygon class="cls-9" points="26.227 41.093 23.604 39.569 23.614 42.601 26.235 44.124 26.227 41.093 26.227 41.093"/>
                  <polygon class="cls-8" points="26.218 38.063 23.596 36.538 23.604 39.569 26.227 41.093 26.218 38.063 26.218 38.063"/>
                  <polygon class="cls-8" points="26.209 35.03 23.588 33.508 23.596 36.538 26.218 38.063 26.209 35.03 26.209 35.03"/>
                  <polygon class="cls-6" points="23.691 69.882 21.07 68.359 21.079 71.391 23.699 72.914 23.691 69.882 23.691 69.882"/>
                  <polygon class="cls-9" points="23.683 66.851 21.062 65.327 21.07 68.359 23.691 69.882 23.683 66.851 23.683 66.851"/>
                  <polygon class="cls-9" points="23.673 63.817 21.054 62.295 21.062 65.327 23.683 66.851 23.673 63.817 23.673 63.817"/>
                  <polygon class="cls-14" points="23.665 60.788 21.044 59.267 21.054 62.295 23.673 63.817 23.665 60.788 23.665 60.788"/>
                  <polygon class="cls-8" points="23.656 57.759 21.036 56.235 21.044 59.267 23.665 60.788 23.656 57.759 23.656 57.759"/>
                  <polygon class="cls-8" points="23.648 54.727 21.028 53.203 21.036 56.235 23.656 57.759 23.648 54.727 23.648 54.727"/>
                  <polygon class="cls-12" points="23.639 51.696 21.019 50.173 21.028 53.203 23.648 54.727 23.639 51.696 23.639 51.696"/>
                  <polygon class="cls-12" points="23.63 48.665 21.011 47.142 21.019 50.173 23.639 51.696 23.63 48.665 23.63 48.665"/>
                  <polygon class="cls-6" points="23.622 45.631 21.001 44.11 21.011 47.142 23.63 48.665 23.622 45.631 23.622 45.631"/>
                  <polygon class="cls-9" points="23.614 42.601 20.993 41.077 21.001 44.11 23.622 45.631 23.614 42.601 23.614 42.601"/>
                  <polygon class="cls-9" points="23.604 39.569 20.985 38.045 20.993 41.077 23.614 42.601 23.604 39.569 23.604 39.569"/>
                  <polygon class="cls-15" points="23.596 36.538 20.976 35.015 20.985 38.045 23.604 39.569 23.596 36.538 23.596 36.538"/>
                  <polygon class="cls-11" points="23.588 33.508 20.968 31.985 20.976 35.015 23.596 36.538 23.588 33.508 23.588 33.508"/>
                  <polygon class="cls-13" points="21.07 68.359 18.449 66.835 18.458 69.868 21.079 71.391 21.07 68.359 21.07 68.359"/>
                  <polygon class="cls-6" points="21.062 65.327 18.441 63.805 18.449 66.835 21.07 68.359 21.062 65.327 21.062 65.327"/>
                  <polygon class="cls-7" points="21.054 62.295 18.433 60.772 18.441 63.805 21.062 65.327 21.054 62.295 21.054 62.295"/>
                  <polygon class="cls-14" points="21.044 59.267 18.423 57.743 18.433 60.772 21.054 62.295 21.044 59.267 21.044 59.267"/>
                  <polygon class="cls-6" points="21.036 56.235 18.415 54.713 18.423 57.743 21.044 59.267 21.036 56.235 21.036 56.235"/>
                  <polygon class="cls-9" points="21.028 53.203 18.407 51.68 18.415 54.713 21.036 56.235 21.028 53.203 21.028 53.203"/>
                  <polygon class="cls-9" points="21.019 50.173 18.397 48.65 18.407 51.68 21.028 53.203 21.019 50.173 21.019 50.173"/>
                  <polygon class="cls-8" points="21.011 47.142 18.389 45.618 18.397 48.65 21.019 50.173 21.011 47.142 21.011 47.142"/>
                  <polygon class="cls-9" points="21.001 44.11 18.38 42.586 18.389 45.618 21.011 47.142 21.001 44.11 21.001 44.11"/>
                  <polygon class="cls-9" points="20.993 41.077 18.372 39.554 18.38 42.586 21.001 44.11 20.993 41.077 20.993 41.077"/>
                  <polygon class="cls-7" points="20.985 38.045 18.363 36.522 18.372 39.554 20.993 41.077 20.985 38.045 20.985 38.045"/>
                  <polygon class="cls-8" points="20.976 35.015 18.355 33.492 18.363 36.522 20.985 38.045 20.976 35.015 20.976 35.015"/>
                  <polygon class="cls-16" points="20.968 31.985 18.346 30.461 18.355 33.492 20.976 35.015 20.968 31.985 20.968 31.985"/>
                  <polygon class="cls-6" points="18.449 66.835 15.828 65.312 15.836 68.345 18.458 69.868 18.449 66.835 18.449 66.835"/>
                  <polygon class="cls-7" points="18.441 63.805 15.82 62.28 15.828 65.312 18.449 66.835 18.441 63.805 18.441 63.805"/>
                  <polygon class="cls-9" points="18.433 60.772 15.81 59.248 15.82 62.28 18.441 63.805 18.433 60.772 18.433 60.772"/>
                  <polygon class="cls-8" points="18.423 57.743 15.802 56.219 15.81 59.248 18.433 60.772 18.423 57.743 18.423 57.743"/>
                  <polygon class="cls-13" points="18.415 54.713 15.793 53.189 15.802 56.219 18.423 57.743 18.415 54.713 18.415 54.713"/>
                  <polygon class="cls-9" points="18.407 51.68 15.785 50.158 15.793 53.189 18.415 54.713 18.407 51.68 18.407 51.68"/>
                  <polygon class="cls-7" points="18.397 48.65 15.776 47.126 15.785 50.158 18.407 51.68 18.397 48.65 18.397 48.65"/>
                  <polygon class="cls-11" points="18.389 45.618 15.768 44.095 15.776 47.126 18.397 48.65 18.389 45.618 18.389 45.618"/>
                  <polygon class="cls-9" points="18.38 42.586 15.759 41.063 15.768 44.095 18.389 45.618 18.38 42.586 18.38 42.586"/>
                  <polygon class="cls-9" points="18.372 39.554 15.75 38.03 15.759 41.063 18.38 42.586 18.372 39.554 18.372 39.554"/>
                  <polygon class="cls-7" points="18.363 36.522 15.742 34.999 15.75 38.03 18.372 39.554 18.363 36.522 18.363 36.522"/>
                  <polygon class="cls-16" points="18.355 33.492 15.733 31.968 15.742 34.999 18.363 36.522 18.355 33.492 18.355 33.492"/>
                  <polygon class="cls-10" points="18.346 30.461 15.724 28.938 15.733 31.968 18.355 33.492 18.346 30.461 18.346 30.461"/>
                  <polygon class="cls-8" points="15.828 65.312 13.207 63.789 13.215 66.821 15.836 68.345 15.828 65.312 15.828 65.312"/>
                  <polygon class="cls-11" points="15.82 62.28 13.197 60.756 13.207 63.789 15.828 65.312 15.82 62.28 15.82 62.28"/>
                  <polygon class="cls-8" points="15.81 59.248 13.189 57.725 13.197 60.756 15.82 62.28 15.81 59.248 15.81 59.248"/>
                  <polygon class="cls-12" points="15.802 56.219 13.181 54.696 13.189 57.725 15.81 59.248 15.802 56.219 15.802 56.219"/>
                  <polygon class="cls-9" points="15.793 53.189 13.171 51.665 13.181 54.696 15.802 56.219 15.793 53.189 15.793 53.189"/>
                  <polygon class="cls-6" points="15.785 50.158 13.164 48.634 13.171 51.665 15.793 53.189 15.785 50.158 15.785 50.158"/>
                  <polygon class="cls-9" points="15.776 47.126 13.154 45.603 13.164 48.634 15.785 50.158 15.776 47.126 15.776 47.126"/>
                  <polygon class="cls-8" points="15.768 44.095 13.146 42.57 13.154 45.603 15.776 47.126 15.768 44.095 15.768 44.095"/>
                  <polygon class="cls-6" points="15.759 41.063 13.138 39.539 13.146 42.57 15.768 44.095 15.759 41.063 15.759 41.063"/>
                  <polygon class="cls-9" points="15.75 38.03 13.129 36.507 13.138 39.539 15.759 41.063 15.75 38.03 15.75 38.03"/>
                  <polygon class="cls-9" points="15.742 34.999 13.121 33.476 13.129 36.507 15.75 38.03 15.742 34.999 15.742 34.999"/>
                  <polygon class="cls-12" points="15.733 31.968 13.112 30.444 13.121 33.476 15.742 34.999 15.733 31.968 15.733 31.968"/>
                  <polygon class="cls-11" points="15.724 28.938 13.103 27.415 13.112 30.444 15.733 31.968 15.724 28.938 15.724 28.938"/>
                  <polygon class="cls-6" points="13.207 63.789 10.586 62.266 10.595 65.298 13.215 66.821 13.207 63.789 13.207 63.789"/>
                  <polygon class="cls-6" points="13.197 60.756 10.578 59.235 10.586 62.266 13.207 63.789 13.197 60.756 13.197 60.756"/>
                  <polygon class="cls-9" points="13.189 57.725 10.569 56.202 10.578 59.235 13.197 60.756 13.189 57.725 13.189 57.725"/>
                  <polygon class="cls-8" points="13.181 54.696 10.561 53.173 10.569 56.202 13.189 57.725 13.181 54.696 13.181 54.696"/>
                  <polygon class="cls-6" points="13.171 51.665 10.552 50.144 10.561 53.173 13.181 54.696 13.171 51.665 13.171 51.665"/>
                  <polygon class="cls-9" points="13.164 48.634 10.543 47.11 10.552 50.144 13.171 51.665 13.164 48.634 13.164 48.634"/>
                  <polygon class="cls-9" points="13.154 45.603 10.535 44.082 10.543 47.11 13.164 48.634 13.154 45.603 13.154 45.603"/>
                  <polygon class="cls-15" points="13.146 42.57 10.526 41.05 10.535 44.082 13.154 45.603 13.146 42.57 13.146 42.57"/>
                  <polygon class="cls-9" points="13.138 39.539 10.518 38.016 10.526 41.05 13.146 42.57 13.138 39.539 13.138 39.539"/>
                  <polygon class="cls-9" points="13.129 36.507 10.509 34.984 10.518 38.016 13.138 39.539 13.129 36.507 13.129 36.507"/>
                  <polygon class="cls-6" points="13.121 33.476 10.5 31.952 10.509 34.984 13.129 36.507 13.121 33.476 13.121 33.476"/>
                  <polygon class="cls-8" points="13.112 30.444 10.491 28.924 10.5 31.952 13.121 33.476 13.112 30.444 13.112 30.444"/>
                  <polygon class="cls-8" points="13.103 27.415 10.483 25.893 10.491 28.924 13.112 30.444 13.103 27.415 13.103 27.415"/>
                  <polygon class="cls-6" points="10.586 62.266 7.966 60.744 7.975 63.774 10.595 65.298 10.586 62.266 10.586 62.266"/>
                  <polygon class="cls-9" points="10.578 59.235 7.958 57.712 7.966 60.744 10.586 62.266 10.578 59.235 10.578 59.235"/>
                  <polygon class="cls-9" points="10.569 56.202 7.949 54.68 7.958 57.712 10.578 59.235 10.569 56.202 10.569 56.202"/>
                  <polygon class="cls-11" points="10.561 53.173 7.94 51.65 7.949 54.68 10.569 56.202 10.561 53.173 10.561 53.173"/>
                  <polygon class="cls-9" points="10.552 50.144 7.932 48.621 7.94 51.65 10.561 53.173 10.552 50.144 10.552 50.144"/>
                  <polygon class="cls-9" points="10.543 47.11 7.923 45.589 7.932 48.621 10.552 50.144 10.543 47.11 10.543 47.11"/>
                  <polygon class="cls-7" points="10.535 44.082 7.915 42.559 7.923 45.589 10.543 47.11 10.535 44.082 10.535 44.082"/>
                  <polygon class="cls-12" points="10.526 41.05 7.906 39.526 7.915 42.559 10.535 44.082 10.526 41.05 10.526 41.05"/>
                  <polygon class="cls-11" points="10.518 38.016 7.898 36.495 7.906 39.526 10.526 41.05 10.518 38.016 10.518 38.016"/>
                  <polygon class="cls-15" points="10.509 34.984 7.888 33.462 7.898 36.495 10.518 38.016 10.509 34.984 10.509 34.984"/>
                  <polygon class="cls-8" points="10.5 31.952 7.88 30.43 7.888 33.462 10.509 34.984 10.5 31.952 10.5 31.952"/>
                  <polygon class="cls-16" points="10.491 28.924 7.872 27.4 7.88 30.43 10.5 31.952 10.491 28.924 10.491 28.924"/>
                  <polygon class="cls-14" points="10.483 25.893 7.863 24.37 7.872 27.4 10.491 28.924 10.483 25.893 10.483 25.893"/>
                  <polygon class="cls-6" points="7.966 60.744 5.346 59.22 5.354 62.253 7.975 63.774 7.966 60.744 7.966 60.744"/>
                  <polygon class="cls-9" points="7.958 57.712 5.337 56.189 5.346 59.22 7.966 60.744 7.958 57.712 7.958 57.712"/>
                  <polygon class="cls-7" points="7.949 54.68 5.329 53.156 5.337 56.189 7.958 57.712 7.949 54.68 7.949 54.68"/>
                  <polygon class="cls-8" points="7.94 51.65 5.32 50.13 5.329 53.156 7.949 54.68 7.94 51.65 7.94 51.65"/>
                  <polygon class="cls-6" points="7.932 48.621 5.311 47.099 5.32 50.13 7.94 51.65 7.932 48.621 7.932 48.621"/>
                  <polygon class="cls-7" points="7.923 45.589 5.302 44.066 5.311 47.099 7.932 48.621 7.923 45.589 7.923 45.589"/>
                  <polygon class="cls-9" points="7.915 42.559 5.294 41.035 5.302 44.066 7.923 45.589 7.915 42.559 7.915 42.559"/>
                  <polygon class="cls-14" points="7.906 39.526 5.286 38.004 5.294 41.035 7.915 42.559 7.906 39.526 7.906 39.526"/>
                  <polygon class="cls-6" points="7.898 36.495 5.277 34.973 5.286 38.004 7.906 39.526 7.898 36.495 7.898 36.495"/>
                  <polygon class="cls-6" points="7.888 33.462 5.269 31.94 5.277 34.973 7.898 36.495 7.888 33.462 7.888 33.462"/>
                  <polygon class="cls-9" points="7.88 30.43 5.26 28.908 5.269 31.94 7.888 33.462 7.88 30.43 7.88 30.43"/>
                  <polygon class="cls-8" points="7.872 27.4 5.251 25.877 5.26 28.908 7.88 30.43 7.872 27.4 7.872 27.4"/>
                  <polygon class="cls-11" points="7.863 24.37 5.243 22.848 5.251 25.877 7.872 27.4 7.863 24.37 7.863 24.37"/>
                  <polygon class="cls-6" points="5.346 59.22 2.725 57.696 2.733 60.73 5.354 62.253 5.346 59.22 5.346 59.22"/>
                  <polygon class="cls-6" points="5.337 56.189 2.716 54.664 2.725 57.696 5.346 59.22 5.337 56.189 5.337 56.189"/>
                  <polygon class="cls-7" points="5.329 53.156 2.707 51.634 2.716 54.664 5.337 56.189 5.329 53.156 5.329 53.156"/>
                  <polygon class="cls-12" points="5.32 50.13 2.698 48.605 2.707 51.634 5.329 53.156 5.32 50.13 5.32 50.13"/>
                  <polygon class="cls-8" points="5.311 47.099 2.69 45.574 2.698 48.605 5.32 50.13 5.311 47.099 5.311 47.099"/>
                  <polygon class="cls-10" points="5.302 44.066 2.681 42.543 2.69 45.574 5.311 47.099 5.302 44.066 5.302 44.066"/>
                  <polygon class="cls-8" points="5.294 41.035 2.673 39.512 2.681 42.543 5.302 44.066 5.294 41.035 5.294 41.035"/>
                  <polygon class="cls-14" points="5.286 38.004 2.665 36.48 2.673 39.512 5.294 41.035 5.286 38.004 5.286 38.004"/>
                  <polygon class="cls-6" points="5.277 34.973 2.656 33.448 2.665 36.48 5.286 38.004 5.277 34.973 5.277 34.973"/>
                  <polygon class="cls-9" points="5.269 31.94 2.647 30.416 2.656 33.448 5.277 34.973 5.269 31.94 5.269 31.94"/>
                  <polygon class="cls-9" points="5.26 28.908 2.639 27.385 2.647 30.416 5.269 31.94 5.26 28.908 5.26 28.908"/>
                  <polygon class="cls-12" points="5.251 25.877 2.63 24.353 2.639 27.385 5.26 28.908 5.251 25.877 5.251 25.877"/>
                  <polygon class="cls-8" points="5.243 22.848 2.621 21.324 2.63 24.353 5.251 25.877 5.243 22.848 5.243 22.848"/>
                  <polygon class="cls-6" points="2.725 57.696 0.104 56.176 0.113 59.207 2.733 60.73 2.725 57.696 2.725 57.696"/>
                  <polygon class="cls-9" points="2.716 54.664 0.096 53.145 0.104 56.176 2.725 57.696 2.716 54.664 2.716 54.664"/>
                  <polygon class="cls-7" points="2.707 51.634 0.088 50.11 0.096 53.145 2.716 54.664 2.707 51.634 2.707 51.634"/>
                  <polygon class="cls-8" points="2.698 48.605 0.079 47.082 0.088 50.11 2.707 51.634 2.698 48.605 2.698 48.605"/>
                  <polygon class="cls-9" points="2.69 45.574 0.07 44.053 0.079 47.082 2.698 48.605 2.69 45.574 2.69 45.574"/>
                  <polygon class="cls-9" points="2.681 42.543 0.061 41.021 0.07 44.053 2.69 45.574 2.681 42.543 2.681 42.543"/>
                  <polygon class="cls-9" points="2.673 39.512 0.053 37.99 0.061 41.021 2.681 42.543 2.673 39.512 2.673 39.512"/>
                  <polygon class="cls-8" points="2.665 36.48 0.044 34.957 0.053 37.99 2.673 39.512 2.665 36.48 2.665 36.48"/>
                  <polygon class="cls-6" points="2.656 33.448 0.036 31.925 0.044 34.957 2.665 36.48 2.656 33.448 2.656 33.448"/>
                  <polygon class="cls-9" points="2.647 30.416 0.027 28.894 0.036 31.925 2.656 33.448 2.647 30.416 2.647 30.416"/>
                  <polygon class="cls-7" points="2.639 27.385 0.019 25.862 0.027 28.894 2.647 30.416 2.639 27.385 2.639 27.385"/>
                  <polygon class="cls-8" points="2.63 24.353 0.01 22.832 0.019 25.862 2.639 27.385 2.63 24.353 2.63 24.353"/>
                  <polygon class="cls-11" points="2.621 21.324 0.001 19.8 0.01 22.832 2.63 24.353 2.621 21.324 2.621 21.324"/>
                </g>
              </g>
            </g>
            <g class="cls-4">
              <polygon class="cls-3" points="34.072 39.6 0 19.799 34.294 0 68.365 19.8 34.072 39.6"/>
              <g class="cls-19">
                <g>
                  <polygon class="cls-14" points="65.743 18.276 63.105 19.8 65.728 21.323 68.364 19.8 65.743 18.276 65.743 18.276"/>
                  <polygon class="cls-14" points="63.121 16.754 60.484 18.276 63.105 19.8 65.743 18.276 63.121 16.754 63.121 16.754"/>
                  <polygon class="cls-15" points="60.5 15.23 57.863 16.753 60.484 18.276 63.121 16.754 60.5 15.23 60.5 15.23"/>
                  <polygon class="cls-8" points="57.882 13.708 55.244 15.23 57.863 16.753 60.5 15.23 57.882 13.708 57.882 13.708"/>
                  <polygon class="cls-14" points="55.261 12.185 52.624 13.708 55.244 15.23 57.882 13.708 55.261 12.185 55.261 12.185"/>
                  <polygon class="cls-11" points="52.64 10.662 50.003 12.185 52.624 13.708 55.261 12.185 52.64 10.662 52.64 10.662"/>
                  <polygon class="cls-11" points="50.02 9.14 47.383 10.662 50.003 12.185 52.64 10.662 50.02 9.14 50.02 9.14"/>
                  <polygon class="cls-8" points="47.398 7.615 44.761 9.14 47.383 10.662 50.02 9.14 47.398 7.615 47.398 7.615"/>
                  <polygon class="cls-11" points="44.777 6.093 42.14 7.615 44.761 9.14 47.398 7.615 44.777 6.093 44.777 6.093"/>
                  <polygon class="cls-11" points="42.156 4.569 39.519 6.091 42.14 7.615 44.777 6.093 42.156 4.569 42.156 4.569"/>
                  <polygon class="cls-11" points="39.534 3.046 36.896 4.568 39.519 6.091 42.156 4.569 39.534 3.046 39.534 3.046"/>
                  <polygon class="cls-8" points="36.914 1.523 34.277 3.046 36.896 4.568 39.534 3.046 36.914 1.523 36.914 1.523"/>
                  <polygon class="cls-10" points="34.294 0 31.657 1.523 34.277 3.046 36.914 1.523 34.294 0 34.294 0"/>
                  <polygon class="cls-8" points="63.105 19.8 60.469 21.322 63.09 22.846 65.728 21.323 63.105 19.8 63.105 19.8"/>
                  <polygon class="cls-8" points="60.484 18.276 57.847 19.798 60.469 21.322 63.105 19.8 60.484 18.276 60.484 18.276"/>
                  <polygon class="cls-8" points="57.863 16.753 55.226 18.275 57.847 19.798 60.484 18.276 57.863 16.753 57.863 16.753"/>
                  <polygon class="cls-11" points="55.244 15.23 52.607 16.754 55.226 18.275 57.863 16.753 55.244 15.23 55.244 15.23"/>
                  <polygon class="cls-14" points="52.624 13.708 49.987 15.23 52.607 16.754 55.244 15.23 52.624 13.708 52.624 13.708"/>
                  <polygon class="cls-11" points="50.003 12.185 47.366 13.706 49.987 15.23 52.624 13.708 50.003 12.185 50.003 12.185"/>
                  <polygon class="cls-15" points="47.383 10.662 44.746 12.185 47.366 13.706 50.003 12.185 47.383 10.662 47.383 10.662"/>
                  <polygon class="cls-8" points="44.761 9.14 42.124 10.661 44.746 12.185 47.383 10.662 44.761 9.14 44.761 9.14"/>
                  <polygon class="cls-11" points="42.14 7.615 39.503 9.138 42.124 10.661 44.761 9.14 42.14 7.615 42.14 7.615"/>
                  <polygon class="cls-14" points="39.519 6.091 36.881 7.613 39.503 9.138 42.14 7.615 39.519 6.091 39.519 6.091"/>
                  <polygon class="cls-15" points="36.896 4.568 34.259 6.091 36.881 7.613 39.519 6.091 36.896 4.568 36.896 4.568"/>
                  <polygon class="cls-12" points="34.277 3.046 31.639 4.568 34.259 6.091 36.896 4.568 34.277 3.046 34.277 3.046"/>
                  <polygon class="cls-8" points="31.657 1.523 29.02 3.046 31.639 4.568 34.277 3.046 31.657 1.523 31.657 1.523"/>
                  <polygon class="cls-14" points="60.469 21.322 57.831 22.846 60.452 24.369 63.09 22.846 60.469 21.322 60.469 21.322"/>
                  <polygon class="cls-11" points="57.847 19.798 55.208 21.322 57.831 22.846 60.469 21.322 57.847 19.798 57.847 19.798"/>
                  <polygon class="cls-15" points="55.226 18.275 52.587 19.798 55.208 21.322 57.847 19.798 55.226 18.275 55.226 18.275"/>
                  <polygon class="cls-11" points="52.607 16.754 49.968 18.276 52.587 19.798 55.226 18.275 52.607 16.754 52.607 16.754"/>
                  <polygon class="cls-11" points="49.987 15.23 47.348 16.755 49.968 18.276 52.607 16.754 49.987 15.23 49.987 15.23"/>
                  <polygon class="cls-11" points="47.366 13.706 44.727 15.23 47.348 16.755 49.987 15.23 47.366 13.706 47.366 13.706"/>
                  <polygon class="cls-11" points="44.746 12.185 42.106 13.708 44.727 15.23 47.366 13.706 44.746 12.185 44.746 12.185"/>
                  <polygon class="cls-14" points="42.124 10.661 39.485 12.185 42.106 13.708 44.746 12.185 42.124 10.661 42.124 10.661"/>
                  <polygon class="cls-15" points="39.503 9.138 36.863 10.661 39.485 12.185 42.124 10.661 39.503 9.138 39.503 9.138"/>
                  <polygon class="cls-12" points="36.881 7.613 34.242 9.138 36.863 10.661 39.503 9.138 36.881 7.613 36.881 7.613"/>
                  <polygon class="cls-8" points="34.259 6.091 31.621 7.613 34.242 9.138 36.881 7.613 34.259 6.091 34.259 6.091"/>
                  <polygon class="cls-16" points="31.639 4.568 29 6.091 31.621 7.613 34.259 6.091 31.639 4.568 31.639 4.568"/>
                  <polygon class="cls-14" points="29.02 3.046 26.381 4.569 29 6.091 31.639 4.568 29.02 3.046 29.02 3.046"/>
                  <polygon class="cls-15" points="57.831 22.846 55.191 24.369 57.812 25.894 60.452 24.369 57.831 22.846 57.831 22.846"/>
                  <polygon class="cls-11" points="55.208 21.322 52.57 22.846 55.191 24.369 57.831 22.846 55.208 21.322 55.208 21.322"/>
                  <polygon class="cls-11" points="52.587 19.798 49.949 21.322 52.57 22.846 55.208 21.322 52.587 19.798 52.587 19.798"/>
                  <polygon class="cls-8" points="49.968 18.276 47.33 19.8 49.949 21.322 52.587 19.798 49.968 18.276 49.968 18.276"/>
                  <polygon class="cls-14" points="47.348 16.755 44.709 18.277 47.33 19.8 49.968 18.276 47.348 16.755 47.348 16.755"/>
                  <polygon class="cls-11" points="44.727 15.23 42.088 16.755 44.709 18.277 47.348 16.755 44.727 15.23 44.727 15.23"/>
                  <polygon class="cls-15" points="42.106 13.708 39.468 15.231 42.088 16.755 44.727 15.23 42.106 13.708 42.106 13.708"/>
                  <polygon class="cls-14" points="39.485 12.185 36.847 13.707 39.468 15.231 42.106 13.708 39.485 12.185 39.485 12.185"/>
                  <polygon class="cls-11" points="36.863 10.661 34.225 12.185 36.847 13.707 39.485 12.185 36.863 10.661 36.863 10.661"/>
                  <polygon class="cls-14" points="34.242 9.138 31.603 10.661 34.225 12.185 36.863 10.661 34.242 9.138 34.242 9.138"/>
                  <polygon class="cls-11" points="31.621 7.613 28.982 9.138 31.603 10.661 34.242 9.138 31.621 7.613 31.621 7.613"/>
                  <polygon class="cls-8" points="29 6.091 26.362 7.615 28.982 9.138 31.621 7.613 29 6.091 29 6.091"/>
                  <polygon class="cls-8" points="26.381 4.569 23.743 6.093 26.362 7.615 29 6.091 26.381 4.569 26.381 4.569"/>
                  <polygon class="cls-11" points="55.191 24.369 52.554 25.893 55.176 27.415 57.812 25.894 55.191 24.369 55.191 24.369"/>
                  <polygon class="cls-11" points="52.57 22.846 49.933 24.367 52.554 25.893 55.191 24.369 52.57 22.846 52.57 22.846"/>
                  <polygon class="cls-11" points="49.949 21.322 47.311 22.845 49.933 24.367 52.57 22.846 49.949 21.322 49.949 21.322"/>
                  <polygon class="cls-14" points="47.33 19.8 44.692 21.323 47.311 22.845 49.949 21.322 47.33 19.8 47.33 19.8"/>
                  <polygon class="cls-8" points="44.709 18.277 42.073 19.8 44.692 21.323 47.33 19.8 44.709 18.277 44.709 18.277"/>
                  <polygon class="cls-8" points="42.088 16.755 39.451 18.276 42.073 19.8 44.709 18.277 42.088 16.755 42.088 16.755"/>
                  <polygon class="cls-12" points="39.468 15.231 36.832 16.755 39.451 18.276 42.088 16.755 39.468 15.231 39.468 15.231"/>
                  <polygon class="cls-12" points="36.847 13.707 34.21 15.23 36.832 16.755 39.468 15.231 36.847 13.707 36.847 13.707"/>
                  <polygon class="cls-14" points="34.225 12.185 31.588 13.706 34.21 15.23 36.847 13.707 34.225 12.185 34.225 12.185"/>
                  <polygon class="cls-11" points="31.603 10.661 28.966 12.184 31.588 13.706 34.225 12.185 31.603 10.661 31.603 10.661"/>
                  <polygon class="cls-11" points="28.982 9.138 26.345 10.661 28.966 12.184 31.603 10.661 28.982 9.138 28.982 9.138"/>
                  <polygon class="cls-15" points="26.362 7.615 23.725 9.138 26.345 10.661 28.982 9.138 26.362 7.615 26.362 7.615"/>
                  <polygon class="cls-11" points="23.743 6.093 21.105 7.615 23.725 9.138 26.362 7.615 23.743 6.093 23.743 6.093"/>
                  <polygon class="cls-20" points="52.554 25.893 49.915 27.415 52.537 28.938 55.176 27.415 52.554 25.893 52.554 25.893"/>
                  <polygon class="cls-14" points="49.933 24.367 47.294 25.893 49.915 27.415 52.554 25.893 49.933 24.367 49.933 24.367"/>
                  <polygon class="cls-15" points="47.311 22.845 44.672 24.367 47.294 25.893 49.933 24.367 47.311 22.845 47.311 22.845"/>
                  <polygon class="cls-14" points="44.692 21.323 42.054 22.846 44.672 24.367 47.311 22.845 44.692 21.323 44.692 21.323"/>
                  <polygon class="cls-14" points="42.073 19.8 39.434 21.324 42.054 22.846 44.692 21.323 42.073 19.8 42.073 19.8"/>
                  <polygon class="cls-11" points="39.451 18.276 36.812 19.8 39.434 21.324 42.073 19.8 39.451 18.276 39.451 18.276"/>
                  <polygon class="cls-11" points="36.832 16.755 34.192 18.277 36.812 19.8 39.451 18.276 36.832 16.755 36.832 16.755"/>
                  <polygon class="cls-8" points="34.21 15.23 31.571 16.755 34.192 18.277 36.832 16.755 34.21 15.23 34.21 15.23"/>
                  <polygon class="cls-11" points="31.588 13.706 28.949 15.23 31.571 16.755 34.21 15.23 31.588 13.706 31.588 13.706"/>
                  <polygon class="cls-11" points="28.966 12.184 26.328 13.706 28.949 15.23 31.588 13.706 28.966 12.184 28.966 12.184"/>
                  <polygon class="cls-15" points="26.345 10.661 23.707 12.184 26.328 13.706 28.966 12.184 26.345 10.661 26.345 10.661"/>
                  <polygon class="cls-8" points="23.725 9.138 21.086 10.661 23.707 12.184 26.345 10.661 23.725 9.138 23.725 9.138"/>
                  <polygon class="cls-16" points="21.105 7.615 18.466 9.14 21.086 10.661 23.725 9.138 21.105 7.615 21.105 7.615"/>
                  <polygon class="cls-14" points="49.915 27.415 47.276 28.938 49.898 30.461 52.537 28.938 49.915 27.415 49.915 27.415"/>
                  <polygon class="cls-15" points="47.294 25.893 44.655 27.415 47.276 28.938 49.915 27.415 47.294 25.893 47.294 25.893"/>
                  <polygon class="cls-11" points="44.672 24.367 42.034 25.893 44.655 27.415 47.294 25.893 44.672 24.367 44.672 24.367"/>
                  <polygon class="cls-8" points="42.054 22.846 39.415 24.37 42.034 25.893 44.672 24.367 42.054 22.846 42.054 22.846"/>
                  <polygon class="cls-20" points="39.434 21.324 36.795 22.848 39.415 24.37 42.054 22.846 39.434 21.324 39.434 21.324"/>
                  <polygon class="cls-11" points="36.812 19.8 34.173 21.324 36.795 22.848 39.434 21.324 36.812 19.8 36.812 19.8"/>
                  <polygon class="cls-15" points="34.192 18.277 31.554 19.8 34.173 21.324 36.812 19.8 34.192 18.277 34.192 18.277"/>
                  <polygon class="cls-11" points="31.571 16.755 28.933 18.277 31.554 19.8 34.192 18.277 31.571 16.755 31.571 16.755"/>
                  <polygon class="cls-11" points="28.949 15.23 26.311 16.755 28.933 18.277 31.571 16.755 28.949 15.23 28.949 15.23"/>
                  <polygon class="cls-11" points="26.328 13.706 23.689 15.23 26.311 16.755 28.949 15.23 26.328 13.706 26.328 13.706"/>
                  <polygon class="cls-15" points="23.707 12.184 21.068 13.706 23.689 15.23 26.328 13.706 23.707 12.184 23.707 12.184"/>
                  <polygon class="cls-16" points="21.086 10.661 18.448 12.185 21.068 13.706 23.707 12.184 21.086 10.661 21.086 10.661"/>
                  <polygon class="cls-10" points="18.466 9.14 15.828 10.662 18.448 12.185 21.086 10.661 18.466 9.14 18.466 9.14"/>
                  <polygon class="cls-8" points="47.276 28.938 44.639 30.461 47.26 31.985 49.898 30.461 47.276 28.938 47.276 28.938"/>
                  <polygon class="cls-11" points="44.655 27.415 42.017 28.938 44.639 30.461 47.276 28.938 44.655 27.415 44.655 27.415"/>
                  <polygon class="cls-8" points="42.034 25.893 39.395 27.415 42.017 28.938 44.655 27.415 42.034 25.893 42.034 25.893"/>
                  <polygon class="cls-12" points="39.415 24.37 36.777 25.895 39.395 27.415 42.034 25.893 39.415 24.37 39.415 24.37"/>
                  <polygon class="cls-11" points="36.795 22.848 34.157 24.37 36.777 25.895 39.415 24.37 36.795 22.848 36.795 22.848"/>
                  <polygon class="cls-14" points="34.173 21.324 31.536 22.848 34.157 24.37 36.795 22.848 34.173 21.324 34.173 21.324"/>
                  <polygon class="cls-11" points="31.554 19.8 28.915 21.324 31.536 22.848 34.173 21.324 31.554 19.8 31.554 19.8"/>
                  <polygon class="cls-8" points="28.933 18.277 26.294 19.8 28.915 21.324 31.554 19.8 28.933 18.277 28.933 18.277"/>
                  <polygon class="cls-20" points="26.311 16.755 23.672 18.277 26.294 19.8 28.933 18.277 26.311 16.755 26.311 16.755"/>
                  <polygon class="cls-11" points="23.689 15.23 21.051 16.755 23.672 18.277 26.311 16.755 23.689 15.23 23.689 15.23"/>
                  <polygon class="cls-11" points="21.068 13.706 18.429 15.23 21.051 16.755 23.689 15.23 21.068 13.706 21.068 13.706"/>
                  <polygon class="cls-12" points="18.448 12.185 15.809 13.707 18.429 15.23 21.068 13.706 18.448 12.185 18.448 12.185"/>
                  <polygon class="cls-11" points="15.828 10.662 13.189 12.185 15.809 13.707 18.448 12.185 15.828 10.662 15.828 10.662"/>
                  <polygon class="cls-15" points="44.639 30.461 42.001 31.984 44.623 33.508 47.26 31.985 44.639 30.461 44.639 30.461"/>
                  <polygon class="cls-14" points="42.017 28.938 39.38 30.461 42.001 31.984 44.639 30.461 42.017 28.938 42.017 28.938"/>
                  <polygon class="cls-11" points="39.395 27.415 36.758 28.937 39.38 30.461 42.017 28.938 39.395 27.415 39.395 27.415"/>
                  <polygon class="cls-8" points="36.777 25.895 34.14 27.415 36.758 28.937 39.395 27.415 36.777 25.895 36.777 25.895"/>
                  <polygon class="cls-14" points="34.157 24.37 31.52 25.895 34.14 27.415 36.777 25.895 34.157 24.37 34.157 24.37"/>
                  <polygon class="cls-11" points="31.536 22.848 28.898 24.37 31.52 25.895 34.157 24.37 31.536 22.848 31.536 22.848"/>
                  <polygon class="cls-11" points="28.915 21.324 26.278 22.848 28.898 24.37 31.536 22.848 28.915 21.324 28.915 21.324"/>
                  <polygon class="cls-15" points="26.294 19.8 23.656 21.324 26.278 22.848 28.915 21.324 26.294 19.8 26.294 19.8"/>
                  <polygon class="cls-11" points="23.672 18.277 21.035 19.8 23.656 21.324 26.294 19.8 23.672 18.277 23.672 18.277"/>
                  <polygon class="cls-11" points="21.051 16.755 18.414 18.276 21.035 19.8 23.672 18.277 21.051 16.755 21.051 16.755"/>
                  <polygon class="cls-14" points="18.429 15.23 15.791 16.754 18.414 18.276 21.051 16.755 18.429 15.23 18.429 15.23"/>
                  <polygon class="cls-8" points="15.809 13.707 13.171 15.23 15.791 16.754 18.429 15.23 15.809 13.707 15.809 13.707"/>
                  <polygon class="cls-8" points="13.189 12.185 10.552 13.707 13.171 15.23 15.809 13.707 13.189 12.185 13.189 12.185"/>
                  <polygon class="cls-20" points="42.001 31.984 39.363 33.507 41.985 35.03 44.623 33.508 42.001 31.984 42.001 31.984"/>
                  <polygon class="cls-11" points="39.38 30.461 36.742 31.983 39.363 33.507 42.001 31.984 39.38 30.461 39.38 30.461"/>
                  <polygon class="cls-11" points="36.758 28.937 34.121 30.46 36.742 31.983 39.38 30.461 36.758 28.937 36.758 28.937"/>
                  <polygon class="cls-11" points="34.14 27.415 31.502 28.938 34.121 30.46 36.758 28.937 34.14 27.415 34.14 27.415"/>
                  <polygon class="cls-11" points="31.52 25.895 28.882 27.415 31.502 28.938 34.14 27.415 31.52 25.895 31.52 25.895"/>
                  <polygon class="cls-11" points="28.898 24.37 26.261 25.893 28.882 27.415 31.52 25.895 28.898 24.37 28.898 24.37"/>
                  <polygon class="cls-15" points="26.278 22.848 23.641 24.37 26.261 25.893 28.898 24.37 26.278 22.848 26.278 22.848"/>
                  <polygon class="cls-12" points="23.656 21.324 21.019 22.846 23.641 24.37 26.278 22.848 23.656 21.324 23.656 21.324"/>
                  <polygon class="cls-11" points="21.035 19.8 18.397 21.323 21.019 22.846 23.656 21.324 21.035 19.8 21.035 19.8"/>
                  <polygon class="cls-15" points="18.414 18.276 15.776 19.799 18.397 21.323 21.035 19.8 18.414 18.276 18.414 18.276"/>
                  <polygon class="cls-8" points="15.791 16.754 13.154 18.276 15.776 19.799 18.414 18.276 15.791 16.754 15.791 16.754"/>
                  <polygon class="cls-16" points="13.171 15.23 10.535 16.754 13.154 18.276 15.791 16.754 13.171 15.23 13.171 15.23"/>
                  <polygon class="cls-14" points="10.552 13.707 7.915 15.23 10.535 16.754 13.171 15.23 10.552 13.707 10.552 13.707"/>
                  <polygon class="cls-15" points="39.363 33.507 36.726 35.029 39.348 36.553 41.985 35.03 39.363 33.507 39.363 33.507"/>
                  <polygon class="cls-11" points="36.742 31.983 34.105 33.507 36.726 35.029 39.363 33.507 36.742 31.983 36.742 31.983"/>
                  <polygon class="cls-15" points="34.121 30.46 31.484 31.983 34.105 33.507 36.742 31.983 34.121 30.46 34.121 30.46"/>
                  <polygon class="cls-8" points="31.502 28.938 28.864 30.461 31.484 31.983 34.121 30.46 31.502 28.938 31.502 28.938"/>
                  <polygon class="cls-14" points="28.882 27.415 26.245 28.938 28.864 30.461 31.502 28.938 28.882 27.415 28.882 27.415"/>
                  <polygon class="cls-15" points="26.261 25.893 23.623 27.415 26.245 28.938 28.882 27.415 26.261 25.893 26.261 25.893"/>
                  <polygon class="cls-11" points="23.641 24.37 21.003 25.893 23.623 27.415 26.261 25.893 23.641 24.37 23.641 24.37"/>
                  <polygon class="cls-14" points="21.019 22.846 18.382 24.369 21.003 25.893 23.641 24.37 21.019 22.846 21.019 22.846"/>
                  <polygon class="cls-14" points="18.397 21.323 15.761 22.846 18.382 24.369 21.019 22.846 18.397 21.323 18.397 21.323"/>
                  <polygon class="cls-14" points="15.776 19.799 13.139 21.322 15.761 22.846 18.397 21.323 15.776 19.799 15.776 19.799"/>
                  <polygon class="cls-11" points="13.154 18.276 10.518 19.798 13.139 21.322 15.776 19.799 13.154 18.276 13.154 18.276"/>
                  <polygon class="cls-8" points="10.535 16.754 7.898 18.276 10.518 19.798 13.154 18.276 10.535 16.754 10.535 16.754"/>
                  <polygon class="cls-11" points="7.915 15.23 5.277 16.754 7.898 18.276 10.535 16.754 7.915 15.23 7.915 15.23"/>
                  <polygon class="cls-14" points="36.726 35.029 34.088 36.553 36.709 38.076 39.348 36.553 36.726 35.029 36.726 35.029"/>
                  <polygon class="cls-15" points="34.105 33.507 31.466 35.029 34.088 36.553 36.726 35.029 34.105 33.507 34.105 33.507"/>
                  <polygon class="cls-12" points="31.484 31.983 28.845 33.507 31.466 35.029 34.105 33.507 31.484 31.983 31.484 31.983"/>
                  <polygon class="cls-12" points="28.864 30.461 26.227 31.984 28.845 33.507 31.484 31.983 28.864 30.461 28.864 30.461"/>
                  <polygon class="cls-8" points="26.245 28.938 23.606 30.461 26.227 31.984 28.864 30.461 26.245 28.938 26.245 28.938"/>
                  <polygon class="cls-10" points="23.623 27.415 20.985 28.938 23.606 30.461 26.245 28.938 23.623 27.415 23.623 27.415"/>
                  <polygon class="cls-8" points="21.003 25.893 18.365 27.415 20.985 28.938 23.623 27.415 21.003 25.893 21.003 25.893"/>
                  <polygon class="cls-14" points="18.382 24.369 15.744 25.893 18.365 27.415 21.003 25.893 18.382 24.369 18.382 24.369"/>
                  <polygon class="cls-14" points="15.761 22.846 13.122 24.369 15.744 25.893 18.382 24.369 15.761 22.846 15.761 22.846"/>
                  <polygon class="cls-11" points="13.139 21.322 10.5 22.846 13.122 24.369 15.761 22.846 13.139 21.322 13.139 21.322"/>
                  <polygon class="cls-11" points="10.518 19.798 7.879 21.322 10.5 22.846 13.139 21.322 10.518 19.798 10.518 19.798"/>
                  <polygon class="cls-12" points="7.898 18.276 5.259 19.799 7.879 21.322 10.518 19.798 7.898 18.276 7.898 18.276"/>
                  <polygon class="cls-8" points="5.277 16.754 2.639 18.276 5.259 19.799 7.898 18.276 5.277 16.754 5.277 16.754"/>
                  <polygon class="cls-15" points="34.088 36.553 31.451 38.075 34.072 39.6 36.709 38.076 34.088 36.553 34.088 36.553"/>
                  <polygon class="cls-11" points="31.466 35.029 28.829 36.553 31.451 38.075 34.088 36.553 31.466 35.029 31.466 35.029"/>
                  <polygon class="cls-15" points="28.845 33.507 26.208 35.028 28.829 36.553 31.466 35.029 28.845 33.507 28.845 33.507"/>
                  <polygon class="cls-8" points="26.227 31.984 23.59 33.507 26.208 35.028 28.845 33.507 26.227 31.984 26.227 31.984"/>
                  <polygon class="cls-11" points="23.606 30.461 20.97 31.984 23.59 33.507 26.227 31.984 23.606 30.461 23.606 30.461"/>
                  <polygon class="cls-11" points="20.985 28.938 18.348 30.461 20.97 31.984 23.606 30.461 20.985 28.938 20.985 28.938"/>
                  <polygon class="cls-11" points="18.365 27.415 15.728 28.938 18.348 30.461 20.985 28.938 18.365 27.415 18.365 27.415"/>
                  <polygon class="cls-8" points="15.744 25.893 13.106 27.413 15.728 28.938 18.365 27.415 15.744 25.893 15.744 25.893"/>
                  <polygon class="cls-14" points="13.122 24.369 10.485 25.893 13.106 27.413 15.744 25.893 13.122 24.369 13.122 24.369"/>
                  <polygon class="cls-11" points="10.5 22.846 7.863 24.367 10.485 25.893 13.122 24.369 10.5 22.846 10.5 22.846"/>
                  <polygon class="cls-15" points="7.879 21.322 5.242 22.845 7.863 24.367 10.5 22.846 7.879 21.322 7.879 21.322"/>
                  <polygon class="cls-8" points="5.259 19.799 2.621 21.322 5.242 22.845 7.879 21.322 5.259 19.799 5.259 19.799"/>
                  <polygon class="cls-11" points="2.639 18.276 0.001 19.799 2.621 21.322 5.259 19.799 2.639 18.276 2.639 18.276"/>
                </g>
              </g>
            </g>
          </g>
          <g>
            <polygon class="cls-21" points="68.365 19.8 68.477 59.209 34.184 79.007 34.072 39.601 68.365 19.8"/>
            <polygon class="cls-22" points="34.184 79.007 0.112 59.207 0 19.799 34.072 39.601 34.184 79.007"/>
            <polygon class="cls-23" points="34.072 39.601 0 19.799 34.294 0 68.365 19.8 34.072 39.601"/>
          </g>
        </g>
      </g>
    </g>
  </g>
</svg>
