<svg xmlns="http://www.w3.org/2000/svg" xmlns:xlink="http://www.w3.org/1999/xlink" viewBox="0 0 68.47952 79.00782">
  <defs>
    <style>
      .cls-1 {
        fill: #626262;
      }

      .cls-2 {
        fill: #757575;
      }

      .cls-3 {
        fill: #575757;
      }

      .cls-4 {
        isolation: isolate;
      }

      .cls-5 {
        clip-path: url(#clip-path);
      }

      .cls-6 {
        fill: #4e750f;
      }

      .cls-31, .cls-7 {
        fill: #77b119;
      }

      .cls-8 {
        fill: #b78f42;
      }

      .cls-9 {
        fill: #efc855;
      }

      .cls-10 {
        fill: #cfcfb8;
      }

      .cls-11 {
        fill: #c5a847;
      }

      .cls-12 {
        fill: #649512;
      }

      .cls-13 {
        fill: #45670c;
      }

      .cls-14 {
        fill: #e8e8ce;
      }

      .cls-15 {
        fill: #997736;
      }

      .cls-16 {
        fill: #aa9b72;
      }

      .cls-17 {
        fill: #bebe9f;
      }

      .cls-18 {
        fill: #d6d6bd;
      }

      .cls-19 {
        fill: #c2c2ac;
      }

      .cls-20 {
        fill: #3c560a;
      }

      .cls-21 {
        fill: #908770;
      }

      .cls-22 {
        fill: #853700;
      }

      .cls-23 {
        fill: #e3e3ca;
      }

      .cls-24 {
        fill: #a1967d;
      }

      .cls-25 {
        clip-path: url(#clip-path-2);
      }

      .cls-26 {
        clip-path: url(#clip-path-3);
      }

      .cls-27 {
        opacity: 0.8;
        fill: url(#linear-gradient);
      }

      .cls-27, .cls-31 {
        mix-blend-mode: multiply;
      }

      .cls-28 {
        fill: #616161;
        opacity: 0.2;
      }

      .cls-28, .cls-29 {
        mix-blend-mode: color-dodge;
      }

      .cls-29 {
        opacity: 0.3;
        fill: url(#linear-gradient-2);
      }

      .cls-30 {
        fill: #7fbb39;
        mix-blend-mode: color;
      }

      .cls-31 {
        opacity: 0.6;
      }
    </style>
    <clipPath id="clip-path" transform="translate(0.0009 0.001)">
      <polygon class="cls-1" points="68.365 19.8 68.479 59.209 34.183 79.007 34.072 39.601 68.365 19.8"/>
    </clipPath>
    <clipPath id="clip-path-2" transform="translate(0.0009 0.001)">
      <polygon class="cls-2" points="34.183 79.007 0.112 59.207 0 19.799 34.072 39.601 34.183 79.007"/>
    </clipPath>
    <clipPath id="clip-path-3" transform="translate(0.0009 0.001)">
      <polygon class="cls-3" points="34.072 39.601 0 19.799 34.294 0 68.365 19.8 34.072 39.601"/>
    </clipPath>
    <linearGradient id="linear-gradient" x1="13.75848" y1="29.58017" x2="67.69376" y2="58.08009" gradientUnits="userSpaceOnUse">
      <stop offset="0" stop-color="#fff"/>
      <stop offset="0.10549" stop-color="#eae8dc"/>
      <stop offset="0.35664" stop-color="#bcb48f"/>
      <stop offset="0.58058" stop-color="#978b52"/>
      <stop offset="0.76909" stop-color="#7c6e25"/>
      <stop offset="0.91475" stop-color="#6c5c0a"/>
      <stop offset="1" stop-color="#650"/>
    </linearGradient>
    <linearGradient id="linear-gradient-2" x1="-20.42985" y1="-34.81309" x2="133.49727" y2="119.11403" gradientUnits="userSpaceOnUse">
      <stop offset="0" stop-color="#86c97a"/>
      <stop offset="1"/>
    </linearGradient>
  </defs>
  <g class="cls-4">
    <g id="Layer_2" data-name="Layer 2">
      <g id="Layer_1-2" data-name="Layer 1">
        <g id="_7" data-name="7">
          <g id="_6" data-name="6">
            <g class="cls-4">
              <g class="cls-4">
                <polygon class="cls-1" points="68.366 19.801 68.48 59.21 34.184 79.008 34.073 39.602 68.366 19.801"/>
                <g class="cls-5">
                  <g>
                    <polygon class="cls-6" points="68.378 22.832 68.374 22.833 68.384 25.864 68.386 25.862 68.378 22.832 68.378 22.832"/>
                    <polygon class="cls-7" points="68.368 19.801 68.366 19.802 68.374 22.833 68.378 22.832 68.368 19.801 68.368 19.801"/>
                    <polygon class="cls-8" points="68.47 56.178 65.832 57.7 65.84 60.731 68.477 59.21 68.47 56.178 68.47 56.178"/>
                    <polygon class="cls-8" points="68.461 53.146 65.823 54.668 65.832 57.7 68.47 56.178 68.461 53.146 68.461 53.146"/>
                    <polygon class="cls-9" points="68.452 50.113 65.815 51.635 65.823 54.668 68.461 53.146 68.452 50.113 68.452 50.113"/>
                    <polygon class="cls-10" points="68.443 47.084 65.807 48.606 65.815 51.635 68.452 50.113 68.443 47.084 68.443 47.084"/>
                    <polygon class="cls-8" points="68.436 44.054 65.797 45.576 65.807 48.606 68.443 47.084 68.436 44.054 68.436 44.054"/>
                    <polygon class="cls-11" points="68.427 41.023 65.789 42.544 65.797 45.576 68.436 44.054 68.427 41.023 68.427 41.023"/>
                    <polygon class="cls-11" points="68.417 37.991 65.78 39.514 65.789 42.544 68.427 41.023 68.417 37.991 68.417 37.991"/>
                    <polygon class="cls-10" points="68.409 34.959 65.772 36.481 65.78 39.514 68.417 37.991 68.409 34.959 68.409 34.959"/>
                    <polygon class="cls-11" points="68.4 31.927 65.763 33.45 65.772 36.481 68.409 34.959 68.4 31.927 68.4 31.927"/>
                    <polygon class="cls-11" points="68.392 28.895 65.755 30.418 65.763 33.45 68.4 31.927 68.392 28.895 68.392 28.895"/>
                    <polygon class="cls-8" points="68.384 25.864 65.747 27.386 65.747 27.386 65.755 30.418 68.392 28.895 68.384 25.864 68.384 25.864"/>
                    <polygon class="cls-6" points="68.374 22.833 65.739 24.354 65.747 27.386 68.384 25.864 68.374 22.833 68.374 22.833"/>
                    <polygon class="cls-7" points="68.366 19.802 65.73 21.325 65.739 24.354 68.374 22.833 68.366 19.802 68.366 19.802"/>
                    <polygon class="cls-12" points="65.739 24.354 65.737 24.356 65.747 27.386 65.747 27.386 65.739 24.354 65.739 24.354"/>
                    <polygon class="cls-13" points="65.73 21.325 65.73 21.325 65.737 24.356 65.739 24.354 65.73 21.325 65.73 21.325"/>
                    <polygon class="cls-10" points="65.832 57.7 63.195 59.221 63.203 62.254 65.84 60.731 65.832 57.7 65.832 57.7"/>
                    <polygon class="cls-10" points="65.823 54.668 63.186 56.19 63.195 59.221 65.832 57.7 65.823 54.668 65.823 54.668"/>
                    <polygon class="cls-10" points="65.815 51.635 63.179 53.157 63.186 56.19 65.823 54.668 65.815 51.635 65.815 51.635"/>
                    <polygon class="cls-14" points="65.807 48.606 63.169 50.13 63.179 53.157 65.815 51.635 65.807 48.606 65.807 48.606"/>
                    <polygon class="cls-8" points="65.797 45.576 63.159 47.1 63.169 50.13 65.807 48.606 65.797 45.576 65.797 45.576"/>
                    <polygon class="cls-11" points="65.789 42.544 63.152 44.066 63.159 47.1 65.797 45.576 65.789 42.544 65.789 42.544"/>
                    <polygon class="cls-9" points="65.78 39.514 63.143 41.036 63.152 44.066 65.789 42.544 65.78 39.514 65.78 39.514"/>
                    <polygon class="cls-10" points="65.772 36.481 63.134 38.005 63.143 41.036 65.78 39.514 65.772 36.481 65.772 36.481"/>
                    <polygon class="cls-11" points="65.763 33.45 63.126 34.974 63.134 38.005 65.772 36.481 65.763 33.45 65.763 33.45"/>
                    <polygon class="cls-8" points="65.755 30.418 63.117 31.941 63.126 34.974 65.763 33.45 65.755 30.418 65.755 30.418"/>
                    <polygon class="cls-15" points="65.747 27.386 63.109 28.909 63.117 31.941 65.755 30.418 65.747 27.386 65.747 27.386"/>
                    <polygon class="cls-12" points="65.737 24.356 63.101 25.878 63.109 28.909 65.747 27.386 65.737 24.356 65.737 24.356"/>
                    <polygon class="cls-13" points="65.73 21.325 63.093 22.849 63.101 25.878 65.737 24.356 65.73 21.325 65.73 21.325"/>
                    <polygon class="cls-16" points="63.195 59.221 60.557 60.745 60.565 63.775 63.203 62.254 63.195 59.221 63.195 59.221"/>
                    <polygon class="cls-11" points="63.186 56.19 60.547 57.713 60.557 60.745 63.195 59.221 63.186 56.19 63.186 56.19"/>
                    <polygon class="cls-9" points="63.179 53.157 60.539 54.681 60.547 57.713 63.186 56.19 63.179 53.157 63.179 53.157"/>
                    <polygon class="cls-14" points="63.169 50.13 60.529 51.653 60.539 54.681 63.179 53.157 63.169 50.13 63.169 50.13"/>
                    <polygon class="cls-11" points="63.159 47.1 60.521 48.623 60.529 51.653 63.169 50.13 63.159 47.1 63.159 47.1"/>
                    <polygon class="cls-11" points="63.152 44.066 60.513 45.591 60.521 48.623 63.159 47.1 63.152 44.066 63.152 44.066"/>
                    <polygon class="cls-11" points="63.143 41.036 60.505 42.561 60.513 45.591 63.152 44.066 63.143 41.036 63.143 41.036"/>
                    <polygon class="cls-17" points="63.134 38.005 60.497 39.528 60.505 42.561 63.143 41.036 63.134 38.005 63.134 38.005"/>
                    <polygon class="cls-18" points="63.126 34.974 60.486 36.496 60.497 39.528 63.134 38.005 63.126 34.974 63.126 34.974"/>
                    <polygon class="cls-19" points="63.117 31.941 60.479 33.465 60.486 36.496 63.126 34.974 63.117 31.941 63.117 31.941"/>
                    <polygon class="cls-20" points="63.109 28.909 60.471 30.433 60.479 33.465 63.117 31.941 63.109 28.909 63.109 28.909"/>
                    <polygon class="cls-6" points="63.101 25.878 60.462 27.402 60.471 30.433 63.109 28.909 63.101 25.878 63.101 25.878"/>
                    <polygon class="cls-12" points="63.093 22.849 60.452 24.371 60.462 27.402 63.101 25.878 63.093 22.849 63.093 22.849"/>
                    <polygon class="cls-8" points="60.557 60.745 57.917 62.269 57.926 65.3 60.565 63.775 60.557 60.745 60.557 60.745"/>
                    <polygon class="cls-11" points="60.547 57.713 57.908 59.237 57.917 62.269 60.557 60.745 60.547 57.713 60.547 57.713"/>
                    <polygon class="cls-11" points="60.539 54.681 57.9 56.205 57.908 59.237 60.547 57.713 60.539 54.681 60.539 54.681"/>
                    <polygon class="cls-10" points="60.529 51.653 57.892 53.176 57.9 56.205 60.539 54.681 60.529 51.653 60.529 51.653"/>
                    <polygon class="cls-8" points="60.521 48.623 57.883 50.146 57.892 53.176 60.529 51.653 60.521 48.623 60.521 48.623"/>
                    <polygon class="cls-11" points="60.513 45.591 57.874 47.113 57.883 50.146 60.521 48.623 60.513 45.591 60.513 45.591"/>
                    <polygon class="cls-9" points="60.505 42.561 57.867 44.084 57.874 47.113 60.513 45.591 60.505 42.561 60.505 42.561"/>
                    <polygon class="cls-17" points="60.497 39.528 57.857 41.052 57.867 44.084 60.505 42.561 60.497 39.528 60.497 39.528"/>
                    <polygon class="cls-15" points="60.486 36.496 57.849 38.02 57.857 41.052 60.497 39.528 60.486 36.496 60.486 36.496"/>
                    <polygon class="cls-8" points="60.479 33.465 57.84 34.987 57.849 38.02 60.486 36.496 60.479 33.465 60.479 33.465"/>
                    <polygon class="cls-6" points="60.471 30.433 57.831 31.955 57.84 34.987 60.479 33.465 60.471 30.433 60.471 30.433"/>
                    <polygon class="cls-7" points="60.462 27.402 57.823 28.926 57.831 31.955 60.471 30.433 60.462 27.402 60.462 27.402"/>
                    <polygon class="cls-7" points="60.452 24.371 57.813 25.896 57.823 28.926 60.462 27.402 60.452 24.371 60.452 24.371"/>
                    <polygon class="cls-8" points="57.917 62.269 55.279 63.791 55.288 66.823 57.926 65.3 57.917 62.269 57.917 62.269"/>
                    <polygon class="cls-11" points="57.908 59.237 55.271 60.76 55.279 63.791 57.917 62.269 57.908 59.237 57.908 59.237"/>
                    <polygon class="cls-11" points="57.9 56.205 55.264 57.727 55.271 60.76 57.908 59.237 57.9 56.205 57.9 56.205"/>
                    <polygon class="cls-17" points="57.892 53.176 55.255 54.698 55.264 57.727 57.9 56.205 57.892 53.176 57.892 53.176"/>
                    <polygon class="cls-10" points="57.883 50.146 55.246 51.669 55.255 54.698 57.892 53.176 57.883 50.146 57.883 50.146"/>
                    <polygon class="cls-10" points="57.874 47.113 55.237 48.637 55.246 51.669 57.883 50.146 57.874 47.113 57.874 47.113"/>
                    <polygon class="cls-19" points="57.867 44.084 55.228 45.606 55.237 48.637 57.874 47.113 57.867 44.084 57.867 44.084"/>
                    <polygon class="cls-19" points="57.857 41.052 55.221 42.574 55.228 45.606 57.867 44.084 57.857 41.052 57.857 41.052"/>
                    <polygon class="cls-8" points="57.849 38.02 55.212 39.541 55.221 42.574 57.857 41.052 57.849 38.02 57.849 38.02"/>
                    <polygon class="cls-11" points="57.84 34.987 55.202 36.51 55.212 39.541 57.849 38.02 57.84 34.987 57.84 34.987"/>
                    <polygon class="cls-11" points="57.831 31.955 55.196 33.477 55.193 33.478 55.202 36.51 57.84 34.987 57.831 31.955 57.831 31.955"/>
                    <polygon class="cls-21" points="57.823 28.926 55.187 30.445 55.196 33.477 57.831 31.955 57.823 28.926 57.823 28.926"/>
                    <polygon class="cls-20" points="57.813 25.896 55.179 27.416 55.187 30.445 57.823 28.926 57.813 25.896 57.813 25.896"/>
                    <polygon class="cls-13" points="55.187 30.445 55.186 30.448 55.193 33.478 55.196 33.477 55.187 30.445 55.187 30.445"/>
                    <polygon class="cls-6" points="55.179 27.416 55.177 27.418 55.186 30.448 55.187 30.445 55.179 27.416 55.179 27.416"/>
                    <polygon class="cls-16" points="55.279 63.791 52.642 65.315 52.65 68.347 55.288 66.823 55.279 63.791 55.279 63.791"/>
                    <polygon class="cls-8" points="55.271 60.76 52.634 62.282 52.642 65.315 55.279 63.791 55.271 60.76 55.271 60.76"/>
                    <polygon class="cls-9" points="55.264 57.727 52.624 59.25 52.634 62.282 55.271 60.76 55.264 57.727 55.264 57.727"/>
                    <polygon class="cls-17" points="55.255 54.698 52.617 56.221 52.624 59.25 55.264 57.727 55.255 54.698 55.255 54.698"/>
                    <polygon class="cls-8" points="55.246 51.669 52.607 53.193 52.617 56.221 55.255 54.698 55.246 51.669 55.246 51.669"/>
                    <polygon class="cls-11" points="55.237 48.637 52.599 50.161 52.607 53.193 55.246 51.669 55.237 48.637 55.237 48.637"/>
                    <polygon class="cls-11" points="55.228 45.606 52.59 47.13 52.599 50.161 55.237 48.637 55.228 45.606 55.228 45.606"/>
                    <polygon class="cls-10" points="55.221 42.574 52.581 44.098 52.59 47.13 55.228 45.606 55.221 42.574 55.221 42.574"/>
                    <polygon class="cls-11" points="55.212 39.541 52.573 41.065 52.581 44.098 55.221 42.574 55.212 39.541 55.212 39.541"/>
                    <polygon class="cls-8" points="55.202 36.51 52.565 38.033 52.563 38.035 52.573 41.065 55.212 39.541 55.202 36.51 55.202 36.51"/>
                    <polygon class="cls-15" points="55.193 33.478 52.557 35 52.565 38.033 55.202 36.51 55.193 33.478 55.193 33.478"/>
                    <polygon class="cls-13" points="55.186 30.448 52.549 31.97 52.557 35 55.193 33.478 55.186 30.448 55.186 30.448"/>
                    <polygon class="cls-6" points="55.177 27.418 52.54 28.94 52.549 31.97 55.186 30.448 55.177 27.418 55.177 27.418"/>
                    <polygon class="cls-20" points="52.557 35 52.557 35.002 52.563 38.035 52.565 38.033 52.557 35 52.557 35"/>
                    <polygon class="cls-6" points="52.549 31.97 52.547 31.972 52.557 35.002 52.557 35 52.549 31.97 52.549 31.97"/>
                    <polygon class="cls-12" points="52.54 28.94 52.539 28.94 52.547 31.972 52.549 31.97 52.54 28.94 52.54 28.94"/>
                    <polygon class="cls-8" points="52.642 65.315 50.003 66.837 50.012 69.87 52.65 68.347 52.642 65.315 52.642 65.315"/>
                    <polygon class="cls-9" points="52.634 62.282 49.994 63.806 50.003 66.837 52.642 65.315 52.634 62.282 52.634 62.282"/>
                    <polygon class="cls-11" points="52.624 59.25 49.986 60.774 49.994 63.806 52.634 62.282 52.624 59.25 52.624 59.25"/>
                    <polygon class="cls-10" points="52.617 56.221 49.977 57.745 49.986 60.774 52.624 59.25 52.617 56.221 52.617 56.221"/>
                    <polygon class="cls-16" points="52.607 53.193 49.968 54.716 49.977 57.745 52.617 56.221 52.607 53.193 52.607 53.193"/>
                    <polygon class="cls-11" points="52.599 50.161 49.96 51.682 49.968 54.716 52.607 53.193 52.599 50.161 52.599 50.161"/>
                    <polygon class="cls-9" points="52.59 47.13 49.951 48.653 49.96 51.682 52.599 50.161 52.59 47.13 52.59 47.13"/>
                    <polygon class="cls-14" points="52.581 44.098 49.943 45.621 49.951 48.653 52.59 47.13 52.581 44.098 52.581 44.098"/>
                    <polygon class="cls-11" points="52.573 41.065 49.934 42.59 49.943 45.621 52.581 44.098 52.573 41.065 52.573 41.065"/>
                    <polygon class="cls-15" points="52.563 38.035 49.927 39.555 49.925 39.557 49.934 42.59 52.573 41.065 52.563 38.035 52.563 38.035"/>
                    <polygon class="cls-20" points="52.557 35.002 49.918 36.523 49.927 39.555 52.563 38.035 52.557 35.002 52.557 35.002"/>
                    <polygon class="cls-6" points="52.547 31.972 49.91 33.493 49.918 36.523 52.557 35.002 52.547 31.972 52.547 31.972"/>
                    <polygon class="cls-12" points="52.539 28.94 49.901 30.464 49.91 33.493 52.547 31.972 52.539 28.94 52.539 28.94"/>
                    <polygon class="cls-6" points="49.918 36.523 49.917 36.523 49.925 39.557 49.927 39.555 49.918 36.523 49.918 36.523"/>
                    <polygon class="cls-7" points="49.91 33.493 49.909 33.495 49.917 36.523 49.918 36.523 49.91 33.493 49.91 33.493"/>
                    <polygon class="cls-7" points="49.901 30.464 49.901 30.465 49.909 33.495 49.91 33.493 49.901 30.464 49.901 30.464"/>
                    <polygon class="cls-10" points="50.003 66.837 47.364 68.361 47.374 71.394 50.012 69.87 50.003 66.837 50.003 66.837"/>
                    <polygon class="cls-14" points="49.994 63.806 47.355 65.329 47.364 68.361 50.003 66.837 49.994 63.806 49.994 63.806"/>
                    <polygon class="cls-10" points="49.986 60.774 47.347 62.299 47.355 65.329 49.994 63.806 49.986 60.774 49.986 60.774"/>
                    <polygon class="cls-19" points="49.977 57.745 47.338 59.27 47.347 62.299 49.986 60.774 49.977 57.745 49.977 57.745"/>
                    <polygon class="cls-11" points="49.968 54.716 47.331 56.237 47.338 59.27 49.977 57.745 49.968 54.716 49.968 54.716"/>
                    <polygon class="cls-8" points="49.96 51.682 47.32 53.207 47.331 56.237 49.968 54.716 49.96 51.682 49.96 51.682"/>
                    <polygon class="cls-11" points="49.951 48.653 47.312 50.176 47.32 53.207 49.96 51.682 49.951 48.653 49.951 48.653"/>
                    <polygon class="cls-10" points="49.943 45.621 47.305 47.146 47.312 50.176 49.951 48.653 49.943 45.621 49.943 45.621"/>
                    <polygon class="cls-11" points="49.934 42.59 47.296 44.112 47.305 47.146 49.943 45.621 49.934 42.59 49.934 42.59"/>
                    <polygon class="cls-8" points="49.925 39.557 47.288 41.079 47.287 41.079 47.296 44.112 49.934 42.59 49.925 39.557 49.925 39.557"/>
                    <polygon class="cls-6" points="49.917 36.523 47.28 38.047 47.288 41.079 49.925 39.557 49.917 36.523 49.917 36.523"/>
                    <polygon class="cls-7" points="49.909 33.495 47.271 35.017 47.28 38.047 49.917 36.523 49.909 33.495 49.909 33.495"/>
                    <polygon class="cls-7" points="49.901 30.465 47.264 31.986 47.271 35.017 49.909 33.495 49.901 30.465 49.901 30.465"/>
                    <polygon class="cls-22" points="47.28 38.047 47.278 38.048 47.287 41.079 47.288 41.079 47.28 38.047 47.28 38.047"/>
                    <polygon class="cls-20" points="47.271 35.017 47.271 35.017 47.278 38.048 47.28 38.047 47.271 35.017 47.271 35.017"/>
                    <polygon class="cls-6" points="47.264 31.986 47.261 31.988 47.271 35.017 47.271 35.017 47.264 31.986 47.264 31.986"/>
                    <polygon class="cls-8" points="47.364 68.361 44.727 69.885 44.736 72.916 47.374 71.394 47.364 68.361 47.364 68.361"/>
                    <polygon class="cls-8" points="47.355 65.329 44.718 66.853 44.727 69.885 47.364 68.361 47.355 65.329 47.355 65.329"/>
                    <polygon class="cls-11" points="47.347 62.299 44.71 63.82 44.718 66.853 47.355 65.329 47.347 62.299 47.347 62.299"/>
                    <polygon class="cls-10" points="47.338 59.27 44.701 60.79 44.71 63.82 47.347 62.299 47.338 59.27 47.338 59.27"/>
                    <polygon class="cls-8" points="47.331 56.237 44.692 57.761 44.701 60.79 47.338 59.27 47.331 56.237 47.331 56.237"/>
                    <polygon class="cls-11" points="47.32 53.207 44.684 54.729 44.692 57.761 47.331 56.237 47.32 53.207 47.32 53.207"/>
                    <polygon class="cls-11" points="47.312 50.176 44.676 51.698 44.684 54.729 47.32 53.207 47.312 50.176 47.312 50.176"/>
                    <polygon class="cls-18" points="47.305 47.146 44.667 48.666 44.676 51.698 47.312 50.176 47.305 47.146 47.305 47.146"/>
                    <polygon class="cls-9" points="47.296 44.112 44.659 45.635 44.667 48.666 47.305 47.146 47.296 44.112 47.296 44.112"/>
                    <polygon class="cls-11" points="47.287 41.079 44.651 42.602 44.651 42.603 44.659 45.635 47.296 44.112 47.287 41.079 47.287 41.079"/>
                    <polygon class="cls-15" points="47.278 38.048 44.643 39.57 44.651 42.602 47.287 41.079 47.278 38.048 47.278 38.048"/>
                    <polygon class="cls-20" points="47.271 35.017 44.634 36.539 44.643 39.57 47.278 38.048 47.271 35.017 47.271 35.017"/>
                    <polygon class="cls-6" points="47.261 31.988 44.626 33.51 44.634 36.539 47.271 35.017 47.261 31.988 47.261 31.988"/>
                    <polygon class="cls-20" points="44.643 39.57 44.642 39.57 44.651 42.603 44.651 42.602 44.643 39.57 44.643 39.57"/>
                    <polygon class="cls-6" points="44.634 36.539 44.632 36.54 44.642 39.57 44.643 39.57 44.634 36.539 44.634 36.539"/>
                    <polygon class="cls-12" points="44.626 33.51 44.624 33.51 44.632 36.54 44.634 36.539 44.626 33.51 44.626 33.51"/>
                    <polygon class="cls-8" points="44.727 69.885 42.09 71.406 42.1 74.439 44.736 72.916 44.727 69.885 44.727 69.885"/>
                    <polygon class="cls-11" points="44.718 66.853 42.08 68.375 42.09 71.406 44.727 69.885 44.718 66.853 44.718 66.853"/>
                    <polygon class="cls-11" points="44.71 63.82 42.073 65.343 42.08 68.375 44.718 66.853 44.71 63.82 44.71 63.82"/>
                    <polygon class="cls-14" points="44.701 60.79 42.064 62.314 42.073 65.343 44.71 63.82 44.701 60.79 44.701 60.79"/>
                    <polygon class="cls-11" points="44.692 57.761 42.056 59.283 42.064 62.314 44.701 60.79 44.692 57.761 44.692 57.761"/>
                    <polygon class="cls-11" points="44.684 54.729 42.047 56.252 42.056 59.283 44.692 57.761 44.684 54.729 44.684 54.729"/>
                    <polygon class="cls-9" points="44.676 51.698 42.039 53.222 42.047 56.252 44.684 54.729 44.676 51.698 44.676 51.698"/>
                    <polygon class="cls-19" points="44.667 48.666 42.03 50.189 42.039 53.222 44.676 51.698 44.667 48.666 44.667 48.666"/>
                    <polygon class="cls-14" points="44.659 45.635 42.021 47.156 42.03 50.189 44.667 48.666 44.659 45.635 44.659 45.635"/>
                    <polygon class="cls-18" points="44.651 42.603 42.014 44.125 42.021 47.156 44.659 45.635 44.651 42.603 44.651 42.603"/>
                    <polygon class="cls-20" points="44.642 39.57 42.003 41.095 42.014 44.125 44.651 42.603 44.642 39.57 44.642 39.57"/>
                    <polygon class="cls-6" points="44.632 36.54 41.995 38.064 42.003 41.095 44.642 39.57 44.632 36.54 44.632 36.54"/>
                    <polygon class="cls-12" points="44.624 33.51 41.987 35.032 41.995 38.064 44.632 36.54 44.624 33.51 44.624 33.51"/>
                    <polygon class="cls-8" points="42.09 71.406 39.453 72.93 39.461 75.962 42.1 74.439 42.09 71.406 42.09 71.406"/>
                    <polygon class="cls-11" points="42.08 68.375 39.443 69.897 39.453 72.93 42.09 71.406 42.08 68.375 42.08 68.375"/>
                    <polygon class="cls-9" points="42.073 65.343 39.435 66.866 39.443 69.897 42.08 68.375 42.073 65.343 42.073 65.343"/>
                    <polygon class="cls-10" points="42.064 62.314 39.427 63.837 39.435 66.866 42.073 65.343 42.064 62.314 42.064 62.314"/>
                    <polygon class="cls-8" points="42.056 59.283 39.418 60.807 39.427 63.837 42.064 62.314 42.056 59.283 42.056 59.283"/>
                    <polygon class="cls-9" points="42.047 56.252 39.41 57.773 39.418 60.807 42.056 59.283 42.047 56.252 42.047 56.252"/>
                    <polygon class="cls-11" points="42.039 53.222 39.4 54.744 39.41 57.773 42.047 56.252 42.039 53.222 42.039 53.222"/>
                    <polygon class="cls-17" points="42.03 50.189 39.393 51.712 39.4 54.744 42.039 53.222 42.03 50.189 42.03 50.189"/>
                    <polygon class="cls-8" points="42.021 47.156 39.384 48.681 39.393 51.712 42.03 50.189 42.021 47.156 42.021 47.156"/>
                    <polygon class="cls-8" points="42.014 44.125 39.375 45.648 39.384 48.681 42.021 47.156 42.014 44.125 42.014 44.125"/>
                    <polygon class="cls-15" points="42.003 41.095 39.367 42.615 39.375 45.648 42.014 44.125 42.003 41.095 42.003 41.095"/>
                    <polygon class="cls-20" points="41.995 38.064 39.359 39.585 39.367 42.615 42.003 41.095 41.995 38.064 41.995 38.064"/>
                    <polygon class="cls-7" points="41.987 35.032 39.35 36.556 39.359 39.585 41.995 38.064 41.987 35.032 41.987 35.032"/>
                    <polygon class="cls-8" points="39.453 72.93 36.814 74.453 36.822 77.486 39.461 75.962 39.453 72.93 39.453 72.93"/>
                    <polygon class="cls-8" points="39.443 69.897 36.806 71.421 36.814 74.453 39.453 72.93 39.443 69.897 39.443 69.897"/>
                    <polygon class="cls-9" points="39.435 66.866 36.797 68.39 36.806 71.421 39.443 69.897 39.435 66.866 39.435 66.866"/>
                    <polygon class="cls-19" points="39.427 63.837 36.788 65.361 36.797 68.39 39.435 66.866 39.427 63.837 39.427 63.837"/>
                    <polygon class="cls-10" points="39.418 60.807 36.781 62.33 36.788 65.361 39.427 63.837 39.418 60.807 39.418 60.807"/>
                    <polygon class="cls-23" points="39.41 57.773 36.77 59.298 36.781 62.33 39.418 60.807 39.41 57.773 39.41 57.773"/>
                    <polygon class="cls-10" points="39.4 54.744 36.762 56.267 36.77 59.298 39.41 57.773 39.4 54.744 39.4 54.744"/>
                    <polygon class="cls-17" points="39.393 51.712 36.754 53.235 36.762 56.267 39.4 54.744 39.393 51.712 39.393 51.712"/>
                    <polygon class="cls-8" points="39.384 48.681 36.746 50.203 36.754 53.235 39.393 51.712 39.384 48.681 39.384 48.681"/>
                    <polygon class="cls-11" points="39.375 45.648 36.737 47.172 36.746 50.203 39.384 48.681 39.375 45.648 39.375 45.648"/>
                    <polygon class="cls-8" points="39.367 42.615 39.366 42.617 36.727 44.14 36.737 47.172 39.375 45.648 39.367 42.615 39.367 42.615"/>
                    <polygon class="cls-20" points="39.359 39.585 39.357 39.586 39.366 42.617 39.367 42.615 39.359 39.585 39.359 39.585"/>
                    <polygon class="cls-7" points="39.35 36.556 39.348 36.556 39.357 39.586 39.359 39.585 39.35 36.556 39.35 36.556"/>
                    <polygon class="cls-21" points="39.357 39.586 36.72 41.108 36.727 44.14 39.366 42.617 39.357 39.586 39.357 39.586"/>
                    <polygon class="cls-6" points="39.348 36.556 36.71 38.078 36.72 41.108 39.357 39.586 39.348 36.556 39.348 36.556"/>
                    <polygon class="cls-8" points="36.814 74.453 34.177 75.977 34.185 79.007 36.822 77.486 36.814 74.453 36.814 74.453"/>
                    <polygon class="cls-11" points="36.806 71.421 34.168 72.944 34.177 75.977 36.814 74.453 36.806 71.421 36.806 71.421"/>
                    <polygon class="cls-9" points="36.797 68.39 34.16 69.911 34.168 72.944 36.806 71.421 36.797 68.39 36.797 68.39"/>
                    <polygon class="cls-10" points="36.788 65.361 34.15 66.883 34.16 69.911 36.797 68.39 36.788 65.361 36.788 65.361"/>
                    <polygon class="cls-11" points="36.781 62.33 34.143 63.852 34.15 66.883 36.788 65.361 36.781 62.33 36.781 62.33"/>
                    <polygon class="cls-11" points="36.77 59.298 34.134 60.82 34.143 63.852 36.781 62.33 36.77 59.298 36.77 59.298"/>
                    <polygon class="cls-11" points="36.762 56.267 34.125 57.79 34.134 60.82 36.77 59.298 36.762 56.267 36.762 56.267"/>
                    <polygon class="cls-10" points="36.754 53.235 34.117 54.758 34.125 57.79 36.762 56.267 36.754 53.235 36.754 53.235"/>
                    <polygon class="cls-8" points="36.746 50.203 34.108 51.727 34.117 54.758 36.754 53.235 36.746 50.203 36.746 50.203"/>
                    <polygon class="cls-11" points="36.737 47.172 34.101 48.693 34.108 51.727 36.746 50.203 36.737 47.172 36.737 47.172"/>
                    <polygon class="cls-9" points="36.727 44.14 36.727 44.14 34.09 45.662 34.101 48.693 36.737 47.172 36.727 44.14 36.727 44.14"/>
                    <polygon class="cls-24" points="36.72 41.108 36.718 41.109 36.727 44.14 36.727 44.14 36.72 41.108 36.72 41.108"/>
                    <polygon class="cls-6" points="36.71 38.078 36.709 38.079 36.718 41.109 36.72 41.108 36.71 38.078 36.71 38.078"/>
                    <polygon class="cls-6" points="36.718 41.109 34.083 42.632 34.09 45.662 36.727 44.14 36.718 41.109 36.718 41.109"/>
                    <polygon class="cls-7" points="36.709 38.079 34.073 39.602 34.083 42.632 36.718 41.109 36.709 38.079 36.709 38.079"/>
                    <polygon class="cls-6" points="34.083 42.632 34.081 42.633 34.089 45.663 34.09 45.662 34.083 42.632 34.083 42.632"/>
                    <polygon class="cls-7" points="34.073 39.602 34.072 39.602 34.081 42.633 34.083 42.632 34.073 39.602 34.073 39.602"/>
                  </g>
                </g>
              </g>
              <g class="cls-4">
                <polygon class="cls-2" points="34.184 79.008 0.113 59.208 0.001 19.8 34.073 39.602 34.184 79.008"/>
                <g class="cls-25">
                  <g>
                    <polygon class="cls-6" points="34.083 42.633 34.081 42.632 34.089 45.662 34.091 45.664 34.083 42.633 34.083 42.633"/>
                    <polygon class="cls-7" points="34.074 39.603 34.071 39.602 34.081 42.632 34.083 42.633 34.074 39.603 34.074 39.603"/>
                    <polygon class="cls-8" points="34.175 75.974 31.555 74.452 31.564 77.484 34.184 79.007 34.175 75.974 34.175 75.974"/>
                    <polygon class="cls-8" points="34.166 72.942 31.546 71.421 31.555 74.452 34.175 75.974 34.166 72.942 34.166 72.942"/>
                    <polygon class="cls-9" points="34.158 69.911 31.538 68.389 31.546 71.421 34.166 72.942 34.158 69.911 34.158 69.911"/>
                    <polygon class="cls-10" points="34.149 66.883 31.529 65.359 31.538 68.389 34.158 69.911 34.149 66.883 34.149 66.883"/>
                    <polygon class="cls-8" points="34.141 63.852 31.52 62.33 31.529 65.359 34.149 66.883 34.141 63.852 34.141 63.852"/>
                    <polygon class="cls-11" points="34.132 60.82 31.512 59.297 31.52 62.33 34.141 63.852 34.132 60.82 34.132 60.82"/>
                    <polygon class="cls-11" points="34.124 57.79 31.504 56.267 31.512 59.297 34.132 60.82 34.124 57.79 34.124 57.79"/>
                    <polygon class="cls-10" points="34.114 54.758 31.494 53.234 31.504 56.267 34.124 57.79 34.114 54.758 34.114 54.758"/>
                    <polygon class="cls-11" points="34.106 51.727 31.486 50.203 31.494 53.234 34.114 54.758 34.106 51.727 34.106 51.727"/>
                    <polygon class="cls-11" points="34.098 48.693 31.477 47.172 31.486 50.203 34.106 51.727 34.098 48.693 34.098 48.693"/>
                    <polygon class="cls-8" points="34.089 45.662 31.47 44.14 31.469 44.139 31.477 47.172 34.098 48.693 34.089 45.662 34.089 45.662"/>
                    <polygon class="cls-6" points="34.081 42.632 31.462 41.109 31.47 44.14 34.089 45.662 34.081 42.632 34.081 42.632"/>
                    <polygon class="cls-7" points="34.071 39.602 31.453 38.079 31.462 41.109 34.081 42.632 34.071 39.602 34.071 39.602"/>
                    <polygon class="cls-12" points="31.462 41.109 31.461 41.108 31.469 44.139 31.47 44.14 31.462 41.109 31.462 41.109"/>
                    <polygon class="cls-13" points="31.453 38.079 31.451 38.078 31.461 41.108 31.462 41.109 31.453 38.079 31.453 38.079"/>
                    <polygon class="cls-10" points="31.555 74.452 28.934 72.93 28.943 75.962 31.564 77.484 31.555 74.452 31.555 74.452"/>
                    <polygon class="cls-10" points="31.546 71.421 28.926 69.898 28.934 72.93 31.555 74.452 31.546 71.421 31.546 71.421"/>
                    <polygon class="cls-10" points="31.538 68.389 28.917 66.866 28.926 69.898 31.546 71.421 31.538 68.389 31.538 68.389"/>
                    <polygon class="cls-14" points="31.529 65.359 28.91 63.837 28.917 66.866 31.538 68.389 31.529 65.359 31.529 65.359"/>
                    <polygon class="cls-8" points="31.52 62.33 28.9 60.807 28.91 63.837 31.529 65.359 31.52 62.33 31.52 62.33"/>
                    <polygon class="cls-11" points="31.512 59.297 28.891 57.773 28.9 60.807 31.52 62.33 31.512 59.297 31.512 59.297"/>
                    <polygon class="cls-9" points="31.504 56.267 28.884 54.744 28.891 57.773 31.512 59.297 31.504 56.267 31.504 56.267"/>
                    <polygon class="cls-10" points="31.494 53.234 28.874 51.712 28.884 54.744 31.504 56.267 31.494 53.234 31.494 53.234"/>
                    <polygon class="cls-11" points="31.486 50.203 28.866 48.681 28.874 51.712 31.494 53.234 31.486 50.203 31.486 50.203"/>
                    <polygon class="cls-8" points="31.477 47.172 28.857 45.648 28.866 48.681 31.486 50.203 31.477 47.172 31.477 47.172"/>
                    <polygon class="cls-15" points="31.469 44.139 28.849 42.615 28.857 45.648 31.477 47.172 31.469 44.139 31.469 44.139"/>
                    <polygon class="cls-12" points="31.461 41.108 28.84 39.585 28.849 42.615 31.469 44.139 31.461 41.108 31.461 41.108"/>
                    <polygon class="cls-13" points="31.451 38.078 28.831 36.556 28.84 39.585 31.461 41.108 31.451 38.078 31.451 38.078"/>
                    <polygon class="cls-16" points="28.934 72.93 26.313 71.406 26.322 74.438 28.943 75.962 28.934 72.93 28.934 72.93"/>
                    <polygon class="cls-11" points="28.926 69.898 26.305 68.375 26.313 71.406 28.934 72.93 28.926 69.898 28.926 69.898"/>
                    <polygon class="cls-9" points="28.917 66.866 26.296 65.342 26.305 68.375 28.926 69.898 28.917 66.866 28.917 66.866"/>
                    <polygon class="cls-14" points="28.91 63.837 26.287 62.314 26.296 65.342 28.917 66.866 28.91 63.837 28.91 63.837"/>
                    <polygon class="cls-11" points="28.9 60.807 26.279 59.283 26.287 62.314 28.91 63.837 28.9 60.807 28.9 60.807"/>
                    <polygon class="cls-11" points="28.891 57.773 26.27 56.252 26.279 59.283 28.9 60.807 28.891 57.773 28.891 57.773"/>
                    <polygon class="cls-11" points="28.884 54.744 26.262 53.222 26.27 56.252 28.891 57.773 28.884 54.744 28.884 54.744"/>
                    <polygon class="cls-17" points="28.874 51.712 26.253 50.189 26.262 53.222 28.884 54.744 28.874 51.712 28.874 51.712"/>
                    <polygon class="cls-18" points="28.866 48.681 26.244 47.156 26.253 50.189 28.874 51.712 28.866 48.681 28.866 48.681"/>
                    <polygon class="cls-19" points="28.857 45.648 26.236 44.125 26.244 47.156 28.866 48.681 28.857 45.648 28.857 45.648"/>
                    <polygon class="cls-20" points="28.849 42.615 26.227 41.094 26.236 44.125 28.857 45.648 28.849 42.615 28.849 42.615"/>
                    <polygon class="cls-6" points="28.84 39.585 26.219 38.064 26.227 41.094 28.849 42.615 28.84 39.585 28.84 39.585"/>
                    <polygon class="cls-12" points="28.831 36.556 26.21 35.031 26.219 38.064 28.84 39.585 28.831 36.556 28.831 36.556"/>
                    <polygon class="cls-8" points="26.313 71.406 23.692 69.883 23.7 72.915 26.322 74.438 26.313 71.406 26.313 71.406"/>
                    <polygon class="cls-11" points="26.305 68.375 23.684 66.852 23.692 69.883 26.313 71.406 26.305 68.375 26.305 68.375"/>
                    <polygon class="cls-11" points="26.296 65.342 23.675 63.818 23.684 66.852 26.305 68.375 26.296 65.342 26.296 65.342"/>
                    <polygon class="cls-10" points="26.287 62.314 23.666 60.789 23.675 63.818 26.296 65.342 26.287 62.314 26.287 62.314"/>
                    <polygon class="cls-8" points="26.279 59.283 23.657 57.76 23.666 60.789 26.287 62.314 26.279 59.283 26.279 59.283"/>
                    <polygon class="cls-11" points="26.27 56.252 23.649 54.729 23.657 57.76 26.279 59.283 26.27 56.252 26.27 56.252"/>
                    <polygon class="cls-9" points="26.262 53.222 23.64 51.697 23.649 54.729 26.27 56.252 26.262 53.222 26.262 53.222"/>
                    <polygon class="cls-17" points="26.253 50.189 23.631 48.666 23.64 51.697 26.262 53.222 26.253 50.189 26.253 50.189"/>
                    <polygon class="cls-15" points="26.244 47.156 23.622 45.633 23.631 48.666 26.253 50.189 26.244 47.156 26.244 47.156"/>
                    <polygon class="cls-8" points="26.236 44.125 23.615 42.602 23.622 45.633 26.244 47.156 26.236 44.125 26.236 44.125"/>
                    <polygon class="cls-6" points="26.227 41.094 23.605 39.57 23.615 42.602 26.236 44.125 26.227 41.094 26.227 41.094"/>
                    <polygon class="cls-7" points="26.219 38.064 23.597 36.539 23.605 39.57 26.227 41.094 26.219 38.064 26.219 38.064"/>
                    <polygon class="cls-7" points="26.21 35.031 23.589 33.509 23.597 36.539 26.219 38.064 26.21 35.031 26.21 35.031"/>
                    <polygon class="cls-8" points="23.692 69.883 21.071 68.36 21.08 71.392 23.7 72.915 23.692 69.883 23.692 69.883"/>
                    <polygon class="cls-11" points="23.684 66.852 21.063 65.328 21.071 68.36 23.692 69.883 23.684 66.852 23.684 66.852"/>
                    <polygon class="cls-11" points="23.675 63.818 21.055 62.296 21.063 65.328 23.684 66.852 23.675 63.818 23.675 63.818"/>
                    <polygon class="cls-17" points="23.666 60.789 21.046 59.268 21.055 62.296 23.675 63.818 23.666 60.789 23.666 60.789"/>
                    <polygon class="cls-10" points="23.657 57.76 21.037 56.236 21.046 59.268 23.666 60.789 23.657 57.76 23.657 57.76"/>
                    <polygon class="cls-10" points="23.649 54.729 21.029 53.204 21.037 56.236 23.657 57.76 23.649 54.729 23.649 54.729"/>
                    <polygon class="cls-19" points="23.64 51.697 21.02 50.174 21.029 53.204 23.649 54.729 23.64 51.697 23.64 51.697"/>
                    <polygon class="cls-19" points="23.631 48.666 21.012 47.143 21.02 50.174 23.64 51.697 23.631 48.666 23.631 48.666"/>
                    <polygon class="cls-8" points="23.622 45.633 21.003 44.111 21.012 47.143 23.631 48.666 23.622 45.633 23.622 45.633"/>
                    <polygon class="cls-11" points="23.615 42.602 20.994 41.078 21.003 44.111 23.622 45.633 23.615 42.602 23.615 42.602"/>
                    <polygon class="cls-11" points="23.605 39.57 20.988 38.048 20.986 38.046 20.994 41.078 23.615 42.602 23.605 39.57 23.605 39.57"/>
                    <polygon class="cls-21" points="23.597 36.539 20.978 35.017 20.988 38.048 23.605 39.57 23.597 36.539 23.597 36.539"/>
                    <polygon class="cls-20" points="23.589 33.509 20.97 31.988 20.978 35.017 23.597 36.539 23.589 33.509 23.589 33.509"/>
                    <polygon class="cls-13" points="20.978 35.017 20.977 35.017 20.986 38.046 20.988 38.048 20.978 35.017 20.978 35.017"/>
                    <polygon class="cls-6" points="20.97 31.988 20.969 31.986 20.977 35.017 20.978 35.017 20.97 31.988 20.97 31.988"/>
                    <polygon class="cls-16" points="21.071 68.36 18.45 66.836 18.459 69.869 21.08 71.392 21.071 68.36 21.071 68.36"/>
                    <polygon class="cls-8" points="21.063 65.328 18.442 63.806 18.45 66.836 21.071 68.36 21.063 65.328 21.063 65.328"/>
                    <polygon class="cls-9" points="21.055 62.296 18.434 60.773 18.442 63.806 21.063 65.328 21.055 62.296 21.055 62.296"/>
                    <polygon class="cls-17" points="21.046 59.268 18.424 57.744 18.434 60.773 21.055 62.296 21.046 59.268 21.046 59.268"/>
                    <polygon class="cls-8" points="21.037 56.236 18.415 54.714 18.424 57.744 21.046 59.268 21.037 56.236 21.037 56.236"/>
                    <polygon class="cls-11" points="21.029 53.204 18.407 51.681 18.415 54.714 21.037 56.236 21.029 53.204 21.029 53.204"/>
                    <polygon class="cls-11" points="21.02 50.174 18.398 48.651 18.407 51.681 21.029 53.204 21.02 50.174 21.02 50.174"/>
                    <polygon class="cls-10" points="21.012 47.143 18.39 45.619 18.398 48.651 21.02 50.174 21.012 47.143 21.012 47.143"/>
                    <polygon class="cls-11" points="21.003 44.111 18.381 42.587 18.39 45.619 21.012 47.143 21.003 44.111 21.003 44.111"/>
                    <polygon class="cls-8" points="20.994 41.078 18.374 39.555 18.373 39.555 18.381 42.587 21.003 44.111 20.994 41.078 20.994 41.078"/>
                    <polygon class="cls-15" points="20.986 38.046 18.366 36.523 18.374 39.555 20.994 41.078 20.986 38.046 20.986 38.046"/>
                    <polygon class="cls-13" points="20.977 35.017 18.357 33.493 18.366 36.523 20.986 38.046 20.977 35.017 20.977 35.017"/>
                    <polygon class="cls-6" points="20.969 31.986 18.349 30.464 18.357 33.493 20.977 35.017 20.969 31.986 20.969 31.986"/>
                    <polygon class="cls-20" points="18.366 36.523 18.364 36.523 18.373 39.555 18.374 39.555 18.366 36.523 18.366 36.523"/>
                    <polygon class="cls-6" points="18.357 33.493 18.356 33.493 18.364 36.523 18.366 36.523 18.357 33.493 18.357 33.493"/>
                    <polygon class="cls-12" points="18.349 30.464 18.348 30.462 18.356 33.493 18.357 33.493 18.349 30.464 18.349 30.464"/>
                    <polygon class="cls-8" points="18.45 66.836 15.829 65.313 15.837 68.346 18.459 69.869 18.45 66.836 18.45 66.836"/>
                    <polygon class="cls-9" points="18.442 63.806 15.821 62.281 15.829 65.313 18.45 66.836 18.442 63.806 18.442 63.806"/>
                    <polygon class="cls-11" points="18.434 60.773 15.812 59.249 15.821 62.281 18.442 63.806 18.434 60.773 18.434 60.773"/>
                    <polygon class="cls-10" points="18.424 57.744 15.803 56.221 15.812 59.249 18.434 60.773 18.424 57.744 18.424 57.744"/>
                    <polygon class="cls-16" points="18.415 54.714 15.794 53.19 15.803 56.221 18.424 57.744 18.415 54.714 18.415 54.714"/>
                    <polygon class="cls-11" points="18.407 51.681 15.786 50.159 15.794 53.19 18.415 54.714 18.407 51.681 18.407 51.681"/>
                    <polygon class="cls-9" points="18.398 48.651 15.777 47.127 15.786 50.159 18.407 51.681 18.398 48.651 18.398 48.651"/>
                    <polygon class="cls-14" points="18.39 45.619 15.768 44.096 15.777 47.127 18.398 48.651 18.39 45.619 18.39 45.619"/>
                    <polygon class="cls-11" points="18.381 42.587 15.76 41.064 15.768 44.096 18.39 45.619 18.381 42.587 18.381 42.587"/>
                    <polygon class="cls-15" points="18.373 39.555 15.753 38.033 15.751 38.031 15.76 41.064 18.381 42.587 18.373 39.555 18.373 39.555"/>
                    <polygon class="cls-20" points="18.364 36.523 15.745 35 15.753 38.033 18.373 39.555 18.364 36.523 18.364 36.523"/>
                    <polygon class="cls-6" points="18.356 33.493 15.735 31.97 15.745 35 18.364 36.523 18.356 33.493 18.356 33.493"/>
                    <polygon class="cls-12" points="18.348 30.462 15.727 28.94 15.735 31.97 18.356 33.493 18.348 30.462 18.348 30.462"/>
                    <polygon class="cls-6" points="15.745 35 15.743 35 15.751 38.031 15.753 38.033 15.745 35 15.745 35"/>
                    <polygon class="cls-7" points="15.735 31.97 15.734 31.969 15.743 35 15.745 35 15.735 31.97 15.735 31.97"/>
                    <polygon class="cls-7" points="15.727 28.94 15.726 28.939 15.734 31.969 15.735 31.97 15.727 28.94 15.727 28.94"/>
                    <polygon class="cls-10" points="15.829 65.313 13.207 63.79 13.216 66.822 15.837 68.346 15.829 65.313 15.829 65.313"/>
                    <polygon class="cls-14" points="15.821 62.281 13.199 60.757 13.207 63.79 15.829 65.313 15.821 62.281 15.821 62.281"/>
                    <polygon class="cls-10" points="15.812 59.249 13.19 57.726 13.199 60.757 15.821 62.281 15.812 59.249 15.812 59.249"/>
                    <polygon class="cls-19" points="15.803 56.221 13.182 54.697 13.19 57.726 15.812 59.249 15.803 56.221 15.803 56.221"/>
                    <polygon class="cls-11" points="15.794 53.19 13.173 51.666 13.182 54.697 15.803 56.221 15.794 53.19 15.794 53.19"/>
                    <polygon class="cls-8" points="15.786 50.159 13.164 48.635 13.173 51.666 15.794 53.19 15.786 50.159 15.786 50.159"/>
                    <polygon class="cls-11" points="15.777 47.127 13.156 45.604 13.164 48.635 15.786 50.159 15.777 47.127 15.777 47.127"/>
                    <polygon class="cls-10" points="15.768 44.096 13.147 42.571 13.156 45.604 15.777 47.127 15.768 44.096 15.768 44.096"/>
                    <polygon class="cls-11" points="15.76 41.064 13.138 39.541 13.147 42.571 15.768 44.096 15.76 41.064 15.76 41.064"/>
                    <polygon class="cls-8" points="15.751 38.031 13.131 36.51 13.13 36.509 13.138 39.541 15.76 41.064 15.751 38.031 15.751 38.031"/>
                    <polygon class="cls-6" points="15.743 35 13.122 33.478 13.131 36.51 15.751 38.031 15.743 35 15.743 35"/>
                    <polygon class="cls-7" points="15.734 31.969 13.114 30.448 13.122 33.478 15.743 35 15.734 31.969 15.734 31.969"/>
                    <polygon class="cls-7" points="15.726 28.939 13.106 27.416 13.114 30.448 15.734 31.969 15.726 28.939 15.726 28.939"/>
                    <polygon class="cls-22" points="13.122 33.478 13.121 33.477 13.13 36.509 13.131 36.51 13.122 33.478 13.122 33.478"/>
                    <polygon class="cls-20" points="13.114 30.448 13.113 30.445 13.121 33.477 13.122 33.478 13.114 30.448 13.114 30.448"/>
                    <polygon class="cls-6" points="13.106 27.416 13.104 27.416 13.113 30.445 13.114 30.448 13.106 27.416 13.106 27.416"/>
                    <polygon class="cls-8" points="13.207 63.79 10.587 62.267 10.596 65.299 13.216 66.822 13.207 63.79 13.207 63.79"/>
                    <polygon class="cls-8" points="13.199 60.757 10.579 59.236 10.587 62.267 13.207 63.79 13.199 60.757 13.199 60.757"/>
                    <polygon class="cls-11" points="13.19 57.726 10.569 56.203 10.579 59.236 13.199 60.757 13.19 57.726 13.19 57.726"/>
                    <polygon class="cls-10" points="13.182 54.697 10.562 53.174 10.569 56.203 13.19 57.726 13.182 54.697 13.182 54.697"/>
                    <polygon class="cls-8" points="13.173 51.666 10.553 50.145 10.562 53.174 13.182 54.697 13.173 51.666 13.173 51.666"/>
                    <polygon class="cls-11" points="13.164 48.635 10.544 47.111 10.553 50.145 13.173 51.666 13.164 48.635 13.164 48.635"/>
                    <polygon class="cls-11" points="13.156 45.604 10.536 44.083 10.544 47.111 13.164 48.635 13.156 45.604 13.156 45.604"/>
                    <polygon class="cls-18" points="13.147 42.571 10.527 41.051 10.536 44.083 13.156 45.604 13.147 42.571 13.147 42.571"/>
                    <polygon class="cls-9" points="13.138 39.541 10.518 38.017 10.527 41.051 13.147 42.571 13.138 39.541 13.138 39.541"/>
                    <polygon class="cls-11" points="13.13 36.509 10.512 34.985 10.51 34.985 10.518 38.017 13.138 39.541 13.13 36.509 13.13 36.509"/>
                    <polygon class="cls-15" points="13.121 33.477 10.502 31.955 10.512 34.985 13.13 36.509 13.121 33.477 13.121 33.477"/>
                    <polygon class="cls-20" points="13.113 30.445 10.494 28.925 10.502 31.955 13.121 33.477 13.113 30.445 13.113 30.445"/>
                    <polygon class="cls-6" points="13.104 27.416 10.486 25.896 10.494 28.925 13.113 30.445 13.104 27.416 13.104 27.416"/>
                    <polygon class="cls-20" points="10.502 31.955 10.501 31.953 10.51 34.985 10.512 34.985 10.502 31.955 10.502 31.955"/>
                    <polygon class="cls-6" points="10.494 28.925 10.493 28.925 10.501 31.953 10.502 31.955 10.494 28.925 10.494 28.925"/>
                    <polygon class="cls-12" points="10.486 25.896 10.484 25.895 10.493 28.925 10.494 28.925 10.486 25.896 10.486 25.896"/>
                    <polygon class="cls-8" points="10.587 62.267 7.967 60.745 7.976 63.775 10.596 65.299 10.587 62.267 10.587 62.267"/>
                    <polygon class="cls-11" points="10.579 59.236 7.959 57.713 7.967 60.745 10.587 62.267 10.579 59.236 10.579 59.236"/>
                    <polygon class="cls-11" points="10.569 56.203 7.95 54.681 7.959 57.713 10.579 59.236 10.569 56.203 10.569 56.203"/>
                    <polygon class="cls-14" points="10.562 53.174 7.941 51.651 7.95 54.681 10.569 56.203 10.562 53.174 10.562 53.174"/>
                    <polygon class="cls-11" points="10.553 50.145 7.933 48.622 7.941 51.651 10.562 53.174 10.553 50.145 10.553 50.145"/>
                    <polygon class="cls-11" points="10.544 47.111 7.924 45.59 7.933 48.622 10.553 50.145 10.544 47.111 10.544 47.111"/>
                    <polygon class="cls-9" points="10.536 44.083 7.915 42.56 7.924 45.59 10.544 47.111 10.536 44.083 10.536 44.083"/>
                    <polygon class="cls-19" points="10.527 41.051 7.907 39.527 7.915 42.56 10.536 44.083 10.527 41.051 10.527 41.051"/>
                    <polygon class="cls-14" points="10.518 38.017 7.899 36.496 7.907 39.527 10.527 41.051 10.518 38.017 10.518 38.017"/>
                    <polygon class="cls-18" points="10.51 34.985 7.89 33.463 7.899 36.496 10.518 38.017 10.51 34.985 10.51 34.985"/>
                    <polygon class="cls-20" points="10.501 31.953 7.881 30.431 7.89 33.463 10.51 34.985 10.501 31.953 10.501 31.953"/>
                    <polygon class="cls-6" points="10.493 28.925 7.872 27.401 7.881 30.431 10.501 31.953 10.493 28.925 10.493 28.925"/>
                    <polygon class="cls-12" points="10.484 25.895 7.864 24.371 7.872 27.401 10.493 28.925 10.484 25.895 10.484 25.895"/>
                    <polygon class="cls-8" points="7.967 60.745 5.347 59.221 5.355 62.254 7.976 63.775 7.967 60.745 7.967 60.745"/>
                    <polygon class="cls-11" points="7.959 57.713 5.338 56.19 5.347 59.221 7.967 60.745 7.959 57.713 7.959 57.713"/>
                    <polygon class="cls-9" points="7.95 54.681 5.33 53.157 5.338 56.19 7.959 57.713 7.95 54.681 7.95 54.681"/>
                    <polygon class="cls-10" points="7.941 51.651 5.321 50.131 5.33 53.157 7.95 54.681 7.941 51.651 7.941 51.651"/>
                    <polygon class="cls-8" points="7.933 48.622 5.313 47.1 5.321 50.131 7.941 51.651 7.933 48.622 7.933 48.622"/>
                    <polygon class="cls-9" points="7.924 45.59 5.304 44.067 5.313 47.1 7.933 48.622 7.924 45.59 7.924 45.59"/>
                    <polygon class="cls-11" points="7.915 42.56 5.295 41.036 5.304 44.067 7.924 45.59 7.915 42.56 7.915 42.56"/>
                    <polygon class="cls-17" points="7.907 39.527 5.287 38.005 5.295 41.036 7.915 42.56 7.907 39.527 7.907 39.527"/>
                    <polygon class="cls-8" points="7.899 36.496 5.278 34.974 5.287 38.005 7.907 39.527 7.899 36.496 7.899 36.496"/>
                    <polygon class="cls-8" points="7.89 33.463 5.27 31.941 5.278 34.974 7.899 36.496 7.89 33.463 7.89 33.463"/>
                    <polygon class="cls-15" points="7.881 30.431 5.261 28.909 5.27 31.941 7.89 33.463 7.881 30.431 7.881 30.431"/>
                    <polygon class="cls-20" points="7.872 27.401 5.252 25.878 5.261 28.909 7.881 30.431 7.872 27.401 7.872 27.401"/>
                    <polygon class="cls-7" points="7.864 24.371 5.244 22.849 5.252 25.878 7.872 27.401 7.864 24.371 7.864 24.371"/>
                    <polygon class="cls-8" points="5.347 59.221 2.725 57.697 2.734 60.731 5.355 62.254 5.347 59.221 5.347 59.221"/>
                    <polygon class="cls-8" points="5.338 56.19 2.717 54.665 2.725 57.697 5.347 59.221 5.338 56.19 5.338 56.19"/>
                    <polygon class="cls-9" points="5.33 53.157 2.708 51.635 2.717 54.665 5.338 56.19 5.33 53.157 5.33 53.157"/>
                    <polygon class="cls-19" points="5.321 50.131 2.7 48.606 2.708 51.635 5.33 53.157 5.321 50.131 5.321 50.131"/>
                    <polygon class="cls-10" points="5.313 47.1 2.691 45.575 2.7 48.606 5.321 50.131 5.313 47.1 5.313 47.1"/>
                    <polygon class="cls-23" points="5.304 44.067 2.682 42.544 2.691 45.575 5.313 47.1 5.304 44.067 5.304 44.067"/>
                    <polygon class="cls-10" points="5.295 41.036 2.674 39.513 2.682 42.544 5.304 44.067 5.295 41.036 5.295 41.036"/>
                    <polygon class="cls-17" points="5.287 38.005 2.665 36.481 2.674 39.513 5.295 41.036 5.287 38.005 5.287 38.005"/>
                    <polygon class="cls-8" points="5.278 34.974 2.657 33.45 2.665 36.481 5.287 38.005 5.278 34.974 5.278 34.974"/>
                    <polygon class="cls-11" points="5.27 31.941 2.648 30.417 2.657 33.45 5.278 34.974 5.27 31.941 5.27 31.941"/>
                    <polygon class="cls-8" points="5.261 28.909 5.26 28.908 2.64 27.386 2.648 30.417 5.27 31.941 5.261 28.909 5.261 28.909"/>
                    <polygon class="cls-20" points="5.252 25.878 5.251 25.878 5.26 28.908 5.261 28.909 5.252 25.878 5.252 25.878"/>
                    <polygon class="cls-7" points="5.244 22.849 5.243 22.847 5.251 25.878 5.252 25.878 5.244 22.849 5.244 22.849"/>
                    <polygon class="cls-21" points="5.251 25.878 2.631 24.356 2.64 27.386 5.26 28.908 5.251 25.878 5.251 25.878"/>
                    <polygon class="cls-6" points="5.243 22.847 2.622 21.325 2.631 24.356 5.251 25.878 5.243 22.847 5.243 22.847"/>
                    <polygon class="cls-8" points="2.725 57.697 0.105 56.177 0.114 59.208 2.734 60.731 2.725 57.697 2.725 57.697"/>
                    <polygon class="cls-11" points="2.717 54.665 0.097 53.146 0.105 56.177 2.725 57.697 2.717 54.665 2.717 54.665"/>
                    <polygon class="cls-9" points="2.708 51.635 0.089 50.111 0.097 53.146 2.717 54.665 2.708 51.635 2.708 51.635"/>
                    <polygon class="cls-10" points="2.7 48.606 0.08 47.083 0.089 50.111 2.708 51.635 2.7 48.606 2.7 48.606"/>
                    <polygon class="cls-11" points="2.691 45.575 0.071 44.054 0.08 47.083 2.7 48.606 2.691 45.575 2.691 45.575"/>
                    <polygon class="cls-11" points="2.682 42.544 0.063 41.022 0.071 44.054 2.691 45.575 2.682 42.544 2.682 42.544"/>
                    <polygon class="cls-11" points="2.674 39.513 0.054 37.991 0.063 41.022 2.682 42.544 2.674 39.513 2.674 39.513"/>
                    <polygon class="cls-10" points="2.665 36.481 0.045 34.958 0.054 37.991 2.674 39.513 2.665 36.481 2.665 36.481"/>
                    <polygon class="cls-8" points="2.657 33.45 0.037 31.926 0.045 34.958 2.665 36.481 2.657 33.45 2.657 33.45"/>
                    <polygon class="cls-11" points="2.648 30.417 0.028 28.895 0.037 31.926 2.657 33.45 2.648 30.417 2.648 30.417"/>
                    <polygon class="cls-9" points="2.64 27.386 2.638 27.386 0.019 25.863 0.028 28.895 2.648 30.417 2.64 27.386 2.64 27.386"/>
                    <polygon class="cls-24" points="2.631 24.356 2.629 24.354 2.638 27.386 2.64 27.386 2.631 24.356 2.631 24.356"/>
                    <polygon class="cls-6" points="2.622 21.325 2.621 21.324 2.629 24.354 2.631 24.356 2.622 21.325 2.622 21.325"/>
                    <polygon class="cls-6" points="2.629 24.354 0.012 22.833 0.019 25.863 2.638 27.386 2.629 24.354 2.629 24.354"/>
                    <polygon class="cls-7" points="2.621 21.324 0.002 19.801 0.012 22.833 2.629 24.354 2.621 21.324 2.621 21.324"/>
                    <polygon class="cls-6" points="0.012 22.833 0.009 22.832 0.018 25.862 0.019 25.863 0.012 22.833 0.012 22.833"/>
                    <polygon class="cls-7" points="0.002 19.801 0.001 19.801 0.009 22.832 0.012 22.833 0.002 19.801 0.002 19.801"/>
                  </g>
                </g>
              </g>
              <g class="cls-4">
                <polygon class="cls-3" points="34.073 39.602 0.001 19.8 34.295 0.001 68.366 19.801 34.073 39.602"/>
                <g class="cls-26">
                  <g>
                    <polygon class="cls-7" points="36.71 38.077 34.088 36.555 31.45 38.077 34.071 39.602 36.71 38.077 36.71 38.077"/>
                    <polygon class="cls-12" points="39.349 36.555 36.727 35.031 34.088 36.555 36.71 38.077 39.349 36.555 39.349 36.555"/>
                    <polygon class="cls-6" points="41.987 35.031 39.366 33.508 36.727 35.031 39.349 36.555 41.987 35.031 41.987 35.031"/>
                    <polygon class="cls-6" points="44.624 33.509 42.003 31.985 39.366 33.508 41.987 35.031 44.624 33.509 44.624 33.509"/>
                    <polygon class="cls-12" points="47.264 31.985 44.642 30.462 42.003 31.985 44.624 33.509 47.264 31.985 47.264 31.985"/>
                    <polygon class="cls-7" points="49.901 30.462 47.279 28.939 44.642 30.462 47.264 31.985 49.901 30.462 49.901 30.462"/>
                    <polygon class="cls-12" points="52.538 28.94 49.916 27.416 47.279 28.939 49.901 30.462 52.538 28.94 52.538 28.94"/>
                    <polygon class="cls-12" points="55.177 27.416 52.555 25.895 49.916 27.416 52.538 28.94 55.177 27.416 55.177 27.416"/>
                    <polygon class="cls-12" points="57.815 25.895 55.193 24.37 52.555 25.895 55.177 27.416 57.815 25.895 57.815 25.895"/>
                    <polygon class="cls-12" points="60.452 24.37 57.831 22.847 55.193 24.37 57.815 25.895 60.452 24.37 60.452 24.37"/>
                    <polygon class="cls-6" points="63.09 22.847 60.471 21.324 57.831 22.847 60.452 24.37 63.09 22.847 63.09 22.847"/>
                    <polygon class="cls-12" points="65.73 21.324 63.108 19.801 60.471 21.324 63.09 22.847 65.73 21.324 65.73 21.324"/>
                    <polygon class="cls-7" points="68.368 19.801 65.747 18.277 63.108 19.801 65.73 21.324 68.368 19.801 68.368 19.801"/>
                    <polygon class="cls-12" points="34.088 36.555 31.468 35.031 28.828 36.555 31.45 38.077 34.088 36.555 34.088 36.555"/>
                    <polygon class="cls-12" points="36.727 35.031 34.106 33.508 31.468 35.031 34.088 36.555 36.727 35.031 36.727 35.031"/>
                    <polygon class="cls-7" points="39.366 33.508 36.744 31.984 34.106 33.508 36.727 35.031 39.366 33.508 39.366 33.508"/>
                    <polygon class="cls-12" points="42.003 31.985 39.382 30.462 36.744 31.984 39.366 33.508 42.003 31.985 42.003 31.985"/>
                    <polygon class="cls-7" points="44.642 30.462 42.021 28.938 39.382 30.462 42.003 31.985 44.642 30.462 44.642 30.462"/>
                    <polygon class="cls-12" points="47.279 28.939 44.658 27.416 42.021 28.938 44.642 30.462 47.279 28.939 47.279 28.939"/>
                    <polygon class="cls-6" points="49.916 27.416 47.295 25.895 44.658 27.416 47.279 28.939 49.916 27.416 49.916 27.416"/>
                    <polygon class="cls-12" points="52.555 25.895 49.934 24.37 47.295 25.895 49.916 27.416 52.555 25.895 52.555 25.895"/>
                    <polygon class="cls-7" points="55.193 24.37 52.571 22.847 49.934 24.37 52.555 25.895 55.193 24.37 55.193 24.37"/>
                    <polygon class="cls-6" points="57.831 22.847 55.21 21.323 52.571 22.847 55.193 24.37 57.831 22.847 57.831 22.847"/>
                    <polygon class="cls-12" points="60.471 21.324 57.847 19.8 55.21 21.323 57.831 22.847 60.471 21.324 60.471 21.324"/>
                    <polygon class="cls-7" points="63.108 19.801 60.486 18.277 57.847 19.8 60.471 21.324 63.108 19.801 63.108 19.801"/>
                    <polygon class="cls-12" points="65.747 18.277 63.125 16.754 60.486 18.277 63.108 19.801 65.747 18.277 65.747 18.277"/>
                    <polygon class="cls-12" points="31.468 35.031 28.845 33.508 26.207 35.031 28.828 36.555 31.468 35.031 31.468 35.031"/>
                    <polygon class="cls-7" points="34.106 33.508 31.485 31.984 28.845 33.508 31.468 35.031 34.106 33.508 34.106 33.508"/>
                    <polygon class="cls-12" points="36.744 31.984 34.122 30.461 31.485 31.984 34.106 33.508 36.744 31.984 36.744 31.984"/>
                    <polygon class="cls-6" points="39.382 30.462 36.76 28.938 34.122 30.461 36.744 31.984 39.382 30.462 39.382 30.462"/>
                    <polygon class="cls-12" points="42.021 28.938 39.398 27.414 36.76 28.938 39.382 30.462 42.021 28.938 42.021 28.938"/>
                    <polygon class="cls-6" points="44.658 27.416 42.037 25.894 39.398 27.414 42.021 28.938 44.658 27.416 44.658 27.416"/>
                    <polygon class="cls-12" points="47.295 25.895 44.674 24.37 42.037 25.894 44.658 27.416 47.295 25.895 47.295 25.895"/>
                    <polygon class="cls-7" points="49.934 24.37 47.311 22.847 44.674 24.37 47.295 25.895 49.934 24.37 49.934 24.37"/>
                    <polygon class="cls-12" points="52.571 22.847 49.951 21.323 47.311 22.847 49.934 24.37 52.571 22.847 52.571 22.847"/>
                    <polygon class="cls-6" points="55.21 21.323 52.589 19.799 49.951 21.323 52.571 22.847 55.21 21.323 55.21 21.323"/>
                    <polygon class="cls-12" points="57.847 19.8 55.226 18.277 52.589 19.799 55.21 21.323 57.847 19.8 57.847 19.8"/>
                    <polygon class="cls-12" points="60.486 18.277 57.865 16.754 55.226 18.277 57.847 19.8 60.486 18.277 60.486 18.277"/>
                    <polygon class="cls-20" points="63.125 16.754 60.504 15.231 57.865 16.754 60.486 18.277 63.125 16.754 63.125 16.754"/>
                    <polygon class="cls-6" points="28.845 33.508 26.226 31.985 23.587 33.509 26.207 35.031 28.845 33.508 28.845 33.508"/>
                    <polygon class="cls-12" points="31.485 31.984 28.864 30.462 26.226 31.985 28.845 33.508 31.485 31.984 31.485 31.984"/>
                    <polygon class="cls-12" points="34.122 30.461 31.503 28.938 28.864 30.462 31.485 31.984 34.122 30.461 34.122 30.461"/>
                    <polygon class="cls-6" points="36.76 28.938 34.14 27.416 31.503 28.938 34.122 30.461 36.76 28.938 36.76 28.938"/>
                    <polygon class="cls-20" points="39.398 27.414 36.779 25.894 34.14 27.416 36.76 28.938 39.398 27.414 39.398 27.414"/>
                    <polygon class="cls-12" points="42.037 25.894 39.416 24.37 36.779 25.894 39.398 27.414 42.037 25.894 42.037 25.894"/>
                    <polygon class="cls-6" points="44.674 24.37 42.053 22.847 39.416 24.37 42.037 25.894 44.674 24.37 44.674 24.37"/>
                    <polygon class="cls-12" points="47.311 22.847 44.69 21.324 42.053 22.847 44.674 24.37 47.311 22.847 47.311 22.847"/>
                    <polygon class="cls-20" points="49.951 21.323 47.331 19.8 44.69 21.324 47.311 22.847 49.951 21.323 49.951 21.323"/>
                    <polygon class="cls-7" points="52.589 19.799 49.968 18.277 47.331 19.8 49.951 21.323 52.589 19.799 52.589 19.799"/>
                    <polygon class="cls-12" points="55.226 18.277 52.607 16.755 49.968 18.277 52.589 19.799 55.226 18.277 55.226 18.277"/>
                    <polygon class="cls-6" points="57.865 16.754 55.245 15.231 52.607 16.755 55.226 18.277 57.865 16.754 57.865 16.754"/>
                    <polygon class="cls-6" points="60.504 15.231 57.883 13.707 55.245 15.231 57.865 16.754 60.504 15.231 60.504 15.231"/>
                    <polygon class="cls-20" points="26.226 31.985 23.605 30.462 20.967 31.986 23.587 33.509 26.226 31.985 26.226 31.985"/>
                    <polygon class="cls-6" points="28.864 30.462 26.244 28.939 23.605 30.462 26.226 31.985 28.864 30.462 28.864 30.462"/>
                    <polygon class="cls-12" points="31.503 28.938 28.883 27.416 26.244 28.939 28.864 30.462 31.503 28.938 31.503 28.938"/>
                    <polygon class="cls-12" points="34.14 27.416 31.52 25.894 28.883 27.416 31.503 28.938 34.14 27.416 34.14 27.416"/>
                    <polygon class="cls-20" points="36.779 25.894 34.159 24.37 31.52 25.894 34.14 27.416 36.779 25.894 36.779 25.894"/>
                    <polygon class="cls-6" points="39.416 24.37 36.796 22.847 34.159 24.37 36.779 25.894 39.416 24.37 39.416 24.37"/>
                    <polygon class="cls-12" points="42.053 22.847 39.433 21.325 36.796 22.847 39.416 24.37 42.053 22.847 42.053 22.847"/>
                    <polygon class="cls-6" points="44.69 21.324 42.071 19.801 39.433 21.325 42.053 22.847 44.69 21.324 44.69 21.324"/>
                    <polygon class="cls-12" points="47.331 19.8 44.71 18.277 42.071 19.801 44.69 21.324 47.331 19.8 47.331 19.8"/>
                    <polygon class="cls-12" points="49.968 18.277 47.35 16.755 44.71 18.277 47.331 19.8 49.968 18.277 49.968 18.277"/>
                    <polygon class="cls-6" points="52.607 16.755 49.987 15.231 47.35 16.755 49.968 18.277 52.607 16.755 52.607 16.755"/>
                    <polygon class="cls-12" points="55.245 15.231 52.625 13.708 49.987 15.231 52.607 16.755 55.245 15.231 55.245 15.231"/>
                    <polygon class="cls-12" points="57.883 13.707 55.264 12.185 52.625 13.708 55.245 15.231 57.883 13.707 57.883 13.707"/>
                    <polygon class="cls-7" points="23.605 30.462 20.984 28.939 18.346 30.462 20.967 31.986 23.605 30.462 23.605 30.462"/>
                    <polygon class="cls-12" points="26.244 28.939 23.622 27.416 20.984 28.939 23.605 30.462 26.244 28.939 26.244 28.939"/>
                    <polygon class="cls-7" points="28.883 27.416 26.261 25.894 23.622 27.416 26.244 28.939 28.883 27.416 28.883 27.416"/>
                    <polygon class="cls-6" points="31.52 25.894 28.898 24.37 26.261 25.894 28.883 27.416 31.52 25.894 31.52 25.894"/>
                    <polygon class="cls-12" points="34.159 24.37 31.538 22.847 28.898 24.37 31.52 25.894 34.159 24.37 34.159 24.37"/>
                    <polygon class="cls-12" points="36.796 22.847 34.175 21.324 31.538 22.847 34.159 24.37 36.796 22.847 36.796 22.847"/>
                    <polygon class="cls-7" points="39.433 21.325 36.811 19.801 34.175 21.324 36.796 22.847 39.433 21.325 39.433 21.325"/>
                    <polygon class="cls-12" points="42.071 19.801 39.451 18.277 36.811 19.801 39.433 21.325 42.071 19.801 42.071 19.801"/>
                    <polygon class="cls-20" points="44.71 18.277 42.089 16.755 39.451 18.277 42.071 19.801 44.71 18.277 44.71 18.277"/>
                    <polygon class="cls-6" points="47.35 16.755 44.727 15.231 42.089 16.755 44.71 18.277 47.35 16.755 47.35 16.755"/>
                    <polygon class="cls-12" points="49.987 15.231 47.364 13.707 44.727 15.231 47.35 16.755 49.987 15.231 49.987 15.231"/>
                    <polygon class="cls-7" points="52.625 13.708 50.003 12.185 47.364 13.707 49.987 15.231 52.625 13.708 52.625 13.708"/>
                    <polygon class="cls-12" points="55.264 12.185 52.642 10.662 50.003 12.185 52.625 13.708 55.264 12.185 55.264 12.185"/>
                    <polygon class="cls-12" points="20.984 28.939 18.364 27.416 15.726 28.94 18.346 30.462 20.984 28.939 20.984 28.939"/>
                    <polygon class="cls-7" points="23.622 27.416 21.003 25.894 18.364 27.416 20.984 28.939 23.622 27.416 23.622 27.416"/>
                    <polygon class="cls-12" points="26.261 25.894 23.641 24.37 21.003 25.894 23.622 27.416 26.261 25.894 26.261 25.894"/>
                    <polygon class="cls-12" points="28.898 24.37 26.279 22.847 23.641 24.37 26.261 25.894 28.898 24.37 28.898 24.37"/>
                    <polygon class="cls-6" points="31.538 22.847 28.917 21.324 26.279 22.847 28.898 24.37 31.538 22.847 31.538 22.847"/>
                    <polygon class="cls-12" points="34.175 21.324 31.555 19.801 28.917 21.324 31.538 22.847 34.175 21.324 34.175 21.324"/>
                    <polygon class="cls-6" points="36.811 19.801 34.192 18.278 31.555 19.801 34.175 21.324 36.811 19.801 36.811 19.801"/>
                    <polygon class="cls-12" points="39.451 18.277 36.831 16.756 34.192 18.278 36.811 19.801 39.451 18.277 39.451 18.277"/>
                    <polygon class="cls-12" points="42.089 16.755 39.469 15.231 36.831 16.756 39.451 18.277 42.089 16.755 42.089 16.755"/>
                    <polygon class="cls-6" points="44.727 15.231 42.107 13.708 39.469 15.231 42.089 16.755 44.727 15.231 44.727 15.231"/>
                    <polygon class="cls-6" points="47.364 13.707 44.744 12.186 42.107 13.708 44.727 15.231 47.364 13.707 47.364 13.707"/>
                    <polygon class="cls-12" points="50.003 12.185 47.384 10.662 44.744 12.186 47.364 13.707 50.003 12.185 50.003 12.185"/>
                    <polygon class="cls-12" points="52.642 10.662 50.021 9.139 47.384 10.662 50.003 12.185 52.642 10.662 52.642 10.662"/>
                    <polygon class="cls-12" points="18.364 27.416 15.743 25.894 13.104 27.416 15.726 28.94 18.364 27.416 18.364 27.416"/>
                    <polygon class="cls-12" points="21.003 25.894 18.381 24.37 15.743 25.894 18.364 27.416 21.003 25.894 21.003 25.894"/>
                    <polygon class="cls-6" points="23.641 24.37 21.019 22.847 18.381 24.37 21.003 25.894 23.641 24.37 23.641 24.37"/>
                    <polygon class="cls-20" points="26.279 22.847 23.657 21.324 21.019 22.847 23.641 24.37 26.279 22.847 26.279 22.847"/>
                    <polygon class="cls-20" points="28.917 21.324 26.295 19.8 23.657 21.324 26.279 22.847 28.917 21.324 28.917 21.324"/>
                    <polygon class="cls-20" points="31.555 19.801 28.934 18.277 26.295 19.8 28.917 21.324 31.555 19.801 31.555 19.801"/>
                    <polygon class="cls-6" points="34.192 18.278 31.57 16.756 28.934 18.277 31.555 19.801 34.192 18.278 34.192 18.278"/>
                    <polygon class="cls-12" points="36.831 16.756 34.208 15.231 31.57 16.756 34.192 18.278 36.831 16.756 36.831 16.756"/>
                    <polygon class="cls-7" points="39.469 15.231 36.848 13.707 34.208 15.231 36.831 16.756 39.469 15.231 39.469 15.231"/>
                    <polygon class="cls-12" points="42.107 13.708 39.486 12.185 36.848 13.707 39.469 15.231 42.107 13.708 42.107 13.708"/>
                    <polygon class="cls-7" points="44.744 12.186 42.124 10.662 39.486 12.185 42.107 13.708 44.744 12.186 44.744 12.186"/>
                    <polygon class="cls-12" points="47.384 10.662 44.763 9.139 42.124 10.662 44.744 12.186 47.384 10.662 47.384 10.662"/>
                    <polygon class="cls-6" points="50.021 9.139 47.399 7.614 44.763 9.139 47.384 10.662 50.021 9.139 50.021 9.139"/>
                    <polygon class="cls-12" points="15.743 25.894 13.121 24.37 10.482 25.894 13.104 27.416 15.743 25.894 15.743 25.894"/>
                    <polygon class="cls-6" points="18.381 24.37 15.76 22.847 13.121 24.37 15.743 25.894 18.381 24.37 18.381 24.37"/>
                    <polygon class="cls-20" points="21.019 22.847 18.398 21.323 15.76 22.847 18.381 24.37 21.019 22.847 21.019 22.847"/>
                    <polygon class="cls-20" points="23.657 21.324 21.036 19.8 18.398 21.323 21.019 22.847 23.657 21.324 23.657 21.324"/>
                    <polygon class="cls-12" points="26.295 19.8 23.674 18.277 21.036 19.8 23.657 21.324 26.295 19.8 26.295 19.8"/>
                    <polygon class="cls-6" points="28.934 18.277 26.312 16.755 23.674 18.277 26.295 19.8 28.934 18.277 28.934 18.277"/>
                    <polygon class="cls-12" points="31.57 16.756 28.949 15.231 26.312 16.755 28.934 18.277 31.57 16.756 31.57 16.756"/>
                    <polygon class="cls-6" points="34.208 15.231 31.588 13.707 28.949 15.231 31.57 16.756 34.208 15.231 34.208 15.231"/>
                    <polygon class="cls-12" points="36.848 13.707 34.225 12.185 31.588 13.707 34.208 15.231 36.848 13.707 36.848 13.707"/>
                    <polygon class="cls-12" points="39.486 12.185 36.864 10.662 34.225 12.185 36.848 13.707 39.486 12.185 39.486 12.185"/>
                    <polygon class="cls-6" points="42.124 10.662 39.501 9.139 36.864 10.662 39.486 12.185 42.124 10.662 42.124 10.662"/>
                    <polygon class="cls-12" points="44.763 9.139 42.141 7.614 39.501 9.139 42.124 10.662 44.763 9.139 44.763 9.139"/>
                    <polygon class="cls-7" points="47.399 7.614 44.779 6.092 42.141 7.614 44.763 9.139 47.399 7.614 47.399 7.614"/>
                    <polygon class="cls-7" points="13.121 24.37 10.501 22.847 7.863 24.371 10.482 25.894 13.121 24.37 13.121 24.37"/>
                    <polygon class="cls-12" points="15.76 22.847 13.141 21.324 10.501 22.847 13.121 24.37 15.76 22.847 15.76 22.847"/>
                    <polygon class="cls-6" points="18.398 21.323 15.778 19.8 13.141 21.324 15.76 22.847 18.398 21.323 18.398 21.323"/>
                    <polygon class="cls-12" points="21.036 19.8 18.415 18.277 15.778 19.8 18.398 21.323 21.036 19.8 21.036 19.8"/>
                    <polygon class="cls-7" points="23.674 18.277 21.054 16.755 18.415 18.277 21.036 19.8 23.674 18.277 23.674 18.277"/>
                    <polygon class="cls-12" points="26.312 16.755 23.692 15.231 21.054 16.755 23.674 18.277 26.312 16.755 26.312 16.755"/>
                    <polygon class="cls-7" points="28.949 15.231 26.329 13.709 23.692 15.231 26.312 16.755 28.949 15.231 28.949 15.231"/>
                    <polygon class="cls-12" points="31.588 13.707 28.968 12.186 26.329 13.709 28.949 15.231 31.588 13.707 31.588 13.707"/>
                    <polygon class="cls-12" points="34.225 12.185 31.604 10.662 28.968 12.186 31.588 13.707 34.225 12.185 34.225 12.185"/>
                    <polygon class="cls-20" points="36.864 10.662 34.244 9.139 31.604 10.662 34.225 12.185 36.864 10.662 36.864 10.662"/>
                    <polygon class="cls-20" points="39.501 9.139 36.881 7.616 34.244 9.139 36.864 10.662 39.501 9.139 39.501 9.139"/>
                    <polygon class="cls-7" points="42.141 7.614 39.52 6.092 36.881 7.616 39.501 9.139 42.141 7.614 42.141 7.614"/>
                    <polygon class="cls-12" points="44.779 6.092 42.159 4.569 39.52 6.092 42.141 7.614 44.779 6.092 44.779 6.092"/>
                    <polygon class="cls-12" points="10.501 22.847 7.879 21.324 5.242 22.847 7.863 24.371 10.501 22.847 10.501 22.847"/>
                    <polygon class="cls-12" points="13.141 21.324 10.517 19.8 7.879 21.324 10.501 22.847 13.141 21.324 13.141 21.324"/>
                    <polygon class="cls-12" points="15.778 19.8 13.157 18.277 10.517 19.8 13.141 21.324 15.778 19.8 15.778 19.8"/>
                    <polygon class="cls-20" points="18.415 18.277 15.794 16.755 13.157 18.277 15.778 19.8 18.415 18.277 18.415 18.277"/>
                    <polygon class="cls-12" points="21.054 16.755 18.432 15.231 15.794 16.755 18.415 18.277 21.054 16.755 21.054 16.755"/>
                    <polygon class="cls-6" points="23.692 15.231 21.069 13.707 18.432 15.231 21.054 16.755 23.692 15.231 23.692 15.231"/>
                    <polygon class="cls-12" points="26.329 13.709 23.707 12.186 21.069 13.707 23.692 15.231 26.329 13.709 26.329 13.709"/>
                    <polygon class="cls-6" points="28.968 12.186 26.346 10.662 23.707 12.186 26.329 13.709 28.968 12.186 28.968 12.186"/>
                    <polygon class="cls-7" points="31.604 10.662 28.985 9.139 26.346 10.662 28.968 12.186 31.604 10.662 31.604 10.662"/>
                    <polygon class="cls-12" points="34.244 9.139 31.622 7.614 28.985 9.139 31.604 10.662 34.244 9.139 34.244 9.139"/>
                    <polygon class="cls-12" points="36.881 7.616 34.26 6.092 31.622 7.614 34.244 9.139 36.881 7.616 36.881 7.616"/>
                    <polygon class="cls-6" points="39.52 6.092 36.898 4.569 34.26 6.092 36.881 7.616 39.52 6.092 39.52 6.092"/>
                    <polygon class="cls-12" points="42.159 4.569 39.538 3.047 36.898 4.569 39.52 6.092 42.159 4.569 42.159 4.569"/>
                    <polygon class="cls-12" points="7.879 21.324 5.258 19.8 2.619 21.324 5.242 22.847 7.879 21.324 7.879 21.324"/>
                    <polygon class="cls-6" points="10.517 19.8 7.897 18.277 5.258 19.8 7.879 21.324 10.517 19.8 10.517 19.8"/>
                    <polygon class="cls-12" points="13.157 18.277 10.536 16.754 7.897 18.277 10.517 19.8 13.157 18.277 13.157 18.277"/>
                    <polygon class="cls-7" points="15.794 16.755 13.172 15.231 10.536 16.754 13.157 18.277 15.794 16.755 15.794 16.755"/>
                    <polygon class="cls-12" points="18.432 15.231 15.811 13.707 13.172 15.231 15.794 16.755 18.432 15.231 18.432 15.231"/>
                    <polygon class="cls-6" points="21.069 13.707 18.448 12.185 15.811 13.707 18.432 15.231 21.069 13.707 21.069 13.707"/>
                    <polygon class="cls-20" points="23.707 12.186 21.086 10.662 18.448 12.185 21.069 13.707 23.707 12.186 23.707 12.186"/>
                    <polygon class="cls-12" points="26.346 10.662 23.724 9.139 21.086 10.662 23.707 12.186 26.346 10.662 26.346 10.662"/>
                    <polygon class="cls-12" points="28.985 9.139 26.363 7.614 23.724 9.139 26.346 10.662 28.985 9.139 28.985 9.139"/>
                    <polygon class="cls-6" points="31.622 7.614 29.001 6.092 26.363 7.614 28.985 9.139 31.622 7.614 31.622 7.614"/>
                    <polygon class="cls-12" points="34.26 6.092 31.639 4.569 29.001 6.092 31.622 7.614 34.26 6.092 34.26 6.092"/>
                    <polygon class="cls-12" points="36.898 4.569 34.278 3.047 31.639 4.569 34.26 6.092 36.898 4.569 36.898 4.569"/>
                    <polygon class="cls-20" points="39.538 3.047 36.916 1.523 34.278 3.047 36.898 4.569 39.538 3.047 39.538 3.047"/>
                    <polygon class="cls-12" points="5.258 19.8 2.638 18.277 0 19.801 2.619 21.324 5.258 19.8 5.258 19.8"/>
                    <polygon class="cls-6" points="7.897 18.277 5.276 16.755 2.638 18.277 5.258 19.8 7.897 18.277 7.897 18.277"/>
                    <polygon class="cls-12" points="10.536 16.754 7.915 15.231 5.276 16.755 7.897 18.277 10.536 16.754 10.536 16.754"/>
                    <polygon class="cls-12" points="13.172 15.231 10.552 13.707 7.915 15.231 10.536 16.754 13.172 15.231 13.172 15.231"/>
                    <polygon class="cls-7" points="15.811 13.707 13.191 12.185 10.552 13.707 13.172 15.231 15.811 13.707 15.811 13.707"/>
                    <polygon class="cls-12" points="18.448 12.185 15.828 10.662 13.191 12.185 15.811 13.707 18.448 12.185 18.448 12.185"/>
                    <polygon class="cls-12" points="21.086 10.662 18.466 9.141 15.828 10.662 18.448 12.185 21.086 10.662 21.086 10.662"/>
                    <polygon class="cls-7" points="23.724 9.139 21.104 7.616 18.466 9.141 21.086 10.662 23.724 9.139 23.724 9.139"/>
                    <polygon class="cls-12" points="26.363 7.614 23.743 6.092 21.104 7.616 23.724 9.139 26.363 7.614 26.363 7.614"/>
                    <polygon class="cls-12" points="29.001 6.092 26.381 4.569 23.743 6.092 26.363 7.614 29.001 6.092 29.001 6.092"/>
                    <polygon class="cls-7" points="31.639 4.569 29.018 3.047 26.381 4.569 29.001 6.092 31.639 4.569 31.639 4.569"/>
                    <polygon class="cls-12" points="34.278 3.047 31.658 1.523 29.018 3.047 31.639 4.569 34.278 3.047 34.278 3.047"/>
                    <polygon class="cls-12" points="36.916 1.523 34.296 0 31.658 1.523 34.278 3.047 36.916 1.523 36.916 1.523"/>
                  </g>
                </g>
              </g>
            </g>
            <g>
              <polygon class="cls-27" points="68.366 19.801 68.48 59.21 34.184 79.008 34.073 39.602 68.366 19.801"/>
              <polygon class="cls-28" points="34.184 79.008 0.113 59.208 0.001 19.8 34.073 39.602 34.184 79.008"/>
              <polygon class="cls-29" points="34.073 39.602 0.001 19.8 34.295 0.001 68.366 19.801 34.073 39.602"/>
            </g>
          </g>
          <polygon class="cls-30" points="34.073 39.602 0.001 19.8 34.295 0.001 68.366 19.801 34.073 39.602"/>
          <polygon class="cls-31" points="68.386 25.862 68.376 22.831 68.368 19.801 65.73 21.325 63.093 22.847 60.456 24.37 57.815 25.894 55.178 27.416 52.54 28.94 49.903 30.462 47.264 31.986 44.626 33.51 41.99 35.031 39.35 36.555 36.711 38.077 34.073 39.602 34.09 45.662 34.09 45.662 34.09 45.662 36.729 44.139 36.72 41.106 39.36 39.583 39.367 42.615 42.006 41.092 42.015 44.124 44.651 42.602 44.642 39.57 47.28 38.046 47.29 41.078 49.927 39.555 52.564 38.033 52.557 35 55.194 33.478 55.186 30.445 57.826 28.922 57.833 31.953 57.843 34.985 60.48 33.461 63.119 31.941 63.109 28.908 65.747 27.386 68.386 25.862"/>
        </g>
      </g>
    </g>
  </g>
</svg>
