<svg xmlns="http://www.w3.org/2000/svg" xmlns:xlink="http://www.w3.org/1999/xlink" viewBox="0 0 68.4785 79.00682">
  <defs>
    <style>
      .cls-1 {
        fill: #323232;
      }

      .cls-2 {
        fill: #454545;
      }

      .cls-3 {
        fill: #575757;
      }

      .cls-4 {
        isolation: isolate;
      }

      .cls-5 {
        clip-path: url(#clip-path);
      }

      .cls-6 {
        fill: #8a5d36;
      }

      .cls-7 {
        fill: #cb7f48;
      }

      .cls-8 {
        fill: #a46c3a;
      }

      .cls-9 {
        fill: #744e2e;
      }

      .cls-10 {
        fill: #a6dafd;
      }

      .cls-11 {
        fill: #ceeaff;
      }

      .cls-12 {
        fill: #bae3ff;
      }

      .cls-13 {
        fill: #dff2ff;
      }

      .cls-14 {
        fill: #fdffff;
      }

      .cls-15 {
        fill: #e79152;
      }

      .cls-16 {
        fill: #6b482b;
      }

      .cls-17 {
        clip-path: url(#clip-path-2);
      }

      .cls-18 {
        clip-path: url(#clip-path-3);
      }

      .cls-19, .cls-20 {
        opacity: 0.4;
      }

      .cls-19 {
        mix-blend-mode: multiply;
        fill: url(#linear-gradient);
      }

      .cls-20 {
        fill: #616161;
      }

      .cls-20, .cls-21 {
        mix-blend-mode: color-dodge;
      }

      .cls-21 {
        opacity: 0.7;
        fill: url(#linear-gradient-2);
      }
    </style>
    <clipPath id="clip-path">
      <polygon class="cls-1" points="68.366 19.8 68.479 59.207 34.184 79.007 34.072 39.601 68.366 19.8"/>
    </clipPath>
    <clipPath id="clip-path-2">
      <polygon class="cls-2" points="34.184 79.007 0.111 59.207 0 19.8 34.072 39.601 34.184 79.007"/>
    </clipPath>
    <clipPath id="clip-path-3">
      <polygon class="cls-3" points="34.072 39.601 0 19.8 34.295 0 68.366 19.8 34.072 39.601"/>
    </clipPath>
    <linearGradient id="linear-gradient" x1="13.7581" y1="29.57911" x2="67.69214" y2="58.07837" gradientUnits="userSpaceOnUse">
      <stop offset="0" stop-color="#fff"/>
      <stop offset="0.10549" stop-color="#dce5ea"/>
      <stop offset="0.35664" stop-color="#8faabc"/>
      <stop offset="0.58058" stop-color="#527b97"/>
      <stop offset="0.76909" stop-color="#25597c"/>
      <stop offset="0.91475" stop-color="#0a456c"/>
      <stop offset="1" stop-color="#003d66"/>
    </linearGradient>
    <linearGradient id="linear-gradient-2" x1="-20.43071" y1="-34.81399" x2="133.49613" y2="119.11285" gradientUnits="userSpaceOnUse">
      <stop offset="0" stop-color="#d9eed5"/>
      <stop offset="1"/>
    </linearGradient>
  </defs>
  <g class="cls-4">
    <g id="Layer_2" data-name="Layer 2">
      <g id="Layer_1-2" data-name="Layer 1">
        <g id="_8" data-name="8">
          <g class="cls-4">
            <g class="cls-4">
              <polygon class="cls-1" points="68.366 19.8 68.479 59.207 34.184 79.007 34.072 39.601 68.366 19.8"/>
              <g class="cls-5">
                <g>
                  <polygon class="cls-6" points="68.47 56.176 65.832 57.699 65.84 60.73 68.479 59.207 68.47 56.176 68.47 56.176"/>
                  <polygon class="cls-7" points="68.462 53.146 65.824 54.668 65.832 57.699 68.47 56.176 68.462 53.146 68.462 53.146"/>
                  <polygon class="cls-8" points="68.453 50.112 65.814 51.637 65.824 54.668 68.462 53.146 68.453 50.112 68.453 50.112"/>
                  <polygon class="cls-6" points="68.444 47.081 65.806 48.605 65.814 51.637 68.453 50.112 68.444 47.081 68.444 47.081"/>
                  <polygon class="cls-7" points="68.436 44.05 65.798 45.574 65.806 48.605 68.444 47.081 68.436 44.05 68.436 44.05"/>
                  <polygon class="cls-9" points="68.428 41.021 65.789 42.543 65.798 45.574 68.436 44.05 68.428 41.021 68.428 41.021"/>
                  <polygon class="cls-8" points="68.418 37.988 65.78 39.512 65.789 42.543 68.428 41.021 68.418 37.988 68.418 37.988"/>
                  <polygon class="cls-6" points="68.41 34.956 65.771 36.48 65.78 39.512 68.418 37.988 68.41 34.956 68.41 34.956"/>
                  <polygon class="cls-9" points="68.401 31.925 65.763 33.449 65.771 36.48 68.41 34.956 68.401 31.925 68.401 31.925"/>
                  <polygon class="cls-10" points="68.392 28.894 65.754 30.417 65.763 33.449 68.401 31.925 68.392 28.894 68.392 28.894"/>
                  <polygon class="cls-11" points="68.385 25.862 65.746 27.385 65.754 30.417 68.392 28.894 68.385 25.862 68.385 25.862"/>
                  <polygon class="cls-12" points="68.377 22.83 65.736 24.353 65.746 27.385 68.385 25.862 68.377 22.83 68.377 22.83"/>
                  <polygon class="cls-13" points="68.366 19.8 65.729 21.324 65.736 24.353 68.377 22.83 68.366 19.8 68.366 19.8"/>
                  <polygon class="cls-6" points="65.832 57.699 63.194 59.22 63.203 62.253 65.84 60.73 65.832 57.699 65.832 57.699"/>
                  <polygon class="cls-7" points="65.824 54.668 63.186 56.19 63.194 59.22 65.832 57.699 65.824 54.668 65.824 54.668"/>
                  <polygon class="cls-8" points="65.814 51.637 63.178 53.157 63.186 56.19 65.824 54.668 65.814 51.637 65.814 51.637"/>
                  <polygon class="cls-6" points="65.806 48.605 63.168 50.127 63.178 53.157 65.814 51.637 65.806 48.605 65.806 48.605"/>
                  <polygon class="cls-6" points="65.798 45.574 63.16 47.097 63.168 50.127 65.806 48.605 65.798 45.574 65.798 45.574"/>
                  <polygon class="cls-6" points="65.789 42.543 63.152 44.065 63.16 47.097 65.798 45.574 65.789 42.543 65.789 42.543"/>
                  <polygon class="cls-9" points="65.78 39.512 63.142 41.033 63.152 44.065 65.789 42.543 65.78 39.512 65.78 39.512"/>
                  <polygon class="cls-6" points="65.771 36.48 63.135 38.002 63.142 41.033 65.78 39.512 65.771 36.48 65.771 36.48"/>
                  <polygon class="cls-8" points="65.763 33.449 63.126 34.972 63.135 38.002 65.771 36.48 65.763 33.449 65.763 33.449"/>
                  <polygon class="cls-9" points="65.754 30.417 63.116 31.94 63.126 34.972 65.763 33.449 65.754 30.417 65.754 30.417"/>
                  <polygon class="cls-12" points="65.746 27.385 63.108 28.907 63.116 31.94 65.754 30.417 65.746 27.385 65.746 27.385"/>
                  <polygon class="cls-13" points="65.736 24.353 63.101 25.874 63.108 28.907 65.746 27.385 65.736 24.353 65.736 24.353"/>
                  <polygon class="cls-12" points="65.729 21.324 63.092 22.848 63.101 25.874 65.736 24.353 65.729 21.324 65.729 21.324"/>
                  <polygon class="cls-6" points="63.194 59.22 60.556 60.744 60.563 63.774 63.203 62.253 63.194 59.22 63.194 59.22"/>
                  <polygon class="cls-6" points="63.186 56.19 60.548 57.713 60.556 60.744 63.194 59.22 63.186 56.19 63.186 56.19"/>
                  <polygon class="cls-6" points="63.178 53.157 60.538 54.682 60.548 57.713 63.186 56.19 63.178 53.157 63.178 53.157"/>
                  <polygon class="cls-8" points="63.168 50.127 60.529 51.649 60.538 54.682 63.178 53.157 63.168 50.127 63.168 50.127"/>
                  <polygon class="cls-7" points="63.16 47.097 60.521 48.62 60.529 51.649 63.168 50.127 63.16 47.097 63.16 47.097"/>
                  <polygon class="cls-6" points="63.152 44.065 60.513 45.59 60.521 48.62 63.16 47.097 63.152 44.065 63.152 44.065"/>
                  <polygon class="cls-9" points="63.142 41.033 60.504 42.558 60.513 45.59 63.152 44.065 63.142 41.033 63.142 41.033"/>
                  <polygon class="cls-9" points="63.135 38.002 60.496 39.526 60.504 42.558 63.142 41.033 63.135 38.002 63.135 38.002"/>
                  <polygon class="cls-6" points="63.126 34.972 60.486 36.495 60.496 39.526 63.135 38.002 63.126 34.972 63.126 34.972"/>
                  <polygon class="cls-6" points="63.116 31.94 60.479 33.464 60.486 36.495 63.126 34.972 63.116 31.94 63.116 31.94"/>
                  <polygon class="cls-10" points="63.108 28.907 60.471 30.432 60.479 33.464 63.116 31.94 63.108 28.907 63.108 28.907"/>
                  <polygon class="cls-12" points="63.101 25.874 60.462 27.398 60.471 30.432 63.108 28.907 63.101 25.874 63.101 25.874"/>
                  <polygon class="cls-14" points="63.092 22.848 60.453 24.37 60.462 27.398 63.101 25.874 63.092 22.848 63.092 22.848"/>
                  <polygon class="cls-6" points="60.556 60.744 57.917 62.268 57.926 65.299 60.563 63.774 60.556 60.744 60.556 60.744"/>
                  <polygon class="cls-9" points="60.548 57.713 57.908 59.237 57.917 62.268 60.556 60.744 60.548 57.713 60.548 57.713"/>
                  <polygon class="cls-6" points="60.538 54.682 57.9 56.207 57.908 59.237 60.548 57.713 60.538 54.682 60.538 54.682"/>
                  <polygon class="cls-15" points="60.529 51.649 57.891 53.173 57.9 56.207 60.538 54.682 60.529 51.649 60.529 51.649"/>
                  <polygon class="cls-8" points="60.521 48.62 57.882 50.144 57.891 53.173 60.529 51.649 60.521 48.62 60.521 48.62"/>
                  <polygon class="cls-9" points="60.513 45.59 57.874 47.112 57.882 50.144 60.521 48.62 60.513 45.59 60.513 45.59"/>
                  <polygon class="cls-6" points="60.504 42.558 57.866 44.082 57.874 47.112 60.513 45.59 60.504 42.558 60.504 42.558"/>
                  <polygon class="cls-9" points="60.496 39.526 57.857 41.05 57.866 44.082 60.504 42.558 60.496 39.526 60.496 39.526"/>
                  <polygon class="cls-8" points="60.486 36.495 57.849 38.019 57.857 41.05 60.496 39.526 60.486 36.495 60.486 36.495"/>
                  <polygon class="cls-16" points="60.479 33.464 57.841 34.986 57.849 38.019 60.486 36.495 60.479 33.464 60.479 33.464"/>
                  <polygon class="cls-12" points="60.471 30.432 57.83 31.954 57.841 34.986 60.479 33.464 60.471 30.432 60.471 30.432"/>
                  <polygon class="cls-11" points="60.462 27.398 57.822 28.924 57.83 31.954 60.471 30.432 60.462 27.398 60.462 27.398"/>
                  <polygon class="cls-11" points="60.453 24.37 57.814 25.895 57.822 28.924 60.462 27.398 60.453 24.37 60.453 24.37"/>
                  <polygon class="cls-8" points="57.917 62.268 55.279 63.79 55.289 66.822 57.926 65.299 57.917 62.268 57.917 62.268"/>
                  <polygon class="cls-6" points="57.908 59.237 55.271 60.76 55.279 63.79 57.917 62.268 57.908 59.237 57.908 59.237"/>
                  <polygon class="cls-9" points="57.9 56.207 55.263 57.727 55.271 60.76 57.908 59.237 57.9 56.207 57.9 56.207"/>
                  <polygon class="cls-6" points="57.891 53.173 55.254 54.696 55.263 57.727 57.9 56.207 57.891 53.173 57.891 53.173"/>
                  <polygon class="cls-7" points="57.882 50.144 55.245 51.665 55.254 54.696 57.891 53.173 57.882 50.144 57.882 50.144"/>
                  <polygon class="cls-16" points="57.874 47.112 55.237 48.636 55.245 51.665 57.882 50.144 57.874 47.112 57.874 47.112"/>
                  <polygon class="cls-15" points="57.866 44.082 55.229 45.603 55.237 48.636 57.874 47.112 57.866 44.082 57.866 44.082"/>
                  <polygon class="cls-7" points="57.857 41.05 55.221 42.57 55.229 45.603 57.866 44.082 57.857 41.05 57.857 41.05"/>
                  <polygon class="cls-9" points="57.849 38.019 55.211 39.54 55.221 42.57 57.857 41.05 57.849 38.019 57.849 38.019"/>
                  <polygon class="cls-6" points="57.841 34.986 55.201 36.509 55.211 39.54 57.849 38.019 57.841 34.986 57.841 34.986"/>
                  <polygon class="cls-9" points="57.83 31.954 55.193 33.477 55.201 36.509 57.841 34.986 57.83 31.954 57.83 31.954"/>
                  <polygon class="cls-12" points="57.822 28.924 55.185 30.444 55.193 33.477 57.83 31.954 57.822 28.924 57.822 28.924"/>
                  <polygon class="cls-12" points="57.814 25.895 55.177 27.415 55.185 30.444 57.822 28.924 57.814 25.895 57.814 25.895"/>
                  <polygon class="cls-8" points="55.279 63.79 52.641 65.314 52.65 68.346 55.289 66.822 55.279 63.79 55.279 63.79"/>
                  <polygon class="cls-6" points="55.271 60.76 52.633 62.282 52.641 65.314 55.279 63.79 55.271 60.76 55.271 60.76"/>
                  <polygon class="cls-8" points="55.263 57.727 52.624 59.251 52.633 62.282 55.271 60.76 55.263 57.727 55.263 57.727"/>
                  <polygon class="cls-6" points="55.254 54.696 52.616 56.219 52.624 59.251 55.263 57.727 55.254 54.696 55.254 54.696"/>
                  <polygon class="cls-8" points="55.245 51.665 52.607 53.189 52.616 56.219 55.254 54.696 55.245 51.665 55.245 51.665"/>
                  <polygon class="cls-6" points="55.237 48.636 52.599 50.158 52.607 53.189 55.245 51.665 55.237 48.636 55.237 48.636"/>
                  <polygon class="cls-8" points="55.229 45.603 52.591 47.126 52.599 50.158 55.237 48.636 55.229 45.603 55.229 45.603"/>
                  <polygon class="cls-7" points="55.221 42.57 52.582 44.094 52.591 47.126 55.229 45.603 55.221 42.57 55.221 42.57"/>
                  <polygon class="cls-9" points="55.211 39.54 52.572 41.064 52.582 44.094 55.221 42.57 55.211 39.54 55.211 39.54"/>
                  <polygon class="cls-16" points="55.201 36.509 52.563 38.034 52.572 41.064 55.211 39.54 55.201 36.509 55.201 36.509"/>
                  <polygon class="cls-12" points="55.193 33.477 52.556 34.999 52.563 38.034 55.201 36.509 55.193 33.477 55.193 33.477"/>
                  <polygon class="cls-13" points="55.185 30.444 52.547 31.968 52.556 34.999 55.193 33.477 55.185 30.444 55.185 30.444"/>
                  <polygon class="cls-12" points="55.177 27.415 52.539 28.939 52.547 31.968 55.185 30.444 55.177 27.415 55.177 27.415"/>
                  <polygon class="cls-6" points="52.641 65.314 50.002 66.836 50.012 69.869 52.65 68.346 52.641 65.314 52.641 65.314"/>
                  <polygon class="cls-16" points="52.633 62.282 49.994 63.807 50.002 66.836 52.641 65.314 52.633 62.282 52.633 62.282"/>
                  <polygon class="cls-7" points="52.624 59.251 49.986 60.775 49.994 63.807 52.633 62.282 52.624 59.251 52.624 59.251"/>
                  <polygon class="cls-6" points="52.616 56.219 49.979 57.743 49.986 60.775 52.624 59.251 52.616 56.219 52.616 56.219"/>
                  <polygon class="cls-6" points="52.607 53.189 49.967 54.712 49.979 57.743 52.616 56.219 52.607 53.189 52.607 53.189"/>
                  <polygon class="cls-9" points="52.599 50.158 49.959 51.681 49.967 54.712 52.607 53.189 52.599 50.158 52.599 50.158"/>
                  <polygon class="cls-6" points="52.591 47.126 49.95 48.65 49.959 51.681 52.599 50.158 52.591 47.126 52.591 47.126"/>
                  <polygon class="cls-8" points="52.582 44.094 49.942 45.618 49.95 48.65 52.591 47.126 52.582 44.094 52.582 44.094"/>
                  <polygon class="cls-9" points="52.572 41.064 49.934 42.589 49.942 45.618 52.582 44.094 52.572 41.064 52.572 41.064"/>
                  <polygon class="cls-6" points="52.563 38.034 49.926 39.556 49.934 42.589 52.572 41.064 52.563 38.034 52.563 38.034"/>
                  <polygon class="cls-9" points="52.556 34.999 49.917 36.522 49.926 39.556 52.563 38.034 52.556 34.999 52.556 34.999"/>
                  <polygon class="cls-12" points="52.547 31.968 49.908 33.492 49.917 36.522 52.556 34.999 52.547 31.968 52.547 31.968"/>
                  <polygon class="cls-12" points="52.539 28.939 49.9 30.464 49.908 33.492 52.547 31.968 52.539 28.939 52.539 28.939"/>
                  <polygon class="cls-9" points="50.002 66.836 47.367 68.359 47.375 71.391 50.012 69.869 50.002 66.836 50.002 66.836"/>
                  <polygon class="cls-6" points="49.994 63.807 47.358 65.328 47.367 68.359 50.002 66.836 49.994 63.807 49.994 63.807"/>
                  <polygon class="cls-7" points="49.986 60.775 47.351 62.298 47.358 65.328 49.994 63.807 49.986 60.775 49.986 60.775"/>
                  <polygon class="cls-6" points="49.979 57.743 47.342 59.265 47.351 62.298 49.986 60.775 49.979 57.743 49.979 57.743"/>
                  <polygon class="cls-7" points="49.967 54.712 47.334 56.234 47.342 59.265 49.979 57.743 49.967 54.712 49.967 54.712"/>
                  <polygon class="cls-6" points="49.959 51.681 47.324 53.203 47.334 56.234 49.967 54.712 49.959 51.681 49.959 51.681"/>
                  <polygon class="cls-9" points="49.95 48.65 47.315 50.172 47.324 53.203 49.959 51.681 49.95 48.65 49.95 48.65"/>
                  <polygon class="cls-6" points="49.942 45.618 47.307 47.14 47.315 50.172 49.95 48.65 49.942 45.618 49.942 45.618"/>
                  <polygon class="cls-6" points="49.934 42.589 47.299 44.11 47.307 47.14 49.942 45.618 49.934 42.589 49.934 42.589"/>
                  <polygon class="cls-6" points="49.926 39.556 47.289 41.077 47.299 44.11 49.934 42.589 49.926 39.556 49.926 39.556"/>
                  <polygon class="cls-13" points="49.917 36.522 47.28 38.045 47.289 41.077 49.926 39.556 49.917 36.522 49.917 36.522"/>
                  <polygon class="cls-12" points="49.908 33.492 47.272 35.014 47.28 38.045 49.917 36.522 49.908 33.492 49.908 33.492"/>
                  <polygon class="cls-11" points="49.9 30.464 47.264 31.985 47.272 35.014 49.908 33.492 49.9 30.464 49.9 30.464"/>
                  <polygon class="cls-6" points="47.367 68.359 44.729 69.883 44.737 72.915 47.375 71.391 47.367 68.359 47.367 68.359"/>
                  <polygon class="cls-16" points="47.358 65.328 44.721 66.853 44.729 69.883 47.367 68.359 47.358 65.328 47.358 65.328"/>
                  <polygon class="cls-6" points="47.351 62.298 44.711 63.819 44.721 66.853 47.358 65.328 47.351 62.298 47.351 62.298"/>
                  <polygon class="cls-15" points="47.342 59.265 44.702 60.787 44.711 63.819 47.351 62.298 47.342 59.265 47.342 59.265"/>
                  <polygon class="cls-8" points="47.334 56.234 44.693 57.758 44.702 60.787 47.342 59.265 47.334 56.234 47.334 56.234"/>
                  <polygon class="cls-16" points="47.324 53.203 44.685 54.728 44.693 57.758 47.334 56.234 47.324 53.203 47.324 53.203"/>
                  <polygon class="cls-15" points="47.315 50.172 44.677 51.695 44.685 54.728 47.324 53.203 47.315 50.172 47.315 50.172"/>
                  <polygon class="cls-8" points="47.307 47.14 44.669 48.663 44.677 51.695 47.315 50.172 47.307 47.14 47.307 47.14"/>
                  <polygon class="cls-6" points="47.299 44.11 44.66 45.632 44.669 48.663 47.307 47.14 47.299 44.11 47.299 44.11"/>
                  <polygon class="cls-10" points="47.289 41.077 44.651 42.601 44.66 45.632 47.299 44.11 47.289 41.077 47.289 41.077"/>
                  <polygon class="cls-11" points="47.28 38.045 44.642 39.569 44.651 42.601 47.289 41.077 47.28 38.045 47.28 38.045"/>
                  <polygon class="cls-10" points="47.272 35.014 44.634 36.537 44.642 39.569 47.28 38.045 47.272 35.014 47.272 35.014"/>
                  <polygon class="cls-13" points="47.264 31.985 44.626 33.508 44.634 36.537 47.272 35.014 47.264 31.985 47.264 31.985"/>
                  <polygon class="cls-7" points="44.729 69.883 42.09 71.405 42.099 74.438 44.737 72.915 44.729 69.883 44.729 69.883"/>
                  <polygon class="cls-6" points="44.721 66.853 42.08 68.376 42.09 71.405 44.729 69.883 44.721 66.853 44.721 66.853"/>
                  <polygon class="cls-9" points="44.711 63.819 42.072 65.343 42.08 68.376 44.721 66.853 44.711 63.819 44.711 63.819"/>
                  <polygon class="cls-6" points="44.702 60.787 42.063 62.312 42.072 65.343 44.711 63.819 44.702 60.787 44.702 60.787"/>
                  <polygon class="cls-6" points="44.693 57.758 42.056 59.28 42.063 62.312 44.702 60.787 44.693 57.758 44.693 57.758"/>
                  <polygon class="cls-16" points="44.685 54.728 42.047 56.251 42.056 59.28 44.693 57.758 44.685 54.728 44.685 54.728"/>
                  <polygon class="cls-7" points="44.677 51.695 42.037 53.218 42.047 56.251 44.685 54.728 44.677 51.695 44.677 51.695"/>
                  <polygon class="cls-7" points="44.669 48.663 42.029 50.187 42.037 53.218 44.677 51.695 44.669 48.663 44.669 48.663"/>
                  <polygon class="cls-6" points="44.66 45.632 42.021 47.155 42.029 50.187 44.669 48.663 44.66 45.632 44.66 45.632"/>
                  <polygon class="cls-14" points="44.651 42.601 42.013 44.124 42.021 47.155 44.66 45.632 44.651 42.601 44.651 42.601"/>
                  <polygon class="cls-14" points="44.642 39.569 42.004 41.094 42.013 44.124 44.651 42.601 44.642 39.569 44.642 39.569"/>
                  <polygon class="cls-13" points="44.634 36.537 41.996 38.06 42.004 41.094 44.642 39.569 44.634 36.537 44.634 36.537"/>
                  <polygon class="cls-12" points="44.626 33.508 41.985 35.031 41.996 38.06 44.634 36.537 44.626 33.508 44.626 33.508"/>
                  <polygon class="cls-8" points="42.09 71.405 39.451 72.929 39.459 75.961 42.099 74.438 42.09 71.405 42.09 71.405"/>
                  <polygon class="cls-6" points="42.08 68.376 39.443 69.897 39.451 72.929 42.09 71.405 42.08 68.376 42.08 68.376"/>
                  <polygon class="cls-6" points="42.072 65.343 39.434 66.867 39.443 69.897 42.08 68.376 42.072 65.343 42.072 65.343"/>
                  <polygon class="cls-8" points="42.063 62.312 39.425 63.835 39.434 66.867 42.072 65.343 42.063 62.312 42.063 62.312"/>
                  <polygon class="cls-9" points="42.056 59.28 39.417 60.805 39.425 63.835 42.063 62.312 42.056 59.28 42.056 59.28"/>
                  <polygon class="cls-6" points="42.047 56.251 39.408 57.774 39.417 60.805 42.056 59.28 42.047 56.251 42.047 56.251"/>
                  <polygon class="cls-7" points="42.037 53.218 39.399 54.741 39.408 57.774 42.047 56.251 42.037 53.218 42.037 53.218"/>
                  <polygon class="cls-8" points="42.029 50.187 39.392 51.711 39.399 54.741 42.037 53.218 42.029 50.187 42.029 50.187"/>
                  <polygon class="cls-16" points="42.021 47.155 39.383 48.68 39.392 51.711 42.029 50.187 42.021 47.155 42.021 47.155"/>
                  <polygon class="cls-16" points="42.013 44.124 39.375 45.648 39.383 48.68 42.021 47.155 42.013 44.124 42.013 44.124"/>
                  <polygon class="cls-12" points="42.004 41.094 39.365 42.616 39.375 45.648 42.013 44.124 42.004 41.094 42.004 41.094"/>
                  <polygon class="cls-11" points="41.996 38.06 39.355 39.583 39.365 42.616 42.004 41.094 41.996 38.06 41.996 38.06"/>
                  <polygon class="cls-12" points="41.985 35.031 39.348 36.555 39.355 39.583 41.996 38.06 41.985 35.031 41.985 35.031"/>
                  <polygon class="cls-6" points="39.451 72.929 36.814 74.451 36.822 77.485 39.459 75.961 39.451 72.929 39.451 72.929"/>
                  <polygon class="cls-9" points="39.443 69.897 36.805 71.422 36.814 74.451 39.451 72.929 39.443 69.897 39.443 69.897"/>
                  <polygon class="cls-6" points="39.434 66.867 36.796 68.39 36.805 71.422 39.443 69.897 39.434 66.867 39.434 66.867"/>
                  <polygon class="cls-7" points="39.425 63.835 36.788 65.357 36.796 68.39 39.434 66.867 39.425 63.835 39.425 63.835"/>
                  <polygon class="cls-6" points="39.417 60.805 36.779 62.327 36.788 65.357 39.425 63.835 39.417 60.805 39.417 60.805"/>
                  <polygon class="cls-6" points="39.408 57.774 36.771 59.297 36.779 62.327 39.417 60.805 39.408 57.774 39.408 57.774"/>
                  <polygon class="cls-6" points="39.399 54.741 36.764 56.265 36.771 59.297 39.408 57.774 39.399 54.741 39.399 54.741"/>
                  <polygon class="cls-8" points="39.392 51.711 36.754 53.232 36.764 56.265 39.399 54.741 39.392 51.711 39.392 51.711"/>
                  <polygon class="cls-6" points="39.383 48.68 36.745 50.202 36.754 53.232 39.392 51.711 39.383 48.68 39.383 48.68"/>
                  <polygon class="cls-6" points="39.375 45.648 36.736 47.171 36.745 50.202 39.383 48.68 39.375 45.648 39.375 45.648"/>
                  <polygon class="cls-12" points="39.365 42.616 36.727 44.139 36.736 47.171 39.375 45.648 39.365 42.616 39.365 42.616"/>
                  <polygon class="cls-12" points="39.355 39.583 36.719 41.106 36.727 44.139 39.365 42.616 39.355 39.583 39.355 39.583"/>
                  <polygon class="cls-14" points="39.348 36.555 36.711 38.077 36.719 41.106 39.355 39.583 39.348 36.555 39.348 36.555"/>
                  <polygon class="cls-6" points="36.814 74.451 34.175 75.976 34.184 79.007 36.822 77.485 36.814 74.451 36.814 74.451"/>
                  <polygon class="cls-6" points="36.805 71.422 34.167 72.945 34.175 75.976 36.814 74.451 36.805 71.422 36.805 71.422"/>
                  <polygon class="cls-8" points="36.796 68.39 34.158 69.913 34.167 72.945 36.805 71.422 36.796 68.39 36.796 68.39"/>
                  <polygon class="cls-7" points="36.788 65.357 34.149 66.882 34.158 69.913 36.796 68.39 36.788 65.357 36.788 65.357"/>
                  <polygon class="cls-8" points="36.779 62.327 34.142 63.85 34.149 66.882 36.788 65.357 36.779 62.327 36.779 62.327"/>
                  <polygon class="cls-7" points="36.771 59.297 34.134 60.82 34.142 63.85 36.779 62.327 36.771 59.297 36.771 59.297"/>
                  <polygon class="cls-9" points="36.764 56.265 34.123 57.788 34.134 60.82 36.771 59.297 36.764 56.265 36.764 56.265"/>
                  <polygon class="cls-6" points="36.754 53.232 34.114 54.757 34.123 57.788 36.764 56.265 36.754 53.232 36.754 53.232"/>
                  <polygon class="cls-9" points="36.745 50.202 34.106 51.726 34.114 54.757 36.754 53.232 36.745 50.202 36.745 50.202"/>
                  <polygon class="cls-6" points="36.736 47.171 34.098 48.693 34.106 51.726 36.745 50.202 36.736 47.171 36.736 47.171"/>
                  <polygon class="cls-9" points="36.727 44.139 34.09 45.662 34.098 48.693 36.736 47.171 36.727 44.139 36.727 44.139"/>
                  <polygon class="cls-12" points="36.719 41.106 34.08 42.63 34.09 45.662 36.727 44.139 36.719 41.106 36.719 41.106"/>
                  <polygon class="cls-12" points="36.711 38.077 34.071 39.601 34.08 42.63 36.719 41.106 36.711 38.077 36.711 38.077"/>
                </g>
              </g>
            </g>
            <g class="cls-4">
              <polygon class="cls-2" points="34.184 79.007 0.111 59.207 0 19.8 34.072 39.601 34.184 79.007"/>
              <g class="cls-17">
                <g>
                  <polygon class="cls-6" points="34.175 75.976 31.553 74.451 31.563 77.483 34.184 79.007 34.175 75.976 34.175 75.976"/>
                  <polygon class="cls-7" points="34.167 72.945 31.545 71.422 31.553 74.451 34.175 75.976 34.167 72.945 34.167 72.945"/>
                  <polygon class="cls-8" points="34.158 69.913 31.537 68.39 31.545 71.422 34.167 72.945 34.158 69.913 34.158 69.913"/>
                  <polygon class="cls-6" points="34.149 66.882 31.529 65.357 31.537 68.39 34.158 69.913 34.149 66.882 34.149 66.882"/>
                  <polygon class="cls-7" points="34.142 63.85 31.52 62.327 31.529 65.357 34.149 66.882 34.142 63.85 34.142 63.85"/>
                  <polygon class="cls-9" points="34.134 60.82 31.512 59.297 31.52 62.327 34.142 63.85 34.134 60.82 34.134 60.82"/>
                  <polygon class="cls-8" points="34.125 57.788 31.501 56.265 31.512 59.297 34.134 60.82 34.125 57.788 34.125 57.788"/>
                  <polygon class="cls-6" points="34.114 54.757 31.493 53.232 31.501 56.265 34.125 57.788 34.114 54.757 34.114 54.757"/>
                  <polygon class="cls-9" points="34.106 51.726 31.485 50.202 31.493 53.232 34.114 54.757 34.106 51.726 34.106 51.726"/>
                  <polygon class="cls-10" points="34.098 48.693 31.477 47.171 31.485 50.202 34.106 51.726 34.098 48.693 34.098 48.693"/>
                  <polygon class="cls-11" points="34.09 45.662 31.468 44.139 31.477 47.171 34.098 48.693 34.09 45.662 34.09 45.662"/>
                  <polygon class="cls-12" points="34.08 42.63 31.459 41.106 31.468 44.139 34.09 45.662 34.08 42.63 34.08 42.63"/>
                  <polygon class="cls-13" points="34.072 39.601 31.451 38.077 31.459 41.106 34.08 42.63 34.072 39.601 34.072 39.601"/>
                  <polygon class="cls-6" points="31.553 74.451 28.934 72.929 28.941 75.961 31.563 77.483 31.553 74.451 31.553 74.451"/>
                  <polygon class="cls-7" points="31.545 71.422 28.926 69.897 28.934 72.929 31.553 74.451 31.545 71.422 31.545 71.422"/>
                  <polygon class="cls-8" points="31.537 68.39 28.916 66.867 28.926 69.897 31.545 71.422 31.537 68.39 31.537 68.39"/>
                  <polygon class="cls-6" points="31.529 65.357 28.908 63.835 28.916 66.867 31.537 68.39 31.529 65.357 31.529 65.357"/>
                  <polygon class="cls-6" points="31.52 62.327 28.899 60.805 28.908 63.835 31.529 65.357 31.52 62.327 31.52 62.327"/>
                  <polygon class="cls-6" points="31.512 59.297 28.892 57.774 28.899 60.805 31.52 62.327 31.512 59.297 31.512 59.297"/>
                  <polygon class="cls-9" points="31.501 56.265 28.883 54.741 28.892 57.774 31.512 59.297 31.501 56.265 31.501 56.265"/>
                  <polygon class="cls-6" points="31.493 53.232 28.875 51.711 28.883 54.741 31.501 56.265 31.493 53.232 31.493 53.232"/>
                  <polygon class="cls-8" points="31.485 50.202 28.864 48.68 28.875 51.711 31.493 53.232 31.485 50.202 31.485 50.202"/>
                  <polygon class="cls-9" points="31.477 47.171 28.856 45.648 28.864 48.68 31.485 50.202 31.477 47.171 31.477 47.171"/>
                  <polygon class="cls-12" points="31.468 44.139 28.848 42.616 28.856 45.648 31.477 47.171 31.468 44.139 31.468 44.139"/>
                  <polygon class="cls-13" points="31.459 41.106 28.84 39.583 28.848 42.616 31.468 44.139 31.459 41.106 31.459 41.106"/>
                  <polygon class="cls-12" points="31.451 38.077 28.831 36.555 28.84 39.583 31.459 41.106 31.451 38.077 31.451 38.077"/>
                  <polygon class="cls-6" points="28.934 72.929 26.313 71.405 26.322 74.438 28.941 75.961 28.934 72.929 28.934 72.929"/>
                  <polygon class="cls-6" points="28.926 69.897 26.304 68.376 26.313 71.405 28.934 72.929 28.926 69.897 28.926 69.897"/>
                  <polygon class="cls-6" points="28.916 66.867 26.295 65.343 26.304 68.376 28.926 69.897 28.916 66.867 28.916 66.867"/>
                  <polygon class="cls-8" points="28.908 63.835 26.287 62.312 26.295 65.343 28.916 66.867 28.908 63.835 28.908 63.835"/>
                  <polygon class="cls-7" points="28.899 60.805 26.279 59.28 26.287 62.312 28.908 63.835 28.899 60.805 28.899 60.805"/>
                  <polygon class="cls-6" points="28.892 57.774 26.267 56.251 26.279 59.28 28.899 60.805 28.892 57.774 28.892 57.774"/>
                  <polygon class="cls-9" points="28.883 54.741 26.262 53.218 26.267 56.251 28.892 57.774 28.883 54.741 28.883 54.741"/>
                  <polygon class="cls-9" points="28.875 51.711 26.252 50.187 26.262 53.218 28.883 54.741 28.875 51.711 28.875 51.711"/>
                  <polygon class="cls-6" points="28.864 48.68 26.243 47.155 26.252 50.187 28.875 51.711 28.864 48.68 28.864 48.68"/>
                  <polygon class="cls-6" points="28.856 45.648 26.234 44.124 26.243 47.155 28.864 48.68 28.856 45.648 28.856 45.648"/>
                  <polygon class="cls-10" points="28.848 42.616 26.226 41.093 26.234 44.124 28.856 45.648 28.848 42.616 28.848 42.616"/>
                  <polygon class="cls-12" points="28.84 39.583 26.218 38.06 26.226 41.093 28.848 42.616 28.84 39.583 28.84 39.583"/>
                  <polygon class="cls-14" points="28.831 36.555 26.209 35.03 26.218 38.06 28.84 39.583 28.831 36.555 28.831 36.555"/>
                  <polygon class="cls-6" points="26.313 71.405 23.69 69.883 23.699 72.915 26.322 74.438 26.313 71.405 26.313 71.405"/>
                  <polygon class="cls-9" points="26.304 68.376 23.683 66.853 23.69 69.883 26.313 71.405 26.304 68.376 26.304 68.376"/>
                  <polygon class="cls-6" points="26.295 65.343 23.674 63.819 23.683 66.853 26.304 68.376 26.295 65.343 26.295 65.343"/>
                  <polygon class="cls-15" points="26.287 62.312 23.665 60.787 23.674 63.819 26.295 65.343 26.287 62.312 26.287 62.312"/>
                  <polygon class="cls-8" points="26.279 59.28 23.656 57.758 23.665 60.787 26.287 62.312 26.279 59.28 26.279 59.28"/>
                  <polygon class="cls-9" points="26.267 56.251 23.649 54.728 23.656 57.758 26.279 59.28 26.267 56.251 26.267 56.251"/>
                  <polygon class="cls-6" points="26.262 53.218 23.639 51.695 23.649 54.728 26.267 56.251 26.262 53.218 26.262 53.218"/>
                  <polygon class="cls-9" points="26.252 50.187 23.63 48.663 23.639 51.695 26.262 53.218 26.252 50.187 26.252 50.187"/>
                  <polygon class="cls-8" points="26.243 47.155 23.622 45.632 23.63 48.663 26.252 50.187 26.243 47.155 26.243 47.155"/>
                  <polygon class="cls-16" points="26.234 44.124 23.613 42.601 23.622 45.632 26.243 47.155 26.234 44.124 26.234 44.124"/>
                  <polygon class="cls-12" points="26.226 41.093 23.605 39.569 23.613 42.601 26.234 44.124 26.226 41.093 26.226 41.093"/>
                  <polygon class="cls-11" points="26.218 38.06 23.596 36.537 23.605 39.569 26.226 41.093 26.218 38.06 26.218 38.06"/>
                  <polygon class="cls-11" points="26.209 35.03 23.588 33.508 23.596 36.537 26.218 38.06 26.209 35.03 26.209 35.03"/>
                  <polygon class="cls-8" points="23.69 69.883 21.07 68.359 21.079 71.391 23.699 72.915 23.69 69.883 23.69 69.883"/>
                  <polygon class="cls-6" points="23.683 66.853 21.061 65.328 21.07 68.359 23.69 69.883 23.683 66.853 23.683 66.853"/>
                  <polygon class="cls-9" points="23.674 63.819 21.054 62.298 21.061 65.328 23.683 66.853 23.674 63.819 23.674 63.819"/>
                  <polygon class="cls-6" points="23.665 60.787 21.046 59.267 21.054 62.298 23.674 63.819 23.665 60.787 23.665 60.787"/>
                  <polygon class="cls-7" points="23.656 57.758 21.036 56.234 21.046 59.267 23.665 60.787 23.656 57.758 23.656 57.758"/>
                  <polygon class="cls-16" points="23.649 54.728 21.028 53.204 21.036 56.234 23.656 57.758 23.649 54.728 23.649 54.728"/>
                  <polygon class="cls-15" points="23.639 51.695 21.02 50.172 21.028 53.204 23.649 54.728 23.639 51.695 23.639 51.695"/>
                  <polygon class="cls-7" points="23.63 48.663 21.01 47.142 21.02 50.172 23.639 51.695 23.63 48.663 23.63 48.663"/>
                  <polygon class="cls-9" points="23.622 45.632 21.002 44.11 21.01 47.142 23.63 48.663 23.622 45.632 23.622 45.632"/>
                  <polygon class="cls-6" points="23.613 42.601 20.994 41.078 21.002 44.11 23.622 45.632 23.613 42.601 23.613 42.601"/>
                  <polygon class="cls-9" points="23.605 39.569 20.984 38.046 20.994 41.078 23.613 42.601 23.605 39.569 23.605 39.569"/>
                  <polygon class="cls-12" points="23.596 36.537 20.976 35.014 20.984 38.046 23.605 39.569 23.596 36.537 23.596 36.537"/>
                  <polygon class="cls-12" points="23.588 33.508 20.969 31.985 20.976 35.014 23.596 36.537 23.588 33.508 23.588 33.508"/>
                  <polygon class="cls-8" points="21.07 68.359 18.449 66.835 18.457 69.868 21.079 71.391 21.07 68.359 21.07 68.359"/>
                  <polygon class="cls-6" points="21.061 65.328 18.441 63.806 18.449 66.835 21.07 68.359 21.061 65.328 21.061 65.328"/>
                  <polygon class="cls-8" points="21.054 62.298 18.433 60.773 18.441 63.806 21.061 65.328 21.054 62.298 21.054 62.298"/>
                  <polygon class="cls-6" points="21.046 59.267 18.424 57.742 18.433 60.773 21.054 62.298 21.046 59.267 21.046 59.267"/>
                  <polygon class="cls-8" points="21.036 56.234 18.416 54.71 18.424 57.742 21.046 59.267 21.036 56.234 21.036 56.234"/>
                  <polygon class="cls-6" points="21.028 53.204 18.405 51.68 18.416 54.71 21.036 56.234 21.028 53.204 21.028 53.204"/>
                  <polygon class="cls-8" points="21.02 50.172 18.397 48.648 18.405 51.68 21.028 53.204 21.02 50.172 21.02 50.172"/>
                  <polygon class="cls-7" points="21.01 47.142 18.389 45.617 18.397 48.648 21.02 50.172 21.01 47.142 21.01 47.142"/>
                  <polygon class="cls-9" points="21.002 44.11 18.38 42.586 18.389 45.617 21.01 47.142 21.002 44.11 21.002 44.11"/>
                  <polygon class="cls-16" points="20.994 41.078 18.372 39.554 18.38 42.586 21.002 44.11 20.994 41.078 20.994 41.078"/>
                  <polygon class="cls-12" points="20.984 38.046 18.363 36.522 18.372 39.554 20.994 41.078 20.984 38.046 20.984 38.046"/>
                  <polygon class="cls-13" points="20.976 35.014 18.355 33.49 18.363 36.522 20.984 38.046 20.976 35.014 20.976 35.014"/>
                  <polygon class="cls-12" points="20.969 31.985 18.346 30.463 18.355 33.49 20.976 35.014 20.969 31.985 20.969 31.985"/>
                  <polygon class="cls-6" points="18.449 66.835 15.828 65.314 15.836 68.346 18.457 69.868 18.449 66.835 18.449 66.835"/>
                  <polygon class="cls-16" points="18.441 63.806 15.819 62.282 15.828 65.314 18.449 66.835 18.441 63.806 18.441 63.806"/>
                  <polygon class="cls-7" points="18.433 60.773 15.811 59.25 15.819 62.282 18.441 63.806 18.433 60.773 18.433 60.773"/>
                  <polygon class="cls-6" points="18.424 57.742 15.803 56.218 15.811 59.25 18.433 60.773 18.424 57.742 18.424 57.742"/>
                  <polygon class="cls-6" points="18.416 54.71 15.794 53.189 15.803 56.218 18.424 57.742 18.416 54.71 18.416 54.71"/>
                  <polygon class="cls-9" points="18.405 51.68 15.783 50.158 15.794 53.189 18.416 54.71 18.405 51.68 18.405 51.68"/>
                  <polygon class="cls-6" points="18.397 48.648 15.775 47.125 15.783 50.158 18.405 51.68 18.397 48.648 18.397 48.648"/>
                  <polygon class="cls-8" points="18.389 45.617 15.767 44.093 15.775 47.125 18.397 48.648 18.389 45.617 18.389 45.617"/>
                  <polygon class="cls-9" points="18.38 42.586 15.76 41.063 15.767 44.093 18.389 45.617 18.38 42.586 18.38 42.586"/>
                  <polygon class="cls-6" points="18.372 39.554 15.75 38.03 15.76 41.063 18.38 42.586 18.372 39.554 18.372 39.554"/>
                  <polygon class="cls-9" points="18.363 36.522 15.742 34.999 15.75 38.03 18.372 39.554 18.363 36.522 18.363 36.522"/>
                  <polygon class="cls-12" points="18.355 33.49 15.733 31.967 15.742 34.999 18.363 36.522 18.355 33.49 18.355 33.49"/>
                  <polygon class="cls-12" points="18.346 30.463 15.725 28.939 15.733 31.967 18.355 33.49 18.346 30.463 18.346 30.463"/>
                  <polygon class="cls-9" points="15.828 65.314 13.208 63.791 13.218 66.823 15.836 68.346 15.828 65.314 15.828 65.314"/>
                  <polygon class="cls-6" points="15.819 62.282 13.2 60.762 13.208 63.791 15.828 65.314 15.819 62.282 15.819 62.282"/>
                  <polygon class="cls-7" points="15.811 59.25 13.192 57.728 13.2 60.762 15.819 62.282 15.811 59.25 15.811 59.25"/>
                  <polygon class="cls-6" points="15.803 56.218 13.184 54.696 13.192 57.728 15.811 59.25 15.803 56.218 15.803 56.218"/>
                  <polygon class="cls-7" points="15.794 53.189 13.175 51.666 13.184 54.696 15.803 56.218 15.794 53.189 15.794 53.189"/>
                  <polygon class="cls-6" points="15.783 50.158 13.166 48.637 13.175 51.666 15.794 53.189 15.783 50.158 15.783 50.158"/>
                  <polygon class="cls-9" points="15.775 47.125 13.159 45.605 13.166 48.637 15.783 50.158 15.775 47.125 15.775 47.125"/>
                  <polygon class="cls-6" points="15.767 44.093 13.148 42.57 13.159 45.605 15.775 47.125 15.767 44.093 15.767 44.093"/>
                  <polygon class="cls-6" points="15.76 41.063 13.14 39.542 13.148 42.57 15.767 44.093 15.76 41.063 15.76 41.063"/>
                  <polygon class="cls-6" points="15.75 38.03 13.132 36.509 13.14 39.542 15.76 41.063 15.75 38.03 15.75 38.03"/>
                  <polygon class="cls-13" points="15.742 34.999 13.123 33.479 13.132 36.509 15.75 38.03 15.742 34.999 15.742 34.999"/>
                  <polygon class="cls-12" points="15.733 31.967 13.115 30.444 13.123 33.479 15.742 34.999 15.733 31.967 15.733 31.967"/>
                  <polygon class="cls-11" points="15.725 28.939 13.105 27.417 13.115 30.444 15.733 31.967 15.725 28.939 15.725 28.939"/>
                  <polygon class="cls-6" points="13.208 63.791 10.588 62.267 10.596 65.299 13.218 66.823 13.208 63.791 13.208 63.791"/>
                  <polygon class="cls-16" points="13.2 60.762 10.578 59.237 10.588 62.267 13.208 63.791 13.2 60.762 13.2 60.762"/>
                  <polygon class="cls-6" points="13.192 57.728 10.57 56.205 10.578 59.237 13.2 60.762 13.192 57.728 13.192 57.728"/>
                  <polygon class="cls-15" points="13.184 54.696 10.563 53.173 10.57 56.205 13.192 57.728 13.184 54.696 13.184 54.696"/>
                  <polygon class="cls-8" points="13.175 51.666 10.553 50.142 10.563 53.173 13.184 54.696 13.175 51.666 13.175 51.666"/>
                  <polygon class="cls-16" points="13.166 48.637 10.545 47.112 10.553 50.142 13.175 51.666 13.166 48.637 13.166 48.637"/>
                  <polygon class="cls-15" points="13.159 45.605 10.536 44.082 10.545 47.112 13.166 48.637 13.159 45.605 13.159 45.605"/>
                  <polygon class="cls-8" points="13.148 42.57 10.528 41.05 10.536 44.082 13.159 45.605 13.148 42.57 13.148 42.57"/>
                  <polygon class="cls-6" points="13.14 39.542 10.519 38.019 10.528 41.05 13.148 42.57 13.14 39.542 13.14 39.542"/>
                  <polygon class="cls-10" points="13.132 36.509 10.511 34.986 10.519 38.019 13.14 39.542 13.132 36.509 13.132 36.509"/>
                  <polygon class="cls-11" points="13.123 33.479 10.502 31.954 10.511 34.986 13.132 36.509 13.123 33.479 13.123 33.479"/>
                  <polygon class="cls-10" points="13.115 30.444 10.492 28.924 10.502 31.954 13.123 33.479 13.115 30.444 13.115 30.444"/>
                  <polygon class="cls-13" points="13.105 27.417 10.485 25.895 10.492 28.924 13.115 30.444 13.105 27.417 13.105 27.417"/>
                  <polygon class="cls-7" points="10.588 62.267 7.966 60.744 7.974 63.774 10.596 65.299 10.588 62.267 10.588 62.267"/>
                  <polygon class="cls-6" points="10.578 59.237 7.958 57.713 7.966 60.744 10.588 62.267 10.578 59.237 10.578 59.237"/>
                  <polygon class="cls-9" points="10.57 56.205 7.949 54.682 7.958 57.713 10.578 59.237 10.57 56.205 10.57 56.205"/>
                  <polygon class="cls-6" points="10.563 53.173 7.939 51.649 7.949 54.682 10.57 56.205 10.563 53.173 10.563 53.173"/>
                  <polygon class="cls-6" points="10.553 50.142 7.933 48.62 7.939 51.649 10.563 53.173 10.553 50.142 10.553 50.142"/>
                  <polygon class="cls-16" points="10.545 47.112 7.923 45.589 7.933 48.62 10.553 50.142 10.545 47.112 10.545 47.112"/>
                  <polygon class="cls-7" points="10.536 44.082 7.915 42.558 7.923 45.589 10.545 47.112 10.536 44.082 10.536 44.082"/>
                  <polygon class="cls-7" points="10.528 41.05 7.906 39.525 7.915 42.558 10.536 44.082 10.528 41.05 10.528 41.05"/>
                  <polygon class="cls-6" points="10.519 38.019 7.896 36.495 7.906 39.525 10.528 41.05 10.519 38.019 10.519 38.019"/>
                  <polygon class="cls-14" points="10.511 34.986 7.889 33.464 7.896 36.495 10.519 38.019 10.511 34.986 10.511 34.986"/>
                  <polygon class="cls-14" points="10.502 31.954 7.88 30.43 7.889 33.464 10.511 34.986 10.502 31.954 10.502 31.954"/>
                  <polygon class="cls-13" points="10.492 28.924 7.872 27.398 7.88 30.43 10.502 31.954 10.492 28.924 10.492 28.924"/>
                  <polygon class="cls-12" points="10.485 25.895 7.862 24.37 7.872 27.398 10.492 28.924 10.485 25.895 10.485 25.895"/>
                  <polygon class="cls-8" points="7.966 60.744 5.345 59.22 5.354 62.253 7.974 63.774 7.966 60.744 7.966 60.744"/>
                  <polygon class="cls-6" points="7.958 57.713 5.336 56.19 5.345 59.22 7.966 60.744 7.958 57.713 7.958 57.713"/>
                  <polygon class="cls-6" points="7.949 54.682 5.327 53.157 5.336 56.19 7.958 57.713 7.949 54.682 7.949 54.682"/>
                  <polygon class="cls-8" points="7.939 51.649 5.319 50.127 5.327 53.157 7.949 54.682 7.939 51.649 7.939 51.649"/>
                  <polygon class="cls-9" points="7.933 48.62 5.31 47.097 5.319 50.127 7.939 51.649 7.933 48.62 7.933 48.62"/>
                  <polygon class="cls-6" points="7.923 45.589 5.303 44.065 5.31 47.097 7.933 48.62 7.923 45.589 7.923 45.589"/>
                  <polygon class="cls-7" points="7.915 42.558 5.293 41.033 5.303 44.065 7.923 45.589 7.915 42.558 7.915 42.558"/>
                  <polygon class="cls-8" points="7.906 39.525 5.284 38.002 5.293 41.033 7.915 42.558 7.906 39.525 7.906 39.525"/>
                  <polygon class="cls-16" points="7.896 36.495 5.276 34.972 5.284 38.002 7.906 39.525 7.896 36.495 7.896 36.495"/>
                  <polygon class="cls-16" points="7.889 33.464 5.267 31.94 5.276 34.972 7.896 36.495 7.889 33.464 7.889 33.464"/>
                  <polygon class="cls-12" points="7.88 30.43 5.259 28.907 5.267 31.94 7.889 33.464 7.88 30.43 7.88 30.43"/>
                  <polygon class="cls-11" points="7.872 27.398 5.25 25.874 5.259 28.907 7.88 30.43 7.872 27.398 7.872 27.398"/>
                  <polygon class="cls-12" points="7.862 24.37 5.241 22.846 5.25 25.874 7.872 27.398 7.862 24.37 7.862 24.37"/>
                  <polygon class="cls-6" points="5.345 59.22 2.725 57.699 2.732 60.73 5.354 62.253 5.345 59.22 5.345 59.22"/>
                  <polygon class="cls-9" points="5.336 56.19 2.716 54.668 2.725 57.699 5.345 59.22 5.336 56.19 5.336 56.19"/>
                  <polygon class="cls-6" points="5.327 53.157 2.707 51.637 2.716 54.668 5.336 56.19 5.327 53.157 5.327 53.157"/>
                  <polygon class="cls-7" points="5.319 50.127 2.699 48.605 2.707 51.637 5.327 53.157 5.319 50.127 5.319 50.127"/>
                  <polygon class="cls-6" points="5.31 47.097 2.689 45.574 2.699 48.605 5.319 50.127 5.31 47.097 5.31 47.097"/>
                  <polygon class="cls-6" points="5.303 44.065 2.682 42.543 2.689 45.574 5.31 47.097 5.303 44.065 5.303 44.065"/>
                  <polygon class="cls-6" points="5.293 41.033 2.674 39.512 2.682 42.543 5.303 44.065 5.293 41.033 5.293 41.033"/>
                  <polygon class="cls-8" points="5.284 38.002 2.665 36.48 2.674 39.512 5.293 41.033 5.284 38.002 5.284 38.002"/>
                  <polygon class="cls-6" points="5.276 34.972 2.655 33.449 2.665 36.48 5.284 38.002 5.276 34.972 5.276 34.972"/>
                  <polygon class="cls-6" points="5.267 31.94 2.646 30.417 2.655 33.449 5.276 34.972 5.267 31.94 5.267 31.94"/>
                  <polygon class="cls-12" points="5.259 28.907 2.639 27.385 2.646 30.417 5.267 31.94 5.259 28.907 5.259 28.907"/>
                  <polygon class="cls-12" points="5.25 25.874 2.63 24.353 2.639 27.385 5.259 28.907 5.25 25.874 5.25 25.874"/>
                  <polygon class="cls-14" points="5.241 22.846 2.621 21.324 2.63 24.353 5.25 25.874 5.241 22.846 5.241 22.846"/>
                  <polygon class="cls-6" points="2.725 57.699 0.104 56.176 0.111 59.206 2.732 60.73 2.725 57.699 2.725 57.699"/>
                  <polygon class="cls-6" points="2.716 54.668 0.096 53.145 0.104 56.176 2.725 57.699 2.716 54.668 2.716 54.668"/>
                  <polygon class="cls-8" points="2.707 51.637 0.086 50.112 0.096 53.145 2.716 54.668 2.707 51.637 2.707 51.637"/>
                  <polygon class="cls-7" points="2.699 48.605 0.077 47.079 0.086 50.112 2.707 51.637 2.699 48.605 2.699 48.605"/>
                  <polygon class="cls-8" points="2.689 45.574 0.07 44.05 0.077 47.079 2.699 48.605 2.689 45.574 2.689 45.574"/>
                  <polygon class="cls-7" points="2.682 42.543 0.06 41.021 0.07 44.05 2.689 45.574 2.682 42.543 2.682 42.543"/>
                  <polygon class="cls-9" points="2.674 39.512 0.052 37.988 0.06 41.021 2.682 42.543 2.674 39.512 2.674 39.512"/>
                  <polygon class="cls-6" points="2.665 36.48 0.043 34.956 0.052 37.988 2.674 39.512 2.665 36.48 2.665 36.48"/>
                  <polygon class="cls-9" points="2.655 33.449 0.033 31.925 0.043 34.956 2.665 36.48 2.655 33.449 2.655 33.449"/>
                  <polygon class="cls-6" points="2.646 30.417 0.026 28.894 0.033 31.925 2.655 33.449 2.646 30.417 2.646 30.417"/>
                  <polygon class="cls-9" points="2.639 27.385 0.016 25.862 0.026 28.894 2.646 30.417 2.639 27.385 2.639 27.385"/>
                  <polygon class="cls-12" points="2.63 24.353 0.008 22.83 0.016 25.862 2.639 27.385 2.63 24.353 2.63 24.353"/>
                  <polygon class="cls-12" points="2.621 21.324 0 19.8 0.008 22.83 2.63 24.353 2.621 21.324 2.621 21.324"/>
                </g>
              </g>
            </g>
            <g class="cls-4">
              <polygon class="cls-3" points="34.072 39.601 0 19.8 34.295 0 68.366 19.8 34.072 39.601"/>
              <g class="cls-18">
                <g>
                  <polygon class="cls-13" points="65.746 18.276 63.107 19.8 65.729 21.323 68.366 19.8 65.746 18.276 65.746 18.276"/>
                  <polygon class="cls-12" points="63.125 16.754 60.486 18.276 63.107 19.8 65.746 18.276 63.125 16.754 63.125 16.754"/>
                  <polygon class="cls-11" points="60.504 15.23 57.865 16.754 60.486 18.276 63.125 16.754 60.504 15.23 60.504 15.23"/>
                  <polygon class="cls-11" points="57.882 13.706 55.244 15.23 57.865 16.754 60.504 15.23 57.882 13.706 57.882 13.706"/>
                  <polygon class="cls-12" points="55.263 12.184 52.624 13.707 55.244 15.23 57.882 13.706 55.263 12.184 55.263 12.184"/>
                  <polygon class="cls-13" points="52.642 10.661 50.004 12.185 52.624 13.707 55.263 12.184 52.642 10.661 52.642 10.661"/>
                  <polygon class="cls-10" points="50.021 9.138 47.382 10.661 50.004 12.185 52.642 10.661 50.021 9.138 50.021 9.138"/>
                  <polygon class="cls-12" points="47.398 7.613 44.76 9.138 47.382 10.661 50.021 9.138 47.398 7.613 47.398 7.613"/>
                  <polygon class="cls-12" points="44.779 6.091 42.14 7.615 44.76 9.138 47.398 7.613 44.779 6.091 44.779 6.091"/>
                  <polygon class="cls-10" points="42.157 4.568 39.52 6.091 42.14 7.615 44.779 6.091 42.157 4.568 42.157 4.568"/>
                  <polygon class="cls-11" points="39.536 3.046 36.897 4.568 39.52 6.091 42.157 4.568 39.536 3.046 39.536 3.046"/>
                  <polygon class="cls-12" points="36.916 1.522 34.275 3.046 36.897 4.568 39.536 3.046 36.916 1.522 36.916 1.522"/>
                  <polygon class="cls-13" points="34.296 0 31.658 1.523 34.275 3.046 36.916 1.522 34.296 0 34.296 0"/>
                  <polygon class="cls-12" points="63.107 19.8 60.471 21.322 63.09 22.846 65.729 21.323 63.107 19.8 63.107 19.8"/>
                  <polygon class="cls-12" points="60.486 18.276 57.85 19.799 60.471 21.322 63.107 19.8 60.486 18.276 60.486 18.276"/>
                  <polygon class="cls-13" points="57.865 16.754 55.228 18.276 57.85 19.799 60.486 18.276 57.865 16.754 57.865 16.754"/>
                  <polygon class="cls-12" points="55.244 15.23 52.605 16.753 55.228 18.276 57.865 16.754 55.244 15.23 55.244 15.23"/>
                  <polygon class="cls-13" points="52.624 13.707 49.986 15.23 52.605 16.753 55.244 15.23 52.624 13.707 52.624 13.707"/>
                  <polygon class="cls-12" points="50.004 12.185 47.365 13.706 49.986 15.23 52.624 13.707 50.004 12.185 50.004 12.185"/>
                  <polygon class="cls-11" points="47.382 10.661 44.745 12.184 47.365 13.706 50.004 12.185 47.382 10.661 47.382 10.661"/>
                  <polygon class="cls-12" points="44.76 9.138 42.123 10.661 44.745 12.184 47.382 10.661 44.76 9.138 44.76 9.138"/>
                  <polygon class="cls-13" points="42.14 7.615 39.503 9.138 42.123 10.661 44.76 9.138 42.14 7.615 42.14 7.615"/>
                  <polygon class="cls-11" points="39.52 6.091 36.882 7.613 39.503 9.138 42.14 7.615 39.52 6.091 39.52 6.091"/>
                  <polygon class="cls-12" points="36.897 4.568 34.261 6.091 36.882 7.613 39.52 6.091 36.897 4.568 36.897 4.568"/>
                  <polygon class="cls-13" points="34.275 3.046 31.64 4.566 34.261 6.091 36.897 4.568 34.275 3.046 34.275 3.046"/>
                  <polygon class="cls-12" points="31.658 1.523 29.021 3.046 31.64 4.566 34.275 3.046 31.658 1.523 31.658 1.523"/>
                  <polygon class="cls-12" points="60.471 21.322 57.83 22.846 60.452 24.369 63.09 22.846 60.471 21.322 60.471 21.322"/>
                  <polygon class="cls-13" points="57.85 19.799 55.211 21.323 57.83 22.846 60.471 21.322 57.85 19.799 57.85 19.799"/>
                  <polygon class="cls-12" points="55.228 18.276 52.59 19.799 55.211 21.323 57.85 19.799 55.228 18.276 55.228 18.276"/>
                  <polygon class="cls-11" points="52.605 16.753 49.967 18.276 52.59 19.799 55.228 18.276 52.605 16.753 52.605 16.753"/>
                  <polygon class="cls-12" points="49.986 15.23 47.349 16.754 49.967 18.276 52.605 16.753 49.986 15.23 49.986 15.23"/>
                  <polygon class="cls-11" points="47.365 13.706 44.729 15.23 47.349 16.754 49.986 15.23 47.365 13.706 47.365 13.706"/>
                  <polygon class="cls-12" points="44.745 12.184 42.106 13.706 44.729 15.23 47.365 13.706 44.745 12.184 44.745 12.184"/>
                  <polygon class="cls-10" points="42.123 10.661 39.485 12.184 42.106 13.706 44.745 12.184 42.123 10.661 42.123 10.661"/>
                  <polygon class="cls-12" points="39.503 9.138 36.865 10.661 39.485 12.184 42.123 10.661 39.503 9.138 39.503 9.138"/>
                  <polygon class="cls-11" points="36.882 7.613 34.244 9.138 36.865 10.661 39.503 9.138 36.882 7.613 36.882 7.613"/>
                  <polygon class="cls-10" points="34.261 6.091 31.622 7.613 34.244 9.138 36.882 7.613 34.261 6.091 34.261 6.091"/>
                  <polygon class="cls-12" points="31.64 4.566 28.999 6.091 31.622 7.613 34.261 6.091 31.64 4.566 31.64 4.566"/>
                  <polygon class="cls-14" points="29.021 3.046 26.382 4.569 28.999 6.091 31.64 4.566 29.021 3.046 29.021 3.046"/>
                  <polygon class="cls-11" points="57.83 22.846 55.192 24.369 57.814 25.894 60.452 24.369 57.83 22.846 57.83 22.846"/>
                  <polygon class="cls-12" points="55.211 21.323 52.572 22.846 55.192 24.369 57.83 22.846 55.211 21.323 55.211 21.323"/>
                  <polygon class="cls-10" points="52.59 19.799 49.95 21.323 52.572 22.846 55.211 21.323 52.59 19.799 52.59 19.799"/>
                  <polygon class="cls-11" points="49.967 18.276 47.328 19.799 49.95 21.323 52.59 19.799 49.967 18.276 49.967 18.276"/>
                  <polygon class="cls-14" points="47.349 16.754 44.709 18.276 47.328 19.799 49.967 18.276 47.349 16.754 47.349 16.754"/>
                  <polygon class="cls-12" points="44.729 15.23 42.09 16.755 44.709 18.276 47.349 16.754 44.729 15.23 44.729 15.23"/>
                  <polygon class="cls-11" points="42.106 13.706 39.468 15.23 42.09 16.755 44.729 15.23 42.106 13.706 42.106 13.706"/>
                  <polygon class="cls-12" points="39.485 12.184 36.846 13.706 39.468 15.23 42.106 13.706 39.485 12.184 39.485 12.184"/>
                  <polygon class="cls-14" points="36.865 10.661 34.227 12.185 36.846 13.706 39.485 12.184 36.865 10.661 36.865 10.661"/>
                  <polygon class="cls-13" points="34.244 9.138 31.605 10.661 34.227 12.185 36.865 10.661 34.244 9.138 34.244 9.138"/>
                  <polygon class="cls-12" points="31.622 7.613 28.982 9.138 31.605 10.661 34.244 9.138 31.622 7.613 31.622 7.613"/>
                  <polygon class="cls-11" points="28.999 6.091 26.361 7.613 28.982 9.138 31.622 7.613 28.999 6.091 28.999 6.091"/>
                  <polygon class="cls-11" points="26.382 4.569 23.741 6.093 26.361 7.613 28.999 6.091 26.382 4.569 26.382 4.569"/>
                  <polygon class="cls-14" points="55.192 24.369 52.554 25.893 55.177 27.415 57.814 25.894 55.192 24.369 55.192 24.369"/>
                  <polygon class="cls-11" points="52.572 22.846 49.934 24.369 52.554 25.893 55.192 24.369 52.572 22.846 52.572 22.846"/>
                  <polygon class="cls-12" points="49.95 21.323 47.313 22.846 49.934 24.369 52.572 22.846 49.95 21.323 49.95 21.323"/>
                  <polygon class="cls-12" points="47.328 19.799 44.691 21.322 47.313 22.846 49.95 21.323 47.328 19.799 47.328 19.799"/>
                  <polygon class="cls-14" points="44.709 18.276 42.071 19.799 44.691 21.322 47.328 19.799 44.709 18.276 44.709 18.276"/>
                  <polygon class="cls-11" points="42.09 16.755 39.451 18.276 42.071 19.799 44.709 18.276 42.09 16.755 42.09 16.755"/>
                  <polygon class="cls-12" points="39.468 15.23 36.829 16.754 39.451 18.276 42.09 16.755 39.468 15.23 39.468 15.23"/>
                  <polygon class="cls-11" points="36.846 13.706 34.209 15.23 36.829 16.754 39.468 15.23 36.846 13.706 36.846 13.706"/>
                  <polygon class="cls-12" points="34.227 12.185 31.588 13.706 34.209 15.23 36.846 13.706 34.227 12.185 34.227 12.185"/>
                  <polygon class="cls-12" points="31.605 10.661 28.968 12.184 31.588 13.706 34.227 12.185 31.605 10.661 31.605 10.661"/>
                  <polygon class="cls-11" points="28.982 9.138 26.345 10.661 28.968 12.184 31.605 10.661 28.982 9.138 28.982 9.138"/>
                  <polygon class="cls-12" points="26.361 7.613 23.725 9.137 26.345 10.661 28.982 9.138 26.361 7.613 26.361 7.613"/>
                  <polygon class="cls-12" points="23.741 6.093 21.105 7.615 23.725 9.137 26.361 7.613 23.741 6.093 23.741 6.093"/>
                  <polygon class="cls-13" points="52.554 25.893 49.916 27.415 52.538 28.938 55.177 27.415 52.554 25.893 52.554 25.893"/>
                  <polygon class="cls-12" points="49.934 24.369 47.297 25.894 49.916 27.415 52.554 25.893 49.934 24.369 49.934 24.369"/>
                  <polygon class="cls-13" points="47.313 22.846 44.675 24.369 47.297 25.894 49.934 24.369 47.313 22.846 47.313 22.846"/>
                  <polygon class="cls-11" points="44.691 21.322 42.054 22.846 44.675 24.369 47.313 22.846 44.691 21.322 44.691 21.322"/>
                  <polygon class="cls-12" points="42.071 19.799 39.433 21.323 42.054 22.846 44.691 21.322 42.071 19.799 42.071 19.799"/>
                  <polygon class="cls-12" points="39.451 18.276 36.813 19.8 39.433 21.323 42.071 19.799 39.451 18.276 39.451 18.276"/>
                  <polygon class="cls-13" points="36.829 16.754 34.191 18.276 36.813 19.8 39.451 18.276 36.829 16.754 36.829 16.754"/>
                  <polygon class="cls-12" points="34.209 15.23 31.57 16.754 34.191 18.276 36.829 16.754 34.209 15.23 34.209 15.23"/>
                  <polygon class="cls-14" points="31.588 13.706 28.949 15.23 31.57 16.754 34.209 15.23 31.588 13.706 31.588 13.706"/>
                  <polygon class="cls-11" points="28.968 12.184 26.329 13.706 28.949 15.23 31.588 13.706 28.968 12.184 28.968 12.184"/>
                  <polygon class="cls-12" points="26.345 10.661 23.707 12.184 26.329 13.706 28.968 12.184 26.345 10.661 26.345 10.661"/>
                  <polygon class="cls-13" points="23.725 9.137 21.086 10.661 23.707 12.184 26.345 10.661 23.725 9.137 23.725 9.137"/>
                  <polygon class="cls-12" points="21.105 7.615 18.467 9.14 21.086 10.661 23.725 9.137 21.105 7.615 21.105 7.615"/>
                  <polygon class="cls-12" points="49.916 27.415 47.279 28.937 49.9 30.461 52.538 28.938 49.916 27.415 49.916 27.415"/>
                  <polygon class="cls-13" points="47.297 25.894 44.659 27.415 47.279 28.937 49.916 27.415 47.297 25.894 47.297 25.894"/>
                  <polygon class="cls-12" points="44.675 24.369 42.037 25.893 44.659 27.415 47.297 25.894 44.675 24.369 44.675 24.369"/>
                  <polygon class="cls-12" points="42.054 22.846 39.417 24.367 42.037 25.893 44.675 24.369 42.054 22.846 42.054 22.846"/>
                  <polygon class="cls-11" points="39.433 21.323 36.796 22.846 39.417 24.367 42.054 22.846 39.433 21.323 39.433 21.323"/>
                  <polygon class="cls-12" points="36.813 19.8 34.176 21.323 36.796 22.846 39.433 21.323 36.813 19.8 36.813 19.8"/>
                  <polygon class="cls-11" points="34.191 18.276 31.555 19.799 34.176 21.323 36.813 19.8 34.191 18.276 34.191 18.276"/>
                  <polygon class="cls-10" points="31.57 16.754 28.934 18.276 31.555 19.799 34.191 18.276 31.57 16.754 31.57 16.754"/>
                  <polygon class="cls-12" points="28.949 15.23 26.313 16.754 28.934 18.276 31.57 16.754 28.949 15.23 28.949 15.23"/>
                  <polygon class="cls-11" points="26.329 13.706 23.691 15.23 26.313 16.754 28.949 15.23 26.329 13.706 26.329 13.706"/>
                  <polygon class="cls-11" points="23.707 12.184 21.07 13.706 23.691 15.23 26.329 13.706 23.707 12.184 23.707 12.184"/>
                  <polygon class="cls-12" points="21.086 10.661 18.449 12.183 21.07 13.706 23.707 12.184 21.086 10.661 21.086 10.661"/>
                  <polygon class="cls-12" points="18.467 9.14 15.83 10.661 18.449 12.183 21.086 10.661 18.467 9.14 18.467 9.14"/>
                  <polygon class="cls-10" points="47.279 28.937 44.642 30.46 47.264 31.983 49.9 30.461 47.279 28.937 47.279 28.937"/>
                  <polygon class="cls-12" points="44.659 27.415 42.022 28.937 44.642 30.46 47.279 28.937 44.659 27.415 44.659 27.415"/>
                  <polygon class="cls-11" points="42.037 25.893 39.4 27.413 42.022 28.937 44.659 27.415 42.037 25.893 42.037 25.893"/>
                  <polygon class="cls-12" points="39.417 24.367 36.779 25.89 39.4 27.413 42.037 25.893 39.417 24.367 39.417 24.367"/>
                  <polygon class="cls-13" points="36.796 22.846 34.16 24.367 36.779 25.89 39.417 24.367 36.796 22.846 36.796 22.846"/>
                  <polygon class="cls-14" points="34.176 21.323 31.539 22.846 34.16 24.367 36.796 22.846 34.176 21.323 34.176 21.323"/>
                  <polygon class="cls-11" points="31.555 19.799 28.918 21.322 31.539 22.846 34.176 21.323 31.555 19.799 31.555 19.799"/>
                  <polygon class="cls-12" points="28.934 18.276 26.295 19.798 28.918 21.322 31.555 19.799 28.934 18.276 28.934 18.276"/>
                  <polygon class="cls-13" points="26.313 16.754 23.676 18.276 26.295 19.798 28.934 18.276 26.313 16.754 26.313 16.754"/>
                  <polygon class="cls-12" points="23.691 15.23 21.055 16.753 23.676 18.276 26.313 16.754 23.691 15.23 23.691 15.23"/>
                  <polygon class="cls-13" points="21.07 13.706 18.433 15.229 21.055 16.753 23.691 15.23 21.07 13.706 21.07 13.706"/>
                  <polygon class="cls-12" points="18.449 12.183 15.811 13.705 18.433 15.229 21.07 13.706 18.449 12.183 18.449 12.183"/>
                  <polygon class="cls-11" points="15.83 10.661 13.192 12.184 15.811 13.705 18.449 12.183 15.83 10.661 15.83 10.661"/>
                  <polygon class="cls-12" points="44.642 30.46 42.003 31.983 44.625 33.507 47.264 31.983 44.642 30.46 44.642 30.46"/>
                  <polygon class="cls-11" points="42.022 28.937 39.384 30.461 42.003 31.983 44.642 30.46 42.022 28.937 42.022 28.937"/>
                  <polygon class="cls-13" points="39.4 27.413 36.762 28.937 39.384 30.461 42.022 28.937 39.4 27.413 39.4 27.413"/>
                  <polygon class="cls-14" points="36.779 25.89 34.141 27.413 36.762 28.937 39.4 27.413 36.779 25.89 36.779 25.89"/>
                  <polygon class="cls-12" points="34.16 24.367 31.521 25.893 34.141 27.413 36.779 25.89 34.16 24.367 34.16 24.367"/>
                  <polygon class="cls-11" points="31.539 22.846 28.901 24.369 31.521 25.893 34.16 24.367 31.539 22.846 31.539 22.846"/>
                  <polygon class="cls-12" points="28.918 21.322 26.279 22.846 28.901 24.369 31.539 22.846 28.918 21.322 28.918 21.322"/>
                  <polygon class="cls-11" points="26.295 19.798 23.657 21.322 26.279 22.846 28.918 21.322 26.295 19.798 26.295 19.798"/>
                  <polygon class="cls-12" points="23.676 18.276 21.037 19.799 23.657 21.322 26.295 19.798 23.676 18.276 23.676 18.276"/>
                  <polygon class="cls-10" points="21.055 16.753 18.416 18.276 21.037 19.799 23.676 18.276 21.055 16.753 21.055 16.753"/>
                  <polygon class="cls-11" points="18.433 15.229 15.795 16.753 18.416 18.276 21.055 16.753 18.433 15.229 18.433 15.229"/>
                  <polygon class="cls-10" points="15.811 13.705 13.173 15.229 15.795 16.753 18.433 15.229 15.811 13.705 15.811 13.705"/>
                  <polygon class="cls-13" points="13.192 12.184 10.555 13.706 13.173 15.229 15.811 13.705 13.192 12.184 13.192 12.184"/>
                  <polygon class="cls-13" points="42.003 31.983 39.365 33.507 41.985 35.03 44.625 33.507 42.003 31.983 42.003 31.983"/>
                  <polygon class="cls-12" points="39.384 30.461 36.745 31.984 39.365 33.507 42.003 31.983 39.384 30.461 39.384 30.461"/>
                  <polygon class="cls-11" points="36.762 28.937 34.123 30.461 36.745 31.984 39.384 30.461 36.762 28.937 36.762 28.937"/>
                  <polygon class="cls-12" points="34.141 27.413 31.501 28.937 34.123 30.461 36.762 28.937 34.141 27.413 34.141 27.413"/>
                  <polygon class="cls-13" points="31.521 25.893 28.883 27.415 31.501 28.937 34.141 27.413 31.521 25.893 31.521 25.893"/>
                  <polygon class="cls-12" points="28.901 24.369 26.262 25.893 28.883 27.415 31.521 25.893 28.901 24.369 28.901 24.369"/>
                  <polygon class="cls-13" points="26.279 22.846 23.641 24.369 26.262 25.893 28.901 24.369 26.279 22.846 26.279 22.846"/>
                  <polygon class="cls-12" points="23.657 21.322 21.02 22.846 23.641 24.369 26.279 22.846 23.657 21.322 23.657 21.322"/>
                  <polygon class="cls-12" points="21.037 19.799 18.399 21.323 21.02 22.846 23.657 21.322 21.037 19.799 21.037 19.799"/>
                  <polygon class="cls-14" points="18.416 18.276 15.777 19.799 18.399 21.323 21.037 19.799 18.416 18.276 18.416 18.276"/>
                  <polygon class="cls-14" points="15.795 16.753 13.156 18.276 15.777 19.799 18.416 18.276 15.795 16.753 15.795 16.753"/>
                  <polygon class="cls-13" points="13.173 15.229 10.533 16.753 13.156 18.276 15.795 16.753 13.173 15.229 13.173 15.229"/>
                  <polygon class="cls-12" points="10.555 13.706 7.916 15.23 10.533 16.753 13.173 15.229 10.555 13.706 10.555 13.706"/>
                  <polygon class="cls-12" points="39.365 33.507 36.727 35.03 39.348 36.554 41.985 35.03 39.365 33.507 39.365 33.507"/>
                  <polygon class="cls-12" points="36.745 31.984 34.106 33.508 36.727 35.03 39.365 33.507 36.745 31.984 36.745 31.984"/>
                  <polygon class="cls-10" points="34.123 30.461 31.485 31.984 34.106 33.508 36.745 31.984 34.123 30.461 34.123 30.461"/>
                  <polygon class="cls-14" points="31.501 28.937 28.862 30.461 31.485 31.984 34.123 30.461 31.501 28.937 31.501 28.937"/>
                  <polygon class="cls-12" points="28.883 27.415 26.242 28.938 28.862 30.461 31.501 28.937 28.883 27.415 28.883 27.415"/>
                  <polygon class="cls-11" points="26.262 25.893 23.622 27.415 26.242 28.938 28.883 27.415 26.262 25.893 26.262 25.893"/>
                  <polygon class="cls-12" points="23.641 24.369 21.002 25.893 23.622 27.415 26.262 25.893 23.641 24.369 23.641 24.369"/>
                  <polygon class="cls-10" points="21.02 22.846 18.379 24.369 21.002 25.893 23.641 24.369 21.02 22.846 21.02 22.846"/>
                  <polygon class="cls-13" points="18.399 21.323 15.76 22.846 18.379 24.369 21.02 22.846 18.399 21.323 18.399 21.323"/>
                  <polygon class="cls-12" points="15.777 19.799 13.139 21.323 15.76 22.846 18.399 21.323 15.777 19.799 15.777 19.799"/>
                  <polygon class="cls-12" points="13.156 18.276 10.517 19.799 13.139 21.323 15.777 19.799 13.156 18.276 13.156 18.276"/>
                  <polygon class="cls-11" points="10.533 16.753 7.895 18.276 10.517 19.799 13.156 18.276 10.533 16.753 10.533 16.753"/>
                  <polygon class="cls-12" points="7.916 15.23 5.276 16.755 7.895 18.276 10.533 16.753 7.916 15.23 7.916 15.23"/>
                  <polygon class="cls-12" points="36.727 35.03 34.089 36.553 36.71 38.076 39.348 36.554 36.727 35.03 36.727 35.03"/>
                  <polygon class="cls-11" points="34.106 33.508 31.468 35.03 34.089 36.553 36.727 35.03 34.106 33.508 34.106 33.508"/>
                  <polygon class="cls-12" points="31.485 31.984 28.848 33.507 31.468 35.03 34.106 33.508 31.485 31.984 31.485 31.984"/>
                  <polygon class="cls-13" points="28.862 30.461 26.226 31.983 28.848 33.507 31.485 31.984 28.862 30.461 28.862 30.461"/>
                  <polygon class="cls-12" points="26.242 28.938 23.605 30.461 26.226 31.983 28.862 30.461 26.242 28.938 26.242 28.938"/>
                  <polygon class="cls-11" points="23.622 27.415 20.984 28.938 23.605 30.461 26.242 28.938 23.622 27.415 23.622 27.415"/>
                  <polygon class="cls-14" points="21.002 25.893 18.365 27.415 20.984 28.938 23.622 27.415 21.002 25.893 21.002 25.893"/>
                  <polygon class="cls-12" points="18.379 24.369 15.742 25.893 18.365 27.415 21.002 25.893 18.379 24.369 18.379 24.369"/>
                  <polygon class="cls-12" points="15.76 22.846 13.122 24.369 15.742 25.893 18.379 24.369 15.76 22.846 15.76 22.846"/>
                  <polygon class="cls-11" points="13.139 21.323 10.5 22.846 13.122 24.369 15.76 22.846 13.139 21.323 13.139 21.323"/>
                  <polygon class="cls-12" points="10.517 19.799 7.88 21.322 10.5 22.846 13.139 21.323 10.517 19.799 10.517 19.799"/>
                  <polygon class="cls-12" points="7.895 18.276 5.258 19.798 7.88 21.322 10.517 19.799 7.895 18.276 7.895 18.276"/>
                  <polygon class="cls-14" points="5.276 16.755 2.639 18.276 5.258 19.798 7.895 18.276 5.276 16.755 5.276 16.755"/>
                  <polygon class="cls-14" points="34.089 36.553 31.451 38.076 34.071 39.601 36.71 38.076 34.089 36.553 34.089 36.553"/>
                  <polygon class="cls-11" points="31.468 35.03 28.83 36.554 31.451 38.076 34.089 36.553 31.468 35.03 31.468 35.03"/>
                  <polygon class="cls-12" points="28.848 33.507 26.209 35.03 28.83 36.554 31.468 35.03 28.848 33.507 28.848 33.507"/>
                  <polygon class="cls-10" points="26.226 31.983 23.587 33.507 26.209 35.03 28.848 33.507 26.226 31.983 26.226 31.983"/>
                  <polygon class="cls-13" points="23.605 30.461 20.968 31.984 23.587 33.507 26.226 31.983 23.605 30.461 23.605 30.461"/>
                  <polygon class="cls-12" points="20.984 28.938 18.347 30.461 20.968 31.984 23.605 30.461 20.984 28.938 20.984 28.938"/>
                  <polygon class="cls-12" points="18.365 27.415 15.726 28.938 18.347 30.461 20.984 28.938 18.365 27.415 18.365 27.415"/>
                  <polygon class="cls-13" points="15.742 25.893 13.104 27.415 15.726 28.938 18.365 27.415 15.742 25.893 15.742 25.893"/>
                  <polygon class="cls-12" points="13.122 24.369 10.484 25.893 13.104 27.415 15.742 25.893 13.122 24.369 13.122 24.369"/>
                  <polygon class="cls-12" points="10.5 22.846 7.862 24.369 10.484 25.893 13.122 24.369 10.5 22.846 10.5 22.846"/>
                  <polygon class="cls-10" points="7.88 21.322 5.24 22.846 7.862 24.369 10.5 22.846 7.88 21.322 7.88 21.322"/>
                  <polygon class="cls-12" points="5.258 19.798 2.621 21.322 5.24 22.846 7.88 21.322 5.258 19.798 5.258 19.798"/>
                  <polygon class="cls-12" points="2.639 18.276 0.001 19.8 2.621 21.322 5.258 19.798 2.639 18.276 2.639 18.276"/>
                </g>
              </g>
            </g>
          </g>
          <g>
            <polygon class="cls-19" points="68.365 19.8 68.478 59.209 34.184 79.007 34.072 39.601 68.365 19.8"/>
            <polygon class="cls-20" points="34.184 79.007 0.111 59.207 0 19.799 34.072 39.601 34.184 79.007"/>
            <polygon class="cls-21" points="34.072 39.601 0 19.799 34.294 0 68.365 19.8 34.072 39.601"/>
          </g>
        </g>
      </g>
    </g>
  </g>
</svg>
