<svg xmlns="http://www.w3.org/2000/svg" xmlns:xlink="http://www.w3.org/1999/xlink" viewBox="0 0 68.4785 79.00682">
  <defs>
    <style>
      .cls-1 {
        mask: url(#mask);
        filter: url(#luminosity-noclip-2);
      }

      .cls-17, .cls-2 {
        mix-blend-mode: multiply;
      }

      .cls-2 {
        fill: url(#åçûìßííûé_ãðàäèåíò_2);
      }

      .cls-3 {
        fill: #fff;
      }

      .cls-4 {
        isolation: isolate;
      }

      .cls-5 {
        clip-path: url(#clip-path);
      }

      .cls-6 {
        fill: #827f75;
      }

      .cls-7 {
        fill: #93918d;
      }

      .cls-8 {
        fill: #8e8c88;
      }

      .cls-9 {
        fill: #a09e9a;
      }

      .cls-10 {
        fill: #9c9a96;
      }

      .cls-11 {
        fill: #65645c;
      }

      .cls-12 {
        fill: #85837f;
      }

      .cls-13 {
        fill: #999793;
      }

      .cls-14 {
        clip-path: url(#clip-path-2);
      }

      .cls-15 {
        clip-path: url(#clip-path-3);
      }

      .cls-16 {
        mask: url(#mask-2);
      }

      .cls-17, .cls-19 {
        opacity: 0.4;
      }

      .cls-17 {
        fill: url(#linear-gradient);
      }

      .cls-18 {
        fill: #616161;
        opacity: 0.1;
      }

      .cls-18, .cls-19 {
        mix-blend-mode: color-dodge;
      }

      .cls-19 {
        fill: url(#linear-gradient-2);
      }

      .cls-20 {
        filter: url(#luminosity-noclip);
      }
    </style>
    <filter id="luminosity-noclip" x="34.0732" y="-8282.53222" width="34.4053" height="32766" filterUnits="userSpaceOnUse" color-interpolation-filters="sRGB">
      <feFlood flood-color="#fff" result="bg"/>
      <feBlend in="SourceGraphic" in2="bg"/>
    </filter>
    <mask id="mask" x="34.0732" y="-8282.53222" width="34.4053" height="32766" maskUnits="userSpaceOnUse">
      <g class="cls-20"/>
    </mask>
    <linearGradient id="åçûìßííûé_ãðàäèåíò_2" data-name="åçûìßííûé ãðàäèåíò 2" x1="13.75911" y1="29.57909" x2="67.69315" y2="58.07835" gradientUnits="userSpaceOnUse">
      <stop offset="0" stop-color="#fff"/>
      <stop offset="0.50007" stop-color="#f0f0f0"/>
      <stop offset="1" stop-color="#e6e6e6"/>
    </linearGradient>
    <clipPath id="clip-path">
      <polygon class="cls-3" points="68.366 19.8 68.478 59.207 34.184 79.007 34.072 39.601 68.366 19.8"/>
    </clipPath>
    <clipPath id="clip-path-2">
      <polygon class="cls-3" points="34.184 79.007 0.111 59.207 0 19.8 34.072 39.601 34.184 79.007"/>
    </clipPath>
    <clipPath id="clip-path-3">
      <polygon class="cls-3" points="34.072 39.601 0 19.8 34.295 0 68.366 19.8 34.072 39.601"/>
    </clipPath>
    <filter id="luminosity-noclip-2" x="34.0732" y="19.79982" width="34.4053" height="59.207" filterUnits="userSpaceOnUse" color-interpolation-filters="sRGB">
      <feFlood flood-color="#fff" result="bg"/>
      <feBlend in="SourceGraphic" in2="bg"/>
    </filter>
    <mask id="mask-2" x="34.0732" y="19.79982" width="34.4053" height="59.207" maskUnits="userSpaceOnUse">
      <g class="cls-1">
        <polygon class="cls-2" points="68.366 19.8 68.478 59.209 34.186 79.007 34.073 39.601 68.366 19.8"/>
      </g>
    </mask>
    <linearGradient id="linear-gradient" x1="13.75911" y1="29.57909" x2="67.69315" y2="58.07835" gradientUnits="userSpaceOnUse">
      <stop offset="0" stop-color="#fff"/>
      <stop offset="0.10549" stop-color="#eae8dc"/>
      <stop offset="0.35664" stop-color="#bcb48f"/>
      <stop offset="0.58058" stop-color="#978b52"/>
      <stop offset="0.76909" stop-color="#7c6e25"/>
      <stop offset="0.91475" stop-color="#6c5c0a"/>
      <stop offset="1" stop-color="#650"/>
    </linearGradient>
    <linearGradient id="linear-gradient-2" x1="-20.42971" y1="-34.81399" x2="133.49713" y2="119.11285" gradientUnits="userSpaceOnUse">
      <stop offset="0" stop-color="#d9eed5"/>
      <stop offset="1"/>
    </linearGradient>
  </defs>
  <g class="cls-4">
    <g id="Layer_2" data-name="Layer 2">
      <g id="Layer_1-2" data-name="Layer 1">
        <g id="_9" data-name="9">
          <g class="cls-4">
            <g class="cls-4">
              <polygon class="cls-3" points="68.366 19.8 68.478 59.207 34.184 79.007 34.072 39.601 68.366 19.8"/>
              <g class="cls-5">
                <g>
                  <polygon class="cls-6" points="68.469 56.178 65.832 57.699 65.84 60.73 68.477 59.206 68.469 56.178 68.469 56.178"/>
                  <polygon class="cls-6" points="68.461 53.146 65.823 54.668 65.832 57.699 68.469 56.178 68.461 53.146 68.461 53.146"/>
                  <polygon class="cls-7" points="68.452 50.112 65.813 51.636 65.823 54.668 68.461 53.146 68.452 50.112 68.452 50.112"/>
                  <polygon class="cls-8" points="68.443 47.082 65.807 48.605 65.813 51.636 68.452 50.112 68.443 47.082 68.443 47.082"/>
                  <polygon class="cls-6" points="68.436 44.054 65.796 45.576 65.807 48.605 68.443 47.082 68.436 44.054 68.436 44.054"/>
                  <polygon class="cls-9" points="68.427 41.022 65.788 42.544 65.796 45.576 68.436 44.054 68.427 41.022 68.427 41.022"/>
                  <polygon class="cls-9" points="68.417 37.99 65.78 39.512 65.788 42.544 68.427 41.022 68.417 37.99 68.417 37.99"/>
                  <polygon class="cls-8" points="68.408 34.957 65.77 36.48 65.78 39.512 68.417 37.99 68.408 34.957 68.408 34.957"/>
                  <polygon class="cls-9" points="68.4 31.927 65.763 33.449 65.77 36.48 68.408 34.957 68.4 31.927 68.4 31.927"/>
                  <polygon class="cls-9" points="68.392 28.895 65.755 30.418 65.763 33.449 68.4 31.927 68.392 28.895 68.392 28.895"/>
                  <polygon class="cls-9" points="68.384 25.863 65.745 27.386 65.755 30.418 68.392 28.895 68.384 25.863 68.384 25.863"/>
                  <polygon class="cls-8" points="68.373 22.832 65.737 24.353 65.745 27.386 68.384 25.863 68.373 22.832 68.373 22.832"/>
                  <polygon class="cls-10" points="68.365 19.802 65.728 21.324 65.737 24.353 68.373 22.832 68.365 19.802 68.365 19.802"/>
                  <polygon class="cls-8" points="65.832 57.699 63.195 59.221 63.203 62.251 65.84 60.73 65.832 57.699 65.832 57.699"/>
                  <polygon class="cls-8" points="65.823 54.668 63.186 56.189 63.195 59.221 65.832 57.699 65.823 54.668 65.823 54.668"/>
                  <polygon class="cls-8" points="65.813 51.636 63.178 53.157 63.186 56.189 65.823 54.668 65.813 51.636 65.813 51.636"/>
                  <polygon class="cls-9" points="65.807 48.605 63.167 50.127 63.178 53.157 65.813 51.636 65.807 48.605 65.807 48.605"/>
                  <polygon class="cls-6" points="65.796 45.576 63.159 47.099 63.167 50.127 65.807 48.605 65.796 45.576 65.796 45.576"/>
                  <polygon class="cls-11" points="65.788 42.544 63.151 44.066 63.159 47.099 65.796 45.576 65.788 42.544 65.788 42.544"/>
                  <polygon class="cls-7" points="65.78 39.512 63.143 41.034 63.151 44.066 65.788 42.544 65.78 39.512 65.78 39.512"/>
                  <polygon class="cls-8" points="65.77 36.48 63.134 38.002 63.143 41.034 65.78 39.512 65.77 36.48 65.77 36.48"/>
                  <polygon class="cls-9" points="65.763 33.449 63.126 34.974 63.134 38.002 65.77 36.48 65.763 33.449 65.763 33.449"/>
                  <polygon class="cls-6" points="65.755 30.418 63.116 31.94 63.126 34.974 65.763 33.449 65.755 30.418 65.755 30.418"/>
                  <polygon class="cls-7" points="65.745 27.386 63.108 28.908 63.116 31.94 65.755 30.418 65.745 27.386 65.745 27.386"/>
                  <polygon class="cls-12" points="65.737 24.353 63.101 25.876 63.108 28.908 65.745 27.386 65.737 24.353 65.737 24.353"/>
                  <polygon class="cls-8" points="65.728 21.324 63.091 22.848 63.101 25.876 65.737 24.353 65.728 21.324 65.728 21.324"/>
                  <polygon class="cls-6" points="63.195 59.221 60.556 60.744 60.564 63.774 63.203 62.251 63.195 59.221 63.195 59.221"/>
                  <polygon class="cls-9" points="63.186 56.189 60.547 57.713 60.556 60.744 63.195 59.221 63.186 56.189 63.186 56.189"/>
                  <polygon class="cls-7" points="63.178 53.157 60.538 54.681 60.547 57.713 63.186 56.189 63.178 53.157 63.178 53.157"/>
                  <polygon class="cls-9" points="63.167 50.127 60.529 51.65 60.538 54.681 63.178 53.157 63.167 50.127 63.167 50.127"/>
                  <polygon class="cls-9" points="63.159 47.099 60.521 48.622 60.529 51.65 63.167 50.127 63.159 47.099 63.159 47.099"/>
                  <polygon class="cls-9" points="63.151 44.066 60.513 45.591 60.521 48.622 63.159 47.099 63.151 44.066 63.151 44.066"/>
                  <polygon class="cls-9" points="63.143 41.034 60.504 42.559 60.513 45.591 63.151 44.066 63.143 41.034 63.143 41.034"/>
                  <polygon class="cls-8" points="63.134 38.002 60.495 39.526 60.504 42.559 63.143 41.034 63.134 38.002 63.134 38.002"/>
                  <polygon class="cls-9" points="63.126 34.974 60.486 36.496 60.495 39.526 63.134 38.002 63.126 34.974 63.126 34.974"/>
                  <polygon class="cls-9" points="63.116 31.94 60.478 33.464 60.486 36.496 63.126 34.974 63.116 31.94 63.116 31.94"/>
                  <polygon class="cls-8" points="63.108 28.908 60.471 30.433 60.478 33.464 63.116 31.94 63.108 28.908 63.108 28.908"/>
                  <polygon class="cls-13" points="63.101 25.876 60.462 27.4 60.471 30.433 63.108 28.908 63.101 25.876 63.101 25.876"/>
                  <polygon class="cls-6" points="63.091 22.848 60.453 24.371 60.462 27.4 63.101 25.876 63.091 22.848 63.091 22.848"/>
                  <polygon class="cls-7" points="60.556 60.744 57.917 62.268 57.925 65.298 60.564 63.774 60.556 60.744 60.556 60.744"/>
                  <polygon class="cls-9" points="60.547 57.713 57.908 59.237 57.917 62.268 60.556 60.744 60.547 57.713 60.547 57.713"/>
                  <polygon class="cls-9" points="60.538 54.681 57.9 56.205 57.908 59.237 60.547 57.713 60.538 54.681 60.538 54.681"/>
                  <polygon class="cls-8" points="60.529 51.65 57.892 53.175 57.9 56.205 60.538 54.681 60.529 51.65 60.529 51.65"/>
                  <polygon class="cls-6" points="60.521 48.622 57.882 50.146 57.892 53.175 60.529 51.65 60.521 48.622 60.521 48.622"/>
                  <polygon class="cls-8" points="60.513 45.591 57.874 47.113 57.882 50.146 60.521 48.622 60.513 45.591 60.513 45.591"/>
                  <polygon class="cls-9" points="60.504 42.559 57.866 44.082 57.874 47.113 60.513 45.591 60.504 42.559 60.504 42.559"/>
                  <polygon class="cls-9" points="60.495 39.526 57.857 41.051 57.866 44.082 60.504 42.559 60.495 39.526 60.495 39.526"/>
                  <polygon class="cls-9" points="60.486 36.496 57.849 38.019 57.857 41.051 60.495 39.526 60.486 36.496 60.486 36.496"/>
                  <polygon class="cls-8" points="60.478 33.464 57.841 34.987 57.849 38.019 60.486 36.496 60.478 33.464 60.478 33.464"/>
                  <polygon class="cls-9" points="60.471 30.433 57.83 31.955 57.841 34.987 60.478 33.464 60.471 30.433 60.471 30.433"/>
                  <polygon class="cls-8" points="60.462 27.4 57.822 28.924 57.83 31.955 60.471 30.433 60.462 27.4 60.462 27.4"/>
                  <polygon class="cls-8" points="60.453 24.371 57.813 25.895 57.822 28.924 60.462 27.4 60.453 24.371 60.453 24.371"/>
                  <polygon class="cls-9" points="57.917 62.268 55.279 63.791 55.288 66.821 57.925 65.298 57.917 62.268 57.917 62.268"/>
                  <polygon class="cls-9" points="57.908 59.237 55.271 60.759 55.279 63.791 57.917 62.268 57.908 59.237 57.908 59.237"/>
                  <polygon class="cls-9" points="57.9 56.205 55.264 57.727 55.271 60.759 57.908 59.237 57.9 56.205 57.9 56.205"/>
                  <polygon class="cls-6" points="57.892 53.175 55.253 54.696 55.264 57.727 57.9 56.205 57.892 53.175 57.892 53.175"/>
                  <polygon class="cls-8" points="57.882 50.146 55.245 51.668 55.253 54.696 57.892 53.175 57.882 50.146 57.882 50.146"/>
                  <polygon class="cls-9" points="57.874 47.113 55.237 48.637 55.245 51.668 57.882 50.146 57.874 47.113 57.874 47.113"/>
                  <polygon class="cls-8" points="57.866 44.082 55.228 45.605 55.237 48.637 57.874 47.113 57.866 44.082 57.866 44.082"/>
                  <polygon class="cls-9" points="57.857 41.051 55.221 42.57 55.228 45.605 57.866 44.082 57.857 41.051 57.857 41.051"/>
                  <polygon class="cls-8" points="57.849 38.019 55.212 39.542 55.221 42.57 57.857 41.051 57.849 38.019 57.849 38.019"/>
                  <polygon class="cls-9" points="57.841 34.987 55.201 36.509 55.212 39.542 57.849 38.019 57.841 34.987 57.841 34.987"/>
                  <polygon class="cls-9" points="57.83 31.955 55.193 33.479 55.201 36.509 57.841 34.987 57.83 31.955 57.83 31.955"/>
                  <polygon class="cls-7" points="57.822 28.924 55.185 30.444 55.193 33.479 57.83 31.955 57.822 28.924 57.822 28.924"/>
                  <polygon class="cls-9" points="57.813 25.895 55.177 27.417 55.185 30.444 57.822 28.924 57.813 25.895 57.813 25.895"/>
                  <polygon class="cls-8" points="55.279 63.791 52.641 65.314 52.649 68.346 55.288 66.821 55.279 63.791 55.279 63.791"/>
                  <polygon class="cls-9" points="55.271 60.759 52.633 62.282 52.641 65.314 55.279 63.791 55.271 60.759 55.271 60.759"/>
                  <polygon class="cls-7" points="55.264 57.727 52.624 59.25 52.633 62.282 55.271 60.759 55.264 57.727 55.264 57.727"/>
                  <polygon class="cls-9" points="55.253 54.696 52.616 56.22 52.624 59.25 55.264 57.727 55.253 54.696 55.253 54.696"/>
                  <polygon class="cls-8" points="55.245 51.668 52.606 53.192 52.616 56.22 55.253 54.696 55.245 51.668 55.245 51.668"/>
                  <polygon class="cls-9" points="55.237 48.637 52.599 50.16 52.606 53.192 55.245 51.668 55.237 48.637 55.237 48.637"/>
                  <polygon class="cls-9" points="55.228 45.605 52.591 47.126 52.599 50.16 55.237 48.637 55.228 45.605 55.228 45.605"/>
                  <polygon class="cls-8" points="55.221 42.57 52.581 44.095 52.591 47.126 55.228 45.605 55.221 42.57 55.221 42.57"/>
                  <polygon class="cls-9" points="55.212 39.542 52.571 41.064 52.581 44.095 55.221 42.57 55.212 39.542 55.212 39.542"/>
                  <polygon class="cls-8" points="55.201 36.509 52.563 38.034 52.571 41.064 55.212 39.542 55.201 36.509 55.201 36.509"/>
                  <polygon class="cls-9" points="55.193 33.479 52.555 35.001 52.563 38.034 55.201 36.509 55.193 33.479 55.193 33.479"/>
                  <polygon class="cls-9" points="55.185 30.444 52.547 31.968 52.555 35.001 55.193 33.479 55.185 30.444 55.185 30.444"/>
                  <polygon class="cls-13" points="55.177 27.417 52.539 28.94 52.547 31.968 55.185 30.444 55.177 27.417 55.177 27.417"/>
                  <polygon class="cls-9" points="52.641 65.314 50.003 66.837 50.012 69.868 52.649 68.346 52.641 65.314 52.641 65.314"/>
                  <polygon class="cls-8" points="52.633 62.282 49.994 63.806 50.003 66.837 52.641 65.314 52.633 62.282 52.633 62.282"/>
                  <polygon class="cls-9" points="52.624 59.25 49.986 60.773 49.994 63.806 52.633 62.282 52.624 59.25 52.624 59.25"/>
                  <polygon class="cls-8" points="52.616 56.22 49.977 57.743 49.986 60.773 52.624 59.25 52.616 56.22 52.616 56.22"/>
                  <polygon class="cls-9" points="52.606 53.192 49.968 54.716 49.977 57.743 52.616 56.22 52.606 53.192 52.606 53.192"/>
                  <polygon class="cls-9" points="52.599 50.16 49.959 51.684 49.968 54.716 52.606 53.192 52.599 50.16 52.599 50.16"/>
                  <polygon class="cls-7" points="52.591 47.126 49.95 48.65 49.959 51.684 52.599 50.16 52.591 47.126 52.591 47.126"/>
                  <polygon class="cls-9" points="52.581 44.095 49.942 45.62 49.95 48.65 52.591 47.126 52.581 44.095 52.581 44.095"/>
                  <polygon class="cls-8" points="52.571 41.064 49.935 42.589 49.942 45.62 52.581 44.095 52.571 41.064 52.571 41.064"/>
                  <polygon class="cls-6" points="52.563 38.034 49.925 39.558 49.935 42.589 52.571 41.064 52.563 38.034 52.563 38.034"/>
                  <polygon class="cls-7" points="52.555 35.001 49.917 36.524 49.925 39.558 52.563 38.034 52.555 35.001 52.555 35.001"/>
                  <polygon class="cls-9" points="52.547 31.968 49.908 33.492 49.917 36.524 52.555 35.001 52.547 31.968 52.547 31.968"/>
                  <polygon class="cls-10" points="52.539 28.94 49.899 30.464 49.908 33.492 52.547 31.968 52.539 28.94 52.539 28.94"/>
                  <polygon class="cls-9" points="50.003 66.837 47.364 68.361 47.373 71.391 50.012 69.868 50.003 66.837 50.003 66.837"/>
                  <polygon class="cls-9" points="49.994 63.806 47.356 65.329 47.364 68.361 50.003 66.837 49.994 63.806 49.994 63.806"/>
                  <polygon class="cls-8" points="49.986 60.773 47.346 62.298 47.356 65.329 49.994 63.806 49.986 60.773 49.986 60.773"/>
                  <polygon class="cls-9" points="49.977 57.743 47.338 59.268 47.346 62.298 49.986 60.773 49.977 57.743 49.977 57.743"/>
                  <polygon class="cls-9" points="49.968 54.716 47.329 56.238 47.338 59.268 49.977 57.743 49.968 54.716 49.968 54.716"/>
                  <polygon class="cls-6" points="49.959 51.684 47.32 53.206 47.329 56.238 49.968 54.716 49.959 51.684 49.959 51.684"/>
                  <polygon class="cls-9" points="49.95 48.65 47.313 50.175 47.32 53.206 49.959 51.684 49.95 48.65 49.95 48.65"/>
                  <polygon class="cls-8" points="49.942 45.62 47.305 47.143 47.313 50.175 49.95 48.65 49.942 45.62 49.942 45.62"/>
                  <polygon class="cls-9" points="49.935 42.589 47.295 44.113 47.305 47.143 49.942 45.62 49.935 42.589 49.935 42.589"/>
                  <polygon class="cls-8" points="49.925 39.558 47.286 41.079 47.295 44.113 49.935 42.589 49.925 39.558 49.925 39.558"/>
                  <polygon class="cls-9" points="49.917 36.524 47.278 38.047 47.286 41.079 49.925 39.558 49.917 36.524 49.917 36.524"/>
                  <polygon class="cls-9" points="49.908 33.492 47.27 35.016 47.278 38.047 49.917 36.524 49.908 33.492 49.908 33.492"/>
                  <polygon class="cls-9" points="49.899 30.464 47.262 31.988 47.27 35.016 49.908 33.492 49.899 30.464 49.899 30.464"/>
                  <polygon class="cls-7" points="47.364 68.361 44.727 69.884 44.736 72.915 47.373 71.391 47.364 68.361 47.364 68.361"/>
                  <polygon class="cls-6" points="47.356 65.329 44.717 66.853 44.727 69.884 47.364 68.361 47.356 65.329 47.356 65.329"/>
                  <polygon class="cls-9" points="47.346 62.298 44.709 63.819 44.717 66.853 47.356 65.329 47.346 62.298 47.346 62.298"/>
                  <polygon class="cls-8" points="47.338 59.268 44.701 60.789 44.709 63.819 47.346 62.298 47.338 59.268 47.338 59.268"/>
                  <polygon class="cls-6" points="47.329 56.238 44.692 57.762 44.701 60.789 47.338 59.268 47.329 56.238 47.329 56.238"/>
                  <polygon class="cls-9" points="47.32 53.206 44.684 54.729 44.692 57.762 47.329 56.238 47.32 53.206 47.32 53.206"/>
                  <polygon class="cls-9" points="47.313 50.175 44.676 51.696 44.684 54.729 47.32 53.206 47.313 50.175 47.313 50.175"/>
                  <polygon class="cls-7" points="47.305 47.143 44.667 48.665 44.676 51.696 47.313 50.175 47.305 47.143 47.305 47.143"/>
                  <polygon class="cls-9" points="47.295 44.113 44.658 45.634 44.667 48.665 47.305 47.143 47.295 44.113 47.295 44.113"/>
                  <polygon class="cls-9" points="47.286 41.079 44.649 42.603 44.658 45.634 47.295 44.113 47.286 41.079 47.286 41.079"/>
                  <polygon class="cls-8" points="47.278 38.047 44.641 39.57 44.649 42.603 47.286 41.079 47.278 38.047 47.278 38.047"/>
                  <polygon class="cls-8" points="47.27 35.016 44.633 36.538 44.641 39.57 47.278 38.047 47.27 35.016 47.27 35.016"/>
                  <polygon class="cls-8" points="47.262 31.988 44.624 33.509 44.633 36.538 47.27 35.016 47.262 31.988 47.262 31.988"/>
                  <polygon class="cls-11" points="44.727 69.884 42.089 71.407 42.098 74.437 44.736 72.915 44.727 69.884 44.727 69.884"/>
                  <polygon class="cls-8" points="44.717 66.853 42.08 68.374 42.089 71.407 44.727 69.884 44.717 66.853 44.717 66.853"/>
                  <polygon class="cls-9" points="44.709 63.819 42.072 65.343 42.08 68.374 44.717 66.853 44.709 63.819 44.709 63.819"/>
                  <polygon class="cls-9" points="44.701 60.789 42.063 62.312 42.072 65.343 44.709 63.819 44.701 60.789 44.701 60.789"/>
                  <polygon class="cls-9" points="44.692 57.762 42.056 59.282 42.063 62.312 44.701 60.789 44.692 57.762 44.692 57.762"/>
                  <polygon class="cls-9" points="44.684 54.729 42.048 56.252 42.056 59.282 44.692 57.762 44.684 54.729 44.684 54.729"/>
                  <polygon class="cls-7" points="44.676 51.696 42.037 53.22 42.048 56.252 44.684 54.729 44.676 51.696 44.676 51.696"/>
                  <polygon class="cls-12" points="44.667 48.665 42.029 50.187 42.037 53.22 44.676 51.696 44.667 48.665 44.667 48.665"/>
                  <polygon class="cls-8" points="44.658 45.634 42.021 47.156 42.029 50.187 44.667 48.665 44.658 45.634 44.658 45.634"/>
                  <polygon class="cls-9" points="44.649 42.603 42.013 44.124 42.021 47.156 44.658 45.634 44.649 42.603 44.649 42.603"/>
                  <polygon class="cls-9" points="44.641 39.57 42.004 41.094 42.013 44.124 44.649 42.603 44.641 39.57 44.641 39.57"/>
                  <polygon class="cls-13" points="44.633 36.538 41.996 38.062 42.004 41.094 44.641 39.57 44.633 36.538 44.633 36.538"/>
                  <polygon class="cls-6" points="44.624 33.509 41.986 35.033 41.996 38.062 44.633 36.538 44.624 33.509 44.624 33.509"/>
                  <polygon class="cls-7" points="42.089 71.407 39.452 72.929 39.46 75.96 42.098 74.437 42.089 71.407 42.089 71.407"/>
                  <polygon class="cls-9" points="42.08 68.374 39.444 69.897 39.452 72.929 42.089 71.407 42.08 68.374 42.08 68.374"/>
                  <polygon class="cls-7" points="42.072 65.343 39.435 66.865 39.444 69.897 42.08 68.374 42.072 65.343 42.072 65.343"/>
                  <polygon class="cls-8" points="42.063 62.312 39.427 63.835 39.435 66.865 42.072 65.343 42.063 62.312 42.063 62.312"/>
                  <polygon class="cls-6" points="42.056 59.282 39.418 60.807 39.427 63.835 42.063 62.312 42.056 59.282 42.056 59.282"/>
                  <polygon class="cls-7" points="42.048 56.252 39.409 57.772 39.418 60.807 42.056 59.282 42.048 56.252 42.048 56.252"/>
                  <polygon class="cls-9" points="42.037 53.22 39.4 54.741 39.409 57.772 42.048 56.252 42.037 53.22 42.037 53.22"/>
                  <polygon class="cls-6" points="42.029 50.187 39.393 51.711 39.4 54.741 42.037 53.22 42.029 50.187 42.029 50.187"/>
                  <polygon class="cls-9" points="42.021 47.156 39.384 48.68 39.393 51.711 42.029 50.187 42.021 47.156 42.021 47.156"/>
                  <polygon class="cls-8" points="42.013 44.124 39.376 45.648 39.384 48.68 42.021 47.156 42.013 44.124 42.013 44.124"/>
                  <polygon class="cls-9" points="42.004 41.094 39.368 42.616 39.376 45.648 42.013 44.124 42.004 41.094 42.004 41.094"/>
                  <polygon class="cls-8" points="41.996 38.062 39.356 39.583 39.368 42.616 42.004 41.094 41.996 38.062 41.996 38.062"/>
                  <polygon class="cls-9" points="41.986 35.033 39.349 36.555 39.356 39.583 41.996 38.062 41.986 35.033 41.986 35.033"/>
                  <polygon class="cls-6" points="39.452 72.929 36.814 74.453 36.822 77.483 39.46 75.96 39.452 72.929 39.452 72.929"/>
                  <polygon class="cls-7" points="39.444 69.897 36.804 71.42 36.814 74.453 39.452 72.929 39.444 69.897 39.444 69.897"/>
                  <polygon class="cls-12" points="39.435 66.865 36.796 68.389 36.804 71.42 39.444 69.897 39.435 66.865 39.435 66.865"/>
                  <polygon class="cls-12" points="39.427 63.835 36.788 65.358 36.796 68.389 39.435 66.865 39.427 63.835 39.427 63.835"/>
                  <polygon class="cls-8" points="39.418 60.807 36.779 62.33 36.788 65.358 39.427 63.835 39.418 60.807 39.418 60.807"/>
                  <polygon class="cls-10" points="39.409 57.772 36.771 59.297 36.779 62.33 39.418 60.807 39.409 57.772 39.409 57.772"/>
                  <polygon class="cls-8" points="39.4 54.741 36.763 56.266 36.771 59.297 39.409 57.772 39.4 54.741 39.4 54.741"/>
                  <polygon class="cls-6" points="39.393 51.711 36.754 53.233 36.763 56.266 39.4 54.741 39.393 51.711 39.393 51.711"/>
                  <polygon class="cls-6" points="39.384 48.68 36.744 50.204 36.754 53.233 39.393 51.711 39.384 48.68 39.384 48.68"/>
                  <polygon class="cls-9" points="39.376 45.648 36.737 47.172 36.744 50.204 39.384 48.68 39.376 45.648 39.376 45.648"/>
                  <polygon class="cls-9" points="39.368 42.616 36.727 44.139 36.737 47.172 39.376 45.648 39.368 42.616 39.368 42.616"/>
                  <polygon class="cls-12" points="39.356 39.583 36.719 41.107 36.727 44.139 39.368 42.616 39.356 39.583 39.356 39.583"/>
                  <polygon class="cls-8" points="39.349 36.555 36.711 38.078 36.719 41.107 39.356 39.583 39.349 36.555 39.349 36.555"/>
                  <polygon class="cls-7" points="36.814 74.453 34.177 75.976 34.186 79.006 36.822 77.483 36.814 74.453 36.814 74.453"/>
                  <polygon class="cls-9" points="36.804 71.42 34.168 72.944 34.177 75.976 36.814 74.453 36.804 71.42 36.804 71.42"/>
                  <polygon class="cls-7" points="36.796 68.389 34.159 69.912 34.168 72.944 36.804 71.42 36.796 68.389 36.796 68.389"/>
                  <polygon class="cls-8" points="36.788 65.358 34.15 66.882 34.159 69.912 36.796 68.389 36.788 65.358 36.788 65.358"/>
                  <polygon class="cls-9" points="36.779 62.33 34.143 63.853 34.15 66.882 36.788 65.358 36.779 62.33 36.779 62.33"/>
                  <polygon class="cls-9" points="36.771 59.297 34.135 60.82 34.143 63.853 36.779 62.33 36.771 59.297 36.771 59.297"/>
                  <polygon class="cls-9" points="36.763 56.266 34.126 57.788 34.135 60.82 36.771 59.297 36.763 56.266 36.763 56.266"/>
                  <polygon class="cls-8" points="36.754 53.233 34.117 54.757 34.126 57.788 36.763 56.266 36.754 53.233 36.754 53.233"/>
                  <polygon class="cls-6" points="36.744 50.204 34.107 51.726 34.117 54.757 36.754 53.233 36.744 50.204 36.744 50.204"/>
                  <polygon class="cls-9" points="36.737 47.172 34.099 48.693 34.107 51.726 36.744 50.204 36.737 47.172 36.737 47.172"/>
                  <polygon class="cls-7" points="36.727 44.139 34.091 45.662 34.099 48.693 36.737 47.172 36.727 44.139 36.727 44.139"/>
                  <polygon class="cls-8" points="36.719 41.107 34.081 42.63 34.091 45.662 36.727 44.139 36.719 41.107 36.719 41.107"/>
                  <polygon class="cls-9" points="36.711 38.078 34.073 39.601 34.081 42.63 36.719 41.107 36.711 38.078 36.711 38.078"/>
                </g>
              </g>
            </g>
            <g class="cls-4">
              <polygon class="cls-3" points="34.184 79.007 0.111 59.207 0 19.8 34.072 39.601 34.184 79.007"/>
              <g class="cls-14">
                <g>
                  <polygon class="cls-6" points="34.174 75.976 31.553 74.452 31.563 77.483 34.182 79.006 34.174 75.976 34.174 75.976"/>
                  <polygon class="cls-6" points="34.166 72.944 31.545 71.42 31.553 74.452 34.174 75.976 34.166 72.944 34.166 72.944"/>
                  <polygon class="cls-7" points="34.157 69.912 31.537 68.389 31.545 71.42 34.166 72.944 34.157 69.912 34.157 69.912"/>
                  <polygon class="cls-8" points="34.148 66.882 31.528 65.357 31.537 68.389 34.157 69.912 34.148 66.882 34.148 66.882"/>
                  <polygon class="cls-6" points="34.14 63.853 31.52 62.33 31.528 65.357 34.148 66.882 34.14 63.853 34.14 63.853"/>
                  <polygon class="cls-9" points="34.132 60.82 31.512 59.297 31.52 62.33 34.14 63.853 34.132 60.82 34.132 60.82"/>
                  <polygon class="cls-9" points="34.122 57.788 31.501 56.266 31.512 59.297 34.132 60.82 34.122 57.788 34.122 57.788"/>
                  <polygon class="cls-8" points="34.113 54.757 31.493 53.233 31.501 56.266 34.122 57.788 34.113 54.757 34.113 54.757"/>
                  <polygon class="cls-9" points="34.104 51.726 31.485 50.204 31.493 53.233 34.113 54.757 34.104 51.726 34.104 51.726"/>
                  <polygon class="cls-9" points="34.097 48.693 31.476 47.172 31.485 50.204 34.104 51.726 34.097 48.693 34.097 48.693"/>
                  <polygon class="cls-9" points="34.089 45.662 31.468 44.139 31.476 47.172 34.097 48.693 34.089 45.662 34.089 45.662"/>
                  <polygon class="cls-8" points="34.079 42.63 31.46 41.107 31.468 44.139 34.089 45.662 34.079 42.63 34.079 42.63"/>
                  <polygon class="cls-10" points="34.071 39.601 31.451 38.078 31.46 41.107 34.079 42.63 34.071 39.601 34.071 39.601"/>
                  <polygon class="cls-8" points="31.553 74.452 28.935 72.929 28.941 75.961 31.563 77.483 31.553 74.452 31.553 74.452"/>
                  <polygon class="cls-8" points="31.545 71.42 28.925 69.897 28.935 72.929 31.553 74.452 31.545 71.42 31.545 71.42"/>
                  <polygon class="cls-8" points="31.537 68.389 28.917 66.866 28.925 69.897 31.545 71.42 31.537 68.389 31.537 68.389"/>
                  <polygon class="cls-9" points="31.528 65.357 28.908 63.836 28.917 66.866 31.537 68.389 31.528 65.357 31.528 65.357"/>
                  <polygon class="cls-6" points="31.52 62.33 28.899 60.807 28.908 63.836 31.528 65.357 31.52 62.33 31.52 62.33"/>
                  <polygon class="cls-11" points="31.512 59.297 28.892 57.774 28.899 60.807 31.52 62.33 31.512 59.297 31.512 59.297"/>
                  <polygon class="cls-7" points="31.501 56.266 28.882 54.741 28.892 57.774 31.512 59.297 31.501 56.266 31.501 56.266"/>
                  <polygon class="cls-8" points="31.493 53.233 28.872 51.711 28.882 54.741 31.501 56.266 31.493 53.233 31.493 53.233"/>
                  <polygon class="cls-9" points="31.485 50.204 28.864 48.68 28.872 51.711 31.493 53.233 31.485 50.204 31.485 50.204"/>
                  <polygon class="cls-6" points="31.476 47.172 28.856 45.648 28.864 48.68 31.485 50.204 31.476 47.172 31.476 47.172"/>
                  <polygon class="cls-7" points="31.468 44.139 28.848 42.617 28.856 45.648 31.476 47.172 31.468 44.139 31.468 44.139"/>
                  <polygon class="cls-12" points="31.46 41.107 28.839 39.584 28.848 42.617 31.468 44.139 31.46 41.107 31.46 41.107"/>
                  <polygon class="cls-8" points="31.451 38.078 28.831 36.556 28.839 39.584 31.46 41.107 31.451 38.078 31.451 38.078"/>
                  <polygon class="cls-6" points="28.935 72.929 26.311 71.407 26.32 74.437 28.941 75.961 28.935 72.929 28.935 72.929"/>
                  <polygon class="cls-9" points="28.925 69.897 26.304 68.374 26.311 71.407 28.935 72.929 28.925 69.897 28.925 69.897"/>
                  <polygon class="cls-7" points="28.917 66.866 26.295 65.343 26.304 68.374 28.925 69.897 28.917 66.866 28.917 66.866"/>
                  <polygon class="cls-9" points="28.908 63.836 26.287 62.312 26.295 65.343 28.917 66.866 28.908 63.836 28.908 63.836"/>
                  <polygon class="cls-9" points="28.899 60.807 26.278 59.282 26.287 62.312 28.908 63.836 28.899 60.807 28.899 60.807"/>
                  <polygon class="cls-9" points="28.892 57.774 26.27 56.252 26.278 59.282 28.899 60.807 28.892 57.774 28.892 57.774"/>
                  <polygon class="cls-9" points="28.882 54.741 26.261 53.22 26.27 56.252 28.892 57.774 28.882 54.741 28.882 54.741"/>
                  <polygon class="cls-8" points="28.872 51.711 26.252 50.187 26.261 53.22 28.882 54.741 28.872 51.711 28.872 51.711"/>
                  <polygon class="cls-9" points="28.864 48.68 26.243 47.156 26.252 50.187 28.872 51.711 28.864 48.68 28.864 48.68"/>
                  <polygon class="cls-9" points="28.856 45.648 26.234 44.124 26.243 47.156 28.864 48.68 28.856 45.648 28.856 45.648"/>
                  <polygon class="cls-8" points="28.848 42.617 26.227 41.094 26.234 44.124 28.856 45.648 28.848 42.617 28.848 42.617"/>
                  <polygon class="cls-13" points="28.839 39.584 26.218 38.062 26.227 41.094 28.848 42.617 28.839 39.584 28.839 39.584"/>
                  <polygon class="cls-6" points="28.831 36.556 26.209 35.031 26.218 38.062 28.839 39.584 28.831 36.556 28.831 36.556"/>
                  <polygon class="cls-7" points="26.311 71.407 23.69 69.884 23.699 72.913 26.32 74.437 26.311 71.407 26.311 71.407"/>
                  <polygon class="cls-9" points="26.304 68.374 23.683 66.852 23.69 69.884 26.311 71.407 26.304 68.374 26.304 68.374"/>
                  <polygon class="cls-9" points="26.295 65.343 23.675 63.819 23.683 66.852 26.304 68.374 26.295 65.343 26.295 65.343"/>
                  <polygon class="cls-8" points="26.287 62.312 23.665 60.788 23.675 63.819 26.295 65.343 26.287 62.312 26.287 62.312"/>
                  <polygon class="cls-6" points="26.278 59.282 23.657 57.76 23.665 60.788 26.287 62.312 26.278 59.282 26.278 59.282"/>
                  <polygon class="cls-8" points="26.27 56.252 23.649 54.728 23.657 57.76 26.278 59.282 26.27 56.252 26.27 56.252"/>
                  <polygon class="cls-9" points="26.261 53.22 23.638 51.696 23.649 54.728 26.27 56.252 26.261 53.22 26.261 53.22"/>
                  <polygon class="cls-9" points="26.252 50.187 23.63 48.663 23.638 51.696 26.261 53.22 26.252 50.187 26.252 50.187"/>
                  <polygon class="cls-9" points="26.243 47.156 23.622 45.634 23.63 48.663 26.252 50.187 26.243 47.156 26.243 47.156"/>
                  <polygon class="cls-8" points="26.234 44.124 23.613 42.602 23.622 45.634 26.243 47.156 26.234 44.124 26.234 44.124"/>
                  <polygon class="cls-9" points="26.227 41.094 23.605 39.569 23.613 42.602 26.234 44.124 26.227 41.094 26.227 41.094"/>
                  <polygon class="cls-8" points="26.218 38.062 23.597 36.538 23.605 39.569 26.227 41.094 26.218 38.062 26.218 38.062"/>
                  <polygon class="cls-8" points="26.209 35.031 23.587 33.509 23.597 36.538 26.218 38.062 26.209 35.031 26.209 35.031"/>
                  <polygon class="cls-9" points="23.69 69.884 21.071 68.359 21.079 71.391 23.699 72.913 23.69 69.884 23.69 69.884"/>
                  <polygon class="cls-9" points="23.683 66.852 21.061 65.328 21.071 68.359 23.69 69.884 23.683 66.852 23.683 66.852"/>
                  <polygon class="cls-9" points="23.675 63.819 21.054 62.296 21.061 65.328 23.683 66.852 23.675 63.819 23.675 63.819"/>
                  <polygon class="cls-6" points="23.665 60.788 21.046 59.267 21.054 62.296 23.675 63.819 23.665 60.788 23.665 60.788"/>
                  <polygon class="cls-8" points="23.657 57.76 21.037 56.236 21.046 59.267 23.665 60.788 23.657 57.76 23.657 57.76"/>
                  <polygon class="cls-9" points="23.649 54.728 21.028 53.206 21.037 56.236 23.657 57.76 23.649 54.728 23.649 54.728"/>
                  <polygon class="cls-8" points="23.638 51.696 21.018 50.173 21.028 53.206 23.649 54.728 23.638 51.696 23.638 51.696"/>
                  <polygon class="cls-9" points="23.63 48.663 21.01 47.142 21.018 50.173 23.638 51.696 23.63 48.663 23.63 48.663"/>
                  <polygon class="cls-8" points="23.622 45.634 21.002 44.111 21.01 47.142 23.63 48.663 23.622 45.634 23.622 45.634"/>
                  <polygon class="cls-9" points="23.613 42.602 20.993 41.078 21.002 44.111 23.622 45.634 23.613 42.602 23.613 42.602"/>
                  <polygon class="cls-9" points="23.605 39.569 20.984 38.047 20.993 41.078 23.613 42.602 23.605 39.569 23.605 39.569"/>
                  <polygon class="cls-7" points="23.597 36.538 20.977 35.015 20.984 38.047 23.605 39.569 23.597 36.538 23.597 36.538"/>
                  <polygon class="cls-9" points="23.587 33.509 20.968 31.987 20.977 35.015 23.597 36.538 23.587 33.509 23.587 33.509"/>
                  <polygon class="cls-8" points="21.071 68.359 18.449 66.836 18.457 69.866 21.079 71.391 21.071 68.359 21.071 68.359"/>
                  <polygon class="cls-9" points="21.061 65.328 18.44 63.805 18.449 66.836 21.071 68.359 21.061 65.328 21.061 65.328"/>
                  <polygon class="cls-7" points="21.054 62.296 18.433 60.773 18.44 63.805 21.061 65.328 21.054 62.296 21.054 62.296"/>
                  <polygon class="cls-9" points="21.046 59.267 18.424 57.742 18.433 60.773 21.054 62.296 21.046 59.267 21.046 59.267"/>
                  <polygon class="cls-8" points="21.037 56.236 18.416 54.713 18.424 57.742 21.046 59.267 21.037 56.236 21.037 56.236"/>
                  <polygon class="cls-9" points="21.028 53.206 18.405 51.681 18.416 54.713 21.037 56.236 21.028 53.206 21.028 53.206"/>
                  <polygon class="cls-9" points="21.018 50.173 18.397 48.649 18.405 51.681 21.028 53.206 21.018 50.173 21.018 50.173"/>
                  <polygon class="cls-8" points="21.01 47.142 18.388 45.617 18.397 48.649 21.018 50.173 21.01 47.142 21.01 47.142"/>
                  <polygon class="cls-9" points="21.002 44.111 18.38 42.587 18.388 45.617 21.01 47.142 21.002 44.111 21.002 44.111"/>
                  <polygon class="cls-8" points="20.993 41.078 18.372 39.554 18.38 42.587 21.002 44.111 20.993 41.078 20.993 41.078"/>
                  <polygon class="cls-9" points="20.984 38.047 18.364 36.522 18.372 39.554 20.993 41.078 20.984 38.047 20.984 38.047"/>
                  <polygon class="cls-9" points="20.977 35.015 18.354 33.491 18.364 36.522 20.984 38.047 20.977 35.015 20.977 35.015"/>
                  <polygon class="cls-13" points="20.968 31.987 18.346 30.464 18.354 33.491 20.977 35.015 20.968 31.987 20.968 31.987"/>
                  <polygon class="cls-9" points="18.449 66.836 15.827 65.314 15.837 68.345 18.457 69.866 18.449 66.836 18.449 66.836"/>
                  <polygon class="cls-8" points="18.44 63.805 15.819 62.281 15.827 65.314 18.449 66.836 18.44 63.805 18.44 63.805"/>
                  <polygon class="cls-9" points="18.433 60.773 15.811 59.249 15.819 62.281 18.44 63.805 18.433 60.773 18.433 60.773"/>
                  <polygon class="cls-8" points="18.424 57.742 15.803 56.219 15.811 59.249 18.433 60.773 18.424 57.742 18.424 57.742"/>
                  <polygon class="cls-9" points="18.416 54.713 15.793 53.191 15.803 56.219 18.424 57.742 18.416 54.713 18.416 54.713"/>
                  <polygon class="cls-9" points="18.405 51.681 15.783 50.158 15.793 53.191 18.416 54.713 18.405 51.681 18.405 51.681"/>
                  <polygon class="cls-7" points="18.397 48.649 15.775 47.126 15.783 50.158 18.405 51.681 18.397 48.649 18.397 48.649"/>
                  <polygon class="cls-9" points="18.388 45.617 15.768 44.094 15.775 47.126 18.397 48.649 18.388 45.617 18.388 45.617"/>
                  <polygon class="cls-8" points="18.38 42.587 15.759 41.064 15.768 44.094 18.388 45.617 18.38 42.587 18.38 42.587"/>
                  <polygon class="cls-6" points="18.372 39.554 15.751 38.032 15.759 41.064 18.38 42.587 18.372 39.554 18.372 39.554"/>
                  <polygon class="cls-7" points="18.364 36.522 15.742 34.999 15.751 38.032 18.372 39.554 18.364 36.522 18.364 36.522"/>
                  <polygon class="cls-9" points="18.354 33.491 15.732 31.968 15.742 34.999 18.364 36.522 18.354 33.491 18.354 33.491"/>
                  <polygon class="cls-10" points="18.346 30.464 15.725 28.939 15.732 31.968 18.354 33.491 18.346 30.464 18.346 30.464"/>
                  <polygon class="cls-9" points="15.827 65.314 13.206 63.79 13.215 66.82 15.837 68.345 15.827 65.314 15.827 65.314"/>
                  <polygon class="cls-9" points="15.819 62.281 13.198 60.757 13.206 63.79 15.827 65.314 15.819 62.281 15.819 62.281"/>
                  <polygon class="cls-8" points="15.811 59.249 13.19 57.725 13.198 60.757 15.819 62.281 15.811 59.249 15.811 59.249"/>
                  <polygon class="cls-9" points="15.803 56.219 13.179 54.696 13.19 57.725 15.811 59.249 15.803 56.219 15.803 56.219"/>
                  <polygon class="cls-9" points="15.793 53.191 13.171 51.668 13.179 54.696 15.803 56.219 15.793 53.191 15.793 53.191"/>
                  <polygon class="cls-6" points="15.783 50.158 13.163 48.636 13.171 51.668 15.793 53.191 15.783 50.158 15.783 50.158"/>
                  <polygon class="cls-9" points="15.775 47.126 13.154 45.603 13.163 48.636 15.783 50.158 15.775 47.126 15.775 47.126"/>
                  <polygon class="cls-8" points="15.768 44.094 13.145 42.57 13.154 45.603 15.775 47.126 15.768 44.094 15.768 44.094"/>
                  <polygon class="cls-9" points="15.759 41.064 13.138 39.54 13.145 42.57 15.768 44.094 15.759 41.064 15.759 41.064"/>
                  <polygon class="cls-8" points="15.751 38.032 13.129 36.509 13.138 39.54 15.759 41.064 15.751 38.032 15.751 38.032"/>
                  <polygon class="cls-9" points="15.742 34.999 13.12 33.477 13.129 36.509 15.751 38.032 15.742 34.999 15.742 34.999"/>
                  <polygon class="cls-9" points="15.732 31.968 13.112 30.444 13.12 33.477 15.742 34.999 15.732 31.968 15.732 31.968"/>
                  <polygon class="cls-9" points="15.725 28.939 13.102 27.415 13.112 30.444 15.732 31.968 15.725 28.939 15.725 28.939"/>
                  <polygon class="cls-7" points="13.206 63.79 10.587 62.267 10.595 65.297 13.215 66.82 13.206 63.79 13.206 63.79"/>
                  <polygon class="cls-6" points="13.198 60.757 10.577 59.235 10.587 62.267 13.206 63.79 13.198 60.757 13.198 60.757"/>
                  <polygon class="cls-9" points="13.19 57.725 10.569 56.204 10.577 59.235 13.198 60.757 13.19 57.725 13.19 57.725"/>
                  <polygon class="cls-8" points="13.179 54.696 10.561 53.172 10.569 56.204 13.19 57.725 13.179 54.696 13.179 54.696"/>
                  <polygon class="cls-6" points="13.171 51.668 10.552 50.144 10.561 53.172 13.179 54.696 13.171 51.668 13.171 51.668"/>
                  <polygon class="cls-9" points="13.163 48.636 10.542 47.112 10.552 50.144 13.171 51.668 13.163 48.636 13.163 48.636"/>
                  <polygon class="cls-9" points="13.154 45.603 10.534 44.082 10.542 47.112 13.163 48.636 13.154 45.603 13.154 45.603"/>
                  <polygon class="cls-7" points="13.145 42.57 10.525 41.048 10.534 44.082 13.154 45.603 13.145 42.57 13.145 42.57"/>
                  <polygon class="cls-9" points="13.138 39.54 10.518 38.019 10.525 41.048 13.145 42.57 13.138 39.54 13.138 39.54"/>
                  <polygon class="cls-9" points="13.129 36.509 10.509 34.986 10.518 38.019 13.138 39.54 13.129 36.509 13.129 36.509"/>
                  <polygon class="cls-8" points="13.12 33.477 10.499 31.954 10.509 34.986 13.129 36.509 13.12 33.477 13.12 33.477"/>
                  <polygon class="cls-8" points="13.112 30.444 10.492 28.924 10.499 31.954 13.12 33.477 13.112 30.444 13.112 30.444"/>
                  <polygon class="cls-8" points="13.102 27.415 10.483 25.895 10.492 28.924 13.112 30.444 13.102 27.415 13.102 27.415"/>
                  <polygon class="cls-11" points="10.587 62.267 7.966 60.744 7.974 63.774 10.595 65.297 10.587 62.267 10.587 62.267"/>
                  <polygon class="cls-8" points="10.577 59.235 7.958 57.713 7.966 60.744 10.587 62.267 10.577 59.235 10.577 59.235"/>
                  <polygon class="cls-9" points="10.569 56.204 7.949 54.681 7.958 57.713 10.577 59.235 10.569 56.204 10.569 56.204"/>
                  <polygon class="cls-9" points="10.561 53.172 7.94 51.65 7.949 54.681 10.569 56.204 10.561 53.172 10.561 53.172"/>
                  <polygon class="cls-9" points="10.552 50.144 7.933 48.622 7.94 51.65 10.561 53.172 10.552 50.144 10.552 50.144"/>
                  <polygon class="cls-9" points="10.542 47.112 7.923 45.59 7.933 48.622 10.552 50.144 10.542 47.112 10.542 47.112"/>
                  <polygon class="cls-7" points="10.534 44.082 7.914 42.558 7.923 45.59 10.542 47.112 10.534 44.082 10.534 44.082"/>
                  <polygon class="cls-12" points="10.525 41.048 7.905 39.526 7.914 42.558 10.534 44.082 10.525 41.048 10.525 41.048"/>
                  <polygon class="cls-8" points="10.518 38.019 7.896 36.495 7.905 39.526 10.525 41.048 10.518 38.019 10.518 38.019"/>
                  <polygon class="cls-9" points="10.509 34.986 7.889 33.464 7.896 36.495 10.518 38.019 10.509 34.986 10.509 34.986"/>
                  <polygon class="cls-9" points="10.499 31.954 7.881 30.432 7.889 33.464 10.509 34.986 10.499 31.954 10.499 31.954"/>
                  <polygon class="cls-13" points="10.492 28.924 7.872 27.398 7.881 30.432 10.499 31.954 10.492 28.924 10.492 28.924"/>
                  <polygon class="cls-6" points="10.483 25.895 7.862 24.37 7.872 27.398 10.492 28.924 10.483 25.895 10.483 25.895"/>
                  <polygon class="cls-7" points="7.966 60.744 5.346 59.223 5.354 62.253 7.974 63.774 7.966 60.744 7.966 60.744"/>
                  <polygon class="cls-9" points="7.958 57.713 5.337 56.19 5.346 59.223 7.966 60.744 7.958 57.713 7.958 57.713"/>
                  <polygon class="cls-7" points="7.949 54.681 5.329 53.157 5.337 56.19 7.958 57.713 7.949 54.681 7.949 54.681"/>
                  <polygon class="cls-8" points="7.94 51.65 5.32 50.129 5.329 53.157 7.949 54.681 7.94 51.65 7.94 51.65"/>
                  <polygon class="cls-6" points="7.933 48.622 5.313 47.1 5.32 50.129 7.94 51.65 7.933 48.622 7.933 48.622"/>
                  <polygon class="cls-7" points="7.923 45.59 5.304 44.066 5.313 47.1 7.933 48.622 7.923 45.59 7.923 45.59"/>
                  <polygon class="cls-9" points="7.914 42.558 5.294 41.035 5.304 44.066 7.923 45.59 7.914 42.558 7.914 42.558"/>
                  <polygon class="cls-6" points="7.905 39.526 5.286 38.003 5.294 41.035 7.914 42.558 7.905 39.526 7.905 39.526"/>
                  <polygon class="cls-9" points="7.896 36.495 5.277 34.974 5.286 38.003 7.905 39.526 7.896 36.495 7.896 36.495"/>
                  <polygon class="cls-8" points="7.889 33.464 5.269 31.941 5.277 34.974 7.896 36.495 7.889 33.464 7.889 33.464"/>
                  <polygon class="cls-9" points="7.881 30.432 5.26 28.908 5.269 31.941 7.889 33.464 7.881 30.432 7.881 30.432"/>
                  <polygon class="cls-8" points="7.872 27.398 5.252 25.877 5.26 28.908 7.881 30.432 7.872 27.398 7.872 27.398"/>
                  <polygon class="cls-9" points="7.862 24.37 5.242 22.848 5.252 25.877 7.872 27.398 7.862 24.37 7.862 24.37"/>
                  <polygon class="cls-6" points="5.346 59.223 2.725 57.699 2.732 60.729 5.354 62.253 5.346 59.223 5.346 59.223"/>
                  <polygon class="cls-7" points="5.337 56.19 2.716 54.667 2.725 57.699 5.346 59.223 5.337 56.19 5.337 56.19"/>
                  <polygon class="cls-12" points="5.329 53.157 2.708 51.636 2.716 54.667 5.337 56.19 5.329 53.157 5.329 53.157"/>
                  <polygon class="cls-12" points="5.32 50.129 2.7 48.605 2.708 51.636 5.329 53.157 5.32 50.129 5.32 50.129"/>
                  <polygon class="cls-8" points="5.313 47.1 2.689 45.576 2.7 48.605 5.32 50.129 5.313 47.1 5.313 47.1"/>
                  <polygon class="cls-10" points="5.304 44.066 2.683 42.544 2.689 45.576 5.313 47.1 5.304 44.066 5.304 44.066"/>
                  <polygon class="cls-8" points="5.294 41.035 2.673 39.512 2.683 42.544 5.304 44.066 5.294 41.035 5.294 41.035"/>
                  <polygon class="cls-6" points="5.286 38.003 2.663 36.48 2.673 39.512 5.294 41.035 5.286 38.003 5.286 38.003"/>
                  <polygon class="cls-6" points="5.277 34.974 2.655 33.449 2.663 36.48 5.286 38.003 5.277 34.974 5.277 34.974"/>
                  <polygon class="cls-9" points="5.269 31.941 2.647 30.418 2.655 33.449 5.277 34.974 5.269 31.941 5.269 31.941"/>
                  <polygon class="cls-9" points="5.26 28.908 2.639 27.386 2.647 30.418 5.269 31.941 5.26 28.908 5.26 28.908"/>
                  <polygon class="cls-12" points="5.252 25.877 2.63 24.353 2.639 27.386 5.26 28.908 5.252 25.877 5.252 25.877"/>
                  <polygon class="cls-8" points="5.242 22.848 2.622 21.324 2.63 24.353 5.252 25.877 5.242 22.848 5.242 22.848"/>
                  <polygon class="cls-7" points="2.725 57.699 0.104 56.177 0.112 59.206 2.732 60.729 2.725 57.699 2.725 57.699"/>
                  <polygon class="cls-9" points="2.716 54.667 0.097 53.145 0.104 56.177 2.725 57.699 2.716 54.667 2.716 54.667"/>
                  <polygon class="cls-7" points="2.708 51.636 0.087 50.112 0.097 53.145 2.716 54.667 2.708 51.636 2.708 51.636"/>
                  <polygon class="cls-8" points="2.7 48.605 0.079 47.081 0.087 50.112 2.708 51.636 2.7 48.605 2.7 48.605"/>
                  <polygon class="cls-9" points="2.689 45.576 0.07 44.053 0.079 47.081 2.7 48.605 2.689 45.576 2.689 45.576"/>
                  <polygon class="cls-9" points="2.683 42.544 0.063 41.022 0.07 44.053 2.689 45.576 2.683 42.544 2.683 42.544"/>
                  <polygon class="cls-9" points="2.673 39.512 0.053 37.989 0.063 41.022 2.683 42.544 2.673 39.512 2.673 39.512"/>
                  <polygon class="cls-8" points="2.663 36.48 0.045 34.956 0.053 37.989 2.673 39.512 2.663 36.48 2.663 36.48"/>
                  <polygon class="cls-6" points="2.655 33.449 0.035 31.927 0.045 34.956 2.663 36.48 2.655 33.449 2.655 33.449"/>
                  <polygon class="cls-9" points="2.647 30.418 0.027 28.894 0.035 31.927 2.655 33.449 2.647 30.418 2.647 30.418"/>
                  <polygon class="cls-7" points="2.639 27.386 0.019 25.863 0.027 28.894 2.647 30.418 2.639 27.386 2.639 27.386"/>
                  <polygon class="cls-8" points="2.63 24.353 0.009 22.832 0.019 25.863 2.639 27.386 2.63 24.353 2.63 24.353"/>
                  <polygon class="cls-9" points="2.622 21.324 0.001 19.802 0.009 22.832 2.63 24.353 2.622 21.324 2.622 21.324"/>
                </g>
              </g>
            </g>
            <g class="cls-4">
              <polygon class="cls-3" points="34.072 39.601 0 19.8 34.295 0 68.366 19.8 34.072 39.601"/>
              <g class="cls-15">
                <g>
                  <polygon class="cls-6" points="65.744 18.276 63.107 19.8 65.728 21.323 68.365 19.8 65.744 18.276 65.744 18.276"/>
                  <polygon class="cls-6" points="63.123 16.754 60.484 18.276 63.107 19.8 65.744 18.276 63.123 16.754 63.123 16.754"/>
                  <polygon class="cls-7" points="60.502 15.23 57.862 16.753 60.484 18.276 63.123 16.754 60.502 15.23 60.502 15.23"/>
                  <polygon class="cls-8" points="57.882 13.708 55.245 15.23 57.862 16.753 60.502 15.23 57.882 13.708 57.882 13.708"/>
                  <polygon class="cls-6" points="55.263 12.185 52.625 13.708 55.245 15.23 57.882 13.708 55.263 12.185 55.263 12.185"/>
                  <polygon class="cls-9" points="52.641 10.662 50.003 12.185 52.625 13.708 55.263 12.185 52.641 10.662 52.641 10.662"/>
                  <polygon class="cls-9" points="50.02 9.14 47.384 10.662 50.003 12.185 52.641 10.662 50.02 9.14 50.02 9.14"/>
                  <polygon class="cls-8" points="47.398 7.615 44.763 9.14 47.384 10.662 50.02 9.14 47.398 7.615 47.398 7.615"/>
                  <polygon class="cls-9" points="44.778 6.093 42.141 7.615 44.763 9.14 47.398 7.615 44.778 6.093 44.778 6.093"/>
                  <polygon class="cls-9" points="42.156 4.569 39.519 6.091 42.141 7.615 44.778 6.093 42.156 4.569 42.156 4.569"/>
                  <polygon class="cls-9" points="39.535 3.046 36.897 4.568 39.519 6.091 42.156 4.569 39.535 3.046 39.535 3.046"/>
                  <polygon class="cls-8" points="36.915 1.523 34.276 3.046 36.897 4.568 39.535 3.046 36.915 1.523 36.915 1.523"/>
                  <polygon class="cls-10" points="34.295 0 31.658 1.523 34.276 3.046 36.915 1.523 34.295 0 34.295 0"/>
                  <polygon class="cls-8" points="63.107 19.8 60.47 21.322 63.09 22.846 65.728 21.323 63.107 19.8 63.107 19.8"/>
                  <polygon class="cls-8" points="60.484 18.276 57.848 19.798 60.47 21.322 63.107 19.8 60.484 18.276 60.484 18.276"/>
                  <polygon class="cls-8" points="57.862 16.753 55.226 18.275 57.848 19.798 60.484 18.276 57.862 16.753 57.862 16.753"/>
                  <polygon class="cls-9" points="55.245 15.23 52.606 16.754 55.226 18.275 57.862 16.753 55.245 15.23 55.245 15.23"/>
                  <polygon class="cls-6" points="52.625 13.708 49.988 15.23 52.606 16.754 55.245 15.23 52.625 13.708 52.625 13.708"/>
                  <polygon class="cls-9" points="50.003 12.185 47.366 13.706 49.988 15.23 52.625 13.708 50.003 12.185 50.003 12.185"/>
                  <polygon class="cls-7" points="47.384 10.662 44.746 12.185 47.366 13.706 50.003 12.185 47.384 10.662 47.384 10.662"/>
                  <polygon class="cls-8" points="44.763 9.14 42.126 10.661 44.746 12.185 47.384 10.662 44.763 9.14 44.763 9.14"/>
                  <polygon class="cls-9" points="42.141 7.615 39.504 9.138 42.126 10.661 44.763 9.14 42.141 7.615 42.141 7.615"/>
                  <polygon class="cls-6" points="39.519 6.091 36.882 7.613 39.504 9.138 42.141 7.615 39.519 6.091 39.519 6.091"/>
                  <polygon class="cls-7" points="36.897 4.568 34.26 6.091 36.882 7.613 39.519 6.091 36.897 4.568 36.897 4.568"/>
                  <polygon class="cls-12" points="34.276 3.046 31.641 4.568 34.26 6.091 36.897 4.568 34.276 3.046 34.276 3.046"/>
                  <polygon class="cls-8" points="31.658 1.523 29.02 3.046 31.641 4.568 34.276 3.046 31.658 1.523 31.658 1.523"/>
                  <polygon class="cls-6" points="60.47 21.322 57.83 22.846 60.451 24.369 63.09 22.846 60.47 21.322 60.47 21.322"/>
                  <polygon class="cls-9" points="57.848 19.798 55.208 21.322 57.83 22.846 60.47 21.322 57.848 19.798 57.848 19.798"/>
                  <polygon class="cls-7" points="55.226 18.275 52.588 19.798 55.208 21.322 57.848 19.798 55.226 18.275 55.226 18.275"/>
                  <polygon class="cls-9" points="52.606 16.754 49.97 18.276 52.588 19.798 55.226 18.275 52.606 16.754 52.606 16.754"/>
                  <polygon class="cls-9" points="49.988 15.23 47.35 16.755 49.97 18.276 52.606 16.754 49.988 15.23 49.988 15.23"/>
                  <polygon class="cls-9" points="47.366 13.706 44.727 15.23 47.35 16.755 49.988 15.23 47.366 13.706 47.366 13.706"/>
                  <polygon class="cls-9" points="44.746 12.185 42.107 13.708 44.727 15.23 47.366 13.706 44.746 12.185 44.746 12.185"/>
                  <polygon class="cls-6" points="42.126 10.661 39.486 12.185 42.107 13.708 44.746 12.185 42.126 10.661 42.126 10.661"/>
                  <polygon class="cls-7" points="39.504 9.138 36.865 10.661 39.486 12.185 42.126 10.661 39.504 9.138 39.504 9.138"/>
                  <polygon class="cls-12" points="36.882 7.613 34.244 9.138 36.865 10.661 39.504 9.138 36.882 7.613 36.882 7.613"/>
                  <polygon class="cls-8" points="34.26 6.091 31.622 7.613 34.244 9.138 36.882 7.613 34.26 6.091 34.26 6.091"/>
                  <polygon class="cls-13" points="31.641 4.568 29.003 6.091 31.622 7.613 34.26 6.091 31.641 4.568 31.641 4.568"/>
                  <polygon class="cls-6" points="29.02 3.046 26.382 4.569 29.003 6.091 31.641 4.568 29.02 3.046 29.02 3.046"/>
                  <polygon class="cls-7" points="57.83 22.846 55.192 24.369 57.813 25.894 60.451 24.369 57.83 22.846 57.83 22.846"/>
                  <polygon class="cls-9" points="55.208 21.322 52.571 22.846 55.192 24.369 57.83 22.846 55.208 21.322 55.208 21.322"/>
                  <polygon class="cls-9" points="52.588 19.798 49.948 21.322 52.571 22.846 55.208 21.322 52.588 19.798 52.588 19.798"/>
                  <polygon class="cls-8" points="49.97 18.276 47.331 19.8 49.948 21.322 52.588 19.798 49.97 18.276 49.97 18.276"/>
                  <polygon class="cls-6" points="47.35 16.755 44.71 18.277 47.331 19.8 49.97 18.276 47.35 16.755 47.35 16.755"/>
                  <polygon class="cls-9" points="44.727 15.23 42.089 16.755 44.71 18.277 47.35 16.755 44.727 15.23 44.727 15.23"/>
                  <polygon class="cls-7" points="42.107 13.708 39.469 15.231 42.089 16.755 44.727 15.23 42.107 13.708 42.107 13.708"/>
                  <polygon class="cls-6" points="39.486 12.185 36.849 13.707 39.469 15.231 42.107 13.708 39.486 12.185 39.486 12.185"/>
                  <polygon class="cls-9" points="36.865 10.661 34.226 12.185 36.849 13.707 39.486 12.185 36.865 10.661 36.865 10.661"/>
                  <polygon class="cls-6" points="34.244 9.138 31.604 10.661 34.226 12.185 36.865 10.661 34.244 9.138 34.244 9.138"/>
                  <polygon class="cls-9" points="31.622 7.613 28.982 9.138 31.604 10.661 34.244 9.138 31.622 7.613 31.622 7.613"/>
                  <polygon class="cls-8" points="29.003 6.091 26.362 7.615 28.982 9.138 31.622 7.613 29.003 6.091 29.003 6.091"/>
                  <polygon class="cls-8" points="26.382 4.569 23.741 6.093 26.362 7.615 29.003 6.091 26.382 4.569 26.382 4.569"/>
                  <polygon class="cls-9" points="55.192 24.369 52.555 25.893 55.177 27.415 57.813 25.894 55.192 24.369 55.192 24.369"/>
                  <polygon class="cls-9" points="52.571 22.846 49.933 24.367 52.555 25.893 55.192 24.369 52.571 22.846 52.571 22.846"/>
                  <polygon class="cls-9" points="49.948 21.322 47.311 22.845 49.933 24.367 52.571 22.846 49.948 21.322 49.948 21.322"/>
                  <polygon class="cls-6" points="47.331 19.8 44.693 21.323 47.311 22.845 49.948 21.322 47.331 19.8 47.331 19.8"/>
                  <polygon class="cls-8" points="44.71 18.277 42.073 19.8 44.693 21.323 47.331 19.8 44.71 18.277 44.71 18.277"/>
                  <polygon class="cls-8" points="42.089 16.755 39.452 18.276 42.073 19.8 44.71 18.277 42.089 16.755 42.089 16.755"/>
                  <polygon class="cls-12" points="39.469 15.231 36.831 16.755 39.452 18.276 42.089 16.755 39.469 15.231 39.469 15.231"/>
                  <polygon class="cls-12" points="36.849 13.707 34.21 15.23 36.831 16.755 39.469 15.231 36.849 13.707 36.849 13.707"/>
                  <polygon class="cls-6" points="34.226 12.185 31.588 13.706 34.21 15.23 36.849 13.707 34.226 12.185 34.226 12.185"/>
                  <polygon class="cls-9" points="31.604 10.661 28.967 12.184 31.588 13.706 34.226 12.185 31.604 10.661 31.604 10.661"/>
                  <polygon class="cls-9" points="28.982 9.138 26.345 10.661 28.967 12.184 31.604 10.661 28.982 9.138 28.982 9.138"/>
                  <polygon class="cls-7" points="26.362 7.615 23.726 9.138 26.345 10.661 28.982 9.138 26.362 7.615 26.362 7.615"/>
                  <polygon class="cls-9" points="23.741 6.093 21.104 7.615 23.726 9.138 26.362 7.615 23.741 6.093 23.741 6.093"/>
                  <polygon class="cls-11" points="52.555 25.893 49.916 27.415 52.538 28.938 55.177 27.415 52.555 25.893 52.555 25.893"/>
                  <polygon class="cls-6" points="49.933 24.367 47.295 25.893 49.916 27.415 52.555 25.893 49.933 24.367 49.933 24.367"/>
                  <polygon class="cls-7" points="47.311 22.845 44.674 24.367 47.295 25.893 49.933 24.367 47.311 22.845 47.311 22.845"/>
                  <polygon class="cls-6" points="44.693 21.323 42.055 22.846 44.674 24.367 47.311 22.845 44.693 21.323 44.693 21.323"/>
                  <polygon class="cls-6" points="42.073 19.8 39.434 21.324 42.055 22.846 44.693 21.323 42.073 19.8 42.073 19.8"/>
                  <polygon class="cls-9" points="39.452 18.276 36.813 19.8 39.434 21.324 42.073 19.8 39.452 18.276 39.452 18.276"/>
                  <polygon class="cls-9" points="36.831 16.755 34.192 18.277 36.813 19.8 39.452 18.276 36.831 16.755 36.831 16.755"/>
                  <polygon class="cls-8" points="34.21 15.23 31.571 16.755 34.192 18.277 36.831 16.755 34.21 15.23 34.21 15.23"/>
                  <polygon class="cls-9" points="31.588 13.706 28.949 15.23 31.571 16.755 34.21 15.23 31.588 13.706 31.588 13.706"/>
                  <polygon class="cls-9" points="28.967 12.184 26.329 13.706 28.949 15.23 31.588 13.706 28.967 12.184 28.967 12.184"/>
                  <polygon class="cls-7" points="26.345 10.661 23.707 12.184 26.329 13.706 28.967 12.184 26.345 10.661 26.345 10.661"/>
                  <polygon class="cls-8" points="23.726 9.138 21.087 10.661 23.707 12.184 26.345 10.661 23.726 9.138 23.726 9.138"/>
                  <polygon class="cls-13" points="21.104 7.615 18.468 9.14 21.087 10.661 23.726 9.138 21.104 7.615 21.104 7.615"/>
                  <polygon class="cls-6" points="49.916 27.415 47.278 28.938 49.899 30.461 52.538 28.938 49.916 27.415 49.916 27.415"/>
                  <polygon class="cls-7" points="47.295 25.893 44.657 27.415 47.278 28.938 49.916 27.415 47.295 25.893 47.295 25.893"/>
                  <polygon class="cls-9" points="44.674 24.367 42.035 25.893 44.657 27.415 47.295 25.893 44.674 24.367 44.674 24.367"/>
                  <polygon class="cls-8" points="42.055 22.846 39.417 24.37 42.035 25.893 44.674 24.367 42.055 22.846 42.055 22.846"/>
                  <polygon class="cls-11" points="39.434 21.324 36.796 22.848 39.417 24.37 42.055 22.846 39.434 21.324 39.434 21.324"/>
                  <polygon class="cls-9" points="36.813 19.8 34.175 21.324 36.796 22.848 39.434 21.324 36.813 19.8 36.813 19.8"/>
                  <polygon class="cls-7" points="34.192 18.277 31.554 19.8 34.175 21.324 36.813 19.8 34.192 18.277 34.192 18.277"/>
                  <polygon class="cls-9" points="31.571 16.755 28.934 18.277 31.554 19.8 34.192 18.277 31.571 16.755 31.571 16.755"/>
                  <polygon class="cls-9" points="28.949 15.23 26.311 16.755 28.934 18.277 31.571 16.755 28.949 15.23 28.949 15.23"/>
                  <polygon class="cls-9" points="26.329 13.706 23.689 15.23 26.311 16.755 28.949 15.23 26.329 13.706 26.329 13.706"/>
                  <polygon class="cls-7" points="23.707 12.184 21.067 13.706 23.689 15.23 26.329 13.706 23.707 12.184 23.707 12.184"/>
                  <polygon class="cls-13" points="21.087 10.661 18.449 12.185 21.067 13.706 23.707 12.184 21.087 10.661 21.087 10.661"/>
                  <polygon class="cls-10" points="18.468 9.14 15.829 10.662 18.449 12.185 21.087 10.661 18.468 9.14 18.468 9.14"/>
                  <polygon class="cls-8" points="47.278 28.938 44.638 30.461 47.262 31.985 49.899 30.461 47.278 28.938 47.278 28.938"/>
                  <polygon class="cls-9" points="44.657 27.415 42.017 28.938 44.638 30.461 47.278 28.938 44.657 27.415 44.657 27.415"/>
                  <polygon class="cls-8" points="42.035 25.893 39.395 27.415 42.017 28.938 44.657 27.415 42.035 25.893 42.035 25.893"/>
                  <polygon class="cls-12" points="39.417 24.37 36.777 25.895 39.395 27.415 42.035 25.893 39.417 24.37 39.417 24.37"/>
                  <polygon class="cls-9" points="36.796 22.848 34.157 24.37 36.777 25.895 39.417 24.37 36.796 22.848 36.796 22.848"/>
                  <polygon class="cls-6" points="34.175 21.324 31.536 22.848 34.157 24.37 36.796 22.848 34.175 21.324 34.175 21.324"/>
                  <polygon class="cls-9" points="31.554 19.8 28.915 21.324 31.536 22.848 34.175 21.324 31.554 19.8 31.554 19.8"/>
                  <polygon class="cls-8" points="28.934 18.277 26.294 19.8 28.915 21.324 31.554 19.8 28.934 18.277 28.934 18.277"/>
                  <polygon class="cls-11" points="26.311 16.755 23.673 18.277 26.294 19.8 28.934 18.277 26.311 16.755 26.311 16.755"/>
                  <polygon class="cls-9" points="23.689 15.23 21.052 16.755 23.673 18.277 26.311 16.755 23.689 15.23 23.689 15.23"/>
                  <polygon class="cls-9" points="21.067 13.706 18.429 15.23 21.052 16.755 23.689 15.23 21.067 13.706 21.067 13.706"/>
                  <polygon class="cls-12" points="18.449 12.185 15.811 13.707 18.429 15.23 21.067 13.706 18.449 12.185 18.449 12.185"/>
                  <polygon class="cls-9" points="15.829 10.662 13.19 12.185 15.811 13.707 18.449 12.185 15.829 10.662 15.829 10.662"/>
                  <polygon class="cls-7" points="44.638 30.461 42.001 31.984 44.623 33.508 47.262 31.985 44.638 30.461 44.638 30.461"/>
                  <polygon class="cls-6" points="42.017 28.938 39.38 30.461 42.001 31.984 44.638 30.461 42.017 28.938 42.017 28.938"/>
                  <polygon class="cls-9" points="39.395 27.415 36.758 28.937 39.38 30.461 42.017 28.938 39.395 27.415 39.395 27.415"/>
                  <polygon class="cls-8" points="36.777 25.895 34.14 27.415 36.758 28.937 39.395 27.415 36.777 25.895 36.777 25.895"/>
                  <polygon class="cls-6" points="34.157 24.37 31.52 25.895 34.14 27.415 36.777 25.895 34.157 24.37 34.157 24.37"/>
                  <polygon class="cls-9" points="31.536 22.848 28.897 24.37 31.52 25.895 34.157 24.37 31.536 22.848 31.536 22.848"/>
                  <polygon class="cls-9" points="28.915 21.324 26.278 22.848 28.897 24.37 31.536 22.848 28.915 21.324 28.915 21.324"/>
                  <polygon class="cls-7" points="26.294 19.8 23.657 21.324 26.278 22.848 28.915 21.324 26.294 19.8 26.294 19.8"/>
                  <polygon class="cls-9" points="23.673 18.277 21.034 19.8 23.657 21.324 26.294 19.8 23.673 18.277 23.673 18.277"/>
                  <polygon class="cls-9" points="21.052 16.755 18.414 18.276 21.034 19.8 23.673 18.277 21.052 16.755 21.052 16.755"/>
                  <polygon class="cls-6" points="18.429 15.23 15.793 16.754 18.414 18.276 21.052 16.755 18.429 15.23 18.429 15.23"/>
                  <polygon class="cls-8" points="15.811 13.707 13.172 15.23 15.793 16.754 18.429 15.23 15.811 13.707 15.811 13.707"/>
                  <polygon class="cls-8" points="13.19 12.185 10.553 13.707 13.172 15.23 15.811 13.707 13.19 12.185 13.19 12.185"/>
                  <polygon class="cls-11" points="42.001 31.984 39.364 33.507 41.985 35.03 44.623 33.508 42.001 31.984 42.001 31.984"/>
                  <polygon class="cls-9" points="39.38 30.461 36.743 31.983 39.364 33.507 42.001 31.984 39.38 30.461 39.38 30.461"/>
                  <polygon class="cls-9" points="36.758 28.937 34.122 30.46 36.743 31.983 39.38 30.461 36.758 28.937 36.758 28.937"/>
                  <polygon class="cls-9" points="34.14 27.415 31.502 28.938 34.122 30.46 36.758 28.937 34.14 27.415 34.14 27.415"/>
                  <polygon class="cls-9" points="31.52 25.895 28.884 27.415 31.502 28.938 34.14 27.415 31.52 25.895 31.52 25.895"/>
                  <polygon class="cls-9" points="28.897 24.37 26.261 25.893 28.884 27.415 31.52 25.895 28.897 24.37 28.897 24.37"/>
                  <polygon class="cls-7" points="26.278 22.848 23.642 24.37 26.261 25.893 28.897 24.37 26.278 22.848 26.278 22.848"/>
                  <polygon class="cls-12" points="23.657 21.324 21.02 22.846 23.642 24.37 26.278 22.848 23.657 21.324 23.657 21.324"/>
                  <polygon class="cls-11" points="21.034 19.8 18.398 21.323 21.02 22.846 23.657 21.324 21.034 19.8 21.034 19.8"/>
                  <polygon class="cls-7" points="18.414 18.276 15.776 19.799 18.398 21.323 21.034 19.8 18.414 18.276 18.414 18.276"/>
                  <polygon class="cls-8" points="15.793 16.754 13.155 18.276 15.776 19.799 18.414 18.276 15.793 16.754 15.793 16.754"/>
                  <polygon class="cls-13" points="13.172 15.23 10.535 16.754 13.155 18.276 15.793 16.754 13.172 15.23 13.172 15.23"/>
                  <polygon class="cls-6" points="10.553 13.707 7.916 15.23 10.535 16.754 13.172 15.23 10.553 13.707 10.553 13.707"/>
                  <polygon class="cls-7" points="39.364 33.507 36.727 35.029 39.349 36.553 41.985 35.03 39.364 33.507 39.364 33.507"/>
                  <polygon class="cls-9" points="36.743 31.983 34.105 33.507 36.727 35.029 39.364 33.507 36.743 31.983 36.743 31.983"/>
                  <polygon class="cls-7" points="34.122 30.46 31.485 31.983 34.105 33.507 36.743 31.983 34.122 30.46 34.122 30.46"/>
                  <polygon class="cls-8" points="31.502 28.938 28.865 30.461 31.485 31.983 34.122 30.46 31.502 28.938 31.502 28.938"/>
                  <polygon class="cls-6" points="28.884 27.415 26.247 28.938 28.865 30.461 31.502 28.938 28.884 27.415 28.884 27.415"/>
                  <polygon class="cls-7" points="26.261 25.893 23.624 27.415 26.247 28.938 28.884 27.415 26.261 25.893 26.261 25.893"/>
                  <polygon class="cls-9" points="23.642 24.37 21.005 25.893 23.624 27.415 26.261 25.893 23.642 24.37 23.642 24.37"/>
                  <polygon class="cls-6" points="21.02 22.846 18.383 24.369 21.005 25.893 23.642 24.37 21.02 22.846 21.02 22.846"/>
                  <polygon class="cls-11" points="18.398 21.323 15.761 22.846 18.383 24.369 21.02 22.846 18.398 21.323 18.398 21.323"/>
                  <polygon class="cls-6" points="15.776 19.799 13.14 21.322 15.761 22.846 18.398 21.323 15.776 19.799 15.776 19.799"/>
                  <polygon class="cls-9" points="13.155 18.276 10.519 19.798 13.14 21.322 15.776 19.799 13.155 18.276 13.155 18.276"/>
                  <polygon class="cls-8" points="10.535 16.754 7.897 18.276 10.519 19.798 13.155 18.276 10.535 16.754 10.535 16.754"/>
                  <polygon class="cls-9" points="7.916 15.23 5.279 16.754 7.897 18.276 10.535 16.754 7.916 15.23 7.916 15.23"/>
                  <polygon class="cls-6" points="36.727 35.029 34.089 36.553 36.711 38.076 39.349 36.553 36.727 35.029 36.727 35.029"/>
                  <polygon class="cls-7" points="34.105 33.507 31.467 35.029 34.089 36.553 36.727 35.029 34.105 33.507 34.105 33.507"/>
                  <polygon class="cls-12" points="31.485 31.983 28.846 33.507 31.467 35.029 34.105 33.507 31.485 31.983 31.485 31.983"/>
                  <polygon class="cls-12" points="28.865 30.461 26.227 31.984 28.846 33.507 31.485 31.983 28.865 30.461 28.865 30.461"/>
                  <polygon class="cls-8" points="26.247 28.938 23.607 30.461 26.227 31.984 28.865 30.461 26.247 28.938 26.247 28.938"/>
                  <polygon class="cls-10" points="23.624 27.415 20.984 28.938 23.607 30.461 26.247 28.938 23.624 27.415 23.624 27.415"/>
                  <polygon class="cls-8" points="21.005 25.893 18.366 27.415 20.984 28.938 23.624 27.415 21.005 25.893 21.005 25.893"/>
                  <polygon class="cls-6" points="18.383 24.369 15.744 25.893 18.366 27.415 21.005 25.893 18.383 24.369 18.383 24.369"/>
                  <polygon class="cls-6" points="15.761 22.846 13.122 24.369 15.744 25.893 18.383 24.369 15.761 22.846 15.761 22.846"/>
                  <polygon class="cls-9" points="13.14 21.322 10.5 22.846 13.122 24.369 15.761 22.846 13.14 21.322 13.14 21.322"/>
                  <polygon class="cls-9" points="10.519 19.798 7.88 21.322 10.5 22.846 13.14 21.322 10.519 19.798 10.519 19.798"/>
                  <polygon class="cls-12" points="7.897 18.276 5.259 19.799 7.88 21.322 10.519 19.798 7.897 18.276 7.897 18.276"/>
                  <polygon class="cls-8" points="5.279 16.754 2.639 18.276 5.259 19.799 7.897 18.276 5.279 16.754 5.279 16.754"/>
                  <polygon class="cls-7" points="34.089 36.553 31.451 38.075 34.072 39.6 36.711 38.076 34.089 36.553 34.089 36.553"/>
                  <polygon class="cls-9" points="31.467 35.029 28.83 36.553 31.451 38.075 34.089 36.553 31.467 35.029 31.467 35.029"/>
                  <polygon class="cls-7" points="28.846 33.507 26.209 35.028 28.83 36.553 31.467 35.029 28.846 33.507 28.846 33.507"/>
                  <polygon class="cls-8" points="26.227 31.984 23.589 33.507 26.209 35.028 28.846 33.507 26.227 31.984 26.227 31.984"/>
                  <polygon class="cls-9" points="23.607 30.461 20.971 31.984 23.589 33.507 26.227 31.984 23.607 30.461 23.607 30.461"/>
                  <polygon class="cls-9" points="20.984 28.938 18.348 30.461 20.971 31.984 23.607 30.461 20.984 28.938 20.984 28.938"/>
                  <polygon class="cls-9" points="18.366 27.415 15.727 28.938 18.348 30.461 20.984 28.938 18.366 27.415 18.366 27.415"/>
                  <polygon class="cls-8" points="15.744 25.893 13.106 27.413 15.727 28.938 18.366 27.415 15.744 25.893 15.744 25.893"/>
                  <polygon class="cls-6" points="13.122 24.369 10.485 25.893 13.106 27.413 15.744 25.893 13.122 24.369 13.122 24.369"/>
                  <polygon class="cls-9" points="10.5 22.846 7.863 24.367 10.485 25.893 13.122 24.369 10.5 22.846 10.5 22.846"/>
                  <polygon class="cls-7" points="7.88 21.322 5.242 22.845 7.863 24.367 10.5 22.846 7.88 21.322 7.88 21.322"/>
                  <polygon class="cls-8" points="5.259 19.799 2.622 21.322 5.242 22.845 7.88 21.322 5.259 19.799 5.259 19.799"/>
                  <polygon class="cls-9" points="2.639 18.276 0.002 19.799 2.622 21.322 5.259 19.799 2.639 18.276 2.639 18.276"/>
                </g>
              </g>
            </g>
          </g>
          <g>
            <g class="cls-16">
              <polygon class="cls-17" points="68.366 19.8 68.478 59.209 34.186 79.007 34.073 39.601 68.366 19.8"/>
            </g>
            <polygon class="cls-18" points="34.186 79.007 0.112 59.207 0.001 19.799 34.073 39.601 34.186 79.007"/>
            <polygon class="cls-19" points="34.073 39.601 0.001 19.799 34.295 0 68.366 19.8 34.073 39.601"/>
          </g>
        </g>
      </g>
    </g>
  </g>
</svg>
