<svg xmlns="http://www.w3.org/2000/svg" xmlns:xlink="http://www.w3.org/1999/xlink" viewBox="0 0 400 300">
  <defs>
    <style>
      .cls-1 {
        fill: #3b2d47;
      }

      .cls-2 {
        fill: #362746;
      }

      .cls-3 {
        fill: #47445b;
      }

      .cls-4 {
        fill: #94564d;
      }

      .cls-5 {
        fill: #706a73;
      }

      .cls-6 {
        fill: #5d5665;
      }

      .cls-7 {
        fill: #4a445b;
      }

      .cls-8 {
        fill: #434258;
      }

      .cls-9 {
        fill: #525067;
      }

      .cls-10 {
        fill: #5e5b6b;
      }

      .cls-11 {
        fill: #312c4d;
      }

      .cls-12 {
        fill: #858283;
      }

      .cls-13 {
        fill: #9a989a;
      }

      .cls-14 {
        fill: #46405b;
      }

      .cls-15 {
        fill: #655b6b;
      }

      .cls-16 {
        fill: #3d314a;
      }

      .cls-17 {
        fill: #857d83;
      }

      .cls-18 {
        fill: #857f82;
      }

      .cls-19 {
        fill: #635c62;
      }

      .cls-20 {
        fill: #4a4154;
      }

      .cls-21 {
        fill: #291b3d;
      }

      .cls-22 {
        fill: #332a48;
      }

      .cls-23 {
        fill: #433b52;
      }

      .cls-24 {
        fill: #90898c;
      }

      .cls-25 {
        fill: #827b81;
      }

      .cls-26 {
        fill: #4c445b;
      }

      .cls-27 {
        fill: #a56358;
      }

      .cls-28 {
        fill: #ad6759;
      }

      .cls-29 {
        fill: #492339;
      }

      .cls-30 {
        fill: #532e3d;
      }

      .cls-31 {
        fill: url(#radial-gradient);
      }

      .cls-32 {
        fill: #7fbb00;
      }

      .cls-33 {
        fill: url(#linear-gradient);
      }

      .cls-34 {
        fill: #94d402;
      }

      .cls-35 {
        fill: url(#radial-gradient-2);
      }

      .cls-36 {
        fill: #6ea507;
      }

      .cls-37 {
        fill: #71ab04;
      }

      .cls-38 {
        fill: #80c200;
      }

      .cls-39 {
        fill: url(#linear-gradient-2);
      }

      .cls-40 {
        fill: url(#linear-gradient-3);
      }

      .cls-41 {
        fill: url(#linear-gradient-4);
      }

      .cls-42 {
        fill: #80c100;
      }

      .cls-43 {
        fill: #87c901;
      }

      .cls-44 {
        fill: #98de13;
      }

      .cls-45 {
        fill: #7cb901;
      }

      .cls-46 {
        fill: #4a701b;
      }

      .cls-47 {
        fill: #486b1a;
      }

      .cls-48 {
        fill: #71ac00;
      }

      .cls-49 {
        fill: #864c4a;
      }

      .cls-50 {
        fill: url(#linear-gradient-5);
      }

      .cls-51 {
        fill: url(#linear-gradient-6);
      }

      .cls-52 {
        fill: #693841;
      }

      .cls-53 {
        fill: #592f3c;
      }

      .cls-54 {
        fill: #9e5d56;
      }

      .cls-55 {
        fill: url(#linear-gradient-7);
      }

      .cls-56 {
        fill: url(#linear-gradient-8);
      }

      .cls-57 {
        fill: url(#linear-gradient-9);
      }

      .cls-58 {
        fill: url(#linear-gradient-10);
      }

      .cls-59 {
        fill: url(#linear-gradient-11);
      }

      .cls-60 {
        fill: url(#linear-gradient-12);
      }

      .cls-61 {
        fill: url(#linear-gradient-13);
      }

      .cls-62 {
        fill: url(#linear-gradient-14);
      }

      .cls-63 {
        fill: #6b3a42;
      }

      .cls-64 {
        fill: #794448;
      }

      .cls-65 {
        fill: #61333e;
      }

      .cls-66 {
        fill: #63373f;
      }

      .cls-67 {
        fill: #673945;
      }

      .cls-68 {
        fill: #5f333e;
      }

      .cls-69 {
        fill: #64343e;
      }

      .cls-70 {
        fill: url(#linear-gradient-15);
      }

      .cls-71 {
        fill: url(#linear-gradient-16);
      }

      .cls-72 {
        fill: #5a303e;
      }

      .cls-73 {
        fill: #5a5362;
      }

      .cls-74 {
        fill: #605566;
      }

      .cls-75 {
        fill: url(#linear-gradient-17);
      }

      .cls-76 {
        fill: url(#linear-gradient-18);
      }

      .cls-77 {
        fill: url(#linear-gradient-19);
      }

      .cls-78 {
        fill: url(#linear-gradient-20);
      }

      .cls-79 {
        fill: #554d61;
      }

      .cls-80 {
        fill: #613541;
      }

      .cls-81 {
        fill: #304817;
      }

      .cls-82 {
        fill: #77b500;
      }

      .cls-83 {
        fill: #9d5f54;
      }

      .cls-84 {
        fill: #4a2835;
      }

      .cls-85 {
        fill: #6ba507;
      }

      .cls-86 {
        fill: #9c5e53;
      }

      .cls-87 {
        fill: #a3665a;
      }

      .cls-88 {
        fill: #724240;
      }

      .cls-89 {
        fill: #6eab01;
      }

      .cls-90 {
        fill: #9f6155;
      }

      .cls-91 {
        fill: #56303b;
      }

      .cls-92 {
        fill: #7cbb00;
      }

      .cls-93 {
        fill: #895349;
      }

      .cls-94 {
        fill: #6e4042;
      }

      .cls-95 {
        fill: #81c300;
      }

      .cls-96 {
        fill: #8d544c;
      }

      .cls-97 {
        fill: #462a33;
      }

      .cls-98 {
        fill: #6c4142;
      }

      .cls-99 {
        fill: #8cd200;
      }

      .cls-100 {
        fill: #93d61d;
      }

      .cls-101 {
        fill: url(#linear-gradient-21);
      }

      .cls-102 {
        fill: url(#linear-gradient-22);
      }

      .cls-103 {
        fill: url(#linear-gradient-23);
      }

      .cls-104 {
        fill: #7bb902;
      }

      .cls-105 {
        fill: #8acd02;
      }

      .cls-106 {
        fill: #477417;
      }

      .cls-107 {
        fill: #325018;
      }

      .cls-108 {
        fill: #2d4119;
      }

      .cls-109 {
        fill: #6aa606;
      }

      .cls-110 {
        fill: #91d400;
      }

      .cls-111 {
        fill: #2d4719;
      }

      .cls-112 {
        fill: #96d910;
      }

      .cls-113 {
        fill: #79b901;
      }

      .cls-114 {
        fill: #315217;
      }

      .cls-115 {
        fill: #324d19;
      }

      .cls-116 {
        fill: #99df12;
      }

      .cls-117 {
        fill: #8fd401;
      }

      .cls-118 {
        fill: #588914;
      }

      .cls-119 {
        fill: #2e4918;
      }

      .cls-120 {
        fill: #95da0c;
      }

      .cls-121 {
        fill: #9de319;
      }

      .cls-122 {
        fill: #7dbe00;
      }

      .cls-123 {
        fill: #345519;
      }

      .cls-124 {
        fill: #90d404;
      }

      .cls-125 {
        fill: #578a11;
      }

      .cls-126 {
        fill: #314f19;
      }

      .cls-127 {
        fill: #8dce01;
      }

      .cls-128 {
        fill: #170b06;
      }

      .cls-129 {
        fill: #5a8e12;
      }

      .cls-130 {
        fill: #41671a;
      }

      .cls-131 {
        fill: #283213;
      }

      .cls-132 {
        fill: #73b100;
      }

      .cls-133 {
        fill: #96dd0a;
      }

      .cls-134 {
        fill: #2b4617;
      }

      .cls-135 {
        fill: #335119;
      }

      .cls-136 {
        fill: #334b19;
      }

      .cls-137 {
        fill: #95db10;
      }

      .cls-138 {
        fill: #7fc201;
      }

      .cls-139 {
        fill: #7bbd00;
      }

      .cls-140 {
        fill: #314d18;
      }

      .cls-141 {
        fill: #2e4619;
      }

      .cls-142 {
        fill: #9be41a;
      }

      .cls-143 {
        fill: #93d605;
      }

      .cls-144 {
        fill: #578a12;
      }

      .cls-145 {
        fill: #94d707;
      }

      .cls-146 {
        fill: #78b200;
      }

      .cls-147 {
        fill: #7aba01;
      }

      .cls-148 {
        fill: #33541a;
      }

      .cls-149 {
        fill: #2e4b16;
      }

      .cls-150 {
        fill: #92d907;
      }

      .cls-151 {
        fill: #9be316;
      }

      .cls-152 {
        fill: #324b1b;
      }

      .cls-153 {
        fill: #95db07;
      }

      .cls-154 {
        fill: #77b700;
      }

      .cls-155 {
        fill: #74b301;
      }

      .cls-156 {
        fill: #314c18;
      }

      .cls-157 {
        fill: #8fd301;
      }

      .cls-158 {
        fill: #9ce10f;
      }

      .cls-159 {
        fill: #5a9011;
      }

      .cls-160 {
        fill: #2e4f1a;
      }

      .cls-161 {
        fill: #74b304;
      }

      .cls-162 {
        fill: #96da0a;
      }

      .cls-163 {
        fill: #6fad01;
      }

      .cls-164 {
        fill: #5e940c;
      }

      .cls-165 {
        fill: #9fe518;
      }

      .cls-166 {
        fill: #86cb00;
      }

      .cls-167 {
        fill: #2e3f16;
      }

      .cls-168 {
        fill: #304f1a;
      }

      .cls-169 {
        fill: #8cd100;
      }

      .cls-170 {
        fill: #82c500;
      }

      .cls-171 {
        fill: #8ed101;
      }

      .cls-172 {
        fill: #466f1a;
      }

      .cls-173 {
        fill: url(#linear-gradient-24);
      }

      .cls-174 {
        fill: #9ce216;
      }

      .cls-175 {
        fill: #9adf12;
      }

      .cls-176 {
        fill: #639e09;
      }

      .cls-177 {
        fill: #95d706;
      }

      .cls-178 {
        fill: #83c500;
      }

      .cls-179 {
        fill: #41641a;
      }

      .cls-180 {
        fill: #2f4719;
      }

      .cls-181 {
        fill: #669f09;
      }

      .cls-182 {
        fill: #2f4b18;
      }

      .cls-183 {
        fill: #2f4718;
      }

      .cls-184 {
        fill: #548715;
      }

      .cls-185 {
        fill: #91d709;
      }

      .cls-186 {
        fill: #7ab901;
      }

      .cls-187 {
        fill: #77b600;
      }

      .cls-188 {
        fill: #304a17;
      }

      .cls-189 {
        fill: #98dd0f;
      }

      .cls-190 {
        fill: #528611;
      }

      .cls-191 {
        fill: #2f4519;
      }

      .cls-192 {
        fill: #606982;
      }

      .cls-193 {
        fill: #111520;
      }

      .cls-194 {
        fill: #2b3245;
      }
    </style>
    <radialGradient id="radial-gradient" cx="195.47733" cy="125.27393" r="142.37628" gradientTransform="translate(6.3938 -2.2868) rotate(0.72435)" gradientUnits="userSpaceOnUse">
      <stop offset="0" stop-color="#85c900"/>
      <stop offset="0.41448" stop-color="#83c500"/>
      <stop offset="0.79951" stop-color="#7cba00"/>
      <stop offset="1" stop-color="#77b100"/>
    </radialGradient>
    <linearGradient id="linear-gradient" x1="60.58701" y1="146.08262" x2="93.97462" y2="146.08262" gradientTransform="matrix(0.9999, 0.0126, -0.0126, 0.9999, 5.9103, -3.3069)" gradientUnits="userSpaceOnUse">
      <stop offset="0" stop-color="#86c400"/>
      <stop offset="0.15147" stop-color="#88c600"/>
      <stop offset="1" stop-color="#8dcd00"/>
    </linearGradient>
    <radialGradient id="radial-gradient-2" cx="115.3848" cy="158.82063" r="15.53537" gradientTransform="translate(6.3938 -2.2868) rotate(0.72435)" gradientUnits="userSpaceOnUse">
      <stop offset="0" stop-color="#9be21c"/>
      <stop offset="1" stop-color="#9de61f"/>
    </radialGradient>
    <linearGradient id="linear-gradient-2" x1="209.95086" y1="146.86118" x2="204.08624" y2="159.54029" gradientTransform="matrix(0.9999, 0.0126, -0.0126, 0.9999, 5.9103, -3.3069)" gradientUnits="userSpaceOnUse">
      <stop offset="0" stop-color="#a4e81c"/>
      <stop offset="0.11917" stop-color="#a3e71c"/>
      <stop offset="1" stop-color="#a0e61b"/>
    </linearGradient>
    <linearGradient id="linear-gradient-3" x1="210.50304" y1="141.84644" x2="209.42897" y2="152.42195" gradientTransform="matrix(0.9999, 0.0126, -0.0126, 0.9999, 5.9103, -3.3069)" gradientUnits="userSpaceOnUse">
      <stop offset="0" stop-color="#98dd13"/>
      <stop offset="0.18866" stop-color="#9add13"/>
      <stop offset="1" stop-color="#9dde12"/>
    </linearGradient>
    <linearGradient id="linear-gradient-4" x1="244.76588" y1="144.818" x2="244.22897" y2="154.35847" gradientTransform="matrix(0.9999, 0.0126, -0.0126, 0.9999, 5.9103, -3.3069)" gradientUnits="userSpaceOnUse">
      <stop offset="0" stop-color="#95d80a"/>
      <stop offset="1" stop-color="#95d70b"/>
    </linearGradient>
    <linearGradient id="linear-gradient-5" x1="88.87434" y1="149.74033" x2="85.56975" y2="197.82185" gradientTransform="matrix(0.9999, 0.0126, -0.0126, 0.9999, 5.9103, -3.3069)" gradientUnits="userSpaceOnUse">
      <stop offset="0" stop-color="#7d4747"/>
      <stop offset="0.22939" stop-color="#894f4c"/>
      <stop offset="0.57064" stop-color="#935750"/>
      <stop offset="0.98901" stop-color="#965951"/>
    </linearGradient>
    <linearGradient id="linear-gradient-6" x1="86.33738" y1="173.29215" x2="79.80988" y2="180.8938" gradientTransform="matrix(0.9999, 0.0126, -0.0126, 0.9999, 5.9103, -3.3069)" gradientUnits="userSpaceOnUse">
      <stop offset="0" stop-color="#572d3a"/>
      <stop offset="0.04042" stop-color="#592e3b"/>
      <stop offset="0.38437" stop-color="#613340"/>
      <stop offset="1" stop-color="#633541"/>
    </linearGradient>
    <linearGradient id="linear-gradient-7" x1="170.583" y1="152.31803" x2="160.3399" y2="190.20649" gradientTransform="matrix(0.9999, 0.0126, -0.0126, 0.9999, 5.9103, -3.3069)" gradientUnits="userSpaceOnUse">
      <stop offset="0" stop-color="#744346"/>
      <stop offset="0.5252" stop-color="#814c4b"/>
      <stop offset="0.99634" stop-color="#864f4d"/>
    </linearGradient>
    <linearGradient id="linear-gradient-8" x1="195.64361" y1="175.42932" x2="137.81649" y2="185.23237" gradientTransform="matrix(0.9999, 0.0126, -0.0126, 0.9999, 5.9103, -3.3069)" gradientUnits="userSpaceOnUse">
      <stop offset="0" stop-color="#64343f"/>
      <stop offset="0.30761" stop-color="#683842"/>
      <stop offset="0.99634" stop-color="#6d3c46"/>
    </linearGradient>
    <linearGradient id="linear-gradient-9" x1="134.62944" y1="199.56543" x2="195.76082" y2="211.79167" gradientTransform="matrix(0.9999, 0.0126, -0.0126, 0.9999, 5.9103, -3.3069)" gradientUnits="userSpaceOnUse">
      <stop offset="0" stop-color="#7e494b"/>
      <stop offset="0.99267" stop-color="#804a4e"/>
    </linearGradient>
    <linearGradient id="linear-gradient-10" x1="193.92719" y1="156.42435" x2="208.79683" y2="188.69702" gradientTransform="matrix(0.9999, 0.0126, -0.0126, 0.9999, 5.9103, -3.3069)" gradientUnits="userSpaceOnUse">
      <stop offset="0" stop-color="#9c5c54"/>
      <stop offset="1" stop-color="#a66358"/>
    </linearGradient>
    <linearGradient id="linear-gradient-11" x1="210.1317" y1="155.07953" x2="219.21897" y2="184.15885" gradientTransform="matrix(0.9999, 0.0126, -0.0126, 0.9999, 5.9103, -3.3069)" gradientUnits="userSpaceOnUse">
      <stop offset="0" stop-color="#b46f5f"/>
      <stop offset="0.02751" stop-color="#b57060"/>
      <stop offset="0.60125" stop-color="#c8806d"/>
      <stop offset="1" stop-color="#cf8672"/>
    </linearGradient>
    <linearGradient id="linear-gradient-12" x1="230.65914" y1="154.26225" x2="233.96355" y2="183.67171" gradientTransform="matrix(0.9999, 0.0126, -0.0126, 0.9999, 5.9103, -3.3069)" gradientUnits="userSpaceOnUse">
      <stop offset="0" stop-color="#844d4c"/>
      <stop offset="0.15003" stop-color="#8b5250"/>
      <stop offset="0.65143" stop-color="#9e5f59"/>
      <stop offset="1" stop-color="#a5645d"/>
    </linearGradient>
    <linearGradient id="linear-gradient-13" x1="228.1538" y1="154.79552" x2="256.24071" y2="167.4346" gradientTransform="matrix(0.9999, 0.0126, -0.0126, 0.9999, 5.9103, -3.3069)" gradientUnits="userSpaceOnUse">
      <stop offset="0" stop-color="#8d524f"/>
      <stop offset="0.4039" stop-color="#925651"/>
      <stop offset="0.86456" stop-color="#9f6057"/>
      <stop offset="1" stop-color="#a5645a"/>
    </linearGradient>
    <linearGradient id="linear-gradient-14" x1="255.82716" y1="168.65296" x2="270.69629" y2="181.98013" gradientTransform="matrix(0.9999, 0.0126, -0.0126, 0.9999, 5.9103, -3.3069)" gradientUnits="userSpaceOnUse">
      <stop offset="0" stop-color="#58303f"/>
      <stop offset="1" stop-color="#5c3140"/>
    </linearGradient>
    <linearGradient id="linear-gradient-15" x1="261.04401" y1="179.4784" x2="320.41313" y2="163.61724" gradientTransform="matrix(0.9999, 0.0126, -0.0126, 0.9999, 5.9103, -3.3069)" gradientUnits="userSpaceOnUse">
      <stop offset="0" stop-color="#562e3e"/>
      <stop offset="0.04369" stop-color="#562e3e"/>
      <stop offset="1" stop-color="#5a333e"/>
    </linearGradient>
    <linearGradient id="linear-gradient-16" x1="294.5722" y1="149.18115" x2="295.78373" y2="185.74683" gradientTransform="matrix(0.9999, 0.0126, -0.0126, 0.9999, 5.9103, -3.3069)" gradientUnits="userSpaceOnUse">
      <stop offset="0.00366" stop-color="#663841"/>
      <stop offset="0.15353" stop-color="#683942"/>
      <stop offset="0.99634" stop-color="#6c3c44"/>
    </linearGradient>
    <linearGradient id="linear-gradient-17" x1="181.71178" y1="206.60468" x2="188.4679" y2="219.55392" gradientTransform="matrix(0.9999, 0.0126, -0.0126, 0.9999, 5.9103, -3.3069)" gradientUnits="userSpaceOnUse">
      <stop offset="0" stop-color="#564c61"/>
      <stop offset="0.58081" stop-color="#544a5f"/>
      <stop offset="0.78999" stop-color="#4f435a"/>
      <stop offset="0.93861" stop-color="#443850"/>
      <stop offset="1" stop-color="#3e304a"/>
    </linearGradient>
    <linearGradient id="linear-gradient-18" x1="208.00501" y1="197.0721" x2="204.48186" y2="216.38079" gradientTransform="matrix(0.9999, 0.0126, -0.0126, 0.9999, 5.9103, -3.3069)" gradientUnits="userSpaceOnUse">
      <stop offset="0" stop-color="#584f63"/>
      <stop offset="0.62969" stop-color="#564d61"/>
      <stop offset="0.98149" stop-color="#4f455a"/>
      <stop offset="0.99634" stop-color="#4f445a"/>
    </linearGradient>
    <linearGradient id="linear-gradient-19" x1="210.15134" y1="196.7147" x2="207.30116" y2="216.50063" gradientTransform="matrix(0.9999, 0.0126, -0.0126, 0.9999, 5.9103, -3.3069)" gradientUnits="userSpaceOnUse">
      <stop offset="0" stop-color="#6f6772"/>
      <stop offset="0.4977" stop-color="#6d6570"/>
      <stop offset="0.77569" stop-color="#665d6a"/>
      <stop offset="0.99634" stop-color="#5a4f60"/>
    </linearGradient>
    <linearGradient id="linear-gradient-20" x1="220.7386" y1="210.37575" x2="218.48051" y2="218.60949" gradientTransform="matrix(0.9999, 0.0126, -0.0126, 0.9999, 5.9103, -3.3069)" gradientUnits="userSpaceOnUse">
      <stop offset="0" stop-color="#636071"/>
      <stop offset="0.534" stop-color="#615e6f"/>
      <stop offset="0.83231" stop-color="#5c5667"/>
      <stop offset="0.99634" stop-color="#564d5f"/>
    </linearGradient>
    <linearGradient id="linear-gradient-21" x1="212.49248" y1="147.85687" x2="204.39719" y2="165.36915" xlink:href="#linear-gradient-2"/>
    <linearGradient id="linear-gradient-22" x1="60.70164" y1="150.12151" x2="93.19462" y2="152.32442" xlink:href="#linear-gradient"/>
    <linearGradient id="linear-gradient-23" x1="60.82354" y1="148.31689" x2="93.31705" y2="150.51984" xlink:href="#linear-gradient"/>
    <linearGradient id="linear-gradient-24" x1="268.06662" y1="128.75137" x2="270.90289" y2="137.70077" gradientTransform="matrix(0.9999, 0.0126, -0.0126, 0.9999, 5.9103, -3.3069)" gradientUnits="userSpaceOnUse">
      <stop offset="0" stop-color="#2d4517"/>
      <stop offset="0.27362" stop-color="#304a17"/>
      <stop offset="0.99267" stop-color="#324c17"/>
    </linearGradient>
  </defs>
  <g id="Layer_1" data-name="Layer 1">
    <g id="IslandShards">
      <g>
        <polygon class="cls-1" points="244.123 215.368 247.675 213.802 244.263 219.025 244.123 215.368"/>
        <polygon class="cls-2" points="244.123 215.368 242.911 218.141 244.263 219.025 244.123 215.368"/>
        <polygon class="cls-3" points="247.675 213.802 249.401 219.338 244.263 219.025 247.675 213.802"/>
      </g>
      <g>
        <polygon class="cls-4" points="157.713 234.089 131.818 243.51 158.53 256.57 157.713 234.089"/>
        <polygon class="cls-5" points="131.818 243.51 136.574 250.73 158.53 256.57 131.818 243.51"/>
        <polygon class="cls-6" points="136.574 250.73 153.417 260.195 158.53 256.57 136.574 250.73"/>
      </g>
      <g>
        <polygon class="cls-7" points="150.14 221.058 149.543 227.37 152.011 226.596 150.14 221.058"/>
        <polygon class="cls-8" points="152.011 226.596 154.447 223.445 150.14 221.058 152.011 226.596"/>
      </g>
      <g>
        <polygon class="cls-9" points="182.628 230.824 180.2 241.533 187.758 235.123 182.628 230.824"/>
        <polygon class="cls-10" points="187.758 235.123 192.061 239.391 182.752 247.101 180.219 241.45 187.758 235.123"/>
        <polygon class="cls-11" points="182.628 230.824 187.758 235.123 192.061 239.391 190.97 233.697 182.628 230.824"/>
      </g>
      <g>
        <polygon class="cls-12" points="169.301 269.67 170.165 271.54 175.98 260.522 169.301 269.67"/>
        <polygon class="cls-13" points="175.98 260.522 175.051 269.832 170.165 271.54 175.98 260.522"/>
        <polygon class="cls-14" points="175.98 260.522 181.327 272.17 180.184 273.311 175.051 269.832 175.98 260.522"/>
        <polygon class="cls-15" points="175.051 269.832 180.184 273.311 170.165 271.54 175.051 269.832"/>
        <polygon class="cls-16" points="173.502 263.916 173.471 266.397 171.495 266.666 173.502 263.916"/>
      </g>
      <g>
        <polygon class="cls-17" points="225.95 229.871 226.865 236.987 227.405 237.848 228.254 234.994 225.95 229.871"/>
        <polygon class="cls-18" points="225.95 229.871 228.254 234.994 233.02 234.807 225.95 229.871"/>
        <polygon class="cls-19" points="233.02 234.807 233.835 233.537 225.95 229.871 233.02 234.807"/>
        <polygon class="cls-20" points="233.02 234.807 228.332 237.557 227.405 237.848 228.254 234.994 233.02 234.807"/>
        <polygon class="cls-21" points="229.496 231.52 228.587 231.711 225.95 229.871 229.496 231.52"/>
        <polygon class="cls-22" points="225.95 229.871 228.587 231.711 226.88 231.938 225.95 229.871"/>
        <polygon class="cls-23" points="225.95 229.871 226.737 235.986 226.88 231.938 225.95 229.871"/>
      </g>
      <g>
        <polygon class="cls-24" points="240.897 245.633 250.448 254.173 249.118 233.585 240.897 245.633"/>
        <polygon class="cls-25" points="249.118 233.585 250.448 254.173 254.283 246.518 249.118 233.585"/>
        <polygon class="cls-26" points="250.448 254.173 265.461 244.553 271.552 236.533 254.283 246.518 250.448 254.173"/>
        <polygon class="cls-27" points="254.283 246.518 271.552 236.533 265.81 220.145 254.283 246.518"/>
        <polygon class="cls-28" points="254.283 246.518 249.118 233.585 265.81 220.145 254.283 246.518"/>
        <polygon class="cls-29" points="253.042 230.426 261.543 229.909 265.81 220.145 253.042 230.426"/>
        <polygon class="cls-30" points="265.81 220.145 261.543 229.909 270.263 232.854 265.81 220.145"/>
      </g>
    </g>
    <g id="Island">
      <polygon class="cls-31" points="58.558 117.892 60.547 128.299 64.699 139.669 97.787 142.841 112.12 146.162 113.378 145.724 131.417 146.695 160.483 143.524 197.323 138.523 231.13 143.618 266.342 145.468 283.494 144.652 297.247 141.59 315.559 142.813 331.383 141.994 340.679 133.685 326.13 126.148 337.583 121.998 329.806 118.016 314.575 116.006 303.306 114.322 280.435 111.059 268.723 105.237 244.811 103.724 215.989 102.974 195.499 103.045 155.363 101.932 128.882 105.452 106.174 106.817 80.684 108.175 71.413 109.627 58.558 117.892"/>
      <polygon class="cls-32" points="60.547 128.299 64.699 139.669 65.06 144.823 60.427 131.244 60.547 128.299"/>
      <polygon class="cls-33" points="65.06 144.823 97.986 147.801 97.787 142.841 64.699 139.669 65.06 144.823"/>
      <polygon class="cls-34" points="97.787 142.841 112.12 146.162 120.228 159.358 120.415 165.296 97.986 147.801 97.787 142.841"/>
      <polygon class="cls-35" points="113.378 145.724 112.12 146.162 120.228 159.358 131.417 146.695 113.378 145.724"/>
      <polygon class="cls-36" points="120.228 159.358 120.415 165.296 160.186 148.422 131.417 146.695 120.228 159.358"/>
      <polygon class="cls-36" points="131.417 146.695 160.186 148.422 160.483 143.524 131.417 146.695"/>
      <polygon class="cls-37" points="160.483 143.524 197.294 154.963 160.186 148.422 160.483 143.524"/>
      <polygon class="cls-38" points="160.483 143.524 197.323 138.523 197.294 154.963 160.483 143.524"/>
      <polygon class="cls-39" points="197.323 138.523 197.294 154.963 230.769 153.61 197.323 138.523"/>
      <polygon class="cls-40" points="197.323 138.523 230.769 153.61 231.13 143.618 197.323 138.523"/>
      <polygon class="cls-41" points="231.13 143.618 230.769 153.61 266.165 150.753 266.342 145.468 231.13 143.618"/>
      <polygon class="cls-42" points="266.342 145.468 266.165 150.753 299.263 148.817 283.494 144.652 266.342 145.468"/>
      <polygon class="cls-43" points="283.494 144.652 299.263 148.817 297.247 141.59 283.494 144.652"/>
      <polygon class="cls-44" points="297.247 141.59 299.263 148.817 315.559 142.813 297.247 141.59"/>
      <polygon class="cls-45" points="299.263 148.817 331.235 147.073 331.383 141.994 315.559 142.813 299.263 148.817"/>
      <polygon class="cls-46" points="331.383 141.994 331.235 147.073 339.548 138.173 340.679 133.685 331.383 141.994"/>
      <polygon class="cls-47" points="340.679 133.685 339.548 138.173 346.783 136.819 340.679 133.685"/>
      <polygon class="cls-48" points="346.783 136.819 340.679 133.685 326.13 126.148 337.583 121.998 346.783 136.819"/>
      <polygon class="cls-49" points="97.986 147.801 118.368 179.121 120.415 165.296 97.986 147.801"/>
      <polygon class="cls-50" points="65.06 144.823 97.986 147.801 118.368 179.121 116.087 196.111 65.06 144.823"/>
      <polygon class="cls-51" points="65.06 144.823 80.133 164.786 90.076 182.068 102.225 194.779 116.087 196.111 65.06 144.823"/>
      <polygon class="cls-52" points="120.415 165.296 118.368 179.121 140.805 186.124 120.415 165.296"/>
      <polygon class="cls-53" points="140.805 186.124 160.186 148.422 120.415 165.296 140.805 186.124"/>
      <polygon class="cls-54" points="118.368 179.121 116.087 196.111 158.144 219.582 140.805 186.124 118.368 179.121"/>
      <polygon class="cls-55" points="160.186 148.422 140.805 186.124 197.294 154.963 160.186 148.422"/>
      <polygon class="cls-56" points="197.294 154.963 201.618 194.136 140.805 186.124 197.294 154.963"/>
      <polygon class="cls-57" points="140.805 186.124 158.144 219.582 201.618 194.136 140.805 186.124"/>
      <polygon class="cls-58" points="197.294 154.963 201.618 194.136 223.299 182.541 197.294 154.963"/>
      <polygon class="cls-59" points="197.294 154.963 223.299 182.541 230.769 153.61 197.294 154.963"/>
      <polygon class="cls-60" points="223.299 182.541 251.659 182.899 230.769 153.61 223.299 182.541"/>
      <polygon class="cls-61" points="230.769 153.61 251.659 182.899 266.165 150.753 230.769 153.61"/>
      <polygon class="cls-62" points="266.165 150.753 251.659 182.899 259.88 192.669 266.791 188.378 266.165 150.753"/>
      <polygon class="cls-63" points="201.618 194.136 209.358 196.161 223.299 182.541 201.618 194.136"/>
      <polygon class="cls-64" points="209.358 196.161 219.502 208.434 223.299 182.541 209.358 196.161"/>
      <polygon class="cls-65" points="219.502 208.434 251.659 182.899 223.299 182.541 219.502 208.434"/>
      <polygon class="cls-66" points="251.659 182.899 219.502 208.434 259.88 192.669 251.659 182.899"/>
      <polygon class="cls-67" points="219.502 208.434 228.444 211.245 259.88 192.669 219.502 208.434"/>
      <polygon class="cls-68" points="228.444 211.245 222.295 218.397 259.88 192.669 228.444 211.245"/>
      <polygon class="cls-69" points="266.791 188.378 259.88 192.669 241.561 205.208 305.42 184.584 266.791 188.378"/>
      <polygon class="cls-70" points="266.658 188.46 331.235 147.073 305.42 184.584 266.658 188.46"/>
      <polygon class="cls-71" points="266.165 150.753 266.658 188.46 331.235 147.073 299.263 148.817 266.165 150.753"/>
      <polygon class="cls-72" points="331.235 147.073 339.548 138.173 346.783 136.819 305.42 184.584 331.235 147.073"/>
      <polygon class="cls-73" points="102.225 194.779 128.575 208.207 134.516 206.396 116.087 196.111 102.225 194.779"/>
      <polygon class="cls-74" points="158.144 219.582 173.605 227.322 201.618 194.136 158.144 219.582"/>
      <polygon class="cls-75" points="201.618 194.136 199.703 211.647 173.605 227.322 201.618 194.136"/>
      <polygon class="cls-76" points="201.618 194.136 199.703 211.647 217.603 217.016 201.618 194.136"/>
      <polygon class="cls-77" points="201.618 194.136 217.603 217.016 222.295 218.397 219.502 208.434 209.358 196.161 201.618 194.136"/>
      <polygon class="cls-78" points="219.502 208.434 222.295 218.397 228.444 211.245 219.502 208.434"/>
      <polygon class="cls-79" points="241.561 205.208 237.685 207.861 265.745 207.339 305.42 184.584 241.561 205.208"/>
      <polygon class="cls-80" points="160.186 148.422 158.203 176.527 164.793 189.284 158.974 197.507 140.805 186.124 160.186 148.422"/>
      <polygon class="cls-81" points="320.98 118.837 322.397 119.193 321.352 120.243 320.98 118.837"/>
      <polygon class="cls-82" points="58.558 117.892 58.518 121.03 60.427 131.244 60.547 128.299 58.558 117.892"/>
    </g>
    <g id="Stones">
      <g>
        <polygon class="cls-83" points="71.208 108.386 68.877 118.463 88.947 121.057 90.289 115.153 71.208 108.386"/>
        <polygon class="cls-84" points="88.947 121.057 111.799 118.709 90.289 115.153 88.947 121.057"/>
        <polygon class="cls-85" points="71.208 108.386 90.289 115.153 111.799 118.709 107.608 114.243 85.961 108.985 71.208 108.386"/>
      </g>
      <g>
        <polygon class="cls-86" points="120.833 100.111 118.879 112.479 124.81 108.96 120.833 100.111"/>
        <polygon class="cls-87" points="118.879 112.479 121.997 115.823 124.81 108.96 118.879 112.479"/>
        <polygon class="cls-88" points="121.997 115.823 141.378 115.786 124.81 108.96 121.997 115.823"/>
        <polygon class="cls-89" points="120.833 100.111 124.81 108.96 141.378 115.786 151.991 111.61 140.086 103.84 120.833 100.111"/>
      </g>
      <g>
        <polygon class="cls-90" points="210.345 131.211 209.568 137.026 231.178 139.901 231.933 135.698 210.345 131.211"/>
        <polygon class="cls-91" points="231.933 135.698 231.178 139.901 249.904 136.531 231.933 135.698"/>
        <polygon class="cls-92" points="249.904 136.531 234.169 132.008 216.354 129.594 210.345 131.211 231.933 135.698 249.904 136.531"/>
      </g>
      <g>
        <polygon class="cls-93" points="290.983 120.81 306.495 122.369 305.287 118.285 290.983 120.81"/>
        <polygon class="cls-94" points="306.495 122.369 321.352 120.243 319.302 112.472 305.287 118.285 306.495 122.369"/>
        <polygon class="cls-95" points="319.302 112.472 307.749 113.008 293.387 116.957 290.983 120.81 305.287 118.285 319.302 112.472"/>
      </g>
      <g>
        <polygon class="cls-96" points="211.793 110.301 212.81 108.193 236.271 112.703 211.793 110.301"/>
        <polygon class="cls-97" points="236.271 112.703 255.921 104.965 250.093 110.771 236.271 112.703"/>
        <polygon class="cls-98" points="255.921 104.965 258.418 110.064 250.093 110.771 255.921 104.965"/>
        <polygon class="cls-99" points="212.81 108.193 236.271 112.703 255.921 104.965 244.451 96.284 219.022 98.275 212.81 108.193"/>
        <polygon class="cls-81" points="258.058 109.329 259.027 109.762 258.418 110.064 258.058 109.329"/>
      </g>
    </g>
    <g id="Grass">
      <g>
        <path class="cls-37" d="M174.5459,149.1255l-5.1426-.065.3833.6836-.9717-.0029.5088-.8769s-.7202-.0093-1.4404-.0181c-.7202-.0093-1.4409-.0181-1.4409-.0181l.7085-1.1919-6.4282-.0815s.1967.3506.4912.8765c.1474.2626.3193.5693.5024.8984.3955.8828.8765,1.7817,1.2759,2.729.1001.2373.1948.4766.2822.7207.1929.8057.3496,1.4687.5044,2.2969,1.3428-1.6348,1.5347-3.7803,2.2188-5.5894.646,1.1646,1.4614,2.0015,2.1079,3.1655a13.15589,13.15589,0,0,1,.5268-2.4716c.3262.3349.3179.9961.8096,1.332a5.2593,5.2593,0,0,1,.5142-1.4805,17.29643,17.29643,0,0,1,1.9218,4.8164,6.60985,6.60985,0,0,1,.6504-2.1963c.0962-.2031.1992-.4003.3028-.5947.207-.3887.4135-.7715.5839-1.1553.4893.502.3116,1.4913,1.1333,1.8321.0064-.4961.6714-.8184.7339-1.3711.0987-.166.1968-.3301.2876-.4844.2749-.4624.4947-.8325.4947-.8325l-2.0508-.0259Z"/>
        <path class="cls-37" d="M178.5215,153.7314c.1504-.4492.8154-.7714,1.0303-1.5097.1425-.2354.2822-.4707.4067-.6797.248-.418.4346-.7315.4346-.7315l-3.2827-.0415s.1782.3179.4165.7427c.3359.4385.3295.9336.7016,1.4102C178.4043,153.3779,178.5215,153.7314,178.5215,153.7314Z"/>
        <path class="cls-37" d="M182.1821,157.4111c.917-1.4297,2.251-2.4043,2.9995-3.831a4.77364,4.77364,0,0,0,.314-.6094c.2002-.333.3701-.6191.4912-.8242l.1944-.3262-5.1358-.0654s.0698.124.186.332c.1167.208.2789.499.4332.8496a3.00707,3.00707,0,0,1,.2163.6739,3.45741,3.45741,0,0,1,.06.6455c.0122.8847-.3305,1.872-.0044,2.707A2.56,2.56,0,0,0,182.1821,157.4111Z"/>
        <path class="cls-37" d="M186.2822,152.4688s.0699.124.1861.331c.1162.208.2788.4981.4633.8311a7.76053,7.76053,0,0,1,1.0987,4.3955c1.0078-1.3086,1.6894-2.9522,2.6909-4.3213.0967-.1621.1548-.2598.1548-.2598Z"/>
      </g>
      <g>
        <path class="cls-45" d="M304.44529,153.252c1.7998-1.3311,1.6621-3.481,2.34571-5.2901-1.32131-.0166-2.47751-.0312-3.79981-.0478.8076,1.497,2.1104,3.0009,1.541,4.8818Z"/>
        <path class="cls-45" d="M313.87989,146.5088c-.794.2109-1.4512-.1279-2.3526-.084-.4658-.0117-.8134-.0166-.8134-.0166l.03611-.0596-3.78031-.0478s.4619.8247.9239,1.6489c.1543.2749.3085.5498.4482.7964.28121.4951.4941.8716.4941.8716s.08011-.1636.209-.3989c.1348-.2291.3164-.5337.49711-.8379.22459-.5464.55759-.7076.72849-1.2012.64451,1.3301,1.458,2.332,2.10251,3.6616,1.33209-.8091,1.35259-2.4609,1.86529-3.7764.4805,1.1626,1.6289,1.8379,1.7773,3.1617a9.00745,9.00745,0,0,1,.69241-3.6123c.28609-.4839.5-.8448.5-.8448s-.41991-.0053-.97951-.0122c-.9824-.0014-1.8086-.0122-2.7978-.0307Z"/>
        <path class="cls-45" d="M325.72459,145.5767l-2.8262-.0357.1241-.209-5.89649-.0742.91209,1.6275c.08491.1508.1728.3066.2617.4653.7119,1.0962,1.1914,2.4243,1.8369,3.5889.3389-.6563.8408-1.1456,1.1797-1.8023a14.66573,14.66573,0,0,0,1.2861,2.8247c1.1729-1.3066,1.3614-3.1216,2.1006-4.6489.1856-.3281.3623-.6275.5147-.8833C325.52249,145.918,325.72459,145.5767,325.72459,145.5767Z"/>
      </g>
      <g>
        <path class="cls-42" d="M270.10449,154.2832c.43851-1.3271-.3682-2.8242.60451-3.917.16009-.2964.30759-.5459.41309-.7241.1054-.1782.16891-.2852.16891-.2852l-4.47651-.0566s.06151.1084.163.2895c.1016.1807.2442.4346.4161.7349a19.356,19.356,0,0,0,2.3789,3.5239C269.98629,154.126,270.10449,154.2832,270.10449,154.2832Z"/>
        <path class="cls-42" d="M294.26069,147.9482l-5.7929-.0732.7988-1.3433-6.5107-.082.7636,1.3628-2.5937-.0327.9931-1.6714-6.5107-.082.4434.7905-5.0645-.064s1.50491,2.6841,2.4453,4.3623c.085.1524.166.2959.2412.4297.2227.2949.2188.625.545.96.1757-.8242,1.0078-1.3096,1.3486-2.1314a3.76951,3.76951,0,0,1,1.1172,3.1538,6.74278,6.74278,0,0,0,2.3379-1.9531,9.48926,9.48926,0,0,1-.1924,2.1455c1.5049-1.4677,1.6953-3.4487,2.0469-5.4814.0878-.1841.1484-.2891.1484-.2891s.1953.3462.5049.8779c1.1367,1.9668,1.1054,4.4444,2.6387,6.3643.1357.25.2744.499.416.749.6777-1.3134.20021-2.8066.5498-4.289a4.46948,4.46948,0,0,0,.2793.7265,5.74729,5.74729,0,0,0,.5302.6055,4.45838,4.45838,0,0,1,1.4473-3.0098,6.14381,6.14381,0,0,0,.3418-.5356c.167-.2715.3076-.5073.4082-.6763.09961-.1684.1602-.269.1602-.269s.1767.3154.4355.7978c.5381,1.5869.6817,3.2408,1.6543,4.7408.8447-1.4766,2.18361-2.7813,3.01661-4.3096.09769-.1655.19239-.3242.28129-.4751C293.93549,148.4946,294.26069,147.9482,294.26069,147.9482Z"/>
      </g>
      <path class="cls-100" d="M265.83109,147.1416c-1.4922-.0469-2.9795-.0654-4.4502-.0562-.1914-.0024-.375-.0048-.5498-.0073-.875-.0112-1.5108-.019-1.5108-.019l.5908,1.0537-4.1552-.0523s.0898.1612.2255.4029c.1368.2422.3174.5649.4991.8877a2.85006,2.85006,0,0,0,.874,1.2905c-.6611-.0083-1.4873-.0186-2.1484-.0273l.16791-.1631a10.58419,10.58419,0,0,1-1.083-.0479c-.19331.0088-.38081.0142-.56741.0171-.374.0054-.7451.0005-1.1582-.0044a.90877.90877,0,0,1,.5059-.8198c-.3301-.0044-.6611-.0083-.9961-.0127-.2754-.0034-.5967-.0073-.9414-.0117-1.7246-.022-4.0225-.0508-4.0225-.0508l.5264-.8853-6.51069-.0825,1.86519,3.3286s-.3613-.0048-.90719-.0097c-1.76371-.1241-3.26081.6836-5.07621.4951.335-.3262.3437-.9873.6777-1.3135a21.71151,21.71151,0,0,0-3.1914-.2163c-.20309-.0024-.4072-.0049-.6074-.0073-1.4014-.0181-2.6475-.0337-2.6475-.0337s1.0069,1.7974,1.8887,3.3696c.0977.1748.1943.3467.28711.5127.419.457.57329,1.2852,1.06249,1.7871a6.89413,6.89413,0,0,0,2.1914-3.4424c.793,2.6543,2.918,4.4981,3.71,7.1524,1.1855-2.2988.3974-5.2822,2.1269-7.376.3086-.5195.5147-.8662.5147-.8662l1.289,2.2988,2.48051-4.1728s.55079.9824,1.16989,2.0879c.0889.1572.1787.3183.2686.4814a25.356,25.356,0,0,0,1.626,3.04c.3359-.4912.834-.6503.8427-1.3115a5.303,5.303,0,0,1,1.0997,4.4756,4.14565,4.14565,0,0,0,.6552-.5937,4.04557,4.04557,0,0,0,.4864-.6729,11.70308,11.70308,0,0,0,1.083-4.8193,50.93378,50.93378,0,0,1,2.2461,5.3164,6.58938,6.58938,0,0,0,1.4326-2.1719c.0849-.1943.165-.3926.2422-.5918.1865-.6826.5214-1.0088.6943-1.668a1.87892,1.87892,0,0,0,.4795,1.3282c.84281-1.3116.5332-2.9678,1.5391-4.1114a6.70184,6.70184,0,0,0,1.2822,3.1553,23.75143,23.75143,0,0,1,3.7461-6.6162C265.77829,147.23,265.83109,147.1416,265.83109,147.1416Z"/>
      <path class="cls-101" d="M228.27149,152.9473s-.5078-.0059-1.1846-.0147c-.16889-.0019-.3486-.0039-.5342-.0068-.9511-.042-1.7763-.0528-2.8506-.0362,0,0,.2598-.4375.5206-.874.2597-.4375.5195-.875.5195-.875l-3.5791-.0449-2.9317-.0371-3.5791-.0459.9952,1.7754-4.1514-.0527.79591-1.3389-3.60551-.0449.3574-.6021-6.5107-.0825.8711,1.5537-3.7476-.0469s.3111.5537.7388,1.3164c.085.1543.1748.3155.2676.4844.9404,2.0762,1.2422,4.3926,3.208,5.7393.0205-1.6524-.28709-3.4737.8887-4.9453a11.04449,11.04449,0,0,0,1.457,2.331c.1758-.8232.6777-1.3125.8467-2.1367.06051-.165.1191-.3291.1777-.4932.0576-.165.1143-.3291.1719-.4941.50491.9355,1.0732,1.8721,1.50491,2.8877q.12884.30465.24019.6201a2.02321,2.02321,0,0,0,.50681,1.3125,1.30967,1.30967,0,0,1,.16119-.7646,6.10427,6.10427,0,0,0,.1777-.8047,8.86092,8.86092,0,0,1,.7412-3.2276c.1035-.1748.1983-.333.2774-.4668.1591-.2685.2597-.4375.2597-.4375s.1866.3321.46581.8311c.13969.249.30379.54.48439.8574a13.96589,13.96589,0,0,1,2.8555,6.3945c.6816-1.6435.0439-3.4697.7246-5.1836.1436-.2363.293-.4619.43751-.6933.14359-.2305.28129-.4658.40819-.7129a8.55136,8.55136,0,0,0,.5615,1.085c.1016.1718.2051.3427.3057.5156.2617.5625.751,1.0635.7432,1.7246,1.1709-1.1416,1.0263-2.7959,1.539-4.1113a16.44474,16.44474,0,0,1,.9102,1.5195c.0869.1728.167.3486.2383.5273.1435.2832.1377.7784.2988,1.1114a13.64536,13.64536,0,0,1,1.5195-2.625c.47761,1.4931.4561,3.1455,1.09861,4.6406.68559-1.9746,1.70219-3.9443,3.70119-4.9766a5.81938,5.81938,0,0,0,.5186-.75C228.20609,153.0586,228.27149,152.9473,228.27149,152.9473Z"/>
      <g>
        <path class="cls-102" d="M83.124,143.7573s-4.5307-.0571-7.249-.0913c-.1943-.0024-.3794-.0049-.5522-.0068a12.60019,12.60019,0,0,1-1.4493.0366c.167-.1631.169-.3286.3365-.4917-1.8174-.0229-3.7998-.0478-5.5352-.1221-.6103-.0073-1.0171-.0127-1.0171-.0127s.1992.355.5044.8902c.8931,1.8232,3.0283,2.8413,3.499,4.8301,1.5015-1.1373,1.6914-3.1177,2.043-4.7657,1.1333,1.8321,2.4341,3.5005,2.8101,5.6299.0947.272.1904.5425.29.8101a8.02412,8.02412,0,0,0,2.2261,3.541c.6899-2.3047.2256-4.7886,2.0376-6.7876.1645-.2764.2983-.5015.3916-.6592.0932-.1567.1465-.2466.1465-.2466s.0908.1621.227.4048c.1362.2432.3179.5674.4995.8911.0772.4922.7359.6655.7266,1.2959l.1846-.311c.5771-.9712,2.309-3.8848,2.309-3.8848l-2.9712-.0376Z"/>
        <path class="cls-103" d="M97.6577,144.8613c-1.6597.1055-3.1509.417-4.7964-.0996.1631.1675.1607.3325.3238.5a11.53716,11.53716,0,0,1-2.9268-.1196c-.5459-.0068-.9556-.0122-.9556-.0122l.4356.7764-.9717-.0113s.0752-.1289.189-.3213c.1142-.1919.2661-.4482.4184-.7046.3047-.5127.6094-1.0249.6094-1.0249l-4.8804-.0615s.4146.7388.898,1.6011l.2964.5273a7.45362,7.45362,0,0,0,1.5615,2.4224c.0024-.165.1719-.4932.1738-.6587a7.95548,7.95548,0,0,1,1.1065,3.9795,5.55525,5.55525,0,0,0,1.0361-1.9077c.0786-.2261.1499-.4546.2202-.6831a2.38669,2.38669,0,0,0,.4458-1.3531,9.87642,9.87642,0,0,1,.9678,1.8296c.5107-1.1499,2.1645-1.2944,2.3486-2.7793,1.3047,1.3384,2.2774,2.8379,1.9219,4.8164,2.0034-1.6274.8804-4.2851,1.4243-6.3769A3.44944,3.44944,0,0,1,97.6577,144.8613Z"/>
      </g>
      <g>
        <path class="cls-34" d="M112.0659,158.4971c.7681.8925.9185,2.0508,1.6602,2.955.1474.253.3042.5069.4619.7618.9453,1.5312,1.9165,3.124,1.0259,4.9707,2.4926-1.125,2.0366-4.2696,2.9604-6.416.1748-.3233.3506-.6192.5108-.8897.4814-.8105.8256-1.3887.8256-1.3887s-3.6645-.0468-5.8632-.0742c-.314-.0039-.5982-.0078-.8374-.0097A6.53981,6.53981,0,0,0,112.0659,158.4971Z"/>
        <path class="cls-34" d="M113.7061,154.5859l-2.5142-.0322.7891-1.3271-5.314-.0674,2.1035-3.5391-6.5102-.0825s.6093,1.0869,1.2949,2.3101c.0981.1748.1972.3525.2969.5293.6318.958.9477,2.1191,1.5961,3.1181-.1591-.4971.5059-.8193.5122-1.3144.9639,2.1601,2.7603,3.8349,2.7291,6.3125a1.54016,1.54016,0,0,0,.4648-.7364,1.70585,1.70585,0,0,0,.2148-.7422c.8174.6719.1402,1.9844.9576,2.6563,1.0102-1.4746,1.0332-3.292,2.0288-4.8018.1015-.1748.2016-.3457.2978-.5127C113.2383,155.373,113.7061,154.5859,113.7061,154.5859Z"/>
      </g>
      <g>
        <path class="cls-36" d="M134.4346,157.8691l-4.7686-.0605.7232,1.29-4.0845-.0517s.7295,1.3008,1.459,2.6025c.2422.4336.4809.8721.667,1.2891.2124.6162.5366,1.1162.6958,1.6133a28.25659,28.25659,0,0,1,2.1953-3.7725,7.7388,7.7388,0,0,1,.5595,1.3125,8.89887,8.89887,0,0,0,.5635,1.3457c.1905-1.9805,2.02-2.9482,2.5366-4.5947.1592.498.6504.8349.6441,1.3301-.2026,2.9716-.0816,6.4433,2.8735,7.9677-2.9321-3.3418.0918-7.2695,2.0386-10.122.1426-.2715.2871-.5391.4385-.7989.1509-.2597.3086-.5127.476-.7529.4478-.7539.7457-1.2549.7457-1.2549l-9.3189-.1181Z"/>
        <path class="cls-36" d="M146.3301,158.6836a21.40049,21.40049,0,0,1,3.1035-5.9365,13.86541,13.86541,0,0,1-1.5874-.0782c-.4424-.0058-.9395-.0117-1.4365-.0185-1.4917-.0186-2.9834-.0371-2.9834-.0371s.3242.5781.7563,1.3496a18.09957,18.09957,0,0,1,.9195,2.0361c.1367.3389.2749.6778.4292,1.0196.1542.3418.3261.6875.5273,1.0439C146.2334,158.4365,146.3301,158.6836,146.3301,158.6836Z"/>
        <path class="cls-36" d="M156.2622,149.833c-.6787.0176-1.5049.0073-2.1655-.001.0019-.1655.1675-.1631.1694-.3286-.4956-.0063-.9912-.0122-1.5054-.0513-.4419-.0053-.9389-.0117-1.436-.018-1.4917-.0186-2.9834-.0376-2.9834-.0376s.3242.5781.7564,1.3496c.2163.3857.4594.8193.7031,1.2549a37.72446,37.72446,0,0,0,1.914,3.2529,17.31154,17.31154,0,0,1,2.043-4.7656,4.26374,4.26374,0,0,0,1.2944,2.165,4.51085,4.51085,0,0,1,.9781-2.3979C156.1689,150,156.2622,149.833,156.2622,149.833Z"/>
      </g>
    </g>
    <g id="Bushes">
      <g>
        <polygon class="cls-104" points="90.502 122.282 90.034 126.613 92.98 127.249 90.502 122.282"/>
        <polygon class="cls-105" points="90.502 122.282 92.98 127.249 96.838 127.504 99.69 122.521 90.502 122.282"/>
        <polygon class="cls-106" points="99.69 122.521 96.838 127.504 102.587 126.895 99.69 122.521"/>
        <polygon class="cls-107" points="99.69 122.521 102.587 126.895 105.295 126.166 106.061 121.164 99.69 122.521"/>
        <polygon class="cls-108" points="106.061 121.164 105.759 125.442 105.295 126.166 106.061 121.164"/>
        <polygon class="cls-109" points="99.69 122.521 97.67 116.183 106.061 121.164 99.69 122.521"/>
        <polygon class="cls-110" points="97.67 116.183 91.586 120.65 90.502 122.282 99.69 122.521 97.67 116.183"/>
        <path class="cls-111" d="M102.5874,126.8955l2.708-.73s.4605-.6787.4639-.7236c.0029-.0449.0942-1.3345.0942-1.3345l4.0777,1.0532-4.1143,1.146Z"/>
      </g>
      <g>
        <polygon class="cls-112" points="122.687 118.393 123.014 121.99 123.466 122.162 124.683 119.079 122.687 118.393"/>
        <polygon class="cls-113" points="124.683 119.079 130.568 119.153 128.751 122.332 123.466 122.162 124.683 119.079"/>
        <polygon class="cls-114" points="130.568 119.153 128.751 122.332 131.968 121.154 130.568 119.153"/>
        <polygon class="cls-115" points="130.568 119.153 131.968 121.154 132.006 118.118 130.568 119.153"/>
        <polygon class="cls-116" points="122.687 118.393 124.683 119.079 127.268 115.497 122.687 118.393"/>
        <polygon class="cls-117" points="124.683 119.079 130.568 119.153 127.268 115.497 124.683 119.079"/>
        <polygon class="cls-118" points="127.268 115.497 130.568 119.153 132.006 118.118 127.268 115.497"/>
        <polygon class="cls-119" points="131.974 120.648 134.555 120.742 133.251 121.696 128.751 122.332 131.968 121.154 131.974 120.648"/>
      </g>
      <g>
        <polygon class="cls-120" points="109.566 128.739 109.955 137.15 112.727 130.267 109.566 128.739"/>
        <polygon class="cls-121" points="109.566 128.739 112.727 130.267 117.082 123.981 109.566 128.739"/>
        <polygon class="cls-122" points="112.727 130.267 122.44 129.832 118.186 137.895 109.955 137.15 112.727 130.267"/>
        <polygon class="cls-123" points="122.44 129.832 118.186 137.895 125.349 136.643 122.44 129.832"/>
        <polygon class="cls-124" points="117.082 123.981 122.44 129.832 112.727 130.267 117.082 123.981"/>
        <polygon class="cls-125" points="117.082 123.981 122.44 129.832 124.837 128.106 117.082 123.981"/>
        <polygon class="cls-126" points="124.837 128.106 125.349 136.643 122.44 129.832 124.837 128.106"/>
        <polygon class="cls-127" points="126.587 136.658 125.174 133.726 125.073 132.051 129.347 132.428 126.587 136.658"/>
        <polygon class="cls-128" points="126.587 136.658 125.312 135.998 125.174 133.726 126.587 136.658"/>
        <path class="cls-129" d="M126.5874,136.6582c.103.0425,5.4365-.3647,5.4365-.3647l-2.6772-3.8653Z"/>
        <polygon class="cls-130" points="132.024 136.293 133.282 131.559 129.347 132.428 132.024 136.293"/>
        <polygon class="cls-131" points="133.282 131.559 133.095 135.433 132.024 136.293 133.282 131.559"/>
        <polygon class="cls-132" points="128.671 128.712 129.347 132.428 133.282 131.559 128.671 128.712"/>
        <polygon class="cls-133" points="128.671 128.712 125.054 131.722 125.073 132.051 129.347 132.428 128.671 128.712"/>
        <polygon class="cls-134" points="118.186 137.895 126.587 136.658 125.312 135.998 125.349 136.643 118.186 137.895"/>
        <polygon class="cls-135" points="126.587 136.658 127.004 136.02 127.392 134.537 126.176 132.148 125.073 132.051 125.174 133.726 126.587 136.658"/>
        <polygon class="cls-136" points="126.176 132.148 125.976 130.955 125.054 131.722 125.073 132.051 126.176 132.148"/>
      </g>
      <g>
        <polygon class="cls-137" points="146.259 125.059 146.567 128.939 147.39 129.259 148.946 125.974 146.259 125.059"/>
        <polygon class="cls-138" points="147.39 129.259 153.72 129.504 148.946 125.974 147.39 129.259"/>
        <polygon class="cls-139" points="148.946 125.974 153.72 129.504 155.696 125.701 148.946 125.974"/>
        <polygon class="cls-140" points="155.696 125.701 153.72 129.504 156.979 128.747 155.696 125.701"/>
        <path class="cls-141" d="M155.6963,125.7012l1.2832,3.0454s-.0718-4.1245-.0786-4.1455C156.8945,124.5806,155.6963,125.7012,155.6963,125.7012Z"/>
        <polygon class="cls-142" points="146.259 125.059 148.946 125.974 151.717 121.62 146.259 125.059"/>
        <polygon class="cls-143" points="148.946 125.974 155.696 125.701 151.717 121.62 148.946 125.974"/>
        <polygon class="cls-144" points="151.717 121.62 155.696 125.701 156.901 124.601 151.675 121.62 151.717 121.62"/>
        <polygon class="cls-145" points="152.174 121.12 152.164 121.898 155.718 123.926 156.238 122.552 152.174 121.12"/>
        <polygon class="cls-146" points="156.238 122.552 159.142 127.315 156.952 127.176 156.901 124.601 155.718 123.926 156.238 122.552"/>
        <polygon class="cls-147" points="159.142 127.315 163.304 127.27 166.04 122.142 156.238 122.552 159.142 127.315"/>
        <polygon class="cls-148" points="166.04 122.142 163.304 127.27 167.846 126.323 166.04 122.142"/>
        <polygon class="cls-149" points="166.04 122.142 167.846 126.323 167.504 120.673 166.04 122.142"/>
        <polygon class="cls-125" points="167.504 120.673 160.159 116.305 166.04 122.142 167.504 120.673"/>
        <polygon class="cls-150" points="160.159 116.305 156.238 122.552 166.04 122.142 160.159 116.305"/>
        <polygon class="cls-151" points="160.159 116.305 156.238 122.552 152.174 121.12 160.159 116.305"/>
        <polygon class="cls-152" points="153.72 129.504 158.525 128.766 159.51 127.595 159.142 127.315 156.952 127.176 156.979 128.747 153.72 129.504"/>
        <polygon class="cls-114" points="167.728 124.379 171.144 124.664 169.705 126.347 163.304 127.27 167.846 126.323 167.728 124.379"/>
      </g>
      <g>
        <polygon class="cls-153" points="199.378 110.984 200.83 118.176 204.393 111.915 199.378 110.984"/>
        <polygon class="cls-154" points="204.393 111.915 208.935 118.567 200.83 118.176 204.393 111.915"/>
        <polygon class="cls-155" points="204.393 111.915 208.935 118.567 212.492 111.604 204.393 111.915"/>
        <polygon class="cls-156" points="212.492 111.604 213.572 117.672 208.935 118.567 212.492 111.604"/>
        <polygon class="cls-157" points="212.492 111.604 206.65 106.504 204.393 111.915 212.492 111.604"/>
        <polygon class="cls-158" points="206.65 106.504 204.393 111.915 199.378 110.984 206.65 106.504"/>
        <polygon class="cls-159" points="212.492 111.604 212.181 110.168 206.65 106.504 212.492 111.604"/>
        <polygon class="cls-160" points="213.244 115.83 216.495 115.975 216.853 117.094 213.572 117.672 213.244 115.83"/>
      </g>
      <g>
        <polygon class="cls-161" points="229.161 121.866 228.893 127.838 231.709 129.416 229.161 121.866"/>
        <polygon class="cls-162" points="229.161 121.866 231.709 129.416 236.145 122.67 229.161 121.866"/>
        <polygon class="cls-163" points="236.145 122.67 231.709 129.416 240.329 129.387 236.145 122.67"/>
        <polygon class="cls-164" points="236.145 122.67 240.329 129.387 242.985 121.876 236.145 122.67"/>
        <polygon class="cls-165" points="229.161 121.866 236.145 122.67 235.969 117.078 229.161 121.866"/>
        <polygon class="cls-166" points="235.969 117.078 236.145 122.67 242.985 121.876 235.969 117.078"/>
        <polygon class="cls-167" points="242.985 121.876 242.661 127.902 240.329 129.387 242.985 121.876"/>
        <polygon class="cls-168" points="242.746 126.318 244.154 126.336 246.752 127.734 240.329 129.387 242.661 127.902 242.746 126.318"/>
      </g>
      <g>
        <polygon class="cls-169" points="252.199 127.059 252.672 137.667 257.072 129.379 252.199 127.059"/>
        <polygon class="cls-170" points="252.672 137.667 262.483 139.196 257.072 129.379 252.672 137.667"/>
        <polygon class="cls-171" points="262.483 139.196 264.934 139.227 270.757 129.552 257.072 129.379 262.483 139.196"/>
        <polygon class="cls-172" points="270.757 129.552 264.934 139.227 273.542 137.931 270.757 129.552"/>
        <polygon class="cls-173" points="273.542 137.931 273.676 127.331 270.757 129.552 273.542 137.931"/>
        <polygon class="cls-174" points="263.471 121.019 252.199 127.059 257.072 129.379 263.471 121.019"/>
        <polygon class="cls-175" points="263.471 121.019 257.072 129.379 270.757 129.552 263.471 121.019"/>
        <polygon class="cls-176" points="263.471 121.019 270.757 129.552 273.676 127.331 263.471 121.019"/>
        <polygon class="cls-177" points="271.884 126.222 276.238 123.969 280.247 128.667 273.66 128.583 273.676 127.331 271.884 126.222"/>
        <polygon class="cls-178" points="273.66 128.583 273.644 129.864 275.625 133.234 277.463 133.258 280.247 128.667 273.66 128.583"/>
        <polygon class="cls-92" points="273.644 129.864 273.605 132.92 275.625 133.234 273.644 129.864"/>
        <polygon class="cls-179" points="280.247 128.667 277.463 133.258 281.561 132.587 280.247 128.667"/>
        <path class="cls-180" d="M280.24709,128.6665s1.3496,4.0254,1.3144,3.9204c-.0361-.1055.14751-5.1548.14751-5.1548Z"/>
        <polygon class="cls-181" points="276.238 123.969 280.247 128.667 281.709 127.432 276.238 123.969"/>
        <polygon class="cls-182" points="273.588 134.262 278.226 135.043 275.76 137.305 273.542 137.931 273.588 134.262"/>
        <polygon class="cls-183" points="281.592 130.921 283.912 131.239 282.541 132.413 281.561 132.587 281.592 130.921"/>
      </g>
      <g>
        <polygon class="cls-184" points="297.816 125.977 297.962 129.2 298.634 129.952 297.816 125.977"/>
        <polygon class="cls-185" points="298.634 129.952 300.508 130.389 302.678 126.967 297.816 125.977 298.634 129.952"/>
        <polygon class="cls-186" points="300.508 130.389 304.284 130.644 302.678 126.967 300.508 130.389"/>
        <polygon class="cls-187" points="304.284 130.644 307.074 130.472 308.854 126.859 302.678 126.967 304.284 130.644"/>
        <polygon class="cls-188" points="308.854 126.859 308.961 129.887 307.074 130.472 308.854 126.859"/>
        <polygon class="cls-171" points="303.849 122.583 302.678 126.967 308.854 126.859 303.849 122.583"/>
        <polygon class="cls-189" points="303.849 122.583 297.816 125.977 302.678 126.967 303.849 122.583"/>
        <polygon class="cls-190" points="303.849 122.583 308.854 126.859 307.799 125.442 303.849 122.583"/>
        <polygon class="cls-191" points="308.917 128.637 309.482 128.644 310.274 129.759 307.074 130.503 308.961 129.887 308.917 128.637"/>
      </g>
    </g>
    <g class="cubes">
      <g  class="cube first-cube">
        <g>
          <polygon class="cls-192" points="168.435 44.921 196.54 61.289 224.965 44.921 196.7 28.553 168.435 44.921"/>
          <polygon class="cls-193" points="196.54 91.415 196.54 61.289 224.965 44.921 224.965 75.047 196.54 91.415"/>
          <polygon class="cls-194" points="168.435 75.047 168.435 44.921 196.54 61.289 196.54 91.415 168.435 75.047"/>
        </g>
        <polygon class="cls-193" points="202.933 57.608 211.267 82.935 196.54 91.415 196.54 61.289 202.933 57.608"/>
        <polygon class="cls-194" points="172.361 47.207 176.2 79.569 168.435 75.047 168.435 44.921 172.361 47.207"/>
      </g>
      <g class="cube secound-cube">
        <g>
          <polygon class="cls-192" points="126.412 65.481 154.517 81.849 182.942 65.481 154.677 49.113 126.412 65.481"/>
          <polygon class="cls-193" points="154.517 111.975 154.517 81.849 182.942 65.481 182.942 95.607 154.517 111.975"/>
          <polygon class="cls-194" points="126.412 95.607 126.412 65.481 154.517 81.849 154.517 111.975 126.412 95.607"/>
        </g>
        <polygon class="cls-193" points="160.91 78.168 169.243 103.495 154.517 111.975 154.517 81.849 160.91 78.168"/>
        <polygon class="cls-194" points="130.338 67.767 134.176 100.129 126.412 95.607 126.412 65.481 130.338 67.767"/>
      </g>
      <g class="cube third-cube">
        <g>
          <polygon class="cls-192" points="217.058 69.374 245.163 85.742 273.588 69.374 245.323 53.006 217.058 69.374"/>
          <polygon class="cls-193" points="245.163 115.868 245.163 85.742 273.588 69.374 273.588 99.5 245.163 115.868"/>
          <polygon class="cls-194" points="217.058 99.5 217.058 69.374 245.163 85.742 245.163 115.868 217.058 99.5"/>
        </g>
        <polygon class="cls-193" points="251.557 82.06 259.89 107.388 245.163 115.868 245.163 85.742 251.557 82.06"/>
        <polygon class="cls-194" points="220.984 71.66 224.823 104.021 217.058 99.5 217.058 69.374 220.984 71.66"/>
      </g>
      <g  class="cube four-cube">
        <g>
          <polygon class="cls-192" points="172.317 86.277 200.422 102.645 228.847 86.277 200.582 69.909 172.317 86.277"/>
          <polygon class="cls-193" points="200.422 132.771 200.422 102.645 228.847 86.277 228.847 116.403 200.422 132.771"/>
          <polygon class="cls-194" points="172.317 116.403 172.317 86.277 200.422 102.645 200.422 132.771 172.317 116.403"/>
        </g>
        <polygon class="cls-193" points="206.816 98.964 215.149 124.291 200.422 132.771 200.422 102.645 206.816 98.964"/>
        <polygon class="cls-194" points="176.243 88.564 180.082 120.925 172.317 116.403 172.317 86.277 176.243 88.564"/>
      </g>
    </g>
  </g>
  <g id="Layer_3" data-name="Layer 3">
    <image width="1667" height="1250" transform="translate(-0.04001 -0.00001) scale(0.24)" xlink:href="CubeTop.png"/>
  </g>
  <style>
  .cube{animation-name: float;animation-timing-function: ease-in-out;animation-iteration-count: infinite;animation-direction: alternate;}
  .first-cube{animation-duration: 3s;}
  .secound-cube{animation-duration: 4s;}
  .third-cube{animation-duration: 5s;}
  .four-cube{animation-duration: 6s;}
  @keyframes float {from {transform: translateY(0px);}to {transform: translateY(-20px);}}
  </style>
</svg>
