<?xml version="1.0" encoding="UTF-8"?>
<svg version="1.1" xmlns="http://www.w3.org/2000/svg" width="100" height="100">
<path d="M0 0 C1.02814316 0.00222061 2.05628632 0.00444122 3.11558533 0.00672913 C4.85727745 0.00684242 4.85727745 0.00684242 6.63415527 0.00695801 C8.52943214 0.01469994 8.52943214 0.01469994 10.46299744 0.02259827 C12.39193092 0.02472069 12.39193092 0.02472069 14.35983276 0.02688599 C17.78427561 0.03071034 21.20867628 0.0405399 24.63310242 0.05158997 C28.12522308 0.06180587 31.61735053 0.06638399 35.10948181 0.07142639 C41.96561897 0.08216225 48.82172806 0.09923767 55.67784119 0.12025452 C54.44036344 3.25636118 53.15144746 6.25478534 51.54893494 9.22181702 C50.95628845 10.32783264 50.95628845 10.32783264 50.35166931 11.45619202 C49.94368103 12.21158264 49.53569275 12.96697327 49.11534119 13.74525452 C48.29939379 15.2571195 47.48550369 16.77009708 46.67393494 18.28431702 C46.31485046 18.94898987 45.95576599 19.61366272 45.58580017 20.29847717 C44.55002628 22.27012119 44.55002628 22.27012119 43.67784119 25.12025452 C42.68784119 24.79025452 41.69784119 24.46025452 40.67784119 24.12025452 C39.99034119 22.05775452 39.99034119 22.05775452 39.67784119 20.12025452 C35.31697779 20.13965981 30.95804903 20.19132376 26.5980072 20.27284241 C25.11504642 20.29603141 23.63192073 20.31042033 22.14878845 20.31581116 C20.0154994 20.32509564 17.88480645 20.36606272 15.75205994 20.41322327 C14.46903992 20.42893372 13.1860199 20.44464417 11.86412048 20.46083069 C10.81264832 20.67844055 9.76117615 20.89605042 8.67784119 21.12025452 C7.68784119 22.77025452 6.69784119 24.42025452 5.67784119 26.12025452 C17.22784119 26.45025452 28.77784119 26.78025452 40.67784119 27.12025452 C39.6960166 31.04755287 38.36511382 33.84877253 36.46690369 37.40541077 C36.1426239 38.01504166 35.81834412 38.62467255 35.48423767 39.2527771 C34.42890521 41.23223133 33.36649278 43.20775951 32.30284119 45.18275452 C31.94357544 45.85244263 31.58430969 46.52213074 31.2141571 47.21211243 C26.66521006 55.68866834 22.07362617 64.14103238 17.30284119 72.49525452 C16.85763123 73.28424133 16.41242126 74.07322815 15.95372009 74.88612366 C14.92110499 76.66659996 13.8085319 78.40039163 12.67784119 80.12025452 C12.01784119 80.12025452 11.35784119 80.12025452 10.67784119 80.12025452 C8.98750846 77.62813565 7.40929954 75.13859801 5.86534119 72.55775452 C5.00696926 71.13838914 4.1463023 69.7204091 3.28330994 68.30384827 C2.6459491 67.25753235 2.6459491 67.25753235 1.99571228 66.19007874 C0.6881392 64.13642838 -0.70412877 62.17869808 -2.14637756 60.21791077 C-4.32215881 57.12025452 -4.32215881 57.12025452 -4.32215881 55.12025452 C-1.68215881 55.12025452 0.95784119 55.12025452 3.67784119 55.12025452 C4.14190369 53.94462952 4.14190369 53.94462952 4.61534119 52.74525452 C5.67784119 50.12025452 5.67784119 50.12025452 6.67784119 48.12025452 C5.72264587 48.32908264 4.76745056 48.53791077 3.78330994 48.75306702 C-4.36063463 49.77613483 -4.36063463 49.77613483 -8.32215881 48.12025452 C-13.19110088 43.53168138 -17.32639662 36.50728574 -19.32215881 30.12025452 C-18.96907653 26.37403226 -16.89483818 23.4653033 -14.97840881 20.29603577 C-14.30938538 19.18550842 -13.64036194 18.07498108 -12.95106506 16.93080139 C-12.60189026 16.35708801 -12.25271545 15.78337463 -11.89295959 15.192276 C-10.82117336 13.43113524 -9.75658706 11.66580543 -8.69325256 9.89955139 C-2.79608605 0.14479715 -2.79608605 0.14479715 0 0 Z " fill="#1D99EC" transform="translate(39.32215881347656,14.879745483398438)"/>
<path d="M0 0 C9.57 0 19.14 0 29 0 C26.80514945 5.48712638 24.028842 10.25847709 21 15.3125 C20.4534375 16.24384766 19.906875 17.17519531 19.34375 18.13476562 C18.8178125 19.01455078 18.291875 19.89433594 17.75 20.80078125 C17.27046875 21.60684814 16.7909375 22.41291504 16.296875 23.2434082 C15.86890625 23.8230835 15.4409375 24.40275879 15 25 C14.34 25 13.68 25 13 25 C10.82642556 21.21225306 8.6623228 17.41917971 6.5 13.625 C5.87996094 12.54476563 5.25992187 11.46453125 4.62109375 10.3515625 C4.03457031 9.3203125 3.44804687 8.2890625 2.84375 7.2265625 C2.02680664 5.79691162 2.02680664 5.79691162 1.19335938 4.33837891 C0 2 0 2 0 0 Z " fill="#FEFEFE" transform="translate(5,15)"/>
<path d="M0 0 C12.21 0 24.42 0 37 0 C36.67 1.32 36.34 2.64 36 4 C35.505 3.01 35.505 3.01 35 2 C23.45 2 11.9 2 0 2 C0 1.34 0 0.68 0 0 Z " fill="#3D8FC6" transform="translate(43,42)"/>
</svg>
