<svg class="flash-effect" xmlns="http://www.w3.org/2000/svg" width="50" height="51" fill="none" viewBox="82 80 170 175">
<style>
@keyframes flashAnimation {
    0%, 100% { opacity: 1; }
    50% { opacity: 0; }
}

.flash-effect {
    animation: flashAnimation 1s 2; /* Runs for 1 second and repeats twice */
}
</style>
<g fill="#007BFF" clip-path="url(#a)"><path d="M98.916 181.304c2.394.765 4.784 1.54 7.156 2.38 1.262.43 2.525.878 3.812 1.221 6.872 1.827 13.771 3.573 20.598 5.567a633.51 633.51 0 0 1 12.552 3.874l6.249 2.022 6.226 2.092a24.59 24.59 0 0 1 3.617 1.663 3.405 3.405 0 0 1 1.837 2.538c.261 1.491-.896 2.605-2.682 2.373a13.934 13.934 0 0 1-3.363-.964 92.526 92.526 0 0 0-7.509-2.68 96.815 96.815 0 0 0-7.701-2.065c-1.435-.324-2.954-.578-4.254-1.187-4.155-1.941-8.643-2.948-12.923-4.533-3.182-1.177-6.459-2.112-9.68-3.193l-8.62-2.884c-2.878-.944-5.735-1.962-8.612-2.916a26.682 26.682 0 0 1-3.238-1.426 30.018 30.018 0 0 1-2.831-1.784c-.806-.57-.567-1.181.566-1.198 1.624-.02 3.247.074 4.856.281.662.084 1.32.207 1.974.357l1.937.532.034-.07ZM138.531 119.615l2.271 2.27 2.219 2.329c.787.822 1.578 1.648 2.431 2.398a270.437 270.437 0 0 0 3.437 2.978l3.438 2.973 6.886 5.928 8.46 7.321 8.502 7.275a23.383 23.383 0 0 1 2.348 2.456 2.976 2.976 0 0 1 .701 2.594c-.231 1.272-1.477 1.807-2.847 1.079a11.604 11.604 0 0 1-2.415-1.799 107.783 107.783 0 0 0-10.618-8.691 16.642 16.642 0 0 1-2.968-2.381c-2.614-2.965-5.785-5.33-8.558-8.119-2.058-2.073-4.268-4-6.339-6.066-3.678-3.698-7.318-7.43-10.819-11.295a17.845 17.845 0 0 1-3.238-4.937c-.348-.785.157-1.218 1.003-.757a31.2 31.2 0 0 1 3.475 2.239 28.648 28.648 0 0 1 2.576 2.246l.055-.041ZM201.698 92.177c.368 1.825.729 3.653 1.081 5.483.146.98.349 1.95.609 2.905.749 2.527 1.553 5.037 2.358 7.546a349.002 349.002 0 0 1 2.328 7.545c.922 3.106 1.811 6.22 2.707 9.333l2.636 9.352c.232.968.346 1.961.337 2.959.028.958-.612 1.781-1.567 2.464-1.391.996-3.198.982-3.965-.166a6.352 6.352 0 0 1-.896-2.461 50.686 50.686 0 0 0-3.465-11.412c-.44-1.014-.984-2.047-1.042-3.139-.199-3.483-1.497-6.68-2.064-10.062-.429-2.509-1.093-4.97-1.57-7.47-.426-2.23-.834-4.462-1.225-6.697l-1.036-6.735a11.22 11.22 0 0 1 .417-5.251.918.918 0 0 1 .759-.673.894.894 0 0 1 .901.447 30.768 30.768 0 0 1 1.757 3.2c.355.924.641 1.875.856 2.844l.084-.012ZM252.225 115.239c-.119.487-.22.978-.369 1.459l-.452 1.443a9.615 9.615 0 0 0-.388 1.551c-.179 1.413-.305 2.837-.509 4.244-.187 1.411-.383 2.82-.629 4.219a105.533 105.533 0 0 1-1.02 5.144l-1.162 5.115a4.45 4.45 0 0 1-.755 1.455c-.307.444-1.062.613-2.003.617-1.37.005-2.704-.58-2.882-1.342a2.274 2.274 0 0 1 .171-1.395 16.329 16.329 0 0 0 1.209-6.269c.001-.599-.088-1.243.228-1.759.99-1.653 1.037-3.52 1.678-5.25.486-1.284.696-2.635 1.144-3.93.787-2.313 1.517-4.636 2.383-6.931a4.931 4.931 0 0 1 1.806-2.365.856.856 0 0 1 .709-.116.841.841 0 0 1 .54.469c.095.334.178.672.248 1.011.076.332.124.669.142 1.01a8.871 8.871 0 0 1-.155 1.601l.066.019ZM129.149 251.243c1.115-.443 2.232-.873 3.352-1.292a15.677 15.677 0 0 0 1.754-.726 172.122 172.122 0 0 1 4.49-2.349 66.323 66.323 0 0 1 4.624-2.085 86.21 86.21 0 0 1 5.886-2.089 114.646 114.646 0 0 1 6.006-1.702 5.723 5.723 0 0 1 1.918-.066c.621.051 1.143.619 1.566 1.426.613 1.176.581 2.601-.127 3.109a3.155 3.155 0 0 1-1.518.51 18.535 18.535 0 0 0-6.939 2.183c-.6.321-1.192.74-1.861.783-2.149.128-3.994 1.206-6.006 1.77-.748.215-1.484.47-2.205.764-.727.279-1.446.58-2.177.851-2.606.967-5.215 1.962-7.782 3.079a5.47 5.47 0 0 1-3.427.209c-.553-.1-.817-.622-.606-1.293l.276-.635a.832.832 0 0 1 .168-.272l.194-.233c.257-.304.532-.594.824-.865a4.52 4.52 0 0 1 .772-.569c.281-.148.57-.284.848-.437l-.03-.071Z"/></g><defs><clipPath id="a"><path fill="#fff" d="M.15 179.979 143.746.313l178.103 142.35-143.597 179.665z"/></clipPath></defs></svg>